<svg xmlns="http://www.w3.org/2000/svg" viewBox="0 0 100 100"><defs><style>.cls-1{fill:#563d7c;}.cls-2{fill:#3f2e60;}.cls-3{fill:#fff;}</style></defs><title>Asset 21</title><g id="Layer_2" data-name="Layer 2"><g id="Layer_1-2" data-name="Layer 1"><rect class="cls-1" width="100" height="100"/><path class="cls-2" d="M82.91,25.58,100,58.36V100H30S17.09,78.31,17.09,76.36,19,31,31.3,26.7s21.92-3.39,31.5-3.39c10,0,13.83-5.92,13.83-5.92S81.18,18.13,82.91,25.58Z"/><path class="cls-3" d="M58.5,53.49a7.32,7.32,0,0,0-4.57-1.31H44.38V63.11h9.38a11.6,11.6,0,0,0,2.46-.25A5.83,5.83,0,0,0,58.28,62a4.13,4.13,0,0,0,1.42-1.59,5.42,5.42,0,0,0,.53-2.57C60.23,55.82,59.66,54.36,58.5,53.49Z"/><path class="cls-3" d="M57.11,45.09a4.23,4.23,0,0,0,1.51-3.63,4.59,4.59,0,0,0-.51-2.29,3.66,3.66,0,0,0-1.34-1.39,5.49,5.49,0,0,0-1.92-.7,12.84,12.84,0,0,0-2.26-.19H44.38v9.32h8.88A6.34,6.34,0,0,0,57.11,45.09Z"/><path class="cls-3" d="M74.42,17.09H25.58a8.49,8.49,0,0,0-8.49,8.49V74.42a8.49,8.49,0,0,0,8.49,8.49H74.42a8.49,8.49,0,0,0,8.49-8.49V25.58A8.49,8.49,0,0,0,74.42,17.09Zm-6.6,46.5a10.15,10.15,0,0,1-3.15,3.6,13.83,13.83,0,0,1-4.52,2.06,20.2,20.2,0,0,1-5.22.67H35.62V30.08H54.37a24.45,24.45,0,0,1,5.19.5,10.91,10.91,0,0,1,4,1.65,7.63,7.63,0,0,1,2.6,3A10.69,10.69,0,0,1,67.1,40a8.76,8.76,0,0,1-1.37,5,10,10,0,0,1-4,3.29A9.58,9.58,0,0,1,67.18,52,11.05,11.05,0,0,1,69,58.37,10.87,10.87,0,0,1,67.82,63.59Z"/></g></g></svg>