<svg xmlns="http://www.w3.org/2000/svg" viewBox="0 0 100 100"><defs><style>.cls-1{fill:#ee4323;}.cls-2{fill:#ce2d17;}.cls-3{fill:#fff;}</style></defs><title>Asset 23</title><g id="Layer_2" data-name="Layer 2"><g id="Layer_1-2" data-name="Layer 1"><rect class="cls-1" width="100" height="100"/><path class="cls-2" d="M71.6,47.64,100,82v18H34.14L22.21,81.1s-1.58-5,2-7.28,9-11.46,9-11.46,5.73-11.66,6.23-15.83,4.76-10.83,7.55-9.33S71.6,47.64,71.6,47.64Z"/><path class="cls-3" d="M24.22,80.44c-1.17,0-1.51-.67-1.51-1.69a7.87,7.87,0,0,1,.1-1.13c.25-1.76.88-2.77,2.38-2.77,1,0,1.52.46,1.52,1.28v.41h1s0-.37,0-.46a2.27,2.27,0,0,0-2.53-2.36c-2.46,0-3.47,1.34-3.84,4a7.15,7.15,0,0,0-.08,1c0,1.53.6,2.93,2.77,2.93a3.46,3.46,0,0,0,3.19-1.78l-1-.66a2.27,2.27,0,0,1-2.06,1.25Zm6.63-4.86c-2,0-2.81,1-3.1,3a5.62,5.62,0,0,0-.05.7A2.07,2.07,0,0,0,30,81.62c2,0,2.83-1.05,3.11-3a4.66,4.66,0,0,0,.06-.72,2.06,2.06,0,0,0-2.3-2.3Zm.82,3c-.21,1.45-.67,1.9-1.53,1.9-.69,0-1-.29-1-1.15a4.35,4.35,0,0,1,.07-.75c.21-1.45.63-1.89,1.5-1.89.7,0,1.05.28,1.05,1.16a5.22,5.22,0,0,1-.06.73Zm6.41-4.77-.32,2c0,.17,0,.11.05.27a2.38,2.38,0,0,0-1.23-.39c-1.77,0-2.75.8-3.07,3a4.63,4.63,0,0,0,0,.71,2,2,0,0,0,2.24,2.23,2.14,2.14,0,0,0,1.48-.34l.11.66h1l1.19-8.12Zm-1,6.36a2.41,2.41,0,0,1-1.23.35c-.78,0-1-.4-1-1.05a6.93,6.93,0,0,1,.07-.84c.25-1.69.79-2,1.49-2a2.25,2.25,0,0,1,1.13.26l-.47,3.27Zm5.52-4.61c-2,0-2.86.93-3.17,3a6.25,6.25,0,0,0,0,.73,2.06,2.06,0,0,0,2.34,2.29,2.83,2.83,0,0,0,2.69-1.47l-1.07-.44a1.6,1.6,0,0,1-1.46.79c-.78,0-1.1-.21-1.1-.92a1.07,1.07,0,0,1,0-.33h3.83c.06-.55.12-.93.12-1.25,0-1.06-.4-2.42-2.16-2.42Zm.73,2.58H41c.24-.54.63-1.38,1.44-1.38.62,0,.93.37.93,1a1.68,1.68,0,0,1,0,.38Zm5.52-2.71L49,74.37H46l-.13,1.08h.79l-.85,5.42H45L44.88,82h3L48,80.87h-.79l.85-5.42Zm6.08,1.63L55.31,76h-1l-.74.15A2.89,2.89,0,0,0,52,75.69c-1.52,0-2.81.73-2.81,2.4a1.81,1.81,0,0,0,.37,1.1A1,1,0,0,0,49,80a.76.76,0,0,0,.19.5,2,2,0,0,0-1,1.76c0,1.44,1.5,1.74,2.64,1.74,1.45,0,3.17-.33,3.17-2.16,0-.63-.4-1.12-1.53-1.33l-2-.38c-.24-.05-.29-.12-.29-.23a.23.23,0,0,1,.26-.24l.13,0a3.9,3.9,0,0,0,.93.1c1.47,0,2.79-.64,2.79-2.3a1.42,1.42,0,0,0-.15-.64,2.66,2.66,0,0,0,.51.22ZM52,81.47c.4.08.54.23.54.49,0,.86-.92,1-1.59,1-1,0-1.4-.25-1.4-.79a1.31,1.31,0,0,1,.46-1l2,.37Zm-.43-2.78c-.62,0-1-.22-1-.75a1.13,1.13,0,0,1,1.25-1.24c.64,0,1,.26,1,.78a1.11,1.11,0,0,1-1.24,1.21Zm7.12-3.11a2.92,2.92,0,0,0-1.78.81l-.1-.39H55.65l-.81,6h1.41l.61-4.51a3.16,3.16,0,0,1,1.36-.63c.53,0,.73.26.73.75,0,.11,0,.46,0,.59L58.39,82h1.42l.52-3.83c0-.18,0-.48,0-.65,0-1-.48-1.89-1.67-1.89Zm4.35,4.88v-.14L63.68,76H61.33l-.15,1.08h1c-.08,0-.14.09-.15.18l-.42,2.88a5.17,5.17,0,0,0,0,.54A1.15,1.15,0,0,0,62.84,82h.72l.16-1.08h-.46c-.16,0-.21-.28-.21-.41ZM64,73.83H62.58c-.08,0-.08-.31-.09-.21l-.19,1.53c0,.1,0,.3.07.3h1.38c.09,0,.09-.37.1-.46L64,73.81c0-.11,0,0-.08,0Zm2.88,6.67c-.35,0-.52-.15-.52-.47v0l.45-2.93h1.61L68.88,76H66.93l.33-2.39-1.49.48L65.5,76h-.86l-.14,1.08h1c-.09.54-.19.19-.2.3L64.91,80a1.56,1.56,0,0,0,0,.3c0,1,.74,1.39,1.63,1.39a3,3,0,0,0,2-.68l-.66-.81a1.71,1.71,0,0,1-1,.35ZM72,75.58c-1.94,0-2.85.93-3.16,3a6.25,6.25,0,0,0,0,.73,2.06,2.06,0,0,0,2.34,2.29,2.84,2.84,0,0,0,2.69-1.47l-1.07-.44a1.61,1.61,0,0,1-1.46.79c-.78,0-1.1-.21-1.1-.92a1.07,1.07,0,0,1,0-.33h3.83c.05-.55.12-.93.12-1.25,0-1.06-.41-2.42-2.17-2.42Zm.74,2.58H70.42c.23-.54.63-1.38,1.43-1.38a.87.87,0,0,1,.94,1,1.68,1.68,0,0,1,0,.38Zm5.33-2.58a2.21,2.21,0,0,0-1.46.75L76.54,76H75.38l-.82,6H76l.63-4.61a2.46,2.46,0,0,1,1.2-.41,6,6,0,0,1,.73,0l.18-1.23a3.47,3.47,0,0,0-.63-.11ZM42,69.56c-3.21-1.39-6.22-4.92-6.22-8.53,0-3.94,2.48-7.28,5.59-9.48-.38,1.41-.58,2.7.34,4A3.74,3.74,0,0,0,45.54,57c3.32-.73,3.47-4.38,1.51-6.51S43.22,46,44,42.9a7.88,7.88,0,0,1,2.5-4c-.92,2.41,1.68,4.78,3.4,6,3,2.05,6.23,3.6,9,6s5,6,4.57,9.91c-.47,4.29-3.88,7.28-7.7,8.79,8.08-1.79,16.44-8.07,16.61-17,.14-7.37-4.92-13.05-11.19-16.3l-.33-.18A2.61,2.61,0,0,1,61,37.14a3.58,3.58,0,0,0,.11-.73,3.17,3.17,0,0,1-.12.88v-.15a3.47,3.47,0,0,1-.46,1.1l.09-.09a3.94,3.94,0,0,1-6.31.37c-2.69-3.45.06-7.18.44-10.84.48-4.59-2.39-9-6-11.7,2,3.17-.62,7.38-2.69,9.73S41.67,29.89,39.45,32a55.57,55.57,0,0,0-6.63,7.17c-3.91,5.23-6.31,11.79-4.55,18.31S35.67,68.1,42,69.56Z"/></g></g></svg>