<svg xmlns="http://www.w3.org/2000/svg" viewBox="0 0 100 100"><defs><style>.cls-1{fill:#2196f3;}.cls-2{fill:#1b85cc;}.cls-3{fill:#fff;}</style></defs><title>Asset 17</title><g id="Layer_2" data-name="Layer 2"><g id="Layer_1-2" data-name="Layer 1"><rect class="cls-1" width="100" height="100"/><polygon class="cls-2" points="27.99 74.49 73.08 100 100 100 100 50 75.5 18.63 67.4 27.67 30.73 27 27.99 74.49"/><path class="cls-3" d="M22.57,18.63l5,56.47L50,81.37,72.47,75.1l5-56.47ZM66.78,37.09l-.63,7.1-1.9,21.26L50,69.39h0L35.8,65.45l-1-11.12h7l.52,5.77L50,62.19h0l7.74-2.08,1.06-9.61-24.35.06L33.78,44l25.62-.3.52-7-26.83.08-.45-6.55H67.4Z"/></g></g></svg>