<svg xmlns="http://www.w3.org/2000/svg" viewBox="0 0 100 100"><defs><style>.cls-1{fill:#fc490b;}.cls-2{fill:#d3441e;}.cls-3{fill:#fff;}</style></defs><title>Asset 16</title><g id="Layer_2" data-name="Layer 2"><g id="Layer_1-2" data-name="Layer 1"><rect class="cls-1" width="100" height="100"/><polygon class="cls-2" points="27.99 74.49 73.08 100 100 100 100 50 75.5 18.63 67.51 26.67 26.39 27 27.99 74.49"/><path class="cls-3" d="M22.58,20.7l4.07,52.1A1.93,1.93,0,0,0,28,74.49l21.43,6.79a1.91,1.91,0,0,0,1.16,0L72,74.49a1.93,1.93,0,0,0,1.34-1.69l4.07-52.1a1.92,1.92,0,0,0-1.92-2.07h-51A1.92,1.92,0,0,0,22.58,20.7ZM67,36.87H40.44l.8,7.38H66.4L64.76,65.31,50,70,35.24,65.31l-.86-11h7.75v5.4l8.08,2.16,8-2.16.62-8.6H34.13l-1.64-21h35Z"/></g></g></svg>