<svg xmlns="http://www.w3.org/2000/svg" viewBox="0 0 100 100"><defs><style>.cls-1{fill:#ff7f18;}.cls-2{fill:#dd6512;}.cls-3{fill:#fff;}</style></defs><title>Asset 30</title><g id="Layer_2" data-name="Layer 2"><g id="Layer_1-2" data-name="Layer 1"><rect class="cls-1" width="100" height="100"/><polygon class="cls-2" points="80.67 21.63 100 53.09 100 100 40.48 100 19.33 81.45 19.33 21.63 80.67 21.63"/><path class="cls-3" d="M21.88,24.43H78.12v54.7H21.88ZM19.33,81.69H80.67V21.87H19.33Zm40.18-38.5c0-.2.08-.31.31-.31h4c.2,0,.31.08.31.31V63.36c0,.2-.06.3-.31.3h-4c-.26,0-.34-.12-.34-.33V43.19Zm-.28-5.8a2.61,2.61,0,1,1,5.21,0A2.44,2.44,0,0,1,61.78,40,2.39,2.39,0,0,1,59.23,37.39ZM47.73,51.6c-.72-2.84-2.41-9-3-12h0c-.53,3-1.89,8-3,12Zm-7.11,4.14-2,7.67c-.05.2-.13.25-.38.25H34.46c-.26,0-.31-.07-.26-.38l7.26-25.41a8.06,8.06,0,0,0,.26-2.12c0-.18.07-.25.2-.25h5.37c.18,0,.26,0,.31.25l8.13,27.58c.05.21,0,.33-.21.33H51.28c-.21,0-.33,0-.39-.23L48.8,55.74Z"/></g></g></svg>