<svg xmlns="http://www.w3.org/2000/svg" viewBox="0 0 100 100"><defs><style>.cls-1{fill:#eec625;}.cls-2{fill:#c4a318;}.cls-3{fill:#fff;}</style></defs><title>Asset 18</title><g id="Layer_2" data-name="Layer 2"><g id="Layer_1-2" data-name="Layer 1"><rect class="cls-1" width="100" height="100"/><polygon class="cls-2" points="19.39 82.76 54.25 100 100 100 100 50.49 84.91 17.24 76.16 33.03 48.1 29.85 19.39 82.76"/><path class="cls-3" d="M19.69,17.24V82.76H85.2V17.24ZM50.85,60.1c0,6.49-3.93,9.36-9.57,9.58-5,0-8-2.56-9.47-5.75L37,60.74c1,1.7,1.92,3.19,4,3.19s3.4-.74,3.4-3.93V38.62h6.38Zm14.89,9.26c-5.85,0-9.68-2.77-11.49-6.38l5.11-2.88c1.28,2.34,3,3.94,6.17,3.94,2.66,0,4.25-1.38,4.25-3.19,0-2.23-1.81-3.09-4.57-4.26L63.72,56c-4.47-2-7.55-4.47-7.55-9.58,0-4.57,3.62-8.19,9.25-8.19,3.94,0,6.81,1.39,8.83,5l-4.89,3.19c-1.17-1.91-2.24-2.66-4-2.66s-3.09,1.17-3.09,2.66c0,2,1.28,2.66,3.94,3.83l1.49.64h0c5.42,2.34,8.4,4.68,8.5,9.79C76.16,66.17,71.7,69.36,65.74,69.36Z"/><circle class="cls-2" cx="21.28" cy="62.98" r="6.49"/></g></g></svg>