<svg xmlns="http://www.w3.org/2000/svg" viewBox="0 0 100 100"><defs><style>.cls-1{fill:#5191cb;}.cls-2{fill:#3c81b5;}.cls-3{fill:#fff;}</style></defs><title>Asset 25</title><g id="Layer_2" data-name="Layer 2"><g id="Layer_1-2" data-name="Layer 1"><rect class="cls-1" width="100" height="100"/><path class="cls-2" d="M75,26.86l25,42.22V100H42L23.76,69.21s11.4-20.13,10.4-21.8-11.34-14.33-1-16,13,4,19.67,3S75,26.86,75,26.86Z"/><path class="cls-3" d="M37.39,37.94a4.29,4.29,0,0,1,6.09,0l.4.4,5.18-5.19-.4-.4a11.6,11.6,0,0,0-10.89-3.1,7,7,0,1,0-8.48,8A11.64,11.64,0,0,0,32.2,49.23L43.88,60.91l5.18-5.19L37.38,44a4.32,4.32,0,0,1,0-6.1Z"/><path class="cls-3" d="M76.18,30.79a7,7,0,0,0-14-1,11.62,11.62,0,0,0-11.51,2.94L39,44.44l5.18,5.19L55.87,38A4.3,4.3,0,1,1,62,44l-.4.4,5.18,5.19.4-.41a11.65,11.65,0,0,0,3-11.46,7,7,0,0,0,6.1-7Z"/><path class="cls-3" d="M70.21,62.25a11.63,11.63,0,0,0-3.08-11L55.47,39.57l-5.18,5.19L62,56.44a4.3,4.3,0,1,1-6.08,6.09l-.4-.4-5.18,5.19.4.4a11.63,11.63,0,0,0,11.65,2.9,7,7,0,1,0,7.87-8.37Z"/><path class="cls-3" d="M55.14,50.85,43.48,62.54a4.31,4.31,0,0,1-6.1-6.1l.4-.4L32.6,50.85l-.4.4a11.64,11.64,0,0,0-3,11.12,7,7,0,1,0,8.46,8.42,11.63,11.63,0,0,0,11-3.06L60.32,56Z"/></g></g></svg>