<svg xmlns="http://www.w3.org/2000/svg" viewBox="0 0 100 100"><defs><style>.cls-1{fill:#0669ac;}.cls-2{fill:#066193;}.cls-3{fill:#fff;}</style></defs><title>Asset 20</title><g id="Layer_2" data-name="Layer 2"><g id="Layer_1-2" data-name="Layer 1"><rect class="cls-1" width="100" height="100"/><path class="cls-2" d="M93.06,41.47,100,59.86V100H37.2L8.25,51.92a19.66,19.66,0,0,0,7.24,2.55,7.9,7.9,0,0,0,7.37-3.4A26.19,26.19,0,0,1,27,47.28h7.63s7.08-7.56,9.79-5.18.58,9.82.58,9.82,14.25,1.21,16.5,0S62,46,65,46.12A31.41,31.41,0,0,0,69.7,46s4.89,0,8.07-.15a26.9,26.9,0,0,1,5.71.41l.71,2.53Z"/><path class="cls-3" d="M8,44.3a6.67,6.67,0,0,0-.16,6.81l.08.16,0,.09,0,.06.06.1.1.18.06.09.12.19.05.08.17.25h0l0,0,.15.21.06.08.15.18.06.06a2.2,2.2,0,0,0,.2.23h0l.2.22.07.06.17.16.06.07.23.2h0l0,0,.21.17.08.07.17.13.09.07.19.14.07,0h0l.19.13.08.05.29.18.08,0,.22.13.12.06.16.08,0,0,.07,0,.25.11.05,0,.29.12.07,0,.27.1,0,0,.31.1.07,0c.11,0,.21.07.32.09,6.81,1.24,8.79-4.1,8.79-4.1-1.66,2.17-4.61,2.74-7.41,2.1a1.81,1.81,0,0,1-.31-.09l-.08,0-.3-.1h0l-.26-.1-.08,0-.29-.12,0,0-.24-.12-.07,0-.19-.09L13,53.05l-.23-.12-.07,0-.3-.18-.07-.05-.21-.14-.07,0-.2-.14a.27.27,0,0,0-.08-.07l-.18-.14-.08-.06-.22-.19,0,0-.23-.21L11,51.58l-.16-.16-.07-.07a2.09,2.09,0,0,1-.2-.22h0a2.29,2.29,0,0,1-.21-.23l-.06-.07c0-.06-.09-.12-.15-.18l-.05-.07c-.06-.07-.11-.15-.17-.23a7.2,7.2,0,0,1-.87-7.44"/><path class="cls-3" d="M12.33,42.59a4.86,4.86,0,0,0-.17,5,5.84,5.84,0,0,0,.45.76,3.3,3.3,0,0,0,.52.65l.23.24.06.06.23.22h0a3.2,3.2,0,0,0,.27.22l.06.05.28.21h0l.14.08.06,0,.21.13,0,0,.18.1.07,0,.13.07h0l.27.12.06,0,.23.09.09,0,.21.07.09,0,.3.09c5.26.87,6.48-3.18,6.48-3.18a5,5,0,0,1-5.48,1.74l-.3-.08-.09,0-.21-.07-.09,0-.23-.09-.06,0-.27-.12L16,49l-.08,0-.17-.1,0,0a1.48,1.48,0,0,1-.21-.13l-.07,0-.14-.09a2.55,2.55,0,0,1-.28-.21l-.06-.05a6.26,6.26,0,0,1-2.15-3.06,4.7,4.7,0,0,1,.37-3.81"/><path class="cls-3" d="M16.45,40.7A3.49,3.49,0,0,0,17.69,45a4,4,0,0,0,.71.44l.41.17a2.3,2.3,0,0,0,.35.1c1.42.35,2.58.11,3.27-.88a3.24,3.24,0,0,1-3.9,1.79l-.19-.05-.06,0-.13-.05a4.16,4.16,0,0,1-2.39-2.23,3,3,0,0,1,.25-3"/><path class="cls-3" d="M83.36,45.46l.11.48a.19.19,0,0,1-.19.25"/><path class="cls-3" d="M74.19,44.63c0,.14-.06.31-.09.42l-1,4.7,1.05-5Z"/><polygon class="cls-3" points="44.05 47.78 43.5 49.75 44.05 47.78 44.05 47.78"/><path class="cls-3" d="M83.47,45.94l-.29-1.22c-.23-.89-.87-1.31-2.33-1.31H74.73c-.14,0-.29.06-.31.2l-2.33,11a.7.7,0,0,0,0,.31c0,.07.29.06.43.06h2.12a2.22,2.22,0,0,0,.47,0c.08,0,.12-.25.15-.38L76,50.73l.91-4.28a.33.33,0,0,1,.31-.25h6.07a.19.19,0,0,0,.19-.25"/><path class="cls-3" d="M92.1,41.48H89.41a.63.63,0,0,0-.4.26l-4.72,6.95c-.08.12-.17.11-.2,0l-.35-1.53a.34.34,0,0,0-.32-.25h-3a.19.19,0,0,0-.19.26l1.36,4.77a1.16,1.16,0,0,1,0,.49l-.63,2.42c0,.13,0,.18.19.18h3c.14,0,.29,0,.32-.18l.63-2.45a1.81,1.81,0,0,1,.22-.44L93,41.72c.09-.11.07-.25-.07-.25Z"/><path class="cls-3" d="M60.5,43.42H57.76c-.14,0-.28,0-.31.19l-.9,4.23-.91,4.06c0,.14-.16.13-.31.13h-1.8c-1.78,0-1.57-1.13-1.2-2.81,0,0,1.14-5.61,1.14-5.61s-.07-.19-.21-.19H50.65c-.14,0-.28,0-.31.19l-1.05,5.6c-.52,3-.54,5.7,3,5.79h5.55c.14,0,.28,0,.31-.19l1.19-5.62,1.19-5.64S60.55,43.42,60.5,43.42Z"/><path class="cls-3" d="M33.22,43.41H30.28c-.14,0-.28,0-.31.17l-.53,2.3a.19.19,0,0,0,.2.24h2.81a.35.35,0,0,0,.31-.27l.51-2.31S33.31,43.41,33.22,43.41Z"/><path class="cls-3" d="M29.45,46.89a.34.34,0,0,0-.32.25l-.39,1.75-.88,4s-.47,2.15-.52,2.28-.4,1.55-1.34,1.49a8.64,8.64,0,0,1-.94-.13h0c-.26-.08-.28.19-.31.33l-.58,2.52a.19.19,0,0,0,.19.26,19.21,19.21,0,0,0,2.16.18h.15c2.2,0,3.37-1.3,4.11-4.82L31.65,51l.81-3.8a.2.2,0,0,0-.19-.26"/><path class="cls-3" d="M67.43,43.39c-4.94,0-6.12,3.06-6.77,6.08S60.06,55,65.17,55h4.68a.35.35,0,0,0,.3-.27l.5-2c0-.13-.06-.18-.2-.18h-4.6c-1.66,0-2.26-.51-2.2-1.66,0-.13.15-.46.29-.46H71c.31,0,.32-.19.32-.19.72-3.25.77-6.89-3.91-6.89m1.31,4.85c0,.15-.49.13-.49.13l-3.85,0c-.13,0-.17-.19-.18-.32a1.91,1.91,0,0,1,0-.2,2.4,2.4,0,0,1,2.6-1.62c1.58,0,1.92.78,1.92,1.65"/><path class="cls-3" d="M46.08,51.81a32.42,32.42,0,0,0,1.7-5.3c.43-2.6-.87-6.37-5.9-6.37s-7.17,3.6-8,7.51S34.14,55,39.11,55H46.7a.35.35,0,0,0,.32-.25l.64-2.43a.19.19,0,0,0-.2-.25H46.24c-.12,0-.19-.08-.17-.18a.13.13,0,0,1,0-.06m-2.61-2.06-.57,2a.36.36,0,0,1-.34.22H39.63c-2.23,0-2.78-1.72-2.23-4.29s1.62-4.25,3.81-4.42c3-.22,3.61,1.9,2.88,4.33Z"/></g></g></svg>