<svg xmlns="http://www.w3.org/2000/svg" viewBox="0 0 100 100"><defs><style>.cls-1{fill:#2089b9;}.cls-2{fill:#13789b;}.cls-3{fill:#fff;}</style></defs><title>Asset 28</title><g id="Layer_2" data-name="Layer 2"><g id="Layer_1-2" data-name="Layer 1"><rect class="cls-1" width="100" height="100"/><path class="cls-2" d="M68.76,24.59,100,62.3V100H37.5L20.55,61.42A32.88,32.88,0,0,1,19,43.84C21.13,32.78,55.4,18.54,68.76,24.59Z"/><path class="cls-3" d="M52.54,66.81C48.81,59.67,36.14,49.44,37,45.71s6.5-9.58,4.55-10.07-15.43,5.8-20.95,25.78A31.46,31.46,0,0,0,54,81.32C54.59,77.51,54.93,71.4,52.54,66.81Z"/><path class="cls-3" d="M81.59,50a31.59,31.59,0,0,0-63.18,0c0,.62,0,1.23.06,1.83,4.89-7.18,16.14-22.08,25.14-21.71,11.85.49,15.1,4.06,20.46,9.91S76.89,45.71,76.89,48,63.74,47.33,60.49,52s1.3,12.66,1.3,14.12c0,.94.27,7.87,0,13.16A31.59,31.59,0,0,0,81.59,50Z"/><ellipse class="cls-3" cx="55.1" cy="39.38" rx="2.23" ry="1.54"/></g></g></svg>