<svg xmlns="http://www.w3.org/2000/svg" viewBox="0 0 100 100"><defs><style>.cls-1{fill:#00758f;}.cls-2{fill:#005968;}.cls-3{fill:#fff;}</style></defs><title>Asset 26</title><g id="Layer_2" data-name="Layer 2"><g id="Layer_1-2" data-name="Layer 1"><rect class="cls-1" width="100" height="100"/><path class="cls-2" d="M76.8,43.46,100,61.38V100H38.35l-23-30.59,1.76-14.66,2.58,2.42,3.25,10.48,4.75-11.07,1.83-1.47,1,9.14,3-6.24,2.2,1.24,2.42,8.4,1,.78,3.08-10.26,4.33-2.42,6.17-1.41H60s3.25-.92,5.5.41S69,48.94,69,48.94l-4.66-6s-.92,3-1.46,3.08a2.77,2.77,0,0,1-2.08-2.33c0-1.25.05-4.76.54-5.84s-1.75-2.95-2-4.33-2.79-4-2.67-5-.17-2.25,2.48-1,5.6,1.79,6.56,2.25a29.35,29.35,0,0,1,4.78,3.75C71.49,34.46,75.77,44,76.8,43.46Z"/><path class="cls-3" d="M32,69.41H29.32c-.09-4.53-.36-8.79-.78-12.78h0L24.44,69.41h-2l-4-12.78h0c-.3,3.84-.49,8.09-.57,12.78H15.32q.24-8.55,1.18-16h3.32l3.86,11.78h0l3.88-11.78h3.17q1.05,8.76,1.24,16"/><path class="cls-3" d="M43.6,57.58Q42,66.47,39.29,70.51q-2.09,3.1-4.57,3.1a4.52,4.52,0,0,1-1.63-.39V71.79a8.64,8.64,0,0,0,1.11.07,2.72,2.72,0,0,0,1.87-.64,2.35,2.35,0,0,0,.85-1.76,11.6,11.6,0,0,0-.66-2.73l-2.94-9.15H36l2.11,6.84a9.34,9.34,0,0,1,.59,3.26,44.57,44.57,0,0,0,2.42-10.1H43.6"/><path class="cls-3" d="M55.33,65a4.28,4.28,0,0,1-1.49,3.35,5.88,5.88,0,0,1-4,1.3,7.94,7.94,0,0,1-4.54-1.5L46,66.75a7.86,7.86,0,0,0,3.44,1,3.64,3.64,0,0,0,2.26-.64,2.21,2.21,0,0,0,.87-1.78c0-1-.66-1.77-1.88-2.45s-3.36-1.91-3.36-1.91a3.82,3.82,0,0,1-1.82-3.41,4,4,0,0,1,1.36-3.14,5.08,5.08,0,0,1,3.51-1.21,7.25,7.25,0,0,1,4,1.19l-.61,1.38a7.87,7.87,0,0,0-3.08-.66,2.71,2.71,0,0,0-1.89.59,2,2,0,0,0-.72,1.52c0,1,.67,1.77,1.92,2.47s3.44,1.93,3.44,1.93A3.81,3.81,0,0,1,55.33,65"/><path class="cls-3" d="M60.11,66.2a9.86,9.86,0,0,1-1-5q0-6.06,3.67-6.06a3.09,3.09,0,0,1,2.82,1.45,9.79,9.79,0,0,1,1,5q0,6.11-3.67,6.1a3.07,3.07,0,0,1-2.82-1.45m9.52,3.6-2.94-1.46a5,5,0,0,0,.74-.71q1.88-2.2,1.87-6.53,0-8-6.23-8a5.89,5.89,0,0,0-4.76,2q-1.87,2.21-1.87,6.51c0,2.82.55,4.88,1.66,6.2a5.67,5.67,0,0,0,4.57,1.78,7.6,7.6,0,0,0,2.09-.28l3.83,2.23,1-1.8"/><path class="cls-3" d="M79.23,69.41H71.62v-16h2.56V67.44h5v2"/><path class="cls-3" d="M81.05,69.41h.43V67.78H82v-.33H80.48v.33h.57v1.63Zm3.23,0h.4v-2h-.6l-.49,1.33-.54-1.33h-.57v2h.37v-1.5h0l.56,1.5h.29l.56-1.5v1.5"/><path class="cls-3" d="M82.44,48a9,9,0,0,0-3.75.54c-.29.12-.75.12-.79.49.15.15.17.4.31.62a4.52,4.52,0,0,0,1,1.18c.41.31.81.62,1.24.89.75.46,1.6.73,2.34,1.2.42.27.85.62,1.27.91.21.16.35.41.62.5v-.06c-.14-.17-.17-.42-.31-.62s-.39-.36-.58-.56a9.29,9.29,0,0,0-2-2c-.62-.43-2-1-2.22-1.73l0,0a7.37,7.37,0,0,0,1.33-.32c.66-.17,1.26-.13,1.94-.31.3-.07.61-.17.92-.27v-.17c-.35-.35-.6-.82-1-1.14a25.75,25.75,0,0,0-3.19-2.39c-.6-.38-1.37-.63-2-1-.23-.11-.62-.17-.75-.36A8.25,8.25,0,0,1,76,42c-.55-1.06-1.1-2.24-1.58-3.37a21.9,21.9,0,0,0-1-2.2A19.58,19.58,0,0,0,66,29.14a9.17,9.17,0,0,0-2.47-.79L62,28.27a7.47,7.47,0,0,1-.89-.68c-1.1-.7-3.94-2.21-4.75-.21-.53,1.26.77,2.5,1.21,3.14a8.85,8.85,0,0,1,1,1.45c.13.33.17.68.31,1a24.36,24.36,0,0,0,1,2.59,8.47,8.47,0,0,0,.72,1.2c.15.22.42.31.48.66a5.41,5.41,0,0,0-.44,1.46,8.49,8.49,0,0,0,.56,6.5c.3.49,1,1.55,2,1.15s.68-1.46.93-2.42c.06-.24,0-.39.14-.55v0c.27.54.54,1.07.79,1.61a10.84,10.84,0,0,0,2.51,2.59c.46.35.83,1,1.41,1.17v-.06h0c-.11-.18-.29-.25-.44-.39a9.12,9.12,0,0,1-1-1.16,25.61,25.61,0,0,1-2.16-3.53c-.31-.6-.58-1.26-.83-1.86-.12-.23-.12-.58-.31-.69a7,7,0,0,0-.93,1.31,11.49,11.49,0,0,0-.54,2.93c-.08,0,0,0-.08,0-.61-.16-.83-.8-1.06-1.34a8.33,8.33,0,0,1-.17-5.17c.13-.41.71-1.69.48-2.07s-.5-.58-.71-.88a7.19,7.19,0,0,1-.7-1.24c-.46-1.08-.7-2.28-1.2-3.37a11.41,11.41,0,0,0-1-1.49,9.3,9.3,0,0,1-1.07-1.51c-.09-.21-.23-.56-.07-.79a.28.28,0,0,1,.27-.25c.25-.22,1,.05,1.21.17a9.59,9.59,0,0,1,1.92,1c.27.19.56.56.9.66h.41c.62.13,1.31,0,1.89.21a12.21,12.21,0,0,1,2.79,1.34,17.16,17.16,0,0,1,6,6.62c.23.45.33.85.54,1.32.41.95.91,1.92,1.32,2.85a12.27,12.27,0,0,0,1.37,2.59c.29.41,1.45.62,2,.84a10.55,10.55,0,0,1,1.33.54c.66.4,1.32.87,1.94,1.31.3.24,1.27.72,1.33,1.11"/><path class="cls-3" d="M62.73,31.17a2.92,2.92,0,0,0-.79.1v0h0a5.26,5.26,0,0,0,.62.79L63,33a.14.14,0,0,0,0,0,1.08,1.08,0,0,0,.41-1,4.36,4.36,0,0,1-.24-.41c-.11-.19-.36-.29-.52-.45"/></g></g></svg>