<svg xmlns="http://www.w3.org/2000/svg" viewBox="0 0 100 100"><defs><style>.cls-1{fill:#31c5f0;}.cls-2{fill:#22b2d3;}.cls-3{fill:#fff;}</style></defs><title>Asset 29</title><g id="Layer_2" data-name="Layer 2"><g id="Layer_1-2" data-name="Layer 1"><rect class="cls-1" width="100" height="100"/><polygon class="cls-2" points="80.67 21.63 100 53.09 100 100 40.48 100 19.33 81.45 19.33 21.63 80.67 21.63"/><path class="cls-3" d="M19.33,21.63V81.45H80.67V21.63Zm58.8,57.26H21.88V24.19H78.13Z"/><path class="cls-3" d="M34.46,63.4h3.91c.23,0,.31-.09.31-.3V53.29c.69,0,1,.05,2,.05,5.78,0,10.49-2.79,10.49-9.29,0-4.95-2.77-8.84-9.85-8.84-2.52,0-5,0-6.59.13-.21,0-.57.12-.57.31V63.1C34.15,63.33,34.25,63.4,34.46,63.4Zm6.7-24.13c3.41,0,5.42,1.64,5.42,4.88,0,4.07-2.81,5.12-5.8,5.12-1,0-1.48,0-2.07-.05V39.35C39.17,39.32,40.14,39.27,41.16,39.27Z"/><path class="cls-3" d="M53.85,62.75a11.06,11.06,0,0,0,5.24,1.1c4.21,0,7.33-2.2,7.33-6.3,0-2.73-1.25-4.6-5.26-6.54-2.71-1.4-3.17-2-3.17-3s.69-1.87,2.71-1.87a8.74,8.74,0,0,1,4.45,1.14c.25.08.38,0,.38-.25V43.56a.55.55,0,0,0-.26-.51,11.75,11.75,0,0,0-4.57-.72c-4.48,0-7.06,2.74-7.06,6,0,3,1.51,4.71,5.14,6.44C61.36,56.15,62,57,62,57.88c0,1.15-.85,2-2.86,2A9.49,9.49,0,0,1,54,58.36c-.19-.12-.31,0-.31.21v3.78C53.64,62.54,53.66,62.68,53.85,62.75Z"/></g></g></svg>