<svg xmlns="http://www.w3.org/2000/svg" viewBox="0 0 100 100"><defs><style>.cls-1{fill:#4f5b93;}.cls-2{fill:#3e4a77;}.cls-3{fill:#fff;}</style></defs><title>Asset 22</title><g id="Layer_2" data-name="Layer 2"><g id="Layer_1-2" data-name="Layer 1"><rect class="cls-1" width="100" height="100"/><path class="cls-2" d="M81.88,42.81,100,76.7V100H31.1L16.66,66.75l5.69-23.94s6.59,1.6,10.63-.61,5.53,1.14,5.53,1.14l9.47,0L58.33,44.5l16.4-.93S81.1,50.06,81.88,42.81Z"/><path class="cls-3" d="M21.94,40.3h9.89q4.35,0,6.31,2.51t1.29,6.75a12.87,12.87,0,0,1-1.15,3.83,11.24,11.24,0,0,1-2.36,3.4,8.16,8.16,0,0,1-4,2.43,17.87,17.87,0,0,1-4.35.52H23.19l-1.4,7H16.66L21.94,40.3h0m4.32,4.2L24,55.57a2.25,2.25,0,0,0,.44,0H25a19.58,19.58,0,0,0,5.9-.7c1.58-.52,2.64-2.31,3.18-5.39q.66-3.87-1.33-4.46a16.45,16.45,0,0,0-4.91-.56,8.32,8.32,0,0,1-.85,0h-.77l0,0"/><path class="cls-3" d="M45.27,33.25h5.09l-1.44,7H53.5c2.51.05,4.38.56,5.61,1.55s1.62,2.85,1.1,5.6L57.74,59.74H52.58L54.94,48a3.37,3.37,0,0,0-.22-2.62,3.15,3.15,0,0,0-2.55-.78l-4.1,0-3,15.16H40l5.31-26.49h0"/><path class="cls-3" d="M65.68,40.3h9.89q4.35,0,6.31,2.51t1.29,6.75A12.85,12.85,0,0,1,82,53.39a11.46,11.46,0,0,1-2.37,3.4,8.17,8.17,0,0,1-3.94,2.43,18,18,0,0,1-4.36.52H66.93l-1.4,7H60.4L65.68,40.3h0M70,44.5,67.78,55.57a2.28,2.28,0,0,0,.45,0h.51a19.69,19.69,0,0,0,5.91-.7c1.57-.52,2.63-2.31,3.17-5.39q.66-3.87-1.33-4.46a16.45,16.45,0,0,0-4.91-.56,8.13,8.13,0,0,1-.84,0H70l0,0"/></g></g></svg>