<svg xmlns="http://www.w3.org/2000/svg" viewBox="0 0 100 100"><defs><style>.cls-1{fill:#0078d6;}.cls-2{fill:#006ab2;}.cls-3{fill:#fff;}</style></defs><title>Asset 27</title><g id="Layer_2" data-name="Layer 2"><g id="Layer_1-2" data-name="Layer 1"><rect class="cls-1" width="100" height="100"/><polygon class="cls-2" points="77.58 22.32 100 48.79 100 100 47.68 100 22.42 70 22.42 30.2 77.58 22.32"/><g id="Layer_1-3" data-name="Layer_1"><g id="_26257872464" data-name=" 26257872464"><path id="path5" class="cls-3" d="M47.68,26.76c9.9-1.62,20-3,29.9-4.44V48.59c-9.9,0-20,.2-29.9.2v-22Z"/><path id="path7" class="cls-3" d="M22.42,30.2c7.47-1.22,14.95-2.23,22.63-3V48.79c-7.68,0-15.16.2-22.63.2V30.2Z"/><path id="path29" class="cls-3" d="M22.42,51.21c7.47,0,14.95.2,22.63,0V73c-7.68-1-15.16-2-22.63-3Z"/><path id="path31" class="cls-3" d="M47.68,51.41h29.9V77.68c-9.9-1.61-20-2.82-29.9-4.24v-22Z"/></g></g></g></g></svg>