<svg xmlns="http://www.w3.org/2000/svg" viewBox="0 0 100 101.13"><defs><style>.cls-1{fill:#32373c;}.cls-2{fill:#202428;}.cls-3{fill:#fff;}</style></defs><title>Asset 24</title><g id="Layer_2" data-name="Layer 2"><g id="Layer_1-2" data-name="Layer 1"><rect class="cls-1" width="100" height="100"/><path class="cls-2" d="M67.73,20.12,100,57.87V100l-48.84,1.13L18.94,67.79s-8.18-31.45,5-40.75S46.21,11.44,67.73,20.12Z"/><g id="W_Mark" data-name="W Mark"><path class="cls-3" d="M50,17.34a32.58,32.58,0,0,1,18.26,5.58A32.72,32.72,0,0,1,80.09,37.29a32.63,32.63,0,0,1-3,31A32.72,32.72,0,0,1,62.71,80.09a32.63,32.63,0,0,1-31-3A32.72,32.72,0,0,1,19.91,62.71a32.63,32.63,0,0,1,3-31A32.72,32.72,0,0,1,37.29,19.91,32.3,32.3,0,0,1,50,17.34m0-2.09A34.75,34.75,0,1,0,84.75,50,34.75,34.75,0,0,0,50,15.25Z"/><path class="cls-3" d="M21.05,50A29,29,0,0,0,37.36,76.06L23.55,38.22A28.92,28.92,0,0,0,21.05,50Zm48.5-1.46a15.28,15.28,0,0,0-2.39-8c-1.47-2.38-2.84-4.4-2.84-6.79a5,5,0,0,1,4.86-5.14c.13,0,.25,0,.37,0A28.94,28.94,0,0,0,25.81,34.1l1.86,0c3,0,7.72-.37,7.72-.37a1.2,1.2,0,0,1,.18,2.39s-1.57.18-3.31.27L42.8,67.79l6.34-19L44.63,36.42c-1.56-.09-3-.27-3-.27a1.2,1.2,0,0,1,.19-2.39s4.78.37,7.62.37c3,0,7.72-.37,7.72-.37a1.2,1.2,0,0,1,.18,2.39s-1.57.18-3.31.27L64.45,67.55l3-9.47C68.77,54,69.55,51,69.55,48.54Zm-19,4L41.82,77.77a29,29,0,0,0,17.8-.46,2.15,2.15,0,0,1-.21-.4Zm24.9-16.42a23,23,0,0,1,.19,3,27.39,27.39,0,0,1-2.2,10.37L64.56,75A29,29,0,0,0,75.41,36.11Z"/></g></g></g></svg>