<svg xmlns="http://www.w3.org/2000/svg" viewBox="0 0 350 250"><defs><style>.cls-1{fill:none;}.cls-2{fill:#464655;}.cls-3{fill:#fff;}.cls-4{fill:#bec8dc;}.cls-5{fill:#afbbd0;}.cls-6{fill:#96a5b9;}.cls-7{fill:#e4eaf6;}.cls-8{fill:#ff6469;}</style></defs><title>graphic-design</title><g id="Layer_2" data-name="Layer 2"><g id="Layer_1-2" data-name="Layer 1"><rect class="cls-1" width="350" height="250"/><path class="cls-2" d="M282.8,27.19H67.2a8,8,0,0,0-8,8V162.93H290.78V35.17A8,8,0,0,0,282.8,27.19ZM278.8,151H71.2V39.16H278.8Z"/><path class="cls-3" d="M151,89.07a2,2,0,0,1,2,2h6v-6h-8a2,2,0,0,1,0-4h8V55.13H123.1V91.06h26A2,2,0,0,1,151,89.07Z"/><path class="cls-3" d="M71.2,151H278.8V39.16H71.2ZM159,141h-8a2,2,0,1,1,0-4h8a2,2,0,1,1,0,4Zm-8-20a2,2,0,0,1,2,2v8a2,2,0,0,1-4,0v-8A2,2,0,0,1,151,121Zm-2-6v-8a2,2,0,0,1,4,0v8a2,2,0,1,1-4,0ZM175,141h-8a2,2,0,0,1,0-4h8a2,2,0,1,1,0,4Zm33.93-10a2,2,0,0,1-4,0v-8a2,2,0,0,1,4,0Zm0-16a2,2,0,1,1-4,0v-8a2,2,0,0,1,4,0Zm0-16a2,2,0,1,1-4,0v-8a2,2,0,0,1,4,0Zm18,4V51.14a4,4,0,0,1,4-4h35.94a4,4,0,0,1,4,4V139a4,4,0,0,1-4,4H230.89a4,4,0,0,1-4-4Zm-28-22h8a2,2,0,0,1,0,4h-8a2,2,0,0,1,0-4Zm0,55.9h8a2,2,0,0,1,0,4h-8a2,2,0,0,1,0-4Zm-16-55.9h8a2,2,0,0,1,0,4h-8a2,2,0,0,1,0-4Zm0,55.9h8a2,2,0,1,1,0,4h-8a2,2,0,0,1,0-4ZM115.11,51.14a4,4,0,0,1,4-4H163a4,4,0,0,1,4,4V81.08h8a2,2,0,0,1,0,4h-8v10a4.23,4.23,0,0,1-.19,1.24l10.47,9.38a1.6,1.6,0,0,1-.42,2.66l-4,1.75,3.54,8.07a2,2,0,0,1-1,2.63,1.92,1.92,0,0,1-.8.17,2,2,0,0,1-1.83-1.19l-3.55-8.08-4,1.74A1.6,1.6,0,0,1,163,112L163.19,99H153a2,2,0,1,1-4,0H119.11a4,4,0,0,1-4-4V51.14Zm-35.93,0a4,4,0,0,1,4-4h12a4,4,0,0,1,4,4V139a4,4,0,0,1-4,4h-12a4,4,0,0,1-4-4Z"/><path class="cls-4" d="M59.22,178.9a8,8,0,0,0,8,8H282.79a8,8,0,0,0,8-8v-16H59.22Zm115.78-10a6,6,0,1,1-6,6A6,6,0,0,1,175,168.92Z"/><polygon class="cls-5" points="139.57 214.83 210.43 214.83 207.94 194.87 142.06 194.87 139.57 214.83"/><path class="cls-4" d="M139.07,214.83a4,4,0,1,0,0,8h71.86a4,4,0,0,0,0-8H139.07Z"/><polygon class="cls-6" points="142.06 194.87 207.94 194.87 206.94 186.88 143.06 186.88 142.06 194.87"/><circle class="cls-6" cx="175" cy="174.91" r="5.99"/><path class="cls-4" d="M83.17,143h12a4,4,0,0,0,4-4V51.14a4,4,0,0,0-4-4h-12a4,4,0,0,0-4,4V139A4,4,0,0,0,83.17,143Zm4-87.84h4a4,4,0,0,1,0,8h-4a4,4,0,1,1,0-8Zm0,12h4a4,4,0,1,1,0,8h-4a4,4,0,1,1,0-8Zm0,12h4a4,4,0,1,1,0,8h-4a4,4,0,1,1,0-8Zm0,12h4a4,4,0,0,1,0,8h-4a4,4,0,1,1,0-8Zm0,12h4a4,4,0,0,1,0,8h-4a4,4,0,1,1,0-8Zm-4,20a4,4,0,0,1,4-4h4a4,4,0,0,1,4,4v8a4,4,0,0,1-4,4h-4a4,4,0,0,1-4-4Z"/><path class="cls-7" d="M87.17,63.12h4a4,4,0,0,0,0-8h-4a4,4,0,1,0,0,8Z"/><path class="cls-6" d="M87.17,75.09h4a4,4,0,1,0,0-8h-4a4,4,0,1,0,0,8Z"/><path class="cls-7" d="M87.17,87.07h4a4,4,0,1,0,0-8h-4a4,4,0,1,0,0,8Z"/><path class="cls-7" d="M87.17,99.05h4a4,4,0,0,0,0-8h-4a4,4,0,1,0,0,8Z"/><path class="cls-7" d="M87.17,111h4a4,4,0,0,0,0-8h-4a4,4,0,1,0,0,8Z"/><path class="cls-6" d="M87.17,135h4a4,4,0,0,0,4-4v-8a4,4,0,0,0-4-4h-4a4,4,0,0,0-4,4v8A4,4,0,0,0,87.17,135Z"/><path class="cls-4" d="M270.82,51.14a4,4,0,0,0-4-4H230.89a4,4,0,0,0-4,4v24h43.92v-24Zm-6,20H232.89a2,2,0,1,1,0-4h31.94a2,2,0,1,1,0,4Zm0-8H232.89a2,2,0,0,1,0-4h31.94a2,2,0,0,1,0,4Zm0-8H232.89a2,2,0,1,1,0-4h31.94a2,2,0,1,1,0,4Z"/><path class="cls-4" d="M230.89,143h35.94a4,4,0,0,0,4-4V103H226.9V139A4,4,0,0,0,230.89,143Zm18-35.94h16a2,2,0,0,1,0,4h-16a2,2,0,0,1,0-4Zm0,8h16a2,2,0,1,1,0,4h-16a2,2,0,1,1,0-4Zm0,8h16a2,2,0,0,1,0,4h-16a2,2,0,0,1,0-4Zm0,8h16a2,2,0,1,1,0,4h-16a2,2,0,1,1,0-4Zm-8-24h0a2,2,0,0,1,0,4h0a2,2,0,0,1,0-4Zm0,8h0a2,2,0,1,1,0,4h0a2,2,0,0,1,0-4Zm0,8h0a2,2,0,0,1,0,4h0a2,2,0,0,1,0-4Zm0,8h0a2,2,0,1,1,0,4h0a2,2,0,0,1,0-4Zm-8-24h0a2,2,0,0,1,0,4h0a2,2,0,0,1,0-4Zm0,8h0a2,2,0,1,1,0,4h0a2,2,0,1,1,0-4Zm0,8h0a2,2,0,0,1,0,4h0a2,2,0,0,1,0-4Zm0,8h0a2,2,0,1,1,0,4h0a2,2,0,1,1,0-4Z"/><path class="cls-6" d="M270.82,75.09H226.9v28h43.92Zm-33.94,24h-4a2,2,0,1,1,0-4h4a2,2,0,1,1,0,4Zm0-8h-4a2,2,0,1,1,0-4h4a2,2,0,1,1,0,4Zm0-8h-4a2,2,0,1,1,0-4h4a2,2,0,1,1,0,4Zm27.95,16h-20a2,2,0,1,1,0-4h20a2,2,0,1,1,0,4Zm0-8h-20a2,2,0,1,1,0-4h20a2,2,0,1,1,0,4Zm0-8h-20a2,2,0,1,1,0-4h20a2,2,0,1,1,0,4Z"/><path class="cls-6" d="M264.83,51.14h-24a2,2,0,1,1,0,4h24a2,2,0,1,0,0-4Z"/><path class="cls-6" d="M234.89,53.14a2,2,0,0,1,2-2h-4a2,2,0,1,0,0,4h4A2,2,0,0,1,234.89,53.14Z"/><path class="cls-6" d="M264.83,67.11h-16a2,2,0,1,1,0,4h16a2,2,0,1,0,0-4Z"/><path class="cls-6" d="M242.87,69.11a2,2,0,0,1,2-2h-12a2,2,0,1,0,0,4h12A2,2,0,0,1,242.87,69.11Z"/><path class="cls-4" d="M264.83,79.09h-20a2,2,0,1,0,0,4h20a2,2,0,1,0,0-4Z"/><path class="cls-6" d="M254.85,61.12a2,2,0,0,1,2-2H232.89a2,2,0,1,0,0,4h23.95A2,2,0,0,1,254.85,61.12Z"/><path class="cls-6" d="M264.83,59.13h-4a2,2,0,0,1,0,4h4a2,2,0,1,0,0-4Z"/><path class="cls-7" d="M242.87,53.14a2,2,0,0,0-2-2h-4a2,2,0,0,0,0,4h4A2,2,0,0,0,242.87,53.14Z"/><path class="cls-7" d="M250.86,69.11a2,2,0,0,0-2-2h-4a2,2,0,1,0,0,4h4A2,2,0,0,0,250.86,69.11Z"/><path class="cls-7" d="M236.88,79.09h-4a2,2,0,1,0,0,4h4a2,2,0,1,0,0-4Z"/><path class="cls-4" d="M264.83,87.07h-20a2,2,0,1,0,0,4h20a2,2,0,1,0,0-4Z"/><path class="cls-7" d="M236.88,87.07h-4a2,2,0,1,0,0,4h4a2,2,0,1,0,0-4Z"/><path class="cls-4" d="M264.83,95.06h-20a2,2,0,1,0,0,4h20a2,2,0,1,0,0-4Z"/><path class="cls-7" d="M236.88,95.06h-4a2,2,0,1,0,0,4h4a2,2,0,1,0,0-4Z"/><path class="cls-7" d="M232.89,119h0a2,2,0,1,0,0-4h0a2,2,0,1,0,0,4Z"/><path class="cls-7" d="M232.89,111h0a2,2,0,0,0,0-4h0a2,2,0,0,0,0,4Z"/><path class="cls-7" d="M232.89,135h0a2,2,0,1,0,0-4h0a2,2,0,1,0,0,4Z"/><path class="cls-7" d="M232.89,127h0a2,2,0,0,0,0-4h0a2,2,0,0,0,0,4Z"/><path class="cls-6" d="M240.87,119h0a2,2,0,1,0,0-4h0a2,2,0,0,0,0,4Z"/><path class="cls-6" d="M240.87,111h0a2,2,0,0,0,0-4h0a2,2,0,0,0,0,4Z"/><path class="cls-6" d="M240.87,135h0a2,2,0,1,0,0-4h0a2,2,0,0,0,0,4Z"/><path class="cls-6" d="M240.87,127h0a2,2,0,0,0,0-4h0a2,2,0,0,0,0,4Z"/><path class="cls-6" d="M248.86,119h16a2,2,0,1,0,0-4h-16a2,2,0,1,0,0,4Z"/><path class="cls-6" d="M248.86,111h16a2,2,0,0,0,0-4h-16a2,2,0,0,0,0,4Z"/><path class="cls-6" d="M248.86,135h16a2,2,0,1,0,0-4h-16a2,2,0,1,0,0,4Z"/><path class="cls-6" d="M248.86,127h16a2,2,0,0,0,0-4h-16a2,2,0,0,0,0,4Z"/><path class="cls-7" d="M262.83,61.12a2,2,0,0,0-2-2h-4a2,2,0,0,0,0,4h4A2,2,0,0,0,262.83,61.12Z"/><path class="cls-8" d="M119.11,99.05h29.94v-8h-26V55.13H159V81.08a2,2,0,0,1,0,4v6h-6v8h10.15l0-2.4a1.6,1.6,0,0,1,2.67-1.17l.93.83a4.24,4.24,0,0,0,.2-1.24v-10a2,2,0,0,1,0-4V51.14a4,4,0,0,0-4-4H119.11a4,4,0,0,0-4,4V95.06A4,4,0,0,0,119.11,99.05Z"/><path class="cls-6" d="M151,117a2,2,0,0,0,2-2v-8a2,2,0,0,0-4,0v8A2,2,0,0,0,151,117Z"/><path class="cls-6" d="M199,141h8a2,2,0,0,0,0-4h-8a2,2,0,0,0,0,4Z"/><path class="cls-6" d="M206.94,121a2,2,0,0,0-2,2v8a2,2,0,0,0,4,0v-8A2,2,0,0,0,206.94,121Z"/><path class="cls-6" d="M199,85.08h8a2,2,0,0,0,0-4h-8a2,2,0,0,0,0,4Z"/><path class="cls-6" d="M206.94,89.07a2,2,0,0,0-2,2v8a2,2,0,1,0,4,0v-8A2,2,0,0,0,206.94,89.07Z"/><path class="cls-6" d="M175,137h-8a2,2,0,0,0,0,4h8a2,2,0,1,0,0-4Z"/><path class="cls-6" d="M151,89.07a2,2,0,0,0-2,2v8a2,2,0,1,0,4,0v-8A2,2,0,0,0,151,89.07Z"/><path class="cls-6" d="M159,137h-8a2,2,0,1,0,0,4h8a2,2,0,1,0,0-4Z"/><path class="cls-6" d="M149.05,131a2,2,0,0,0,4,0v-8a2,2,0,0,0-4,0Z"/><path class="cls-6" d="M206.94,105a2,2,0,0,0-2,2v8a2,2,0,0,0,4,0v-8A2,2,0,0,0,206.94,105Z"/><path class="cls-6" d="M183,85.08h8a2,2,0,0,0,0-4h-8a2,2,0,0,0,0,4Z"/><path class="cls-6" d="M149.05,83.08a2,2,0,0,0,2,2h8a2,2,0,0,0,0-4h-8A2,2,0,0,0,149.05,83.08Z"/><path class="cls-6" d="M183,141h8a2,2,0,1,0,0-4h-8a2,2,0,0,0,0,4Z"/><path class="cls-6" d="M165,83.08a2,2,0,0,0,2,2h8a2,2,0,0,0,0-4h-8A2,2,0,0,0,165,83.08Z"/><path class="cls-2" d="M163.22,96.64l0,2.4L163,112a1.6,1.6,0,0,0,2.25,1.48l4-1.74,3.55,8.08a2,2,0,0,0,1.83,1.19,1.92,1.92,0,0,0,.8-.17,2,2,0,0,0,1-2.63l-3.54-8.07,4-1.75a1.6,1.6,0,0,0,.42-2.66L166.82,96.3l-.93-.83A1.6,1.6,0,0,0,163.22,96.64Z"/></g></g></svg>