<svg xmlns="http://www.w3.org/2000/svg" viewBox="0 0 350 250"><defs><style>.cls-1{fill:none;}.cls-2{fill:#e7eced;}.cls-3{fill:#28384c;}.cls-4{fill:#afb6bb;}.cls-5{fill:#fff;}.cls-6{fill:#6c797a;}.cls-7{fill:#7383bf;}.cls-8{fill:#556080;}.cls-9{fill:#dd352e;}</style></defs><title>web-app</title><g id="Layer_2" data-name="Layer 2"><g id="Layer_1-2" data-name="Layer 1"><rect class="cls-1" width="350" height="250"/><path class="cls-2" d="M249.22,26H83.11A10.61,10.61,0,0,0,72.5,36.64V160.35h205V36.64A10.61,10.61,0,0,0,266.89,26Z"/><rect class="cls-3" x="86.64" y="40.17" width="176.72" height="113.1"/><polygon class="cls-2" points="118.45 54.31 118.45 121.47 202.59 121.47 217.41 106.61 217.41 54.31 118.45 54.31"/><path class="cls-4" d="M266.89,181.55H83.11A10.61,10.61,0,0,1,72.5,171V153.28h205V171A10.61,10.61,0,0,1,266.89,181.55Z"/><path class="cls-5" d="M185.6,171H164.4a3.54,3.54,0,1,1,0-7.07h21.2a3.54,3.54,0,1,1,0,7.07Z"/><path class="cls-4" d="M221,224h-91.9A7.08,7.08,0,0,1,122,216.9h0a7.07,7.07,0,0,1,7.07-7.07H221A7.07,7.07,0,0,1,228,216.9h0A7.08,7.08,0,0,1,221,224Z"/><path class="cls-6" d="M192.67,181.55H157.33c0,15.63-5.58,28.28-21.21,28.28h77.76C198.25,209.83,192.67,197.18,192.67,181.55Z"/><path class="cls-7" d="M235.36,129.14l-10.7-10.7a.47.47,0,0,1,0-.66l6.91-6.92-35.34-10.6,10.6,35.34,6.74-6.73a1.09,1.09,0,0,1,1.53,0l10.26,10.27Z"/><rect class="cls-8" x="118.45" y="54.31" width="98.97" height="17.67"/><rect class="cls-9" x="132.59" y="93.19" width="28.28" height="14.14"/></g></g></svg>