<svg xmlns="http://www.w3.org/2000/svg" viewBox="0 0 350 250"><defs><style>.cls-1{fill:none;}.cls-2{fill:#5a5a5a;}.cls-3{fill:#ffd86e;}.cls-4{fill:#ffb509;}.cls-5{fill:#838383;}.cls-6{fill:#acacac;}.cls-7{fill:#9c9c9c;}.cls-8{fill:#ff5770;}.cls-9{fill:#80e0dc;}.cls-10{fill:#ff435f;}.cls-11{fill:#00a8b0;}.cls-12{fill:#e7e7e7;}</style></defs><title>web-design</title><g id="Layer_2" data-name="Layer 2"><g id="Layer_1-2" data-name="Layer 1"><rect class="cls-1" width="350" height="250"/><path class="cls-2" d="M148.1,185.49h53.47v24.2H148.1Z"/><path class="cls-3" d="M260.6,188.74H89.07a9.82,9.82,0,0,1-9.81-9.82V39.32a9.81,9.81,0,0,1,9.81-9.81H260.6a9.81,9.81,0,0,1,9.81,9.81v139.6A9.82,9.82,0,0,1,260.6,188.74Z"/><path class="cls-4" d="M270.41,39.32v139.6a9.82,9.82,0,0,1-9.81,9.82h-12a9.82,9.82,0,0,0,9.82-9.82V39.32a9.82,9.82,0,0,0-9.82-9.81h12A9.81,9.81,0,0,1,270.41,39.32Z"/><path class="cls-5" d="M270.41,165.09H79.26v13.83a9.82,9.82,0,0,0,9.81,9.82H260.6a9.82,9.82,0,0,0,9.81-9.82Z"/><path class="cls-2" d="M270.41,165.09v13.83a9.82,9.82,0,0,1-9.81,9.82h-12a9.82,9.82,0,0,0,9.82-9.82V165.09Z"/><path class="cls-6" d="M270.63,63H79.47V39.32a9.81,9.81,0,0,1,9.81-9.81H260.82a9.81,9.81,0,0,1,9.81,9.81Z"/><path class="cls-7" d="M270.74,39.14V62.81H258.53V39.14a9.81,9.81,0,0,0-9.81-9.81h12.21A9.81,9.81,0,0,1,270.74,39.14Z"/><path class="cls-8" d="M103.23,46.16a5.58,5.58,0,1,1-5.58-5.58A5.58,5.58,0,0,1,103.23,46.16Z"/><path class="cls-3" d="M124.79,46.16a5.58,5.58,0,1,1-5.58-5.58A5.58,5.58,0,0,1,124.79,46.16Z"/><path class="cls-9" d="M146.35,46.16a5.58,5.58,0,1,1-5.58-5.58A5.58,5.58,0,0,1,146.35,46.16Z"/><path class="cls-10" d="M103.23,46.17a5.58,5.58,0,0,1-9.43,4,5.57,5.57,0,0,0,3.72-9.61h.13A5.58,5.58,0,0,1,103.23,46.17Z"/><path class="cls-4" d="M124.79,46.17a5.58,5.58,0,0,1-9.43,4,5.57,5.57,0,0,0,3.72-9.61h.13A5.58,5.58,0,0,1,124.79,46.17Z"/><path class="cls-11" d="M146.35,46.17a5.58,5.58,0,0,1-9.43,4,5.57,5.57,0,0,0,3.72-9.61h.13A5.58,5.58,0,0,1,146.35,46.17Z"/><path class="cls-5" d="M218.9,220.67H130.77a1.93,1.93,0,0,1-1.92-1.93v-6.23a7.64,7.64,0,0,1,7.65-7.65h76.67a7.65,7.65,0,0,1,7.65,7.65v6.23A1.93,1.93,0,0,1,218.9,220.67Z"/><path class="cls-2" d="M220.82,212.51v6.23a1.93,1.93,0,0,1-1.92,1.93h-6.79v-8.16a7.65,7.65,0,0,0-7.65-7.65h8.71A7.65,7.65,0,0,1,220.82,212.51Z"/><path class="cls-2" d="M99.8,79.29H92.13a2.89,2.89,0,1,1,0-5.77H99.8a2.89,2.89,0,1,1,0,5.77Z"/><path class="cls-2" d="M118.29,79.29h-8.74a2.89,2.89,0,1,1,0-5.77h8.74a2.89,2.89,0,0,1,0,5.77Z"/><path class="cls-2" d="M135.19,92H112.52a2.89,2.89,0,1,1,0-5.77h22.67a2.89,2.89,0,0,1,0,5.77Z"/><path class="cls-2" d="M103.23,92H92.13a2.89,2.89,0,1,1,0-5.77h11.1a2.89,2.89,0,1,1,0,5.77Z"/><path class="cls-12" d="M209.5,169.3H173.58v7.51a5.63,5.63,0,0,0,5.63,5.63h.13a5.63,5.63,0,0,1,5.63,5.63v22.55a6.57,6.57,0,0,0,13.14,0V188.07a5.63,5.63,0,0,1,5.63-5.63h.13a5.63,5.63,0,0,0,5.63-5.63V169.3Z"/><path class="cls-8" d="M152.06,151.92h-.22a5.36,5.36,0,0,1-5.37-5.37V129.93a5.36,5.36,0,0,1,5.37-5.37h.22a5.36,5.36,0,0,1,5.37,5.37v16.62A5.36,5.36,0,0,1,152.06,151.92Z"/><path class="cls-8" d="M254.26,131.75H254a5.36,5.36,0,0,1-5.37-5.37V109.75a5.37,5.37,0,0,1,5.37-5.37h.22a5.37,5.37,0,0,1,5.37,5.37v16.63A5.36,5.36,0,0,1,254.26,131.75Z"/><path class="cls-10" d="M157.43,129.93v16.62a5.36,5.36,0,0,1-5.37,5.37h-.22a5.36,5.36,0,0,1-2.53-.63,5.39,5.39,0,0,0,2.83-4.74V129.93a5.37,5.37,0,0,0-2.83-4.74,5.24,5.24,0,0,1,2.53-.63h.22A5.36,5.36,0,0,1,157.43,129.93Z"/><path class="cls-10" d="M259.63,109.75v16.63a5.37,5.37,0,0,1-5.37,5.37H254a5.35,5.35,0,0,1-2.52-.63,5.37,5.37,0,0,0,2.83-4.74V109.75a5.36,5.36,0,0,0-2.83-4.73,5.24,5.24,0,0,1,2.52-.64h.23A5.37,5.37,0,0,1,259.63,109.75Z"/><path class="cls-8" d="M144.66,63v40.34a7.95,7.95,0,1,0,15.89,0V93.13a6.52,6.52,0,0,1,13,0v52.2H209.5V107.44a6.22,6.22,0,0,1,12.43,0v5.44a7.48,7.48,0,1,0,14.95,0V63Z"/><path class="cls-10" d="M236.88,63v49.9a7.49,7.49,0,0,1-10.65,6.77,7.7,7.7,0,0,0,2.12-1.48,7.47,7.47,0,0,0,2.18-5.29V63Z"/><path class="cls-9" d="M173.58,145.24H209.5V169.4H173.58Z"/></g></g></svg>