<svg xmlns="http://www.w3.org/2000/svg" xmlns:xlink="http://www.w3.org/1999/xlink" viewBox="0 0 725.97 504.75"><defs><style>.cls-1,.cls-20,.cls-23{fill:none;}.cls-2{isolation:isolate;}.cls-3{fill:#d8d8da;}.cls-38,.cls-4{fill:#cdcdcf;}.cls-4{mix-blend-mode:multiply;}.cls-17,.cls-5{fill:#fff;}.cls-6{fill:#ef545d;}.cls-7{fill:#2883c2;}.cls-8{fill:#efab4a;}.cls-9{fill:#b4b83a;}.cls-10{fill:#56a846;}.cls-11{fill:#23bfd4;}.cls-12{fill:#6ebf6b;}.cls-13{fill:#4b93cf;}.cls-14{fill:#f27650;}.cls-15{fill:#d95855;}.cls-16{fill:#952f91;}.cls-17{stroke:#cecece;stroke-width:0.5px;}.cls-17,.cls-20,.cls-23{stroke-miterlimit:10;}.cls-18{fill:#57aa48;}.cls-19{fill:#db5e5a;}.cls-20{stroke:#fff;opacity:0.41;}.cls-20,.cls-23{stroke-width:0.1px;}.cls-21{fill:#0e75bb;}.cls-22{fill:#d5d6d5;}.cls-23{stroke:#39333f;opacity:0.11;}.cls-24{fill:#7bcdee;}.cls-25{fill:#a0a0a0;}.cls-26,.cls-36,.cls-41{opacity:0.35;}.cls-26,.cls-36,.cls-40,.cls-41{mix-blend-mode:screen;}.cls-26{fill:url(#radial-gradient);}.cls-27{clip-path:url(#clip-path);}.cls-28{fill:#1e7ab9;}.cls-29{fill:#ee3f4b;}.cls-30{fill:#f7f8f9;}.cls-31{fill:#217bbb;}.cls-32{fill:#2783c1;}.cls-33{fill:#edaa49;}.cls-34{fill:#b3b739;}.cls-35{fill:#56a646;}.cls-36{fill:url(#radial-gradient-2);}.cls-37{opacity:0.15;}.cls-39{clip-path:url(#clip-path-2);}.cls-40{opacity:0.25;fill:url(#radial-gradient-3);}.cls-41{fill:url(#radial-gradient-4);}</style><radialGradient id="radial-gradient" cx="445.48" cy="178.65" r="290.72" gradientUnits="userSpaceOnUse"><stop offset="0" stop-color="#fff" stop-opacity="0"/><stop offset="0.19" stop-color="#fff" stop-opacity="0.22"/><stop offset="0.48" stop-color="#fff" stop-opacity="0.53"/><stop offset="0.73" stop-color="#fff" stop-opacity="0.76"/><stop offset="0.91" stop-color="#fff" stop-opacity="0.9"/><stop offset="1" stop-color="#fff" stop-opacity="0.95"/></radialGradient><clipPath id="clip-path"><path class="cls-1" d="M705.2,207.48l-25.61-.07c-3,0-5.5,1.87-5.5,4.19l0,3.68c0,3.3-3.56,6-7.87,6l-68-.16c-4.32,0-7.84-2.72-7.82-6v-3.73c0-2.29-2.41-4.15-5.4-4.16l-25.68-.06c-5.39,0-9.79,3.32-9.8,7.45,0,4.74-.88,210.42-.87,206.69,0,4.13,4.35,7.49,9.75,7.5l145.89.36c5.4,0,9.79-3.33,9.81-7.46,0-7,.89-213.47.86-206.68C715,210.85,710.6,207.49,705.2,207.48Z"/></clipPath><radialGradient id="radial-gradient-2" cx="757.09" cy="315.41" r="181.33" xlink:href="#radial-gradient"/><clipPath id="clip-path-2"><path class="cls-1" d="M561,342.85l-9.22,0a2,2,0,0,0-2,2.11v1.86a2.94,2.94,0,0,1-2.84,3l-24.5-.08a3,3,0,0,1-2.82-3V344.8a2,2,0,0,0-1.94-2.1l-9.25,0a3.66,3.66,0,0,0-3.54,3.76c0,2.4-.31,106.27-.31,104.39a3.67,3.67,0,0,0,3.51,3.79l52.57.18a3.66,3.66,0,0,0,3.53-3.77c0-3.52.32-107.81.31-104.38A3.65,3.65,0,0,0,561,342.85Z"/></clipPath><radialGradient id="radial-gradient-3" cx="584.67" cy="389.96" r="89.72" xlink:href="#radial-gradient"/><radialGradient id="radial-gradient-4" cx="380.13" cy="453.88" r="263.78" xlink:href="#radial-gradient"/></defs><title>Asset 1</title><g class="cls-2"><g id="Layer_2" data-name="Layer 2"><g id="OBJECTS"><path class="cls-3" d="M455.51,374.86H333.41a6.91,6.91,0,0,1-4.89-11.8l14.24-14.24a17.27,17.27,0,0,0,5.06-12.22l.93-13.46.85-12.2,3.22-46.64L354,247l.11-1.6L361,146.55l.46-6.63H427.5l.46,6.63,6.84,98.88.1,1.6,1.2,17.27,3.23,46.64.84,12.2.93,13.46a17.28,17.28,0,0,0,5.07,12.22l14.23,14.24A6.91,6.91,0,0,1,455.51,374.86Z"/><path class="cls-4" d="M455.51,374.86H333.41a6.91,6.91,0,0,1-4.89-11.8l14.24-14.24a17.27,17.27,0,0,0,5.06-12.22l.93-13.46.85-12.2,3.22-46.64L354,247l.11-1.6L361,146.55l.46-6.63H427.5l.46,6.63,6.84,98.88.1,1.6,1.2,17.27,3.23,46.64.84,12.2.93,13.46a17.28,17.28,0,0,0,5.07,12.22l14.23,14.24A6.91,6.91,0,0,1,455.51,374.86Z"/><path d="M627.68,15.55V295.4a14.8,14.8,0,0,1-.15,2.12,15.55,15.55,0,0,1-15.41,13.42H176.8c-.31,0-.62,0-.92,0h0c-.31,0-.62-.05-.92-.09s-.61-.07-.92-.13-.52-.1-.78-.17a14.9,14.9,0,0,1-1.9-.57c-.26-.1-.53-.21-.78-.33a8.5,8.5,0,0,1-.81-.38c-.26-.13-.53-.28-.78-.43s-.51-.31-.76-.47l-.08,0a17.39,17.39,0,0,1-2-1.61l-.63-.63c-.4-.43-.79-.89-1.14-1.35s-.57-.81-.84-1.24c-.16-.27-.31-.54-.46-.82s-.27-.53-.4-.79l0-.11c-.13-.27-.24-.55-.35-.82L162,300c-.09-.3-.17-.61-.25-.93a14.64,14.64,0,0,1-.34-1.91c0-.32-.06-.65-.08-1s0-.54,0-.8V15.55a15.51,15.51,0,0,1,.15-2.17,16.41,16.41,0,0,1,.41-2,.88.88,0,0,1,0-.15c.09-.31.19-.61.3-.92a.41.41,0,0,1,0-.08c.1-.3.22-.58.34-.86l.06-.13a8.08,8.08,0,0,1,.35-.73,1.19,1.19,0,0,1,.08-.16c.14-.28.31-.57.47-.85s.55-.83.84-1.23a10.57,10.57,0,0,1,.67-.83c.14-.17.29-.34.44-.49a.31.31,0,0,1,.1-.1,5.3,5.3,0,0,1,.53-.53s0,0,0-.06.29-.27.45-.4l.29-.26a14,14,0,0,1,1.54-1.11,5.43,5.43,0,0,1,.51-.32,7.74,7.74,0,0,1,.8-.44c.26-.14.54-.27.81-.39l.61-.26A15.73,15.73,0,0,1,173.3.4c.23-.06.47-.11.7-.15s.62-.1.92-.13A8.72,8.72,0,0,1,175.8,0h.09c.3,0,.6,0,.91,0H612.12A15.56,15.56,0,0,1,627.68,15.55Z"/><rect class="cls-5" x="176.81" y="15.55" width="435.31" height="231.48"/><path d="M192.35,0,161.26,31.1V15.55A15.55,15.55,0,0,1,176.81,0Z"/><path d="M192.35,310.94H176.81a15.55,15.55,0,0,1-15.55-15.55V279.85Z"/><path class="cls-3" d="M627.68,264.3v31.1a14.8,14.8,0,0,1-.15,2.12,15.55,15.55,0,0,1-15.41,13.42H176.8c-.31,0-.62,0-.92,0h0c-.31,0-.62-.05-.92-.09s-.61-.07-.92-.13-.52-.1-.78-.17a14.9,14.9,0,0,1-1.9-.57c-.26-.1-.53-.21-.78-.33a8.5,8.5,0,0,1-.81-.38c-.26-.13-.53-.28-.78-.43s-.51-.31-.76-.47l-.08,0a17.39,17.39,0,0,1-2-1.61l-.63-.63c-.4-.43-.79-.89-1.14-1.35s-.57-.81-.84-1.24c-.16-.27-.31-.54-.46-.82s-.27-.53-.4-.79l0-.11c-.13-.27-.24-.55-.35-.82L162,300c-.09-.3-.17-.61-.25-.93a14.64,14.64,0,0,1-.34-1.91c0-.32-.06-.65-.08-1s0-.54,0-.8V264.3Z"/><circle class="cls-4" cx="394.46" cy="287.62" r="7.77"/><rect class="cls-6" x="184.09" y="24.53" width="418.32" height="30.09" rx="4.25" ry="4.25"/><rect class="cls-7" x="185.7" y="62.92" width="98.38" height="22.29" rx="3.29" ry="3.29"/><rect class="cls-8" x="291.55" y="62.92" width="98.38" height="22.29" rx="3.29" ry="3.29"/><rect class="cls-9" x="397.39" y="62.92" width="98.38" height="22.29" rx="3.29" ry="3.29"/><rect class="cls-10" x="504.03" y="62.92" width="98.38" height="22.29" rx="3.29" ry="3.29"/><rect class="cls-11" x="185.44" y="89.63" width="74.92" height="39.51" rx="3.29" ry="3.29"/><rect class="cls-12" x="267.29" y="89.63" width="74.92" height="39.51" rx="3.29" ry="3.29"/><rect class="cls-13" x="349.13" y="89.63" width="74.92" height="39.51" rx="3.29" ry="3.29"/><rect class="cls-14" x="185.44" y="133.55" width="74.92" height="39.51" rx="3.29" ry="3.29"/><rect class="cls-15" x="267.29" y="133.55" width="74.92" height="39.51" rx="3.29" ry="3.29"/><rect class="cls-16" x="349.13" y="133.55" width="74.92" height="39.51" rx="3.29" ry="3.29"/><rect class="cls-17" x="432.85" y="89.63" width="169.56" height="82.02" rx="5.07" ry="5.07"/><rect class="cls-17" x="432.85" y="176.82" width="169.56" height="62.91" rx="4.03" ry="4.03"/><rect class="cls-5" x="185.44" y="176.82" width="239.95" height="62.91" rx="1.55" ry="1.55"/><rect class="cls-18" x="190.86" y="189.92" width="112.15" height="44.74" rx="3.29" ry="3.29"/><rect class="cls-19" x="307.1" y="189.92" width="112.15" height="44.74" rx="3.29" ry="3.29"/><rect class="cls-5" x="224.45" y="66.6" width="19.73" height="2.21"/><line class="cls-20" x1="188.77" y1="70.64" x2="280.08" y2="70.64"/><rect class="cls-5" x="266.09" y="76.49" width="13.06" height="2.54"/><rect class="cls-5" x="330.76" y="66.6" width="19.73" height="2.21"/><line class="cls-20" x1="295.08" y1="70.64" x2="386.39" y2="70.64"/><rect class="cls-5" x="372.4" y="76.49" width="13.06" height="2.54"/><rect class="cls-5" x="436.6" y="66.6" width="19.73" height="2.21"/><line class="cls-20" x1="400.92" y1="70.64" x2="492.24" y2="70.64"/><rect class="cls-5" x="478.24" y="76.49" width="13.06" height="2.54"/><rect class="cls-5" x="544.49" y="66.6" width="19.73" height="2.21"/><line class="cls-20" x1="508.81" y1="70.64" x2="600.12" y2="70.64"/><rect class="cls-5" x="586.13" y="76.49" width="13.06" height="2.54"/><ellipse class="cls-5" cx="223.03" cy="99.56" rx="9.06" ry="7.51"/><rect class="cls-5" x="219.3" y="111.38" width="6.75" height="3.43"/><rect class="cls-5" x="206.32" y="119.87" width="32.7" height="6.77" rx="0.37" ry="0.37"/><ellipse class="cls-5" cx="304.26" cy="99.56" rx="9.06" ry="7.51"/><rect class="cls-5" x="300.52" y="111.38" width="6.75" height="3.43"/><rect class="cls-5" x="287.55" y="119.87" width="32.7" height="6.77" rx="0.37" ry="0.37"/><ellipse class="cls-5" cx="386.75" cy="99.56" rx="9.06" ry="7.51"/><rect class="cls-5" x="383.02" y="111.38" width="6.75" height="3.43"/><rect class="cls-5" x="370.04" y="119.87" width="32.7" height="6.77" rx="0.37" ry="0.37"/><ellipse class="cls-5" cx="223.03" cy="143.52" rx="9.06" ry="7.51"/><rect class="cls-5" x="219.3" y="155.35" width="6.75" height="3.43"/><rect class="cls-5" x="206.32" y="163.83" width="32.7" height="6.77" rx="0.37" ry="0.37"/><ellipse class="cls-5" cx="304.26" cy="143.52" rx="9.06" ry="7.51"/><rect class="cls-5" x="300.52" y="155.35" width="6.75" height="3.43"/><rect class="cls-5" x="287.55" y="163.83" width="32.7" height="6.77" rx="0.37" ry="0.37"/><ellipse class="cls-5" cx="386.75" cy="143.52" rx="9.06" ry="7.51"/><rect class="cls-5" x="383.02" y="155.35" width="6.75" height="3.43"/><rect class="cls-5" x="370.04" y="163.83" width="32.7" height="6.77" rx="0.37" ry="0.37"/><rect class="cls-21" x="443.91" y="96.03" width="24.53" height="2.8"/><rect class="cls-21" x="443.91" y="126.05" width="32.17" height="2.8"/><rect class="cls-21" x="443.91" y="182.78" width="32.17" height="2.8"/><rect class="cls-21" x="197.56" y="182.78" width="48.79" height="2.8"/><rect class="cls-22" x="457.11" y="193.15" width="19.8" height="2.8"/><rect class="cls-22" x="461.07" y="202.57" width="11.95" height="1.4"/><rect class="cls-22" x="461.07" y="213.87" width="11.95" height="1.4"/><rect class="cls-22" x="461.07" y="225.16" width="11.95" height="1.4"/><rect class="cls-22" x="461.07" y="235.57" width="11.95" height="1.4"/><rect class="cls-22" x="530.63" y="202.57" width="33.66" height="1.4"/><rect class="cls-22" x="530.63" y="213.87" width="33.66" height="1.4"/><rect class="cls-22" x="530.63" y="225.16" width="33.66" height="1.4"/><rect class="cls-22" x="530.63" y="235.57" width="33.66" height="1.4"/><rect class="cls-22" x="530.63" y="193.15" width="32.24" height="2.8"/><line class="cls-23" x1="437.74" y1="100.66" x2="597.75" y2="100.66"/><line class="cls-23" x1="437.74" y1="130.64" x2="597.75" y2="130.64"/><line class="cls-23" x1="437.74" y1="187.71" x2="597.75" y2="187.71"/><line class="cls-23" x1="437.74" y1="198.45" x2="597.75" y2="198.45"/><line class="cls-23" x1="437.74" y1="209.19" x2="597.75" y2="209.19"/><line class="cls-23" x1="437.74" y1="219.94" x2="597.75" y2="219.94"/><line class="cls-23" x1="437.74" y1="230.68" x2="597.75" y2="230.68"/><rect class="cls-23" x="440.71" y="107.84" width="59.32" height="8.39" rx="0.46" ry="0.46"/><rect class="cls-23" x="440.71" y="137.31" width="72.38" height="8.39" rx="0.46" ry="0.46"/><rect class="cls-23" x="440.71" y="155.35" width="72.38" height="8.39" rx="0.46" ry="0.46"/><rect class="cls-23" x="521.59" y="137.31" width="71.07" height="8.39" rx="0.46" ry="0.46"/><rect class="cls-23" x="508.03" y="107.84" width="45.19" height="8.39" rx="0.46" ry="0.46"/><rect class="cls-24" x="561.22" y="107.84" width="19.2" height="7.62" rx="0.42" ry="0.42"/><rect class="cls-24" x="521.03" y="155.73" width="19.2" height="7.62" rx="0.42" ry="0.42"/><rect class="cls-5" x="199.54" y="196.98" width="38.21" height="3.09"/><path class="cls-5" d="M197.58,196.87a1,1,0,0,0-.68-.25h-1.07a.09.09,0,0,0-.1.07.2.2,0,0,0,0,.07v.14a.08.08,0,0,1,0,0l0,0s0,0,0,0h1.12a.56.56,0,0,1,.38.14.41.41,0,0,1,.16.34v2.09a.41.41,0,0,1-.16.34.51.51,0,0,1-.38.14h-1.07l-.07,0,0,.06a.2.2,0,0,0,0,.07v.14a.13.13,0,0,0,0,.07l.07,0h1.07a1,1,0,0,0,.68-.25.79.79,0,0,0,.29-.61v-2.09a.79.79,0,0,0-.29-.61Z"/><path class="cls-5" d="M196.69,198.53a.18.18,0,0,0-.06-.14l-1.83-1.62a.2.2,0,0,0-.15-.06.22.22,0,0,0-.15.06.18.18,0,0,0-.06.13v.86h-1.5a.2.2,0,0,0-.15.06.19.19,0,0,0-.07.13v1.15a.19.19,0,0,0,.07.13.2.2,0,0,0,.15.06h1.5v.86a.18.18,0,0,0,.06.13.22.22,0,0,0,.15.06.2.2,0,0,0,.15-.06l1.83-1.62a.18.18,0,0,0,.06-.13Z"/><path class="cls-5" d="M197.58,226a1,1,0,0,0-.68-.26h-1.07l-.07,0s0,0,0,.06a.2.2,0,0,0,0,.07V226a.08.08,0,0,1,0,0l0,0h1.15a.51.51,0,0,1,.38.14.41.41,0,0,1,.16.33v2.1a.43.43,0,0,1-.16.34.56.56,0,0,1-.38.14h-1.07l-.07,0,0,.06a.17.17,0,0,0,0,.07v.14s0,0,0,.06a.09.09,0,0,0,.07,0h1.07a1,1,0,0,0,.68-.25.79.79,0,0,0,.29-.61v-2.1a.77.77,0,0,0-.29-.6Z"/><path class="cls-5" d="M196.69,227.66a.18.18,0,0,0-.06-.13l-1.83-1.62a.2.2,0,0,0-.15-.06.22.22,0,0,0-.15.06.16.16,0,0,0-.06.13v.86h-1.5a.2.2,0,0,0-.15.06.17.17,0,0,0-.07.13v1.15a.19.19,0,0,0,.07.13.2.2,0,0,0,.15.06h1.5v.86a.18.18,0,0,0,.06.13.22.22,0,0,0,.15.06.2.2,0,0,0,.15-.06l1.83-1.62a.2.2,0,0,0,.06-.14Z"/><path class="cls-5" d="M310.07,229.32a1,1,0,0,0,.68.25h1.07l.07,0a.09.09,0,0,0,0-.06.17.17,0,0,1,0-.07.28.28,0,0,0,0-.08v-.05a.09.09,0,0,1,0,0s0,0,0,0,0,0,0,0h-1.12a.59.59,0,0,1-.38-.14.45.45,0,0,1-.15-.34v-2.1a.43.43,0,0,1,.15-.33.54.54,0,0,1,.38-.14h1.07l.07,0a.21.21,0,0,0,0-.06.15.15,0,0,1,0-.07.25.25,0,0,0,0-.08v-.06a.09.09,0,0,0,0-.07.11.11,0,0,0-.08,0h-1.07a1,1,0,0,0-.68.26.76.76,0,0,0-.28.6v2.1a.78.78,0,0,0,.28.61Z"/><path class="cls-5" d="M314.83,227.66a.16.16,0,0,0-.07-.13l-1.82-1.62a.22.22,0,0,0-.3,0,.16.16,0,0,0-.06.13v.86h-1.5a.2.2,0,0,0-.15.06.15.15,0,0,0-.07.13v1.15a.16.16,0,0,0,.07.13.2.2,0,0,0,.15.06h1.5v.86a.18.18,0,0,0,.06.13.22.22,0,0,0,.3,0l1.82-1.62a.17.17,0,0,0,.07-.14Z"/><ellipse class="cls-5" cx="241.49" cy="198.53" rx="1.74" ry="1.55"/><ellipse class="cls-5" cx="235.3" cy="213.09" rx="1.74" ry="1.55"/><ellipse class="cls-5" cx="246.49" cy="227.66" rx="1.74" ry="1.55"/><rect class="cls-5" x="199.54" y="211.55" width="32.55" height="3.09"/><path class="cls-5" d="M197.76,211.32l-.14-.11a.61.61,0,0,0-.79,0l-2.34,2.31-.71-.54a.62.62,0,0,0-.79,0l-.12.12a.47.47,0,0,0-.14.37.43.43,0,0,0,.18.34l1.3,1.06a.56.56,0,0,0,.41.14.58.58,0,0,0,.4-.18l2.8-2.89a.48.48,0,0,0,.14-.37.45.45,0,0,0-.2-.34Z"/><rect class="cls-5" x="199.54" y="226.12" width="43.62" height="3.09"/><line class="cls-20" x1="192.37" y1="205.74" x2="301.55" y2="205.74"/><line class="cls-20" x1="192.37" y1="219.75" x2="301.55" y2="219.75"/><rect class="cls-5" x="315.36" y="196.98" width="32.95" height="3.09"/><rect class="cls-5" x="315.53" y="211.55" width="32.78" height="3.09"/><rect class="cls-5" x="315.53" y="226.12" width="32.78" height="3.09"/><line class="cls-20" x1="308.59" y1="205.74" x2="417.76" y2="205.74"/><line class="cls-20" x1="308.59" y1="219.75" x2="417.76" y2="219.75"/><path class="cls-5" d="M195,75.26a6,6,0,0,0-5.51,4.91c1.25-1.56,3-2.27,5.51-2.27v1.83l3.51-3.13L195,73.48v1.78Z"/><path class="cls-5" d="M305.1,75.67a.19.19,0,0,0-.13,0h-2.66a1.44,1.44,0,0,0,1-.35,1.13,1.13,0,0,0,0-1.71,1.44,1.44,0,0,0-1-.35,1.26,1.26,0,0,0-1,.42l-.78.88-.77-.88a1.26,1.26,0,0,0-1-.42,1.4,1.4,0,0,0-1,.35,1.11,1.11,0,0,0,0,1.71,1.4,1.4,0,0,0,1,.35h-2.66a.22.22,0,0,0-.14,0,.17.17,0,0,0-.05.12v1.72a.16.16,0,0,0,.19.17h.58v2.24a.5.5,0,0,0,.17.37.59.59,0,0,0,.41.15h6.57a.59.59,0,0,0,.41-.15.5.5,0,0,0,.17-.37V77.68H305a.18.18,0,0,0,.13,0,.18.18,0,0,0,.06-.13V75.79a.14.14,0,0,0-.06-.12Zm-3.21-1.6a.54.54,0,0,1,.42-.17.59.59,0,0,1,.41.15.48.48,0,0,1,.17.37.48.48,0,0,1-.17.36.59.59,0,0,1-.41.15h-1.17Zm-3.15.86a.59.59,0,0,1-.41-.15.44.44,0,0,1-.17-.36.45.45,0,0,1,.17-.37.59.59,0,0,1,.41-.15.5.5,0,0,1,.41.17l.76.86Zm2.75,1.72v2.82a.25.25,0,0,1-.11.21.47.47,0,0,1-.28.07h-1.16a.45.45,0,0,1-.27-.07.23.23,0,0,1-.11-.21V75.62h1.93Z"/><path class="cls-5" d="M410.05,73.32h-7.92a.55.55,0,0,0-.57.5V76.6a4,4,0,0,0,4.25,3.78h.56a4,4,0,0,0,4.25-3.78V73.82A.54.54,0,0,0,410.05,73.32Zm-1.29,2.88-2.27,2a.59.59,0,0,1-.4.15.6.6,0,0,1-.4-.15l-2.26-2a.48.48,0,0,1,0-.72.63.63,0,0,1,.8,0l1.86,1.66L408,75.48a.63.63,0,0,1,.8,0A.48.48,0,0,1,408.76,76.2Z"/><path class="cls-5" d="M520.34,73.64H509.19a.43.43,0,0,0-.27.1.34.34,0,0,0-.11.24v5a.3.3,0,0,0,.11.23.38.38,0,0,0,.27.1h11.15a.35.35,0,0,0,.26-.1.28.28,0,0,0,.12-.23V74a.31.31,0,0,0-.12-.24.4.4,0,0,0-.26-.1ZM520,77.33a1.51,1.51,0,0,0-1.06.4,1.22,1.22,0,0,0-.44.94h-7.39a1.22,1.22,0,0,0-.44-.94,1.53,1.53,0,0,0-1.07-.4V75.65a1.57,1.57,0,0,0,1.07-.39,1.24,1.24,0,0,0,.44-1h7.39a1.24,1.24,0,0,0,.44,1,1.54,1.54,0,0,0,1.06.39Z"/><path class="cls-5" d="M514.74,75.76h1.79v.55h-1.84v1s0,.08,0,.13a.19.19,0,0,0,0,.1l.06.06.11,0a1.4,1.4,0,0,0,.8-.27.75.75,0,0,0,.16-.15.31.31,0,0,0,.07-.16.07.07,0,0,0-.06-.07l-.22,0h-.48l-.06-.45c.35,0,.59,0,.72,0,.52,0,.78.18.78.53a.62.62,0,0,1-.17.41,2.39,2.39,0,0,1-.75.59,1.9,1.9,0,0,1-.81.22,1.35,1.35,0,0,1-.29,0,1,1,0,0,1-.28-.13.6.6,0,0,1-.22-.25.75.75,0,0,1-.09-.37V76.31h-.41v-.55H514a1.3,1.3,0,0,0,0-.42.21.21,0,0,0-.21-.1h-.53l0-.42a5,5,0,0,1,.65-.07,1.61,1.61,0,0,1,.42,0,.84.84,0,0,1,.25.11.38.38,0,0,1,.14.22,1,1,0,0,1,.06.27C514.74,75.49,514.74,75.61,514.74,75.76Z"/><path class="cls-16" d="M392.17,141.27H381a.39.39,0,0,0-.27.1.3.3,0,0,0-.11.23v5a.34.34,0,0,0,.11.24.39.39,0,0,0,.27.1h11.15a.35.35,0,0,0,.26-.1.31.31,0,0,0,.12-.24v-5a.28.28,0,0,0-.12-.23.35.35,0,0,0-.26-.1Zm-.38,3.69a1.54,1.54,0,0,0-1.06.39,1.24,1.24,0,0,0-.44,1H382.9a1.24,1.24,0,0,0-.44-1,1.57,1.57,0,0,0-1.07-.39v-1.68a1.53,1.53,0,0,0,1.07-.4,1.22,1.22,0,0,0,.44-.94h7.39a1.22,1.22,0,0,0,.44.94,1.51,1.51,0,0,0,1.06.4Z"/><path class="cls-16" d="M386.57,143.39h1.79v.54h-1.84V145a.6.6,0,0,0,0,.12.16.16,0,0,0,0,.11.1.1,0,0,0,.06.05.2.2,0,0,0,.11,0,1.4,1.4,0,0,0,.8-.27.75.75,0,0,0,.16-.15.33.33,0,0,0,.07-.15s0-.06-.06-.08l-.22,0H387l-.06-.45.72,0q.78,0,.78.54a.64.64,0,0,1-.17.41,2.36,2.36,0,0,1-.75.58,1.77,1.77,0,0,1-.81.22.92.92,0,0,1-.29,0,1,1,0,0,1-.28-.13.57.57,0,0,1-.22-.24.79.79,0,0,1-.09-.38v-1.16h-.41v-.54h.41a1.34,1.34,0,0,0,0-.43.21.21,0,0,0-.21-.1h-.53l0-.41a3.7,3.7,0,0,1,.65-.07,1.27,1.27,0,0,1,.42.05.65.65,0,0,1,.25.11.36.36,0,0,1,.14.21,1,1,0,0,1,.06.28A3.44,3.44,0,0,1,386.57,143.39Z"/><path class="cls-11" d="M228.25,95.56H217.3a.85.85,0,0,0-.9.8v6.72a.85.85,0,0,0,.9.8h10.95a.85.85,0,0,0,.89-.8V96.36a.85.85,0,0,0-.89-.8Zm.47,7.52a.45.45,0,0,1-.47.42H217.3a.45.45,0,0,1-.47-.42V96.36a.44.44,0,0,1,.47-.42h10.95a.44.44,0,0,1,.47.42Z"/><path class="cls-11" d="M221.21,100.9l-.77-.35v-.08a1.4,1.4,0,0,0,.72-.82.56.56,0,0,0,.34-.5V99a.52.52,0,0,0-.25-.44c-.13-.72-.69-1.08-1.66-1.08h-.14a1.16,1.16,0,0,1-.68-.14,1,1,0,0,1-.2-.14.28.28,0,0,0-.39,0,.21.21,0,0,0-.06.18c0,.07,0,.15,0,.24s0,.19,0,.3l-.07.16a1.62,1.62,0,0,0-.15.5.55.55,0,0,0-.24.44v.19a.57.57,0,0,0,.33.5,1.38,1.38,0,0,0,.73.82v.08l-.8.35a.8.8,0,0,0-.48.71v.25c0,.15,0,.51,2.13.51s2.12-.36,2.12-.51v-.24a.79.79,0,0,0-.5-.72Z"/><path class="cls-11" d="M222.77,98.39h2.12a.19.19,0,1,0,0-.37h-2.12a.19.19,0,1,0,0,.37Z"/><path class="cls-11" d="M225.74,98.39H226a.19.19,0,1,0,0-.37h-.22a.19.19,0,1,0,0,.37Z"/><path class="cls-11" d="M223,101.23h-.21a.19.19,0,1,0,0,.38H223a.19.19,0,1,0,0-.38Z"/><path class="cls-11" d="M224.26,101.23h-.43a.19.19,0,1,0,0,.38h.43a.19.19,0,1,0,0-.38Z"/><path class="cls-11" d="M225.32,101.23h-.21a.19.19,0,1,0,0,.38h.21a.19.19,0,1,0,0-.38Z"/><path class="cls-11" d="M226.59,101.23h-.42a.19.19,0,1,0,0,.38h.42a.19.19,0,1,0,0-.38Z"/><path class="cls-11" d="M227.29,101.29a.17.17,0,0,0,0,.26.22.22,0,0,0,.15.06.2.2,0,0,0,.15-.06.17.17,0,0,0,0-.26.24.24,0,0,0-.3,0Z"/><path class="cls-11" d="M227.44,99.15h-4.67a.19.19,0,1,0,0,.38h4.67a.19.19,0,1,0,0-.38Z"/><path class="cls-11" d="M227.44,100.29h-4.67a.19.19,0,1,0,0,.37h4.67a.19.19,0,1,0,0-.37Z"/><path class="cls-12" d="M309.1,95.88a.7.7,0,0,0-.61.33s0,.07-.12.07h-3.09a.14.14,0,0,1-.11,0,1,1,0,0,0-.69-.27h0l-2.83.19c-.08,0-.09,0-.09,0a1.41,1.41,0,0,0-1.39-1,1.27,1.27,0,1,0,0,2.53h8.94a.64.64,0,0,0,.68-.6v-.57a.65.65,0,0,0-.68-.61Z"/><path class="cls-12" d="M309.89,98.39H298.63a.68.68,0,0,0-.72.63v.87a.68.68,0,0,0,.72.63h3.68a.21.21,0,0,1,.12,0l1.18,1a.06.06,0,0,1,0,.09L301.93,103a.32.32,0,0,1-.22,0h0a.66.66,0,1,0,.74.65.13.13,0,0,1,.05-.15l1.75-1.42a.08.08,0,0,1,.11,0l1.75,1.42a.18.18,0,0,1,.06.15.74.74,0,1,0,.73-.65c-.06,0-.17,0-.23,0l-1.72-1.38a.06.06,0,0,1,0-.09l1.17-.94a.21.21,0,0,1,.14,0h3.68a.67.67,0,0,0,.71-.63V99a.67.67,0,0,0-.71-.63Zm-5.63,2.66h0l-.59-.47s0,0,0,0h1.16c.11,0,.05,0,.05,0l-.58.47Z"/><path class="cls-13" d="M383,97.94a.91.91,0,0,1-.95.84.85.85,0,1,1,.95-.84Z"/><path class="cls-13" d="M387.26,97.15a1,1,0,0,1,1.23.26.75.75,0,0,1-.29,1.1l-1.55.85a1,1,0,0,1-.93,0l-.17-.12v.29a.23.23,0,0,0,.23.2h6.62a.24.24,0,0,0,.22-.16l.13-.44a1.53,1.53,0,0,0-1.32-1.66,22.06,22.06,0,0,0-4.93-.75,2.22,2.22,0,0,0-.71,1l.27,0Z"/><path class="cls-13" d="M392.47,101.48a.58.58,0,0,0-.19,0v-1.28h-6.5a.75.75,0,0,1-.79-.68c0-.24,0-.49,0-.69l-.74-.52,1.74.72a.54.54,0,0,0,.43,0l1.55-.85a.38.38,0,0,0,.15-.56.49.49,0,0,0-.63-.13l-1.34.74-1.58-.65.66.1a3.55,3.55,0,0,1,.37-.76l-1.64,0a.61.61,0,0,0-.65.56h0l0,1a.59.59,0,0,0,.51.57h-2.95V96.57a.28.28,0,0,0-.56,0v5.58a.75.75,0,1,0,.74-.67l-.18,0v-.75h10.86v1.37a.73.73,0,0,0,.76.69.67.67,0,1,0,0-1.33Z"/><path class="cls-14" d="M227,148.33l-4.24-3.78v3.78l-4.72-4.21,4.72-4.21v3.78l4.24-3.78Z"/><path class="cls-15" d="M309.51,142.39a.75.75,0,0,0-.52-.2h-9.46a.76.76,0,0,0-.53.2.59.59,0,0,0-.22.47v1.33a.6.6,0,0,0,.22.47.75.75,0,0,0,.53.19H309a.74.74,0,0,0,.52-.19.6.6,0,0,0,.22-.47v-1.33a.59.59,0,0,0-.22-.47Z"/><path class="cls-21" d="M195.26,183.23a2,2,0,0,0-.77-.69,2.37,2.37,0,0,0-2.12,0,2,2,0,0,0-.77.69,1.68,1.68,0,0,0,0,1.89,2,2,0,0,0,.77.69,2.37,2.37,0,0,0,2.12,0,2,2,0,0,0,.77-.69,1.68,1.68,0,0,0,0-1.89Zm-2.18-.47a.08.08,0,0,1,0,0,.09.09,0,0,1,.07,0h.52a.09.09,0,0,1,.07,0,.08.08,0,0,1,0,0v.4a.08.08,0,0,1,0,.05.08.08,0,0,1-.07,0h-.52a.08.08,0,0,1-.07,0,.08.08,0,0,1,0-.05Zm1.06,2.59a.06.06,0,0,1,0,.06.07.07,0,0,1-.06,0h-1.24a.07.07,0,0,1-.06,0,.06.06,0,0,1,0-.06V185a.05.05,0,0,1,0-.05l.06,0h.27v-.78h-.27l-.06,0a.09.09,0,0,1,0-.06v-.39a.06.06,0,0,1,0-.06l.06,0h.88l.07,0a.08.08,0,0,1,0,.06v1.25h.27l.06,0a.05.05,0,0,1,0,.05Z"/><path class="cls-21" d="M442.55,95.72l-.06,0a3,3,0,0,0-1,.15,2.84,2.84,0,0,0-.85.54l-.41.41-.9,0a.06.06,0,0,0-.06,0l-.53.81a.05.05,0,0,0,0,.08l.15.14.05,0h0l.65-.17.66.59-.2.58a.06.06,0,0,0,0,.07l.15.13.06,0h0l.9-.47a.05.05,0,0,0,0,0l.05-.8.46-.37a2.62,2.62,0,0,0,.6-.76,2.14,2.14,0,0,0,.18-.91.08.08,0,0,0,0,0Zm-.58.8a.21.21,0,0,1-.16.06.25.25,0,0,1-.16-.06.2.2,0,0,1-.06-.15.2.2,0,0,1,.06-.14.25.25,0,0,1,.16-.06.21.21,0,0,1,.16.06.17.17,0,0,1,.07.14.18.18,0,0,1-.07.15Z"/><path class="cls-21" d="M442.48,128.71l-.8-.7a1.27,1.27,0,0,0,.29-.82,1.25,1.25,0,0,0-.13-.57,1.41,1.41,0,0,0-.34-.46,1.79,1.79,0,0,0-.52-.31,1.89,1.89,0,0,0-1.27,0,1.79,1.79,0,0,0-.52.31,1.41,1.41,0,0,0-.34.46,1.29,1.29,0,0,0,0,1.13,1.41,1.41,0,0,0,.34.46,1.79,1.79,0,0,0,.52.31,1.67,1.67,0,0,0,.63.11,1.75,1.75,0,0,0,.93-.25l.79.7a.25.25,0,0,0,.21.08.28.28,0,0,0,.21-.08.25.25,0,0,0,.08-.18.27.27,0,0,0-.08-.19Zm-1.4-.87a1.14,1.14,0,0,1-1.47,0,.85.85,0,0,1-.3-.65.83.83,0,0,1,.3-.65,1.1,1.1,0,0,1,1.47,0,.83.83,0,0,1,.3.65.85.85,0,0,1-.3.65Z"/><path class="cls-21" d="M441,127.05h-.52v-.46a0,0,0,0,0,0,0s0,0-.05,0h-.15s0,0,0,0a0,0,0,0,0,0,0v.46h-.52l-.05,0a.06.06,0,0,0,0,.05v.13s0,0,0,0l.05,0h.52v.46a.06.06,0,0,0,0,0h.25a.06.06,0,0,0,0,0v-.46H441l.05,0s0,0,0,0v-.13a.06.06,0,0,0,0-.05l-.05,0Z"/><path class="cls-21" d="M442.32,183.38a1.64,1.64,0,0,0-.66-.59,1.88,1.88,0,0,0-.91-.22,1.92,1.92,0,0,0-.92.22,1.79,1.79,0,0,0-.66.59,1.43,1.43,0,0,0-.24.81,1.47,1.47,0,0,0,.24.81,1.88,1.88,0,0,0,.66.59,2,2,0,0,0,.92.21,2,2,0,0,0,.91-.21,1.72,1.72,0,0,0,.66-.59,1.47,1.47,0,0,0,.24-.81,1.43,1.43,0,0,0-.24-.81Zm-.46,1.38a1.19,1.19,0,0,1-.47.42,1.46,1.46,0,0,1-1.29,0,1.19,1.19,0,0,1-.47-.42,1,1,0,0,1-.17-.57,1.09,1.09,0,0,1,.17-.58,1.25,1.25,0,0,1,.47-.41,1.38,1.38,0,0,1,1.29,0,1.25,1.25,0,0,1,.47.41,1.09,1.09,0,0,1,.17.58,1,1,0,0,1-.17.57Z"/><path class="cls-21" d="M441,183.38h-.15s0,0-.05,0,0,0,0,0v.74h-.53s0,0-.06,0a.08.08,0,0,0,0,0v.14a.08.08,0,0,0,0,.05.11.11,0,0,0,.06,0H441a.11.11,0,0,0,.06,0,.08.08,0,0,0,0-.05v-.94a.08.08,0,0,0,0,0s0,0-.06,0Z"/><path class="cls-5" d="M313.87,212.12a2,2,0,0,0-.8-.71,2.44,2.44,0,0,0-2.19,0,2,2,0,0,0-.8.71,1.75,1.75,0,0,0-.29,1,1.79,1.79,0,0,0,.29,1,2,2,0,0,0,.8.71,2.44,2.44,0,0,0,2.19,0,2,2,0,0,0,.8-.71,1.79,1.79,0,0,0,.29-1,1.75,1.75,0,0,0-.29-1Zm-.55,1.67a1.46,1.46,0,0,1-.57.5,1.65,1.65,0,0,1-.77.18,1.69,1.69,0,0,1-.78-.18,1.46,1.46,0,0,1-.57-.5,1.32,1.32,0,0,1-.2-.7,1.29,1.29,0,0,1,.2-.69,1.46,1.46,0,0,1,.57-.5,1.7,1.7,0,0,1,.78-.19,1.66,1.66,0,0,1,.77.19,1.46,1.46,0,0,1,.57.5,1.21,1.21,0,0,1,.2.69,1.24,1.24,0,0,1-.2.7Z"/><path class="cls-5" d="M312.25,212.12h-.18l-.07,0a.07.07,0,0,0,0,.06v.89h-.64a.09.09,0,0,0-.07,0s0,0,0,.06v.16a.07.07,0,0,0,0,.06l.07,0h.91l.06,0a.09.09,0,0,0,0-.06V212.2a.09.09,0,0,0,0-.06l-.06,0Z"/><path class="cls-25" d="M587.2,141.52a.11.11,0,0,0-.12-.11h-.43a.12.12,0,0,0-.12.11v.38a.11.11,0,0,0,.12.1h.43c.07,0,.12,0,.12-.1Z"/><path class="cls-25" d="M588.27,141.52a.12.12,0,0,0-.12-.11h-.43a.11.11,0,0,0-.12.11v.38c0,.06,0,.1.12.1h.43a.11.11,0,0,0,.12-.1Z"/><path class="cls-25" d="M589.34,141.52a.12.12,0,0,0-.13-.11h-.42a.12.12,0,0,0-.13.11v.38c0,.06.06.1.13.1h.42c.07,0,.13,0,.13-.1Z"/><path class="cls-25" d="M587.2,142.47a.11.11,0,0,0-.12-.11h-.43a.12.12,0,0,0-.12.11v.38a.11.11,0,0,0,.12.1h.43c.07,0,.12,0,.12-.1Z"/><path class="cls-25" d="M588.27,142.47a.12.12,0,0,0-.12-.11h-.43a.11.11,0,0,0-.12.11v.38c0,.06,0,.1.12.1h.43a.11.11,0,0,0,.12-.1Z"/><path class="cls-25" d="M589.34,142.47a.12.12,0,0,0-.13-.11h-.42a.12.12,0,0,0-.13.11v.38c0,.06.06.1.13.1h.42c.07,0,.13,0,.13-.1Z"/><path class="cls-25" d="M590.1,139.4V140a.51.51,0,0,1-.53.48h-.34a.51.51,0,0,1-.54-.48v-.58h-1.51V140a.51.51,0,0,1-.54.48h-.34a.51.51,0,0,1-.53-.48v-.58a.46.46,0,0,0-.47.43v3.4a.47.47,0,0,0,.48.44h4.3a.47.47,0,0,0,.49-.44v-3.4a.46.46,0,0,0-.47-.43Zm-.16,3.62a.2.2,0,0,1-.21.19h-3.61a.19.19,0,0,1-.2-.19v-1.75a.19.19,0,0,1,.2-.19h3.61a.2.2,0,0,1,.21.19Z"/><path class="cls-25" d="M586.3,140.15h.33a.19.19,0,0,0,.19-.17V139a.18.18,0,0,0-.19-.16h-.33a.17.17,0,0,0-.18.16V140a.18.18,0,0,0,.18.17Z"/><path class="cls-25" d="M589.22,140.15h.34a.18.18,0,0,0,.18-.17V139a.17.17,0,0,0-.18-.16h-.34a.17.17,0,0,0-.18.16V140a.18.18,0,0,0,.18.17Z"/><path class="cls-25" d="M507.87,159.79a.11.11,0,0,0-.12-.11h-.42a.12.12,0,0,0-.13.11v.38a.12.12,0,0,0,.13.11h.42a.11.11,0,0,0,.12-.11Z"/><path class="cls-25" d="M508.94,159.79a.11.11,0,0,0-.12-.11h-.43a.11.11,0,0,0-.12.11v.38a.11.11,0,0,0,.12.11h.43a.11.11,0,0,0,.12-.11Z"/><path class="cls-25" d="M510,159.79a.12.12,0,0,0-.13-.11h-.42a.11.11,0,0,0-.12.11v.38a.11.11,0,0,0,.12.11h.42a.12.12,0,0,0,.13-.11Z"/><path class="cls-25" d="M507.87,160.74a.11.11,0,0,0-.12-.11h-.42a.12.12,0,0,0-.13.11v.38a.12.12,0,0,0,.13.11h.42a.11.11,0,0,0,.12-.11Z"/><path class="cls-25" d="M508.94,160.74a.11.11,0,0,0-.12-.11h-.43a.11.11,0,0,0-.12.11v.38a.11.11,0,0,0,.12.11h.43a.11.11,0,0,0,.12-.11Z"/><path class="cls-25" d="M510,160.74a.12.12,0,0,0-.13-.11h-.42a.11.11,0,0,0-.12.11v.38a.11.11,0,0,0,.12.11h.42a.12.12,0,0,0,.13-.11Z"/><path class="cls-25" d="M510.77,157.68v.58a.5.5,0,0,1-.53.47h-.34a.51.51,0,0,1-.54-.47v-.59h-1.51v.59a.51.51,0,0,1-.54.47H507a.5.5,0,0,1-.53-.47v-.58a.45.45,0,0,0-.47.43v3.4a.47.47,0,0,0,.48.43h4.31a.47.47,0,0,0,.48-.43v-3.4a.45.45,0,0,0-.47-.43Zm-.16,3.62a.19.19,0,0,1-.2.18H506.8a.19.19,0,0,1-.21-.18v-1.76a.2.2,0,0,1,.21-.19h3.61a.2.2,0,0,1,.2.19Z"/><path class="cls-25" d="M507,158.42h.33a.17.17,0,0,0,.19-.16v-1a.17.17,0,0,0-.19-.16H507a.17.17,0,0,0-.18.16v1a.17.17,0,0,0,.18.16Z"/><path class="cls-25" d="M509.9,158.42h.33a.17.17,0,0,0,.18-.16v-1a.17.17,0,0,0-.18-.16h-.33a.17.17,0,0,0-.19.16v1a.17.17,0,0,0,.19.16Z"/><path class="cls-25" d="M498.28,111.08a.24.24,0,0,0-.18-.07h-3.57a.23.23,0,0,0-.17.07.18.18,0,0,0-.08.16.19.19,0,0,0,.08.16l1.78,1.59a.3.3,0,0,0,.36,0l1.78-1.59a.23.23,0,0,0,.08-.16.21.21,0,0,0-.08-.16Z"/><path class="cls-25" d="M510.9,140.89a.23.23,0,0,0-.17-.07h-3.57a.24.24,0,0,0-.18.07.21.21,0,0,0-.08.16.23.23,0,0,0,.08.16l1.78,1.59a.27.27,0,0,0,.36,0l1.78-1.59a.23.23,0,0,0,.08-.16.21.21,0,0,0-.08-.16Z"/><path class="cls-5" d="M314.26,197.37,313,198.53l1.31,1.16a.42.42,0,0,1,0,.63.53.53,0,0,1-.35.13.53.53,0,0,1-.36-.13l-1.3-1.16-1.3,1.16a.53.53,0,0,1-.35.13.49.49,0,0,1-.35-.13.41.41,0,0,1,0-.63l1.3-1.16-1.31-1.16a.41.41,0,0,1,0-.62.53.53,0,0,1,.71,0l1.3,1.16,1.3-1.16a.53.53,0,0,1,.71,0,.41.41,0,0,1,0,.62Z"/><ellipse class="cls-5" cx="351.7" cy="198.56" rx="1.78" ry="1.58"/><ellipse class="cls-5" cx="351.7" cy="213.09" rx="1.78" ry="1.58"/><ellipse class="cls-5" cx="351.7" cy="227.66" rx="1.78" ry="1.58"/><path class="cls-26" d="M627.67,15.55V285.86L606.11,264.3,501,159.19l-12.66-12.65L392.1,50.31,357.35,15.55,341.8,0H612.12A15.55,15.55,0,0,1,627.67,15.55Z"/><polygon class="cls-4" points="440.17 323.14 348.75 323.14 349.6 310.94 439.32 310.94 440.17 323.14"/><rect x="538.52" y="196.91" width="187.45" height="242.58" rx="11.03" ry="11.03"/><rect class="cls-5" x="549.54" y="207.94" width="165.4" height="220.53"/><path d="M560.57,196.91,538.52,219v-11a11,11,0,0,1,11-11Z"/><path d="M726,207.94v11l-22.05-22.06h11A11,11,0,0,1,726,207.94Z"/><rect class="cls-5" x="549.54" y="207.94" width="165.4" height="87.34"/><g class="cls-27"><polygon class="cls-28" points="716.04 205.81 549.54 205.4 549.29 264.01 715.8 264.41 716.04 205.81"/><polygon class="cls-29" points="707.77 268.16 557.29 267.79 557.19 291.37 707.67 291.74 707.77 268.16"/><path class="cls-30" d="M707.33,222.3l-17.19,0c-.92,0-1.67-.55-1.66-1.23l0-10.18c0-.67.75-1.22,1.67-1.22l17.2,0c.91,0,1.66.56,1.65,1.23l0,10.18C709,221.76,708.25,222.3,707.33,222.3Z"/><polygon class="cls-31" points="703.82 214.27 693.82 214.25 693.83 213.46 703.82 213.48 703.82 214.27"/><polygon class="cls-31" points="703.81 216.19 693.81 216.17 693.82 215.38 703.81 215.4 703.81 216.19"/><polygon class="cls-31" points="703.8 218.11 693.81 218.09 693.81 217.3 703.81 217.32 703.8 218.11"/><polygon class="cls-30" points="695.24 235.06 557.19 234.72 557.21 229.18 695.26 229.52 695.24 235.06"/><polygon class="cls-30" points="608.19 257.84 574.23 257.75 574.25 253.99 608.2 254.07 608.19 257.84"/><polygon class="cls-30" points="650.08 257.94 624.69 257.88 624.71 254.11 650.1 254.18 650.08 257.94"/><path class="cls-32" d="M706.07,325.56l-147.84-.37c-.65,0-1.18-.39-1.18-.87l.12-27.5c0-.48.53-.87,1.18-.87l147.85.37c.65,0,1.17.39,1.17.86l-.11,27.51C707.26,325.17,706.73,325.56,706.07,325.56Z"/><path class="cls-33" d="M705.12,366.61l-147.85-.37c-.65,0-1.17-.39-1.17-.86l.11-27.51c0-.48.54-.87,1.19-.87l147.85.37c.65,0,1.17.39,1.17.87l-.11,27.5C706.3,366.22,705.77,366.61,705.12,366.61Z"/><path class="cls-34" d="M705,407.37,557.1,407c-.65,0-1.17-.39-1.17-.87l.11-27.51c0-.48.54-.86,1.19-.86l147.84.36c.66,0,1.18.39,1.18.87l-.12,27.51C706.13,407,705.6,407.37,705,407.37Z"/><path class="cls-35" d="M705.57,445.43l-147.85-.37c-.65,0-1.17-.39-1.17-.86l.11-27.51c0-.48.54-.87,1.19-.87l147.85.37c.65,0,1.17.39,1.17.87l-.11,27.5C706.75,445,706.22,445.43,705.57,445.43Z"/><polygon class="cls-5" points="646.42 303.89 616.3 303.81 616.31 300.92 646.43 300.99 646.42 303.89"/><line class="cls-20" x1="561.81" y1="306.09" x2="701.23" y2="306.44"/><polygon class="cls-5" points="699.76 317.43 679.81 317.38 679.83 314.06 699.77 314.1 699.76 317.43"/><polygon class="cls-5" points="646.18 344.94 616.06 344.87 616.07 341.97 646.19 342.05 646.18 344.94"/><line class="cls-20" x1="561.57" y1="347.15" x2="700.99" y2="347.49"/><polygon class="cls-5" points="699.52 358.49 679.57 358.44 679.59 355.11 699.53 355.16 699.52 358.49"/><polygon class="cls-5" points="646.01 385.71 615.89 385.63 615.9 382.74 646.02 382.81 646.01 385.71"/><line class="cls-20" x1="561.4" y1="387.91" x2="700.82" y2="388.25"/><polygon class="cls-5" points="699.35 399.25 679.4 399.2 679.41 395.87 699.36 395.92 699.35 399.25"/><polygon class="cls-5" points="648.53 423.77 618.41 423.69 618.42 420.8 648.54 420.87 648.53 423.77"/><line class="cls-20" x1="563.92" y1="425.97" x2="703.34" y2="426.31"/><polygon class="cls-5" points="701.87 437.31 681.92 437.26 681.93 433.93 701.88 433.98 701.87 437.31"/><path class="cls-5" d="M570.7,312.17c-3.54.58-5.07,3.5-5.59,6.42a6,6,0,0,1,5.59-3V318l3.56-4.08-3.54-4.12v2.34Z"/><path class="cls-5" d="M574.41,353.78a.15.15,0,0,0-.14-.07h-2.68a1.23,1.23,0,0,0,1-.46,1.66,1.66,0,0,0,.4-1.11,1.64,1.64,0,0,0-.4-1.12,1.23,1.23,0,0,0-1-.47,1.18,1.18,0,0,0-1,.54l-.79,1.16-.77-1.16a1.17,1.17,0,0,0-1-.55,1.23,1.23,0,0,0-1,.46,1.66,1.66,0,0,0-.4,1.11,1.64,1.64,0,0,0,.4,1.12,1.21,1.21,0,0,0,1,.47h-2.68a.17.17,0,0,0-.14.06.23.23,0,0,0-.06.16v2.26a.21.21,0,0,0,.06.16.19.19,0,0,0,.14.07h.59v2.93a.67.67,0,0,0,.17.48.53.53,0,0,0,.41.2l6.64,0a.55.55,0,0,0,.42-.2.72.72,0,0,0,.17-.48v-2.93h.59a.2.2,0,0,0,.14-.06.31.31,0,0,0,.05-.17v-2.25a.21.21,0,0,0-.06-.16Zm-3.24-2.12a.52.52,0,0,1,.42-.22.58.58,0,0,1,.42.2.76.76,0,0,1,.17.48.72.72,0,0,1-.17.48.56.56,0,0,1-.42.2h-1.18ZM568,352.79a.56.56,0,0,1-.42-.2.76.76,0,0,1-.17-.48.72.72,0,0,1,.17-.48.56.56,0,0,1,.42-.2.52.52,0,0,1,.42.22l.77,1.14Zm2.77,2.26v3.7a.33.33,0,0,1-.11.27.41.41,0,0,1-.28.09h-1.17a.37.37,0,0,1-.28-.1.34.34,0,0,1-.11-.27v-5.05h2Z"/><path class="cls-5" d="M573.4,391.46l-8,0a.62.62,0,0,0-.57.66v3.63c0,2.74,1.91,5,4.28,5h.57c2.37,0,4.3-2.21,4.3-4.94v-3.64A.61.61,0,0,0,573.4,391.46Zm-1.32,3.76-2.3,2.64a.52.52,0,0,1-.8,0l-2.29-2.66a.73.73,0,0,1,0-.93.51.51,0,0,1,.8,0l1.88,2.19,1.89-2.17a.52.52,0,0,1,.81,0A.71.71,0,0,1,572.08,395.22Z"/><path class="cls-5" d="M581.51,430l-17,0a.65.65,0,0,0-.41.13.38.38,0,0,0-.17.3l0,6.6a.38.38,0,0,0,.17.31.65.65,0,0,0,.41.13l17,.05a.71.71,0,0,0,.41-.13.4.4,0,0,0,.17-.31l0-6.6a.4.4,0,0,0-.17-.31.62.62,0,0,0-.4-.13Zm-.6,4.84a2.64,2.64,0,0,0-1.63.51,1.5,1.5,0,0,0-.67,1.24l-11.29,0a1.52,1.52,0,0,0-.67-1.24,2.54,2.54,0,0,0-1.62-.52v-2.21a2.52,2.52,0,0,0,1.63-.51,1.5,1.5,0,0,0,.67-1.24l11.29,0a1.52,1.52,0,0,0,.67,1.24,2.56,2.56,0,0,0,1.62.52Z"/><path class="cls-5" d="M572.94,432.71h2.74v.72h-2.81v1.39a1.15,1.15,0,0,0,0,.16.38.38,0,0,0,0,.14.26.26,0,0,0,.1.07.4.4,0,0,0,.17,0,2.3,2.3,0,0,0,1.21-.36.79.79,0,0,0,.25-.19.37.37,0,0,0,.11-.2s0-.08-.09-.1a1.24,1.24,0,0,0-.34,0h-.73l-.08-.59c.52,0,.89-.05,1.09-.05.79,0,1.19.24,1.19.71a.81.81,0,0,1-.26.53,3.8,3.8,0,0,1-1.15.77,3.15,3.15,0,0,1-1.24.28,2.22,2.22,0,0,1-.45-.05,2.17,2.17,0,0,1-.42-.17,1,1,0,0,1-.34-.33,1,1,0,0,1-.13-.49v-1.52h-.63v-.72h.63a1.17,1.17,0,0,0-.07-.55c0-.09-.15-.14-.31-.14h-.81l0-.54a7.43,7.43,0,0,1,1-.09,2.68,2.68,0,0,1,.63.06,2.45,2.45,0,0,1,.4.15.59.59,0,0,1,.21.29,1.59,1.59,0,0,1,.08.35C572.94,432.35,572.94,432.5,572.94,432.71Z"/></g><rect class="cls-28" x="570.58" y="207.12" width="111.71" height="15.82"/><path class="cls-36" d="M726,207.94V326.19l-11-11-19.86-19.89L675,275.18l-8.42-8.38-35.75-35.75L607.7,207.94l-5.06-5.06-5.95-6H714.94A11,11,0,0,1,726,207.94Z"/><rect x="499.69" y="331.59" width="69.58" height="144.5" rx="5.35" ry="5.35"/><g class="cls-37"><path class="cls-38" d="M539.65,465.39a5.17,5.17,0,1,1-5.17-5.16A5.18,5.18,0,0,1,539.65,465.39Z"/><path class="cls-38" d="M540.24,346.28H528.73a1.31,1.31,0,0,1-1.31-1.31h0a1.31,1.31,0,0,1,1.31-1.31h11.51a1.31,1.31,0,0,1,1.3,1.31h0A1.31,1.31,0,0,1,540.24,346.28Z"/><path class="cls-38" d="M536.06,339.62a1.58,1.58,0,1,1-1.58-1.57A1.57,1.57,0,0,1,536.06,339.62Z"/></g><rect class="cls-5" x="505.05" y="353.5" width="58.87" height="101.29"/><g class="cls-39"><rect class="cls-28" x="504.84" y="341.9" width="59.99" height="29.6" transform="translate(1.23 -1.84) rotate(0.2)"/><rect class="cls-29" x="507.66" y="373.4" width="54.22" height="11.91" transform="translate(1.31 -1.84) rotate(0.2)"/><rect class="cls-30" x="554.96" y="343.95" width="7.39" height="6.38" rx="1.22" ry="1.22" transform="matrix(1, 0, 0, 1, 1.2, -1.92)"/><rect class="cls-31" x="556.87" y="345.87" width="3.6" height="0.4" transform="translate(1.19 -1.92) rotate(0.2)"/><rect class="cls-31" x="556.87" y="346.85" width="3.6" height="0.4" transform="translate(1.2 -1.92) rotate(0.2)"/><rect class="cls-31" x="556.87" y="347.82" width="3.6" height="0.4" transform="translate(1.2 -1.92) rotate(0.2)"/><rect class="cls-30" x="507.65" y="353.89" width="49.74" height="2.8" transform="translate(1.22 -1.83) rotate(0.2)"/><rect class="cls-30" x="513.79" y="366.36" width="12.24" height="1.9" transform="translate(1.27 -1.78) rotate(0.2)"/><rect class="cls-30" x="531.97" y="366.42" width="9.15" height="1.9" transform="translate(1.27 -1.84) rotate(0.2)"/><rect class="cls-32" x="507.62" y="387.62" width="54.12" height="14.77" rx="0.87" ry="0.87" transform="translate(1.36 -1.83) rotate(0.2)"/><rect class="cls-33" x="507.27" y="408.36" width="54.12" height="14.77" rx="0.87" ry="0.87" transform="translate(1.43 -1.83) rotate(0.2)"/><rect class="cls-34" x="507.21" y="428.95" width="54.12" height="14.77" rx="0.87" ry="0.87" transform="translate(1.5 -1.83) rotate(0.2)"/><rect class="cls-35" x="507.43" y="448.17" width="54.12" height="14.77" rx="0.87" ry="0.87" transform="translate(1.57 -1.83) rotate(0.2)"/><rect class="cls-5" x="528.94" y="390.06" width="10.85" height="1.46" transform="translate(1.35 -1.83) rotate(0.2)"/><line class="cls-20" x1="509.31" y1="392.66" x2="559.54" y2="392.83"/><rect class="cls-5" x="551.83" y="396.69" width="7.19" height="1.68" transform="translate(1.37 -1.91) rotate(0.2)"/><rect class="cls-5" x="528.86" y="410.79" width="10.85" height="1.46" transform="translate(1.42 -1.83) rotate(0.2)"/><line class="cls-20" x1="509.22" y1="413.39" x2="559.46" y2="413.56"/><rect class="cls-5" x="551.74" y="417.42" width="7.19" height="1.68" transform="translate(1.44 -1.91) rotate(0.2)"/><rect class="cls-5" x="528.8" y="431.38" width="10.85" height="1.46" transform="translate(1.49 -1.83) rotate(0.2)"/><line class="cls-20" x1="509.16" y1="433.98" x2="559.39" y2="434.15"/><rect class="cls-5" x="551.68" y="438.01" width="7.19" height="1.68" transform="translate(1.51 -1.91) rotate(0.2)"/><rect class="cls-5" x="529.7" y="450.6" width="10.85" height="1.46" transform="translate(1.55 -1.84) rotate(0.2)"/><line class="cls-20" x1="510.07" y1="453.2" x2="560.3" y2="453.37"/><rect class="cls-5" x="552.59" y="457.23" width="7.19" height="1.68" transform="translate(1.58 -1.91) rotate(0.2)"/><path class="cls-5" d="M512.71,395.73a3.63,3.63,0,0,0-3,3.24,3.34,3.34,0,0,1,3-1.5v1.21l1.94-2.06-1.93-2.08v1.19Z"/><path class="cls-5" d="M514.73,416.74a.09.09,0,0,0-.08,0h-1.46a.72.72,0,0,0,.53-.23.85.85,0,0,0,.22-.57.8.8,0,0,0-.22-.56.68.68,0,0,0-.53-.24.63.63,0,0,0-.55.28l-.43.58-.42-.59a.67.67,0,0,0-.56-.27.68.68,0,0,0-.53.23.84.84,0,0,0,0,1.13.7.7,0,0,0,.52.23h-1.46a.09.09,0,0,0-.07,0,.11.11,0,0,0,0,.08v1.14a.1.1,0,0,0,.11.11h.32v1.48a.33.33,0,0,0,.1.24.27.27,0,0,0,.22.1H514a.29.29,0,0,0,.23-.1.32.32,0,0,0,.09-.24v-1.48h.32a.09.09,0,0,0,.07,0,.11.11,0,0,0,0-.08v-1.14a.1.1,0,0,0,0-.08ZM513,415.67a.3.3,0,0,1,.23-.11.29.29,0,0,1,.23.1.36.36,0,0,1,.09.24.32.32,0,0,1-.09.24.29.29,0,0,1-.23.1h-.64Zm-1.73.57a.33.33,0,0,1-.23-.1.37.37,0,0,1-.09-.25.36.36,0,0,1,.09-.24.33.33,0,0,1,.23-.1.3.3,0,0,1,.23.11l.41.58Zm1.51,1.14v1.87a.15.15,0,0,1-.06.13.2.2,0,0,1-.15.05h-.64a.25.25,0,0,1-.15-.05.17.17,0,0,1-.06-.14v-2.55h1.06Z"/><path class="cls-5" d="M514.18,435.77l-4.36,0a.32.32,0,0,0-.31.33v1.84a2.43,2.43,0,0,0,2.33,2.51h.31a2.41,2.41,0,0,0,2.34-2.49V436.1A.32.32,0,0,0,514.18,435.77Zm-.72,1.9L512.21,439a.29.29,0,0,1-.44,0l-1.24-1.34a.35.35,0,0,1,0-.47.3.3,0,0,1,.44,0l1,1.1,1-1.09a.3.3,0,0,1,.44,0A.35.35,0,0,1,513.46,437.67Z"/><path class="cls-5" d="M516.41,455.21l-6.14,0a.22.22,0,0,0-.15.06.25.25,0,0,0-.06.16v3.33a.25.25,0,0,0,.06.16.2.2,0,0,0,.15.06l6.13,0a.2.2,0,0,0,.15-.06.25.25,0,0,0,.06-.16v-3.33a.25.25,0,0,0-.06-.16.2.2,0,0,0-.14-.06Zm-.22,2.44a.77.77,0,0,0-.58.26.85.85,0,0,0-.25.63l-4.07,0a.87.87,0,0,0-.24-.63.77.77,0,0,0-.58-.26v-1.11a.79.79,0,0,0,.59-.26.88.88,0,0,0,.24-.63l4.07,0a.92.92,0,0,0,.24.63.78.78,0,0,0,.58.26Z"/><path class="cls-5" d="M513.32,456.6h1V457h-1v.7a.25.25,0,0,0,0,.08.1.1,0,0,0,0,.07s0,0,0,0h.06a.59.59,0,0,0,.44-.18l.09-.09a.3.3,0,0,0,0-.11s0,0,0,0a.31.31,0,0,0-.13,0h-.26l0-.3a3.48,3.48,0,0,1,.39,0c.29,0,.43.12.43.35a.44.44,0,0,1-.09.27,1.55,1.55,0,0,1-.42.39.78.78,0,0,1-.44.14l-.16,0a.51.51,0,0,1-.16-.09A.4.4,0,0,1,513,458a.66.66,0,0,1,0-.25V457h-.23v-.36h.23a1.43,1.43,0,0,0,0-.28.11.11,0,0,0-.12-.07h-.29V456a2,2,0,0,1,.36-.05.75.75,0,0,1,.23,0,.31.31,0,0,1,.22.22q0,.1,0,.18Z"/></g><path class="cls-40" d="M569.27,336.69V395.3l-1.66-1.66-3.69-3.7-7.14-7.15-9.92-9.92-1-1h0l-.19-.19L545,371l-.32-.32h0l-1-1-2.43-2.42-14-14-5.5-5.5-12.6-12.6-3.8-3.8h58.61A5.35,5.35,0,0,1,569.27,336.69Z"/><polygon points="334.86 300.11 334.86 486.14 37.21 486.14 37.21 300.11 55.81 281.51 316.26 281.51 334.86 300.11"/><path d="M37.2,300.1a18.59,18.59,0,0,1,18.61-18.6h18.6L37.2,318.71Z"/><path d="M334.86,300.11v18.61l-37.21-37.21h18.61A18.59,18.59,0,0,1,334.86,300.11Z"/><rect class="cls-5" x="55.81" y="300.1" width="260.45" height="167.43"/><path class="cls-3" d="M372.07,486.15c0,.47,0,1-.06,1.42a18.47,18.47,0,0,1-5.4,11.72c-.33.33-.68.66-1.05,1a18.66,18.66,0,0,1-12.1,4.49H18.6A18.59,18.59,0,0,1,0,486.15Z"/><path class="cls-4" d="M217.84,486.14H154.22a8.07,8.07,0,0,0,8.08,8.07h47.46a8.06,8.06,0,0,0,8.08-8.07Z"/><rect class="cls-6" x="63.83" y="309.45" width="246.46" height="21.18" rx="4.25" ry="4.25"/><rect class="cls-7" x="64.78" y="336.47" width="57.96" height="15.69" rx="3.29" ry="3.29"/><rect class="cls-8" x="127.13" y="336.47" width="57.96" height="15.69" rx="3.29" ry="3.29"/><rect class="cls-9" x="189.49" y="336.47" width="57.96" height="15.69" rx="3.29" ry="3.29"/><rect class="cls-10" x="252.32" y="336.47" width="57.96" height="15.69" rx="3.29" ry="3.29"/><rect class="cls-11" x="64.62" y="355.27" width="44.14" height="27.81" rx="3.29" ry="3.29"/><rect class="cls-12" x="112.84" y="355.27" width="44.14" height="27.81" rx="3.29" ry="3.29"/><rect class="cls-13" x="161.06" y="355.27" width="44.14" height="27.81" rx="3.29" ry="3.29"/><rect class="cls-14" x="64.62" y="386.19" width="44.14" height="27.81" rx="3.29" ry="3.29"/><rect class="cls-15" x="112.84" y="386.19" width="44.14" height="27.81" rx="3.29" ry="3.29"/><rect class="cls-16" x="161.06" y="386.19" width="44.14" height="27.81" rx="3.29" ry="3.29"/><rect class="cls-17" x="210.38" y="355.27" width="99.9" height="57.73" rx="5.07" ry="5.07"/><rect class="cls-17" x="210.38" y="416.64" width="99.9" height="44.28" rx="4.03" ry="4.03"/><rect class="cls-5" x="64.62" y="416.64" width="141.37" height="44.28" rx="1.55" ry="1.55"/><rect class="cls-18" x="67.81" y="425.86" width="66.08" height="31.49" rx="3.29" ry="3.29"/><rect class="cls-19" x="136.3" y="425.86" width="66.08" height="31.49" rx="3.29" ry="3.29"/><rect class="cls-5" x="87.6" y="339.06" width="11.62" height="1.55"/><line class="cls-20" x1="66.58" y1="341.91" x2="120.38" y2="341.91"/><rect class="cls-5" x="112.13" y="346.02" width="7.7" height="1.79"/><rect class="cls-5" x="150.24" y="339.06" width="11.62" height="1.55"/><line class="cls-20" x1="129.22" y1="341.91" x2="183.01" y2="341.91"/><rect class="cls-5" x="174.77" y="346.02" width="7.7" height="1.79"/><rect class="cls-5" x="212.6" y="339.06" width="11.62" height="1.55"/><line class="cls-20" x1="191.57" y1="341.91" x2="245.37" y2="341.91"/><rect class="cls-5" x="237.12" y="346.02" width="7.7" height="1.79"/><rect class="cls-5" x="276.16" y="339.06" width="11.62" height="1.55"/><line class="cls-20" x1="255.14" y1="341.91" x2="308.93" y2="341.91"/><rect class="cls-5" x="300.69" y="346.02" width="7.7" height="1.79"/><ellipse class="cls-5" cx="86.77" cy="362.26" rx="5.34" ry="5.28"/><rect class="cls-5" x="84.57" y="370.58" width="3.98" height="2.42"/><rect class="cls-5" x="76.92" y="376.55" width="19.27" height="4.76" rx="0.37" ry="0.37"/><ellipse class="cls-5" cx="134.62" cy="362.26" rx="5.34" ry="5.28"/><rect class="cls-5" x="132.42" y="370.58" width="3.98" height="2.42"/><rect class="cls-5" x="124.78" y="376.55" width="19.27" height="4.76" rx="0.37" ry="0.37"/><ellipse class="cls-5" cx="183.22" cy="362.26" rx="5.34" ry="5.28"/><rect class="cls-5" x="181.02" y="370.58" width="3.98" height="2.42"/><rect class="cls-5" x="173.38" y="376.55" width="19.27" height="4.76" rx="0.37" ry="0.37"/><ellipse class="cls-5" cx="86.77" cy="393.2" rx="5.34" ry="5.28"/><rect class="cls-5" x="84.57" y="401.52" width="3.98" height="2.42"/><rect class="cls-5" x="76.92" y="407.5" width="19.27" height="4.76" rx="0.37" ry="0.37"/><ellipse class="cls-5" cx="134.62" cy="393.2" rx="5.34" ry="5.28"/><rect class="cls-5" x="132.42" y="401.52" width="3.98" height="2.42"/><rect class="cls-5" x="124.78" y="407.5" width="19.27" height="4.76" rx="0.37" ry="0.37"/><ellipse class="cls-5" cx="183.22" cy="393.2" rx="5.34" ry="5.28"/><rect class="cls-5" x="181.02" y="401.52" width="3.98" height="2.42"/><rect class="cls-5" x="173.38" y="407.5" width="19.27" height="4.76" rx="0.37" ry="0.37"/><rect class="cls-21" x="216.9" y="359.77" width="14.45" height="1.97"/><rect class="cls-21" x="216.9" y="380.9" width="18.95" height="1.97"/><rect class="cls-21" x="216.9" y="420.83" width="18.95" height="1.97"/><rect class="cls-21" x="71.76" y="420.83" width="28.74" height="1.97"/><rect class="cls-22" x="224.68" y="428.13" width="11.66" height="1.97"/><rect class="cls-22" x="227.01" y="434.76" width="7.04" height="0.99"/><rect class="cls-22" x="227.01" y="442.71" width="7.04" height="0.99"/><rect class="cls-22" x="227.01" y="450.66" width="7.04" height="0.99"/><rect class="cls-22" x="227.01" y="457.99" width="7.04" height="0.99"/><rect class="cls-22" x="267.99" y="434.76" width="19.83" height="0.99"/><rect class="cls-22" x="267.99" y="442.71" width="19.83" height="0.99"/><rect class="cls-22" x="267.99" y="450.66" width="19.83" height="0.99"/><rect class="cls-22" x="267.99" y="457.99" width="19.83" height="0.99"/><rect class="cls-22" x="267.99" y="428.13" width="18.99" height="1.97"/><line class="cls-23" x1="213.26" y1="363.04" x2="307.53" y2="363.04"/><line class="cls-23" x1="213.26" y1="384.13" x2="307.53" y2="384.13"/><line class="cls-23" x1="213.26" y1="424.3" x2="307.53" y2="424.3"/><line class="cls-23" x1="213.26" y1="431.86" x2="307.53" y2="431.86"/><line class="cls-23" x1="213.26" y1="439.43" x2="307.53" y2="439.43"/><line class="cls-23" x1="213.26" y1="446.99" x2="307.53" y2="446.99"/><line class="cls-23" x1="213.26" y1="454.55" x2="307.53" y2="454.55"/><rect class="cls-23" x="215.02" y="368.09" width="34.95" height="5.9" rx="0.46" ry="0.46"/><rect class="cls-23" x="215.02" y="388.83" width="42.65" height="5.9" rx="0.46" ry="0.46"/><rect class="cls-23" x="215.02" y="401.52" width="42.65" height="5.9" rx="0.46" ry="0.46"/><rect class="cls-23" x="262.66" y="388.83" width="41.87" height="5.9" rx="0.46" ry="0.46"/><rect class="cls-23" x="254.68" y="368.09" width="26.62" height="5.9" rx="0.46" ry="0.46"/><rect class="cls-24" x="286.01" y="368.09" width="11.31" height="5.36" rx="0.42" ry="0.42"/><rect class="cls-24" x="262.34" y="401.8" width="11.31" height="5.36" rx="0.42" ry="0.42"/><rect class="cls-5" x="72.93" y="430.83" width="22.51" height="2.18"/><path class="cls-5" d="M71.78,430.75a.55.55,0,0,0-.41-.18h-.63l0,0,0,0v.17l0,0h.67a.3.3,0,0,1,.23.1.34.34,0,0,1,.09.24v1.47a.32.32,0,0,1-.09.24.3.3,0,0,1-.23.1H70.7s0,0,0,0v.15a.08.08,0,0,0,0,.05l0,0h.63a.55.55,0,0,0,.41-.18.6.6,0,0,0,.16-.43v-1.47a.6.6,0,0,0-.16-.43Z"/><path class="cls-5" d="M71.25,431.92a.13.13,0,0,0,0-.1l-1.07-1.14a.12.12,0,0,0-.09,0,.1.1,0,0,0-.09,0,.12.12,0,0,0,0,.09v.61H69a.1.1,0,0,0-.09,0,.11.11,0,0,0,0,.09v.81a.14.14,0,0,0,.13.13h.88v.61a.11.11,0,0,0,0,.09.1.1,0,0,0,.09,0,.12.12,0,0,0,.09,0L71.21,432a.12.12,0,0,0,0-.09Z"/><path class="cls-5" d="M71.78,451.26a.55.55,0,0,0-.41-.18H70.7s0,0,0,.05v.17l0,0h.67a.3.3,0,0,1,.23.1.32.32,0,0,1,.09.24v1.47a.34.34,0,0,1-.09.24.3.3,0,0,1-.23.1H70.7s0,0,0,0v.15s0,0,0,.05l0,0h.63a.55.55,0,0,0,.41-.18.6.6,0,0,0,.16-.43v-1.47a.6.6,0,0,0-.16-.43Z"/><path class="cls-5" d="M71.25,452.42a.12.12,0,0,0,0-.09l-1.07-1.14a.12.12,0,0,0-.09,0,.1.1,0,0,0-.09,0,.11.11,0,0,0,0,.09v.61H69a.14.14,0,0,0-.13.13v.81a.11.11,0,0,0,0,.09.1.1,0,0,0,.09,0h.88v.61a.12.12,0,0,0,0,.09.1.1,0,0,0,.09,0,.12.12,0,0,0,.09,0l1.07-1.14a.13.13,0,0,0,0-.1Z"/><path class="cls-5" d="M138.05,453.59a.52.52,0,0,0,.4.18h.63l0,0a.05.05,0,0,0,0,0s0,0,0,0v-.12s0,0,0,0h-.68a.27.27,0,0,1-.22-.1.31.31,0,0,1-.1-.24v-1.47a.3.3,0,0,1,.1-.24.27.27,0,0,1,.22-.1h.67l0,0a.43.43,0,0,1,0-.05v-.1s0,0,0,0l0,0h-.63a.52.52,0,0,0-.4.18.61.61,0,0,0-.17.43v1.47a.61.61,0,0,0,.17.43Z"/><path class="cls-5" d="M140.85,452.42a.12.12,0,0,0,0-.09l-1.07-1.14a.12.12,0,0,0-.18,0,.15.15,0,0,0,0,.09v.61h-.88a.12.12,0,0,0-.09,0,.13.13,0,0,0,0,.09v.81a.15.15,0,0,0,0,.09.12.12,0,0,0,.09,0h.88v.61a.18.18,0,0,0,0,.09.12.12,0,0,0,.18,0l1.07-1.14a.13.13,0,0,0,0-.1Z"/><ellipse class="cls-5" cx="97.64" cy="431.92" rx="1.03" ry="1.09"/><ellipse class="cls-5" cx="93.99" cy="442.17" rx="1.03" ry="1.09"/><ellipse class="cls-5" cx="100.59" cy="452.42" rx="1.03" ry="1.09"/><rect class="cls-5" x="72.93" y="441.08" width="19.18" height="2.18"/><path class="cls-5" d="M71.88,440.92l-.08-.08a.32.32,0,0,0-.47,0L70,442.51l-.41-.39a.33.33,0,0,0-.47,0l-.07.09a.39.39,0,0,0-.09.26.41.41,0,0,0,.11.24l.77.75a.3.3,0,0,0,.24.09.33.33,0,0,0,.24-.12l1.65-2a.38.38,0,0,0,.07-.26.32.32,0,0,0-.11-.24Z"/><rect class="cls-5" x="72.93" y="451.34" width="25.7" height="2.18"/><line class="cls-20" x1="68.7" y1="436.99" x2="133.02" y2="436.99"/><line class="cls-20" x1="68.7" y1="446.86" x2="133.02" y2="446.86"/><rect class="cls-5" x="141.16" y="430.83" width="19.41" height="2.18"/><rect class="cls-5" x="141.27" y="441.08" width="19.31" height="2.18"/><rect class="cls-5" x="141.27" y="451.34" width="19.31" height="2.18"/><line class="cls-20" x1="137.17" y1="436.99" x2="201.5" y2="436.99"/><line class="cls-20" x1="137.17" y1="446.86" x2="201.5" y2="446.86"/><path class="cls-5" d="M70.24,345.16A3.87,3.87,0,0,0,67,348.61a3.57,3.57,0,0,1,3.25-1.6v1.29l2.06-2.2-2.06-2.2v1.26Z"/><path class="cls-5" d="M135.12,345.44a.11.11,0,0,0-.08,0h-1.56a.73.73,0,0,0,.56-.25.85.85,0,0,0,.23-.6.88.88,0,0,0-.23-.6.77.77,0,0,0-.56-.25.7.7,0,0,0-.6.29l-.46.63L132,344a.73.73,0,0,0-.6-.29.75.75,0,0,0-.56.25.85.85,0,0,0-.24.6.81.81,0,0,0,.24.6.72.72,0,0,0,.56.25h-1.56a.11.11,0,0,0-.12.12v1.21a.14.14,0,0,0,0,.09.12.12,0,0,0,.09,0h.34v1.58a.33.33,0,0,0,.1.25.3.3,0,0,0,.24.11h3.87a.34.34,0,0,0,.24-.11.33.33,0,0,0,.1-.25v-1.58H135a.11.11,0,0,0,.08,0,.14.14,0,0,0,0-.09v-1.21a.12.12,0,0,0,0-.09Zm-1.89-1.13a.31.31,0,0,1,.25-.11.33.33,0,0,1,.24.1.39.39,0,0,1,0,.52.33.33,0,0,1-.24.1h-.69Zm-1.86.61a.31.31,0,0,1-.24-.1.39.39,0,0,1,0-.52.3.3,0,0,1,.24-.1.34.34,0,0,1,.25.11l.44.61Zm1.62,1.21v2a.17.17,0,0,1-.06.14.25.25,0,0,1-.17.05h-.68a.21.21,0,0,1-.16-.05.15.15,0,0,1-.07-.14v-2.71H133Z"/><path class="cls-5" d="M197,343.79h-4.67a.34.34,0,0,0-.33.35v2a2.59,2.59,0,0,0,2.5,2.66h.34a2.6,2.6,0,0,0,2.5-2.66v-2A.35.35,0,0,0,197,343.79Zm-.76,2-1.34,1.42a.31.31,0,0,1-.23.11.34.34,0,0,1-.24-.11l-1.33-1.42a.37.37,0,0,1,0-.5.32.32,0,0,1,.47,0l1.1,1.17,1.1-1.17a.32.32,0,0,1,.47,0A.37.37,0,0,1,196.19,345.81Z"/><path class="cls-5" d="M261.93,344h-6.57a.21.21,0,0,0-.16.07.23.23,0,0,0-.06.16v3.54a.25.25,0,0,0,.06.17.21.21,0,0,0,.16.07h6.57a.18.18,0,0,0,.15-.07.22.22,0,0,0,.07-.17v-3.54a.2.2,0,0,0-.07-.16.18.18,0,0,0-.15-.07Zm-.22,2.59a.84.84,0,0,0-.63.28,1,1,0,0,0-.26.67h-4.35a1,1,0,0,0-.26-.67.87.87,0,0,0-.63-.28v-1.18a.84.84,0,0,0,.63-.28.93.93,0,0,0,.26-.66h4.35a.93.93,0,0,0,.26.66.81.81,0,0,0,.63.28Z"/><path class="cls-5" d="M258.63,345.51h1.05v.38H258.6v.75a.25.25,0,0,0,0,.08.15.15,0,0,0,0,.08l0,0h.06a.71.71,0,0,0,.47-.19.24.24,0,0,0,.09-.11.16.16,0,0,0,0-.1.06.06,0,0,0,0-.06h-.41l0-.32.42,0c.3,0,.46.13.46.38a.53.53,0,0,1-.1.29,1.69,1.69,0,0,1-.44.41,1,1,0,0,1-.48.15l-.18,0a.65.65,0,0,1-.16-.09.42.42,0,0,1-.13-.18.67.67,0,0,1-.05-.26v-.82H258v-.38h.24a1,1,0,0,0,0-.3.11.11,0,0,0-.12-.07h-.31v-.29a1.58,1.58,0,0,1,.38-.05.9.9,0,0,1,.25,0,.53.53,0,0,1,.15.08.35.35,0,0,1,.08.15.74.74,0,0,1,0,.19A1.86,1.86,0,0,1,258.63,345.51Z"/><path class="cls-16" d="M186.42,391.61h-6.57a.24.24,0,0,0-.16.07.28.28,0,0,0-.07.17v3.54a.26.26,0,0,0,.07.17.24.24,0,0,0,.16.07h6.57a.21.21,0,0,0,.15-.07.22.22,0,0,0,.07-.17v-3.54a.23.23,0,0,0-.07-.17.21.21,0,0,0-.15-.07Zm-.23,2.6a.8.8,0,0,0-.62.28,1,1,0,0,0-.26.67H181a.91.91,0,0,0-.26-.67.8.8,0,0,0-.62-.28V393a.8.8,0,0,0,.62-.28.89.89,0,0,0,.26-.66h4.36a.93.93,0,0,0,.26.66.8.8,0,0,0,.62.28Z"/><path class="cls-16" d="M183.12,393.11h1v.38h-1.08v.74a.28.28,0,0,0,0,.09.15.15,0,0,0,0,.08l0,0,.07,0a.73.73,0,0,0,.47-.19l.09-.11a.19.19,0,0,0,0-.11.05.05,0,0,0,0-.05h-.41l0-.32.42,0c.31,0,.46.13.46.38a.55.55,0,0,1-.09.29,1.58,1.58,0,0,1-.45.41,1,1,0,0,1-.48.15l-.17,0a.49.49,0,0,1-.29-.26.71.71,0,0,1-.05-.26v-.82h-.24v-.38h.24a.92.92,0,0,0,0-.3.11.11,0,0,0-.12-.07h-.31v-.29a1.52,1.52,0,0,1,.38-.05.9.9,0,0,1,.25,0,.53.53,0,0,1,.15.08.35.35,0,0,1,.08.15.68.68,0,0,1,0,.19C183.11,392.91,183.12,393,183.12,393.11Z"/><path class="cls-11" d="M89.84,359.44H83.39a.55.55,0,0,0-.53.56v4.74a.55.55,0,0,0,.53.56h6.45a.55.55,0,0,0,.53-.56V360a.55.55,0,0,0-.53-.56Zm.28,5.3a.29.29,0,0,1-.28.29H83.39a.29.29,0,0,1-.28-.29V360a.29.29,0,0,1,.28-.29h6.45a.29.29,0,0,1,.28.29Z"/><path class="cls-11" d="M85.69,363.2l-.45-.25v-.05a1,1,0,0,0,.43-.58.39.39,0,0,0,.19-.35v-.13a.42.42,0,0,0-.14-.32.86.86,0,0,0-1-.75h-.08a.59.59,0,0,1-.4-.1l-.12-.1a.15.15,0,0,0-.23,0,.17.17,0,0,0,0,.12l0,.17c0,.13,0,.13,0,.21l0,.11a1.9,1.9,0,0,0-.09.36.43.43,0,0,0-.14.31V362a.4.4,0,0,0,.2.35.93.93,0,0,0,.43.58V363l-.47.25a.56.56,0,0,0-.28.5v.18c0,.1,0,.35,1.25.35S86,364,86,363.88v-.17a.56.56,0,0,0-.3-.51Z"/><path class="cls-11" d="M86.61,361.44h1.26a.13.13,0,0,0,.12-.14.13.13,0,0,0-.12-.13H86.61a.13.13,0,0,0-.12.13.13.13,0,0,0,.12.14Z"/><path class="cls-11" d="M88.37,361.44h.12a.13.13,0,0,0,.13-.14.13.13,0,0,0-.13-.13h-.12a.13.13,0,0,0-.13.13.13.13,0,0,0,.13.14Z"/><path class="cls-11" d="M86.74,363.43h-.13a.13.13,0,0,0-.12.14.13.13,0,0,0,.12.13h.13a.12.12,0,0,0,.12-.13.13.13,0,0,0-.12-.14Z"/><path class="cls-11" d="M87.49,363.43h-.25a.13.13,0,0,0-.13.14.13.13,0,0,0,.13.13h.25a.12.12,0,0,0,.12-.13.13.13,0,0,0-.12-.14Z"/><path class="cls-11" d="M88.12,363.43H88a.13.13,0,0,0-.12.14.12.12,0,0,0,.12.13h.13a.13.13,0,0,0,.12-.13.13.13,0,0,0-.12-.14Z"/><path class="cls-11" d="M88.87,363.43h-.25a.13.13,0,0,0-.13.14.13.13,0,0,0,.13.13h.25a.12.12,0,0,0,.12-.13.13.13,0,0,0-.12-.14Z"/><path class="cls-11" d="M89.28,363.47a.13.13,0,0,0,0,.1.11.11,0,0,0,0,.09.1.1,0,0,0,.09,0,.12.12,0,0,0,.09,0,.14.14,0,0,0,0-.09.17.17,0,0,0,0-.1.13.13,0,0,0-.18,0Z"/><path class="cls-11" d="M89.37,362H86.61a.13.13,0,0,0-.12.13.13.13,0,0,0,.12.14h2.76a.13.13,0,0,0,.12-.14.12.12,0,0,0-.12-.13Z"/><path class="cls-11" d="M89.37,362.77H86.61a.13.13,0,0,0-.12.13.13.13,0,0,0,.12.14h2.76a.13.13,0,0,0,.12-.14.12.12,0,0,0-.12-.13Z"/><path class="cls-12" d="M137.47,359.67a.41.41,0,0,0-.36.23s0,.05-.06.05h-1.83a.07.07,0,0,1-.06,0,.57.57,0,0,0-.41-.19h0l-1.67.14c-.05,0-.05,0-.06,0a.84.84,0,0,0-.81-.69.89.89,0,0,0,0,1.78h5.26a.41.41,0,0,0,.41-.42v-.4a.42.42,0,0,0-.41-.43Z"/><path class="cls-12" d="M137.94,361.43H131.3a.43.43,0,0,0-.41.45v.61a.43.43,0,0,0,.41.45h2.18a.14.14,0,0,1,.07,0l.69.67s0,0,0,.07l-1,.95a.17.17,0,0,1-.13,0h0a.46.46,0,0,0,0,.92.45.45,0,0,0,.44-.46s0-.07,0-.11l1-1a0,0,0,0,1,.06,0l1,1a.15.15,0,0,1,0,.11.43.43,0,1,0,.43-.46s-.1,0-.14,0l-1-1a0,0,0,0,1,0-.06l.69-.66a.12.12,0,0,1,.08,0h2.17a.44.44,0,0,0,.42-.45v-.61a.44.44,0,0,0-.42-.45Zm-3.32,1.88h0l-.35-.33s0,0,0,0H135c.06,0,0,0,0,0l-.34.33Z"/><path class="cls-13" d="M181,361.12a.56.56,0,1,1-.55-.6.58.58,0,0,1,.55.6Z"/><path class="cls-13" d="M183.52,360.57a.5.5,0,0,1,.73.18.58.58,0,0,1-.17.77l-.91.6a.49.49,0,0,1-.55,0l-.11-.09a1.48,1.48,0,0,0,0,.21.14.14,0,0,0,.13.14h3.9a.15.15,0,0,0,.13-.11l.08-.31a1.09,1.09,0,0,0-.78-1.18,11.34,11.34,0,0,0-2.91-.52,1.53,1.53,0,0,0-.41.74l.16,0Z"/><path class="cls-13" d="M186.59,363.61l-.11,0v-.9h-3.83a.48.48,0,0,1-.47-.48c0-.17,0-.34,0-.48l-.44-.37,1,.5a.25.25,0,0,0,.25,0l.91-.61a.29.29,0,0,0,.09-.39.27.27,0,0,0-.37-.09l-.79.52-.93-.45.38.07a3.21,3.21,0,0,1,.22-.54l-1,0a.39.39,0,0,0-.38.4h0l0,.71a.41.41,0,0,0,.3.4h-1.73v-1.74a.18.18,0,0,0-.17-.18.17.17,0,0,0-.16.18v3.93a.44.44,0,1,0,.87,0,.45.45,0,0,0-.44-.47l-.1,0v-.53h6.4v1a.46.46,0,0,0,.44.48.45.45,0,0,0,.44-.46.46.46,0,0,0-.44-.47Z"/><path class="cls-14" d="M89.13,396.58l-2.5-2.66v2.66l-2.78-3,2.78-3v2.66l2.5-2.66Z"/><path class="cls-15" d="M137.72,392.4a.42.42,0,0,0-.31-.13h-5.57a.42.42,0,0,0-.32.13.49.49,0,0,0-.13.33v.94a.49.49,0,0,0,.13.33.43.43,0,0,0,.32.14h5.57a.43.43,0,0,0,.31-.14.44.44,0,0,0,.13-.33v-.94a.44.44,0,0,0-.13-.33Z"/><path class="cls-21" d="M70.41,421.15a1.32,1.32,0,0,0-.46-.48,1.18,1.18,0,0,0-1.25,0,1.3,1.3,0,0,0-.45.48,1.39,1.39,0,0,0-.17.67,1.35,1.35,0,0,0,.17.66,1.25,1.25,0,0,0,.45.49A1.23,1.23,0,0,0,70,423a1.28,1.28,0,0,0,.46-.49,1.34,1.34,0,0,0,.16-.66,1.38,1.38,0,0,0-.16-.67Zm-1.29-.33s0,0,0,0h.39a.05.05,0,0,1,0,0v.28l0,0h-.39a.06.06,0,0,1,0,0Zm.62,1.83a.08.08,0,0,1,0,0h-.8s0,0,0,0v-.28a.05.05,0,0,1,0,0l0,0h.16v-.55h-.19s0,0,0,0v-.28a.05.05,0,0,1,0,0l0,0h.52l0,0a.05.05,0,0,1,0,0v.88h.15l0,0s0,0,0,0Z"/><path class="cls-21" d="M216.1,359.56l0,0a1.5,1.5,0,0,0-.6.11,1.57,1.57,0,0,0-.5.38l-.24.29-.53,0,0,0-.31.57a0,0,0,0,0,0,.06l.09.1h0l.39-.13.39.42-.12.41s0,0,0,.05l.09.09h0l.54-.33a.08.08,0,0,0,0,0l0-.57a2.27,2.27,0,0,0,.27-.26,1.52,1.52,0,0,0,.35-.53,1.75,1.75,0,0,0,.11-.64,0,0,0,0,0,0,0Zm-.34.56a.13.13,0,0,1-.1,0,.11.11,0,0,1-.09,0,.13.13,0,0,1,0-.1.12.12,0,0,1,0-.1.12.12,0,0,1,.09-.05.14.14,0,0,1,.1.05.15.15,0,0,1,0,.1.18.18,0,0,1,0,.1Z"/><path class="cls-21" d="M216.05,382.78l-.46-.5a1,1,0,0,0,.09-1,1.08,1.08,0,0,0-.2-.33,1.16,1.16,0,0,0-.31-.22.9.9,0,0,0-.74,0,1.16,1.16,0,0,0-.31.22.91.91,0,0,0-.2.33,1,1,0,0,0-.08.39,1.1,1.1,0,0,0,.08.4,1,1,0,0,0,.2.33,1,1,0,0,0,.31.21.8.8,0,0,0,.37.08.88.88,0,0,0,.54-.18l.47.5a.17.17,0,0,0,.24,0,.18.18,0,0,0,.06-.13.16.16,0,0,0-.06-.13Zm-.82-.62a.58.58,0,0,1-.86,0,.65.65,0,0,1-.18-.46.61.61,0,0,1,.18-.45.56.56,0,0,1,.86,0,.61.61,0,0,1,.18.45.65.65,0,0,1-.18.46Z"/><path class="cls-21" d="M215.19,381.61h-.3v-.32a.05.05,0,0,0,0,0h-.15s0,0,0,0v.32h-.33a.05.05,0,0,0,0,0v.09l0,0,0,0h.3v.35l0,0h.08l0,0,0,0v-.32h.3l0,0a0,0,0,0,0,0,0v-.09s0,0,0,0Z"/><path class="cls-21" d="M216,421.25a1,1,0,0,0-.39-.41,1,1,0,0,0-1.07,0,1,1,0,0,0-.39.41,1.15,1.15,0,0,0-.14.57,1.16,1.16,0,0,0,.14.58,1,1,0,0,0,.39.41,1,1,0,0,0,1.07,0,1,1,0,0,0,.39-.41,1.18,1.18,0,0,0,0-1.15Zm-.27,1a.84.84,0,0,1-.27.29.73.73,0,0,1-.77,0,.84.84,0,0,1-.27-.29.8.8,0,0,1-.1-.41.79.79,0,0,1,.1-.4.84.84,0,0,1,.27-.29A.68.68,0,0,1,215,421a.67.67,0,0,1,.38.11.84.84,0,0,1,.27.29.79.79,0,0,1,.1.4.8.8,0,0,1-.1.41Z"/><path class="cls-21" d="M215.17,421.25h-.09l0,0a0,0,0,0,0,0,0v.52h-.32l0,0a0,0,0,0,0,0,0v.1a0,0,0,0,0,0,0h.51a0,0,0,0,0,0,0v-.67a0,0,0,0,0,0,0l0,0Z"/><path class="cls-5" d="M140.29,441.48a1.5,1.5,0,0,0-.47-.5,1.26,1.26,0,0,0-1.3,0,1.5,1.5,0,0,0-.47.5,1.49,1.49,0,0,0,0,1.38,1.5,1.5,0,0,0,.47.5,1.26,1.26,0,0,0,1.3,0,1.5,1.5,0,0,0,.47-.5,1.49,1.49,0,0,0,0-1.38Zm-.33,1.18a.93.93,0,0,1-.33.35.84.84,0,0,1-.46.13.82.82,0,0,1-.46-.13.93.93,0,0,1-.33-.35,1.06,1.06,0,0,1,0-1,.93.93,0,0,1,.33-.35.82.82,0,0,1,.46-.13.84.84,0,0,1,.46.13.93.93,0,0,1,.33.35,1.06,1.06,0,0,1,0,1Z"/><path class="cls-5" d="M139.33,441.48h-.11l0,0s0,0,0,0v.63h-.38l0,0s0,0,0,0v.11s0,0,0,0l0,0h.54l0,0s0,0,0,0v-.8s0,0,0,0l0,0Z"/><path class="cls-25" d="M301.32,391.79a.08.08,0,0,0-.07-.08H301a.08.08,0,0,0-.07.08v.27a.07.07,0,0,0,.07.07h.25a.07.07,0,0,0,.07-.07Z"/><path class="cls-25" d="M302,391.79a.08.08,0,0,0-.07-.08h-.25a.09.09,0,0,0-.08.08v.27a.08.08,0,0,0,.08.07h.25a.07.07,0,0,0,.07-.07Z"/><path class="cls-25" d="M302.58,391.79a.08.08,0,0,0-.07-.08h-.26a.08.08,0,0,0-.07.08v.27a.07.07,0,0,0,.07.07h.26a.07.07,0,0,0,.07-.07Z"/><path class="cls-25" d="M301.32,392.46a.08.08,0,0,0-.07-.08H301a.08.08,0,0,0-.07.08v.27a.07.07,0,0,0,.07.07h.25a.07.07,0,0,0,.07-.07Z"/><path class="cls-25" d="M302,392.46a.08.08,0,0,0-.07-.08h-.25a.09.09,0,0,0-.08.08v.27a.08.08,0,0,0,.08.07h.25a.07.07,0,0,0,.07-.07Z"/><path class="cls-25" d="M302.58,392.46a.08.08,0,0,0-.07-.08h-.26a.08.08,0,0,0-.07.08v.27a.07.07,0,0,0,.07.07h.26a.07.07,0,0,0,.07-.07Z"/><path class="cls-25" d="M303,390.3v.41a.32.32,0,0,1-.32.33h-.2a.32.32,0,0,1-.31-.33v-.41h-.9v.41a.32.32,0,0,1-.31.33h-.2a.32.32,0,0,1-.31-.33v-.41a.3.3,0,0,0-.28.3V393a.29.29,0,0,0,.28.3H303a.28.28,0,0,0,.28-.3v-2.4a.3.3,0,0,0-.27-.3Zm-.09,2.55a.13.13,0,0,1-.13.13h-2.12a.13.13,0,0,1-.13-.13v-1.24a.13.13,0,0,1,.13-.13h2.12a.13.13,0,0,1,.13.13Z"/><path class="cls-25" d="M300.79,390.82h.2a.1.1,0,0,0,.1-.11V390a.1.1,0,0,0-.1-.11h-.2a.11.11,0,0,0-.11.11v.67a.11.11,0,0,0,.11.11Z"/><path class="cls-25" d="M302.51,390.82h.2a.11.11,0,0,0,.11-.11V390a.11.11,0,0,0-.11-.11h-.2a.11.11,0,0,0-.11.11v.67a.11.11,0,0,0,.11.11Z"/><path class="cls-25" d="M254.58,404.65a.08.08,0,0,0-.07-.08h-.25a.08.08,0,0,0-.07.08v.27a.07.07,0,0,0,.07.07h.25a.07.07,0,0,0,.07-.07Z"/><path class="cls-25" d="M255.21,404.65a.08.08,0,0,0-.07-.08h-.25a.08.08,0,0,0-.07.08v.27a.07.07,0,0,0,.07.07h.25a.07.07,0,0,0,.07-.07Z"/><path class="cls-25" d="M255.84,404.65a.08.08,0,0,0-.07-.08h-.25a.08.08,0,0,0-.07.08v.27a.07.07,0,0,0,.07.07h.25a.07.07,0,0,0,.07-.07Z"/><path class="cls-25" d="M254.58,405.32a.08.08,0,0,0-.07-.08h-.25a.08.08,0,0,0-.07.08v.27a.07.07,0,0,0,.07.07h.25a.07.07,0,0,0,.07-.07Z"/><path class="cls-25" d="M255.21,405.32a.08.08,0,0,0-.07-.08h-.25a.08.08,0,0,0-.07.08v.27a.07.07,0,0,0,.07.07h.25a.07.07,0,0,0,.07-.07Z"/><path class="cls-25" d="M255.84,405.32a.08.08,0,0,0-.07-.08h-.25a.08.08,0,0,0-.07.08v.27a.07.07,0,0,0,.07.07h.25a.07.07,0,0,0,.07-.07Z"/><path class="cls-25" d="M256.29,403.16v.41a.33.33,0,0,1-.31.34h-.2a.33.33,0,0,1-.32-.34v-.41h-.89v.41a.33.33,0,0,1-.32.34h-.2a.33.33,0,0,1-.31-.34v-.41a.31.31,0,0,0-.28.31v2.39a.3.3,0,0,0,.29.31h2.53a.3.3,0,0,0,.29-.31v-2.39a.31.31,0,0,0-.28-.31Zm-.09,2.55a.13.13,0,0,1-.12.13H254a.12.12,0,0,1-.12-.13v-1.24a.12.12,0,0,1,.12-.13h2.13a.13.13,0,0,1,.12.13Z"/><path class="cls-25" d="M254.05,403.69h.2a.12.12,0,0,0,.11-.12v-.67a.11.11,0,0,0-.11-.11h-.2a.11.11,0,0,0-.11.11v.67a.12.12,0,0,0,.11.12Z"/><path class="cls-25" d="M255.78,403.69H256a.12.12,0,0,0,.11-.12v-.67a.11.11,0,0,0-.11-.11h-.19a.11.11,0,0,0-.11.11v.67a.12.12,0,0,0,.11.12Z"/><path class="cls-25" d="M248.93,370.37a.11.11,0,0,0-.1-.05h-2.11a.11.11,0,0,0-.1.05.14.14,0,0,0-.05.11.16.16,0,0,0,.05.11l1,1.12a.16.16,0,0,0,.11.05.14.14,0,0,0,.1-.05l1.05-1.12a.16.16,0,0,0,0-.11.14.14,0,0,0,0-.11Z"/><path class="cls-25" d="M256.37,391.35a.16.16,0,0,0-.11-.05h-2.1a.14.14,0,0,0-.1.05.15.15,0,0,0,0,.22l1.05,1.12a.14.14,0,0,0,.1.05.16.16,0,0,0,.11-.05l1.05-1.12a.17.17,0,0,0,0-.22Z"/><path class="cls-5" d="M140.51,431.1l-.76.82.76.82a.31.31,0,0,1,0,.44.27.27,0,0,1-.2.09.29.29,0,0,1-.21-.09l-.77-.82-.77.82a.27.27,0,0,1-.2.09.29.29,0,0,1-.21-.09.33.33,0,0,1,0-.44l.77-.82-.77-.82a.33.33,0,0,1,0-.44.28.28,0,0,1,.41,0l.77.82.77-.82a.28.28,0,0,1,.41,0,.31.31,0,0,1,0,.44Z"/><ellipse class="cls-5" cx="162.58" cy="431.94" rx="1.05" ry="1.11"/><ellipse class="cls-5" cx="162.58" cy="442.17" rx="1.05" ry="1.11"/><ellipse class="cls-5" cx="162.58" cy="452.42" rx="1.05" ry="1.11"/><path class="cls-41" d="M334.86,300.11V469.57L316.26,451l-37.52-37.53-19.51-19.52-11.29-11.24L162.26,297,146.8,281.51H316.26A18.59,18.59,0,0,1,334.86,300.11Z"/></g></g></g></svg>