<svg xmlns="http://www.w3.org/2000/svg" viewBox="0 0 175.06 106.75"><defs><style>.cls-1{isolation:isolate;}.cls-2,.cls-4{fill:#ccc;}.cls-3,.cls-4{mix-blend-mode:darken;}</style></defs><title>ict awared</title><g class="cls-1"><g id="Layer_2" data-name="Layer 2"><g id="Layer_1-2" data-name="Layer 1"><path class="cls-2" d="M0,.57H7.68c3.52,0,7.11.84,7.11,5A3.64,3.64,0,0,1,12.4,9.19v.15a4.35,4.35,0,0,1,3.23,4.27c0,3.7-3.47,5-6.65,5H0ZM6.72,7.5c1,0,2.05-.1,2.05-1.34S7.54,4.92,6.57,4.92H6.12V7.5Zm-.6,6.78h.74c1.09,0,2.65,0,2.65-1.5s-1.68-1.49-2.75-1.49H6.12Z"/><path class="cls-2" d="M23.12,18.58h-7l6.32-18h7.29l6.48,18h-7l-.6-2.24h-5Zm4.36-6.52L26.7,8.88c-.19-.76-.31-1.55-.43-2.31H26l-1.2,5.49Z"/><path class="cls-2" d="M38.68,12.13l.33.26A6.94,6.94,0,0,0,43.13,14c.65,0,1.68-.26,1.68-1.07s-.86-.89-1.46-1L42,11.73c-2.57-.46-4.74-2-4.74-4.78,0-4.28,3.92-6.67,7.87-6.67a11,11,0,0,1,5.76,1.58L49.12,6.47a6.9,6.9,0,0,0-3.83-1.36c-.57,0-1.41.21-1.41.95s.81.77,1.32.89l1.49.33c2.8.62,4.82,2.1,4.82,5.16,0,4.3-3.95,6.43-7.87,6.43a16.46,16.46,0,0,1-7-1.65Z"/><rect class="cls-2" x="53.61" y="0.57" width="6.6" height="18.01"/><path class="cls-2" d="M64.35,12.13l.33.26A6.94,6.94,0,0,0,68.8,14c.65,0,1.68-.26,1.68-1.07s-.86-.89-1.46-1l-1.33-.23C65.11,11.27,63,9.77,63,7,63,2.67,66.87.28,70.82.28a11,11,0,0,1,5.76,1.58L74.79,6.47A6.89,6.89,0,0,0,71,5.11c-.58,0-1.42.21-1.42.95s.81.77,1.32.89l1.49.33c2.8.62,4.82,2.1,4.82,5.16,0,4.3-4,6.43-7.87,6.43a16.46,16.46,0,0,1-7-1.65Z"/><polygon class="cls-2" points="80.73 14.34 80.73 9.58 84.78 11.96 88.87 14.34 84.8 16.72 80.73 19.11 80.73 14.34"/><polygon class="cls-2" points="80.73 4.77 80.73 0 84.78 2.38 88.87 4.77 84.8 7.15 80.73 9.53 80.73 4.77"/><polygon class="cls-2" points="85.48 9.5 85.48 4.73 89.48 7.12 93.54 9.5 89.51 11.88 85.48 14.27 85.48 9.5"/><path class="cls-2" d="M111.24,18.58h-2.58l-4.07-9,0,0v9H102V4.46h2.59l4.07,9,0,0v-9h2.58Z"/><path class="cls-2" d="M119,15.84h-3.51l-.63,2.74h-2.59L115.9,4.46h2.77l3.6,14.12h-2.6Zm-2.93-2.52h2.36l-1.16-5.06h0Z"/><path class="cls-2" d="M130.15,7h-2.94v11.6h-2.59V7h-2.91V4.46h8.44Z"/><path class="cls-2" d="M134,18.58h-2.58V4.46H134Z"/><path class="cls-2" d="M145.07,12.79a6.82,6.82,0,0,1-1.31,4.3,4.08,4.08,0,0,1-3.4,1.7,4.14,4.14,0,0,1-3.43-1.7,6.76,6.76,0,0,1-1.32-4.3V10.25A6.83,6.83,0,0,1,136.92,6a4.28,4.28,0,0,1,6.83,0,6.77,6.77,0,0,1,1.32,4.29Zm-2.58-2.56a5,5,0,0,0-.56-2.48,1.8,1.8,0,0,0-3.19,0,4.92,4.92,0,0,0-.55,2.48v2.56a5,5,0,0,0,.56,2.5,1.76,1.76,0,0,0,1.61,1,1.72,1.72,0,0,0,1.57-1,4.87,4.87,0,0,0,.56-2.5Z"/><path class="cls-2" d="M155.85,18.58h-2.57l-4.08-9,0,0v9h-2.59V4.46h2.59l4.07,9,.05,0v-9h2.57Z"/><path class="cls-2" d="M163.66,15.84h-3.51l-.63,2.74h-2.6l3.6-14.12h2.77l3.6,14.12h-2.6Zm-2.94-2.52h2.36l-1.16-5.06h0Z"/><path class="cls-2" d="M170.27,16.06h4.79v2.52h-7.38V4.46h2.59Z"/><path class="cls-2" d="M10,103.74H4.82l-.92,2.8H.08L5.36,92.15H9.44l5.3,14.39H10.92Zm-4.31-2.56H9.14L7.43,96H7.36Z"/><path class="cls-2" d="M28.62,101.59h.07l2.15-9.44h3.67l-3.75,14.39H27.18l-2.75-8.87h-.07l-2.73,8.87H18.06L14.29,92.15H18l2.14,9.44h.07l2.89-9.44h2.64Z"/><path class="cls-2" d="M44.13,103.74H39l-.92,2.8H34.22l5.29-14.39h4.08l5.29,14.39H45.06Zm-4.32-2.56h3.47L41.57,96h-.06Z"/><path class="cls-2" d="M53.85,101v5.51H50V92.15h6.3a7.77,7.77,0,0,1,4.5,1.16,3.65,3.65,0,0,1,1.67,3.16,2.86,2.86,0,0,1-.67,1.92,4.71,4.71,0,0,1-2,1.3A3.74,3.74,0,0,1,62,100.94a3.53,3.53,0,0,1,.66,2.18V104a5,5,0,0,0,.19,1.29,1.67,1.67,0,0,0,.66,1v.2H59.63a1.57,1.57,0,0,1-.59-1.09A8.52,8.52,0,0,1,58.9,104v-.87a2,2,0,0,0-.62-1.57,2.66,2.66,0,0,0-1.81-.54Zm0-2.57h2.51A2.9,2.9,0,0,0,58.11,98a1.55,1.55,0,0,0,.61-1.32,1.8,1.8,0,0,0-.62-1.42,2.63,2.63,0,0,0-1.76-.54H53.85Z"/><path class="cls-2" d="M65.24,106.54V92.15h5.91A7.24,7.24,0,0,1,76,93.81a5.3,5.3,0,0,1,1.94,4.24v2.59A5.31,5.31,0,0,1,76,104.89a7.23,7.23,0,0,1-4.84,1.65Zm3.81-11.82V104H70.9a3.08,3.08,0,0,0,2.37-.91,3.4,3.4,0,0,0,.85-2.42V98a3.37,3.37,0,0,0-.85-2.4,3.12,3.12,0,0,0-2.37-.91Z"/><path class="cls-2" d="M89,102.73a1.38,1.38,0,0,0-.57-1.18,7.64,7.64,0,0,0-2.06-.88,16.84,16.84,0,0,1-4.59-1.84A3.19,3.19,0,0,1,80.25,96,3.35,3.35,0,0,1,82,93.06,8.45,8.45,0,0,1,86.56,92,7.5,7.5,0,0,1,91,93.18a3.6,3.6,0,0,1,1.69,3.16l0,.06H89a1.73,1.73,0,0,0-.66-1.4,2.87,2.87,0,0,0-1.83-.53,3.11,3.11,0,0,0-1.8.44A1.31,1.31,0,0,0,84,96a1.13,1.13,0,0,0,.66,1,14.18,14.18,0,0,0,2.46,1,12.24,12.24,0,0,1,4.2,1.8,3.48,3.48,0,0,1,1.41,2.94,3.36,3.36,0,0,1-1.68,3,8.21,8.21,0,0,1-4.45,1.07,9.18,9.18,0,0,1-4.83-1.23,3.82,3.82,0,0,1-2-3.54l0-.06h3.69a2,2,0,0,0,.77,1.77,4,4,0,0,0,2.32.54,3,3,0,0,0,1.75-.42A1.25,1.25,0,0,0,89,102.73Z"/><path class="cls-2" d="M97.58,91.93a4.35,4.35,0,0,1,1.22-3.14,4.11,4.11,0,0,1,6,0,4.63,4.63,0,0,1,0,6.3,4.08,4.08,0,0,1-6,0A4.39,4.39,0,0,1,97.58,91.93Zm.72,0a3.72,3.72,0,0,0,1,2.64,3.37,3.37,0,0,0,4.93,0,3.9,3.9,0,0,0,0-5.26,3.4,3.4,0,0,0-4.93,0A3.69,3.69,0,0,0,98.3,91.93Zm5.33.79,0,0a1.68,1.68,0,0,1-.5,1.36,2.1,2.1,0,0,1-1.45.46,1.92,1.92,0,0,1-1.51-.63,2.42,2.42,0,0,1-.56-1.66v-.71a2.41,2.41,0,0,1,.56-1.65,1.89,1.89,0,0,1,1.51-.64,2.11,2.11,0,0,1,1.45.47,1.67,1.67,0,0,1,.5,1.36v0h-.88a1.07,1.07,0,0,0-.26-.81,1.18,1.18,0,0,0-.8-.25,1,1,0,0,0-.86.41,1.84,1.84,0,0,0-.29,1.08v.71a1.88,1.88,0,0,0,.29,1.09,1,1,0,0,0,.86.4,1.13,1.13,0,0,0,.79-.24,1.08,1.08,0,0,0,.27-.82Z"/><g class="cls-3"><path class="cls-2" d="M125.48,105.58H111.63V103.7l6.56-5a12.71,12.71,0,0,0,2-2,2.51,2.51,0,0,0,.6-1.47,1.84,1.84,0,0,0-.69-1.49,2.93,2.93,0,0,0-2-.58,3,3,0,0,0-2.14.68,2.33,2.33,0,0,0-.74,1.8h-4l0-.06a3.76,3.76,0,0,1,1.8-3.29A8.5,8.5,0,0,1,118.17,91a9,9,0,0,1,4.92,1.15,3.52,3.52,0,0,1,1.79,3.09,3.44,3.44,0,0,1-1,2.4,26.19,26.19,0,0,1-3.34,2.89l-3.6,2.79,0,0h8.53Z"/><path class="cls-2" d="M141.68,100a5.22,5.22,0,0,1-1.85,4.33,7.76,7.76,0,0,1-5,1.48,7.84,7.84,0,0,1-5-1.48A5.22,5.22,0,0,1,128,100V96.81a5.23,5.23,0,0,1,1.85-4.34,9.22,9.22,0,0,1,10,0,5.24,5.24,0,0,1,1.86,4.34Zm-4.06-3.47a3.64,3.64,0,0,0-.72-2.5,2.7,2.7,0,0,0-2.09-.8,2.65,2.65,0,0,0-2.09.79,3.65,3.65,0,0,0-.71,2.51v3.74a3.7,3.7,0,0,0,.71,2.53,2.74,2.74,0,0,0,2.11.79,2.66,2.66,0,0,0,2.08-.79,3.7,3.7,0,0,0,.71-2.53Z"/><path class="cls-2" d="M153.58,105.58h-4.07V93.74h-4.13v-2l8.2-.51Z"/><path class="cls-2" d="M174,95a2.66,2.66,0,0,1-.8,1.91A5.33,5.33,0,0,1,171,98.21a6.2,6.2,0,0,1,2.55,1.38,2.81,2.81,0,0,1,.94,2.06,3.37,3.37,0,0,1-1.91,3.07,12.26,12.26,0,0,1-10,0,3.35,3.35,0,0,1-1.91-3.07,2.77,2.77,0,0,1,.92-2.06,6.18,6.18,0,0,1,2.56-1.39,5.3,5.3,0,0,1-2.22-1.29,2.65,2.65,0,0,1-.79-1.9,3.28,3.28,0,0,1,1.77-3,10.91,10.91,0,0,1,9.34,0A3.28,3.28,0,0,1,174,95Zm-3.59,6.44a1.83,1.83,0,0,0-.8-1.55,3.39,3.39,0,0,0-2.06-.58,3.33,3.33,0,0,0-2.06.58,1.85,1.85,0,0,0-.77,1.55,1.82,1.82,0,0,0,.78,1.55,4,4,0,0,0,4.13,0A1.84,1.84,0,0,0,170.42,101.45ZM170,95.14a1.72,1.72,0,0,0-.65-1.4,2.71,2.71,0,0,0-1.75-.53,2.62,2.62,0,0,0-1.74.52,1.74,1.74,0,0,0-.63,1.41,1.78,1.78,0,0,0,.63,1.43,2.71,2.71,0,0,0,1.77.52,2.63,2.63,0,0,0,1.73-.52A1.79,1.79,0,0,0,170,95.14Z"/></g><path class="cls-4" d="M7.75,41.23A11.7,11.7,0,0,1,0,38.31v49H15.63v-49h-.11A11.7,11.7,0,0,1,7.75,41.23Z"/><circle class="cls-2" cx="7.79" cy="31.62" r="7.73"/><path class="cls-4" d="M78.4,62.13V75.4H38.52V35.52H78.4v12l14.43-2.45V35.8A11.91,11.91,0,0,0,80.92,23.89H35.13A11.91,11.91,0,0,0,23.22,35.8V75.38A11.91,11.91,0,0,0,35.13,87.29H80.92A11.91,11.91,0,0,0,92.83,75.38V65.05Z"/><polygon class="cls-4" points="174.99 23.89 101.08 23.89 101.08 35.52 130.64 35.52 130.64 87.29 145.31 87.29 145.31 35.52 174.99 35.52 174.99 23.89"/></g></g></g></svg>