<svg xmlns="http://www.w3.org/2000/svg" xmlns:xlink="http://www.w3.org/1999/xlink" viewBox="0 0 417.84 369.82"><defs><style>.cls-1{fill:#e0c3a9;}.cls-2{fill:#fbe1c6;}.cls-3{fill:#edf1f4;}.cls-4{fill:#b6b7b9;}.cls-5{fill:url(#linear-gradient);}.cls-6{fill:#56816e;}.cls-7{fill:#f7fef7;}.cls-8{fill:#e71e25;}.cls-9{fill:#fefefe;}.cls-10{fill:url(#linear-gradient-2);}.cls-11{fill:#353037;}.cls-12{fill:#585e6e;}.cls-13{fill:#59beea;}.cls-14{fill:#3c96af;}.cls-15{fill:#89dfff;}.cls-16{fill:#f25b19;}.cls-17{fill:#ff8752;}.cls-18{fill:#fdfdfd;}.cls-19{fill:#e5ffff;}.cls-20{fill:#fcf5f6;}.cls-21{fill:#413d4c;}.cls-22{fill:#494f5f;}.cls-23{fill:#ed7433;}.cls-24{fill:#eddb00;}.cls-25{fill:#fff;}.cls-26{fill:#7bb425;}.cls-27{fill:#f9ee32;}.cls-28{fill:#f9ac00;}</style><linearGradient id="linear-gradient" x1="52.08" y1="272.42" x2="157.01" y2="272.42" gradientTransform="translate(-25.29 1.24)" gradientUnits="userSpaceOnUse"><stop offset="0" stop-color="#cec2ac"/><stop offset="0.12" stop-color="#c3d5b3"/><stop offset="0.25" stop-color="#bce1b7"/><stop offset="0.38" stop-color="#bae5b8"/><stop offset="0.5" stop-color="#cfe0bf"/><stop offset="0.64" stop-color="#dfdcc5"/><stop offset="0.8" stop-color="#e9dac9"/><stop offset="1" stop-color="#ecd9ca"/></linearGradient><linearGradient id="linear-gradient-2" x1="31.88" y1="243.85" x2="136.82" y2="243.85" gradientTransform="translate(327.41 158.49) rotate(90)" xlink:href="#linear-gradient"/></defs><title>e-commerce</title><g id="Layer_2" data-name="Layer 2"><g id="BACKGROUND_1" data-name="BACKGROUND 1"><g id="OBJECTS"><path class="cls-1" d="M376.5,341.91H310.85a2.84,2.84,0,0,1-2.83-2.83h0a2.85,2.85,0,0,1,2.83-2.83H376.5a2.84,2.84,0,0,1,2.83,2.83h0A2.83,2.83,0,0,1,376.5,341.91Z"/><path class="cls-1" d="M91.88,341.91H26.23a2.83,2.83,0,0,1-2.83-2.83h0a2.84,2.84,0,0,1,2.83-2.83H91.88a2.84,2.84,0,0,1,2.83,2.83h0A2.83,2.83,0,0,1,91.88,341.91Z"/><circle class="cls-2" cx="199.21" cy="184.91" r="184.91"/><rect class="cls-1" x="62.08" y="80.39" width="164.28" height="219.42"/><rect class="cls-3" x="72.08" y="70.39" width="164.28" height="219.42"/><rect class="cls-4" x="100.26" y="112.61" width="35.14" height="35.14"/><path class="cls-3" d="M122.93,120.86h-3.34a1.94,1.94,0,0,1-1.8,2,1.87,1.87,0,0,1-1.73-2h-3.3v.05l0-.05-4.56,4.23,2.54,3.39,1.94-1.74-.21,11.49H122.6l.22-11.46,1.85,1.71,2.66-3.39Z"/><rect class="cls-5" x="26.8" y="243.5" width="104.93" height="60.33" transform="translate(-9.62 2.97) rotate(-2.02)"/><path class="cls-6" d="M29.71,248.93l1.87,52.9,97.24-3.43L127,245.49Zm95,40.37a5.64,5.64,0,0,0-5.53,5.74L41,297.8a5.64,5.64,0,0,0-5.92-5.33L33.85,258a5.63,5.63,0,0,0,5.52-5.74l78.18-2.76a5.63,5.63,0,0,0,5.91,5.34Z"/><ellipse class="cls-7" cx="54.51" cy="274.54" rx="15.32" ry="18.69" transform="translate(-9.66 2.1) rotate(-2.02)"/><path class="cls-6" d="M54.72,287.13a7.45,7.45,0,0,1-3.24-.67,5.75,5.75,0,0,1-2.55-1.9c-.39-.55-.62-2-.67-4.24l-.12-3.39a1.23,1.23,0,0,0-1.27-1.18l-2,.07a1.24,1.24,0,0,1-1.28-1.19l0-.87a1.24,1.24,0,0,1,1.19-1.28l2-.07a1.22,1.22,0,0,0,1.18-1.27l0-.9c0-1-.13-2.08-.27-3.16a1.32,1.32,0,0,0-.2-.53,3.24,3.24,0,0,0-1.29-1.1,1.21,1.21,0,0,1-.46-1.68l.32-.55a1.23,1.23,0,0,1,1.59-.5,6.29,6.29,0,0,1,2.49,1.85,6.85,6.85,0,0,1,1.1,4.05l.09,2.41a1.23,1.23,0,0,0,1.27,1.18l.92,0a1.22,1.22,0,0,1,1.27,1.18l0,.88a1.23,1.23,0,0,1-1.19,1.27l-.91,0a1.24,1.24,0,0,0-1.19,1.28l.18,5.15a1.21,1.21,0,0,0,.54,1,4,4,0,0,0,2.15.79,5.25,5.25,0,0,0,3.86-1.89,5.71,5.71,0,0,0,1.51-4.07,3.19,3.19,0,0,0-1.36-2.58,1.22,1.22,0,0,1-.08-1.93l.76-.64a1.25,1.25,0,0,1,1.67.07,7.08,7.08,0,0,1,2.35,5,9,9,0,0,1-2.41,6.37A8,8,0,0,1,54.72,287.13Z"/><circle class="cls-8" cx="101.13" cy="275.88" r="8.11"/><path class="cls-9" d="M107,271.31c.15,4.28.29,8.4.44,12.52,0,.12,0,.16-.14.16l-1,0c-.08,0-.11,0-.1-.1v-.09l-.6-16.93c0-.74,0-1.48,0-2.22s0-1.45.07-2.17.06-1.6.08-2.4c0-.19,0-.19-.17-.18l-5.1.3c-.1,0-.13,0-.11.14l.69,4.38c.12.73.23,1.45.35,2.18a.76.76,0,0,1,0,.15L102,284c0,.14,0,.18-.16.18l-1.08,0c-.08,0-.11,0-.1-.1V284c-.19-5.37-.39-10.74-.57-16.11,0-.75-.12-1.5-.19-2.25s-.15-1.49-.23-2.23l-.3-2.94c0-.12-.06-.14-.17-.14l-4.52.23c-.1,0-.13,0-.11.13l.69,3.53.57,2.93a2,2,0,0,1,0,.23l.6,16.81c0,.12,0,.16-.15.16-.33,0-.66,0-1,0-.1,0-.11,0-.12-.12,0-1-.07-2-.1-3q-.24-6.6-.46-13.19a15.48,15.48,0,0,0-.23-1.92L94,263.67c-.15-.9-.29-1.8-.44-2.7-.06-.39-.12-.79-.19-1.18,0-.09,0-.13.1-.13l6.17-.33,6.62-.36.45,0c.09,0,.12,0,.12.11,0,.85,0,1.7,0,2.55,0,1,0,2.06,0,3.1C106.76,267,106.88,269.21,107,271.31Z"/><path class="cls-6" d="M96.3,284.47h0c-.34,0-.69,0-1,0a.24.24,0,0,1-.16,0,.22.22,0,0,1,0-.16c0-.81-.06-1.62-.08-2.42L94.87,278c-.12-3.3-.24-6.59-.35-9.89a13.76,13.76,0,0,0-.22-1.9l-.39-2.42-.5-3.17c0-.26-.09-.53-.13-.79a.18.18,0,0,1,0-.16.23.23,0,0,1,.15-.07l6.18-.32,6.61-.36.46,0a.14.14,0,0,1,.15,0,.17.17,0,0,1,.05.15v3.36c0,.75,0,1.53,0,2.29,0,1.67,0,3.34.09,5,0,.56,0,1.11.06,1.64.15,4.29.3,8.41.45,12.53a.25.25,0,0,1,0,.19.32.32,0,0,1-.18.06l-1,0a.17.17,0,0,1-.16-.05.13.13,0,0,1,0-.14.11.11,0,0,0,0-.05v0l-.15-4.23-.45-12.7c0-.49,0-1,0-1.48l0-.75c0-.48,0-1,0-1.46,0-.24,0-.47,0-.71,0-.48,0-1,0-1.43l0-1V260h-.09l-1.35.08-3.74.22h0s0,0,0,0c.16,1,.31,1.95.46,2.92l.58,3.65c0,.05,0,.1,0,.16l.07,2.11q.25,7.41.53,14.81a.28.28,0,0,1,0,.2.36.36,0,0,1-.2.06c-.34,0-.67,0-1.07,0a.17.17,0,0,1-.16-.05.15.15,0,0,1,0-.15.11.11,0,0,0,0-.05v0l-.13-3.83q-.23-6.13-.43-12.27c0-.56-.08-1.13-.14-1.68,0-.19,0-.38,0-.57l-.15-1.46c0-.26-.06-.51-.08-.77l-.06-.49-.24-2.45a.14.14,0,0,0,0-.06h-.07l-4.52.23h0v0c.19.95.37,1.89.56,2.84l.27,1.43c.15.73.29,1.46.43,2.2a1.54,1.54,0,0,1,0,.24l.14,3.73q.23,6.54.46,13.07a.28.28,0,0,1-.05.2A.28.28,0,0,1,96.3,284.47Zm-.49-.16h.53s0,0,0-.07q-.24-6.54-.47-13.07l-.13-3.74c0-.08,0-.15,0-.21-.15-.73-.29-1.47-.43-2.2L95,263.57c-.18-.95-.36-1.89-.55-2.84a.21.21,0,0,1,0-.17.21.21,0,0,1,.17-.06l4.51-.22c.13,0,.24,0,.26.21.08.82.17,1.63.25,2.45l0,.49c0,.26.06.51.08.77,0,.49.11,1,.15,1.46l.06.57c.06.56.11,1.13.13,1.69q.21,6.13.43,12.27l.14,3.86v.08h0c.31,0,.71,0,1.08,0h.08V284q-.27-7.41-.53-14.81l-.07-2.12s0-.09,0-.14l-.58-3.64c-.15-1-.31-1.95-.46-2.92a.2.2,0,0,1,0-.17.26.26,0,0,1,.17-.07l3.74-.22,1.35-.08c.11,0,.17,0,.22,0s0,.11,0,.23l0,1c0,.48,0,1,0,1.44l0,.7c0,.49,0,1,0,1.47l0,.75c0,.48,0,1,0,1.47l.45,12.69.15,4.26v.08h0c.37,0,.7,0,1,0h.06v-.06c-.15-4.13-.29-8.25-.45-12.53h0c0-.54,0-1.09,0-1.64-.06-1.62-.13-3.29-.1-5,0-.77,0-1.54,0-2.29v-1.77c0-.53,0-1.06,0-1.6v0h0c-.15,0-.31,0-.46,0l-6.62.35c-2,.11-4.11.23-6.17.33h0v0c0,.27.09.53.13.79l.51,3.17.39,2.42a15.83,15.83,0,0,1,.22,1.92c.11,3.3.23,6.6.34,9.9l.14,3.9.09,2.43v0h0Z"/><path class="cls-9" d="M91.41,276.56q.14,3.88.28,7.79c0,.13,0,.16-.15.16l-.66,0c-.08,0-.11,0-.1-.1v-.09q-.27-7.36-.52-14.74c0-.14-.05-.16-.18-.16q-.78,0-1.56.06c-.11,0-.14,0-.13.14q.26,7.08.5,14.15c0,.24,0,.47,0,.71,0,.08,0,.1-.1.1l-.8,0c-.1,0-.13,0-.12-.11v0q-.27-7.79-.55-15.57c0-.13,0-.17.16-.17l3.48-.12c.12,0,.14,0,.15.14Z"/><path class="cls-6" d="M91.57,284.59h0l-.66,0a.21.21,0,0,1-.15,0,.16.16,0,0,1,0-.14.13.13,0,0,0,0-.06v0l-.09-2.68q-.21-6-.43-12.06c0-.06,0-.07,0-.07h-.07l-1.57.05h0v.05q.23,6.06.43,12.12L89,284c0,.17,0,.34,0,.52a.19.19,0,0,1,0,.14.18.18,0,0,1-.13.05c-.31,0-.57,0-.81,0a.2.2,0,0,1-.16-.05.17.17,0,0,1,0-.16v0l-.07-2q-.24-6.81-.49-13.61a.28.28,0,0,1,0-.2.32.32,0,0,1,.19-.07h0l3.48-.12h0a.22.22,0,0,1,.17.05.22.22,0,0,1,.06.18c.07,2.08.15,4.16.22,6.24l.11,3.12c.07,2.08.15,4.16.22,6.24a.24.24,0,0,1,0,.18A.18.18,0,0,1,91.57,284.59Zm-.33-.16h.36a.17.17,0,0,0,0-.07c-.08-2.07-.15-4.15-.23-6.23L91.27,275c-.07-2.08-.15-4.17-.22-6.25v-.06H91l-3.48.12h-.07s0,0,0,.08q.24,6.81.49,13.62l.06,1.94a.2.2,0,0,1,0,.07v0h0c.24,0,.51,0,.81,0h0c0-.18,0-.35,0-.53l-.07-2.21q-.22-6.06-.44-12.13a.26.26,0,0,1,0-.17.21.21,0,0,1,.17-.05l1.56-.06a.29.29,0,0,1,.2.05.26.26,0,0,1,.06.19l.42,12.06.1,2.7v.08h0Z"/><path class="cls-9" d="M110.4,275.88l-.27-7.8c0-.12,0-.15.14-.16,1.17,0,2.33-.07,3.5-.12.11,0,.14,0,.14.13q.27,7.81.55,15.64c0,.1,0,.13-.12.13l-.79,0c-.07,0-.11,0-.1-.09v-.11q-.27-7.36-.52-14.73c0-.14,0-.17-.17-.16-.52,0-1.05.05-1.57.06-.11,0-.14,0-.13.14.06,1.8.13,3.61.19,5.41q.16,4.69.34,9.38c0,.15,0,.18-.17.18s-.43,0-.65,0c-.07,0-.09,0-.09-.09v-.16Z"/><path class="cls-6" d="M111.45,283.89h0l-.59,0h0a.19.19,0,0,1-.14,0,.17.17,0,0,1,0-.14.38.38,0,0,0,0-.1v-.05l-.31-8.81-.24-6.68a.25.25,0,0,1,0-.19.23.23,0,0,1,.18-.06h0l3.49-.12a.27.27,0,0,1,.18,0,.26.26,0,0,1,0,.17q.27,7.81.56,15.63a.25.25,0,0,1,0,.17.22.22,0,0,1-.16.06l-.78,0a.2.2,0,0,1-.15,0,.18.18,0,0,1,0-.14v-.1l0-1.64q-.24-6.54-.46-13.09c0-.06,0-.07,0-.07h-.08l-1.57,0h0v0c.06,1.47.11,3,.16,4.42l.09,2.55c.09,2.61.18,5.21.28,7.82a.28.28,0,0,1,0,.2A.22.22,0,0,1,111.45,283.89Zm-.32-.16h.37v-.07c-.09-2.61-.19-5.22-.28-7.82l-.09-2.55c0-1.48-.1-2.95-.16-4.43a.22.22,0,0,1,0-.17c0-.05.11-.05.17-.06l1.56-.05a.24.24,0,0,1,.2.05.32.32,0,0,1,.07.19l.45,13.09.06,1.67a.11.11,0,0,1,0,.08h0l.79,0h0v-.05q-.28-7.81-.55-15.63a.22.22,0,0,0,0-.06h0l-3.5.13h-.06v.06l.24,6.68.31,8.86a.48.48,0,0,1,0,.12h.37Z"/><path class="cls-9" d="M86.23,278.85c.06,1.85.13,3.7.2,5.55,0,.11,0,.15-.13.15l-.68,0c-.08,0-.11,0-.1-.1s0-.05,0-.08l-.36-10.28c0-.13,0-.16-.16-.15l-1.46.05c-.12,0-.14,0-.14.15q.18,5.16.37,10.32c0,.12,0,.17-.15.17a5.46,5.46,0,0,0-.7,0c-.11,0-.13,0-.13-.12,0-.81,0-1.62-.08-2.43-.1-2.91-.21-5.81-.31-8.71,0-.12,0-.16.14-.16l3.36-.12c.11,0,.14,0,.14.13C86.1,275.12,86.16,277,86.23,278.85Z"/><path class="cls-6" d="M83.64,284.73h0c-.21,0-.43,0-.7,0,0,0-.11,0-.15,0a.19.19,0,0,1-.06-.16c0-.65,0-1.3-.07-1.94l-.06-1.73-.27-7.47a.27.27,0,0,1,0-.19.28.28,0,0,1,.18-.06l3.36-.11h0a.21.21,0,0,1,.17,0,.22.22,0,0,1,.06.17l.15,4.47.08,2.22c.05,1.49.1,3,.16,4.45a.24.24,0,0,1-.05.18.21.21,0,0,1-.17.05c-.22,0-.45,0-.66,0a.22.22,0,0,1-.16-.05.2.2,0,0,1,0-.15v-.07l-.05-1.28c-.1-3-.21-6-.31-9a.28.28,0,0,0,0-.08H85c-.46,0-.94,0-1.46,0h-.06s0,0,0,.06c.07,1.83.13,3.67.2,5.5.06,1.61.12,3.21.17,4.82a.22.22,0,0,1,0,.19A.18.18,0,0,1,83.64,284.73Zm-.37-.17h.4a.2.2,0,0,0,0-.08l-.18-4.81c-.06-1.84-.13-3.67-.19-5.51a.23.23,0,0,1,0-.18.29.29,0,0,1,.18-.05c.51,0,1,0,1.45-.06a.26.26,0,0,1,.19.05.32.32,0,0,1,.07.19c.1,3,.21,6,.31,9l0,1.31v.07h0c.21,0,.45,0,.68,0h0v0c0-1.49-.1-3-.16-4.45l-.07-2.23c-.06-1.49-.11-3-.16-4.46,0,0,0,0,0-.06h0l-3.36.12h-.06v.06l.27,7.47.06,1.73c0,.65,0,1.3.06,1.94a.13.13,0,0,1,0,0h0Z"/><path class="cls-9" d="M115.74,277.79c-.07-1.85-.13-3.71-.2-5.57,0-.11,0-.14.13-.14L119,272c.11,0,.14,0,.14.13.13,3.71.26,7.43.4,11.14,0,.11,0,.15-.14.15l-.75,0c-.07,0-.1,0-.09-.08s0-.07,0-.1L118.23,273c0-.13,0-.17-.16-.16l-1.47,0c-.12,0-.14,0-.13.15q.18,5.16.37,10.31c0,.14,0,.18-.16.18a4.1,4.1,0,0,0-.61,0c-.12,0-.14,0-.14-.14C115.87,281.5,115.8,279.65,115.74,277.79Z"/><path class="cls-6" d="M116.71,283.56h0a4.05,4.05,0,0,0-.59,0,.18.18,0,0,1-.17,0c-.06,0-.06-.11-.06-.18-.06-1.59-.11-3.18-.17-4.77l-.07-1.91c0-1.48-.1-3-.16-4.45a.24.24,0,0,1,0-.18c0-.05.1-.05.16-.06h0l3.37-.12h0a.26.26,0,0,1,.17.05c.05,0,.05.11.06.17q.18,5.57.39,11.14a.24.24,0,0,1,0,.18.21.21,0,0,1-.17,0c-.23,0-.48,0-.71,0h0a.16.16,0,0,1-.14-.05.16.16,0,0,1,0-.13v-.08l-.05-1.47c-.11-2.94-.21-5.87-.31-8.81a.28.28,0,0,0,0-.08h-.07c-.44,0-.9,0-1.47.05h0V273c.06,1.6.11,3.2.17,4.81.07,1.83.13,3.67.2,5.5a.26.26,0,0,1,0,.2A.2.2,0,0,1,116.71,283.56Zm-.33-.17h.37v-.08c-.06-1.84-.13-3.67-.2-5.5,0-1.61-.11-3.21-.17-4.82a.24.24,0,0,1,.05-.18.25.25,0,0,1,.17-.05c.56,0,1,0,1.46-.06a.26.26,0,0,1,.19.05.28.28,0,0,1,.07.19q.15,4.41.31,8.81l.05,1.5v.07h0c.24,0,.48,0,.73,0h0v-.06l-.39-11.14a.2.2,0,0,0,0,0h0l-3.37.12h0v.05c.06,1.48.11,3,.16,4.45l.07,1.91c.05,1.6.11,3.19.16,4.78a.22.22,0,0,0,0,.06h0Z"/><rect class="cls-9" x="82.02" y="283.79" width="38.14" height="2.28" transform="translate(-10 3.75) rotate(-2.02)"/><path class="cls-6" d="M120.28,285.47,82,286.82l-.08-2.44L120.19,283Zm-38.13,1.18,38-1.34L120,283.2l-37.95,1.34Z"/><rect class="cls-10" x="53.4" y="190.37" width="60.33" height="104.93" transform="translate(-172.98 254.6) rotate(-73.64)"/><path class="cls-6" d="M44.34,203.73l-14.92,50.8,93.36,27.41,14.92-50.79ZM121.72,272a5.63,5.63,0,0,0-7,3.71l-75.05-22a5.64,5.64,0,0,0-3.93-6.93l9.71-33.07a5.64,5.64,0,0,0,7.05-3.7l75.05,22a5.64,5.64,0,0,0,3.94,6.93Z"/><ellipse class="cls-7" cx="59.8" cy="235.86" rx="18.69" ry="15.32" transform="translate(-183.35 226.79) rotate(-73.64)"/><path class="cls-6" d="M56,247.88a7.61,7.61,0,0,1-2.86-1.66,5.8,5.8,0,0,1-1.82-2.61c-.2-.64,0-2.05.7-4.23l1-3.26a1.22,1.22,0,0,0-.83-1.52l-1.88-.55a1.24,1.24,0,0,1-.84-1.53l.25-.84a1.24,1.24,0,0,1,1.53-.84l1.88.56a1.23,1.23,0,0,0,1.53-.84l.25-.86a29.46,29.46,0,0,0,.73-3.08,1.22,1.22,0,0,0,0-.57,3.38,3.38,0,0,0-.88-1.45,1.22,1.22,0,0,1,.09-1.75l.48-.42a1.24,1.24,0,0,1,1.67,0A6.4,6.4,0,0,1,58.74,225a6.9,6.9,0,0,1-.24,4.2l-.67,2.3a1.23,1.23,0,0,0,.83,1.53l.88.26a1.22,1.22,0,0,1,.83,1.52l-.24.85a1.23,1.23,0,0,1-1.53.83l-.88-.26a1.22,1.22,0,0,0-1.52.83L54.74,242a1.21,1.21,0,0,0,.2,1.09,4,4,0,0,0,1.8,1.43A5.23,5.23,0,0,0,61,244a5.67,5.67,0,0,0,2.72-3.38,3.16,3.16,0,0,0-.48-2.88,1.23,1.23,0,0,1,.54-1.86l.92-.36a1.25,1.25,0,0,1,1.56.59,7.08,7.08,0,0,1,.64,5.52,9,9,0,0,1-4.29,5.29A8,8,0,0,1,56,247.88Z"/><circle class="cls-8" cx="103.61" cy="251.84" r="8.11"/><path class="cls-9" d="M110.58,249.34c-1.21,4.11-2.37,8.06-3.53,12,0,.11-.07.15-.19.11-.32-.11-.65-.2-1-.29-.08,0-.11-.05-.07-.13a.29.29,0,0,0,0-.09q2.39-8.13,4.77-16.25c.21-.71.5-1.4.75-2.09s.5-1.36.75-2,.56-1.5.83-2.25c.07-.18.07-.18-.11-.23l-4.93-1.32c-.1,0-.13,0-.15.1l-.72,4.37-.36,2.18a.83.83,0,0,1,0,.15q-2.39,8.11-4.76,16.25c0,.13-.08.15-.21.11l-1-.31c-.08,0-.1-.05-.06-.12s0-.06,0-.09q2.28-7.74,4.55-15.46c.21-.73.36-1.47.53-2.21l.48-2.18c.21-1,.43-1.92.64-2.89,0-.12,0-.15-.12-.18l-4.35-1.22c-.1,0-.13,0-.15.09-.15,1.19-.3,2.38-.46,3.57-.13,1-.25,2-.38,3a1.74,1.74,0,0,1,0,.22l-4.74,16.14c0,.12-.07.15-.19.11-.32-.11-.63-.2-1-.28-.09,0-.1-.06-.08-.15.29-1,.58-1.94.86-2.91l3.72-12.66a15.5,15.5,0,0,0,.4-1.89c.13-.83.27-1.66.4-2.49s.3-1.8.44-2.7c.07-.39.13-.79.2-1.18,0-.09,0-.12.13-.09l6,1.63,6.39,1.75c.15,0,.29.09.44.12s.11.05.08.14l-.81,2.42c-.33,1-.65,2-1,2.94C111.77,245.15,111.18,247.33,110.58,249.34Z"/><path class="cls-6" d="M96.32,258.46h0c-.32-.11-.66-.2-.94-.28a.17.17,0,0,1-.13-.09.22.22,0,0,1,0-.16l.69-2.33,1.1-3.75,2.79-9.5a13.88,13.88,0,0,0,.39-1.87c.14-.81.27-1.61.4-2.42l.52-3.17.12-.79a.2.2,0,0,1,.08-.14.15.15,0,0,1,.16,0l6,1.63,6.39,1.75.44.12s.11,0,.14.09a.22.22,0,0,1,0,.16l-.51,1.51-.56,1.67c-.24.71-.48,1.45-.74,2.17-.55,1.58-1,3.18-1.47,4.73l-.46,1.58c-1.21,4.11-2.37,8.07-3.53,12a.26.26,0,0,1-.11.16.31.31,0,0,1-.19,0l-1-.29a.2.2,0,0,1-.13-.09.17.17,0,0,1,0-.15l0,0v0l1.2-4.06,3.57-12.19c.14-.48.32-.95.49-1.4.09-.23.18-.47.26-.7.16-.46.34-.92.51-1.38l.24-.66c.17-.45.34-.9.5-1.35l.33-.9a.69.69,0,0,0,0-.1l-.09,0-1.3-.35-3.63-1h0a.08.08,0,0,1,0,0l-.48,2.92-.6,3.64a.83.83,0,0,1,0,.15l-.59,2-4.17,14.22a.24.24,0,0,1-.12.17.23.23,0,0,1-.2,0c-.32-.11-.64-.2-1-.3a.17.17,0,0,1-.13-.1.18.18,0,0,1,0-.15.07.07,0,0,0,0-.05v0l1.08-3.68L105,243.93c.15-.54.28-1.09.4-1.63,0-.19.08-.38.13-.56.1-.48.21-1,.31-1.44.06-.25.11-.5.17-.75l.11-.48c.17-.8.35-1.6.53-2.4a.32.32,0,0,0,0-.07l-.07,0-4.35-1.21h0v0c-.11,1-.24,1.91-.36,2.86l-.19,1.45c-.1.74-.19,1.48-.29,2.22,0,.07,0,.15,0,.24l-1.06,3.58Q98.45,252,96.6,258.29c0,.06,0,.14-.11.17A.2.2,0,0,1,96.32,258.46Zm-.42-.3.45.14a.1.1,0,0,0,.07,0h0s0,0,0-.07q1.84-6.27,3.68-12.55l1.06-3.58c0-.08,0-.15,0-.21.1-.74.2-1.48.29-2.23l.19-1.44c.12-.95.25-1.91.37-2.87,0-.05,0-.12.07-.15a.23.23,0,0,1,.18,0l4.36,1.22a.21.21,0,0,1,.18.28c-.19.8-.36,1.6-.54,2.4l-.11.49c0,.25-.11.5-.16.75-.11.48-.21,1-.32,1.43,0,.19-.09.38-.13.57-.12.54-.24,1.1-.4,1.64q-1.74,5.88-3.47,11.78l-1.08,3.71,0,.07h0c.3.09.68.19,1,.31l.07,0,0-.07L106,245.58l.59-2a.65.65,0,0,0,0-.13l.6-3.64.48-2.92c0-.05,0-.12.08-.15a.19.19,0,0,1,.18,0l3.62,1,1.3.35c.11,0,.17,0,.2.1s0,.13,0,.23l-.33.91-.5,1.35c-.08.22-.16.44-.25.66-.17.46-.34.91-.5,1.37-.08.24-.17.47-.26.71-.17.45-.35.91-.49,1.38l-3.57,12.19-1.2,4.09,0,.08h0l1,.29h0l0-.06c1.16-4,2.32-7.92,3.53-12h0c.15-.51.3-1,.46-1.57.45-1.56.92-3.16,1.47-4.74.26-.72.5-1.46.74-2.17l.56-1.68.51-1.51v0h0c-.15,0-.29-.08-.44-.12l-6.39-1.75-6-1.63h0v0c0,.26-.09.53-.13.79l-.52,3.17-.39,2.41a16.16,16.16,0,0,1-.4,1.9l-2.79,9.5-1.1,3.74L95.38,258s0,0,0,0h0Z"/><path class="cls-9" d="M94.18,249.42q-1.11,3.74-2.2,7.48c0,.12-.08.14-.19.1l-.64-.19c-.07,0-.09-.05-.06-.12l0-.09q2.07-7.08,4.16-14.15c0-.13,0-.17-.12-.2l-1.5-.44c-.11,0-.14,0-.17.09l-4,13.58c-.06.23-.13.46-.2.69,0,.07,0,.09-.12.07l-.77-.23c-.09,0-.11-.07-.08-.14s0,0,0-.06q2.19-7.47,4.38-14.94c0-.12.08-.16.21-.11l3.34,1c.12,0,.13.07.1.18Q95.27,245.67,94.18,249.42Z"/><path class="cls-6" d="M91.79,257.09h0a6.12,6.12,0,0,0-.63-.18s-.1,0-.12-.09a.24.24,0,0,1,0-.15s0,0,0-.05v0l.75-2.58q1.71-5.77,3.41-11.57a.45.45,0,0,0,0-.08l-.07,0-1.51-.44,0,0a.13.13,0,0,1,0,0l-3.42,11.65-.62,2.12-.15.5a.16.16,0,0,1-.08.12.17.17,0,0,1-.14,0l-.77-.23a.23.23,0,0,1-.14-.1.18.18,0,0,1,0-.16s0,0,0,0l.55-1.89q1.92-6.54,3.83-13.07a.26.26,0,0,1,.11-.17.28.28,0,0,1,.2,0h0l3.33,1h0a.2.2,0,0,1,.15.1.23.23,0,0,1,0,.18q-.88,3-1.76,6l-.88,3c-.59,2-1.18,4-1.76,6a.2.2,0,0,1-.11.16A.22.22,0,0,1,91.79,257.09Zm-.26-.26.29.09.06,0a.32.32,0,0,0,0-.06q.87-3,1.76-6l.88-3q.87-3,1.76-6v-.06l0,0h0c-1.25-.36-2.34-.68-3.34-1h-.08l0,.08Q90.91,247.43,89,254l-.55,1.87,0,.06v0h0l.78.23h0l.15-.51.62-2.12,3.42-11.64a.23.23,0,0,1,.1-.15.2.2,0,0,1,.17,0l1.5.44a.25.25,0,0,1,.18.1.28.28,0,0,1,0,.2q-1.71,5.79-3.41,11.58l-.76,2.6a.64.64,0,0,1,0,.07h0Z"/><path class="cls-9" d="M112.41,254.76c.74-2.49,1.47-5,2.2-7.48,0-.12.07-.14.19-.11,1.11.34,2.23.66,3.35,1,.11,0,.13.06.1.17l-4.41,15c0,.1-.06.12-.16.09l-.75-.22c-.07,0-.1,0-.07-.12l0-.11q2.07-7.07,4.15-14.14c0-.13,0-.17-.11-.2l-1.5-.44c-.11,0-.15,0-.18.09q-.75,2.6-1.52,5.19l-2.64,9c0,.13-.09.15-.21.11l-.62-.19c-.07,0-.09,0-.06-.11a.83.83,0,0,0,0-.15Z"/><path class="cls-6" d="M110.88,262.7h0c-.19-.07-.38-.12-.57-.17l0,0a.18.18,0,0,1-.12-.08.2.2,0,0,1,0-.14l0-.1v-.05l2.49-8.46q.93-3.21,1.88-6.42a.23.23,0,0,1,.1-.15.25.25,0,0,1,.19,0h0c1.08.33,2.18.65,3.35,1a.19.19,0,0,1,.16.27l-4.41,15a.23.23,0,0,1-.1.15.2.2,0,0,1-.17,0l-.75-.22a.28.28,0,0,1-.13-.09.23.23,0,0,1,0-.15l0-.05v0l.46-1.57L117,248.82l0-.07-.06,0h0l-1.51-.44s-.05,0-.05,0l0,0c-.41,1.42-.83,2.84-1.24,4.25l-.72,2.45c-.74,2.5-1.47,5-2.2,7.51a.24.24,0,0,1-.12.17A.25.25,0,0,1,110.88,262.7Zm-.26-.26.29.09s.07,0,.07,0h0a.23.23,0,0,0,0-.07q1.09-3.75,2.2-7.51l.72-2.44c.41-1.42.83-2.84,1.24-4.25a.19.19,0,0,1,.28-.15l1.5.44c.07,0,.14,0,.17.11a.23.23,0,0,1,0,.2l-3.69,12.57L113,263a.26.26,0,0,1,0,.08h0l.75.22h0s0,0,0-.05q2.2-7.5,4.41-15a.21.21,0,0,0,0-.06h-.05c-1.18-.34-2.28-.66-3.36-1h-.06a.14.14,0,0,0,0,.06c-.63,2.14-1.25,4.28-1.88,6.42l-2.5,8.51a.76.76,0,0,1,0,.11h0l0,0Z"/><path class="cls-9" d="M88.54,250q-.8,2.67-1.57,5.34c0,.1-.06.14-.17.1a4.84,4.84,0,0,0-.65-.19c-.08,0-.1-.06-.06-.13s0-.06,0-.08q1.44-4.94,2.9-9.87c0-.12,0-.16-.11-.2-.47-.13-.93-.26-1.4-.41-.11,0-.15,0-.18.1q-1.45,5-2.9,9.91c0,.12-.07.16-.2.11s-.45-.14-.67-.2-.11-.06-.08-.15c.23-.78.46-1.56.68-2.33l2.46-8.37c0-.11.06-.14.18-.1l3.23.94c.11,0,.12.07.09.17Q89.32,247.27,88.54,250Z"/><path class="cls-6" d="M84.22,254.72h0c-.19-.07-.4-.13-.66-.2a.2.2,0,0,1-.14-.08.23.23,0,0,1,0-.18c.18-.62.36-1.24.55-1.86l.48-1.66q1.06-3.58,2.11-7.17a.21.21,0,0,1,.1-.16c.06,0,.12,0,.19,0l3.22,1h0a.19.19,0,0,1,.15.28l-1.26,4.29L88.3,251c-.42,1.43-.83,2.85-1.25,4.27a.25.25,0,0,1-.1.16.28.28,0,0,1-.18,0,5.17,5.17,0,0,0-.64-.19.23.23,0,0,1-.13-.1.18.18,0,0,1,0-.15V255l.36-1.23,2.54-8.63V245h0l-.06,0c-.45-.12-.91-.25-1.4-.41h-.06a.14.14,0,0,0,0,.06c-.52,1.76-1,3.52-1.55,5.28l-1.35,4.62a.31.31,0,0,1-.11.18A.33.33,0,0,1,84.22,254.72Zm-.29-.27.32.1.06,0,0-.07,1.35-4.63c.52-1.76,1-3.52,1.55-5.28a.25.25,0,0,1,.1-.16.25.25,0,0,1,.19,0c.49.16.94.29,1.39.41a.32.32,0,0,1,.17.11.28.28,0,0,1,0,.2c-.85,2.87-1.69,5.75-2.54,8.63L86.18,255a.14.14,0,0,1,0,.07h0a5.88,5.88,0,0,1,.65.19h0s0,0,0,0c.42-1.43.83-2.85,1.25-4.27l.63-2.14L90,244.57a.18.18,0,0,0,0,0l0,0h0l-3.22-.95h-.06l0,.06q-1.05,3.59-2.11,7.17l-.48,1.67c-.19.62-.37,1.24-.55,1.86a.1.1,0,0,0,0,0h0Z"/><path class="cls-9" d="M116.87,258.26c.52-1.78,1-3.56,1.57-5.35,0-.1.06-.13.17-.09l3.23,1c.11,0,.13.06.1.17q-1.57,5.34-3.14,10.69c0,.11-.06.14-.17.1s-.48-.14-.73-.21c-.06,0-.09,0-.06-.11l0-.09q1.44-4.94,2.9-9.87c0-.12,0-.17-.11-.2l-1.41-.41c-.11,0-.14,0-.17.09l-2.91,9.91c0,.13-.07.16-.2.11s-.39-.12-.58-.17-.12-.07-.09-.17Z"/><path class="cls-6" d="M116,264h0a5.6,5.6,0,0,0-.57-.17.2.2,0,0,1-.15-.09.21.21,0,0,1,0-.19c.45-1.52.9-3.05,1.34-4.58l.54-1.83,1.26-4.28a.2.2,0,0,1,.1-.15.2.2,0,0,1,.17,0h0l3.24.95h0a.21.21,0,0,1,.15.09.28.28,0,0,1,0,.18q-1.58,5.35-3.14,10.7a.19.19,0,0,1-.28.15l-.69-.2h0a.16.16,0,0,1-.12-.09.21.21,0,0,1,0-.14.08.08,0,0,0,0-.05v0l.41-1.41,2.49-8.45a.45.45,0,0,0,0-.08h0l-.06,0-1.41-.42h-.06s0,0,0,.05c-.45,1.54-.91,3.08-1.36,4.62q-.76,2.64-1.55,5.28c0,.07,0,.15-.11.18A.18.18,0,0,1,116,264Zm-.27-.26.29.09.06,0s0,0,0-.08q.78-2.64,1.55-5.28c.45-1.54.91-3.08,1.36-4.62a.2.2,0,0,1,.1-.15.23.23,0,0,1,.18,0l1.4.41a.25.25,0,0,1,.17.1.3.3,0,0,1,0,.21l-2.49,8.45-.42,1.44a.64.64,0,0,0,0,.07h0l.69.2h0a.12.12,0,0,0,0-.05q1.56-5.36,3.14-10.69a.21.21,0,0,0,0-.06h-.05l-3.24-.95s0,0,0,0a.28.28,0,0,1,0,.05l-1.26,4.28-.53,1.83-1.35,4.58s0,.05,0,.06h0Z"/><rect class="cls-9" x="81.65" y="259.27" width="38.14" height="2.28" transform="matrix(0.96, 0.28, -0.28, 0.96, 77.45, -17.83)"/><path class="cls-6" d="M118.76,267,82,256.19l.69-2.35,36.76,10.8ZM82.21,256.07l36.44,10.7.59-2L82.8,254.05Z"/><path class="cls-11" d="M312.71,290.92H112a14,14,0,0,1-13.48-12.05L82.86,151a10.44,10.44,0,0,1,10.52-12.05H294A14,14,0,0,1,307.52,151l15.71,127.9A10.44,10.44,0,0,1,312.71,290.92Z"/><path class="cls-12" d="M313.06,290.92H119c-6.38,0-12.25-5.42-13-12.05L90.8,151c-.79-6.62,3.79-12.05,10.17-12.05H295c6.38,0,12.25,5.43,13,12.05l15.18,127.9C324,285.5,319.44,290.92,313.06,290.92Z"/><polygon class="cls-13" points="314.38 280.19 115.24 281.14 106.56 205.51 102.43 169.53 100.26 150.57 299.39 149.62 301.61 168.97 305.74 204.96 314.38 280.19"/><polygon class="cls-14" points="227.78 207.61 220.65 273.95 315.88 273.95 319.19 210.22 227.78 207.61"/><polygon class="cls-15" points="305.74 204.96 106.56 205.51 102.43 169.53 301.61 168.97 305.74 204.96"/><path class="cls-16" d="M190.79,242.92h-36.3c-7.85,0-14.22,5.24-14.22,11.71s6.37,11.7,14.22,11.7h36.3c7.85,0,14.22-5.24,14.22-11.7S198.64,242.92,190.79,242.92Z"/><path class="cls-17" d="M190.31,264H155c-6.71,0-12.17-4.19-12.17-9.35s5.46-9.34,12.17-9.34h35.34c6.71,0,12.17,4.19,12.17,9.34S197,264,190.31,264ZM155,247.1c-5.65,0-10.24,3.4-10.24,7.58s4.59,7.59,10.24,7.59h35.34c5.65,0,10.24-3.4,10.24-7.59s-4.59-7.58-10.24-7.58Z"/><path class="cls-18" d="M167.61,253.27c0,1.91-1.19,3-3.25,3h-1.45v2.24H160.8v-8.1h3.56C166.42,250.43,167.61,251.47,167.61,253.27Zm-2,.07c0-.79-.49-1.22-1.35-1.22h-1.34v2.48h1.34A1.18,1.18,0,0,0,165.6,253.34Z"/><path class="cls-18" d="M173.43,257.1h-3.5l-.57,1.43h-2.17l3.48-8.1h2.17l3.4,8.1H174Zm-.62-1.62-1.11-2.89-1.13,2.89Z"/><path class="cls-18" d="M180.58,255.94v2.59h-2.12V256l-3-5.57h2.12l1.91,3.48,1.87-3.48h2.12Z"/><path class="cls-19" d="M193.38,184H172.72a1.48,1.48,0,0,1-1.47-1.48h0a1.48,1.48,0,0,1,1.47-1.48h20.66a1.49,1.49,0,0,1,1.48,1.48h0A1.49,1.49,0,0,1,193.38,184Z"/><path class="cls-19" d="M210.5,193.17H176a1.49,1.49,0,0,1-1.48-1.48h0a1.49,1.49,0,0,1,1.48-1.48H210.5a1.49,1.49,0,0,1,1.48,1.48h0A1.49,1.49,0,0,1,210.5,193.17Z"/><path class="cls-19" d="M204.6,184H199a1.49,1.49,0,0,1-1.48-1.48h0a1.49,1.49,0,0,1,1.48-1.48h5.61a1.48,1.48,0,0,1,1.47,1.48h0A1.48,1.48,0,0,1,204.6,184Z"/><path class="cls-19" d="M154.54,180.07a2.34,2.34,0,0,0-1.83-.74H132.36a.46.46,0,0,1-.52-.34c-.17-.41-.39-.82-.6-1.22a1.49,1.49,0,0,0-1.32-.85h-5.71a1,1,0,0,0-1.06.85s0,.07,0,.1l.09.55a1.82,1.82,0,0,0,1.86.95c1.36,0,2.73,0,4.1,0a.31.31,0,0,1,.35.22c1.05,2.18,2.11,4.35,3.16,6.53,1.36,2.8,2.7,5.6,4.06,8.4a1.57,1.57,0,0,0,1.61,1h15.12a1,1,0,0,0,1-.95,1.4,1.4,0,0,0-.82-1.33,2.17,2.17,0,0,0-.82-.16h-13.9a.31.31,0,0,1-.32-.2c-.2-.46-.43-.9-.65-1.35l-.73-1.53h15.51a1.93,1.93,0,0,0,2-1.29,5.05,5.05,0,0,0,.18-1.31c.08-1.25.14-2.52.21-3.77,0-.71.1-1.4.15-2.1,0-.2-.07-.4-.1-.6A6.07,6.07,0,0,0,154.54,180.07Zm-9,1.75.27,1.63h-4l-.27-1.64Zm.68,4.11.27,1.65h-4l-.27-1.65Zm-12.37-2.78c-.2-.44-.43-.87-.66-1.33h6.06l.27,1.64H134.3A.44.44,0,0,1,133.81,183.15Zm2.54,4.44a.45.45,0,0,1-.49-.32c-.2-.44-.43-.87-.66-1.34h4.69l.27,1.65Zm16-.68c0,.22,0,.52-.09.62s-.44.05-.67.05h-2.83l-.27-1.65h3.9C152.39,186.27,152.38,186.59,152.36,186.91Zm.19-3.6c0,.06-.1.11-.17.14s-.1,0-.15,0h-4.14l-.27-1.63h4.82C152.61,182.33,152.59,182.82,152.55,183.31Z"/><path class="cls-19" d="M151,196.72a1.46,1.46,0,0,0-1.48,1.73,2.18,2.18,0,0,0,2,1.76,1.45,1.45,0,0,0,1.5-1.73A2.16,2.16,0,0,0,151,196.72Z"/><path class="cls-19" d="M140,196.72a1.45,1.45,0,0,0-1.5,1.71,2.13,2.13,0,0,0,2,1.77,1.44,1.44,0,0,0,1.5-1.7A2.14,2.14,0,0,0,140,196.72Z"/><polygon class="cls-19" points="149.57 234.9 124.66 234.9 120.98 213.44 145.89 213.44 149.57 234.9"/><polygon class="cls-19" points="182.77 234.9 157.86 234.9 154.18 213.44 179.08 213.44 182.77 234.9"/><polygon class="cls-19" points="214.77 234.9 189.86 234.9 186.18 213.44 211.08 213.44 214.77 234.9"/><path class="cls-13" d="M138.68,217.78h-2.86a1.23,1.23,0,0,1-1.26,1.48,1.85,1.85,0,0,1-1.77-1.48H130v0l0,0-3.32,3.08,2.66,2.49,1.43-1.28,1.44,8.4h8.73l-1.43-8.37,1.83,1.25,1.8-2.49Z"/><polygon class="cls-13" points="169.06 217.78 167.31 217.78 163.31 217.78 165.63 231.28 168.51 231.28 168.9 221.89 172.51 231.28 175.38 231.28 173.06 217.78 169.06 217.78"/><path class="cls-13" d="M193.46,227.55l.54,3.13h1.4l-.77-4.5A1.14,1.14,0,0,0,193.46,227.55Z"/><path class="cls-13" d="M209.4,227.55l.54,3.13h-1.4l-.77-4.5A1.72,1.72,0,0,1,209.4,227.55Z"/><path class="cls-13" d="M200.75,217.64c-3.91-.58-6.72,2.33-6.1,6l.44,2.59.78,4.5h12.3l-.76-4.42-.43-2.49A7.73,7.73,0,0,0,200.75,217.64Z"/><path class="cls-13" d="M203.91,228.54h-4.67a1.13,1.13,0,0,1-1.09-.91l-.5-2.9a.76.76,0,0,1,.78-.91h4.67a1.15,1.15,0,0,1,1.09.91l.5,2.9A.76.76,0,0,1,203.91,228.54Z"/><path class="cls-20" d="M204,228.85h-4.67a1.54,1.54,0,0,1-1.46-1.22l-.49-2.9a1,1,0,0,1,1-1.22h4.68a1.53,1.53,0,0,1,1.45,1.22l.5,2.9A1,1,0,0,1,204,228.85Zm-5.48-4.73a.51.51,0,0,0-.52.61l.5,2.9a.76.76,0,0,0,.72.61h4.68a.5.5,0,0,0,.51-.61l-.49-2.9a.78.78,0,0,0-.73-.61Z"/><path class="cls-19" d="M203.94,258.87l-7.29-3.77a2.11,2.11,0,0,0-2.54,1.47l-.38,8.2c0,.71.93.88,1.88.34l.49-.28c.75-.44,1.56-.43,1.81,0l2.18,3.77c.25.44,1.06.44,1.81,0l1.29-.74c.75-.44,1.15-1.14.9-1.58l-2.18-3.77c-.25-.44.15-1.14.89-1.57l.49-.29C204.24,260.13,204.57,259.2,203.94,258.87Z"/><path class="cls-21" d="M389.38,298.08c0,3.95-4.45,7.17-9.9,7.17H121.64c-5.44,0-9.89-3.22-9.89-7.17s4.45-7.16,9.89-7.16H379.48C384.93,290.92,389.38,294.14,389.38,298.08Z"/><path class="cls-22" d="M225.75,298.08a7.48,7.48,0,0,1-7.73,7.17H119.46a7.18,7.18,0,1,1,0-14.33H218C222.28,290.92,225.75,294.14,225.75,298.08Z"/><path class="cls-11" d="M186.3,300.92h-9.18a1.42,1.42,0,0,1-1.42-1.41h0a1.43,1.43,0,0,1,1.42-1.42h9.18a1.43,1.43,0,0,1,1.42,1.42h0A1.42,1.42,0,0,1,186.3,300.92Z"/><path class="cls-11" d="M208.86,300.92h-9.18a1.42,1.42,0,0,1-1.42-1.41h0a1.43,1.43,0,0,1,1.42-1.42h9.18a1.42,1.42,0,0,1,1.41,1.42h0A1.41,1.41,0,0,1,208.86,300.92Z"/><path class="cls-11" d="M122.88,299.51a1.42,1.42,0,1,1-1.42-1.42A1.42,1.42,0,0,1,122.88,299.51Z"/><circle class="cls-11" cx="130.63" cy="299.51" r="1.42"/><path class="cls-11" d="M340.05,293.92v.61a4.05,4.05,0,0,1-4.06,4.05H275.43a4.05,4.05,0,0,1-4.05-4.05v-.61Z"/><polygon class="cls-23" points="333.61 267.7 234.88 267.7 243.39 163.06 327.95 163.06 333.61 267.7"/><path class="cls-11" d="M315.88,176.93h-3c0-30.39-10-56.06-21.77-56.06s-21.77,25.67-21.77,56.06h-3c0-33.12,10.88-59.06,24.77-59.06S315.88,143.81,315.88,176.93Z"/><polygon class="cls-16" points="353.43 267.7 254.7 267.7 260.36 163.06 344.92 163.06 353.43 267.7"/><path class="cls-11" d="M328.83,176.93h-3c0-30.39-10-56.06-21.77-56.06s-21.76,25.67-21.76,56.06h-3c0-33.12,10.88-59.06,24.76-59.06S328.83,143.81,328.83,176.93Z"/><path class="cls-17" d="M319.48,194.55h-8.85c-.05,3-2.2,5.39-4.78,5.39s-4.64-2.42-4.59-5.39h-8.75v.12l-.09-.12-12.11,11.2,6.74,9,5.17-4.63-.57,30.47h27l.57-30.38,4.9,4.54,7.07-9Z"/><polygon class="cls-24" points="251.33 264.22 254.6 267.28 258.97 266.33 257.07 270.38 259.32 274.24 254.89 273.68 251.91 277.02 251.07 272.63 246.97 270.83 250.89 268.67 251.33 264.22"/><polygon class="cls-24" points="340.53 270.83 339.98 273.71 342.03 275.79 339.13 276.15 337.77 278.75 336.53 276.1 333.64 275.62 335.78 273.62 335.35 270.72 337.91 272.14 340.53 270.83"/><polygon class="cls-24" points="361.69 268.87 361.13 271.75 363.19 273.83 360.28 274.19 358.93 276.79 357.69 274.14 354.8 273.66 356.94 271.66 356.5 268.76 359.06 270.18 361.69 268.87"/><polygon class="cls-24" points="321.51 272.78 324.77 275.84 329.14 274.89 327.24 278.94 329.5 282.8 325.06 282.24 322.08 285.58 321.24 281.19 317.14 279.39 321.06 277.23 321.51 272.78"/><polygon class="cls-24" points="279.98 274.37 281.72 278.49 286.11 279.39 282.72 282.32 283.22 286.76 279.39 284.45 275.31 286.3 276.33 281.94 273.31 278.64 277.77 278.25 279.98 274.37"/><polygon class="cls-24" points="237.15 250.4 238.25 252.62 240.7 252.97 238.93 254.7 239.35 257.13 237.16 255.99 234.98 257.14 235.39 254.7 233.62 252.98 236.06 252.62 237.15 250.4"/><polygon class="cls-24" points="266.34 268.94 267.44 271.15 269.88 271.51 268.12 273.23 268.54 275.67 266.35 274.52 264.16 275.68 264.58 273.24 262.81 271.52 265.25 271.16 266.34 268.94"/><polygon class="cls-24" points="305.73 269.41 306.83 271.63 309.27 271.98 307.51 273.7 307.93 276.14 305.74 274.99 303.56 276.15 303.97 273.71 302.2 271.99 304.64 271.63 305.73 269.41"/><polygon class="cls-24" points="290.17 260.67 291.26 262.88 293.71 263.23 291.94 264.96 292.36 267.39 290.18 266.25 287.99 267.4 288.4 264.96 286.63 263.24 289.08 262.88 290.17 260.67"/><polygon class="cls-24" points="356.96 239.55 358.06 241.77 360.51 242.12 358.74 243.84 359.16 246.28 356.97 245.13 354.79 246.29 355.2 243.85 353.43 242.13 355.87 241.77 356.96 239.55"/><polygon class="cls-24" points="249.35 251.05 249.18 252.46 250.25 253.4 248.86 253.68 248.3 254.98 247.61 253.74 246.19 253.62 247.15 252.57 246.84 251.19 248.13 251.78 249.35 251.05"/><polygon class="cls-24" points="267.47 279.18 267.31 280.59 268.37 281.52 266.98 281.8 266.42 283.11 265.73 281.87 264.31 281.74 265.28 280.7 264.96 279.31 266.25 279.91 267.47 279.18"/><polygon class="cls-24" points="287.23 270.35 287.07 271.75 288.13 272.69 286.74 272.97 286.18 274.27 285.49 273.04 284.07 272.91 285.04 271.86 284.72 270.48 286.01 271.07 287.23 270.35"/><polygon class="cls-24" points="345.19 256.56 345.02 257.98 346.09 258.91 344.7 259.19 344.14 260.49 343.44 259.26 342.03 259.13 342.99 258.08 342.68 256.7 343.97 257.29 345.19 256.56"/><polygon class="cls-24" points="358.09 258.53 357.93 259.94 359 260.87 357.61 261.15 357.05 262.46 356.35 261.22 354.94 261.09 355.9 260.05 355.58 258.66 356.87 259.26 358.09 258.53"/><polygon class="cls-24" points="352.52 272.77 352.36 274.18 353.43 275.12 352.04 275.4 351.48 276.7 350.78 275.46 349.37 275.34 350.33 274.29 350.02 272.91 351.31 273.5 352.52 272.77"/><polygon class="cls-24" points="341.17 281.14 341.01 282.55 342.08 283.49 340.69 283.77 340.13 285.07 339.43 283.84 338.02 283.71 338.98 282.66 338.66 281.28 339.95 281.87 341.17 281.14"/><polygon class="cls-24" points="354.56 227.36 354.39 228.77 355.46 229.7 354.07 229.98 353.51 231.28 352.81 230.05 351.4 229.92 352.36 228.88 352.05 227.49 353.34 228.08 354.56 227.36"/><polygon class="cls-24" points="298.63 277.15 298.46 278.56 299.53 279.5 298.14 279.78 297.58 281.08 296.88 279.85 295.47 279.72 296.43 278.67 296.12 277.29 297.41 277.88 298.63 277.15"/><polygon class="cls-24" points="226.88 243.37 226.71 244.78 227.78 245.72 226.39 246 225.83 247.3 225.13 246.06 223.72 245.93 224.68 244.89 224.37 243.51 225.66 244.1 226.88 243.37"/><polygon class="cls-24" points="234.75 229.32 234.58 230.73 235.65 231.67 234.26 231.94 233.7 233.25 233 232.01 231.59 231.88 232.55 230.84 232.24 229.46 233.53 230.05 234.75 229.32"/><polygon class="cls-24" points="236.49 264.08 236.94 265.42 238.31 265.81 237.17 266.66 237.22 268.08 236.06 267.25 234.73 267.74 235.16 266.39 234.28 265.27 235.7 265.25 236.49 264.08"/><polygon class="cls-24" points="246.39 264.33 246.84 265.68 248.21 266.07 247.07 266.92 247.12 268.33 245.96 267.51 244.63 268 245.05 266.64 244.18 265.53 245.6 265.51 246.39 264.33"/><path class="cls-25" d="M254.4,194.64h-2.91v-2.91c0-1-.42-1.85-.93-1.85s-.93.83-.93,1.85v2.91h-2.91c-1,0-1.85.42-1.85.93s.83.93,1.85.93h2.91v2.91c0,1,.42,1.86.93,1.86s.93-.84.93-1.86V196.5h2.91c1,0,1.86-.42,1.86-.93S255.42,194.64,254.4,194.64Z"/><path class="cls-25" d="M242.48,203.92h-1.62V202.3c0-.57-.23-1-.52-1s-.51.46-.51,1v1.62h-1.62c-.57,0-1,.23-1,.52s.47.51,1,.51h1.62v1.62c0,.57.23,1,.51,1s.52-.47.52-1V205h1.62c.57,0,1-.23,1-.51S243.05,203.92,242.48,203.92Z"/><path class="cls-25" d="M252.7,217.26h-1.62v-1.62c0-.57-.23-1-.52-1s-.51.46-.51,1v1.62h-1.62c-.57,0-1,.23-1,.52s.47.51,1,.51h1.62v1.62c0,.57.23,1,.51,1s.52-.47.52-1v-1.62h1.62c.57,0,1-.23,1-.51S253.27,217.26,252.7,217.26Z"/><path class="cls-25" d="M235.75,189.7h-1.61v-1.62c0-.57-.24-1-.52-1s-.52.46-.52,1v1.62h-1.62c-.56,0-1,.23-1,.51s.47.52,1,.52h1.62v1.62c0,.57.23,1,.52,1s.52-.46.52-1v-1.62h1.61c.57,0,1-.23,1-.52S236.32,189.7,235.75,189.7Z"/><path class="cls-25" d="M245.65,176.41H244v-1.62c0-.57-.23-1-.52-1s-.52.46-.52,1v1.62h-1.61c-.57,0-1,.23-1,.52s.47.51,1,.51H243v1.62c0,.57.24,1,.52,1s.52-.47.52-1v-1.62h1.62c.56,0,1-.23,1-.51S246.21,176.41,245.65,176.41Z"/><path class="cls-25" d="M361.16,187.17h-2.91v-2.91c0-1-.41-1.86-.92-1.86s-.93.84-.93,1.86v2.91h-2.91c-1,0-1.86.42-1.86.93s.84.93,1.86.93h2.91v2.91c0,1,.42,1.85.93,1.85s.92-.83.92-1.85V189h2.91c1,0,1.86-.42,1.86-.93S362.19,187.17,361.16,187.17Z"/><path class="cls-25" d="M349.48,211.89h-2v-2c0-.7-.29-1.27-.64-1.27s-.63.57-.63,1.27v2h-2c-.7,0-1.27.29-1.27.64s.57.63,1.27.63h2v2c0,.7.28,1.27.63,1.27s.64-.57.64-1.27v-2h2c.7,0,1.27-.29,1.27-.63S350.18,211.89,349.48,211.89Z"/><path class="cls-25" d="M348.33,174.63h-1.62V173c0-.57-.23-1-.51-1s-.52.46-.52,1v1.62h-1.62c-.57,0-1,.23-1,.52s.46.52,1,.52h1.62v1.61c0,.57.23,1,.52,1s.51-.47.51-1v-1.61h1.62c.57,0,1-.24,1-.52S348.9,174.63,348.33,174.63Z"/><path class="cls-25" d="M361.13,168.45h-1.62v-1.62c0-.57-.23-1-.51-1s-.52.46-.52,1v1.62h-1.62c-.57,0-1,.23-1,.51s.46.52,1,.52h1.62v1.62c0,.57.23,1,.52,1s.51-.46.51-1v-1.62h1.62c.57,0,1-.23,1-.52S361.7,168.45,361.13,168.45Z"/><path class="cls-26" d="M50.49,249.27H48.87v-1.62c0-.57-.23-1-.51-1s-.52.46-.52,1v1.62H46.22c-.57,0-1,.23-1,.52s.46.51,1,.51h1.62v1.62c0,.57.23,1,.52,1s.51-.47.51-1V250.3h1.62c.57,0,1-.23,1-.51S51.06,249.27,50.49,249.27Z"/><path class="cls-26" d="M86.44,258H84.83v-1.62c0-.57-.24-1-.52-1s-.52.46-.52,1V258H82.17c-.57,0-1,.23-1,.52s.46.51,1,.51h1.62v1.62c0,.57.23,1,.52,1s.52-.47.52-1v-1.62h1.61c.57,0,1-.23,1-.51S87,258,86.44,258Z"/><path class="cls-26" d="M72.51,297.05H70.9v-1.62c0-.56-.24-1-.52-1s-.52.47-.52,1v1.62H68.24c-.56,0-1,.23-1,.52s.47.52,1,.52h1.62v1.61c0,.57.24,1,.52,1s.52-.47.52-1v-1.61h1.61c.57,0,1-.24,1-.52S73.08,297.05,72.51,297.05Z"/><path class="cls-26" d="M79.41,230.79h-3v-3c0-1.06-.44-1.92-1-1.92s-1,.86-1,1.92v3h-3c-1.06,0-1.92.43-1.92,1s.86,1,1.92,1h3v3c0,1.06.43,1.93,1,1.93s1-.87,1-1.93v-3h3c1.06,0,1.93-.44,1.93-1S80.47,230.79,79.41,230.79Z"/><path class="cls-25" d="M232.58,175.77h-3.64v-3.65c0-1.27-.52-2.32-1.16-2.32s-1.16,1-1.16,2.32v3.65H223c-1.27,0-2.32.52-2.32,1.16s1,1.16,2.32,1.16h3.65v3.64c0,1.28.52,2.33,1.16,2.33s1.16-1.05,1.16-2.33v-3.64h3.64c1.28,0,2.33-.52,2.33-1.16S233.86,175.77,232.58,175.77Z"/><path class="cls-26" d="M82.31,281.86H78.67v-3.64c0-1.28-.52-2.32-1.16-2.32s-1.16,1-1.16,2.32v3.64H72.7c-1.28,0-2.32.53-2.32,1.17s1,1.16,2.32,1.16h3.65v3.64c0,1.28.52,2.33,1.16,2.33s1.16-1.05,1.16-2.33v-3.64h3.64c1.28,0,2.33-.52,2.33-1.16S83.59,281.86,82.31,281.86Z"/><circle class="cls-27" cx="100.38" cy="292.91" r="10.81" transform="translate(-194.84 386.3) rotate(-88.64)"/><path class="cls-28" d="M105.27,283.27a10.81,10.81,0,0,1-10.62,18.81,10.81,10.81,0,1,0,10.62-18.81Z"/><path class="cls-28" d="M107.38,293.05a7.14,7.14,0,1,1-7.14-7.14A7.13,7.13,0,0,1,107.38,293.05Z"/><path class="cls-25" d="M93,287.56a.54.54,0,0,1-.3-.1.5.5,0,0,1-.09-.7,9.28,9.28,0,0,1,7.28-3.57h0a.49.49,0,1,1,0,1,8.3,8.3,0,0,0-6.5,3.2A.51.51,0,0,1,93,287.56Z"/><path class="cls-25" d="M91.19,292.88a.5.5,0,0,1-.5-.5,9.14,9.14,0,0,1,.63-3.35.49.49,0,0,1,.92.36,8.26,8.26,0,0,0-.56,3,.49.49,0,0,1-.49.5Z"/><circle class="cls-27" cx="66.02" cy="260.67" r="10.81"/><path class="cls-28" d="M70.91,251a10.81,10.81,0,0,1-10.62,18.81A10.81,10.81,0,1,0,70.91,251Z"/><path class="cls-28" d="M73,260.81a7.14,7.14,0,1,1-7.14-7.14A7.14,7.14,0,0,1,73,260.81Z"/><path class="cls-25" d="M58.63,255.31a.49.49,0,0,1-.3-.1.5.5,0,0,1-.09-.69,9.27,9.27,0,0,1,7.28-3.58h0a.49.49,0,0,1,.49.49.5.5,0,0,1-.49.5,8.25,8.25,0,0,0-6.5,3.19A.5.5,0,0,1,58.63,255.31Z"/><path class="cls-25" d="M56.82,260.63a.49.49,0,0,1-.49-.49,9.15,9.15,0,0,1,.63-3.36.49.49,0,0,1,.92.36,8.28,8.28,0,0,0-.57,3,.48.48,0,0,1-.49.49Z"/><path class="cls-4" d="M136.24,89a25.73,25.73,0,0,1,4.18-.29,8,8,0,0,1,4.23.8,3.13,3.13,0,0,1,1.72,2.81A3.25,3.25,0,0,1,144,95.36v0a3.59,3.59,0,0,1,2.85,3.52,3.82,3.82,0,0,1-1.49,3c-1,.83-2.78,1.3-5.63,1.3a24.13,24.13,0,0,1-3.5-.22Zm3.2,5.48h1.06c1.7,0,2.62-.7,2.62-1.76s-.83-1.66-2.3-1.66a9,9,0,0,0-1.38.09Zm0,6.35a8.74,8.74,0,0,0,1.26,0c1.46,0,2.76-.56,2.76-2.06s-1.3-2-2.91-2h-1.11Z"/><path class="cls-4" d="M152.32,88.79v14.32h-3.25V88.79Z"/><path class="cls-4" d="M155.12,88.79h3.25v11.6h5.69v2.72h-8.94Z"/><path class="cls-4" d="M166,88.79h3.25v11.6h5.7v2.72H166Z"/><path class="cls-4" d="M219.43,117.7H150.7a1.22,1.22,0,0,1-1.22-1.22h0a1.23,1.23,0,0,1,1.22-1.23h68.73a1.23,1.23,0,0,1,1.22,1.23h0A1.22,1.22,0,0,1,219.43,117.7Z"/><path class="cls-4" d="M219.43,126.13H150.7a1.22,1.22,0,0,1-1.22-1.22h0a1.23,1.23,0,0,1,1.22-1.23h68.73a1.23,1.23,0,0,1,1.22,1.23h0A1.22,1.22,0,0,1,219.43,126.13Z"/><rect class="cls-4" x="149.48" y="132.11" width="71.17" height="2.45" rx="1.22" ry="1.22"/><path class="cls-1" d="M237.26,310.91H2.83A2.83,2.83,0,0,1,0,308.08H0a2.84,2.84,0,0,1,2.83-2.83H237.26a2.85,2.85,0,0,1,2.83,2.83h0A2.84,2.84,0,0,1,237.26,310.91Z"/><path class="cls-1" d="M415,310.91H266.91a2.83,2.83,0,0,1-2.83-2.83h0a2.84,2.84,0,0,1,2.83-2.83H415a2.85,2.85,0,0,1,2.83,2.83h0A2.84,2.84,0,0,1,415,310.91Z"/><path class="cls-1" d="M292.15,323.08H226.5a2.84,2.84,0,0,1-2.83-2.83h0a2.84,2.84,0,0,1,2.83-2.82h65.65a2.83,2.83,0,0,1,2.83,2.82h0A2.83,2.83,0,0,1,292.15,323.08Z"/><path class="cls-1" d="M182.66,323.08H117a2.83,2.83,0,0,1-2.83-2.83h0a2.83,2.83,0,0,1,2.83-2.82h65.65a2.84,2.84,0,0,1,2.83,2.82h0A2.84,2.84,0,0,1,182.66,323.08Z"/></g><path class="cls-27" d="M66.38,265.46a3,3,0,0,1-1.2-.3,2.23,2.23,0,0,1-.93-.75,3.41,3.41,0,0,1-.19-1.6v-1.27a.47.47,0,0,0-.46-.46h-.74a.47.47,0,0,1-.46-.47v-.32a.45.45,0,0,1,.46-.46h.73a.47.47,0,0,0,.47-.46V259c0-.39,0-.78-.06-1.19a.48.48,0,0,0-.07-.2,1.22,1.22,0,0,0-.47-.43.46.46,0,0,1-.15-.64l.13-.2a.47.47,0,0,1,.61-.16,2.42,2.42,0,0,1,.9.72,2.62,2.62,0,0,1,.36,1.54v.9a.45.45,0,0,0,.46.46h.34a.47.47,0,0,1,.46.47v.33a.47.47,0,0,1-.46.46h-.35a.47.47,0,0,0-.46.46v1.94a.43.43,0,0,0,.18.37,1.45,1.45,0,0,0,.8.32,1.93,1.93,0,0,0,1.47-.65,2.15,2.15,0,0,0,.62-1.5,1.19,1.19,0,0,0-.47-1,.45.45,0,0,1,0-.72l.29-.23a.48.48,0,0,1,.63.05,2.61,2.61,0,0,1,.8,1.92,3.34,3.34,0,0,1-1,2.35A3,3,0,0,1,66.38,265.46Z"/><path class="cls-27" d="M100.6,297.17a2.92,2.92,0,0,1-1.2-.29,2.23,2.23,0,0,1-.93-.75,3.59,3.59,0,0,1-.19-1.6v-1.27a.44.44,0,0,0-.45-.46h-.74a.45.45,0,0,1-.46-.46V292a.47.47,0,0,1,.46-.46h.74a.47.47,0,0,0,.46-.46v-.34c0-.39,0-.78-.06-1.19a.36.36,0,0,0-.06-.2,1.22,1.22,0,0,0-.47-.43.45.45,0,0,1-.15-.64l.13-.2a.47.47,0,0,1,.6-.17,2.48,2.48,0,0,1,.91.73,2.61,2.61,0,0,1,.35,1.54v.9a.47.47,0,0,0,.46.46h.34a.46.46,0,0,1,.46.46v.33a.45.45,0,0,1-.46.46H100a.46.46,0,0,0-.46.46v1.93a.47.47,0,0,0,.19.38,1.51,1.51,0,0,0,.79.32,1.93,1.93,0,0,0,1.47-.65,2.11,2.11,0,0,0,.63-1.5,1.19,1.19,0,0,0-.48-1,.46.46,0,0,1,0-.72l.3-.23a.46.46,0,0,1,.62.05,2.66,2.66,0,0,1,.81,1.92,3.36,3.36,0,0,1-1,2.35A3,3,0,0,1,100.6,297.17Z"/></g></g></svg>