<svg xmlns="http://www.w3.org/2000/svg" xmlns:xlink="http://www.w3.org/1999/xlink" viewBox="0 0 237.01 150.85"><defs><style>.cls-1{fill:none;}.cls-2{isolation:isolate;}.cls-3{mix-blend-mode:darken;}.cls-4,.cls-5{fill:#ccc;}.cls-5{fill-rule:evenodd;}.cls-6{clip-path:url(#clip-path);}</style><clipPath id="clip-path"><polygon class="cls-1" points="214.6 102.1 167.75 102.1 167.75 136.3 212.18 136.3 212.18 153.12 145.28 153.12 145.28 81.22 216.62 81.22 214.6 102.1"/></clipPath></defs><title>Asset 7</title><g class="cls-2"><g id="Layer_2" data-name="Layer 2"><g id="Layer_1-2" data-name="Layer 1"><g class="cls-3"><polygon class="cls-4" points="214.27 30.45 214.27 25.6 218.39 28.02 222.54 30.45 218.41 32.87 214.27 35.29 214.27 30.45"/><polygon class="cls-4" points="214.27 20.71 214.27 15.87 218.39 18.29 222.54 20.71 218.41 23.14 214.27 25.56 214.27 20.71"/><polygon class="cls-4" points="219.11 25.52 219.11 20.68 223.16 23.1 227.29 25.52 223.2 27.95 219.11 30.37 219.11 25.52"/><path class="cls-4" d="M132.28,37.8H134c.62,0,1.29.15,1.29.9a.8.8,0,0,1-.47.72.85.85,0,0,1,.62.85c0,.85-.63,1.12-1.39,1.12h-1.73Zm.94,1.41h.72a.34.34,0,0,0,.38-.34.34.34,0,0,0-.38-.35h-.72Zm0,1.43H134c.3,0,.51-.11.51-.4s-.22-.43-.51-.43h-.74Z"/><path class="cls-4" d="M136.28,39.58a.83.83,0,0,1,.41-.7,1.72,1.72,0,0,1,.83-.18c.62,0,1.21.14,1.21.88v1.14a1.54,1.54,0,0,0,.1.67H138a1.09,1.09,0,0,1,0-.25,1.2,1.2,0,0,1-.86.32c-.5,0-.89-.25-.89-.79,0-.85.92-.78,1.51-.9.15,0,.23-.08.23-.24s-.24-.27-.41-.27a.38.38,0,0,0-.43.32Zm1.11,1.35c.4,0,.54-.23.52-.77a2.63,2.63,0,0,1-.53.15c-.19,0-.35.12-.35.33S137.2,40.93,137.39,40.93Z"/><path class="cls-4" d="M139.74,38.78h.83v.36h0a1,1,0,0,1,.82-.44c.87,0,.94.64.94,1v1.68h-.86V40.13c0-.36.05-.72-.42-.72-.32,0-.46.27-.46.55v1.43h-.86Z"/><path class="cls-4" d="M145.87,41.07c0,.43-.08,1.23-1.3,1.23-.61,0-1.18-.14-1.28-.83h.85a.31.31,0,0,0,.15.22.68.68,0,0,0,.31.06c.41,0,.45-.29.45-.61v-.25h0a.83.83,0,0,1-.69.38c-.79,0-1.15-.56-1.15-1.29a1.17,1.17,0,0,1,1.15-1.28.74.74,0,0,1,.69.41h0v-.33h.82Zm-1.32-1.71c-.38,0-.5.33-.5.65s.15.61.5.61.51-.28.51-.61S144.93,39.36,144.55,39.36Z"/><path class="cls-4" d="M146.9,37.8h.85v3.59h-.85Z"/><path class="cls-4" d="M148.76,39.58a.83.83,0,0,1,.41-.7,1.72,1.72,0,0,1,.83-.18c.62,0,1.21.14,1.21.88v1.14a1.42,1.42,0,0,0,.11.67h-.86a1.11,1.11,0,0,1-.05-.25,1.18,1.18,0,0,1-.86.32c-.5,0-.89-.25-.89-.79,0-.85.92-.78,1.52-.9.14,0,.22-.08.22-.24s-.24-.27-.41-.27a.38.38,0,0,0-.43.32Zm1.11,1.35c.41,0,.54-.23.52-.77a2.63,2.63,0,0,1-.53.15c-.19,0-.35.12-.35.33S149.68,40.93,149.87,40.93Z"/><path class="cls-4" d="M154.8,41.39H154v-.31h0a.84.84,0,0,1-.72.38c-.82,0-1.16-.7-1.16-1.44a1.17,1.17,0,0,1,1.1-1.32.87.87,0,0,1,.74.36h0V37.8h.85ZM153,40.05c0,.36.13.76.52.76s.51-.4.51-.73-.14-.72-.51-.72S153,39.72,153,40.05Z"/><path class="cls-4" d="M156.56,40.29a.55.55,0,0,0,.58.59.51.51,0,0,0,.49-.28h.8a1.24,1.24,0,0,1-1.3.86,1.31,1.31,0,0,1-1.42-1.39,1.39,1.39,0,1,1,2.76.22Zm1.06-.48a.53.53,0,0,0-.51-.53.56.56,0,0,0-.55.53Z"/><path class="cls-4" d="M160,40.53a.37.37,0,0,0,.14.29.53.53,0,0,0,.32.09c.16,0,.4-.07.4-.28s-.27-.24-.42-.27c-.54-.14-1.21-.15-1.21-.86s.68-.8,1.19-.8,1.17.17,1.2.85h-.79a.26.26,0,0,0-.11-.23.54.54,0,0,0-.27-.06c-.14,0-.36,0-.36.19s.57.29,1,.38a.72.72,0,0,1,.66.7c0,.7-.66.93-1.25.93s-1.25-.2-1.27-.93Z"/><path class="cls-4" d="M162.58,37.8h.86v1.34h0a.9.9,0,0,1,.79-.44c.87,0,.94.64.94,1v1.68h-.85V40.13c0-.36,0-.72-.43-.72-.32,0-.46.27-.46.55v1.43h-.86Z"/><path class="cls-4" d="M169.23,37.8h1l1.34,3.59h-1l-.23-.65h-1.25l-.22.65h-1Zm.06,2.25h.81l-.39-1.26h0Z"/><path class="cls-4" d="M172.87,40.53a.34.34,0,0,0,.14.29.52.52,0,0,0,.31.09c.17,0,.41-.07.41-.28s-.27-.24-.42-.27c-.54-.14-1.21-.15-1.21-.86s.67-.8,1.19-.8,1.17.17,1.2.85h-.79a.26.26,0,0,0-.11-.23.57.57,0,0,0-.27-.06c-.14,0-.37,0-.37.19s.57.29,1,.38a.74.74,0,0,1,.67.7c0,.7-.67.93-1.25.93s-1.25-.2-1.28-.93Z"/><path class="cls-4" d="M176.1,40.53a.37.37,0,0,0,.14.29.55.55,0,0,0,.32.09c.17,0,.4-.07.4-.28s-.26-.24-.41-.27c-.54-.14-1.22-.15-1.22-.86s.68-.8,1.19-.8,1.17.17,1.2.85h-.78a.26.26,0,0,0-.11-.23.58.58,0,0,0-.28-.06c-.14,0-.36,0-.36.19s.57.29,1,.38a.72.72,0,0,1,.66.7c0,.7-.66.93-1.24.93s-1.25-.2-1.28-.93Z"/><path class="cls-4" d="M179.92,38.7a1.38,1.38,0,0,1,0,2.76,1.38,1.38,0,0,1,0-2.76Zm0,2.11c.4,0,.53-.39.53-.73s-.13-.72-.53-.72-.52.39-.52.72S179.53,40.81,179.92,40.81Z"/><path class="cls-4" d="M183.89,39.73a.4.4,0,0,0-.42-.37c-.47,0-.55.4-.55.77s.15.68.51.68a.46.46,0,0,0,.49-.45h.82a1.21,1.21,0,0,1-1.31,1.1,1.29,1.29,0,0,1-1.36-1.33,1.33,1.33,0,0,1,1.36-1.43,1.18,1.18,0,0,1,1.29,1Z"/><path class="cls-4" d="M186.5,38.45h-.85V37.8h.85Zm-.85.33h.85v2.61h-.85Z"/><path class="cls-4" d="M187.51,39.58a.83.83,0,0,1,.41-.7,1.72,1.72,0,0,1,.83-.18c.62,0,1.21.14,1.21.88v1.14a1.54,1.54,0,0,0,.1.67h-.85a.74.74,0,0,1-.05-.25,1.2,1.2,0,0,1-.86.32c-.5,0-.89-.25-.89-.79,0-.85.92-.78,1.51-.9.15,0,.23-.08.23-.24s-.23-.27-.41-.27a.38.38,0,0,0-.43.32Zm1.11,1.35c.41,0,.54-.23.52-.77a2.63,2.63,0,0,1-.53.15c-.19,0-.35.12-.35.33S188.43,40.93,188.62,40.93Z"/><path class="cls-4" d="M192.54,39.33H192v1.19c0,.2.12.25.3.25h.22v.63l-.46,0c-.73,0-.92-.21-.92-.92V39.33h-.43v-.55h.43V38H192v.79h.52Z"/><path class="cls-4" d="M194.26,38.45h-.86V37.8h.86Zm-.86.33h.86v2.61h-.86Z"/><path class="cls-4" d="M196.55,38.7a1.38,1.38,0,0,1,0,2.76,1.38,1.38,0,0,1,0-2.76Zm0,2.11c.4,0,.52-.39.52-.73s-.12-.72-.52-.72-.52.39-.52.72S196.15,40.81,196.55,40.81Z"/><path class="cls-4" d="M198.82,38.78h.83v.36h0a1,1,0,0,1,.82-.44c.86,0,.93.64.93,1v1.68h-.85V40.13c0-.36,0-.72-.43-.72-.32,0-.46.27-.46.55v1.43h-.85Z"/><path class="cls-4" d="M205.7,38.7a1.38,1.38,0,0,1,0,2.76,1.38,1.38,0,0,1,0-2.76Zm0,2.11c.4,0,.53-.39.53-.73s-.13-.72-.53-.72-.52.39-.52.72S205.31,40.81,205.7,40.81Z"/><path class="cls-4" d="M208.16,39.33h-.42v-.55h.42c0-.75.26-1,1-1l.42,0v.6l-.23,0c-.2,0-.32,0-.32.26v.12h.51v.55H209v2.06h-.85Z"/><path class="cls-4" d="M133,45.21c0,.42.28.56.68.56s.57-.1.57-.37-.51-.37-1-.52-1-.37-1-1,.79-1.09,1.46-1.09,1.43.35,1.44,1.15h-.93c0-.32-.29-.43-.58-.43s-.45.07-.45.31.51.32,1,.47,1,.38,1,1c0,.91-.77,1.2-1.56,1.2s-1.55-.36-1.55-1.28Z"/><path class="cls-4" d="M136.71,43.74a1.38,1.38,0,1,1-1.37,1.38A1.33,1.33,0,0,1,136.71,43.74Zm0,2.1c.4,0,.52-.39.52-.72s-.12-.73-.52-.73-.52.4-.52.73S136.31,45.84,136.71,45.84Z"/><path class="cls-4" d="M138.59,44.37h-.41v-.56h.41c0-.75.26-1,1-1l.41,0v.6h-.23c-.2,0-.32,0-.32.26v.11H140v.56h-.51v2.05h-.85Z"/><path class="cls-4" d="M141.7,44.37h-.53v1.18c0,.2.12.25.31.25h.22v.63l-.47,0c-.72,0-.91-.21-.91-.92V44.37h-.43v-.56h.43V43h.85v.79h.53Z"/><path class="cls-4" d="M145,46.42h-.86l-.41-1.73h0l-.41,1.73h-.86l-.82-2.61h.87L143,45.5h0l.38-1.69h.81l.38,1.68h0l.43-1.68h.87Z"/><path class="cls-4" d="M146,44.61a.77.77,0,0,1,.4-.69,1.72,1.72,0,0,1,.83-.18c.62,0,1.22.13,1.22.87v1.14a1.54,1.54,0,0,0,.1.67h-.86a1,1,0,0,1,0-.25,1.18,1.18,0,0,1-.86.32c-.5,0-.89-.25-.89-.78,0-.85.92-.79,1.52-.91.14,0,.22-.08.22-.24s-.23-.27-.41-.27a.38.38,0,0,0-.42.32Zm1.1,1.36c.41,0,.54-.23.52-.77a2.76,2.76,0,0,1-.52.14c-.2,0-.35.12-.35.33S146.88,46,147.07,46Z"/><path class="cls-4" d="M148.88,43.81h.83v.46h0a.78.78,0,0,1,.78-.51l.2,0v.78a1.2,1.2,0,0,0-.33-.05.6.6,0,0,0-.64.62v1.29h-.85Z"/><path class="cls-4" d="M151.49,45.32a.57.57,0,0,0,.59.6.51.51,0,0,0,.48-.29h.8a1.22,1.22,0,0,1-1.29.86,1.31,1.31,0,0,1-1.43-1.38,1.37,1.37,0,0,1,1.41-1.37,1.35,1.35,0,0,1,1.36,1.58Zm1.06-.47a.52.52,0,0,0-.5-.54.57.57,0,0,0-.56.54Z"/><path class="cls-4" d="M157.26,46.12a1.55,1.55,0,0,1-1,.37A1.12,1.12,0,0,1,155,45.4a1.21,1.21,0,0,1,.81-1,1,1,0,0,1-.31-.68,1,1,0,0,1,1-.91.94.94,0,0,1,1,.93,1,1,0,0,1-.61.89l.37.44a.71.71,0,0,0,.13-.35h.74a1.49,1.49,0,0,1-.4.87l.75.88h-1Zm-1-1.2c-.18.08-.42.25-.42.47a.45.45,0,0,0,.47.41.79.79,0,0,0,.48-.26Zm.6-1.28a.28.28,0,0,0-.31-.28.28.28,0,0,0-.28.27c0,.19.14.31.25.45C156.72,44,156.88,43.85,156.88,43.64Z"/><path class="cls-4" d="M160.13,42.83h.94v3.59h-.94Z"/><path class="cls-4" d="M161.55,43.81h.83v.36h0a1,1,0,0,1,.82-.43c.86,0,.94.63.94,1v1.67h-.86V45.16c0-.36,0-.72-.43-.72s-.46.27-.46.56v1.42h-.85Z"/><path class="cls-4" d="M164.77,44.37h-.41v-.56h.41c0-.75.26-1,1-1l.41,0v.6h-.23c-.2,0-.32,0-.32.26v.11h.51v.56h-.51v2.05h-.85Z"/><path class="cls-4" d="M167.55,43.74a1.38,1.38,0,1,1-1.37,1.38A1.33,1.33,0,0,1,167.55,43.74Zm0,2.1c.4,0,.53-.39.53-.72s-.13-.73-.53-.73-.51.4-.51.73S167.16,45.84,167.55,45.84Z"/><path class="cls-4" d="M169.28,43.81h.82v.46h0a.8.8,0,0,1,.79-.51l.2,0v.78a1.2,1.2,0,0,0-.33-.05.6.6,0,0,0-.64.62v1.29h-.85Z"/><path class="cls-4" d="M171.25,43.81h.83v.36h0a.87.87,0,0,1,.75-.43.75.75,0,0,1,.76.42.93.93,0,0,1,.81-.42c.83,0,.92.63.92,1.12v1.56h-.85V44.89c0-.28-.14-.45-.36-.45-.37,0-.4.28-.4.7v1.28h-.85V44.94c0-.31-.1-.5-.33-.5s-.43.17-.43.71v1.27h-.86Z"/><path class="cls-4" d="M175.74,44.61a.77.77,0,0,1,.4-.69,1.72,1.72,0,0,1,.83-.18c.62,0,1.22.13,1.22.87v1.14a1.54,1.54,0,0,0,.1.67h-.86a1,1,0,0,1-.05-.25,1.18,1.18,0,0,1-.86.32c-.5,0-.89-.25-.89-.78,0-.85.92-.79,1.52-.91.14,0,.22-.08.22-.24s-.23-.27-.41-.27a.4.4,0,0,0-.43.32Zm1.1,1.36c.41,0,.54-.23.52-.77a2.68,2.68,0,0,1-.53.14c-.19,0-.35.12-.35.33S176.65,46,176.84,46Z"/><path class="cls-4" d="M180.19,44.37h-.53v1.18c0,.2.12.25.31.25h.22v.63l-.47,0c-.73,0-.91-.21-.91-.92V44.37h-.43v-.56h.43V43h.85v.79h.53Z"/><path class="cls-4" d="M181.32,43.49h-.85v-.66h.85Zm-.85.32h.85v2.61h-.85Z"/><path class="cls-4" d="M183,43.74a1.38,1.38,0,1,1-1.37,1.38A1.33,1.33,0,0,1,183,43.74Zm0,2.1c.4,0,.52-.39.52-.72s-.12-.73-.52-.73-.52.4-.52.73S182.64,45.84,183,45.84Z"/><path class="cls-4" d="M184.73,43.81h.83v.36h0a1,1,0,0,1,.82-.43c.87,0,.94.63.94,1v1.67h-.86V45.16c0-.36.05-.72-.42-.72s-.46.27-.46.56v1.42h-.86Z"/><path class="cls-4" d="M190,45.21c0,.42.28.56.68.56s.57-.1.57-.37-.51-.37-1-.52-1-.37-1-1,.79-1.09,1.46-1.09,1.43.35,1.44,1.15h-.94c0-.32-.29-.43-.57-.43s-.46.07-.46.31.52.32,1,.47,1,.38,1,1c0,.91-.77,1.2-1.56,1.2s-1.55-.36-1.56-1.28Z"/><path class="cls-4" d="M193.16,45.32a.56.56,0,0,0,.58.6.51.51,0,0,0,.49-.29h.8a1.24,1.24,0,0,1-1.3.86,1.3,1.3,0,0,1-1.42-1.38,1.39,1.39,0,1,1,2.76.21Zm1.06-.47a.53.53,0,0,0-.51-.54.57.57,0,0,0-.55.54Z"/><path class="cls-4" d="M195.4,43.81h.83v.46h0a.78.78,0,0,1,.78-.51l.2,0v.78a1.19,1.19,0,0,0-.32-.05.6.6,0,0,0-.65.62v1.29h-.85Z"/><path class="cls-4" d="M198.93,46.42h-1l-.86-2.61H198l.47,1.72h0l.48-1.72h.87Z"/><path class="cls-4" d="M200.83,43.49H200v-.66h.86Zm-.86.32h.86v2.61H200Z"/><path class="cls-4" d="M203,44.76a.41.41,0,0,0-.42-.37c-.48,0-.56.41-.56.77s.15.68.51.68a.46.46,0,0,0,.49-.45h.83a1.22,1.22,0,0,1-1.31,1.1,1.29,1.29,0,0,1-1.37-1.33,1.32,1.32,0,0,1,1.37-1.42,1.16,1.16,0,0,1,1.28,1Z"/><path class="cls-4" d="M204.87,45.32a.56.56,0,0,0,.59.6.51.51,0,0,0,.48-.29h.8a1.22,1.22,0,0,1-1.29.86A1.31,1.31,0,0,1,204,45.11a1.37,1.37,0,0,1,1.41-1.37,1.34,1.34,0,0,1,1.35,1.58Zm1.06-.47a.52.52,0,0,0-.5-.54.57.57,0,0,0-.56.54Z"/><path class="cls-4" d="M207.74,45.56a.37.37,0,0,0,.14.29.57.57,0,0,0,.32.09c.17,0,.4-.07.4-.28s-.26-.24-.41-.27c-.54-.14-1.21-.15-1.21-.85s.67-.8,1.19-.8,1.17.16,1.2.84h-.79a.26.26,0,0,0-.11-.23.57.57,0,0,0-.27-.06c-.14,0-.37,0-.37.2s.57.29,1,.37a.75.75,0,0,1,.67.7c0,.7-.67.93-1.25.93s-1.25-.2-1.28-.93Z"/><path class="cls-4" d="M132.21,16.45H140c3.57,0,7.22.85,7.22,5.07a3.69,3.69,0,0,1-2.42,3.69v.15a4.43,4.43,0,0,1,3.27,4.35c0,3.76-3.52,5-6.75,5h-9.13Zm6.83,7c1,0,2.08-.1,2.08-1.36s-1.25-1.26-2.23-1.26h-.46v2.62Zm-.61,6.9h.76c1.1,0,2.69,0,2.69-1.53s-1.71-1.51-2.79-1.51h-.66Z"/><path class="cls-4" d="M155.71,34.76h-7.1L155,16.45h7.41L169,34.76h-7.1l-.62-2.29h-5.06Zm4.43-6.63-.79-3.23c-.19-.78-.31-1.58-.43-2.36h-.25l-1.22,5.59Z"/><path class="cls-4" d="M171.53,28.2l.34.27a7.07,7.07,0,0,0,4.18,1.67c.66,0,1.71-.27,1.71-1.09s-.88-.9-1.49-1l-1.34-.24c-2.62-.46-4.83-2-4.83-4.86,0-4.34,4-6.77,8-6.77a11.08,11.08,0,0,1,5.85,1.6l-1.81,4.69a7,7,0,0,0-3.9-1.39c-.58,0-1.44.22-1.44,1s.83.78,1.35.9l1.52.34c2.83.63,4.89,2.14,4.89,5.25,0,4.37-4,6.53-8,6.53a16.64,16.64,0,0,1-7.1-1.68Z"/><rect class="cls-4" x="186.7" y="16.45" width="6.71" height="18.31"/><path class="cls-4" d="M197.62,28.2l.34.27a7.07,7.07,0,0,0,4.19,1.67c.66,0,1.71-.27,1.71-1.09s-.88-.9-1.49-1L201,27.79c-2.62-.46-4.82-2-4.82-4.86,0-4.34,4-6.77,8-6.77a11.06,11.06,0,0,1,5.85,1.6l-1.81,4.69a7,7,0,0,0-3.89-1.39c-.59,0-1.45.22-1.45,1s.84.78,1.35.9l1.52.34c2.84.63,4.89,2.14,4.89,5.25,0,4.37-4,6.53-8,6.53a16.68,16.68,0,0,1-7.1-1.68Z"/><path class="cls-4" d="M0,0V59.53H237V0ZM46.76,20.74l4.93-8.46,2,3.47L56.56,11l4.93-8.41,4.93,8.33,3,5,2.14-3.66,4.93,8.42,4.93,8.43H61.65l4.93-8.39.85-1.46H55.79l.83,1.42,4.94,8.43H41.83ZM31.6,49.65H27v-9.6h-.09l-2.62,9.6H19.05l-2.59-9.6h-.11v9.6H12.18v-15h7.51l2.15,8h.09l2.12-8H31.6Zm13-9.34v3.34H38.56v2.42h6.31l.43,3.58H34.07v-15H45.3l-.43,3.45H38.56v2.18Zm21.94,9.34H62v-9.6H61.9l-2.62,9.6H54l-2.59-9.6h-.11v9.6H47.15v-15h7.51l2.16,8h.08l2.12-8h7.55Zm10.8,0H69v-15h8.2a3.8,3.8,0,0,1,3.93,3.67,3.27,3.27,0,0,1-2.51,3.49v.09a3.42,3.42,0,0,1,2.86,3.73A4.08,4.08,0,0,1,77.37,49.65ZM93.9,40.31v3.34H87.84v2.42h6.3l.44,3.58H83.34v-15H94.58l-.44,3.45h-6.3v2.18Zm15.9,9.14a7.06,7.06,0,0,1-2.62.42c-2,0-3.08-.72-3.08-2.82,0-1.39-.08-3.2-1.94-3.2H100.9v5.8H96.42v-15h8.4A3.92,3.92,0,0,1,109,38.39a3.68,3.68,0,0,1-2.69,3.54V42c1.68.51,2.41,2,2.41,3.84,0,.9,0,2.4,1.11,2.69Zm123.1,6H120.76V4.11H232.9Z"/><path class="cls-4" d="M76.85,39.33V39a1.08,1.08,0,0,0-1.09-1.09H73.25v2.55h2.51A1.08,1.08,0,0,0,76.85,39.33Z"/><path class="cls-4" d="M103.21,38.11H100.9v2.4h2.31a1.08,1.08,0,0,0,1.09-1.09V39.2A1.08,1.08,0,0,0,103.21,38.11Z"/><path class="cls-4" d="M76,43.61H73.25v2.57H76a1.08,1.08,0,0,0,1.09-1.09V44.7A1.08,1.08,0,0,0,76,43.61Z"/></g><g class="cls-3"><path class="cls-4" d="M1.6,118.42l1.1-.09a2.09,2.09,0,0,0,.36,1,2,2,0,0,0,.88.62,3.47,3.47,0,0,0,1.33.24A3.51,3.51,0,0,0,6.44,120a1.75,1.75,0,0,0,.75-.49,1.11,1.11,0,0,0,.24-.69,1,1,0,0,0-.24-.65,1.84,1.84,0,0,0-.79-.48c-.23-.08-.75-.21-1.54-.39a7.57,7.57,0,0,1-1.68-.5,2.27,2.27,0,0,1-.94-.74,1.74,1.74,0,0,1-.31-1,2,2,0,0,1,.37-1.14,2.29,2.29,0,0,1,1.1-.79,4.38,4.38,0,0,1,1.6-.29,4.77,4.77,0,0,1,1.72.29,2.51,2.51,0,0,1,1.14.85,2.33,2.33,0,0,1,.43,1.26l-1.12.07a1.68,1.68,0,0,0-.6-1.14,2.51,2.51,0,0,0-1.52-.37,2.52,2.52,0,0,0-1.51.34,1,1,0,0,0-.49.85.89.89,0,0,0,.34.71,4.72,4.72,0,0,0,1.74.57,12.49,12.49,0,0,1,1.92.51,2.63,2.63,0,0,1,1.15.81,1.89,1.89,0,0,1,.36,1.14,2,2,0,0,1-.4,1.2,2.54,2.54,0,0,1-1.15.88,4.32,4.32,0,0,1-1.69.31,5.45,5.45,0,0,1-2-.31,2.77,2.77,0,0,1-1.26-1A2.49,2.49,0,0,1,1.6,118.42Z"/><path class="cls-4" d="M9.85,117.09A4.1,4.1,0,0,1,11,114a4.22,4.22,0,0,1,3-1.13,4.56,4.56,0,0,1,2.2.53,3.63,3.63,0,0,1,1.49,1.49,4.29,4.29,0,0,1,.51,2.14,4.44,4.44,0,0,1-.53,2.17,3.5,3.5,0,0,1-1.54,1.46,4.7,4.7,0,0,1-2.14.49,4.4,4.4,0,0,1-2.22-.55,3.64,3.64,0,0,1-1.48-1.48A4.12,4.12,0,0,1,9.85,117.09Zm1.2,0a3,3,0,0,0,.86,2.28,2.91,2.91,0,0,0,2.13.83,2.92,2.92,0,0,0,2.16-.83,3.17,3.17,0,0,0,.86-2.39,3.91,3.91,0,0,0-.36-1.7,2.68,2.68,0,0,0-1.07-1.14,3.29,3.29,0,0,0-3.69.37A3.25,3.25,0,0,0,11.05,117.1Z"/><path class="cls-4" d="M19.82,121v-8h5.95v.94H21v2.48h4.13v.94H21V121Z"/><path class="cls-4" d="M29.57,121v-7h-2.9V113h7v.94h-2.9v7Z"/><path class="cls-4" d="M36.37,113h7.87v1.71H39.32V116h4.55v1.62H39.32v1.58h5.06V121h-8Z"/><path class="cls-4" d="M45.39,113h3.25l1.69,2.45L52,113h3.2l-2.95,3.86L55.44,121h-3.3l-1.87-2.56L48.39,121h-3.3l3.29-4.16Z"/><path class="cls-4" d="M56.44,113h4.88a3.74,3.74,0,0,1,2.4.63,2.23,2.23,0,0,1,.79,1.81,2.27,2.27,0,0,1-.86,1.9A4.27,4.27,0,0,1,61,118H59.4V121h-3Zm3,3.4h.72a2,2,0,0,0,1.18-.25.77.77,0,0,0,.35-.63.83.83,0,0,0-.3-.64,1.76,1.76,0,0,0-1.12-.26H59.4Z"/><path class="cls-4" d="M65.78,117a3.8,3.8,0,0,1,1.3-3,5.48,5.48,0,0,1,3.61-1.09,5.6,5.6,0,0,1,3.66,1.07,3.72,3.72,0,0,1,1.28,3,4.29,4.29,0,0,1-.56,2.29,3.81,3.81,0,0,1-1.63,1.4,6.18,6.18,0,0,1-2.63.49,7.33,7.33,0,0,1-2.67-.42,4,4,0,0,1-1.71-1.36A4.06,4.06,0,0,1,65.78,117Zm2.93,0a2.34,2.34,0,0,0,.54,1.73,2.31,2.31,0,0,0,2.92,0,2.6,2.6,0,0,0,.52-1.86,2.21,2.21,0,0,0-.54-1.65,2.05,2.05,0,0,0-1.46-.52,2,2,0,0,0-1.44.53A2.38,2.38,0,0,0,68.71,117Z"/><path class="cls-4" d="M1.74,103.39h4a15.27,15.27,0,0,1,1.76.07,3.31,3.31,0,0,1,1,.26,2.12,2.12,0,0,1,.75.51,1,1,0,0,1,.31.73,1.09,1.09,0,0,1-.37.81,2.42,2.42,0,0,1-1,.54,3.18,3.18,0,0,1,1.4.56,1.21,1.21,0,0,1,.49.94,1.32,1.32,0,0,1-.32.84,2,2,0,0,1-.86.64,3.9,3.9,0,0,1-1.35.3c-.33,0-1.13,0-2.41,0H1.74Zm2,1v1.43H5.06c.78,0,1.27,0,1.46,0a1.73,1.73,0,0,0,.81-.23.54.54,0,0,0,.3-.48.56.56,0,0,0-.26-.46,1.42,1.42,0,0,0-.75-.22c-.21,0-.78,0-1.72,0Zm0,2.47v1.67H5.6a12.51,12.51,0,0,0,1.37,0,1.61,1.61,0,0,0,.73-.24.62.62,0,0,0,.29-.53.64.64,0,0,0-.22-.48,1.42,1.42,0,0,0-.63-.28,10.37,10.37,0,0,0-1.78-.1Z"/><path class="cls-4" d="M20.77,109.63H18.6l-.87-1.43h-4l-.84,1.43H10.75l3.86-6.24h2.11Zm-3.69-2.48-1.4-2.31-1.34,2.31Z"/><path class="cls-4" d="M21.28,107.63l1.95-.12a1.38,1.38,0,0,0,.71.89,3.34,3.34,0,0,0,1.46.27,3.32,3.32,0,0,0,1.47-.25c.33-.16.49-.37.49-.59a.44.44,0,0,0-.2-.36,1.94,1.94,0,0,0-.72-.28c-.23,0-.77-.14-1.6-.27a7,7,0,0,1-2.26-.63,1.46,1.46,0,0,1-.92-1.26,1.27,1.27,0,0,1,.43-.91,2.83,2.83,0,0,1,1.24-.62,7,7,0,0,1,2-.23,6.08,6.08,0,0,1,2.81.52,1.67,1.67,0,0,1,1,1.39l-2,0a1,1,0,0,0-.55-.69,3,3,0,0,0-1.27-.21,3.19,3.19,0,0,0-1.37.23c-.2.09-.32.22-.32.39s.1.27.29.38a7.43,7.43,0,0,0,1.85.42,15.49,15.49,0,0,1,2.16.45,2.85,2.85,0,0,1,1.09.63,1.35,1.35,0,0,1,.39,1,1.4,1.4,0,0,1-.47,1,2.87,2.87,0,0,1-1.35.69,8.2,8.2,0,0,1-2.16.23,6.22,6.22,0,0,1-2.89-.54A2.17,2.17,0,0,1,21.28,107.63Z"/><path class="cls-4" d="M31,109.63v-6.24h2v6.24Z"/><path class="cls-4" d="M34.4,107.63l1.94-.12a1.46,1.46,0,0,0,.74.89,3.16,3.16,0,0,0,1.44.27,3.37,3.37,0,0,0,1.48-.25c.33-.16.49-.37.49-.59a.42.42,0,0,0-.21-.36,1.81,1.81,0,0,0-.71-.28L38,106.92a7.15,7.15,0,0,1-2.26-.63,1.47,1.47,0,0,1-.91-1.26,1.27,1.27,0,0,1,.43-.91,2.73,2.73,0,0,1,1.23-.62,7.08,7.08,0,0,1,2-.23,6.08,6.08,0,0,1,2.81.52,1.66,1.66,0,0,1,1,1.39l-2,0a1,1,0,0,0-.55-.69,2.94,2.94,0,0,0-1.27-.21,3.22,3.22,0,0,0-1.37.23.42.42,0,0,0-.31.39c0,.14.09.27.3.38a7.19,7.19,0,0,0,1.82.42,15.07,15.07,0,0,1,2.17.45,2.9,2.9,0,0,1,1.1.63,1.39,1.39,0,0,1-.08,2,3,3,0,0,1-1.35.69,8.3,8.3,0,0,1-2.16.23,6.29,6.29,0,0,1-2.9-.54A2.2,2.2,0,0,1,34.4,107.63Z"/><path class="cls-5" d="M102.11,121.26c-1.89-13.79-32.32-23.56-38.34-25.14.44.4,4.79,3,8.35,5.55-18.45-2.06-23.53-.82-25.51-.72C61.34,102,85.7,103.84,102.11,121.26Zm.37-1.27a8.91,8.91,0,0,1-.29,4.62c0-1.61-2.46-4.49-5-6.6,1.7,2.56,5.2,6.66.85,15.31s-27.77,15.89-41.87,8.77c2.61,5.58,12.06,6.27,14.66,6.29C95.13,148.51,108.73,132.76,102.48,120Z"/><path class="cls-4" d="M48.2,144.92c-6,0-5.93-2.72-5.93-3.09A1.62,1.62,0,0,1,44,140.32c2-.07,7.92,1.85,18.49-3-9.66,2.57-12.26,1.53-12.75-.6-.85-4.73,3.83-11.14,5.36-13.57a71.74,71.74,0,0,0-12.28,9.18c-9.27,9.44-5.07,13.65-2.63,14.36,11,3.19,29.85-8.76,35-12C73.83,135.42,58.27,144.61,48.2,144.92Z"/><path class="cls-4" d="M85.07,127.44a74.74,74.74,0,0,1-6.87,5.05c-.63.41-.91-1.12.93-2.16,4.64-2.64,9.14-7.93,9.83-8.64A50.93,50.93,0,0,0,96,112.25c.65-1,3.41-5.5,3.59-10.12.26-6.87-7.26-8.29-8.2-8.33,8.61-.42,12.39,5.15,12.41,5.72a7.42,7.42,0,0,0,1.61-4.18c1.54,14-17.08,29.45-20.35,32.1"/><path class="cls-4" d="M45.51,102.7c4.48-3,19.84-11.08,20.87-11.61-1.78,0-6.83,0-7.74,0,4-1.19,15.62-5.11,30.12-5.11,6,0,18.84,1.87,15.38,10.51-.85-.87-4.07-6.06-16.19-4.64C82,92.08,73.05,91,45.51,102.7Z"/><path class="cls-5" d="M88,125c-1.6,1.29-7.43,7.36-21.17,13.8-.88.42-13.89,6.87-20.67,5.74-2-.33-3.34-1.23-3.34-2.48,0-.73.38-1.45,1.25-1.3,8.9,1.49,17.78-2.67,19.27-3.3a80.76,80.76,0,0,0,20.28-12.76,93.39,93.39,0,0,0,9.61-9.46c-1.66,2.47-5.09,7.18-16.39,16.38,1.12-.62,3.8-2.22,4.73-2.88-.7.71-2.21,2-2.36,2.23C81.85,129.75,85.9,126.44,88,125Z"/></g><g class="cls-3"><path class="cls-4" d="M187,119.68c0-.14-.16-.19-.31-.19h-3.58c-.17,0-.31.17-.38.4L180,129.11c-.05.17-.11.28-.21.28s-.09-.11-.1-.28l-.48-4.2c-.08-.69-.42-.9-1.07-.9H176a1.36,1.36,0,0,0-1.4.9l-1.94,4.2c-.08.17-.14.28-.23.28s-.08,0-.08-.16v-.12l.59-9.22v0c0-.2-.09-.35-.25-.35h-3.45c-.18,0-.39.05-.39.27l-.54,13.43v.13c0,1.36,1,1.64,1.9,1.64h1.2a2.32,2.32,0,0,0,2.38-1.59l2.46-5.26c.08-.16.13-.18.23-.18s.1,0,.12.18l.63,5.26c.14,1.18.71,1.59,1.62,1.59h1.52a2.18,2.18,0,0,0,2.37-1.77l4.21-13.43s0-.06,0-.08"/><path class="cls-4" d="M220.71,131.53h-3.37c-.6,0-.85-.17-.85-.65a3,3,0,0,1,0-.39l1.85-10.59v-.08a.31.31,0,0,0-.33-.33h-3.39a.57.57,0,0,0-.53.41l-1.85,10.59a7.22,7.22,0,0,0-.1,1.07c0,2.83,2.31,3.6,4.66,3.6a20.94,20.94,0,0,0,3.3-.26.49.49,0,0,0,.47-.42l.45-2.54v-.06a.33.33,0,0,0-.35-.35"/><path class="cls-4" d="M209.27,128.76a5.48,5.48,0,0,0,3.42-5.42c0-2.86-2.5-4.06-5.82-4.06a32.46,32.46,0,0,0-4.37.27c-.92.15-1.27.37-1.44,1.38l-2.39,13.62v.06a.33.33,0,0,0,.35.35h3.38a.53.53,0,0,0,.5-.41l.89-5.12c.47,0,.9,0,1.36,0l1.75,5.08c.06.21.1.41.33.41h3.67a.38.38,0,0,0,.41-.4.36.36,0,0,0,0-.14Zm-3.39-2.54h-.79c-.25,0-.5,0-.74,0l.59-3.32c.36,0,1.06,0,1.63,0,1.3,0,1.85.34,1.85,1.1,0,1.66-.9,2.28-2.54,2.28"/><path class="cls-4" d="M230.22,119.28a28.86,28.86,0,0,0-4.83.36.86.86,0,0,0-.82.81L222.18,134a1.23,1.23,0,0,0,0,.26c0,.35.19.5.54.56a28.93,28.93,0,0,0,4.71.36c4.54,0,7.14-2,8-6.8l.4-2.29a8.9,8.9,0,0,0,.14-1.58c0-3.4-2.21-5.21-5.7-5.21m1.29,6.79-.39,2.29c-.44,2.52-1.41,3.19-3.07,3.19-.27,0-1.05,0-1.19,0l1.52-8.61h1.19c1.33,0,2.06.37,2.06,1.86a8.46,8.46,0,0,1-.12,1.3"/><path class="cls-4" d="M192.16,136.64a8.62,8.62,0,1,1,8.62-8.61,8.62,8.62,0,0,1-8.62,8.61m0-16.88a8.27,8.27,0,1,0,8.28,8.27,8.27,8.27,0,0,0-8.28-8.27"/><path class="cls-4" d="M192.3,135.43a9.75,9.75,0,0,1-1.62-.14,8.6,8.6,0,0,1-7.24-9.75,8.48,8.48,0,0,1,8.51-6.83,9,9,0,0,1,1.63.14,8.59,8.59,0,0,1,7.23,9.75,8.47,8.47,0,0,1-8.51,6.83M192,119.05a8.13,8.13,0,0,0-8.17,6.55,8.27,8.27,0,0,0,7,9.35,9,9,0,0,0,1.56.14,8.13,8.13,0,0,0,8.17-6.55,8.23,8.23,0,0,0-7-9.35,9,9,0,0,0-1.56-.14"/><path class="cls-4" d="M192.94,134.88c-.22,0-.44,0-.68,0a8.35,8.35,0,1,1,.53-16.68c.22,0,.44,0,.67,0a8.35,8.35,0,1,1-.52,16.68m-.15-16.36a8.47,8.47,0,1,0,.65,0l-.65,0"/><path class="cls-4" d="M192.4,135.42a8.62,8.62,0,1,1,8.61-8.63,8.64,8.64,0,0,1-8.61,8.63m0-16.89a8.27,8.27,0,1,0,8.27,8.26,8.28,8.28,0,0,0-8.27-8.26"/><path class="cls-4" d="M192.2,135.16a8.09,8.09,0,1,1,8.09-8.1,8.1,8.1,0,0,1-8.09,8.1m0-15.84a7.75,7.75,0,1,0,7.75,7.74,7.75,7.75,0,0,0-7.75-7.74"/><path class="cls-4" d="M193.07,135.92a8.62,8.62,0,1,1,8.61-8.62,8.63,8.63,0,0,1-8.61,8.62m0-16.9a8.28,8.28,0,1,0,8.27,8.28,8.29,8.29,0,0,0-8.27-8.28"/><path class="cls-4" d="M192,134.83a7.08,7.08,0,0,1-6.86-5.24,7,7,0,0,1,.68-5.4A7.12,7.12,0,1,1,192,134.83m0-13.89a6.77,6.77,0,1,0,3.35.89,6.79,6.79,0,0,0-3.35-.89"/><path class="cls-4" d="M192.76,134.06a7.54,7.54,0,0,1-4.79-1.75,7.45,7.45,0,0,1-2.67-4.83,6.61,6.61,0,0,1,1.48-5.12A6.7,6.7,0,0,1,192,120a7.52,7.52,0,0,1,4.79,1.75,7.12,7.12,0,0,1,1.2,10,6.76,6.76,0,0,1-5.22,2.39M192,120.3a6.42,6.42,0,0,0-5,2.28,6.29,6.29,0,0,0-1.4,4.85,7.24,7.24,0,0,0,7.12,6.29,6.4,6.4,0,0,0,5-2.27,6.77,6.77,0,0,0-1.14-9.47A7.23,7.23,0,0,0,192,120.3"/><path class="cls-4" d="M193.48,134a7.53,7.53,0,0,1-4.2-1.29,7.44,7.44,0,0,1-3.15-4.54,6.64,6.64,0,0,1,.94-5.24,6.79,6.79,0,0,1,5.7-3A7.56,7.56,0,0,1,197,121.2a7.13,7.13,0,0,1,2.21,9.79,6.81,6.81,0,0,1-5.69,3m-.71-13.69a6.46,6.46,0,0,0-5.41,2.81,6.37,6.37,0,0,0-.9,5,7.25,7.25,0,0,0,7,5.56,6.47,6.47,0,0,0,5.4-2.8,6.77,6.77,0,0,0-2.11-9.31,7.16,7.16,0,0,0-4-1.23"/><path class="cls-4" d="M192.68,134a7.11,7.11,0,1,1,6.86-9,7,7,0,0,1-.69,5.4,7.11,7.11,0,0,1-6.17,3.58m0-13.88a6.76,6.76,0,0,0-6.53,8.55,6.69,6.69,0,0,0,3.17,4.09,6.76,6.76,0,0,0,9.89-7.65,6.81,6.81,0,0,0-6.53-5"/><path class="cls-4" d="M192.42,133.73a6.61,6.61,0,0,1-3.31-.88,6.67,6.67,0,1,1,3.31.88m0-13a6.36,6.36,0,0,0-5.51,3.2,6.35,6.35,0,0,0,5.5,9.49,6.35,6.35,0,0,0,3.15-11.86,6.41,6.41,0,0,0-3.14-.83"/><path class="cls-4" d="M192.94,134.68a7.12,7.12,0,1,1,6.19-3.59,7.16,7.16,0,0,1-6.19,3.59m0-13.89a6.77,6.77,0,1,0,3.35.89,6.81,6.81,0,0,0-3.35-.89"/><path class="cls-4" d="M192.1,133.55a5.89,5.89,0,1,1,5.14-3,5.87,5.87,0,0,1-5.14,3m0-11.47a5.57,5.57,0,1,0,4.83,8.32,5.56,5.56,0,0,0-4.83-8.32"/><path class="cls-4" d="M192.73,132.93a6.26,6.26,0,0,1-4-1.46,6.15,6.15,0,0,1-2.21-4,5.54,5.54,0,0,1,1.22-4.26,5.61,5.61,0,0,1,4.33-2,6.23,6.23,0,0,1,4,1.45,5.91,5.91,0,0,1,1,8.27,5.62,5.62,0,0,1-4.34,2m-.64-11.38a5.24,5.24,0,0,0-4.06,1.87,5.16,5.16,0,0,0-1.15,4A5.78,5.78,0,0,0,189,131.2a5.86,5.86,0,0,0,3.76,1.38,5.28,5.28,0,0,0,4.07-1.86,5.57,5.57,0,0,0-1-7.79,5.89,5.89,0,0,0-3.76-1.38"/><path class="cls-4" d="M193.33,132.83a6.34,6.34,0,0,1-3.49-1.07,6.25,6.25,0,0,1-2.66-3.93,5.54,5.54,0,0,1,5.56-6.66,6.2,6.2,0,0,1,3.47,1.07,5.91,5.91,0,0,1,1.84,8.13,5.65,5.65,0,0,1-4.72,2.46m-.59-11.32a5.28,5.28,0,0,0-4.44,2.32,5.16,5.16,0,0,0-.77,3.93,5.76,5.76,0,0,0,2.5,3.71,5.93,5.93,0,0,0,3.3,1,5.3,5.3,0,0,0,4.44-2.31,5.57,5.57,0,0,0-1.75-7.64,5.8,5.8,0,0,0-3.28-1"/><path class="cls-4" d="M192.66,132.91a5.91,5.91,0,1,1,0-11.82,6,6,0,0,1,2.93.77,5.92,5.92,0,0,1-2.94,11m0-11.48a5.58,5.58,0,1,0,2.75.74,5.56,5.56,0,0,0-2.75-.74"/><path class="cls-4" d="M192.45,132.64a5.55,5.55,0,0,1-2.75-.73,5.56,5.56,0,0,1-2.07-7.57,5.57,5.57,0,0,1,4.83-2.81,5.68,5.68,0,0,1,2.75.73,5.55,5.55,0,0,1,2.6,3.37,5.48,5.48,0,0,1-.53,4.21,5.57,5.57,0,0,1-4.83,2.8m0-10.76a5.21,5.21,0,0,0-5,6.58,5.15,5.15,0,0,0,2.44,3.15,5.09,5.09,0,0,0,2.58.69,5.22,5.22,0,0,0,4.52-2.62,5.21,5.21,0,0,0-1.93-7.12,5.32,5.32,0,0,0-2.58-.68"/><path class="cls-4" d="M192.89,133.43a5.92,5.92,0,0,1-2.93-.78,5.91,5.91,0,0,1-2.2-8.06,5.91,5.91,0,1,1,5.13,8.84m0-11.47a5.56,5.56,0,0,0-2.77,10.39,5.66,5.66,0,0,0,2.77.74,5.57,5.57,0,0,0,2.76-10.41,5.65,5.65,0,0,0-2.76-.72"/><path class="cls-4" d="M180.73,117.42a.3.3,0,0,0,.32.32h3.26a.51.51,0,0,0,.48-.4l2.46-14v0a.31.31,0,0,0-.33-.32h-3.27a.45.45,0,0,0-.45.37l-2.47,14Z"/><path class="cls-4" d="M186.67,111.4a9,9,0,0,0-.14,1.57,4.71,4.71,0,0,0,5,5,23.35,23.35,0,0,0,4.69-.48c.34-.06.45-.15.5-.46l1.18-6.66v0a.33.33,0,0,0-.34-.34H194.4a.45.45,0,0,0-.43.39l-.72,4.08a9.72,9.72,0,0,1-1.11.07c-.74,0-1.49-.26-1.49-1.8a8,8,0,0,1,.12-1.25l.38-2.11c.43-2.39,1.27-3,3.25-3,1.48,0,3.07.14,3.82.18h.06c.2,0,.28-.08.32-.32l.46-2.51s0-.08,0-.1c0-.17-.14-.21-.34-.27a15.37,15.37,0,0,0-4.25-.54c-2.93,0-6.39.76-7.44,6.54Z"/><path class="cls-4" d="M197.69,117.42a.31.31,0,0,0,.32.32h3.26a.51.51,0,0,0,.48-.4l2.47-14v0a.31.31,0,0,0-.34-.32h-3.26a.46.46,0,0,0-.46.37l-2.47,14Z"/><path class="cls-4" d="M205,106.27h3L206,117.34v.08a.3.3,0,0,0,.32.32h3.24a.51.51,0,0,0,.48-.4L212,106.27h3a.49.49,0,0,0,.48-.38l.45-2.54v-.06a.33.33,0,0,0-.35-.32h-10a.47.47,0,0,0-.45.38l-.46,2.54V106a.31.31,0,0,0,.34.32"/><path class="cls-4" d="M168.92,117.59a28.11,28.11,0,0,0,4.49.33c4.33,0,6.82-1.93,7.62-6.48l.37-2.19a7.42,7.42,0,0,0,.15-1.51c0-3.24-2.11-5-5.45-5a30.55,30.55,0,0,0-4.62.33.84.84,0,0,0-.77.78l-2.29,12.93a1,1,0,0,0,0,.24c0,.33.18.47.52.54m5.43-11.34,1.13,0c1.27,0,2,.35,2,1.79a7.66,7.66,0,0,1-.12,1.23l-.38,2.19c-.41,2.4-1.33,3-2.92,3-.26,0-1,0-1.13,0Z"/><path class="cls-4" d="M226,117.34l1.77-10a6.94,6.94,0,0,0,.11-1.07c0-2.69-2.18-3.46-4.4-3.46h-1.54c-3.12,0-5.21.71-5.88,4.53l-1.43,8.13-.34,1.91v.06a.32.32,0,0,0,.32.34h3.26a.47.47,0,0,0,.45-.4l.78-4.41h3.64l-.77,4.41v.08a.29.29,0,0,0,.29.32h3.25a.52.52,0,0,0,.49-.4m-2.27-10-.41,2.35h-3.64l.42-2.35c.14-.79.44-1,1.23-1h1.53c.66,0,.92.16.92.64a2.08,2.08,0,0,1-.05.39"/><path class="cls-4" d="M227.44,114.51c0,2.68,2.2,3.41,4.45,3.41a20.59,20.59,0,0,0,3.14-.24.46.46,0,0,0,.45-.39l.44-2.43v-.06a.31.31,0,0,0-.34-.33h-3.22c-.57,0-.81-.17-.81-.63,0-.11,0-.23,0-.38l1.77-10.09v-.08A.3.3,0,0,0,233,103H229.8a.53.53,0,0,0-.49.4l-1.78,10.09a6.67,6.67,0,0,0-.09,1.05"/></g><g class="cls-6"><path class="cls-4" d="M178.47,150.85A28.82,28.82,0,1,1,207.3,122a28.85,28.85,0,0,1-28.83,28.82m0-57.09A28.27,28.27,0,1,0,206.74,122a28.3,28.3,0,0,0-28.27-28.27"/><path class="cls-4" d="M178.94,146.74a31,31,0,0,1-5.43-.48c-16-2.82-26.89-17.45-24.22-32.61,2.34-13.23,14.3-22.84,28.46-22.84a32.16,32.16,0,0,1,5.44.48A30.19,30.19,0,0,1,202.32,103a27,27,0,0,1,5.09,20.94c-2.33,13.24-14.3,22.85-28.47,22.85m-1.19-55.37c-13.89,0-25.63,9.41-27.91,22.38-2.62,14.85,8,29.19,23.75,32a31.26,31.26,0,0,0,5.35.46c13.9,0,25.64-9.41,27.93-22.38a26.51,26.51,0,0,0-5-20.52A29.68,29.68,0,0,0,183.1,91.83a31.09,31.09,0,0,0-5.35-.46"/><path class="cls-4" d="M181.1,144.88c-.75,0-1.51,0-2.25-.07a30.23,30.23,0,0,1-20.22-9.65,27,27,0,0,1-7.22-20.31c1-14.47,13.85-25.81,29.16-25.81.75,0,1.51,0,2.27.09,16.23,1.16,28.53,14.59,27.44,29.94-1,14.48-13.86,25.81-29.18,25.81m-.53-55.28c-15,0-27.6,11.11-28.61,25.29a26.46,26.46,0,0,0,7.07,19.9,29.69,29.69,0,0,0,19.86,9.47c.74,0,1.48.07,2.21.07,15,0,27.6-11.11,28.63-25.3,1.07-15-11-28.21-26.93-29.35-.74-.05-1.49-.08-2.23-.08"/><path class="cls-4" d="M179.27,146.68a28.82,28.82,0,1,1,28.81-28.82,28.85,28.85,0,0,1-28.81,28.82m0-57.08a28.27,28.27,0,1,0,28.26,28.26A28.29,28.29,0,0,0,179.27,89.6"/><path class="cls-4" d="M178.59,145.83a27.06,27.06,0,1,1,27-27.05,27.08,27.08,0,0,1-27,27.05m0-53.55a26.5,26.5,0,1,0,26.5,26.5,26.53,26.53,0,0,0-26.5-26.5"/><path class="cls-4" d="M181.52,148.38a28.82,28.82,0,1,1,28.83-28.82,28.85,28.85,0,0,1-28.83,28.82m0-57.09a28.27,28.27,0,1,0,28.27,28.27,28.3,28.3,0,0,0-28.27-28.27"/></g></g></g></g></svg>