<svg xmlns="http://www.w3.org/2000/svg" viewBox="0 0 220.45 50.37"><defs><style>.cls-1{fill:#404b8c;}.cls-2{fill:#ee7434;}.cls-3{fill:none;}</style></defs><title>ec logo</title><g id="Layer_2" data-name="Layer 2"><g id="Layer_1-2" data-name="Layer 1"><path class="cls-1" d="M83.57,13.85c0,2.49-.8,4.12-2.42,4.88-1.21.59-3.61.89-7.22.89H69.61a18.27,18.27,0,0,1-6-.7,4.6,4.6,0,0,1-2.82-2.78,18.67,18.67,0,0,1-.7-6,22.67,22.67,0,0,1,.62-6.3A4.61,4.61,0,0,1,63.45.81,17.31,17.31,0,0,1,69.67,0H74c3.43,0,5.91.49,7.41,1.48a4.71,4.71,0,0,1,2.12,4.26H80.37a2.33,2.33,0,0,0-1.78-2.42A20.48,20.48,0,0,0,73.85,3h-4c-2.66,0-4.37.25-5.15.75-1,.64-1.46,2.1-1.48,4.41V11q0,3.9,1.39,4.94c.75.54,2.46.8,5.16.8h4.1a20.83,20.83,0,0,0,4.76-.33,2.31,2.31,0,0,0,1.76-2.51ZM76.47,11H63.17l0-2.84H76.47Z"/><path class="cls-1" d="M108.58,13.88q0,3.24-1.68,4.57a7.68,7.68,0,0,1-4.76,1.17H92.35q-6.43,0-6.41-5.55h3.38c0,1.71,1.2,2.57,3.62,2.57h8.44a5.52,5.52,0,0,0,2.62-.48,2.36,2.36,0,0,0,1.15-2.28,2.54,2.54,0,0,0-2-2.54,11.38,11.38,0,0,0-3.54-.41q-.94,0-2.82.06c-1.24,0-2.18.07-2.81.07a13,13,0,0,1-5.58-.92,4.73,4.73,0,0,1-2.59-4.62A5,5,0,0,1,87.62,1.2,8,8,0,0,1,92.3.08h9.31q6.89,0,6.88,5.52H105Q105,3,101.3,3H92.52c-2,0-3,.84-3,2.53S91.33,8.22,95,8.22c.58,0,1.44,0,2.58-.1s2-.09,2.58-.09a12.6,12.6,0,0,1,5.74,1A5,5,0,0,1,108.58,13.88Z"/><path class="cls-1" d="M131,3.07H122.2V19.62h-3.31V3.07h-8.78v-3H131Z"/><path class="cls-1" d="M155.76,13.85q0,3.74-2.42,4.88-1.82.89-7.22.89H141.8a18.38,18.38,0,0,1-6-.7A4.61,4.61,0,0,1,133,16.14a18.38,18.38,0,0,1-.7-6,23.16,23.16,0,0,1,.61-6.3A4.65,4.65,0,0,1,135.64.81,17.25,17.25,0,0,1,141.85,0h4.32q5.16,0,7.42,1.48a4.71,4.71,0,0,1,2.12,4.26h-3.15a2.33,2.33,0,0,0-1.79-2.42A20.37,20.37,0,0,0,146,3h-4q-4,0-5.16.75c-1,.64-1.46,2.1-1.47,4.41V11q0,3.9,1.39,4.94c.74.54,2.46.8,5.16.8h4.09a20.94,20.94,0,0,0,4.77-.33,2.31,2.31,0,0,0,1.75-2.51ZM148.65,11H135.36l0-2.84h13.26Z"/><path class="cls-1" d="M181.07,13.85q0,3.74-2.43,4.88c-1.21.59-3.61.89-7.22.89H167.1a18.27,18.27,0,0,1-6-.7,4.6,4.6,0,0,1-2.82-2.78,18.73,18.73,0,0,1-.69-6,22.76,22.76,0,0,1,.61-6.3,4.64,4.64,0,0,1,2.7-3.06A17.35,17.35,0,0,1,167.16,0h4.32q5.16,0,7.41,1.48A4.69,4.69,0,0,1,181,5.74h-3.15a2.32,2.32,0,0,0-1.78-2.42A20.37,20.37,0,0,0,171.34,3h-4c-2.65,0-4.37.25-5.15.75-1,.64-1.46,2.1-1.48,4.41V11q0,3.9,1.4,4.94c.74.54,2.46.8,5.15.8h4.1a20.83,20.83,0,0,0,4.76-.33,2.31,2.31,0,0,0,1.76-2.51ZM174,11H160.67l0-2.84H174Z"/><path class="cls-1" d="M217.47,19.62l0-10.06a7.32,7.32,0,0,0-1.25-4.63C215.14,3.63,213.43,3,211,3h-.89Q206.41,3,205,5.07q-1.14,1.71-1.14,5.8v8.75h-3.1V11.09a11.15,11.15,0,0,0-1.17-5.79c-1-1.55-2.64-2.32-5-2.32h-1q-3.71,0-5.15,2.29-1.19,1.83-1.18,5.91l0,8.44H184V.08h3.26V2.56Q189.13.09,193.14.08H195q5.21,0,7.19,3.71,2-3.7,7.16-3.71h2.4q8.72,0,8.72,9.53v10Z"/><path class="cls-1" d="M74.53,38.45a3.49,3.49,0,0,1-1.06,2.9,4.83,4.83,0,0,1-3,.75H64.24c-2.72,0-4.08-1.18-4.06-3.52h2.13c0,1.08.77,1.62,2.3,1.62H70a3.56,3.56,0,0,0,1.66-.3,1.5,1.5,0,0,0,.73-1.45,1.62,1.62,0,0,0-1.26-1.61,7.38,7.38,0,0,0-2.24-.26c-.4,0-1,0-1.79,0s-1.38.05-1.78.05a8.29,8.29,0,0,1-3.54-.59,3,3,0,0,1-1.65-2.93,3.15,3.15,0,0,1,1.14-2.74,5.06,5.06,0,0,1,3-.71h5.9c2.92,0,4.37,1.17,4.37,3.5H72.25c0-1.08-.77-1.63-2.33-1.63H64.35c-1.29,0-1.93.54-1.93,1.61s1.17,1.68,3.52,1.68c.37,0,.91,0,1.64-.06s1.27-.06,1.63-.06a8.08,8.08,0,0,1,3.64.65A3.15,3.15,0,0,1,74.53,38.45Z"/><path class="cls-1" d="M91.09,36.6a8.44,8.44,0,0,1-.59,3.63,3,3,0,0,1-2,1.55,14.73,14.73,0,0,1-3.64.32H82.6a11.59,11.59,0,0,1-3.79-.45A2.83,2.83,0,0,1,77,39.89a11.83,11.83,0,0,1-.44-3.81,14.82,14.82,0,0,1,.37-4,3,3,0,0,1,1.73-2,10.72,10.72,0,0,1,3.94-.53H84.9a10.69,10.69,0,0,1,4.2.6,3.05,3.05,0,0,1,1.67,2.16A18.67,18.67,0,0,1,91.09,36.6ZM89,36.53V35.34a6.31,6.31,0,0,0-.36-2.52,1.73,1.73,0,0,0-1.29-1,12.43,12.43,0,0,0-2.51-.16h-2c-1.71,0-2.79.17-3.24.53s-.81,1.48-.81,3.13v1.18c0,1.61.28,2.62.83,3.05a6.56,6.56,0,0,0,3.16.47h2.14a13.15,13.15,0,0,0,2.46-.14A1.73,1.73,0,0,0,88.6,39,6,6,0,0,0,89,36.53Z"/><path class="cls-1" d="M95.33,34.81h8.74V36.6H95.33v5.5h-2l0-6.44A11.8,11.8,0,0,1,93.78,32a2.92,2.92,0,0,1,1.75-1.83,11.06,11.06,0,0,1,3.87-.49h2.3c2.23,0,3.76.27,4.6.81a3.84,3.84,0,0,1,1.45,3h-2a2,2,0,0,0-1.28-1.6,10.76,10.76,0,0,0-2.86-.24H99.52A7,7,0,0,0,96.3,32C95.7,32.42,95.38,33.35,95.33,34.81Z"/><path class="cls-1" d="M120.87,31.59h-5.59V42.1h-2.11V31.59H107.6V29.7h13.27Z"/><path class="cls-1" d="M140.46,42.1H130V29.7h2.1V40.2h8.4Z"/><path class="cls-1" d="M143.77,42.1h-2.11V29.7h2.11Z"/><path class="cls-1" d="M167.48,42.1V35.71a4.61,4.61,0,0,0-.8-2.93,3.93,3.93,0,0,0-3.27-1.24h-.57a3.66,3.66,0,0,0-3.27,1.33,6.89,6.89,0,0,0-.72,3.67V42.1h-2V36.68a7.13,7.13,0,0,0-.74-3.67A3.45,3.45,0,0,0,153,31.54h-.62A3.55,3.55,0,0,0,149.06,33a7.17,7.17,0,0,0-.75,3.75l0,5.36h-2.09V29.7h2.07v1.57A4.37,4.37,0,0,1,152,29.7h1.17q3.31,0,4.56,2.35a4.74,4.74,0,0,1,4.55-2.35h1.52q5.53,0,5.54,6.05V42.1Z"/><path class="cls-1" d="M174.22,42.1h-2.1V29.7h2.1Z"/><path class="cls-1" d="M189,31.59h-5.59V42.1h-2.1V31.59h-5.57V29.7H189Z"/><path class="cls-1" d="M204.74,38.44q0,2.37-1.53,3.09a12,12,0,0,1-4.58.57h-2.74a11.55,11.55,0,0,1-3.79-.45,2.89,2.89,0,0,1-1.79-1.76,11.94,11.94,0,0,1-.44-3.79,14.46,14.46,0,0,1,.39-4A2.94,2.94,0,0,1,192,30.16a11,11,0,0,1,3.94-.51h2.74a9,9,0,0,1,4.71.93,3,3,0,0,1,1.34,2.71h-2a1.48,1.48,0,0,0-1.13-1.54,13.42,13.42,0,0,0-3-.21H196a7.08,7.08,0,0,0-3.27.48q-.92.6-.93,2.79V36.6c0,1.65.28,2.69.88,3.13a6.55,6.55,0,0,0,3.27.51h2.6a13.33,13.33,0,0,0,3-.21,1.48,1.48,0,0,0,1.11-1.59Zm-4.5-1.84H191.8l0-1.81h8.42Z"/><path class="cls-1" d="M220.45,36.72c0,2.08-.33,3.48-1,4.21s-2.1,1.18-4.14,1.18h-8.74V29.7H215a7,7,0,0,1,3.8.8,3.42,3.42,0,0,1,1.42,2.35A23.52,23.52,0,0,1,220.45,36.72Zm-2.11-.07V35.09a4.06,4.06,0,0,0-.7-2.79,3.87,3.87,0,0,0-2.76-.73h-6.17v8.65H215c1.41,0,2.33-.25,2.76-.74A4.91,4.91,0,0,0,218.34,36.65Z"/><path class="cls-2" d="M41.72,33.57l-.41,0H31.87a.59.59,0,0,0-.46.14,8.3,8.3,0,0,1-2.64,1.7,13.9,13.9,0,0,1-3.54,1,14.11,14.11,0,0,1-2.83.16A11.88,11.88,0,0,1,19.34,36a10.45,10.45,0,0,1-2.95-1.47,9.36,9.36,0,0,1-3.33-4.25c0-.06,0-.13-.06-.23l.29,0H42.22c.38,0,.4,0,.46-.39s.14-.86.22-1.29a13.77,13.77,0,0,0,.19-3.27,16.86,16.86,0,0,0-1.47-5.84A18.07,18.07,0,0,0,39,15,19.34,19.34,0,0,0,34.36,11a19.71,19.71,0,0,0-5-2.25A20.87,20.87,0,0,0,26.07,8a17.92,17.92,0,0,0-3-.14h-.29a15.45,15.45,0,0,0-2.88.28,14.65,14.65,0,0,0-1.47.28c-.76.19-1.5.41-2.25.64-.46.15-.46.16-.67-.26L13.6,5.1c-.22-.43-.44-.86-.65-1.29,0-.09-.08-.18-.14-.32.23-.09.43-.18.65-.25a26.79,26.79,0,0,1,3.22-.87c.74-.15,1.49-.27,2.24-.37a32.74,32.74,0,0,1,5.14-.27c.64,0,1.27.09,1.9.15s1.14.12,1.7.21c.77.13,1.54.29,2.3.46.61.14,1.23.3,1.83.49a27.79,27.79,0,0,1,4.82,2,27.28,27.28,0,0,1,4.71,3.12A25,25,0,0,1,45.87,13a23,23,0,0,1,3.06,6,27.64,27.64,0,0,1,.75,2.7c.15.65.2,1.32.31,2a20.68,20.68,0,0,1,.16,2.49,10.53,10.53,0,0,1,0,1.25c0,.49-.07,1-.11,1.49a18.91,18.91,0,0,1-.4,2.37,22.11,22.11,0,0,1-1.94,5.33,24.43,24.43,0,0,1-3.22,4.78,26.66,26.66,0,0,1-2.23,2.28,25.79,25.79,0,0,1-4.35,3.2c-.55.32-1.13.62-1.69.93l-.32.15L33,42.5c.08,0,.13-.1.19-.13a22.33,22.33,0,0,0,4-2.69A15.74,15.74,0,0,0,41.57,34,3.16,3.16,0,0,0,41.72,33.57Z"/><path class="cls-2" d="M33.73,22.54H12.91c.06-.17.09-.31.15-.45A8.49,8.49,0,0,1,14.39,20a10.71,10.71,0,0,1,3.15-2.49A12.83,12.83,0,0,1,21,16.25,12,12,0,0,1,24.07,16a11.85,11.85,0,0,1,4.34,1,10.48,10.48,0,0,1,4,3.14,9.31,9.31,0,0,1,1.21,2C33.67,22.34,33.7,22.43,33.73,22.54Z"/><circle class="cls-3" cx="25.08" cy="25.3" r="25.08"/><rect class="cls-2" x="60.15" y="24.46" width="160.3" height="0.8"/></g></g></svg>