<svg xmlns="http://www.w3.org/2000/svg" xmlns:xlink="http://www.w3.org/1999/xlink" viewBox="0 0 708.61 309.17"><defs><style>.cls-1{fill:url(#radial-gradient);}.cls-2{fill:url(#radial-gradient-2);}.cls-3{fill:url(#radial-gradient-3);}.cls-4{fill:url(#radial-gradient-4);}.cls-5{isolation:isolate;}.cls-6{mask:url(#mask);}.cls-62,.cls-64,.cls-7,.cls-77{opacity:0.33;}.cls-7{fill:url(#linear-gradient);}.cls-8{fill:url(#linear-gradient-2);}.cls-9{fill:url(#linear-gradient-3);}.cls-10{fill:url(#radial-gradient-5);}.cls-11{fill:url(#radial-gradient-6);}.cls-12{fill:url(#linear-gradient-4);}.cls-13{fill:url(#linear-gradient-5);}.cls-14{fill:#231f20;}.cls-15{fill:url(#linear-gradient-6);}.cls-16{fill:#fff;}.cls-17{fill:url(#radial-gradient-7);}.cls-18{fill:url(#linear-gradient-7);}.cls-19{fill:#e6e6e5;}.cls-20{fill:url(#linear-gradient-8);}.cls-21{fill:#f4f5f5;}.cls-22{fill:#3672a4;}.cls-23{fill:none;stroke:#fff;stroke-miterlimit:10;stroke-width:0.1px;}.cls-24{fill:url(#linear-gradient-9);}.cls-25{fill:#4bb8d7;}.cls-26{fill:url(#linear-gradient-10);}.cls-27{fill:#e31b74;}.cls-28{fill:url(#linear-gradient-11);}.cls-29{fill:url(#linear-gradient-12);}.cls-30{fill:#ea9633;}.cls-31{fill:url(#linear-gradient-13);}.cls-32{fill:url(#linear-gradient-14);}.cls-33{fill:url(#linear-gradient-15);}.cls-34{fill:#83c341;}.cls-35{fill:url(#linear-gradient-16);}.cls-36{fill:url(#linear-gradient-17);}.cls-37{fill:#db6666;}.cls-38{fill:#c83133;}.cls-39{fill:url(#radial-gradient-8);}.cls-40{fill:url(#linear-gradient-18);}.cls-41{fill:url(#linear-gradient-19);}.cls-42{fill:url(#linear-gradient-20);}.cls-43{fill:url(#linear-gradient-21);}.cls-44{fill:#5b4380;}.cls-45{fill:url(#linear-gradient-22);}.cls-46{fill:url(#linear-gradient-23);}.cls-47{fill:url(#linear-gradient-24);}.cls-48{fill:url(#linear-gradient-25);}.cls-49{fill:url(#linear-gradient-26);}.cls-50{fill:url(#linear-gradient-27);}.cls-51{fill:url(#linear-gradient-28);}.cls-52{fill:url(#linear-gradient-29);}.cls-53{fill:url(#linear-gradient-30);}.cls-54{opacity:0.93;}.cls-55{fill:#72ba44;}.cls-56{fill:#dcdcdc;}.cls-57{fill:#f7f8f9;}.cls-58{fill:#787878;}.cls-59{fill:#979797;}.cls-60{fill:#7bcdee;}.cls-61{mask:url(#mask-2);}.cls-62{fill:url(#linear-gradient-31);}.cls-63{mask:url(#mask-3);}.cls-64{fill:url(#linear-gradient-32);}.cls-65{fill:url(#radial-gradient-9);}.cls-66{fill:url(#linear-gradient-33);}.cls-67{fill:url(#linear-gradient-34);}.cls-68{fill:url(#linear-gradient-35);}.cls-69{fill:url(#linear-gradient-36);}.cls-70{fill:url(#linear-gradient-37);}.cls-71{fill:url(#linear-gradient-38);}.cls-72{fill:url(#linear-gradient-39);}.cls-73{fill:url(#linear-gradient-40);}.cls-74,.cls-75,.cls-98,.cls-99{opacity:0.6;mix-blend-mode:overlay;}.cls-74{fill:url(#linear-gradient-41);}.cls-75{fill:url(#linear-gradient-42);}.cls-76{mask:url(#mask-4);}.cls-77{fill:url(#linear-gradient-43);}.cls-78{fill:#5f6767;}.cls-79{fill:url(#linear-gradient-44);}.cls-80{fill:url(#linear-gradient-45);}.cls-81{fill:url(#linear-gradient-46);}.cls-82{fill:url(#linear-gradient-47);}.cls-83{fill:url(#linear-gradient-48);}.cls-84{fill:url(#radial-gradient-10);}.cls-85{fill:url(#linear-gradient-49);}.cls-86{fill:url(#linear-gradient-50);}.cls-87{fill:url(#linear-gradient-51);}.cls-88{fill:url(#linear-gradient-52);}.cls-89{fill:url(#linear-gradient-53);}.cls-90{fill:url(#linear-gradient-54);}.cls-91{fill:url(#linear-gradient-55);}.cls-92{fill:url(#linear-gradient-56);}.cls-93{fill:url(#linear-gradient-57);}.cls-94{fill:url(#linear-gradient-58);}.cls-95{fill:url(#linear-gradient-59);}.cls-96{fill:url(#linear-gradient-60);}.cls-97{fill:url(#linear-gradient-61);}.cls-98{fill:url(#linear-gradient-62);}.cls-99{fill:url(#linear-gradient-63);}</style><radialGradient id="radial-gradient" cx="305.86" cy="503.79" r="92.1" gradientTransform="translate(0 255.96) scale(1 0.09)" gradientUnits="userSpaceOnUse"><stop offset="0" stop-color="#fff"/><stop offset="1" stop-color="#14130a"/></radialGradient><radialGradient id="radial-gradient-2" cx="69.68" cy="283.58" r="69.68" gradientTransform="translate(0 272.54) scale(1 0.1)" xlink:href="#radial-gradient"/><radialGradient id="radial-gradient-3" cx="191.07" cy="503.78" r="36.3" gradientTransform="translate(-18.75 255.96) scale(1.05 0.09)" xlink:href="#radial-gradient"/><radialGradient id="radial-gradient-4" cx="411.78" cy="644.9" r="68.4" gradientTransform="translate(-482.88 232.59) scale(2.48 0.11)" xlink:href="#radial-gradient"/><mask id="mask" x="213.74" y="292.73" width="184.23" height="16.45" maskUnits="userSpaceOnUse"><path class="cls-1" d="M398,301c0,4.55-41.24,8.22-92.12,8.22s-92.11-3.67-92.11-8.22,41.24-8.22,92.11-8.22S398,296.41,398,301Z"/></mask><linearGradient id="linear-gradient" x1="305.88" y1="309.16" x2="305.83" y2="292.86" gradientUnits="userSpaceOnUse"><stop offset="0" stop-color="#4d4848"/><stop offset="0.35" stop-color="#14130a"/><stop offset="1" stop-color="#14130a"/></linearGradient><linearGradient id="linear-gradient-2" x1="248.23" y1="291.53" x2="364.93" y2="291.53" gradientUnits="userSpaceOnUse"><stop offset="0.01" stop-color="#58595b"/><stop offset="0.28" stop-color="#757679"/><stop offset="0.51" stop-color="#88898d"/><stop offset="1" stop-color="#58595b"/></linearGradient><linearGradient id="linear-gradient-3" x1="305.68" y1="248.38" x2="305.68" y2="298.2" gradientUnits="userSpaceOnUse"><stop offset="0.08" stop-color="#6d6f73"/><stop offset="0.13" stop-color="#97999c"/><stop offset="0.18" stop-color="#cccdce"/><stop offset="0.21" stop-color="#e0e1e2"/><stop offset="0.32" stop-color="#a7a9ac"/><stop offset="0.39" stop-color="#868789"/><stop offset="0.46" stop-color="#636363"/><stop offset="0.53" stop-color="#6e6f6f"/><stop offset="0.65" stop-color="#8b8d8f"/><stop offset="0.74" stop-color="#a6aaad"/></linearGradient><radialGradient id="radial-gradient-5" cx="361.04" cy="311.67" r="42.42" gradientUnits="userSpaceOnUse"><stop offset="0" stop-color="#fff"/><stop offset="0.17" stop-color="#fff" stop-opacity="0.78"/><stop offset="0.4" stop-color="#fff" stop-opacity="0.5"/><stop offset="0.6" stop-color="#fff" stop-opacity="0.29"/><stop offset="0.78" stop-color="#fff" stop-opacity="0.13"/><stop offset="0.92" stop-color="#fff" stop-opacity="0.04"/><stop offset="1" stop-color="#fff" stop-opacity="0"/></radialGradient><radialGradient id="radial-gradient-6" cx="485.27" cy="311.67" r="42.42" gradientTransform="matrix(-1, 0, 0, 1, 736.81, 0)" xlink:href="#radial-gradient-5"/><linearGradient id="linear-gradient-4" x1="260.58" y1="292.43" x2="350.88" y2="292.43" gradientUnits="userSpaceOnUse"><stop offset="0.01" stop-color="#fff" stop-opacity="0"/><stop offset="0.18" stop-color="#fff" stop-opacity="0.38"/><stop offset="0.34" stop-color="#fff" stop-opacity="0.71"/><stop offset="0.45" stop-color="#fff" stop-opacity="0.92"/><stop offset="0.51" stop-color="#fff"/><stop offset="1" stop-color="#fff" stop-opacity="0"/></linearGradient><linearGradient id="linear-gradient-5" x1="114.52" y1="247.41" x2="513.5" y2="221.26" gradientUnits="userSpaceOnUse"><stop offset="0" stop-color="#78797d"/><stop offset="0.32" stop-color="#737478"/><stop offset="0.49" stop-color="#6d6f73"/><stop offset="1" stop-color="#6d6f73"/></linearGradient><linearGradient id="linear-gradient-6" x1="114.6" y1="247.4" x2="513.49" y2="221.26" gradientUnits="userSpaceOnUse"><stop offset="0" stop-color="#898a8f"/><stop offset="0.05" stop-color="#909196"/><stop offset="0.31" stop-color="#b1b2b6"/><stop offset="0.57" stop-color="#c8cacd"/><stop offset="0.8" stop-color="#d6d8db"/><stop offset="1" stop-color="#dbdde0"/></linearGradient><radialGradient id="radial-gradient-7" cx="3083.04" cy="150.24" r="51.39" gradientTransform="translate(-1977.76 -9.75) scale(0.66 1.07)" gradientUnits="userSpaceOnUse"><stop offset="0" stop-color="#f8a256"/><stop offset="1" stop-color="#f47f2b"/></radialGradient><linearGradient id="linear-gradient-7" x1="22.12" y1="166.72" x2="117.77" y2="166.72" gradientUnits="userSpaceOnUse"><stop offset="0" stop-color="#3571a4"/><stop offset="1" stop-color="#6e9ec7"/></linearGradient><linearGradient id="linear-gradient-8" x1="30.2" y1="160.73" x2="22.44" y2="165.19" gradientUnits="userSpaceOnUse"><stop offset="0" stop-color="#3571a4"/><stop offset="0.23" stop-color="#5389b7"/><stop offset="0.46" stop-color="#6e9ec7"/><stop offset="0.6" stop-color="#6899c3"/><stop offset="0.78" stop-color="#568cb9"/><stop offset="0.99" stop-color="#3a76a8"/><stop offset="1" stop-color="#3975a7"/></linearGradient><linearGradient id="linear-gradient-9" x1="21.7" y1="246.85" x2="117.34" y2="246.85" gradientUnits="userSpaceOnUse"><stop offset="0" stop-color="#55bbd9"/><stop offset="1" stop-color="#aaddeb"/></linearGradient><linearGradient id="linear-gradient-10" x1="21.77" y1="266.29" x2="117.4" y2="266.29" gradientUnits="userSpaceOnUse"><stop offset="0" stop-color="#e41e77"/><stop offset="1" stop-color="#ec649d"/></linearGradient><linearGradient id="linear-gradient-11" x1="21.77" y1="186.92" x2="117.4" y2="186.92" gradientUnits="userSpaceOnUse"><stop offset="0" stop-color="#ea9733"/><stop offset="0.35" stop-color="#eb9c3c"/><stop offset="0.92" stop-color="#eda953"/><stop offset="1" stop-color="#edab57"/></linearGradient><linearGradient id="linear-gradient-12" x1="30.49" y1="179.91" x2="22.46" y2="186.18" gradientUnits="userSpaceOnUse"><stop offset="0" stop-color="#ea9733"/><stop offset="0.18" stop-color="#eb9c3c"/><stop offset="0.48" stop-color="#eda953"/><stop offset="0.52" stop-color="#edab57"/><stop offset="1" stop-color="#ec9b38"/></linearGradient><linearGradient id="linear-gradient-13" x1="22.04" y1="207.13" x2="117.67" y2="207.13" gradientUnits="userSpaceOnUse"><stop offset="0" stop-color="#83c341"/><stop offset="1" stop-color="#87bd48"/></linearGradient><linearGradient id="linear-gradient-14" x1="31.74" y1="199.45" x2="21.97" y2="206.61" gradientUnits="userSpaceOnUse"><stop offset="0" stop-color="#7bb73c"/><stop offset="0.41" stop-color="#84bb45"/><stop offset="0.52" stop-color="#87bd48"/><stop offset="1" stop-color="#7cb83d"/></linearGradient><linearGradient id="linear-gradient-15" x1="24.58" y1="203.22" x2="29.09" y2="203.22" gradientUnits="userSpaceOnUse"><stop offset="0" stop-color="#83c341"/><stop offset="0.52" stop-color="#87bd48"/><stop offset="1" stop-color="#83c341"/></linearGradient><linearGradient id="linear-gradient-16" x1="22.04" y1="227.13" x2="117.67" y2="227.13" gradientUnits="userSpaceOnUse"><stop offset="0" stop-color="#c83234"/><stop offset="0.27" stop-color="#cb3b3c"/><stop offset="0.72" stop-color="#d55253"/><stop offset="1" stop-color="#dc6565"/></linearGradient><linearGradient id="linear-gradient-17" x1="31.04" y1="219.79" x2="20.67" y2="227.81" gradientUnits="userSpaceOnUse"><stop offset="0" stop-color="#cb3a3b"/><stop offset="0.17" stop-color="#ce4344"/><stop offset="0.44" stop-color="#d85a5b"/><stop offset="0.52" stop-color="#db6364"/><stop offset="1" stop-color="#ca3839"/></linearGradient><radialGradient id="radial-gradient-8" cx="299.16" cy="33.45" r="109.49" gradientTransform="translate(6.07 -9.75) scale(0.99 1.07)" xlink:href="#radial-gradient-7"/><linearGradient id="linear-gradient-18" x1="149.38" y1="59.7" x2="222.04" y2="59.7" xlink:href="#linear-gradient-7"/><linearGradient id="linear-gradient-19" x1="167.37" y1="46.82" x2="150.37" y2="56.57" xlink:href="#linear-gradient-8"/><linearGradient id="linear-gradient-20" x1="149.38" y1="105.75" x2="222.04" y2="105.75" xlink:href="#linear-gradient-9"/><linearGradient id="linear-gradient-21" x1="306.27" y1="105.17" x2="378.92" y2="105.17" gradientUnits="userSpaceOnUse"><stop offset="0" stop-color="#604783"/><stop offset="1" stop-color="#8878a2"/></linearGradient><linearGradient id="linear-gradient-22" x1="384.8" y1="105.17" x2="457.45" y2="105.17" xlink:href="#linear-gradient-10"/><linearGradient id="linear-gradient-23" x1="227.91" y1="105.17" x2="300.56" y2="105.17" xlink:href="#linear-gradient-10"/><linearGradient id="linear-gradient-24" x1="227.91" y1="59.7" x2="300.56" y2="59.7" xlink:href="#linear-gradient-11"/><linearGradient id="linear-gradient-25" x1="246.81" y1="44.58" x2="229.22" y2="58.31" xlink:href="#linear-gradient-12"/><linearGradient id="linear-gradient-26" x1="306.44" y1="59.7" x2="379.09" y2="59.7" xlink:href="#linear-gradient-13"/><linearGradient id="linear-gradient-27" x1="327.88" y1="43.11" x2="306.47" y2="58.81" xlink:href="#linear-gradient-14"/><linearGradient id="linear-gradient-28" x1="312.31" y1="51.35" x2="321.93" y2="51.35" xlink:href="#linear-gradient-15"/><linearGradient id="linear-gradient-29" x1="384.44" y1="59.7" x2="457.09" y2="59.7" xlink:href="#linear-gradient-16"/><linearGradient id="linear-gradient-30" x1="404.33" y1="43.87" x2="381.6" y2="61.45" xlink:href="#linear-gradient-17"/><mask id="mask-2" x="0" y="293.97" width="139.37" height="13.96" maskUnits="userSpaceOnUse"><path class="cls-2" d="M139.37,301c0,3.86-31.2,7-69.69,7S0,304.81,0,301s31.2-7,69.68-7S139.37,297.09,139.37,301Z"/></mask><linearGradient id="linear-gradient-31" x1="69.7" y1="307.92" x2="69.66" y2="294.08" xlink:href="#linear-gradient"/><mask id="mask-3" x="143.27" y="297.71" width="76" height="6.48" maskUnits="userSpaceOnUse"><path class="cls-3" d="M219.27,301c0,1.79-17,3.24-38,3.24s-38-1.45-38-3.24,17-3.24,38-3.24S219.27,299.16,219.27,301Z"/></mask><linearGradient id="linear-gradient-32" x1="181.28" y1="304.18" x2="181.26" y2="297.76" xlink:href="#linear-gradient"/><radialGradient id="radial-gradient-9" cx="2369.93" cy="246.87" r="45.97" gradientTransform="translate(-607.42 -113.37) scale(0.33 1.36)" xlink:href="#radial-gradient-7"/><linearGradient id="linear-gradient-33" x1="160.45" y1="233.48" x2="203.35" y2="233.48" xlink:href="#linear-gradient-7"/><linearGradient id="linear-gradient-34" x1="167.82" y1="228.13" x2="160.91" y2="232.09" xlink:href="#linear-gradient-8"/><linearGradient id="linear-gradient-35" x1="160.29" y1="251.55" x2="203.19" y2="251.55" xlink:href="#linear-gradient-11"/><linearGradient id="linear-gradient-36" x1="168.07" y1="245.29" x2="160.94" y2="250.86" xlink:href="#linear-gradient-12"/><linearGradient id="linear-gradient-37" x1="160.42" y1="269.62" x2="203.31" y2="269.62" xlink:href="#linear-gradient-13"/><linearGradient id="linear-gradient-38" x1="169.19" y1="262.77" x2="160.5" y2="269.14" xlink:href="#linear-gradient-14"/><linearGradient id="linear-gradient-39" x1="162.81" y1="266.12" x2="166.84" y2="266.12" xlink:href="#linear-gradient-15"/><linearGradient id="linear-gradient-40" x1="159.17" y1="214.05" x2="204.65" y2="214.05" gradientTransform="translate(0 -13.78) scale(1 1.04)" xlink:href="#linear-gradient-13"/><linearGradient id="linear-gradient-41" x1="154.68" y1="232.12" x2="208.35" y2="232.12" gradientUnits="userSpaceOnUse"><stop offset="0" stop-color="#fff" stop-opacity="0"/><stop offset="0.09" stop-color="#fff" stop-opacity="0.02"/><stop offset="0.22" stop-color="#fff" stop-opacity="0.09"/><stop offset="0.36" stop-color="#fff" stop-opacity="0.2"/><stop offset="0.51" stop-color="#fff" stop-opacity="0.35"/><stop offset="0.68" stop-color="#fff" stop-opacity="0.54"/><stop offset="0.85" stop-color="#fff" stop-opacity="0.77"/><stop offset="1" stop-color="#fff"/></linearGradient><linearGradient id="linear-gradient-42" x1="282.53" y1="109.46" x2="487.88" y2="109.46" xlink:href="#linear-gradient-41"/><mask id="mask-4" x="369.2" y="293.7" width="339.42" height="14.5" maskUnits="userSpaceOnUse"><path class="cls-4" d="M708.61,301c0,4-76,7.25-169.71,7.25S369.2,305,369.2,301s76-7.25,169.7-7.25S708.61,296.94,708.61,301Z"/></mask><linearGradient id="linear-gradient-43" x1="538.93" y1="308.2" x2="538.88" y2="293.81" xlink:href="#linear-gradient"/><linearGradient id="linear-gradient-44" x1="383.93" y1="282.61" x2="691.9" y2="282.61" gradientUnits="userSpaceOnUse"><stop offset="0" stop-color="#999c9d"/><stop offset="0" stop-color="#a5a7a9"/><stop offset="0" stop-color="#c2c3c5"/><stop offset="0.01" stop-color="#d9d8da"/><stop offset="0.01" stop-color="#e9e7ea"/><stop offset="0.01" stop-color="#f2f0f3"/><stop offset="0.02" stop-color="#f5f3f6"/><stop offset="0.05" stop-color="#dfe1e3"/><stop offset="0.19" stop-color="#d1d1d1"/><stop offset="0.51" stop-color="#e3e5e7"/><stop offset="0.87" stop-color="#d1d1d1"/><stop offset="0.95" stop-color="#dfe1e3"/><stop offset="0.99" stop-color="#f5f3f6"/><stop offset="1" stop-color="#999c9d"/></linearGradient><linearGradient id="linear-gradient-45" x1="537.92" y1="282.61" x2="537.92" y2="278.25" gradientUnits="userSpaceOnUse"><stop offset="0.34" stop-color="#676b6c"/><stop offset="0.36" stop-color="#707475"/><stop offset="0.46" stop-color="#989b9c"/><stop offset="0.55" stop-color="#b7b9bb"/><stop offset="0.64" stop-color="#cdcfd1"/><stop offset="0.73" stop-color="#daddde"/><stop offset="0.81" stop-color="#dfe1e3"/><stop offset="0.98" stop-color="#e3e5e7"/></linearGradient><linearGradient id="linear-gradient-46" x1="517.95" y1="282.23" x2="517.95" y2="278.15" gradientUnits="userSpaceOnUse"><stop offset="0.02" stop-color="#5f6767"/><stop offset="0.48" stop-color="#676b6c"/><stop offset="0.51" stop-color="#717576"/><stop offset="0.62" stop-color="#878a8b"/><stop offset="0.72" stop-color="#949899"/><stop offset="0.81" stop-color="#999c9d"/></linearGradient><linearGradient id="linear-gradient-47" x1="539.12" y1="282.43" x2="539.12" y2="278.37" xlink:href="#linear-gradient-46"/><linearGradient id="linear-gradient-48" x1="558.68" y1="278.46" x2="558.68" y2="278.37" xlink:href="#linear-gradient-46"/><radialGradient id="radial-gradient-10" cx="535.45" cy="146.86" r="71.21" gradientTransform="translate(6.07 -9.75) scale(0.99 1.07)" xlink:href="#radial-gradient-7"/><linearGradient id="linear-gradient-49" x1="437.59" y1="169.2" x2="484.84" y2="169.2" xlink:href="#linear-gradient-7"/><linearGradient id="linear-gradient-50" x1="449.23" y1="160.86" x2="438.31" y2="167.12" xlink:href="#linear-gradient-8"/><linearGradient id="linear-gradient-51" x1="437.59" y1="199.15" x2="484.84" y2="199.15" xlink:href="#linear-gradient-9"/><linearGradient id="linear-gradient-52" x1="539.62" y1="198.77" x2="586.87" y2="198.77" xlink:href="#linear-gradient-21"/><linearGradient id="linear-gradient-53" x1="590.69" y1="198.77" x2="637.94" y2="198.77" xlink:href="#linear-gradient-10"/><linearGradient id="linear-gradient-54" x1="488.67" y1="198.77" x2="535.91" y2="198.77" xlink:href="#linear-gradient-10"/><linearGradient id="linear-gradient-55" x1="488.66" y1="169.2" x2="535.91" y2="169.2" xlink:href="#linear-gradient-11"/><linearGradient id="linear-gradient-56" x1="500.88" y1="159.42" x2="489.6" y2="168.23" xlink:href="#linear-gradient-12"/><linearGradient id="linear-gradient-57" x1="539.73" y1="169.2" x2="586.98" y2="169.2" xlink:href="#linear-gradient-13"/><linearGradient id="linear-gradient-58" x1="553.58" y1="158.48" x2="539.84" y2="168.55" xlink:href="#linear-gradient-14"/><linearGradient id="linear-gradient-59" x1="543.55" y1="163.77" x2="549.81" y2="163.77" xlink:href="#linear-gradient-15"/><linearGradient id="linear-gradient-60" x1="590.46" y1="169.2" x2="637.7" y2="169.2" xlink:href="#linear-gradient-16"/><linearGradient id="linear-gradient-61" x1="603.31" y1="158.97" x2="588.73" y2="170.25" xlink:href="#linear-gradient-17"/><linearGradient id="linear-gradient-62" x1="500.57" y1="198.29" x2="652.8" y2="198.29" xlink:href="#linear-gradient-41"/><linearGradient id="linear-gradient-63" x1="15.97" y1="212.81" x2="132.7" y2="212.81" xlink:href="#linear-gradient-41"/></defs><title>Asset 1</title><g class="cls-5"><g id="Layer_2" data-name="Layer 2"><g id="Layer_1-2" data-name="Layer 1"><g class="cls-6"><path class="cls-7" d="M398,301c0,4.55-41.24,8.22-92.12,8.22s-92.11-3.67-92.11-8.22,41.24-8.22,92.11-8.22S398,296.41,398,301Z"/></g><path class="cls-8" d="M248.94,290.31v-.41c0,2.12,3.75,3.41,12.76,3.41h89.18c9,0,12.16-1,12.18-3H248.94Z"/><path class="cls-9" d="M351.49,277.12c-8-8.19-8.34-25.81-8.34-25.81H268.22s-.3,17.62-8.34,25.81-20.63,15.19,1.22,15.19h89.17C372.11,292.31,359.52,285.31,351.49,277.12Z"/><path class="cls-10" d="M312.86,292.31c4.46-9,18.71-17.86,36.43-19.59a18.88,18.88,0,0,0,2.81,3.7c7.89,8.05,20.18,15.89-.1,15.89Z"/><path class="cls-11" d="M299.72,292.31c-4.46-9-18.71-17.86-36.43-19.59a19.24,19.24,0,0,1-2.8,3.7c-7.9,8.05-20.19,15.89.09,15.89Z"/><path class="cls-12" d="M260.58,292.43c7.53-.13,15.05-.19,22.58-.24l22.57-.07,22.58.07,11.28.09,11.29.15-11.29.15-11.28.08-22.58.07-22.57-.07C275.63,292.61,268.11,292.55,260.58,292.43Z"/><path class="cls-13" d="M120.94,240.25c0,6,5.66,11.06,11.7,11.06H476.91a11.13,11.13,0,0,0,11-11.06V219.31h-367Z"/><path class="cls-14" d="M476.91.31H132.64c-6,0-11.7,4-11.7,10v209h367v-209C487.94,4.3,482.94.31,476.91.31Zm-5,203h-335v-189h335Z"/><path class="cls-15" d="M120.94,239c0,6,5.66,12.27,11.7,12.27H476.91c6,0,11-6.24,11-12.27V219.31h-367Z"/><rect class="cls-16" x="136.94" y="14.15" width="335" height="190.63"/><rect class="cls-16" x="20.28" y="146.46" width="98.8" height="134.03"/><rect class="cls-17" x="21.85" y="148.35" width="96.5" height="5.13"/><path class="cls-16" d="M26.12,151.76l-.47-1.6-.48,1.6H25l-.59-1.89h.22l.48,1.64.48-1.64h.2l.48,1.64.48-1.64h.21l-.59,1.89Z"/><path class="cls-16" d="M28.16,151.14H27.09a.47.47,0,0,0,.48.45.5.5,0,0,0,.4-.18l.11.13a.65.65,0,0,1-.53.24.73.73,0,0,1,0-1.45C28,150.33,28.19,150.65,28.16,151.14ZM28,151a.42.42,0,0,0-.44-.44.45.45,0,0,0-.46.44Z"/><path class="cls-16" d="M28.52,151.76v-2h.19v2Z"/><path class="cls-16" d="M30.23,150.54l-.11.15a.53.53,0,0,0-.39-.16.47.47,0,0,0-.47.52.48.48,0,0,0,.47.53.51.51,0,0,0,.41-.18l.11.13a.66.66,0,0,1-.53.25.73.73,0,1,1,.51-1.24Z"/><path class="cls-16" d="M31.75,151.05a.67.67,0,1,1-1.34,0,.67.67,0,1,1,1.34,0Zm-1.14,0a.48.48,0,0,0,.47.53.53.53,0,0,0,0-1.06A.48.48,0,0,0,30.61,151.05Z"/><path class="cls-16" d="M34.28,150.89v.87h-.2v-.82c0-.25-.13-.4-.36-.4a.46.46,0,0,0-.44.52v.7h-.2v-.82c0-.25-.13-.4-.36-.4a.46.46,0,0,0-.43.52v.7h-.2v-1.42h.2v.32a.49.49,0,0,1,.5-.33.47.47,0,0,1,.48.38.5.5,0,0,1,.52-.38C34.1,150.33,34.28,150.54,34.28,150.89Z"/><path class="cls-16" d="M35.85,151.14H34.77a.48.48,0,0,0,.48.45.52.52,0,0,0,.41-.18l.11.13a.7.7,0,0,1-.54.24.73.73,0,0,1,0-1.45C35.66,150.33,35.87,150.65,35.85,151.14Zm-.17-.18a.43.43,0,0,0-.45-.44.45.45,0,0,0-.46.44Z"/><path class="cls-16" d="M37.55,151.67a.48.48,0,0,1-.29.11c-.2,0-.34-.13-.34-.41v-.82h-.19v-.17h.19V150h.19v.37h.42v.17h-.42v.78c0,.17.07.24.18.24a.35.35,0,0,0,.21-.07Z"/><path class="cls-16" d="M39,151.05a.67.67,0,1,1-.67-.72A.67.67,0,0,1,39,151.05Zm-1.15,0a.48.48,0,1,0,.48-.53A.49.49,0,0,0,37.89,151.05Z"/><path class="cls-16" d="M41.59,151.76l-.47-1.6-.48,1.6h-.21l-.58-1.89h.21l.48,1.64.48-1.64h.2l.48,1.64.48-1.64h.21l-.59,1.89Z"/><path class="cls-16" d="M42.82,149.93a.13.13,0,1,1-.26,0,.13.13,0,1,1,.26,0Zm-.22,1.83v-1.42h.19v1.42Z"/><path class="cls-16" d="M44,151.67a.5.5,0,0,1-.3.11c-.2,0-.33-.13-.33-.41v-.82h-.19v-.17h.19V150h.19v.37h.41v.17h-.41v.78c0,.17.06.24.17.24a.35.35,0,0,0,.21-.07Z"/><path class="cls-16" d="M44.93,151.67a.5.5,0,0,1-.3.11c-.2,0-.34-.13-.34-.41v-.82H44.1v-.17h.19V150h.19v.37h.42v.17h-.42v.78c0,.17.07.24.18.24a.35.35,0,0,0,.21-.07Z"/><path class="cls-16" d="M45.64,152c-.08.22-.22.34-.39.34a.45.45,0,0,1-.28-.1l.08-.18a.33.33,0,0,0,.19.06c.1,0,.18-.06.24-.19l.05-.13L45,150.34h.2l.44,1.18.42-1.18h.2Z"/><path class="cls-16" d="M47.91,149.87a.95.95,0,0,1,0,1.89h-.7v-1.89Zm-.51,1.69h.51a.74.74,0,0,0,0-1.48h-.5Z"/><path class="cls-16" d="M50,151.55a.57.57,0,0,1-.49.23.43.43,0,0,1-.45-.44c0-.25.19-.41.5-.41H50v-.08a.31.31,0,0,0-.35-.33.75.75,0,0,0-.43.15l-.08-.15a.89.89,0,0,1,.54-.19.47.47,0,0,1,.52.49v.94H50Zm0-.28v-.17h-.42c-.22,0-.33.07-.33.23s.11.26.3.26A.44.44,0,0,0,50,151.27Z"/><path class="cls-16" d="M51.37,150.46l-.08.17a.65.65,0,0,0-.36-.12c-.14,0-.26.05-.26.19,0,.32.74.15.74.66a.43.43,0,0,1-.48.42.72.72,0,0,1-.51-.21l.07-.16a.65.65,0,0,0,.44.19c.16,0,.29-.07.29-.2,0-.35-.73-.18-.73-.68,0-.28.21-.39.45-.39A.75.75,0,0,1,51.37,150.46Z"/><path class="cls-16" d="M53,150.89v.87h-.19v-.82a.36.36,0,0,0-.38-.4.46.46,0,0,0-.44.52v.7h-.2v-2h.2v.9a.52.52,0,0,1,.52-.33C52.77,150.33,53,150.54,53,150.89Z"/><path class="cls-16" d="M54.75,151.06a.65.65,0,0,1-.64.72.54.54,0,0,1-.51-.33v.31h-.2v-2h.2v.88a.56.56,0,0,1,.51-.31A.66.66,0,0,1,54.75,151.06Zm-.21,0a.48.48,0,0,0-.47-.53.53.53,0,0,0,0,1.06A.48.48,0,0,0,54.54,151.05Z"/><path class="cls-16" d="M56.29,151.05a.67.67,0,1,1-.66-.72A.67.67,0,0,1,56.29,151.05Zm-1.14,0a.48.48,0,1,0,.48-.53A.49.49,0,0,0,55.15,151.05Z"/><path class="cls-16" d="M57.46,151.55a.58.58,0,0,1-.49.23.43.43,0,0,1-.45-.44c0-.25.18-.41.5-.41h.43v-.08a.31.31,0,0,0-.35-.33.75.75,0,0,0-.43.15l-.08-.15a.87.87,0,0,1,.54-.19.46.46,0,0,1,.51.49v.94h-.19Zm0-.28v-.17H57c-.22,0-.34.07-.34.23s.12.26.31.26A.43.43,0,0,0,57.45,151.27Z"/><path class="cls-16" d="M58.28,150.65a.5.5,0,0,1,.47-.32v.21a.46.46,0,0,0-.47.47v.75h-.2v-1.42h.2Z"/><path class="cls-16" d="M60.23,151.76H60v-.31a.55.55,0,0,1-.52.33.67.67,0,0,1-.64-.73.65.65,0,0,1,.64-.72.55.55,0,0,1,.52.31v-.88h.19Zm-.19-.7a.48.48,0,1,0-1,0,.48.48,0,1,0,1,0Z"/><rect class="cls-18" x="22.12" y="160.5" width="95.64" height="12.43"/><rect class="cls-19" x="22.12" y="172.53" width="95.64" height="4.18"/><rect class="cls-20" x="23.07" y="158.62" width="7.52" height="8.1" rx="0.7" ry="0.7"/><path class="cls-21" d="M28,160.91a1.13,1.13,0,1,1-1.13-1.21A1.16,1.16,0,0,1,28,160.91Z"/><rect class="cls-21" x="24.82" y="162.4" width="4.01" height="2.97" rx="0.28" ry="0.28"/><rect class="cls-21" x="110.63" y="162.4" width="4.76" height="0.54"/><rect class="cls-21" x="110.63" y="163.21" width="4.76" height="0.54"/><rect class="cls-21" x="110.63" y="164.02" width="4.76" height="0.54"/><rect class="cls-21" x="103.36" y="166.72" width="12.03" height="0.53"/><rect class="cls-22" x="23.11" y="174.56" width="6.77" height="0.54"/><path class="cls-22" d="M115.39,174.83a.5.5,0,1,1-.5-.54A.52.52,0,0,1,115.39,174.83Z"/><path class="cls-23" d="M115.14,174.83a.25.25,0,1,1-.5,0,.25.25,0,1,1,.5,0Z"/><rect class="cls-24" x="21.7" y="240.64" width="95.64" height="12.42"/><rect class="cls-19" x="21.7" y="252.93" width="95.64" height="4.19"/><rect class="cls-21" x="22.95" y="247.66" width="10.28" height="0.81"/><rect class="cls-21" x="22.95" y="246.04" width="6.77" height="0.81"/><rect class="cls-21" x="22.95" y="244.41" width="6.77" height="0.82"/><rect class="cls-21" x="114.24" y="247.66" width="0.75" height="0.81"/><rect class="cls-21" x="114.24" y="246.04" width="0.75" height="0.81"/><rect class="cls-21" x="114.24" y="244.41" width="0.75" height="0.82"/><rect class="cls-25" x="22.95" y="254.96" width="11.28" height="0.54"/><path class="cls-25" d="M115.24,255.23a.5.5,0,1,1-1,0,.5.5,0,1,1,1,0Z"/><path class="cls-23" d="M115,255.23a.26.26,0,0,1-.25.26.27.27,0,0,1,0-.53A.26.26,0,0,1,115,255.23Z"/><rect class="cls-26" x="21.77" y="260.08" width="95.62" height="12.42"/><rect class="cls-19" x="21.77" y="272.37" width="95.62" height="4.19"/><rect class="cls-21" x="22.98" y="267.1" width="8.53" height="0.81"/><rect class="cls-21" x="22.98" y="265.48" width="10.28" height="0.81"/><rect class="cls-21" x="22.98" y="263.86" width="9.53" height="0.81"/><rect class="cls-21" x="114.26" y="267.1" width="0.75" height="0.81"/><rect class="cls-21" x="114.26" y="265.48" width="0.75" height="0.81"/><rect class="cls-21" x="114.26" y="263.86" width="0.75" height="0.81"/><rect class="cls-27" x="22.98" y="274.4" width="12.54" height="0.54"/><path class="cls-27" d="M115.26,274.67a.52.52,0,0,1-.5.54.53.53,0,0,1-.5-.54.52.52,0,0,1,.5-.54A.52.52,0,0,1,115.26,274.67Z"/><path class="cls-23" d="M115,274.67a.25.25,0,1,1-.5,0,.25.25,0,1,1,.5,0Z"/><rect class="cls-28" x="21.77" y="180.71" width="95.63" height="12.43"/><rect class="cls-19" x="21.77" y="192.74" width="95.63" height="4.18"/><rect class="cls-29" x="22.93" y="178.82" width="7.53" height="8.1" rx="0.7" ry="0.7"/><path class="cls-21" d="M27.83,181.11a1.13,1.13,0,1,1-1.13-1.21A1.18,1.18,0,0,1,27.83,181.11Z"/><rect class="cls-21" x="24.69" y="182.6" width="4.01" height="2.97" rx="0.28" ry="0.28"/><rect class="cls-21" x="110.5" y="182.6" width="4.76" height="0.54"/><rect class="cls-21" x="110.5" y="183.41" width="4.76" height="0.54"/><rect class="cls-21" x="110.5" y="184.23" width="4.76" height="0.54"/><rect class="cls-21" x="103.22" y="186.92" width="12.04" height="0.53"/><rect class="cls-30" x="22.98" y="194.76" width="6.77" height="0.54"/><path class="cls-30" d="M115.26,195a.5.5,0,1,1-.5-.54A.52.52,0,0,1,115.26,195Z"/><path class="cls-23" d="M115,195a.25.25,0,1,1-.25-.27A.26.26,0,0,1,115,195Z"/><rect class="cls-31" x="22.04" y="200.92" width="95.62" height="12.43"/><rect class="cls-19" x="22.04" y="212.94" width="95.62" height="4.18"/><rect class="cls-32" x="23.03" y="199.03" width="7.52" height="8.1" rx="0.7" ry="0.7"/><rect class="cls-21" x="24.08" y="200.92" width="5.52" height="4.59" rx="0.43" ry="0.43"/><rect class="cls-33" x="24.58" y="201.73" width="4.52" height="2.98" rx="0.28" ry="0.28"/><rect class="cls-21" x="112.6" y="203.62" width="2.76" height="0.54"/><rect class="cls-21" x="112.6" y="204.43" width="2.76" height="0.54"/><rect class="cls-21" x="103.32" y="207.13" width="12.04" height="0.53"/><rect class="cls-34" x="23.07" y="214.97" width="6.77" height="0.54"/><path class="cls-34" d="M115.36,215.24a.52.52,0,0,1-.5.54.54.54,0,0,1,0-1.08A.52.52,0,0,1,115.36,215.24Z"/><path class="cls-23" d="M115.11,215.24a.25.25,0,1,1-.25-.27A.26.26,0,0,1,115.11,215.24Z"/><rect class="cls-35" x="22.04" y="220.91" width="95.62" height="12.43"/><rect class="cls-19" x="22.04" y="232.94" width="95.62" height="4.18"/><rect class="cls-36" x="23.03" y="219.02" width="7.53" height="8.1" rx="0.7" ry="0.7"/><path class="cls-21" d="M24.5,220.91h4.67a.43.43,0,0,1,.43.43v3.74a.43.43,0,0,1-.43.43H24.5a.42.42,0,0,1-.42-.42v-3.74a.42.42,0,0,1,.42-.42Z"/><rect class="cls-37" x="24.83" y="222.13" width="4.01" height="2.16" rx="0.2" ry="0.2"/><rect class="cls-21" x="112.6" y="223.62" width="2.76" height="0.54"/><rect class="cls-21" x="112.6" y="224.43" width="2.76" height="0.54"/><rect class="cls-21" x="103.32" y="227.13" width="12.04" height="0.53"/><rect class="cls-38" x="23.08" y="234.96" width="6.77" height="0.54"/><path class="cls-38" d="M115.36,235.23a.5.5,0,1,1-.5-.54A.52.52,0,0,1,115.36,235.23Z"/><path class="cls-23" d="M115.11,235.23a.25.25,0,1,1-.25-.27A.26.26,0,0,1,115.11,235.23Z"/><rect class="cls-39" x="149.38" y="20.55" width="307.18" height="10.93"/><path class="cls-16" d="M158.48,27.82l-1-3.4-1,3.4H156l-1.25-4h.47l1,3.49,1-3.49h.42l1,3.49,1-3.49h.45l-1.25,4Z"/><path class="cls-16" d="M162.83,26.49h-2.3a1,1,0,0,0,1,1,1.11,1.11,0,0,0,.87-.37l.23.26a1.38,1.38,0,0,1-1.13.51,1.54,1.54,0,0,1,0-3.07C162.42,24.76,162.87,25.46,162.83,26.49Zm-.37-.37a.91.91,0,0,0-1-.95,1,1,0,0,0-1,.95Z"/><path class="cls-16" d="M163.57,27.82V23.56H164v4.26Z"/><path class="cls-16" d="M167.23,25.22l-.23.33a1.15,1.15,0,0,0-.84-.35,1.12,1.12,0,0,0,0,2.23,1.09,1.09,0,0,0,.87-.37l.24.27a1.39,1.39,0,0,1-1.13.52,1.54,1.54,0,0,1,0-3.07A1.37,1.37,0,0,1,167.23,25.22Z"/><path class="cls-16" d="M170.46,26.31A1.43,1.43,0,1,1,169,24.78,1.42,1.42,0,0,1,170.46,26.31Zm-2.43,0a1,1,0,1,0,1-1.13A1,1,0,0,0,168,26.31Z"/><path class="cls-16" d="M175.86,26v1.86h-.42V26.07a.75.75,0,0,0-.78-.85,1,1,0,0,0-.93,1.11v1.49h-.42V26.07a.74.74,0,0,0-.78-.85,1,1,0,0,0-.92,1.11v1.49h-.42v-3h.42v.68a1.09,1.09,0,0,1,1.07-.71,1,1,0,0,1,1,.81,1.1,1.1,0,0,1,1.11-.81C175.47,24.76,175.86,25.22,175.86,26Z"/><path class="cls-16" d="M179.2,26.49h-2.3a1,1,0,0,0,1,1,1.13,1.13,0,0,0,.88-.37l.23.26a1.43,1.43,0,0,1-1.14.51,1.54,1.54,0,0,1,0-3.07C178.8,24.76,179.24,25.46,179.2,26.49Zm-.37-.37a.9.9,0,0,0-.94-.95,1,1,0,0,0-1,.95Z"/><path class="cls-16" d="M182.83,27.63a1.07,1.07,0,0,1-.62.22c-.43,0-.73-.26-.73-.86V25.25h-.41v-.36h.41v-.81h.41v.81h.89v.36h-.89V26.9c0,.38.14.52.38.52a.88.88,0,0,0,.45-.16Z"/><path class="cls-16" d="M186,26.31a1.43,1.43,0,1,1-1.42-1.53A1.42,1.42,0,0,1,186,26.31Zm-2.44,0a1,1,0,1,0,1-1.13A1,1,0,0,0,183.55,26.31Z"/><path class="cls-16" d="M191.44,27.82l-1-3.4-1,3.4H189l-1.25-4h.46l1,3.49,1-3.49h.43l1,3.49,1-3.49h.44l-1.25,4Z"/><path class="cls-16" d="M194.05,23.91a.28.28,0,1,1-.55,0,.28.28,0,1,1,.55,0Zm-.47,3.91v-3H194v3Z"/><path class="cls-16" d="M196.45,27.63a1.07,1.07,0,0,1-.63.22c-.42,0-.71-.26-.71-.86V25.25h-.41v-.36h.41v-.81h.41v.81h.88v.36h-.88V26.9c0,.38.13.52.37.52a.82.82,0,0,0,.45-.16Z"/><path class="cls-16" d="M198.54,27.63a1.1,1.1,0,0,1-.64.22c-.41,0-.71-.26-.71-.86V25.25h-.41v-.36h.41v-.81h.41v.81h.89v.36h-.89V26.9c0,.38.13.52.37.52a.88.88,0,0,0,.46-.16Z"/><path class="cls-16" d="M200.06,28.25c-.17.47-.47.73-.83.73a.86.86,0,0,1-.6-.23l.17-.38a.69.69,0,0,0,.4.14.56.56,0,0,0,.51-.42l.12-.28-1.16-3h.43L200,27.3l.9-2.51h.42Z"/><path class="cls-16" d="M204.89,23.8a2,2,0,0,1,0,4h-1.49v-4Zm-1.09,3.59h1.09a1.58,1.58,0,0,0,0-3.15H203.8Z"/><path class="cls-16" d="M209.28,27.36a1.18,1.18,0,0,1-1,.49.9.9,0,0,1-1-.93c0-.54.39-.86,1.05-.87h.92v-.17a.66.66,0,0,0-.75-.71,1.49,1.49,0,0,0-.9.33l-.17-.32a1.86,1.86,0,0,1,1.15-.42,1,1,0,0,1,1.09,1.06v2h-.41Zm0-.58v-.37h-.88c-.48,0-.72.16-.72.49s.24.55.65.55A.91.91,0,0,0,209.28,26.78Z"/><path class="cls-16" d="M212.26,25.05l-.15.36a1.48,1.48,0,0,0-.78-.26c-.31,0-.55.12-.55.41,0,.67,1.58.33,1.58,1.41,0,.62-.51.88-1,.88a1.54,1.54,0,0,1-1.08-.43l.16-.34a1.33,1.33,0,0,0,.93.39c.34,0,.61-.14.61-.43,0-.73-1.56-.37-1.56-1.44,0-.59.47-.84,1-.84A1.63,1.63,0,0,1,212.26,25.05Z"/><path class="cls-16" d="M215.64,26v1.86h-.41V26.07a.76.76,0,0,0-.8-.85,1,1,0,0,0-1,1.11v1.49h-.42V23.56h.42v1.91a1.13,1.13,0,0,1,1.1-.71C215.25,24.76,215.64,25.22,215.64,26Z"/><path class="cls-16" d="M219.46,26.32a1.38,1.38,0,0,1-1.35,1.53,1.18,1.18,0,0,1-1.1-.68v.65h-.41V23.56H217v1.88a1.2,1.2,0,0,1,1.09-.68A1.41,1.41,0,0,1,219.46,26.32Zm-.43,0a1,1,0,0,0-1-1.13,1,1,0,0,0-1,1.13,1,1,0,1,0,2,0Z"/><path class="cls-16" d="M222.76,26.31a1.43,1.43,0,1,1-1.42-1.53A1.43,1.43,0,0,1,222.76,26.31Zm-2.44,0a1,1,0,1,0,1-1.13A1,1,0,0,0,220.32,26.31Z"/><path class="cls-16" d="M225.23,27.36a1.17,1.17,0,0,1-1,.49.91.91,0,0,1-1-.93c0-.54.39-.86,1-.87h.93v-.17a.66.66,0,0,0-.75-.71,1.49,1.49,0,0,0-.9.33l-.18-.32a1.89,1.89,0,0,1,1.16-.42,1,1,0,0,1,1.08,1.06l0,2h-.42Zm0-.58v-.37h-.87c-.46,0-.72.16-.72.49s.26.55.65.55A.88.88,0,0,0,225.22,26.78Z"/><path class="cls-16" d="M227,25.46a1.11,1.11,0,0,1,1-.7v.46a1,1,0,0,0-1,1v1.6h-.41v-3H227Z"/><path class="cls-16" d="M231.15,27.82h-.42v-.65a1.17,1.17,0,0,1-1.1.68,1.4,1.4,0,0,1-1.36-1.54,1.4,1.4,0,0,1,1.35-1.55,1.18,1.18,0,0,1,1.11.68V23.56h.42Zm-.42-1.5a1,1,0,1,0-2,0,1,1,0,1,0,2,0Z"/><rect class="cls-40" x="149.38" y="46.45" width="72.66" height="26.49"/><rect class="cls-19" x="149.38" y="72.08" width="72.66" height="8.91"/><rect class="cls-41" x="151.96" y="42.43" width="16.02" height="17.27" rx="0.7" ry="0.7"/><path class="cls-21" d="M162.37,47.32a2.41,2.41,0,1,1-2.4-2.59A2.48,2.48,0,0,1,162.37,47.32Z"/><rect class="cls-21" x="155.7" y="50.48" width="8.54" height="6.33" rx="0.28" ry="0.28"/><rect class="cls-21" x="208.14" y="50.48" width="10.15" height="1.16"/><rect class="cls-21" x="208.14" y="52.22" width="10.15" height="1.15"/><rect class="cls-21" x="208.14" y="53.94" width="10.15" height="1.15"/><rect class="cls-21" x="192.65" y="59.7" width="25.64" height="1.14"/><rect class="cls-22" x="152.05" y="76.39" width="14.43" height="1.15"/><path class="cls-22" d="M218.29,77a1.07,1.07,0,1,1-1.07-1.15A1.11,1.11,0,0,1,218.29,77Z"/><path class="cls-23" d="M217.75,77a.55.55,0,0,1-.53.58.58.58,0,0,1,0-1.15A.55.55,0,0,1,217.75,77Z"/><rect class="cls-42" x="149.38" y="92.51" width="72.66" height="26.47"/><rect class="cls-19" x="149.38" y="118.7" width="72.66" height="8.93"/><rect class="cls-21" x="152.05" y="107.48" width="21.91" height="1.72"/><rect class="cls-21" x="152.05" y="104.02" width="14.43" height="1.72"/><rect class="cls-21" x="152.05" y="100.56" width="14.43" height="1.74"/><rect class="cls-21" x="216.16" y="107.48" width="1.59" height="1.72"/><rect class="cls-21" x="216.16" y="104.02" width="1.59" height="1.72"/><rect class="cls-21" x="216.16" y="100.56" width="1.59" height="1.74"/><rect class="cls-25" x="152.05" y="123.02" width="24.04" height="1.15"/><path class="cls-25" d="M218.29,123.6a1.07,1.07,0,1,1-1.07-1.15A1.11,1.11,0,0,1,218.29,123.6Z"/><path class="cls-23" d="M217.75,123.6a.55.55,0,0,1-.53.57.58.58,0,0,1,0-1.15A.55.55,0,0,1,217.75,123.6Z"/><rect class="cls-43" x="306.27" y="91.94" width="72.66" height="26.47"/><rect class="cls-19" x="306.27" y="118.13" width="72.66" height="8.92"/><rect class="cls-21" x="308.94" y="106.9" width="19.23" height="1.72"/><rect class="cls-21" x="308.94" y="103.45" width="14.42" height="1.72"/><rect class="cls-21" x="308.94" y="99.99" width="16.03" height="1.72"/><rect class="cls-21" x="373.05" y="106.9" width="1.59" height="1.72"/><rect class="cls-21" x="373.05" y="103.45" width="1.59" height="1.72"/><rect class="cls-21" x="373.05" y="99.99" width="1.59" height="1.72"/><rect class="cls-44" x="308.94" y="122.45" width="26.71" height="1.15"/><path class="cls-44" d="M375.18,123a1.07,1.07,0,1,1-2.13,0,1.07,1.07,0,1,1,2.13,0Z"/><path class="cls-23" d="M374.64,123a.56.56,0,0,1-.52.58.57.57,0,0,1-.54-.58.55.55,0,0,1,.54-.57A.54.54,0,0,1,374.64,123Z"/><rect class="cls-45" x="384.8" y="91.94" width="72.65" height="26.47"/><rect class="cls-19" x="384.8" y="118.13" width="72.65" height="8.92"/><rect class="cls-21" x="387.47" y="106.9" width="18.17" height="1.72"/><rect class="cls-21" x="387.47" y="103.45" width="21.9" height="1.72"/><rect class="cls-21" x="387.47" y="99.99" width="20.3" height="1.72"/><rect class="cls-21" x="451.57" y="106.9" width="1.61" height="1.72"/><rect class="cls-21" x="451.57" y="103.45" width="1.61" height="1.72"/><rect class="cls-21" x="451.57" y="99.99" width="1.61" height="1.72"/><rect class="cls-27" x="387.47" y="122.45" width="26.72" height="1.15"/><path class="cls-27" d="M453.71,123a1.07,1.07,0,1,1-1.07-1.14A1.1,1.1,0,0,1,453.71,123Z"/><path class="cls-23" d="M453.18,123a.54.54,0,1,1-1.07,0,.54.54,0,1,1,1.07,0Z"/><rect class="cls-46" x="227.91" y="91.94" width="72.65" height="26.47"/><rect class="cls-19" x="227.91" y="118.13" width="72.65" height="8.92"/><rect class="cls-21" x="230.58" y="106.9" width="18.17" height="1.72"/><rect class="cls-21" x="230.58" y="103.45" width="21.9" height="1.72"/><rect class="cls-21" x="230.58" y="99.99" width="20.3" height="1.72"/><rect class="cls-21" x="294.68" y="106.9" width="1.61" height="1.72"/><rect class="cls-21" x="294.68" y="103.45" width="1.61" height="1.72"/><rect class="cls-21" x="294.68" y="99.99" width="1.61" height="1.72"/><rect class="cls-27" x="230.58" y="122.45" width="26.72" height="1.15"/><path class="cls-27" d="M296.83,123a1.08,1.08,0,1,1-2.15,0,1.08,1.08,0,1,1,2.15,0Z"/><path class="cls-23" d="M296.29,123a.54.54,0,1,1-1.07,0,.54.54,0,1,1,1.07,0Z"/><rect class="cls-47" x="227.91" y="46.45" width="72.66" height="26.49"/><rect class="cls-19" x="227.91" y="72.08" width="72.66" height="8.91"/><rect class="cls-48" x="230.48" y="42.43" width="16.03" height="17.27" rx="0.7" ry="0.7"/><path class="cls-21" d="M240.91,47.32a2.41,2.41,0,1,1-2.41-2.59A2.49,2.49,0,0,1,240.91,47.32Z"/><rect class="cls-21" x="234.23" y="50.48" width="8.55" height="6.33" rx="0.28" ry="0.28"/><rect class="cls-21" x="286.68" y="50.48" width="10.14" height="1.16"/><rect class="cls-21" x="286.68" y="52.22" width="10.14" height="1.15"/><rect class="cls-21" x="286.68" y="53.94" width="10.14" height="1.15"/><rect class="cls-21" x="271.18" y="59.7" width="25.65" height="1.14"/><rect class="cls-30" x="230.58" y="76.39" width="14.42" height="1.15"/><path class="cls-30" d="M296.82,77a1.07,1.07,0,1,1-1.06-1.15A1.11,1.11,0,0,1,296.82,77Z"/><path class="cls-23" d="M296.28,77a.55.55,0,0,1-.52.58.58.58,0,0,1,0-1.15A.55.55,0,0,1,296.28,77Z"/><rect class="cls-49" x="306.44" y="46.45" width="72.65" height="26.49"/><rect class="cls-19" x="306.44" y="72.08" width="72.65" height="8.91"/><rect class="cls-50" x="309.02" y="42.43" width="16.03" height="17.27" rx="0.7" ry="0.7"/><rect class="cls-21" x="311.25" y="46.45" width="11.76" height="9.79" rx="0.43" ry="0.43"/><rect class="cls-51" x="312.31" y="48.18" width="9.62" height="6.34" rx="0.28" ry="0.28"/><rect class="cls-21" x="369.48" y="52.22" width="5.88" height="1.15"/><rect class="cls-21" x="369.48" y="53.94" width="5.88" height="1.15"/><rect class="cls-21" x="349.71" y="59.7" width="25.65" height="1.14"/><rect class="cls-34" x="309.11" y="76.39" width="14.43" height="1.15"/><path class="cls-34" d="M375.35,77a1.07,1.07,0,1,1-1.07-1.15A1.11,1.11,0,0,1,375.35,77Z"/><path class="cls-23" d="M374.82,77a.54.54,0,1,1-.54-.57A.56.56,0,0,1,374.82,77Z"/><rect class="cls-52" x="384.44" y="46.45" width="72.65" height="26.49"/><rect class="cls-19" x="384.44" y="72.08" width="72.65" height="8.91"/><rect class="cls-53" x="387.01" y="42.43" width="16.03" height="17.27" rx="0.7" ry="0.7"/><path class="cls-21" d="M389.66,46.45h10.9a.43.43,0,0,1,.43.43v8.93a.43.43,0,0,1-.43.43h-10.9a.42.42,0,0,1-.42-.42V46.88A.42.42,0,0,1,389.66,46.45Z"/><rect class="cls-37" x="390.85" y="49.04" width="8.55" height="4.61" rx="0.2" ry="0.2"/><rect class="cls-21" x="447.47" y="52.22" width="5.88" height="1.15"/><rect class="cls-21" x="447.47" y="53.94" width="5.88" height="1.15"/><rect class="cls-21" x="427.71" y="59.7" width="25.65" height="1.14"/><rect class="cls-38" x="387.11" y="76.39" width="14.42" height="1.15"/><path class="cls-38" d="M453.35,77a1.07,1.07,0,1,1-1.06-1.15A1.11,1.11,0,0,1,453.35,77Z"/><path class="cls-23" d="M452.81,77a.55.55,0,0,1-.52.58.58.58,0,0,1,0-1.15A.55.55,0,0,1,452.81,77Z"/><g class="cls-54"><path class="cls-21" d="M273.23,199.16H155.09a3.11,3.11,0,0,1-3-3.17V142.61a3.11,3.11,0,0,1,3-3.17H273.23a3.11,3.11,0,0,1,3,3.17V196A3.11,3.11,0,0,1,273.23,199.16Z"/><path class="cls-21" d="M273.23,199.24H155.09A3.19,3.19,0,0,1,152,196V142.61a3.19,3.19,0,0,1,3.11-3.25H273.23a3.19,3.19,0,0,1,3.11,3.25V196A3.19,3.19,0,0,1,273.23,199.24ZM155.09,139.51a3,3,0,0,0-3,3.1V196a3,3,0,0,0,3,3.09H273.23a3,3,0,0,0,3-3.09V142.61a3,3,0,0,0-3-3.1Z"/><path class="cls-21" d="M454.12,199.16H284.65a3.11,3.11,0,0,1-3-3.17V142.61a3.11,3.11,0,0,1,3-3.17H454.12a3.11,3.11,0,0,1,3,3.17V196A3.11,3.11,0,0,1,454.12,199.16Z"/><path class="cls-21" d="M454.12,199.24H284.65a3.19,3.19,0,0,1-3.11-3.25V142.61a3.19,3.19,0,0,1,3.11-3.25H454.12a3.19,3.19,0,0,1,3.11,3.25V196A3.19,3.19,0,0,1,454.12,199.24ZM284.65,139.51a3,3,0,0,0-3,3.1V196a3,3,0,0,0,3,3.09H454.12a3,3,0,0,0,3-3.09V142.61a3,3,0,0,0-3-3.1Z"/><rect class="cls-55" x="154.9" y="143.63" width="23.71" height="3.37"/><rect class="cls-55" x="285.57" y="143.63" width="18.19" height="3.37"/><rect class="cls-55" x="285.57" y="164.7" width="23.87" height="3.37"/><rect class="cls-56" x="154.9" y="148.03" width="118.33" height="0.2"/><rect class="cls-56" x="285.57" y="148.03" width="169.17" height="0.2"/><rect class="cls-56" x="285.57" y="169.2" width="169.17" height="0.2"/><rect class="cls-56" x="154.9" y="157.9" width="118.33" height="0.2"/><rect class="cls-56" x="154.9" y="165.62" width="118.33" height="0.2"/><rect class="cls-56" x="154.9" y="172.98" width="118.33" height="0.2"/><rect class="cls-56" x="154.9" y="180.65" width="118.33" height="0.2"/><rect class="cls-56" x="154.9" y="188.32" width="118.33" height="0.2"/><rect class="cls-57" x="154.9" y="158" width="118.33" height="7.72"/><rect class="cls-57" x="154.9" y="173.08" width="118.33" height="7.72"/><rect class="cls-57" x="154.9" y="188.17" width="118.33" height="7.72"/><rect class="cls-58" x="156.56" y="152.83" width="14.01" height="2.45"/><rect class="cls-58" x="200.58" y="152.83" width="22.92" height="2.45"/><rect class="cls-58" x="156.56" y="161.46" width="9.21" height="0.95"/><rect class="cls-58" x="156.56" y="168.92" width="9.21" height="0.95"/><rect class="cls-58" x="156.56" y="176.44" width="9.21" height="0.95"/><rect class="cls-58" x="156.56" y="184.01" width="9.21" height="0.95"/><rect class="cls-58" x="156.56" y="191.55" width="9.21" height="0.95"/><rect class="cls-58" x="200.84" y="161.46" width="25.53" height="0.95"/><rect class="cls-58" x="200.84" y="168.92" width="25.53" height="0.95"/><rect class="cls-58" x="200.84" y="176.44" width="25.53" height="0.95"/><rect class="cls-58" x="200.84" y="184.01" width="25.53" height="0.95"/><rect class="cls-58" x="200.84" y="191.55" width="25.53" height="0.95"/><path class="cls-59" d="M352.28,158.56H288.12a.3.3,0,0,1-.3-.31v-7.87a.3.3,0,0,1,.3-.31h64.16a.3.3,0,0,1,.29.31v7.87A.3.3,0,0,1,352.28,158.56Zm-64.16-8.28a.09.09,0,0,0-.1.1v7.87a.1.1,0,0,0,.1.11h64.16a.1.1,0,0,0,.09-.11v-7.87a.09.09,0,0,0-.09-.1Z"/><path class="cls-59" d="M366.48,179.73H288.12a.3.3,0,0,1-.3-.31v-7.87a.3.3,0,0,1,.3-.31h78.36a.3.3,0,0,1,.29.31v7.87A.3.3,0,0,1,366.48,179.73Zm-78.36-8.28a.09.09,0,0,0-.1.1v7.87a.09.09,0,0,0,.1.1h78.36a.1.1,0,0,0,.1-.1v-7.87a.1.1,0,0,0-.1-.1Z"/><path class="cls-59" d="M366.48,191.29H288.12a.3.3,0,0,1-.3-.31V183.1a.3.3,0,0,1,.3-.3h78.36a.3.3,0,0,1,.29.3V191A.3.3,0,0,1,366.48,191.29ZM288.12,183a.1.1,0,0,0-.1.1V191a.09.09,0,0,0,.1.1h78.36a.1.1,0,0,0,.1-.1V183.1a.11.11,0,0,0-.1-.1Z"/><path class="cls-59" d="M451.5,179.73H373.14a.3.3,0,0,1-.29-.31v-7.87a.3.3,0,0,1,.29-.31H451.5a.3.3,0,0,1,.3.31v7.87A.3.3,0,0,1,451.5,179.73Zm-78.36-8.28a.1.1,0,0,0-.1.1v7.87a.1.1,0,0,0,.1.1H451.5a.09.09,0,0,0,.1-.1v-7.87a.09.09,0,0,0-.1-.1Z"/><path class="cls-59" d="M409.19,158.56H358.74a.3.3,0,0,1-.29-.31v-7.87a.3.3,0,0,1,.29-.31h50.45a.3.3,0,0,1,.29.31v7.87A.3.3,0,0,1,409.19,158.56Zm-50.45-8.28a.1.1,0,0,0-.1.1v7.87a.11.11,0,0,0,.1.11h50.45a.11.11,0,0,0,.1-.11v-7.87a.1.1,0,0,0-.1-.1Z"/><rect class="cls-58" x="291.22" y="153.62" width="18.22" height="1.98"/><rect class="cls-58" x="291.22" y="175.11" width="18.22" height="1.98"/><rect class="cls-58" x="361.04" y="153.62" width="12.73" height="1.98"/><rect class="cls-58" x="375.28" y="174.5" width="12.73" height="1.98"/><rect class="cls-58" x="290.38" y="186.43" width="12.73" height="1.98"/><rect class="cls-58" x="358.84" y="182.9" width="0.2" height="8.28"/><rect class="cls-58" x="361.24" y="185.81" width="2.82" height="2.94"/><rect class="cls-58" x="446.31" y="173.85" width="2.69" height="2.81"/><polygon class="cls-58" points="364.86 176.13 365.52 174.94 364.21 174.94 364.86 176.13"/><polygon class="cls-58" points="350.64 155.03 351.3 153.84 349.99 153.84 350.64 155.03"/><path class="cls-60" d="M425.89,157.54h-7.54a3.29,3.29,0,0,1-3.21-3.35h0a3.29,3.29,0,0,1,3.21-3.35h7.54a3.3,3.3,0,0,1,3.21,3.35h0A3.3,3.3,0,0,1,425.89,157.54Z"/><rect class="cls-16" x="417.2" y="153.36" width="9.84" height="1.65"/><path class="cls-60" d="M383.7,190.63h-7.55a3.29,3.29,0,0,1-3.21-3.35h0a3.29,3.29,0,0,1,3.21-3.34h7.55a3.28,3.28,0,0,1,3.2,3.34h0A3.28,3.28,0,0,1,383.7,190.63Z"/><rect class="cls-16" x="375" y="186.46" width="9.84" height="1.65"/></g><path class="cls-14" d="M132.52,139a6.53,6.53,0,0,0-6.53-6.53H14.38A6.53,6.53,0,0,0,7.85,139V287.71a6.53,6.53,0,0,0,6.53,6.53H126a6.53,6.53,0,0,0,6.53-6.53ZM119.69,280.49H20.23V146.65h99.46Z"/><g class="cls-61"><path class="cls-62" d="M139.37,301c0,3.86-31.2,7-69.69,7S0,304.81,0,301s31.2-7,69.68-7S139.37,297.09,139.37,301Z"/></g><g class="cls-63"><path class="cls-64" d="M219.27,301c0,1.79-17,3.24-38,3.24s-38-1.45-38-3.24,17-3.24,38-3.24S219.27,299.16,219.27,301Z"/></g><path class="cls-14" d="M208.39,191.3a7.64,7.64,0,0,0-7.63-7.63H162.44a7.64,7.64,0,0,0-7.63,7.63v98.13a7.64,7.64,0,0,0,7.63,7.63h38.32a7.64,7.64,0,0,0,7.63-7.63Zm-21.18,2.38a1.21,1.21,0,0,1-1.21,1.2h-8.18a1.2,1.2,0,0,1-1.2-1.2v-.08a1.21,1.21,0,0,1,1.2-1.21H186a1.21,1.21,0,0,1,1.21,1.21Zm17.44,87.18H159.17v-81h45.48Z"/><rect class="cls-16" x="159.18" y="199.87" width="45.47" height="80.99"/><rect class="cls-65" x="160.33" y="218.43" width="43.28" height="5.82"/><path class="cls-16" d="M164.19,222l-.43-1.42-.43,1.42h-.18l-.53-1.69h.2l.43,1.47.43-1.47h.17l.43,1.47.43-1.47h.19l-.52,1.69Z"/><path class="cls-16" d="M166,221.48h-1a.43.43,0,0,0,.43.4.45.45,0,0,0,.36-.16l.1.11a.58.58,0,0,1-.48.22.6.6,0,0,1-.59-.65.59.59,0,0,1,.59-.64C165.84,220.75,166,221,166,221.48Zm-.15-.16a.38.38,0,0,0-.4-.4.41.41,0,0,0-.41.4Z"/><path class="cls-16" d="M166.33,222v-1.79h.17V222Z"/><path class="cls-16" d="M167.86,220.94l-.1.14a.49.49,0,0,0-.35-.15.47.47,0,0,0,0,.94.44.44,0,0,0,.37-.16l.1.12a.61.61,0,0,1-.48.22.59.59,0,0,1-.58-.65.58.58,0,0,1,.58-.64A.56.56,0,0,1,167.86,220.94Z"/><path class="cls-16" d="M169.22,221.4a.6.6,0,1,1-1.2,0,.6.6,0,1,1,1.2,0Zm-1,0a.42.42,0,1,0,.42-.47A.42.42,0,0,0,168.2,221.4Z"/><path class="cls-16" d="M171.48,221.25V222h-.17v-.73a.32.32,0,0,0-.33-.36.41.41,0,0,0-.39.47V222h-.18v-.73c0-.23-.11-.36-.32-.36a.42.42,0,0,0-.39.47V222h-.18v-1.27h.18v.29a.47.47,0,0,1,.45-.3.41.41,0,0,1,.43.34.46.46,0,0,1,.46-.34C171.32,220.75,171.48,220.94,171.48,221.25Z"/><path class="cls-16" d="M172.89,221.48h-1a.43.43,0,0,0,.43.4.47.47,0,0,0,.37-.16l.1.11a.62.62,0,0,1-.48.22.6.6,0,0,1-.59-.65.59.59,0,0,1,.59-.64C172.72,220.75,172.91,221,172.89,221.48Zm-.16-.16a.38.38,0,0,0-.39-.4.41.41,0,0,0-.42.4Z"/><path class="cls-16" d="M174.41,222a.44.44,0,0,1-.26.1c-.18,0-.31-.11-.31-.37V221h-.17v-.15h.17v-.34H174v.34h.37V221H174v.7c0,.15,0,.21.16.21a.32.32,0,0,0,.18-.06Z"/><path class="cls-16" d="M175.74,221.4a.6.6,0,1,1-1.2,0,.6.6,0,1,1,1.2,0Zm-1,0a.43.43,0,1,0,.43-.47A.43.43,0,0,0,174.71,221.4Z"/><path class="cls-16" d="M178,222l-.43-1.42-.43,1.42H177l-.53-1.69h.19l.43,1.47.43-1.47h.18l.43,1.47.43-1.47h.19l-.53,1.69Z"/><path class="cls-16" d="M179.12,220.39a.12.12,0,0,1-.12.13.12.12,0,0,1-.11-.13.12.12,0,1,1,.23,0Zm-.2,1.64v-1.27h.18V222Z"/><path class="cls-16" d="M180.13,222a.44.44,0,0,1-.26.1c-.18,0-.3-.11-.3-.37V221h-.17v-.15h.17v-.34h.17v.34h.37V221h-.37v.7c0,.15,0,.21.15.21a.33.33,0,0,0,.19-.06Z"/><path class="cls-16" d="M181,222a.47.47,0,0,1-.27.1c-.17,0-.3-.11-.3-.37V221h-.17v-.15h.17v-.34h.17v.34H181V221h-.38v.7c0,.15.06.21.16.21a.38.38,0,0,0,.19-.06Z"/><path class="cls-16" d="M181.65,222.21c-.08.2-.2.31-.35.31a.4.4,0,0,1-.26-.1l.08-.15a.33.33,0,0,0,.16,0c.1,0,.17,0,.22-.18l.05-.11-.49-1.27h.18l.4,1.06.37-1.06h.18Z"/><path class="cls-16" d="M183.67,220.34a.85.85,0,0,1,0,1.69H183v-1.69Zm-.46,1.51h.46a.66.66,0,0,0,0-1.32h-.46Z"/><path class="cls-16" d="M185.51,221.84a.48.48,0,0,1-.43.21.39.39,0,0,1-.4-.4c0-.22.16-.36.44-.36h.39v-.07a.28.28,0,0,0-.32-.3.61.61,0,0,0-.37.14l-.08-.13a.77.77,0,0,1,.48-.18.42.42,0,0,1,.47.44V222h-.18Zm0-.24v-.16h-.37c-.19,0-.3.07-.3.21s.11.23.28.23A.37.37,0,0,0,185.51,221.6Z"/><path class="cls-16" d="M186.77,220.87l-.07.15a.62.62,0,0,0-.32-.11c-.13,0-.23.05-.23.17,0,.29.66.14.66.6,0,.26-.22.37-.44.37a.62.62,0,0,1-.45-.19l.06-.14a.58.58,0,0,0,.4.17c.14,0,.25-.06.25-.18,0-.31-.65-.16-.65-.61,0-.25.19-.35.41-.35A.69.69,0,0,1,186.77,220.87Z"/><path class="cls-16" d="M188.18,221.25V222H188v-.73a.31.31,0,0,0-.33-.36.42.42,0,0,0-.4.47V222h-.18v-1.79h.18v.81a.47.47,0,0,1,.46-.3C188,220.75,188.18,220.94,188.18,221.25Z"/><path class="cls-16" d="M189.79,221.4a.59.59,0,0,1-.57.65.5.5,0,0,1-.46-.29V222h-.17v-1.79h.17v.8a.5.5,0,0,1,.46-.29A.59.59,0,0,1,189.79,221.4Zm-.18,0a.42.42,0,0,0-.42-.47.47.47,0,1,0,.42.47Z"/><path class="cls-16" d="M191.17,221.4a.6.6,0,1,1-.59-.64A.59.59,0,0,1,191.17,221.4Zm-1,0a.43.43,0,1,0,.43-.47A.43.43,0,0,0,190.15,221.4Z"/><path class="cls-16" d="M192.21,221.84a.48.48,0,0,1-.43.21.4.4,0,0,1-.41-.4c0-.22.17-.36.45-.36h.39v-.07a.28.28,0,0,0-.32-.3.66.66,0,0,0-.38.14l-.07-.13a.76.76,0,0,1,.49-.18.41.41,0,0,1,.45.44V222h-.18Zm0-.24v-.16h-.37c-.19,0-.3.07-.3.21a.24.24,0,0,0,.27.23A.38.38,0,0,0,192.21,221.6Z"/><path class="cls-16" d="M193,221a.46.46,0,0,1,.42-.29v.19a.42.42,0,0,0-.42.42V222h-.18v-1.27H193Z"/><path class="cls-16" d="M194.7,222h-.18v-.27a.5.5,0,0,1-.46.29.66.66,0,0,1,0-1.3.48.48,0,0,1,.46.29v-.8h.18Zm-.18-.63a.43.43,0,0,0-.43-.47.47.47,0,0,0,0,.94A.43.43,0,0,0,194.52,221.4Z"/><rect class="cls-66" x="160.45" y="227.91" width="42.9" height="11.12"/><rect class="cls-19" x="160.45" y="238.67" width="42.9" height="3.74"/><rect class="cls-67" x="161.45" y="226.23" width="6.73" height="7.25" rx="0.7" ry="0.7"/><path class="cls-21" d="M165.82,228.28a1,1,0,1,1-1-1.09A1,1,0,0,1,165.82,228.28Z"/><rect class="cls-21" x="163.02" y="229.61" width="3.59" height="2.66" rx="0.28" ry="0.28"/><rect class="cls-21" x="197.1" y="229.61" width="4.26" height="0.49"/><rect class="cls-21" x="197.1" y="230.34" width="4.26" height="0.48"/><rect class="cls-21" x="197.1" y="231.06" width="4.26" height="0.48"/><rect class="cls-21" x="190.59" y="233.48" width="10.76" height="0.48"/><rect class="cls-22" x="161.49" y="240.48" width="6.06" height="0.48"/><path class="cls-22" d="M201.36,240.73a.46.46,0,0,1-.45.48.45.45,0,0,1-.44-.48.46.46,0,0,1,.44-.49A.47.47,0,0,1,201.36,240.73Z"/><path class="cls-23" d="M201.13,240.73a.23.23,0,0,1-.22.24.24.24,0,0,1-.23-.24.24.24,0,0,1,.23-.25A.23.23,0,0,1,201.13,240.73Z"/><rect class="cls-68" x="160.29" y="245.99" width="42.9" height="11.12"/><rect class="cls-19" x="160.29" y="256.75" width="42.9" height="3.74"/><rect class="cls-69" x="161.33" y="244.3" width="6.73" height="7.25" rx="0.7" ry="0.7"/><path class="cls-21" d="M165.71,246.35a1,1,0,1,1-1-1.08A1.05,1.05,0,0,1,165.71,246.35Z"/><rect class="cls-21" x="162.91" y="247.68" width="3.59" height="2.66" rx="0.28" ry="0.28"/><rect class="cls-21" x="196.99" y="247.68" width="4.26" height="0.49"/><rect class="cls-21" x="196.99" y="248.41" width="4.26" height="0.48"/><rect class="cls-21" x="196.99" y="249.13" width="4.26" height="0.48"/><rect class="cls-21" x="190.48" y="251.55" width="10.77" height="0.48"/><rect class="cls-30" x="161.37" y="258.55" width="6.05" height="0.48"/><path class="cls-30" d="M201.25,258.8a.47.47,0,0,1-.45.48.46.46,0,0,1-.45-.48.47.47,0,0,1,.45-.49A.48.48,0,0,1,201.25,258.8Z"/><path class="cls-23" d="M201,258.8a.23.23,0,0,1-.22.24.24.24,0,0,1-.23-.24.24.24,0,0,1,.23-.25A.24.24,0,0,1,201,258.8Z"/><rect class="cls-70" x="160.42" y="264.06" width="42.89" height="11.12"/><rect class="cls-19" x="160.42" y="274.82" width="42.89" height="3.74"/><rect class="cls-71" x="161.42" y="262.37" width="6.73" height="7.25" rx="0.7" ry="0.7"/><rect class="cls-21" x="162.36" y="264.06" width="4.94" height="4.11" rx="0.43" ry="0.43"/><rect class="cls-72" x="162.81" y="264.79" width="4.04" height="2.66" rx="0.28" ry="0.28"/><rect class="cls-21" x="198.87" y="266.48" width="2.47" height="0.48"/><rect class="cls-21" x="198.87" y="267.21" width="2.47" height="0.48"/><rect class="cls-21" x="190.57" y="269.62" width="10.77" height="0.48"/><rect class="cls-34" x="161.46" y="276.63" width="6.06" height="0.48"/><path class="cls-34" d="M201.33,276.87a.47.47,0,0,1-.45.49.48.48,0,0,1-.45-.49.47.47,0,0,1,.45-.48A.46.46,0,0,1,201.33,276.87Z"/><path class="cls-23" d="M201.11,276.87a.23.23,0,1,1-.23-.24A.23.23,0,0,1,201.11,276.87Z"/><rect class="cls-73" x="159.17" y="199.87" width="45.48" height="17.27"/><rect class="cls-21" x="162.44" y="207.44" width="38.59" height="1.94"/><rect class="cls-21" x="165.46" y="213.26" width="11.64" height="1.15"/><rect class="cls-21" x="180.98" y="213.26" width="9.05" height="1.15"/><rect class="cls-21" x="178.4" y="213.26" width="1.94" height="1.15"/><rect class="cls-21" x="191.97" y="213.26" width="1.94" height="1.15"/><path class="cls-74" d="M188.94,183.67h12.33a8.69,8.69,0,0,1,6.91,5.58l.17,87.61a3.52,3.52,0,0,1-3.08,3.72c-3.36-.25-50.59,0-50.59,0"/><path class="cls-75" d="M413.31,0h63.6s12.19.09,10.87,12.51l-.39,206.42H282.53"/><g class="cls-76"><path class="cls-77" d="M708.61,301c0,4-76,7.25-169.71,7.25S369.2,305,369.2,301s76-7.25,169.7-7.25S708.61,296.94,708.61,301Z"/></g><path d="M652.68,276.16c0,3.9-2.36,7.07-5.27,7.07h-219c-2.91,0-5.27-3.17-5.27-7.07V135.66c0-3.9,2.36-7.07,5.27-7.07h219c2.91,0,5.27,3.17,5.27,7.07Z"/><rect class="cls-16" x="432.3" y="137.08" width="211.85" height="130.6"/><path class="cls-78" d="M384.06,285.36s-1.91,3.56,11.66,6.52h284s9.5-.6,12-5.08v-2.46Z"/><path class="cls-79" d="M384.13,278.18H691.88v7.91s.46,1.05-3.16.79H387s-2.84.79-3.1-1.06Z"/><path class="cls-78" d="M677.59,282.8a.52.52,0,0,1-.46.55H666.66a.52.52,0,0,1-.46-.55h0a.52.52,0,0,1,.46-.56h10.47a.52.52,0,0,1,.46.56Z"/><path class="cls-80" d="M517.1,278.25s-1.18,3.95,2.77,4.34h35.7s3.8.5,3.29-4.21Z"/><path class="cls-81" d="M517.3,278.24h0v-.09h-.44s-1.07,3.43,2.26,4.08C516.31,281.39,517.3,278.24,517.3,278.24Z"/><path class="cls-82" d="M559.06,278.37h-.38v.09c.28,4.45-3.31,3.84-3.31,3.84h-35.7a3.92,3.92,0,0,1-.51-.07,4.34,4.34,0,0,0,.91.17h35.7S559.46,283,559.06,278.37Z"/><path class="cls-83" d="M558.68,278.46v-.09h0A.28.28,0,0,0,558.68,278.46Z"/><rect class="cls-84" x="437.59" y="143.74" width="199.77" height="7.11"/><path class="cls-16" d="M443.51,148.47l-.66-2.21-.67,2.21h-.28l-.81-2.62h.3l.66,2.27.67-2.27H443l.67,2.27.66-2.27h.29l-.81,2.62Z"/><path class="cls-16" d="M446.34,147.6h-1.49a.66.66,0,0,0,.66.63.73.73,0,0,0,.56-.24l.15.17a.9.9,0,0,1-.73.33,1,1,0,0,1,0-2C446.07,146.48,446.37,146.93,446.34,147.6Zm-.24-.24a.6.6,0,0,0-.62-.62.63.63,0,0,0-.63.62Z"/><path class="cls-16" d="M446.82,148.47v-2.78h.27v2.78Z"/><path class="cls-16" d="M449.2,146.78l-.15.21a.75.75,0,0,0-.54-.23.73.73,0,0,0,0,1.45.68.68,0,0,0,.56-.24l.16.18a.9.9,0,0,1-.74.34,1,1,0,0,1,0-2A.88.88,0,0,1,449.2,146.78Z"/><path class="cls-16" d="M451.31,147.48a.93.93,0,1,1-1.86,0,.93.93,0,1,1,1.86,0Zm-1.59,0a.66.66,0,1,0,.66-.73A.67.67,0,0,0,449.72,147.48Z"/><path class="cls-16" d="M454.81,147.26v1.21h-.27v-1.14a.49.49,0,0,0-.51-.55c-.38,0-.6.3-.6.72v1h-.28v-1.14c0-.35-.18-.55-.5-.55a.64.64,0,0,0-.6.72v1h-.27v-2h.27v.44a.71.71,0,0,1,.7-.46.64.64,0,0,1,.66.53.71.71,0,0,1,.72-.53C454.56,146.48,454.81,146.78,454.81,147.26Z"/><path class="cls-16" d="M457,147.6h-1.5a.66.66,0,0,0,.67.63.73.73,0,0,0,.56-.24l.16.17a1,1,0,0,1-.75.33,1,1,0,0,1,0-2C456.72,146.48,457,146.93,457,147.6Zm-.25-.24a.58.58,0,0,0-.61-.62.63.63,0,0,0-.64.62Z"/><path class="cls-16" d="M459.35,148.35a.81.81,0,0,1-.41.14c-.28,0-.47-.17-.47-.56V146.8h-.27v-.24h.27V146h.26v.52h.58v.24h-.58v1.07c0,.24.1.34.25.34a.53.53,0,0,0,.29-.11Z"/><path class="cls-16" d="M461.4,147.48a.93.93,0,1,1-.92-1A.92.92,0,0,1,461.4,147.48Zm-1.58,0a.66.66,0,1,0,.66-.73A.67.67,0,0,0,459.82,147.48Z"/><path class="cls-16" d="M465,148.47l-.67-2.21-.66,2.21h-.28l-.82-2.62h.3l.67,2.27.66-2.27h.28l.66,2.27.67-2.27h.29l-.82,2.62Z"/><path class="cls-16" d="M466.64,145.93a.18.18,0,1,1-.35,0,.18.18,0,1,1,.35,0Zm-.3,2.54v-2h.26v2Z"/><path class="cls-16" d="M468.21,148.35a.81.81,0,0,1-.41.14c-.28,0-.47-.17-.47-.56V146.8h-.26v-.24h.26V146h.27v.52h.57v.24h-.57v1.07c0,.24.08.34.24.34a.5.5,0,0,0,.29-.11Z"/><path class="cls-16" d="M469.56,148.35a.78.78,0,0,1-.41.14c-.27,0-.47-.17-.47-.56V146.8h-.26v-.24h.26V146H469v.52h.58v.24H469v1.07c0,.24.09.34.24.34a.53.53,0,0,0,.3-.11Z"/><path class="cls-16" d="M470.55,148.75c-.11.31-.3.47-.54.47a.54.54,0,0,1-.39-.15l.11-.24a.45.45,0,0,0,.26.09c.15,0,.26-.09.34-.28l.07-.18-.75-2h.28l.61,1.63.58-1.63h.28Z"/><path class="cls-16" d="M473.69,145.85a1.31,1.31,0,0,1,0,2.62h-1v-2.62Zm-.71,2.34h.71a1,1,0,0,0,0-2.05H473Z"/><path class="cls-16" d="M476.54,148.17a.76.76,0,0,1-.67.32.6.6,0,0,1-.62-.61c0-.35.26-.56.69-.57h.6v-.11a.43.43,0,0,0-.49-.46,1,1,0,0,0-.59.22l-.11-.21a1.23,1.23,0,0,1,.75-.27.65.65,0,0,1,.71.69v1.3h-.27Zm0-.38v-.24H476c-.3,0-.46.1-.46.32s.16.36.42.36A.58.58,0,0,0,476.54,147.79Z"/><path class="cls-16" d="M478.49,146.67l-.1.23a1,1,0,0,0-.51-.17c-.2,0-.36.08-.36.27,0,.44,1,.21,1,.92,0,.4-.33.57-.67.57a1,1,0,0,1-.71-.28l.1-.22a.9.9,0,0,0,.61.25c.22,0,.4-.09.4-.28,0-.48-1-.24-1-.94,0-.38.3-.54.63-.54A1,1,0,0,1,478.49,146.67Z"/><path class="cls-16" d="M480.68,147.26v1.21h-.26v-1.14a.49.49,0,0,0-.53-.55c-.38,0-.61.3-.61.72v1H479v-2.78h.27v1.25a.72.72,0,0,1,.71-.46C480.43,146.48,480.68,146.78,480.68,147.26Z"/><path class="cls-16" d="M483.17,147.49a.9.9,0,0,1-.88,1,.75.75,0,0,1-.71-.45v.43h-.27v-2.78h.27v1.23a.77.77,0,0,1,.7-.44A.91.91,0,0,1,483.17,147.49Zm-.28,0a.66.66,0,1,0-1.31,0,.66.66,0,0,0,.65.73A.67.67,0,0,0,482.89,147.48Z"/><path class="cls-16" d="M485.31,147.48a.93.93,0,1,1-.92-1A.93.93,0,0,1,485.31,147.48Zm-1.58,0a.66.66,0,1,0,.66-.73A.67.67,0,0,0,483.73,147.48Z"/><path class="cls-16" d="M486.92,148.17a.77.77,0,0,1-.67.32.6.6,0,0,1-.63-.61c0-.35.26-.56.69-.57h.61v-.11a.43.43,0,0,0-.49-.46,1,1,0,0,0-.59.22l-.12-.21a1.25,1.25,0,0,1,.76-.27.63.63,0,0,1,.7.69v1.3h-.27Zm0-.38v-.24h-.57c-.3,0-.47.1-.47.32s.17.36.42.36A.59.59,0,0,0,486.92,147.79Z"/><path class="cls-16" d="M488.06,146.93a.72.72,0,0,1,.66-.45v.3a.64.64,0,0,0-.66.65v1h-.27v-2h.27Z"/><path class="cls-16" d="M490.77,148.47h-.27V148a.76.76,0,0,1-.72.45,1,1,0,0,1,0-2,.77.77,0,0,1,.72.44v-1.23h.27Zm-.27-1a.67.67,0,1,0-1.33,0,.67.67,0,1,0,1.33,0Z"/><rect class="cls-85" x="437.59" y="160.58" width="47.25" height="17.23"/><rect class="cls-19" x="437.59" y="177.25" width="47.25" height="5.79"/><rect class="cls-86" x="439.27" y="157.97" width="10.42" height="11.23" rx="0.7" ry="0.7"/><path class="cls-21" d="M446,161.15a1.56,1.56,0,1,1-1.56-1.68A1.62,1.62,0,0,1,446,161.15Z"/><rect class="cls-21" x="441.7" y="163.2" width="5.56" height="4.12" rx="0.28" ry="0.28"/><rect class="cls-21" x="475.81" y="163.2" width="6.6" height="0.75"/><rect class="cls-21" x="475.81" y="164.33" width="6.6" height="0.75"/><rect class="cls-21" x="475.81" y="165.46" width="6.6" height="0.75"/><rect class="cls-21" x="465.73" y="169.2" width="16.67" height="0.74"/><rect class="cls-22" x="439.33" y="180.05" width="9.38" height="0.75"/><path class="cls-22" d="M482.41,180.43a.7.7,0,1,1-.7-.75A.72.72,0,0,1,482.41,180.43Z"/><path class="cls-23" d="M482.06,180.43a.36.36,0,0,1-.35.37.38.38,0,0,1,0-.75A.36.36,0,0,1,482.06,180.43Z"/><rect class="cls-87" x="437.59" y="190.54" width="47.25" height="17.21"/><rect class="cls-19" x="437.59" y="207.57" width="47.25" height="5.81"/><rect class="cls-21" x="439.33" y="200.27" width="14.25" height="1.12"/><rect class="cls-21" x="439.33" y="198.03" width="9.38" height="1.12"/><rect class="cls-21" x="439.33" y="195.77" width="9.38" height="1.13"/><rect class="cls-21" x="481.02" y="200.27" width="1.04" height="1.12"/><rect class="cls-21" x="481.02" y="198.03" width="1.04" height="1.12"/><rect class="cls-21" x="481.02" y="195.77" width="1.04" height="1.13"/><rect class="cls-25" x="439.33" y="210.38" width="15.63" height="0.75"/><path class="cls-25" d="M482.41,210.75a.7.7,0,1,1-1.39,0,.7.7,0,1,1,1.39,0Z"/><path class="cls-23" d="M482.06,210.75a.35.35,0,0,1-.35.37.36.36,0,0,1-.35-.37.37.37,0,0,1,.35-.37A.36.36,0,0,1,482.06,210.75Z"/><rect class="cls-88" x="539.62" y="190.17" width="47.25" height="17.21"/><rect class="cls-19" x="539.62" y="207.2" width="47.25" height="5.8"/><rect class="cls-21" x="541.36" y="199.9" width="12.5" height="1.12"/><rect class="cls-21" x="541.36" y="197.65" width="9.38" height="1.12"/><rect class="cls-21" x="541.36" y="195.4" width="10.42" height="1.12"/><rect class="cls-21" x="583.05" y="199.9" width="1.04" height="1.12"/><rect class="cls-21" x="583.05" y="197.65" width="1.04" height="1.12"/><rect class="cls-21" x="583.05" y="195.4" width="1.04" height="1.12"/><rect class="cls-44" x="541.36" y="210.01" width="17.37" height="0.75"/><path class="cls-44" d="M584.44,210.38a.7.7,0,1,1-.69-.75A.72.72,0,0,1,584.44,210.38Z"/><path class="cls-23" d="M584.09,210.38a.36.36,0,0,1-.34.37.37.37,0,0,1-.35-.37.36.36,0,0,1,.35-.37A.35.35,0,0,1,584.09,210.38Z"/><rect class="cls-89" x="590.69" y="190.17" width="47.25" height="17.21"/><rect class="cls-19" x="590.69" y="207.2" width="47.25" height="5.8"/><rect class="cls-21" x="592.43" y="199.9" width="11.82" height="1.12"/><rect class="cls-21" x="592.43" y="197.65" width="14.25" height="1.12"/><rect class="cls-21" x="592.43" y="195.4" width="13.2" height="1.12"/><rect class="cls-21" x="634.12" y="199.9" width="1.04" height="1.12"/><rect class="cls-21" x="634.12" y="197.65" width="1.04" height="1.12"/><rect class="cls-21" x="634.12" y="195.4" width="1.04" height="1.12"/><rect class="cls-27" x="592.43" y="210.01" width="17.38" height="0.75"/><path class="cls-27" d="M635.51,210.38a.7.7,0,1,1-.7-.75A.72.72,0,0,1,635.51,210.38Z"/><path class="cls-23" d="M635.16,210.38a.37.37,0,0,1-.35.37.36.36,0,0,1-.34-.37.35.35,0,0,1,.34-.37A.36.36,0,0,1,635.16,210.38Z"/><rect class="cls-90" x="488.67" y="190.17" width="47.25" height="17.21"/><rect class="cls-19" x="488.67" y="207.2" width="47.25" height="5.8"/><rect class="cls-21" x="490.4" y="199.9" width="11.82" height="1.12"/><rect class="cls-21" x="490.4" y="197.65" width="14.25" height="1.12"/><rect class="cls-21" x="490.4" y="195.4" width="13.2" height="1.12"/><rect class="cls-21" x="532.09" y="199.9" width="1.04" height="1.12"/><rect class="cls-21" x="532.09" y="197.65" width="1.04" height="1.12"/><rect class="cls-21" x="532.09" y="195.4" width="1.04" height="1.12"/><rect class="cls-27" x="490.4" y="210.01" width="17.38" height="0.75"/><path class="cls-27" d="M533.48,210.38a.7.7,0,1,1-.7-.75A.72.72,0,0,1,533.48,210.38Z"/><path class="cls-23" d="M533.13,210.38a.35.35,0,1,1-.69,0,.35.35,0,1,1,.69,0Z"/><rect class="cls-91" x="488.66" y="160.58" width="47.25" height="17.23"/><rect class="cls-19" x="488.66" y="177.25" width="47.25" height="5.79"/><rect class="cls-92" x="490.34" y="157.97" width="10.43" height="11.23" rx="0.7" ry="0.7"/><path class="cls-21" d="M497.12,161.15a1.57,1.57,0,1,1-1.57-1.68A1.62,1.62,0,0,1,497.12,161.15Z"/><rect class="cls-21" x="492.78" y="163.2" width="5.56" height="4.12" rx="0.28" ry="0.28"/><rect class="cls-21" x="526.88" y="163.2" width="6.6" height="0.75"/><rect class="cls-21" x="526.88" y="164.33" width="6.6" height="0.75"/><rect class="cls-21" x="526.88" y="165.46" width="6.6" height="0.75"/><rect class="cls-21" x="516.8" y="169.2" width="16.68" height="0.74"/><rect class="cls-30" x="490.4" y="180.05" width="9.38" height="0.75"/><path class="cls-30" d="M533.48,180.43a.7.7,0,1,1-.69-.75A.72.72,0,0,1,533.48,180.43Z"/><path class="cls-23" d="M533.13,180.43a.36.36,0,0,1-.34.37.38.38,0,0,1,0-.75A.36.36,0,0,1,533.13,180.43Z"/><rect class="cls-93" x="539.73" y="160.58" width="47.25" height="17.23"/><rect class="cls-19" x="539.73" y="177.25" width="47.25" height="5.79"/><rect class="cls-94" x="541.41" y="157.97" width="10.42" height="11.23" rx="0.7" ry="0.7"/><rect class="cls-21" x="542.86" y="160.58" width="7.64" height="6.36" rx="0.43" ry="0.43"/><rect class="cls-95" x="543.55" y="161.71" width="6.26" height="4.12" rx="0.28" ry="0.28"/><rect class="cls-21" x="580.73" y="164.33" width="3.82" height="0.75"/><rect class="cls-21" x="580.73" y="165.46" width="3.82" height="0.75"/><rect class="cls-21" x="567.87" y="169.2" width="16.68" height="0.74"/><rect class="cls-34" x="541.47" y="180.05" width="9.39" height="0.75"/><path class="cls-34" d="M584.55,180.43a.7.7,0,1,1-.7-.75A.72.72,0,0,1,584.55,180.43Z"/><path class="cls-23" d="M584.2,180.43a.35.35,0,1,1-.35-.38A.36.36,0,0,1,584.2,180.43Z"/><rect class="cls-96" x="590.46" y="160.58" width="47.25" height="17.23"/><rect class="cls-19" x="590.46" y="177.25" width="47.25" height="5.79"/><rect class="cls-97" x="592.13" y="157.97" width="10.43" height="11.23" rx="0.7" ry="0.7"/><path class="cls-21" d="M594,160.58h6.79a.43.43,0,0,1,.43.43v5.51a.43.43,0,0,1-.43.43H594a.42.42,0,0,1-.42-.42V161a.42.42,0,0,1,.42-.42Z"/><rect class="cls-37" x="594.63" y="162.27" width="5.56" height="3" rx="0.2" ry="0.2"/><rect class="cls-21" x="631.45" y="164.33" width="3.82" height="0.75"/><rect class="cls-21" x="631.45" y="165.46" width="3.82" height="0.75"/><rect class="cls-21" x="618.6" y="169.2" width="16.68" height="0.74"/><rect class="cls-38" x="592.2" y="180.05" width="9.38" height="0.75"/><path class="cls-38" d="M635.27,180.43a.7.7,0,1,1-.69-.75A.72.72,0,0,1,635.27,180.43Z"/><path class="cls-23" d="M634.92,180.43a.36.36,0,0,1-.34.37.38.38,0,0,1,0-.75A.36.36,0,0,1,634.92,180.43Z"/><g class="cls-54"><path class="cls-21" d="M518.13,259.9H441.31a2,2,0,0,1-2-2.07V223.12a2,2,0,0,1,2-2.06h76.82a2,2,0,0,1,2,2.06v34.71A2,2,0,0,1,518.13,259.9Z"/><path class="cls-21" d="M518.13,260H441.31a2.07,2.07,0,0,1-2-2.12V223.12a2.06,2.06,0,0,1,2-2.11h76.82a2.07,2.07,0,0,1,2,2.11v34.71A2.08,2.08,0,0,1,518.13,260Zm-76.82-38.84a2,2,0,0,0-1.93,2v34.71a2,2,0,0,0,1.93,2h76.82a2,2,0,0,0,1.93-2V223.12a2,2,0,0,0-1.93-2Z"/><path class="cls-21" d="M635.77,259.9H525.57a2,2,0,0,1-2-2.07V223.12a2,2,0,0,1,2-2.06h110.2a2,2,0,0,1,2,2.06v34.71A2,2,0,0,1,635.77,259.9Z"/><path class="cls-21" d="M635.77,260H525.57a2.08,2.08,0,0,1-2-2.12V223.12a2.07,2.07,0,0,1,2-2.11h110.2a2.07,2.07,0,0,1,2,2.11v34.71A2.08,2.08,0,0,1,635.77,260Zm-110.2-38.84a2,2,0,0,0-1.93,2v34.71a2,2,0,0,0,1.93,2h110.2a2,2,0,0,0,1.93-2V223.12a2,2,0,0,0-1.93-2Z"/><rect class="cls-55" x="441.18" y="223.78" width="15.42" height="2.19"/><rect class="cls-55" x="526.16" y="223.78" width="11.83" height="2.19"/><rect class="cls-55" x="526.16" y="237.48" width="15.52" height="2.19"/><rect class="cls-56" x="441.18" y="226.64" width="76.95" height="0.13"/><rect class="cls-56" x="526.16" y="226.64" width="110.01" height="0.13"/><rect class="cls-56" x="526.16" y="240.41" width="110.01" height="0.13"/><rect class="cls-56" x="441.18" y="233.06" width="76.95" height="0.13"/><rect class="cls-56" x="441.18" y="238.08" width="76.95" height="0.13"/><rect class="cls-56" x="441.18" y="242.87" width="76.95" height="0.13"/><rect class="cls-56" x="441.18" y="247.86" width="76.95" height="0.13"/><rect class="cls-56" x="441.18" y="252.85" width="76.95" height="0.13"/><rect class="cls-57" x="441.18" y="233.13" width="76.95" height="5.02"/><rect class="cls-57" x="441.18" y="242.94" width="76.95" height="5.02"/><rect class="cls-57" x="441.18" y="252.75" width="76.95" height="5.02"/><rect class="cls-58" x="442.26" y="229.77" width="9.11" height="1.6"/><rect class="cls-58" x="470.89" y="229.77" width="14.91" height="1.6"/><rect class="cls-58" x="442.26" y="235.38" width="5.99" height="0.62"/><rect class="cls-58" x="442.26" y="240.23" width="5.99" height="0.62"/><rect class="cls-58" x="442.26" y="245.12" width="5.99" height="0.62"/><rect class="cls-58" x="442.26" y="250.04" width="5.99" height="0.62"/><rect class="cls-58" x="442.26" y="254.95" width="5.99" height="0.62"/><rect class="cls-58" x="471.06" y="235.38" width="16.61" height="0.62"/><rect class="cls-58" x="471.06" y="240.23" width="16.61" height="0.62"/><rect class="cls-58" x="471.06" y="245.12" width="16.61" height="0.62"/><rect class="cls-58" x="471.06" y="250.04" width="16.61" height="0.62"/><rect class="cls-58" x="471.06" y="254.95" width="16.61" height="0.62"/><path class="cls-59" d="M569.54,233.49H527.82a.19.19,0,0,1-.19-.2v-5.12a.19.19,0,0,1,.19-.2h41.72a.19.19,0,0,1,.19.2v5.12A.19.19,0,0,1,569.54,233.49Zm-41.72-5.38s-.07,0-.07.06v5.12a.07.07,0,0,0,.07.07h41.72a.07.07,0,0,0,.07-.07v-5.12s0-.06-.07-.06Z"/><path class="cls-59" d="M578.78,247.26h-51a.19.19,0,0,1-.19-.2v-5.12a.19.19,0,0,1,.19-.2h51a.2.2,0,0,1,.19.2v5.12A.2.2,0,0,1,578.78,247.26Zm-51-5.39a.07.07,0,0,0-.07.07v5.12a.07.07,0,0,0,.07.07h51a.07.07,0,0,0,.06-.07v-5.12a.07.07,0,0,0-.06-.07Z"/><path class="cls-59" d="M578.78,254.77h-51a.19.19,0,0,1-.19-.19v-5.13a.19.19,0,0,1,.19-.2h51a.2.2,0,0,1,.19.2v5.13A.2.2,0,0,1,578.78,254.77Zm-51-5.38a.07.07,0,0,0-.07.06v5.13a.07.07,0,0,0,.07.06h51a.06.06,0,0,0,.06-.06v-5.13a.06.06,0,0,0-.06-.06Z"/><path class="cls-59" d="M634.07,247.26h-51a.2.2,0,0,1-.19-.2v-5.12a.2.2,0,0,1,.19-.2h51a.19.19,0,0,1,.19.2v5.12A.19.19,0,0,1,634.07,247.26Zm-51-5.39a.07.07,0,0,0-.06.07v5.12a.07.07,0,0,0,.06.07h51a.07.07,0,0,0,.07-.07v-5.12a.07.07,0,0,0-.07-.07Z"/><path class="cls-59" d="M606.55,233.49h-32.8a.19.19,0,0,1-.19-.2v-5.12a.19.19,0,0,1,.19-.2h32.8a.19.19,0,0,1,.19.2v5.12A.19.19,0,0,1,606.55,233.49Zm-32.8-5.38s-.07,0-.07.06v5.12a.07.07,0,0,0,.07.07h32.8a.07.07,0,0,0,.07-.07v-5.12s0-.06-.07-.06Z"/><rect class="cls-58" x="529.83" y="230.28" width="11.85" height="1.29"/><rect class="cls-58" x="529.83" y="244.26" width="11.85" height="1.29"/><rect class="cls-58" x="575.24" y="230.28" width="8.28" height="1.29"/><rect class="cls-58" x="584.5" y="243.86" width="8.28" height="1.29"/><rect class="cls-58" x="529.29" y="251.62" width="8.28" height="1.29"/><rect class="cls-58" x="573.81" y="249.32" width="0.13" height="5.39"/><rect class="cls-58" x="575.37" y="251.22" width="1.83" height="1.91"/><rect class="cls-58" x="630.7" y="243.43" width="1.75" height="1.83"/><polygon class="cls-58" points="577.73 244.92 578.15 244.15 577.3 244.15 577.73 244.92"/><polygon class="cls-58" points="568.48 231.19 568.9 230.42 568.05 230.42 568.48 231.19"/><path class="cls-60" d="M617.42,232.83h-4.91a2.14,2.14,0,0,1-2.09-2.18h0a2.14,2.14,0,0,1,2.09-2.18h4.91a2.14,2.14,0,0,1,2.08,2.18h0A2.14,2.14,0,0,1,617.42,232.83Z"/><rect class="cls-16" x="611.76" y="230.11" width="6.4" height="1.07"/><path class="cls-60" d="M590,254.35h-4.91a2.14,2.14,0,0,1-2.09-2.18h0a2.14,2.14,0,0,1,2.09-2.18H590a2.14,2.14,0,0,1,2.08,2.18h0A2.14,2.14,0,0,1,590,254.35Z"/><rect class="cls-16" x="584.32" y="251.63" width="6.4" height="1.08"/></g><path class="cls-98" d="M597.53,128.42h47.14s9,.06,8.06,8l-.29,131.74H500.57"/><path class="cls-99" d="M90.32,132h36.15s6.92.07,6.17,9.24l-.21,146.25s.41,5.48-6.67,6.21c-7.31-.41-109.79,0-109.79,0"/></g></g></g></svg>