<svg xmlns="http://www.w3.org/2000/svg" viewBox="0 0 599.52 197.86"><defs><style>.cls-1{fill:#f79a23;}.cls-2{fill:#88bd42;}</style></defs><title>Asset 1</title><g id="Layer_2" data-name="Layer 2"><g id="Layer_1-2" data-name="Layer 1"><path class="cls-1" d="M156,179.87q-18,18-43.29,18A60.87,60.87,0,0,1,87,191.93a60.87,60.87,0,0,1-25.7,5.93q-25.3,0-43.29-18T0,136.59V110.69a34.24,34.24,0,0,1,10.48-25.1,34.24,34.24,0,0,1,25.1-10.48A34.35,34.35,0,0,1,61.47,86.38,33.12,33.12,0,0,1,87,75.11a34.41,34.41,0,0,1,25.7,11.07,35.34,35.34,0,0,1,50.8-.59,34.24,34.24,0,0,1,10.48,25.1v25.89Q173.94,161.89,156,179.87Zm-4.74-69.18a12.82,12.82,0,0,0-12.85-12.85,12.71,12.71,0,0,0-9.19,3.76,12.22,12.22,0,0,0-3.85,9.09v25.89a12.65,12.65,0,0,1-25.3,0V110.69a12.22,12.22,0,0,0-3.85-9.09,13,13,0,0,0-22.24,9.29v25.7a12.58,12.58,0,0,1-21.55,8.89,12.16,12.16,0,0,1-3.76-8.89V110.69a13.16,13.16,0,0,0-13-13,12.23,12.23,0,0,0-9.09,3.85,12.71,12.71,0,0,0-3.76,9.19v25.89A37.25,37.25,0,0,0,34,163.76a37,37,0,0,0,27.28,11.37A37.4,37.4,0,0,0,87,165.25a37.4,37.4,0,0,0,25.7,9.88,38.64,38.64,0,0,0,38.54-38.54Z"/><path class="cls-1" d="M243.81,187.38A35.63,35.63,0,0,1,183,162.28v-42.1a37.51,37.51,0,0,1,4.74-17.79A35.48,35.48,0,0,1,193.5,59.5a35.31,35.31,0,0,1,50.21,0,35.47,35.47,0,0,1,5.73,42.89,34.19,34.19,0,0,1,4.94,17.79v42.1A34.08,34.08,0,0,1,243.81,187.38ZM227.7,75.61a12.65,12.65,0,0,0-18.19,0,12.71,12.71,0,0,0-3.76,9.19,12.85,12.85,0,1,0,25.7,0A12.71,12.71,0,0,0,227.7,75.61Zm4,44.57a12.23,12.23,0,0,0-3.85-9.09,12.71,12.71,0,0,0-9.19-3.76,12.82,12.82,0,0,0-12.85,12.85v42.1a12.82,12.82,0,0,0,12.85,12.85,12.72,12.72,0,0,0,9.19-3.76,12.23,12.23,0,0,0,3.85-9.09Z"/><path class="cls-1" d="M358.94,187.38a34.25,34.25,0,0,1-25.1,10.48h-9.49q-25.3,0-43.29-18t-18-43.29V84.8a35.77,35.77,0,0,1,35.78-35.58,33.64,33.64,0,0,1,21.15,7,35.21,35.21,0,0,1,12.45,18.68h1.38a35.77,35.77,0,0,1,35.58,35.58A33.68,33.68,0,0,1,358,136.39q11.46,10.87,11.46,25.7A34.48,34.48,0,0,1,358.94,187.38Zm-16-34.39a12.38,12.38,0,0,0-9.09-3.76h-9.49a12.83,12.83,0,0,1-12.65-12.65v-13h22.14a12.39,12.39,0,0,0,9.09-3.76,12.62,12.62,0,0,0,3.75-9.29,12.82,12.82,0,0,0-12.85-12.85H311.7V84.8A12.82,12.82,0,0,0,298.85,72a12.62,12.62,0,0,0-9.29,3.76,12.38,12.38,0,0,0-3.76,9.09v51.79a38.64,38.64,0,0,0,38.54,38.54h9.49a12.39,12.39,0,0,0,9.09-3.76,12.62,12.62,0,0,0,3.75-9.29A12.38,12.38,0,0,0,342.93,153Z"/><path class="cls-1" d="M467.17,186.62a32.11,32.11,0,0,1-23.54,9.82h-8.9A57.59,57.59,0,0,1,377.27,139V90.42a33.54,33.54,0,0,1,33.55-33.37,31.54,31.54,0,0,1,19.83,6.58,33,33,0,0,1,11.68,17.52h1.3A33.54,33.54,0,0,1,477,114.52a31.58,31.58,0,0,1-10.75,24.28Q477,149,477,162.9A32.33,32.33,0,0,1,467.17,186.62Zm-15-32.25a11.61,11.61,0,0,0-8.53-3.52h-8.9A12,12,0,0,1,422.87,139V126.75h20.76a11.61,11.61,0,0,0,8.53-3.52,11.83,11.83,0,0,0,3.52-8.71,12,12,0,0,0-12-12H422.87v-12a12,12,0,0,0-12-12,11.83,11.83,0,0,0-8.71,3.52,11.61,11.61,0,0,0-3.52,8.53V139a36.23,36.23,0,0,0,36.15,36.15h8.9a11.61,11.61,0,0,0,8.53-3.52,11.83,11.83,0,0,0,3.52-8.71A11.61,11.61,0,0,0,452.16,154.37Z"/><path class="cls-1" d="M593.13,140.47a57.91,57.91,0,0,1-17.7,20.39v2a33.37,33.37,0,1,1-66.73,0v-2A57.91,57.91,0,0,1,491,140.47a55.23,55.23,0,0,1-6.4-26V90.42A33.54,33.54,0,0,1,518,57.05a32,32,0,0,1,24.1,10.57,32.94,32.94,0,0,1,47.64-.74,32.11,32.11,0,0,1,9.82,23.54v24.1A55.23,55.23,0,0,1,593.13,140.47Zm-14.92-50a12,12,0,0,0-12-12,11.92,11.92,0,0,0-8.62,3.52,11.47,11.47,0,0,0-3.61,8.53v24.1a11.55,11.55,0,0,1-3.43,8.34,11.91,11.91,0,0,1-20.3-8.34V90.42a11.47,11.47,0,0,0-3.61-8.53A11.92,11.92,0,0,0,518,78.37a12,12,0,0,0-12,12v24.1a36.48,36.48,0,0,0,23.91,34.11V162.9a11.68,11.68,0,0,0,3.61,8.71,12.31,12.31,0,0,0,17.24,0,11.68,11.68,0,0,0,3.62-8.71V148.62a36.48,36.48,0,0,0,23.91-34.11Z"/><path class="cls-2" d="M190.48,34.67V50.14s14.83-6.18,28-6.18,28,6.18,28,6.18V34.45S232.32,27,218.26,27s-27.78,7.72-27.78,7.72Zm0,0"/><path class="cls-2" d="M262.2,31l5.58-3L262.2,24.9V23.44s1.57-8-7.34-3.8a1.67,1.67,0,0,0-.8.74L217.31,0,169,27.65l18.24,8.28V33.24s15.3-8.59,31-8.59S249.7,33,249.7,33v4.69l10.07-5.4V54.18h-3.35V62l4.46-3.08L265.83,62V54.18h-3.62V31Zm-2.42-8.89v1.46l-2.94-1.63c1.07-.71,2.94-1.69,2.94.17Zm-1,8.59a2.35,2.35,0,1,1,2.35-2.35,2.36,2.36,0,0,1-2.35,2.35Zm0,0"/></g></g></svg>