<svg xmlns="http://www.w3.org/2000/svg" xmlns:xlink="http://www.w3.org/1999/xlink" viewBox="0 0 86.98 86.76"><defs><style>.cls-1,.cls-2{fill:none;}.cls-2{stroke:#ec2027;stroke-miterlimit:10;stroke-width:0.5px;}.cls-3{fill:#f2f2f2;}.cls-4{fill:#fbfae2;}.cls-5{fill:#c3c3c3;}.cls-6{fill:#d7d7d7;}.cls-7{fill:#1b75bb;}.cls-8{fill:#342f2d;}.cls-9{fill:#45a9df;}.cls-10{fill:#3c3c3b;}.cls-11{fill:#345951;}.cls-12{fill:#352f2d;}.cls-13{fill:#88beb6;}.cls-14{fill:#d1ebec;}.cls-15{fill:#776b69;}.cls-16{fill:#de4428;}.cls-17{fill:#982124;}.cls-18{fill:#ec5b48;}.cls-19{fill:#f2bb2e;}.cls-20{fill:#f1d353;}.cls-21{clip-path:url(#clip-path);}.cls-22{fill:#ee8f21;}.cls-23{fill:#c17029;}</style><clipPath id="clip-path"><circle class="cls-1" cx="44.27" cy="59.36" r="5.51"/></clipPath></defs><title>Asset 3</title><g id="Layer_2" data-name="Layer 2"><g id="Layer_1-2" data-name="Layer 1"><rect class="cls-2" x="0.87" y="0.66" width="85.86" height="85.86" rx="42.93" ry="42.93" transform="translate(-17.99 43.74) rotate(-45)"/><rect class="cls-3" width="85.86" height="85.86" rx="42.93" ry="42.93" transform="translate(-17.78 42.93) rotate(-45)"/><g id="Accounting"><g id="Paper_Sheet" data-name="Paper Sheet"><path class="cls-4" d="M44.58,19.83H24.08V56.06H51.36V25.13A10.19,10.19,0,0,0,44.58,19.83Z"/><rect class="cls-5" x="39.72" y="23.48" width="8.99" height="1.98"/><rect class="cls-5" x="39.72" y="26.03" width="8.99" height="0.55"/><rect class="cls-5" x="39.72" y="26.71" width="8.99" height="0.55"/><path class="cls-6" d="M44.58,19.83a8.1,8.1,0,0,1,1.14,6.3c3.34-2,5.65-1,5.65-1A10.19,10.19,0,0,0,44.58,19.83Z"/><rect class="cls-7" x="28.46" y="30.36" width="1.31" height="10.4"/><rect class="cls-8" x="30.11" y="34.27" width="1.31" height="6.5"/><rect class="cls-9" x="31.91" y="32.39" width="1.31" height="8.38"/><polygon class="cls-10" points="27.43 41.63 27.43 27.18 27.26 27.18 27.26 41.63 27.26 41.71 27.26 41.8 41.79 41.8 41.79 41.63 27.43 41.63"/><rect class="cls-7" x="37.76" y="35.36" width="1.31" height="5.41"/><rect class="cls-8" x="36.14" y="32.39" width="1.31" height="8.38"/><rect class="cls-9" x="39.48" y="33.46" width="1.31" height="7.3"/><circle class="cls-7" cx="36.41" cy="25.46" r="2.27"/><rect class="cls-7" x="42.28" y="33.76" width="1.7" height="1.7"/><rect class="cls-8" x="42.28" y="36.52" width="1.7" height="1.7"/><rect class="cls-9" x="42.28" y="39.27" width="1.7" height="1.7"/><rect class="cls-5" x="44.81" y="33.76" width="3.9" height="0.5"/><rect class="cls-5" x="44.81" y="34.5" width="3.9" height="0.73"/><rect class="cls-5" x="44.81" y="36.52" width="3.9" height="0.51"/><rect class="cls-5" x="44.81" y="37.26" width="3.9" height="0.73"/><rect class="cls-5" x="44.81" y="39.27" width="3.9" height="0.51"/><rect class="cls-5" x="44.81" y="40.01" width="3.9" height="0.73"/><rect class="cls-5" x="27.26" y="43.18" width="11.16" height="2.82"/><rect class="cls-11" x="27.26" y="46.6" width="4.65" height="4.43"/><rect class="cls-5" x="32.56" y="46.6" width="5.86" height="0.3"/><rect class="cls-5" x="32.56" y="47.29" width="5.86" height="0.3"/><rect class="cls-5" x="32.56" y="47.98" width="5.86" height="0.3"/><rect class="cls-5" x="32.56" y="48.67" width="5.86" height="0.3"/><rect class="cls-5" x="32.56" y="49.35" width="5.86" height="0.3"/><rect class="cls-5" x="32.56" y="50.04" width="5.86" height="0.3"/><rect class="cls-5" x="32.56" y="50.73" width="5.86" height="0.3"/><rect class="cls-5" x="27.26" y="51.72" width="11.16" height="1.17"/><rect class="cls-5" x="40.14" y="43.18" width="8.58" height="0.67"/><rect class="cls-5" x="40.14" y="44.59" width="8.58" height="4.91"/><rect class="cls-5" x="42.86" y="49.89" width="5.86" height="0.3"/><rect class="cls-5" x="42.86" y="50.58" width="5.86" height="0.3"/><rect class="cls-5" x="42.86" y="51.27" width="5.86" height="0.3"/></g><g id="Calculator"><rect class="cls-12" x="49.37" y="35.77" width="18.62" height="24.24" rx="0.85" ry="0.85"/><path class="cls-13" d="M65.59,37.52H51.77a.85.85,0,0,0-.85.85v3.86a.85.85,0,0,0,.85.85H65.59a.85.85,0,0,0,.85-.85V38.37A.85.85,0,0,0,65.59,37.52Z"/><path class="cls-14" d="M62.85,37.52H61l-4.12,5.36a.77.77,0,0,0-.1.18h1.86l4-5.27A.75.75,0,0,0,62.85,37.52Z"/><path class="cls-14" d="M61.73,40.85a.41.41,0,0,0,.57-.07l2.5-3.25h-1l-2.12,2.76A.41.41,0,0,0,61.73,40.85Z"/><rect class="cls-9" x="62.61" y="50.71" width="3.81" height="7.43" rx="0.85" ry="0.85"/><rect class="cls-15" x="50.96" y="54.72" width="3.42" height="3.42" rx="0.59" ry="0.59"/><rect class="cls-15" x="54.81" y="54.72" width="3.42" height="3.42" rx="0.59" ry="0.59"/><rect class="cls-15" x="58.76" y="54.72" width="3.42" height="3.42" rx="0.59" ry="0.59"/><rect class="cls-15" x="50.96" y="50.71" width="3.42" height="3.42" rx="0.59" ry="0.59"/><rect class="cls-15" x="54.81" y="50.71" width="3.42" height="3.42" rx="0.59" ry="0.59"/><rect class="cls-15" x="58.76" y="50.71" width="3.42" height="3.42" rx="0.59" ry="0.59"/><rect class="cls-15" x="50.91" y="46.69" width="3.42" height="3.42" rx="0.59" ry="0.59"/><rect class="cls-15" x="54.75" y="46.69" width="3.42" height="3.42" rx="0.59" ry="0.59"/><rect class="cls-15" x="58.7" y="46.69" width="3.42" height="3.42" rx="0.59" ry="0.59"/><rect class="cls-7" x="62.61" y="46.69" width="3.81" height="3.42" rx="0.85" ry="0.85"/><rect class="cls-16" x="50.91" y="44.06" width="11.21" height="1.72" rx="0.85" ry="0.85"/><rect class="cls-17" x="62.85" y="44.06" width="3.57" height="1.78" rx="0.85" ry="0.85"/></g><g id="Pen"><rect class="cls-12" x="19.31" y="39.6" width="2.09" height="3.61" rx="0.78" ry="0.78" transform="translate(-21.21 21.38) rotate(-38.1)"/><path class="cls-16" d="M32.55,54.75a.78.78,0,0,0-.12-.23L23.25,42.81l-.54-.69-.48-.61,0,0a.78.78,0,0,0-1.06-.1l-1,.78A.78.78,0,0,0,20,43.25l.48.61.54.69,9.18,11.71a.77.77,0,0,0,.21.18l.09.07a2.54,2.54,0,0,0,2.05.46A2.43,2.43,0,0,0,32.55,54.75Z"/><path class="cls-12" d="M33.18,57.67a.26.26,0,0,1-.36,0L32,56.57a.26.26,0,0,1,0-.36h0a.26.26,0,0,1,.36,0l.83,1.06a.26.26,0,0,1,0,.36Z"/><path class="cls-18" d="M32.56,57a2.43,2.43,0,0,0,0-2.22.78.78,0,0,0-.12-.23L23.25,42.81l-.54-.69-.48-.61,0,0,8.31,15A2.54,2.54,0,0,0,32.56,57Z"/><rect class="cls-12" x="20.46" y="42.9" width="2.82" height="0.87" transform="translate(-22.08 22.73) rotate(-38.1)"/><path class="cls-12" d="M25.17,47a.32.32,0,0,1-.45-.05l-3.49-4.46a.32.32,0,0,1,.05-.45h0a.32.32,0,0,1,.45.05l3.49,4.46a.32.32,0,0,1-.05.45Z"/></g><g id="Pie_Chart" data-name="Pie Chart"><path class="cls-7" d="M54.29,21.8v5.67H60A5.67,5.67,0,0,0,54.29,21.8Z"/><path class="cls-18" d="M53.87,22.34a5.67,5.67,0,1,0,4.2,9.48L53.87,28Z"/><path class="cls-8" d="M54.33,27.82l4.2,3.81A5.65,5.65,0,0,0,60,27.82Z"/></g><g id="Coin"><path class="cls-19" d="M44.06,58.54c0-.3-.18-.55-.4-.55H39c-.22,0-.4.25-.4.55v.58s0,0,0,.05,0,0,0,0c0,.67,1.22,1.21,2.72,1.21s2.72-.54,2.72-1.21c0,0,0,0,0,0s0,0,0-.05Z"/><ellipse class="cls-20" cx="41.34" cy="58.45" rx="2.72" ry="1.21"/><path class="cls-19" d="M43.45,57.38c0-.3-.18-.55-.4-.55H38.41c-.22,0-.4.25-.4.55V58s0,0,0,.05v0c0,.67,1.22,1.21,2.72,1.21s2.72-.54,2.72-1.21c0,0,0,0,0,0s0,0,0-.05Z"/><ellipse class="cls-20" cx="40.73" cy="57.3" rx="2.72" ry="1.21"/><path class="cls-19" d="M44.27,56.24c0-.3-.18-.55-.4-.55H39.23c-.22,0-.4.25-.4.55v.58s0,0,0,.05,0,0,0,0c0,.67,1.22,1.21,2.72,1.21s2.72-.54,2.72-1.21c0,0,0,0,0,0s0,0,0-.05Z"/><ellipse class="cls-20" cx="41.55" cy="56.16" rx="2.72" ry="1.21"/><path class="cls-19" d="M33.95,60.64c0-.29-.16-.53-.37-.53L29.16,60c-.21,0-.38.23-.39.52v.55s0,0,0,0v0c0,.64,1.13,1.18,2.56,1.21s2.6-.46,2.61-1.1c0,0,0,0,0,0v-.6Z"/><ellipse class="cls-20" cx="31.36" cy="60.5" rx="1.15" ry="2.59" transform="translate(-29.82 90.51) rotate(-88.73)"/><path class="cls-19" d="M26.61,59.06c0-.3-.18-.55-.39-.55h-4.6c-.22,0-.39.24-.39.55v.57s0,0,0,.05,0,0,0,0c0,.66,1.21,1.2,2.7,1.2s2.69-.54,2.69-1.2v0s0,0,0-.05Z"/><ellipse class="cls-20" cx="23.92" cy="58.98" rx="2.7" ry="1.2"/><path class="cls-19" d="M38.93,54.94a.48.48,0,0,0-.65-.09L35.16,58.1a.48.48,0,0,0,.12.65l.4.39,0,0,0,0c.47.45,1.66,0,2.67-1.09s1.45-2.26,1-2.71l0,0,0,0Z"/><ellipse class="cls-20" cx="37.05" cy="56.79" rx="2.64" ry="1.17" transform="translate(-29.57 44.14) rotate(-46.13)"/><path class="cls-19" d="M26.19,58.1c0-.3-.18-.55-.39-.55h-4.6c-.22,0-.39.24-.39.55v.57s0,0,0,.05,0,0,0,0c0,.66,1.21,1.2,2.7,1.2s2.69-.54,2.69-1.2v0s0,0,0-.05Z"/><ellipse class="cls-20" cx="23.49" cy="58.02" rx="2.7" ry="1.2"/></g></g><g class="cls-21"><path class="cls-19" d="M48.7,59.95c0-.47-.28-.85-.62-.85h-7.2c-.34,0-.62.38-.62.85v.9s0,.05,0,.08,0,0,0,.05c0,1,1.89,1.88,4.22,1.88S48.7,62,48.7,61c0,0,0,0,0-.05s0-.05,0-.08Z"/><ellipse class="cls-20" cx="44.48" cy="59.82" rx="4.22" ry="1.88"/><path class="cls-19" d="M47.76,58.16c0-.47-.28-.85-.62-.85h-7.2c-.34,0-.62.38-.62.85v.9s0,.05,0,.08,0,0,0,.05c0,1,1.89,1.88,4.22,1.88s4.22-.84,4.22-1.88c0,0,0,0,0-.05s0-.05,0-.08Z"/><ellipse class="cls-20" cx="43.54" cy="58.03" rx="4.22" ry="1.88"/><path class="cls-19" d="M49,56.39c0-.47-.28-.85-.62-.85h-7.2c-.34,0-.62.38-.62.85v.9s0,.05,0,.08,0,0,0,.05c0,1,1.89,1.88,4.22,1.88S49,58.46,49,57.42c0,0,0,0,0-.05s0-.05,0-.08Z"/><ellipse class="cls-20" cx="44.81" cy="56.26" rx="4.22" ry="1.88"/><path class="cls-19" d="M41,52.69a.89.89,0,0,0-1.21-.17l-5.79,6a.89.89,0,0,0,.22,1.2l.75.72.07.06,0,0c.87.83,3.09-.07,5-2s2.69-4.21,1.82-5l0,0-.06-.07Z"/><ellipse class="cls-20" cx="37.53" cy="56.12" rx="4.9" ry="2.18" transform="translate(-28.94 44.29) rotate(-46.13)"/></g><path class="cls-22" d="M50.46,59.85l-.26,1.2-.16.73c-.13.61,0,1,.34,1l11.3,2.5c.32.07.68-.37.82-1l.42-1.93a1.24,1.24,0,0,0-.2-1.16.34.34,0,0,0-.14-.07L51.28,58.87C51,58.81,50.59,59.24,50.46,59.85Z"/><path class="cls-23" d="M49.72,61.54c-.13.61,0,1.16.34,1.23l11.62,2.55c.32.07.68-.37.82-1l.42-1.93a1.24,1.24,0,0,0-.2-1.16l-12.84-.44Z"/><path class="cls-12" d="M37.22,61.13a7.42,7.42,0,1,0,5.31-9.05A7.42,7.42,0,0,0,37.22,61.13ZM49.48,58A5.31,5.31,0,1,1,43,54.22,5.31,5.31,0,0,1,49.48,58Z"/></g></g></svg>