<svg xmlns="http://www.w3.org/2000/svg" xmlns:xlink="http://www.w3.org/1999/xlink" viewBox="0 0 128.47 128.47"><defs><style>.cls-1{fill:none;stroke:#ec1c24;stroke-miterlimit:10;}.cls-2{fill:#f2f2f2;}.cls-3{fill:#efd06f;}.cls-4{fill:#f4f2ed;}.cls-5{fill:url(#linear-gradient);}.cls-6{fill:#56816e;}.cls-7{fill:#f7fef7;}.cls-8{fill:#e71e25;}.cls-9{fill:#fefefe;}.cls-10{fill:url(#linear-gradient-2);}.cls-11{fill:url(#linear-gradient-3);}.cls-12{fill:url(#linear-gradient-4);}</style><linearGradient id="linear-gradient" x1="46.3" y1="43.54" x2="97.09" y2="43.54" gradientUnits="userSpaceOnUse"><stop offset="0" stop-color="#cec2ac"/><stop offset="0.12" stop-color="#c3d5b3"/><stop offset="0.25" stop-color="#bce1b7"/><stop offset="0.38" stop-color="#bae5b8"/><stop offset="0.5" stop-color="#cfe0bf"/><stop offset="0.64" stop-color="#dfdcc5"/><stop offset="0.8" stop-color="#e9dac9"/><stop offset="1" stop-color="#ecd9ca"/></linearGradient><linearGradient id="linear-gradient-2" x1="46.3" y1="46.24" x2="97.09" y2="46.24" xlink:href="#linear-gradient"/><linearGradient id="linear-gradient-3" x1="46.3" y1="48.69" x2="97.09" y2="48.69" xlink:href="#linear-gradient"/><linearGradient id="linear-gradient-4" x1="46.3" y1="51.08" x2="97.09" y2="51.08" xlink:href="#linear-gradient"/></defs><title>Asset 36</title><g id="Layer_2" data-name="Layer 2"><g id="Layer_1-2" data-name="Layer 1"><circle class="cls-1" cx="64.74" cy="64.74" r="63.24"/><circle class="cls-2" cx="63.24" cy="63.24" r="63.24"/><path class="cls-3" d="M82.81,73.47,75,81.26,48.61,76.67a2.94,2.94,0,0,0-2,5.44L74.94,98.63a2.94,2.94,0,0,0,2.8.09L91.9,91.64h5.19V73.47Z"/><polygon class="cls-4" points="97.09 73.47 97.09 91.64 97.09 92.94 102.28 92.94 102.28 72.17 97.09 72.17 97.09 73.47"/><rect class="cls-5" x="46.3" y="28.94" width="50.79" height="29.2"/><path class="cls-6" d="M48.15,30.73V56.35H95.24V30.73ZM93.39,51.88a2.73,2.73,0,0,0-2.77,2.68H52.76A2.73,2.73,0,0,0,50,51.88V35.2a2.73,2.73,0,0,0,2.77-2.68H90.62a2.73,2.73,0,0,0,2.77,2.68Z"/><ellipse class="cls-7" cx="59.71" cy="43.54" rx="7.42" ry="9.05"/><path class="cls-6" d="M59.59,49.64A3.67,3.67,0,0,1,58,49.26a2.83,2.83,0,0,1-1.2-1,4.55,4.55,0,0,1-.25-2.06V44.59A.59.59,0,0,0,56,44H55a.59.59,0,0,1-.59-.59V43a.59.59,0,0,1,.59-.59h1a.59.59,0,0,0,.59-.59v-.44a15.14,15.14,0,0,0-.08-1.53.6.6,0,0,0-.08-.26,1.62,1.62,0,0,0-.61-.55.58.58,0,0,1-.19-.82l.16-.26a.6.6,0,0,1,.78-.21,3.07,3.07,0,0,1,1.17.94,3.36,3.36,0,0,1,.46,2v1.16a.59.59,0,0,0,.59.59h.44a.59.59,0,0,1,.59.59v.43a.59.59,0,0,1-.59.59h-.44a.59.59,0,0,0-.59.59v2.5a.58.58,0,0,0,.24.48,1.92,1.92,0,0,0,1,.42,2.52,2.52,0,0,0,1.9-.85,2.75,2.75,0,0,0,.8-1.94,1.54,1.54,0,0,0-.61-1.27.59.59,0,0,1,0-.94l.38-.3a.61.61,0,0,1,.81.06,3.43,3.43,0,0,1,1,2.48,4.36,4.36,0,0,1-1.27,3A3.89,3.89,0,0,1,59.59,49.64Z"/><circle class="cls-8" cx="82.23" cy="44.99" r="3.93"/><path class="cls-9" d="M85.13,42.87c0,2.07,0,4.07,0,6.07,0,.06,0,.08-.07.08h-.5s-.06,0,0,0a.29.29,0,0,0,0,0q0-4.1,0-8.2c0-.36,0-.72.06-1.07s0-.7.07-1l.08-1.16c0-.09,0-.09-.08-.09l-2.47.06c-.05,0-.06,0-.06.07l.26,2.13.13,1.06a.59.59,0,0,1,0,.07q0,4.1,0,8.2c0,.07,0,.08-.08.08H81.9s-.06,0,0-.05a.3.3,0,0,0,0,0q0-3.9,0-7.8c0-.37,0-.73-.05-1.09s0-.72-.07-1.08-.06-1-.09-1.43c0-.06,0-.07-.08-.07l-2.19,0s-.06,0-.06.06c.09.57.18,1.15.27,1.72l.22,1.43a.72.72,0,0,1,0,.11q0,4.07,0,8.14c0,.06,0,.08-.08.08h-.48s-.06,0-.06-.06c0-.49,0-1,0-1.47q0-3.19,0-6.39a7.42,7.42,0,0,0-.07-.93L79,39l-.16-1.31-.07-.58s0-.06,0-.06l3-.05L85,36.9h.22s.06,0,.05.05c0,.41,0,.82,0,1.23s0,1-.06,1.5C85.11,40.77,85.13,41.86,85.13,42.87Z"/><path class="cls-6" d="M79.75,49.06h-.49a.09.09,0,0,1-.07,0,.1.1,0,0,1,0-.08c0-.39,0-.78,0-1.18V45.89q0-2.4,0-4.79a7.45,7.45,0,0,0-.07-.92L79,39l-.19-1.54,0-.38A.08.08,0,0,1,78.8,37l3-.05L85,36.86h.22a.1.1,0,0,1,.07,0,.1.1,0,0,1,0,.07c0,.26,0,.51,0,.77l0,.85c0,.36,0,.74,0,1.11,0,.81,0,1.62,0,2.4,0,.27,0,.53,0,.8,0,2.07,0,4.07,0,6.07a.12.12,0,0,1,0,.09.12.12,0,0,1-.09,0h-.49a.09.09,0,0,1-.08,0,.09.09,0,0,1,0-.07.13.13,0,0,0,0,0V46.87q0-3.07,0-6.15c0-.24,0-.48,0-.72s0-.24,0-.36,0-.47,0-.71l0-.34,0-.69,0-.47s0,0,0,0h0l-.65,0-1.82,0h0v0l.17,1.42.22,1.77a.62.62,0,0,1,0,.08v1q0,3.59,0,7.17a.13.13,0,0,1,0,.09.14.14,0,0,1-.09,0H81.9a.08.08,0,0,1-.08,0,.09.09,0,0,1,0-.07.14.14,0,0,0,0,0V47.06q0-3,0-5.94c0-.27,0-.55,0-.81l0-.28c0-.24,0-.47,0-.71l0-.37,0-.24c0-.4-.05-.79-.08-1.19,0,0,0,0,0,0h0l-2.19,0h0c.08.46.15.92.22,1.38l.11.69.17,1.07a.74.74,0,0,1,0,.12v1.81q0,3.16,0,6.33a.12.12,0,0,1,0,.09A.11.11,0,0,1,79.75,49.06ZM79.51,49h.26a.19.19,0,0,0,0,0q0-3.17,0-6.33V40.8a.7.7,0,0,0,0-.1l-.17-1.07-.11-.69c-.07-.46-.14-.92-.22-1.38a.08.08,0,0,1,.09-.11l2.19,0c.06,0,.12,0,.12.11,0,.4.05.79.08,1.19l0,.24,0,.37c0,.24,0,.47,0,.71l0,.28c0,.27,0,.54,0,.82q0,3,0,5.94v1.87a.2.2,0,0,1,0,0h.57a.11.11,0,0,0,0,0q0-3.59,0-7.17v-1a.58.58,0,0,0,0-.07l-.22-1.77-.17-1.42a.1.1,0,0,1,0-.08.1.1,0,0,1,.08,0l1.82,0,.65,0c.05,0,.08,0,.11,0s0,.05,0,.11l0,.47,0,.69,0,.34c0,.24,0,.47,0,.71s0,.24,0,.36,0,.47,0,.71q0,3.07,0,6.15v2.06a.17.17,0,0,1,0,0h.54a.26.26,0,0,0,0,0c0-2,0-4,0-6.07h0c0-.26,0-.53,0-.8,0-.78,0-1.59,0-2.4,0-.37,0-.74,0-1.11l0-.85q0-.39,0-.77a.07.07,0,0,0,0,0H85L81.79,37l-3,.05h0l0,.38L79,39l.15,1.18a7.51,7.51,0,0,1,.07.93q0,2.4,0,4.79v1.89c0,.39,0,.78,0,1.18v0h.27Z"/><path class="cls-9" d="M77.52,45.15q0,1.89,0,3.77c0,.06,0,.08-.08.07h-.32s-.05,0,0,0a.36.36,0,0,0,0,0q0-3.57,0-7.14c0-.07,0-.08-.08-.08h-.76c-.05,0-.07,0-.07.07q0,3.43,0,6.85c0,.12,0,.23,0,.35s0,0,0,0h-.39s-.06,0-.05-.06a.2.2,0,0,0,0,0q0-3.77,0-7.54c0-.06,0-.08.08-.08h1.68c.06,0,.07,0,.07.07Q77.52,43.26,77.52,45.15Z"/><path class="cls-6" d="M77.46,49h-.33a.09.09,0,0,1-.07,0,.09.09,0,0,1,0-.07.16.16,0,0,0,0,0V47.6q0-2.92,0-5.84a.08.08,0,0,0,0,0h-.82v0q0,2.94,0,5.87v1.07c0,.08,0,.17,0,.25a.09.09,0,0,1,0,.07.08.08,0,0,1-.07,0h-.39a.1.1,0,0,1-.08,0,.09.09,0,0,1,0-.08.07.07,0,0,0,0,0V48q0-3.3,0-6.59a.13.13,0,0,1,0-.1.12.12,0,0,1,.09,0h1.69a.11.11,0,0,1,.08,0,.12.12,0,0,1,0,.09q0,1.51,0,3V45.9q0,1.51,0,3a.12.12,0,0,1,0,.09A.11.11,0,0,1,77.46,49ZM77.3,49h.18a.11.11,0,0,0,0,0q0-1.51,0-3V44.39q0-1.51,0-3a.09.09,0,0,0,0,0H75.73a.09.09,0,0,0,0,0q0,3.3,0,6.59v.94a.2.2,0,0,1,0,0h.41c0-.08,0-.17,0-.25V47.62q0-2.94,0-5.87a.11.11,0,0,1,0-.08.11.11,0,0,1,.08,0H77a.12.12,0,0,1,.09,0,.13.13,0,0,1,0,.09q0,2.92,0,5.84v1.31a.25.25,0,0,1,0,0h.18Z"/><path class="cls-9" d="M86.72,45.14q0-1.89,0-3.78c0-.06,0-.07.07-.07h1.69c.05,0,.07,0,.07.07q0,3.79,0,7.57s0,.07-.06.06h-.38s-.05,0,0,0a.42.42,0,0,0,0-.05q0-3.57,0-7.13c0-.07,0-.08-.08-.08h-.76c-.05,0-.07,0-.07.07q0,1.31,0,2.62,0,2.27,0,4.55c0,.07,0,.08-.08.08h-.31s0,0,0,0a.78.78,0,0,0,0-.08Z"/><path class="cls-6" d="M87.09,49h-.33a.08.08,0,0,1-.07,0,.08.08,0,0,1,0-.07.37.37,0,0,0,0,0V44.6q0-1.62,0-3.24a.1.1,0,0,1,.11-.11h1.69a.09.09,0,0,1,.11.11q0,3.78,0,7.57a.11.11,0,0,1,0,.08.1.1,0,0,1-.08,0h-.38A.1.1,0,0,1,88,49a.08.08,0,0,1,0-.07.17.17,0,0,0,0,0V48.1q0-3.17,0-6.34a.08.08,0,0,0,0,0H87.2v0q0,1.07,0,2.14v1.23q0,1.89,0,3.79a.13.13,0,0,1,0,.1A.11.11,0,0,1,87.09,49ZM86.93,49h.18a.09.09,0,0,0,0,0q0-1.89,0-3.79V43.89q0-1.07,0-2.14a.11.11,0,0,1,0-.08.12.12,0,0,1,.08,0H88a.13.13,0,0,1,.09,0,.13.13,0,0,1,0,.09q0,3.17,0,6.34v.81a.23.23,0,0,1,0,0h.41v0q0-3.78,0-7.57a.08.08,0,0,0,0,0H86.76a.14.14,0,0,0,0,0q0,1.62,0,3.24V48.9a.45.45,0,0,1,0,.06h.18Z"/><path class="cls-9" d="M75,46.17q0,1.35,0,2.69c0,.05,0,.07-.07.07h-.33s-.06,0,0-.05a.26.26,0,0,0,0,0q0-2.49,0-5c0-.06,0-.08-.08-.08h-.71c-.06,0-.07,0-.07.07q0,2.5,0,5c0,.06,0,.08-.08.08h-.34c-.05,0-.06,0-.06-.06,0-.39,0-.78,0-1.18q0-2.11,0-4.22c0-.06,0-.07.07-.07h1.63c.05,0,.07,0,.07.07Q75,44.81,75,46.17Z"/><path class="cls-6" d="M73.62,49h-.35a.11.11,0,0,1-.08,0,.1.1,0,0,1,0-.08c0-.31,0-.63,0-.94v-.84q0-1.81,0-3.62a.12.12,0,0,1,0-.09.12.12,0,0,1,.09,0h1.63a.09.09,0,0,1,.11.11q0,1.08,0,2.16V46.7q0,1.08,0,2.15a.09.09,0,0,1-.11.11h-.32a.1.1,0,0,1-.07,0,.09.09,0,0,1,0-.07.1.1,0,0,0,0,0h0v-.62q0-2.18,0-4.35a.08.08,0,0,0,0,0h-.77s0,0,0,0q0,1.33,0,2.66,0,1.17,0,2.33a.12.12,0,0,1,0,.1A.1.1,0,0,1,73.62,49Zm-.18-.09h.2a.24.24,0,0,0,0,0q0-1.17,0-2.33,0-1.33,0-2.66a.12.12,0,0,1,0-.09.11.11,0,0,1,.09,0h.7a.1.1,0,0,1,.12.12q0,2.18,0,4.35v.63a.21.21,0,0,1,0,0h.36v0q0-1.08,0-2.15V45.63q0-1.08,0-2.16a.09.09,0,0,0,0,0H73.25a.24.24,0,0,0,0,0q0,1.81,0,3.62v.84c0,.31,0,.63,0,.94v0h.19Z"/><path class="cls-9" d="M89.27,46.16q0-1.35,0-2.7c0-.05,0-.07.07-.07H91c.05,0,.07,0,.07.07q0,2.7,0,5.39c0,.05,0,.07-.07.07H90.6s0,0,0,0a.34.34,0,0,0,0,0q0-2.49,0-5c0-.06,0-.08-.08-.08h-.71c-.06,0-.07,0-.07.07q0,2.5,0,5c0,.06,0,.09-.08.08h-.29c-.06,0-.07,0-.07-.07Q89.27,47.51,89.27,46.16Z"/><path class="cls-6" d="M89.64,49h-.31a.11.11,0,0,1-.08,0,.11.11,0,0,1,0-.09q0-1.16,0-2.31v-.92q0-1.08,0-2.16a.11.11,0,0,1,0-.08.11.11,0,0,1,.08,0H91a.11.11,0,0,1,.08,0,.11.11,0,0,1,0,.08q0,2.7,0,5.39a.11.11,0,0,1,0,.09A.11.11,0,0,1,91,49H90.6a.08.08,0,0,1-.07,0,.08.08,0,0,1,0-.07.16.16,0,0,0,0,0v-.73q0-2.13,0-4.27a.09.09,0,0,0,0,0h-.77v0q0,1.17,0,2.33,0,1.33,0,2.66a.13.13,0,0,1,0,.1A.11.11,0,0,1,89.64,49Zm-.16-.09h.18a.11.11,0,0,0,0,0q0-1.33,0-2.66,0-1.17,0-2.33a.11.11,0,0,1,0-.08.11.11,0,0,1,.08,0h.71a.13.13,0,0,1,.09,0,.13.13,0,0,1,0,.09q0,2.13,0,4.27v.72a.27.27,0,0,1,0,0H91v0q0-2.7,0-5.39a.08.08,0,0,0,0,0H89.3v0q0,1.08,0,2.16v.92q0,1.16,0,2.31a.11.11,0,0,0,0,0h.17Z"/><rect class="cls-9" x="72.83" y="48.81" width="18.46" height="1.1"/><path class="cls-6" d="M91.33,50H72.79V48.77H91.33Zm-18.46-.08H91.25v-1H72.87Z"/><rect class="cls-10" x="46.3" y="31.64" width="50.79" height="29.2"/><path class="cls-6" d="M48.15,33.43V59H95.24V33.43ZM93.39,54.58a2.73,2.73,0,0,0-2.77,2.68H52.76A2.73,2.73,0,0,0,50,54.58V37.9a2.73,2.73,0,0,0,2.77-2.68H90.62a2.73,2.73,0,0,0,2.77,2.68Z"/><ellipse class="cls-7" cx="59.71" cy="46.24" rx="7.42" ry="9.05"/><path class="cls-6" d="M59.59,52.33A3.67,3.67,0,0,1,58,52a2.83,2.83,0,0,1-1.2-1,4.55,4.55,0,0,1-.25-2.06V47.29a.59.59,0,0,0-.59-.59H55a.59.59,0,0,1-.59-.59v-.43a.59.59,0,0,1,.59-.59h1a.59.59,0,0,0,.59-.59V44a15.14,15.14,0,0,0-.08-1.53.6.6,0,0,0-.08-.26,1.62,1.62,0,0,0-.61-.55.58.58,0,0,1-.19-.82l.16-.26a.6.6,0,0,1,.78-.21,3.07,3.07,0,0,1,1.17.94,3.36,3.36,0,0,1,.46,2v1.16a.59.59,0,0,0,.59.59h.44a.59.59,0,0,1,.59.59v.43a.59.59,0,0,1-.59.59h-.44a.59.59,0,0,0-.59.59v2.5a.58.58,0,0,0,.24.48,1.92,1.92,0,0,0,1,.42,2.52,2.52,0,0,0,1.9-.85,2.75,2.75,0,0,0,.8-1.94,1.54,1.54,0,0,0-.61-1.27.59.59,0,0,1,0-.94l.38-.3a.61.61,0,0,1,.81.06,3.43,3.43,0,0,1,1,2.48,4.36,4.36,0,0,1-1.27,3A3.89,3.89,0,0,1,59.59,52.33Z"/><circle class="cls-8" cx="82.23" cy="47.68" r="3.93"/><path class="cls-9" d="M85.13,45.57c0,2.07,0,4.07,0,6.07,0,.06,0,.08-.07.08h-.5s-.06,0,0,0a.29.29,0,0,0,0,0q0-4.1,0-8.2c0-.36,0-.72.06-1.07s0-.7.07-1l.08-1.16c0-.09,0-.09-.08-.09l-2.47.06c-.05,0-.06,0-.06.07l.26,2.13.13,1.06a.59.59,0,0,1,0,.07q0,4.1,0,8.2c0,.07,0,.08-.08.08H81.9s-.06,0,0-.05a.3.3,0,0,0,0,0q0-3.9,0-7.8c0-.37,0-.73-.05-1.09s0-.72-.07-1.08-.06-1-.09-1.43c0-.06,0-.07-.08-.07l-2.19,0s-.06,0-.06.06c.09.57.18,1.15.27,1.72l.22,1.43a.72.72,0,0,1,0,.11q0,4.07,0,8.14c0,.06,0,.08-.08.08h-.48s-.06,0-.06-.06c0-.49,0-1,0-1.47q0-3.19,0-6.39a7.42,7.42,0,0,0-.07-.93L79,41.66l-.16-1.31-.07-.58s0-.06,0-.06l3-.05L85,39.59h.22s.06,0,.05.05c0,.41,0,.82,0,1.23s0,1-.06,1.5C85.11,43.47,85.13,44.56,85.13,45.57Z"/><path class="cls-6" d="M79.75,51.75h-.49a.09.09,0,0,1-.07,0,.1.1,0,0,1,0-.08c0-.39,0-.78,0-1.18V48.59q0-2.4,0-4.79a7.45,7.45,0,0,0-.07-.92L79,41.7l-.19-1.54,0-.38a.08.08,0,0,1,.09-.11l3-.05L85,39.55h.22a.1.1,0,0,1,.07,0,.1.1,0,0,1,0,.07c0,.26,0,.51,0,.77l0,.85c0,.36,0,.74,0,1.11,0,.81,0,1.62,0,2.4,0,.27,0,.53,0,.8,0,2.07,0,4.07,0,6.07a.12.12,0,0,1,0,.09.12.12,0,0,1-.09,0h-.49a.09.09,0,0,1-.08,0,.09.09,0,0,1,0-.07.13.13,0,0,0,0,0V49.57q0-3.07,0-6.15c0-.24,0-.48,0-.72s0-.24,0-.36,0-.47,0-.71l0-.34,0-.69,0-.47s0,0,0,0h0l-.65,0-1.82,0h0v0l.17,1.42.22,1.77a.62.62,0,0,1,0,.08v1q0,3.59,0,7.17a.13.13,0,0,1,0,.09.14.14,0,0,1-.09,0H81.9a.08.08,0,0,1-.08,0,.09.09,0,0,1,0-.07.14.14,0,0,0,0,0V49.76q0-3,0-5.94c0-.27,0-.55,0-.81l0-.28c0-.24,0-.47,0-.71l0-.37,0-.24c0-.4-.05-.79-.08-1.19,0,0,0,0,0,0h0l-2.19,0h0c.08.46.15.92.22,1.38l.11.69.17,1.07a.74.74,0,0,1,0,.12v1.81q0,3.16,0,6.33a.12.12,0,0,1,0,.09A.11.11,0,0,1,79.75,51.75Zm-.24-.08h.26a.19.19,0,0,0,0,0q0-3.17,0-6.33V43.5a.7.7,0,0,0,0-.1l-.17-1.07-.11-.69c-.07-.46-.14-.92-.22-1.38a.08.08,0,0,1,.09-.11l2.19,0c.06,0,.12,0,.12.11,0,.4.05.79.08,1.19l0,.24,0,.37c0,.24,0,.47,0,.71l0,.28c0,.27,0,.54,0,.82q0,3,0,5.94v1.87a.2.2,0,0,1,0,0h.57a.11.11,0,0,0,0,0q0-3.59,0-7.17v-1a.58.58,0,0,0,0-.07l-.22-1.77-.17-1.42a.1.1,0,0,1,0-.08.1.1,0,0,1,.08,0L84,40l.65,0c.05,0,.08,0,.11,0s0,.05,0,.11l0,.47,0,.69,0,.34c0,.24,0,.47,0,.71s0,.24,0,.36,0,.47,0,.71q0,3.07,0,6.15v2.06a.17.17,0,0,1,0,0h.54a.26.26,0,0,0,0,0c0-2,0-4,0-6.07h0c0-.26,0-.53,0-.8,0-.78,0-1.59,0-2.4,0-.37,0-.74,0-1.11l0-.85q0-.39,0-.77a.07.07,0,0,0,0,0H85l-3.21.06-3,.05h0l0,.38L79,41.69l.15,1.18a7.51,7.51,0,0,1,.07.93q0,2.4,0,4.79v1.89c0,.39,0,.78,0,1.18v0h.27Z"/><path class="cls-9" d="M77.52,47.85q0,1.89,0,3.77c0,.06,0,.08-.08.07h-.32s-.05,0,0,0a.36.36,0,0,0,0,0q0-3.57,0-7.14c0-.07,0-.08-.08-.08h-.76c-.05,0-.07,0-.07.07q0,3.43,0,6.85c0,.12,0,.23,0,.35s0,0,0,0h-.39s-.06,0-.05-.06a.2.2,0,0,0,0,0q0-3.77,0-7.54c0-.06,0-.08.08-.08h1.68c.06,0,.07,0,.07.07Q77.52,46,77.52,47.85Z"/><path class="cls-6" d="M77.46,51.73h-.33a.09.09,0,0,1-.07,0,.09.09,0,0,1,0-.07.16.16,0,0,0,0,0V50.3q0-2.92,0-5.84a.08.08,0,0,0,0,0h-.82v0q0,2.94,0,5.87v1.07c0,.08,0,.17,0,.25a.09.09,0,0,1,0,.07.08.08,0,0,1-.07,0h-.39a.1.1,0,0,1-.08,0,.09.09,0,0,1,0-.08.07.07,0,0,0,0,0v-1q0-3.3,0-6.59a.13.13,0,0,1,0-.1.12.12,0,0,1,.09,0h1.69a.11.11,0,0,1,.08,0,.12.12,0,0,1,0,.09q0,1.51,0,3V48.6q0,1.51,0,3a.12.12,0,0,1,0,.09A.11.11,0,0,1,77.46,51.73Zm-.16-.08h.18a.11.11,0,0,0,0,0q0-1.51,0-3V47.09q0-1.51,0-3a.09.09,0,0,0,0,0H75.73a.09.09,0,0,0,0,0q0,3.3,0,6.59v.94a.2.2,0,0,1,0,0h.41c0-.08,0-.17,0-.25V50.32q0-2.94,0-5.87a.11.11,0,0,1,0-.08.11.11,0,0,1,.08,0H77a.12.12,0,0,1,.09,0,.13.13,0,0,1,0,.09q0,2.92,0,5.84v1.31a.25.25,0,0,1,0,0h.18Z"/><path class="cls-9" d="M86.72,47.84q0-1.89,0-3.78c0-.06,0-.07.07-.07h1.69c.05,0,.07,0,.07.07q0,3.79,0,7.57s0,.07-.06.06h-.38s-.05,0,0,0a.42.42,0,0,0,0-.05q0-3.57,0-7.13c0-.07,0-.08-.08-.08h-.76c-.05,0-.07,0-.07.07q0,1.31,0,2.62,0,2.27,0,4.55c0,.07,0,.08-.08.08h-.31s0,0,0,0a.78.78,0,0,0,0-.08Z"/><path class="cls-6" d="M87.09,51.73h-.33a.08.08,0,0,1-.07,0,.08.08,0,0,1,0-.07.37.37,0,0,0,0,0V47.3q0-1.62,0-3.24a.1.1,0,0,1,.11-.11h1.69a.09.09,0,0,1,.11.11q0,3.78,0,7.57a.11.11,0,0,1,0,.08.1.1,0,0,1-.08,0h-.38a.1.1,0,0,1-.07,0,.08.08,0,0,1,0-.07.17.17,0,0,0,0,0V50.8q0-3.17,0-6.34a.08.08,0,0,0,0,0H87.2v0q0,1.07,0,2.14v1.23q0,1.89,0,3.79a.13.13,0,0,1,0,.1A.11.11,0,0,1,87.09,51.73Zm-.16-.08h.18a.09.09,0,0,0,0,0q0-1.89,0-3.79V46.59q0-1.07,0-2.14a.11.11,0,0,1,0-.08.12.12,0,0,1,.08,0H88a.13.13,0,0,1,.09,0,.13.13,0,0,1,0,.09q0,3.17,0,6.34v.81a.23.23,0,0,1,0,0h.41v0q0-3.78,0-7.57a.08.08,0,0,0,0,0H86.76a.14.14,0,0,0,0,0q0,1.62,0,3.24v4.29a.45.45,0,0,1,0,.06h.18Z"/><path class="cls-9" d="M75,48.86q0,1.35,0,2.69c0,.05,0,.07-.07.07h-.33s-.06,0,0-.05a.26.26,0,0,0,0,0q0-2.49,0-5c0-.06,0-.08-.08-.08h-.71c-.06,0-.07,0-.07.07q0,2.5,0,5c0,.06,0,.08-.08.08h-.34c-.05,0-.06,0-.06-.06,0-.39,0-.78,0-1.18q0-2.11,0-4.22c0-.06,0-.07.07-.07h1.63c.05,0,.07,0,.07.07Q75,47.51,75,48.86Z"/><path class="cls-6" d="M73.62,51.67h-.35a.11.11,0,0,1-.08,0,.1.1,0,0,1,0-.08c0-.31,0-.63,0-.94v-.84q0-1.81,0-3.62a.12.12,0,0,1,0-.09.12.12,0,0,1,.09,0h1.63a.09.09,0,0,1,.11.11q0,1.08,0,2.16V49.4q0,1.08,0,2.15a.09.09,0,0,1-.11.11h-.32a.1.1,0,0,1-.07,0,.09.09,0,0,1,0-.07.1.1,0,0,0,0,0h0v-.62q0-2.18,0-4.35a.08.08,0,0,0,0,0h-.77s0,0,0,0q0,1.33,0,2.66,0,1.17,0,2.33a.12.12,0,0,1,0,.1A.1.1,0,0,1,73.62,51.67Zm-.18-.09h.2a.24.24,0,0,0,0,0q0-1.17,0-2.33,0-1.33,0-2.66a.12.12,0,0,1,0-.09.11.11,0,0,1,.09,0h.7a.1.1,0,0,1,.12.12q0,2.18,0,4.35v.63a.21.21,0,0,1,0,0h.36v0q0-1.08,0-2.15V48.32q0-1.08,0-2.16a.09.09,0,0,0,0,0H73.25a.24.24,0,0,0,0,0q0,1.81,0,3.62v.84c0,.31,0,.63,0,.94v0h.19Z"/><path class="cls-9" d="M89.27,48.86q0-1.35,0-2.7c0-.05,0-.07.07-.07H91c.05,0,.07,0,.07.07q0,2.7,0,5.39c0,.05,0,.07-.07.07H90.6s0,0,0,0a.34.34,0,0,0,0,0q0-2.49,0-5c0-.06,0-.08-.08-.08h-.71c-.06,0-.07,0-.07.07q0,2.5,0,5c0,.06,0,.09-.08.08h-.29c-.06,0-.07,0-.07-.07Q89.27,50.21,89.27,48.86Z"/><path class="cls-6" d="M89.64,51.67h-.31a.11.11,0,0,1-.08,0,.11.11,0,0,1,0-.09q0-1.16,0-2.31v-.92q0-1.08,0-2.16a.11.11,0,0,1,0-.08.11.11,0,0,1,.08,0H91a.11.11,0,0,1,.08,0,.11.11,0,0,1,0,.08q0,2.7,0,5.39a.11.11,0,0,1,0,.09.11.11,0,0,1-.08,0H90.6a.08.08,0,0,1-.07,0,.08.08,0,0,1,0-.07.16.16,0,0,0,0,0v-.73q0-2.13,0-4.27a.09.09,0,0,0,0,0h-.77v0q0,1.17,0,2.33,0,1.33,0,2.66a.13.13,0,0,1,0,.1A.11.11,0,0,1,89.64,51.67Zm-.16-.09h.18a.11.11,0,0,0,0,0q0-1.33,0-2.66,0-1.17,0-2.33a.11.11,0,0,1,0-.08.11.11,0,0,1,.08,0h.71a.13.13,0,0,1,.09,0,.13.13,0,0,1,0,.09q0,2.13,0,4.27v.72a.27.27,0,0,1,0,0H91v0q0-2.7,0-5.39a.08.08,0,0,0,0,0H89.3v0q0,1.08,0,2.16v.92q0,1.16,0,2.31a.11.11,0,0,0,0,0h.17Z"/><rect class="cls-9" x="72.83" y="51.51" width="18.46" height="1.1"/><path class="cls-6" d="M91.33,52.65H72.79V51.47H91.33Zm-18.46-.08H91.25v-1H72.87Z"/><rect class="cls-11" x="46.3" y="34.09" width="50.79" height="29.2"/><path class="cls-6" d="M48.15,35.88V61.5H95.24V35.88ZM93.39,57a2.73,2.73,0,0,0-2.77,2.68H52.76A2.73,2.73,0,0,0,50,57V40.35a2.73,2.73,0,0,0,2.77-2.68H90.62a2.73,2.73,0,0,0,2.77,2.68Z"/><ellipse class="cls-7" cx="59.71" cy="48.69" rx="7.42" ry="9.05"/><path class="cls-6" d="M59.59,54.78A3.67,3.67,0,0,1,58,54.41a2.83,2.83,0,0,1-1.2-1,4.55,4.55,0,0,1-.25-2.06V49.74a.59.59,0,0,0-.59-.59H55a.59.59,0,0,1-.59-.59v-.43a.59.59,0,0,1,.59-.59h1a.59.59,0,0,0,.59-.59V46.5A15.14,15.14,0,0,0,56.5,45a.6.6,0,0,0-.08-.26,1.62,1.62,0,0,0-.61-.55.58.58,0,0,1-.19-.82l.16-.26a.6.6,0,0,1,.78-.21,3.07,3.07,0,0,1,1.17.94,3.36,3.36,0,0,1,.46,2v1.16a.59.59,0,0,0,.59.59h.44a.59.59,0,0,1,.59.59v.43a.59.59,0,0,1-.59.59h-.44a.59.59,0,0,0-.59.59v2.5a.58.58,0,0,0,.24.48,1.92,1.92,0,0,0,1,.42,2.52,2.52,0,0,0,1.9-.85,2.75,2.75,0,0,0,.8-1.94,1.54,1.54,0,0,0-.61-1.27.59.59,0,0,1,0-.94l.38-.3a.61.61,0,0,1,.81.06,3.43,3.43,0,0,1,1,2.48,4.36,4.36,0,0,1-1.27,3A3.89,3.89,0,0,1,59.59,54.78Z"/><circle class="cls-8" cx="82.23" cy="50.14" r="3.93"/><path class="cls-9" d="M85.13,48c0,2.07,0,4.07,0,6.07,0,.06,0,.08-.07.08h-.5s-.06,0,0,0a.29.29,0,0,0,0,0q0-4.1,0-8.2c0-.36,0-.72.06-1.07s0-.7.07-1l.08-1.16c0-.09,0-.09-.08-.09l-2.47.06c-.05,0-.06,0-.06.07l.26,2.13.13,1.06a.59.59,0,0,1,0,.07q0,4.1,0,8.2c0,.07,0,.08-.08.08H81.9s-.06,0,0-.05a.3.3,0,0,0,0,0q0-3.9,0-7.8c0-.37,0-.73-.05-1.09s0-.72-.07-1.08-.06-1-.09-1.43c0-.06,0-.07-.08-.07l-2.19,0s-.06,0-.06.06c.09.57.18,1.15.27,1.72l.22,1.43a.72.72,0,0,1,0,.11q0,4.07,0,8.14c0,.06,0,.08-.08.08h-.48s-.06,0-.06-.06c0-.49,0-1,0-1.47q0-3.19,0-6.39a7.42,7.42,0,0,0-.07-.93L79,44.11l-.16-1.31-.07-.58s0-.06,0-.06l3-.05L85,42h.22s.06,0,.05.05c0,.41,0,.82,0,1.23s0,1-.06,1.5C85.11,45.92,85.13,47,85.13,48Z"/><path class="cls-6" d="M79.75,54.21h-.49a.09.09,0,0,1-.07,0,.1.1,0,0,1,0-.08c0-.39,0-.78,0-1.18V51q0-2.4,0-4.79a7.45,7.45,0,0,0-.07-.92L79,44.15l-.19-1.54,0-.38a.08.08,0,0,1,.09-.11l3-.05L85,42h.22a.1.1,0,0,1,.07,0,.1.1,0,0,1,0,.07c0,.26,0,.51,0,.77l0,.85c0,.36,0,.74,0,1.11,0,.81,0,1.62,0,2.4,0,.27,0,.53,0,.8,0,2.07,0,4.07,0,6.07a.12.12,0,0,1,0,.09.12.12,0,0,1-.09,0h-.49a.09.09,0,0,1-.08,0,.09.09,0,0,1,0-.07.13.13,0,0,0,0,0V52q0-3.07,0-6.15c0-.24,0-.48,0-.72s0-.24,0-.36,0-.47,0-.71l0-.34,0-.69,0-.47s0,0,0,0h0l-.65,0-1.82,0h0v0L82.33,44l.22,1.77a.62.62,0,0,1,0,.08v1q0,3.59,0,7.17a.13.13,0,0,1,0,.09.14.14,0,0,1-.09,0H81.9a.08.08,0,0,1-.08,0,.09.09,0,0,1,0-.07.14.14,0,0,0,0,0V52.21q0-3,0-5.94c0-.27,0-.55,0-.81l0-.28c0-.24,0-.47,0-.71l0-.37,0-.24c0-.4-.05-.79-.08-1.19,0,0,0,0,0,0h0l-2.19,0h0c.08.46.15.92.22,1.38l.11.69.17,1.07a.74.74,0,0,1,0,.12v1.81q0,3.16,0,6.33a.12.12,0,0,1,0,.09A.11.11,0,0,1,79.75,54.21Zm-.24-.08h.26a.19.19,0,0,0,0,0q0-3.17,0-6.33V45.95a.7.7,0,0,0,0-.1l-.17-1.07-.11-.69c-.07-.46-.14-.92-.22-1.38a.08.08,0,0,1,.09-.11l2.19,0c.06,0,.12,0,.12.11,0,.4.05.79.08,1.19l0,.24,0,.37c0,.24,0,.47,0,.71l0,.28c0,.27,0,.54,0,.82q0,3,0,5.94v1.87a.2.2,0,0,1,0,0h.57a.11.11,0,0,0,0,0q0-3.59,0-7.17v-1a.58.58,0,0,0,0-.07L82.24,44l-.17-1.42a.1.1,0,0,1,0-.08.1.1,0,0,1,.08,0l1.82,0,.65,0c.05,0,.08,0,.11,0s0,.05,0,.11l0,.47,0,.69,0,.34c0,.24,0,.47,0,.71s0,.24,0,.36,0,.47,0,.71q0,3.07,0,6.15v2.06a.17.17,0,0,1,0,0h.54a.26.26,0,0,0,0,0c0-2,0-4,0-6.07h0c0-.26,0-.53,0-.8,0-.78,0-1.59,0-2.4,0-.37,0-.74,0-1.11l0-.85q0-.39,0-.77a.07.07,0,0,0,0,0H85l-3.21.06-3,.05h0l0,.38L79,44.14l.15,1.18a7.51,7.51,0,0,1,.07.93q0,2.4,0,4.79v1.89c0,.39,0,.78,0,1.18v0h.27Z"/><path class="cls-9" d="M77.52,50.3q0,1.89,0,3.77c0,.06,0,.08-.08.07h-.32s-.05,0,0,0a.36.36,0,0,0,0,0q0-3.57,0-7.14c0-.07,0-.08-.08-.08h-.76c-.05,0-.07,0-.07.07q0,3.43,0,6.85c0,.12,0,.23,0,.35s0,0,0,0h-.39s-.06,0-.05-.06a.2.2,0,0,0,0,0q0-3.77,0-7.54c0-.06,0-.08.08-.08h1.68c.06,0,.07,0,.07.07Q77.52,48.41,77.52,50.3Z"/><path class="cls-6" d="M77.46,54.19h-.33a.09.09,0,0,1-.07,0,.09.09,0,0,1,0-.07.16.16,0,0,0,0,0V52.75q0-2.92,0-5.84a.08.08,0,0,0,0,0h-.82v0q0,2.94,0,5.87v1.07c0,.08,0,.17,0,.25a.09.09,0,0,1,0,.07.08.08,0,0,1-.07,0h-.39a.1.1,0,0,1-.08,0,.09.09,0,0,1,0-.08.07.07,0,0,0,0,0v-1q0-3.3,0-6.59a.13.13,0,0,1,0-.1.12.12,0,0,1,.09,0h1.69a.11.11,0,0,1,.08,0,.12.12,0,0,1,0,.09q0,1.51,0,3v1.51q0,1.51,0,3a.12.12,0,0,1,0,.09A.11.11,0,0,1,77.46,54.19Zm-.16-.08h.18a.11.11,0,0,0,0,0q0-1.51,0-3V49.54q0-1.51,0-3a.09.09,0,0,0,0,0H75.73a.09.09,0,0,0,0,0q0,3.3,0,6.59v.94a.2.2,0,0,1,0,0h.41c0-.08,0-.17,0-.25V52.77q0-2.94,0-5.87a.11.11,0,0,1,0-.08.11.11,0,0,1,.08,0H77a.12.12,0,0,1,.09,0,.13.13,0,0,1,0,.09q0,2.92,0,5.84v1.31a.25.25,0,0,1,0,0h.18Z"/><path class="cls-9" d="M86.72,50.29q0-1.89,0-3.78c0-.06,0-.07.07-.07h1.69c.05,0,.07,0,.07.07q0,3.79,0,7.57s0,.07-.06.06h-.38s-.05,0,0,0a.42.42,0,0,0,0-.05q0-3.57,0-7.13c0-.07,0-.08-.08-.08h-.76c-.05,0-.07,0-.07.07q0,1.31,0,2.62,0,2.27,0,4.55c0,.07,0,.08-.08.08h-.31s0,0,0,0a.78.78,0,0,0,0-.08Z"/><path class="cls-6" d="M87.09,54.19h-.33a.08.08,0,0,1-.07,0,.08.08,0,0,1,0-.07.37.37,0,0,0,0,0V49.75q0-1.62,0-3.24a.1.1,0,0,1,.11-.11h1.69a.09.09,0,0,1,.11.11q0,3.78,0,7.57a.11.11,0,0,1,0,.08.1.1,0,0,1-.08,0h-.38a.1.1,0,0,1-.07,0,.08.08,0,0,1,0-.07.17.17,0,0,0,0,0v-.81q0-3.17,0-6.34a.08.08,0,0,0,0,0H87.2v0q0,1.07,0,2.14v1.23q0,1.89,0,3.79a.13.13,0,0,1,0,.1A.11.11,0,0,1,87.09,54.19Zm-.16-.08h.18a.09.09,0,0,0,0,0q0-1.89,0-3.79V49q0-1.07,0-2.14a.11.11,0,0,1,0-.08.12.12,0,0,1,.08,0H88a.13.13,0,0,1,.09,0,.13.13,0,0,1,0,.09q0,3.17,0,6.34v.81a.23.23,0,0,1,0,0h.41v0q0-3.78,0-7.57a.08.08,0,0,0,0,0H86.76a.14.14,0,0,0,0,0q0,1.62,0,3.24V54a.45.45,0,0,1,0,.06h.18Z"/><path class="cls-9" d="M75,51.32q0,1.35,0,2.69c0,.05,0,.07-.07.07h-.33s-.06,0,0-.05a.26.26,0,0,0,0,0q0-2.49,0-5c0-.06,0-.08-.08-.08h-.71c-.06,0-.07,0-.07.07q0,2.5,0,5c0,.06,0,.08-.08.08h-.34c-.05,0-.06,0-.06-.06,0-.39,0-.78,0-1.18q0-2.11,0-4.22c0-.06,0-.07.07-.07h1.63c.05,0,.07,0,.07.07Q75,50,75,51.32Z"/><path class="cls-6" d="M73.62,54.12h-.35a.11.11,0,0,1-.08,0,.1.1,0,0,1,0-.08c0-.31,0-.63,0-.94v-.84q0-1.81,0-3.62a.12.12,0,0,1,0-.09.12.12,0,0,1,.09,0h1.63a.09.09,0,0,1,.11.11q0,1.08,0,2.16v1.08q0,1.08,0,2.15a.09.09,0,0,1-.11.11h-.32a.1.1,0,0,1-.07,0,.09.09,0,0,1,0-.07.1.1,0,0,0,0,0h0v-.62q0-2.18,0-4.35a.08.08,0,0,0,0,0h-.77s0,0,0,0q0,1.33,0,2.66,0,1.17,0,2.33a.12.12,0,0,1,0,.1A.1.1,0,0,1,73.62,54.12ZM73.45,54h.2a.24.24,0,0,0,0,0q0-1.17,0-2.33,0-1.33,0-2.66a.12.12,0,0,1,0-.09.11.11,0,0,1,.09,0h.7a.1.1,0,0,1,.12.12q0,2.18,0,4.35V54a.21.21,0,0,1,0,0h.36v0q0-1.08,0-2.15V50.77q0-1.08,0-2.16a.09.09,0,0,0,0,0H73.25a.24.24,0,0,0,0,0q0,1.81,0,3.62v.84c0,.31,0,.63,0,.94v0h.19Z"/><path class="cls-9" d="M89.27,51.31q0-1.35,0-2.7c0-.05,0-.07.07-.07H91c.05,0,.07,0,.07.07q0,2.7,0,5.39c0,.05,0,.07-.07.07H90.6s0,0,0,0a.34.34,0,0,0,0,0q0-2.49,0-5c0-.06,0-.08-.08-.08h-.71c-.06,0-.07,0-.07.07q0,2.5,0,5c0,.06,0,.09-.08.08h-.29c-.06,0-.07,0-.07-.07Q89.27,52.66,89.27,51.31Z"/><path class="cls-6" d="M89.64,54.12h-.31a.11.11,0,0,1-.08,0,.11.11,0,0,1,0-.09q0-1.16,0-2.31v-.92q0-1.08,0-2.16a.11.11,0,0,1,0-.08.11.11,0,0,1,.08,0H91a.11.11,0,0,1,.08,0,.11.11,0,0,1,0,.08q0,2.7,0,5.39a.11.11,0,0,1,0,.09.11.11,0,0,1-.08,0H90.6a.08.08,0,0,1-.07,0,.08.08,0,0,1,0-.07.16.16,0,0,0,0,0v-.73q0-2.13,0-4.27a.09.09,0,0,0,0,0h-.77v0q0,1.17,0,2.33,0,1.33,0,2.66a.13.13,0,0,1,0,.1A.11.11,0,0,1,89.64,54.12ZM89.48,54h.18a.11.11,0,0,0,0,0q0-1.33,0-2.66,0-1.17,0-2.33a.11.11,0,0,1,0-.08.11.11,0,0,1,.08,0h.71a.13.13,0,0,1,.09,0,.13.13,0,0,1,0,.09q0,2.13,0,4.27V54a.27.27,0,0,1,0,0H91v0q0-2.7,0-5.39a.08.08,0,0,0,0,0H89.3v0q0,1.08,0,2.16v.92q0,1.16,0,2.31a.11.11,0,0,0,0,0h.17Z"/><rect class="cls-9" x="72.83" y="53.96" width="18.46" height="1.1"/><path class="cls-6" d="M91.33,55.1H72.79V53.92H91.33ZM72.87,55H91.25V54H72.87Z"/><rect class="cls-12" x="46.3" y="36.48" width="50.79" height="29.2"/><path class="cls-6" d="M48.15,38.27V63.89H95.24V38.27ZM93.39,59.42a2.73,2.73,0,0,0-2.77,2.68H52.76A2.73,2.73,0,0,0,50,59.42V42.74a2.73,2.73,0,0,0,2.77-2.68H90.62a2.73,2.73,0,0,0,2.77,2.68Z"/><ellipse class="cls-7" cx="59.71" cy="51.08" rx="7.42" ry="9.05"/><path class="cls-6" d="M59.59,57.18A3.67,3.67,0,0,1,58,56.8a2.83,2.83,0,0,1-1.2-1,4.55,4.55,0,0,1-.25-2.06V52.13a.59.59,0,0,0-.59-.59H55a.59.59,0,0,1-.59-.59v-.43a.59.59,0,0,1,.59-.59h1a.59.59,0,0,0,.59-.59v-.44a15.14,15.14,0,0,0-.08-1.53.6.6,0,0,0-.08-.26,1.62,1.62,0,0,0-.61-.55.58.58,0,0,1-.19-.82l.16-.26a.6.6,0,0,1,.78-.21,3.07,3.07,0,0,1,1.17.94,3.36,3.36,0,0,1,.46,2v1.16a.59.59,0,0,0,.59.59h.44a.59.59,0,0,1,.59.59v.43a.59.59,0,0,1-.59.59h-.44a.59.59,0,0,0-.59.59v2.5a.58.58,0,0,0,.24.48,1.92,1.92,0,0,0,1,.42,2.52,2.52,0,0,0,1.9-.85,2.75,2.75,0,0,0,.8-1.94,1.54,1.54,0,0,0-.61-1.27.59.59,0,0,1,0-.94l.38-.3a.61.61,0,0,1,.81.06,3.43,3.43,0,0,1,1,2.48,4.36,4.36,0,0,1-1.27,3A3.89,3.89,0,0,1,59.59,57.18Z"/><circle class="cls-8" cx="82.23" cy="52.53" r="3.93"/><path class="cls-9" d="M85.13,50.42c0,2.07,0,4.07,0,6.07,0,.06,0,.08-.07.08h-.5s-.06,0,0,0a.29.29,0,0,0,0,0q0-4.1,0-8.2c0-.36,0-.72.06-1.07s0-.7.07-1L84.72,45c0-.09,0-.09-.08-.09l-2.47.06c-.05,0-.06,0-.06.07l.26,2.13.13,1.06a.59.59,0,0,1,0,.07q0,4.1,0,8.2c0,.07,0,.08-.08.08H81.9s-.06,0,0-.05a.3.3,0,0,0,0,0q0-3.9,0-7.8c0-.37,0-.73-.05-1.09s0-.72-.07-1.08-.06-1-.09-1.43c0-.06,0-.07-.08-.07l-2.19,0s-.06,0-.06.06c.09.57.18,1.15.27,1.72l.22,1.43a.72.72,0,0,1,0,.11q0,4.07,0,8.14c0,.06,0,.08-.08.08h-.48s-.06,0-.06-.06c0-.49,0-1,0-1.47q0-3.19,0-6.39a7.42,7.42,0,0,0-.07-.93L79,46.5l-.16-1.31-.07-.58s0-.06,0-.06l3-.05L85,44.44h.22s.06,0,.05.05c0,.41,0,.82,0,1.23s0,1-.06,1.5C85.11,48.31,85.13,49.4,85.13,50.42Z"/><path class="cls-6" d="M79.75,56.6h-.49a.09.09,0,0,1-.07,0,.1.1,0,0,1,0-.08c0-.39,0-.78,0-1.18V53.43q0-2.4,0-4.79a7.45,7.45,0,0,0-.07-.92L79,46.54,78.76,45l0-.38a.08.08,0,0,1,.09-.11l3-.05L85,44.4h.22a.1.1,0,0,1,.07,0,.1.1,0,0,1,0,.07c0,.26,0,.51,0,.77l0,.85c0,.36,0,.74,0,1.11,0,.81,0,1.62,0,2.4,0,.27,0,.53,0,.8,0,2.07,0,4.07,0,6.07a.12.12,0,0,1,0,.09.12.12,0,0,1-.09,0h-.49a.09.09,0,0,1-.08,0,.09.09,0,0,1,0-.07.13.13,0,0,0,0,0V54.41q0-3.07,0-6.15c0-.24,0-.48,0-.72s0-.24,0-.36,0-.47,0-.71l0-.34,0-.69,0-.47s0,0,0,0h0l-.65,0-1.82,0h0v0l.17,1.42.22,1.77a.62.62,0,0,1,0,.08v1q0,3.59,0,7.17a.13.13,0,0,1,0,.09.14.14,0,0,1-.09,0H81.9a.08.08,0,0,1-.08,0,.09.09,0,0,1,0-.07.14.14,0,0,0,0,0V54.6q0-3,0-5.94c0-.27,0-.55,0-.81l0-.28c0-.24,0-.47,0-.71l0-.37,0-.24c0-.4-.05-.79-.08-1.19,0,0,0,0,0,0h0l-2.19,0h0c.08.46.15.92.22,1.38l.11.69.17,1.07a.74.74,0,0,1,0,.12v1.81q0,3.16,0,6.33a.12.12,0,0,1,0,.09A.11.11,0,0,1,79.75,56.6Zm-.24-.08h.26a.19.19,0,0,0,0,0q0-3.17,0-6.33V48.34a.7.7,0,0,0,0-.1l-.17-1.07-.11-.69c-.07-.46-.14-.92-.22-1.38a.08.08,0,0,1,.09-.11l2.19,0c.06,0,.12,0,.12.11,0,.4.05.79.08,1.19l0,.24,0,.37c0,.24,0,.47,0,.71l0,.28c0,.27,0,.54,0,.82q0,3,0,5.94v1.87a.2.2,0,0,1,0,0h.57a.11.11,0,0,0,0,0q0-3.59,0-7.17v-1a.58.58,0,0,0,0-.07l-.22-1.77L82.07,45a.1.1,0,0,1,0-.08.1.1,0,0,1,.08,0l1.82,0,.65,0c.05,0,.08,0,.11,0s0,.05,0,.11l0,.47,0,.69,0,.34c0,.24,0,.47,0,.71s0,.24,0,.36,0,.47,0,.71q0,3.07,0,6.15v2.06a.17.17,0,0,1,0,0h.54a.26.26,0,0,0,0,0c0-2,0-4,0-6.07h0c0-.26,0-.53,0-.8,0-.78,0-1.59,0-2.4,0-.37,0-.74,0-1.11l0-.85q0-.39,0-.77a.07.07,0,0,0,0,0H85l-3.21.06-3,.05h0l0,.38L79,46.53l.15,1.18a7.51,7.51,0,0,1,.07.93q0,2.4,0,4.79v1.89c0,.39,0,.78,0,1.18v0h.27Z"/><path class="cls-9" d="M77.52,52.69q0,1.89,0,3.77c0,.06,0,.08-.08.07h-.32s-.05,0,0,0a.36.36,0,0,0,0,0q0-3.57,0-7.14c0-.07,0-.08-.08-.08h-.76c-.05,0-.07,0-.07.07q0,3.43,0,6.85c0,.12,0,.23,0,.35s0,0,0,0h-.39s-.06,0-.05-.06a.2.2,0,0,0,0,0q0-3.77,0-7.54c0-.06,0-.08.08-.08h1.68c.06,0,.07,0,.07.07Q77.52,50.8,77.52,52.69Z"/><path class="cls-6" d="M77.46,56.58h-.33a.09.09,0,0,1-.07,0,.09.09,0,0,1,0-.07.16.16,0,0,0,0,0V55.14q0-2.92,0-5.84a.08.08,0,0,0,0,0h-.82v0q0,2.94,0,5.87v1.07c0,.08,0,.17,0,.25a.09.09,0,0,1,0,.07.08.08,0,0,1-.07,0h-.39a.1.1,0,0,1-.08,0,.09.09,0,0,1,0-.08.07.07,0,0,0,0,0v-1q0-3.3,0-6.59a.13.13,0,0,1,0-.1.12.12,0,0,1,.09,0h1.69a.11.11,0,0,1,.08,0,.12.12,0,0,1,0,.09q0,1.51,0,3v1.51q0,1.51,0,3a.12.12,0,0,1,0,.09A.11.11,0,0,1,77.46,56.58Zm-.16-.08h.18a.11.11,0,0,0,0,0q0-1.51,0-3V51.93q0-1.51,0-3a.09.09,0,0,0,0,0H75.73a.09.09,0,0,0,0,0q0,3.3,0,6.59v.94a.2.2,0,0,1,0,0h.41c0-.08,0-.17,0-.25V55.16q0-2.94,0-5.87a.11.11,0,0,1,0-.08.11.11,0,0,1,.08,0H77a.12.12,0,0,1,.09,0,.13.13,0,0,1,0,.09q0,2.92,0,5.84v1.31a.25.25,0,0,1,0,0h.18Z"/><path class="cls-9" d="M86.72,52.68q0-1.89,0-3.78c0-.06,0-.07.07-.07h1.69c.05,0,.07,0,.07.07q0,3.79,0,7.57s0,.07-.06.06h-.38s-.05,0,0,0a.42.42,0,0,0,0-.05q0-3.57,0-7.13c0-.07,0-.08-.08-.08h-.76c-.05,0-.07,0-.07.07q0,1.31,0,2.62,0,2.27,0,4.55c0,.07,0,.08-.08.08h-.31s0,0,0,0a.78.78,0,0,0,0-.08Z"/><path class="cls-6" d="M87.09,56.58h-.33a.08.08,0,0,1-.07,0,.08.08,0,0,1,0-.07.37.37,0,0,0,0,0V52.15q0-1.62,0-3.24a.1.1,0,0,1,.11-.11h1.69a.09.09,0,0,1,.11.11q0,3.78,0,7.57a.11.11,0,0,1,0,.08.1.1,0,0,1-.08,0h-.38a.1.1,0,0,1-.07,0,.08.08,0,0,1,0-.07.17.17,0,0,0,0,0v-.81q0-3.17,0-6.34a.08.08,0,0,0,0,0H87.2v0q0,1.07,0,2.14v1.23q0,1.89,0,3.79a.13.13,0,0,1,0,.1A.11.11,0,0,1,87.09,56.58Zm-.16-.08h.18a.09.09,0,0,0,0,0q0-1.89,0-3.79V51.43q0-1.07,0-2.14a.11.11,0,0,1,0-.08.12.12,0,0,1,.08,0H88a.13.13,0,0,1,.09,0,.13.13,0,0,1,0,.09q0,3.17,0,6.34v.81a.23.23,0,0,1,0,0h.41v0q0-3.78,0-7.57a.08.08,0,0,0,0,0H86.76a.14.14,0,0,0,0,0q0,1.62,0,3.24v4.29a.45.45,0,0,1,0,.06h.18Z"/><path class="cls-9" d="M75,53.71q0,1.35,0,2.69c0,.05,0,.07-.07.07h-.33s-.06,0,0-.05a.26.26,0,0,0,0,0q0-2.49,0-5c0-.06,0-.08-.08-.08h-.71c-.06,0-.07,0-.07.07q0,2.5,0,5c0,.06,0,.08-.08.08h-.34c-.05,0-.06,0-.06-.06,0-.39,0-.78,0-1.18q0-2.11,0-4.22c0-.06,0-.07.07-.07h1.63c.05,0,.07,0,.07.07Q75,52.36,75,53.71Z"/><path class="cls-6" d="M73.62,56.51h-.35a.11.11,0,0,1-.08,0,.1.1,0,0,1,0-.08c0-.31,0-.63,0-.94v-.84q0-1.81,0-3.62a.12.12,0,0,1,0-.09.12.12,0,0,1,.09,0h1.63A.09.09,0,0,1,75,51q0,1.08,0,2.16v1.08q0,1.08,0,2.15a.09.09,0,0,1-.11.11h-.32a.1.1,0,0,1-.07,0,.09.09,0,0,1,0-.07.1.1,0,0,0,0,0h0v-.62q0-2.18,0-4.35a.08.08,0,0,0,0,0h-.77s0,0,0,0q0,1.33,0,2.66,0,1.17,0,2.33a.12.12,0,0,1,0,.1A.1.1,0,0,1,73.62,56.51Zm-.18-.09h.2a.24.24,0,0,0,0,0q0-1.17,0-2.33,0-1.33,0-2.66a.12.12,0,0,1,0-.09.11.11,0,0,1,.09,0h.7a.1.1,0,0,1,.12.12q0,2.18,0,4.35v.63a.21.21,0,0,1,0,0h.36v0q0-1.08,0-2.15V53.17q0-1.08,0-2.16a.09.09,0,0,0,0,0H73.25a.24.24,0,0,0,0,0q0,1.81,0,3.62v.84c0,.31,0,.63,0,.94v0h.19Z"/><path class="cls-9" d="M89.27,53.7q0-1.35,0-2.7c0-.05,0-.07.07-.07H91c.05,0,.07,0,.07.07q0,2.7,0,5.39c0,.05,0,.07-.07.07H90.6s0,0,0,0a.34.34,0,0,0,0,0q0-2.49,0-5c0-.06,0-.08-.08-.08h-.71c-.06,0-.07,0-.07.07q0,2.5,0,5c0,.06,0,.09-.08.08h-.29c-.06,0-.07,0-.07-.07Q89.27,55.05,89.27,53.7Z"/><path class="cls-6" d="M89.64,56.51h-.31a.11.11,0,0,1-.08,0,.11.11,0,0,1,0-.09q0-1.16,0-2.31v-.92q0-1.08,0-2.16a.11.11,0,0,1,0-.08.11.11,0,0,1,.08,0H91a.11.11,0,0,1,.08,0,.11.11,0,0,1,0,.08q0,2.7,0,5.39a.11.11,0,0,1,0,.09.11.11,0,0,1-.08,0H90.6a.08.08,0,0,1-.07,0,.08.08,0,0,1,0-.07.16.16,0,0,0,0,0v-.73q0-2.13,0-4.27a.09.09,0,0,0,0,0h-.77v0q0,1.17,0,2.33,0,1.33,0,2.66a.13.13,0,0,1,0,.1A.11.11,0,0,1,89.64,56.51Zm-.16-.09h.18a.11.11,0,0,0,0,0q0-1.33,0-2.66,0-1.17,0-2.33a.11.11,0,0,1,0-.08.11.11,0,0,1,.08,0h.71a.13.13,0,0,1,.09,0,.13.13,0,0,1,0,.09q0,2.13,0,4.27v.72a.27.27,0,0,1,0,0H91v0q0-2.7,0-5.39a.08.08,0,0,0,0,0H89.3v0q0,1.08,0,2.16v.92q0,1.16,0,2.31a.11.11,0,0,0,0,0h.17Z"/><rect class="cls-9" x="72.83" y="56.35" width="18.46" height="1.1"/><path class="cls-6" d="M91.33,57.49H72.79V56.31H91.33Zm-18.46-.08H91.25v-1H72.87Z"/><path class="cls-3" d="M46.46,59.19V54h9.09a3.89,3.89,0,0,0,0-7.79H46.46V35.83H34.78l-9.09,9.09V65.68H46.46Z"/></g></g></svg>