<svg xmlns="http://www.w3.org/2000/svg" viewBox="0 0 128.47 128.47"><defs><style>.cls-1{fill:none;stroke:#ec1c24;stroke-miterlimit:10;}.cls-2{fill:#f2f2f2;}.cls-3{fill:#61b872;}.cls-4{fill:#50965c;}.cls-5{fill:#edeada;}.cls-6{fill:#ce1515;}.cls-7{fill:#d8a852;}.cls-8{fill:#a37f46;}.cls-9{fill:#1ea6c6;}.cls-10{fill:#fcd09f;}.cls-11{fill:#e2b991;}</style></defs><title>Asset 33</title><g id="Layer_2" data-name="Layer 2"><g id="Layer_1-2" data-name="Layer 1"><circle class="cls-1" cx="64.74" cy="64.74" r="63.24"/><circle class="cls-2" cx="63.24" cy="63.24" r="63.24"/><path class="cls-3" d="M87.76,46.71,51.47,51.26,52.69,61l49.56-6.21L101,45Zm0,0"/><path class="cls-4" d="M70.5,52.47a1.78,1.78,0,1,1-2-1.54,1.79,1.79,0,0,1,2,1.54Zm0,0"/><path class="cls-4" d="M75.81,51.8a1.79,1.79,0,1,1-2-1.54,1.79,1.79,0,0,1,2,1.54Zm0,0"/><path class="cls-4" d="M81.12,51.13a1.78,1.78,0,1,1-2-1.55,1.78,1.78,0,0,1,2,1.55Zm0,0"/><path class="cls-4" d="M86.43,50.47a1.78,1.78,0,1,1-2-1.55,1.78,1.78,0,0,1,2,1.55Zm0,0"/><rect class="cls-5" x="54.72" y="57.75" width="49.95" height="35.68" transform="translate(-8.78 10.5) rotate(-7.15)"/><path class="cls-4" d="M73.05,65.63a.89.89,0,1,1-1-.77.89.89,0,0,1,1,.77Zm0,0"/><path class="cls-6" d="M79.24,64.85a.89.89,0,1,1-1-.77.89.89,0,0,1,1,.77Zm0,0"/><path class="cls-4" d="M85.44,64.08a.89.89,0,1,1-1-.77.89.89,0,0,1,1,.77Zm0,0"/><path class="cls-4" d="M91.63,63.3a.89.89,0,1,1-1-.78.89.89,0,0,1,1,.78Zm0,0"/><path class="cls-6" d="M97.83,62.52a.89.89,0,1,1-1-.77.89.89,0,0,1,1,.77Zm0,0"/><path class="cls-4" d="M61.55,74.27a.89.89,0,1,1-1-.78.89.89,0,0,1,1,.78Zm0,0"/><path class="cls-4" d="M67.74,73.49a.89.89,0,1,1-1-.77.89.89,0,0,1,1,.77Zm0,0"/><path class="cls-4" d="M73.94,72.71a.89.89,0,1,1-1-.77.89.89,0,0,1,1,.77Zm0,0"/><path class="cls-4" d="M80.13,71.94a.89.89,0,1,1-1-.77.89.89,0,0,1,1,.77Zm0,0"/><path class="cls-4" d="M86.33,71.16a.89.89,0,1,1-1-.77.89.89,0,0,1,1,.77Zm0,0"/><path class="cls-4" d="M92.52,70.38a.89.89,0,1,1-1-.78.89.89,0,0,1,1,.78Zm0,0"/><path class="cls-6" d="M98.72,69.6a.89.89,0,1,1-1-.77.89.89,0,0,1,1,.77Zm0,0"/><path class="cls-4" d="M62.32,80.46a.89.89,0,1,1-1-.78.89.89,0,0,1,1,.78Zm0,0"/><path class="cls-4" d="M68.52,79.68a.89.89,0,1,1-1-.77.89.89,0,0,1,1,.77Zm0,0"/><path class="cls-4" d="M74.72,78.9a.89.89,0,1,1-1-.77.89.89,0,0,1,1,.77Zm0,0"/><path class="cls-4" d="M80.91,78.13a.89.89,0,1,1-1-.77.89.89,0,0,1,1,.77Zm0,0"/><path class="cls-6" d="M87.11,77.35a.89.89,0,1,1-1-.77.89.89,0,0,1,1,.77Zm0,0"/><path class="cls-4" d="M93.3,76.57a.89.89,0,1,1-1-.78.89.89,0,0,1,1,.78Zm0,0"/><path class="cls-6" d="M99.49,75.8a.89.89,0,1,1-1-.77.89.89,0,0,1,1,.77Zm0,0"/><path class="cls-4" d="M63.21,87.54a.89.89,0,1,1-1-.78.89.89,0,0,1,1,.78Zm0,0"/><path class="cls-4" d="M69.41,86.76a.89.89,0,1,1-1-.77.89.89,0,0,1,1,.77Zm0,0"/><path class="cls-4" d="M75.61,86a.89.89,0,1,1-1-.77.89.89,0,0,1,1,.77Zm0,0"/><path class="cls-4" d="M81.8,85.21a.89.89,0,1,1-1-.77.89.89,0,0,1,1,.77Zm0,0"/><path class="cls-4" d="M88,84.43a.89.89,0,1,1-1-.77.89.89,0,0,1,1,.77Zm0,0"/><path class="cls-7" d="M83.66,42.73A4.43,4.43,0,0,0,81.12,44a4.49,4.49,0,0,1,1.33,1.18,2.67,2.67,0,1,1,2.1,4.66.89.89,0,1,0,.22,1.77,4.46,4.46,0,0,0-1.11-8.85Zm0,0"/><path class="cls-8" d="M80.12,45.44a4.39,4.39,0,0,0-.33,2.27l1.77-.22a2.68,2.68,0,0,0-1.44-2Zm0,0"/><path class="cls-8" d="M74.81,46.1a4.38,4.38,0,0,0-.33,2.27l1.77-.22a2.68,2.68,0,0,0-1.44-2Zm0,0"/><path class="cls-7" d="M82.45,45.14A4.49,4.49,0,0,0,81.12,44a4.37,4.37,0,0,0-5.31.67,4.47,4.47,0,0,1,1.33,1.18,2.67,2.67,0,1,1,2.1,4.66.89.89,0,0,0,.22,1.77,4.43,4.43,0,0,0,3-7.1Zm0,0"/><path class="cls-8" d="M69.5,46.77A4.38,4.38,0,0,0,69.17,49l1.77-.22a2.67,2.67,0,0,0-1.44-2Zm0,0"/><path class="cls-7" d="M77.14,45.81a4.47,4.47,0,0,0-1.33-1.18,4.37,4.37,0,0,0-5.31.67,4.53,4.53,0,0,1,1.33,1.18,2.67,2.67,0,1,1,2.1,4.66.89.89,0,0,0,.22,1.77,4.46,4.46,0,0,0,3.87-5,4.38,4.38,0,0,0-.88-2.12Zm0,0"/><path class="cls-7" d="M71.83,46.48A4.53,4.53,0,0,0,70.5,45.3a4.44,4.44,0,0,0-6.64,4.41l1.77-.22a2.68,2.68,0,1,1,3,2.32.89.89,0,0,0,.22,1.77,4.46,4.46,0,0,0,3.87-5,4.38,4.38,0,0,0-.88-2.12Zm0,0"/><path class="cls-9" d="M28.53,52.23A9.51,9.51,0,1,1,43.2,52.1L41.7,50.89a7.51,7.51,0,0,0,1.69-4.78A7.59,7.59,0,1,0,30,51Zm0,0"/><path class="cls-9" d="M28.8,58.84a14.53,14.53,0,1,1,17.29-2.46L44.73,55a12.61,12.61,0,1,0-15,2.14Zm0,0"/><path class="cls-10" d="M58.88,65.7V85.12a16.57,16.57,0,0,1-.67,4.66,23.14,23.14,0,0,0-.71,3.27,23.54,23.54,0,0,0-.24,3.34H34.41V92.87a2.94,2.94,0,0,0-1.68-2.65,15.54,15.54,0,0,1-1.74-1,7.35,7.35,0,0,1-2.58-3L24.56,78a3.94,3.94,0,0,1,.57-4.23l1.31-1.53A4.11,4.11,0,0,0,27.39,69a2.92,2.92,0,0,1,0-.41,3,3,0,0,1,3-3l.44,0a4.9,4.9,0,0,1,1.59.41V46.15a3.43,3.43,0,0,1,6.85,0V61.8a3.43,3.43,0,1,1,6.85,0v2.36a3.43,3.43,0,0,1,6.85,0v1.61a3,3,0,0,1,2.92-3,3,3,0,0,1,3,3Zm0,0"/><path class="cls-11" d="M32.38,66V76.76a1.59,1.59,0,0,1-1.59-1.58V65.63a4.9,4.9,0,0,1,1.59.41Zm0,0"/></g></g></svg>