<svg xmlns="http://www.w3.org/2000/svg" viewBox="0 0 128.47 128.47"><defs><style>.cls-1{fill:none;stroke:#ec1c24;stroke-miterlimit:10;}.cls-2{fill:#f2f2f2;}.cls-3{fill:#dceae9;}.cls-4{fill:#c5d3d2;}.cls-5{fill:#f9f9f9;}.cls-6{fill:#b4c1bf;}.cls-7{fill:#ffc08c;}.cls-8{fill:#fc7f59;}.cls-9{fill:#f3f3ff;}.cls-10{fill:#ffa04e;}.cls-11{fill:#ef8141;}.cls-12{fill:#eaeaea;}.cls-13{fill:#ddd;}.cls-14{fill:#b7b7b7;}.cls-15{fill:#fffcee;}.cls-16{fill:#ffef9f;}.cls-17{fill:#ffd87c;}</style></defs><title>Asset 12</title><g id="Layer_2" data-name="Layer 2"><g id="Layer_1-2" data-name="Layer 1"><circle class="cls-1" cx="64.74" cy="64.74" r="63.24"/><circle class="cls-2" cx="63.24" cy="63.24" r="63.24"/><path class="cls-3" d="M33.69,61.86l2.54-2.54a1.72,1.72,0,0,1,1.22-.5h.1a1.72,1.72,0,0,1,1.22.5l2.54,2.54,2.54-2.54a1.72,1.72,0,0,1,1.22-.5h.1a1.72,1.72,0,0,1,1.22.5l2.54,2.54,2.54-2.54a1.72,1.72,0,0,1,1.22-.5h.1a1.72,1.72,0,0,1,1.22.5l2.54,2.54,2.54-2.54a1.72,1.72,0,0,1,1.22-.5h.1a1.72,1.72,0,0,1,1.22.5l2.54,2.54,2.54-2.54a1.72,1.72,0,0,1,1.22-.5h0a1.72,1.72,0,0,1,1.72,1.72v36l-36.84.3a4.57,4.57,0,0,1-4.57-4.57V60.53a1.72,1.72,0,0,1,1.72-1.72h0a1.72,1.72,0,0,1,1.22.5Z"/><path class="cls-4" d="M34.15,61.39l2-2a1.84,1.84,0,0,1,1.3-.54h0a1.84,1.84,0,0,1,1.3.54l1.44,1.43V96.73H34.15Z"/><path class="cls-5" d="M69.62,96.87H32.78a4.57,4.57,0,0,0,4.57-4.57V26.54A1.52,1.52,0,0,1,38.87,25h.28a1.52,1.52,0,0,1,1.08.45l2.6,2.6,2.6-2.6A1.52,1.52,0,0,1,46.5,25h.26a1.52,1.52,0,0,1,1.08.45l2.6,2.6,2.6-2.6A1.52,1.52,0,0,1,54.11,25h.26a1.52,1.52,0,0,1,1.08.45l2.6,2.6,2.6-2.6A1.52,1.52,0,0,1,61.72,25H62a1.52,1.52,0,0,1,1.08.45l2.6,2.6,2.6-2.6A1.52,1.52,0,0,1,69.34,25h.26a1.52,1.52,0,0,1,1.08.45l2.6,2.6,2.6-2.6A1.52,1.52,0,0,1,76.95,25h.28a1.52,1.52,0,0,1,1.52,1.52V93.82a3,3,0,0,1-3,3Z"/><path class="cls-6" d="M42.29,64.6a1.14,1.14,0,0,1,1.14-1.14H60.18a1.14,1.14,0,1,1,0,2.28H43.44A1.14,1.14,0,0,1,42.29,64.6Zm1.14-4.95H54.09a1.14,1.14,0,0,0,0-2.28H43.44a1.14,1.14,0,1,0,0,2.28Zm0,10.66h9.13a1.14,1.14,0,0,0,0-2.28H43.44a1.14,1.14,0,1,0,0,2.28ZM66.27,83.24H43.44a1.14,1.14,0,1,0,0,2.28H66.27a1.14,1.14,0,0,0,0-2.28Zm-6.09,4.57H43.44a1.14,1.14,0,1,0,0,2.28H60.18a1.14,1.14,0,1,0,0-2.28ZM43.44,79.44H54.09a1.14,1.14,0,0,0,0-2.28H43.44a1.14,1.14,0,1,0,0,2.28Z"/><path class="cls-7" d="M64.77,41a6.88,6.88,0,1,1-6.88-6.88A6.88,6.88,0,0,1,64.77,41Z"/><path class="cls-8" d="M57.9,33a8,8,0,1,0,8,8A8,8,0,0,0,57.9,33Zm0,13.7A5.71,5.71,0,1,1,63.61,41,5.71,5.71,0,0,1,57.9,46.71ZM62.08,41a1.14,1.14,0,0,1-1.14,1.14H59V44a1.14,1.14,0,1,1-2.28,0v-1.9h-1.9a1.14,1.14,0,1,1,0-2.28h1.9V38A1.14,1.14,0,1,1,59,38v1.9h1.9A1.14,1.14,0,0,1,62.08,41Z"/><path class="cls-9" d="M78.75,26.54V93.82a3,3,0,0,1-3,3V25.63l.16-.16A1.52,1.52,0,0,1,76.95,25h.28A1.52,1.52,0,0,1,78.75,26.54Z"/><path class="cls-10" d="M96.72,61.55V99.91a3,3,0,0,1-3,3H73.88a3,3,0,0,1-3-3V92a1.52,1.52,0,0,1,1.52-1.52h1.37V73.73H72.36a1.52,1.52,0,0,1-1.52-1.52V61.55Z"/><path class="cls-11" d="M96.72,61.55V99.91a3,3,0,0,1-3,3h-3a3,3,0,0,0,3-3V73.73a4.57,4.57,0,0,0-4.57-4.57H70.84V63.07H93.67V61.55Z"/><path class="cls-12" d="M76.16,52.42H91.39a1.52,1.52,0,0,1,1.52,1.52v7.61H74.64V53.94A1.52,1.52,0,0,1,76.16,52.42Z"/><path class="cls-13" d="M99.76,58.51V64.6a1.52,1.52,0,0,1-1.52,1.52h-1.9a.91.91,0,0,0-.91-.91H95a.91.91,0,0,0-.91.91H91.77a.91.91,0,0,0-.91-.91H90.4a.91.91,0,0,0-.91.91H87.2a.91.91,0,0,0-.91-.91h-.46a.91.91,0,0,0-.91.91H82.63a.91.91,0,0,0-.91-.91h-.46a.91.91,0,0,0-.91.91H78.07a.91.91,0,0,0-.91-.91H76.7a.91.91,0,0,0-.91.91H73.5a.91.91,0,0,0-.91-.91h-.46a.91.91,0,0,0-.91.91h-1.9a1.52,1.52,0,0,1-1.52-1.52V58.51A1.52,1.52,0,0,1,69.31,57h19a1.52,1.52,0,0,0,1.52-1.52v-3h1.52a1.52,1.52,0,0,1,1.52,1.52v3h5.33A1.52,1.52,0,0,1,99.76,58.51Z"/><path class="cls-14" d="M75.78,57h2.28v9.13H75.78Zm-4.57,9.13H73.5V57H71.22Zm9.13,0h2.28V57H80.35Zm4.57,0H87.2V57H84.92ZM94.05,57v9.13h2.28V57Zm-4.57,9.13h2.28V57H89.48Z"/><path class="cls-15" d="M70.84,72.21H96.72V92H70.84Z"/><path class="cls-16" d="M93.67,72.21h3V92h-3Z"/><path class="cls-17" d="M91.77,78.3a1.14,1.14,0,0,1-1.14,1.14H76.93a1.14,1.14,0,0,1,0-2.28h13.7A1.14,1.14,0,0,1,91.77,78.3Zm-4.95,3.43H80.73a1.14,1.14,0,0,0,0,2.28h6.09a1.14,1.14,0,0,0,0-2.28Z"/></g></g></svg>