<svg xmlns="http://www.w3.org/2000/svg" viewBox="0 0 128.47 128.47"><defs><style>.cls-1{fill:none;stroke:#ec1c24;stroke-miterlimit:10;}.cls-2{fill:#f2f2f2;}.cls-3{fill:#e6f3ff;}.cls-4{fill:#324a5e;}.cls-5{fill:#2b3b4e;}.cls-6{fill:#cfdbe6;}.cls-7{fill:#ffd15d;}.cls-8{fill:#a6a8aa;}.cls-9{fill:#386895;}.cls-10{fill:#fff;}.cls-11{fill:#b54324;}</style></defs><title>Asset 29</title><g id="Layer_2" data-name="Layer 2"><g id="Layer_1-2" data-name="Layer 1"><circle class="cls-1" cx="64.74" cy="64.74" r="63.24"/><circle class="cls-2" cx="63.24" cy="63.24" r="63.24"/><path class="cls-3" d="M98.14,86.42H29V45.78a3,3,0,0,1,3-3H95.18a3,3,0,0,1,3,3Z"/><rect class="cls-4" x="33.58" y="47.43" width="59.95" height="38.57"/><rect class="cls-5" x="63.42" y="47.43" width="30.12" height="38.57"/><path class="cls-6" d="M102.62,98.58H24.49A2.45,2.45,0,0,1,22,96.13V87.19a2.45,2.45,0,0,1,2.45-2.45h78.12a2.45,2.45,0,0,1,2.45,2.45v8.94A2.45,2.45,0,0,1,102.62,98.58Z"/><rect class="cls-7" x="46.26" y="29.4" width="34.59" height="48.43"/><rect class="cls-8" x="53.18" y="49.73" width="20.75" height="1.17"/><rect class="cls-8" x="53.18" y="56.17" width="20.75" height="1.17"/><rect class="cls-8" x="53.18" y="62.6" width="20.75" height="1.17"/><rect class="cls-8" x="53.18" y="69.03" width="20.75" height="1.17"/><path class="cls-9" d="M102.61,73.65a18.52,18.52,0,0,0-3-7.67l2.24-2.24L97.3,59.22,95.13,61.4a18.52,18.52,0,0,0-7.73-3.27v-3H81v3a18.52,18.52,0,0,0-7.73,3.27L71.1,59.22l-4.52,4.52L68.81,66a18.51,18.51,0,0,0-3,7.67H62.47V80h3.45a18.53,18.53,0,0,0,3.2,7.35L66.57,90l4.52,4.52,2.61-2.61a18.51,18.51,0,0,0,7.29,3v3.76h6.4V94.82a18.52,18.52,0,0,0,7.29-3l2.61,2.61L101.82,90,99.27,87.4a18.52,18.52,0,0,0,3.2-7.35h3.45v-6.4ZM84.2,85.78a9.31,9.31,0,1,1,9.31-9.31A9.31,9.31,0,0,1,84.2,85.78Z"/><circle class="cls-10" cx="84.2" cy="76.85" r="13.04"/><polygon class="cls-11" points="80.67 82.01 79.03 80.38 83.04 76.37 83.04 68.16 85.36 68.16 85.36 77.33 80.67 82.01"/><path class="cls-9" d="M68.84,41.47q0,3.19-5.89,4.65l-1.57-1V38.76H59.65V37.36h1.73v-2q0-1-.58-1a1.07,1.07,0,0,0-.79.38l-.74-1.08a2.33,2.33,0,0,1,1.63-.94A1.89,1.89,0,0,1,63,34.35q0,1.51.09,3h1.6v1.3h-1.6V44.4q4-1.15,4-2.83a.72.72,0,0,0-.8-.83,2.48,2.48,0,0,0-1,.58l-.89-1.08q.43-1.12,2.07-1.12a2.19,2.19,0,0,1,1.66.72A2.33,2.33,0,0,1,68.84,41.47Z"/></g></g></svg>