<svg xmlns="http://www.w3.org/2000/svg" viewBox="0 0 128.47 128.47"><defs><style>.cls-1{fill:none;stroke:#ec1c24;stroke-miterlimit:10;}.cls-2{fill:#f2f2f2;}.cls-3{fill:#f6c358;}.cls-4{fill:#fcd462;}.cls-5{fill:#44c4a1;}.cls-6{fill:#27a2db;}.cls-7{fill:#e56353;}.cls-8{fill:#dc8744;}.cls-9{fill:#fff;}</style></defs><title>Asset 30</title><g id="Layer_2" data-name="Layer 2"><g id="Layer_1-2" data-name="Layer 1"><circle class="cls-1" cx="64.74" cy="64.74" r="63.24"/><circle class="cls-2" cx="63.24" cy="63.24" r="63.24"/><circle class="cls-3" cx="53.55" cy="46.79" r="16.17"/><circle class="cls-4" cx="53.55" cy="46.79" r="12.85"/><path class="cls-5" d="M98.14,68.27H86a1.94,1.94,0,0,0-1.94,1.94V95.4A1.94,1.94,0,0,0,86,97.34H98.14a1.94,1.94,0,0,0,1.94-1.94V70.21A1.94,1.94,0,0,0,98.14,68.27Z"/><path class="cls-3" d="M84.06,75.19l-9-6.73a3.88,3.88,0,0,0-2.32-.77h-15a4,4,0,0,0-4,3.5,3.88,3.88,0,0,0,3.86,4.26H71.46a1.59,1.59,0,0,1-1,2.87H50.83L33.74,68.23a3.88,3.88,0,1,0-3.94,6.68L47.22,90.82a3.84,3.84,0,0,0,2,1,3.88,3.88,0,0,0,.52,0H84.06"/><rect class="cls-6" x="90.68" y="86.42" width="2.8" height="10.93"/><circle class="cls-7" cx="92.07" cy="74.35" r="2.67"/><path class="cls-8" d="M47.42,36.89a1.19,1.19,0,0,1,.28,0h.35a6.87,6.87,0,0,1,2.15.33A4.15,4.15,0,0,1,52,38.35a5.53,5.53,0,0,1,1.17,2.23,11.19,11.19,0,0,1,.32,3.56h1.24l1.43,1.71H53.47v8.68h.38a10,10,0,0,0,1.87-.14,2.85,2.85,0,0,0,1.16-.46,1.79,1.79,0,0,0,.62-.81A4.37,4.37,0,0,0,57.75,52a2.49,2.49,0,0,0-.08-.87,1.81,1.81,0,0,0-.32-.62,2,2,0,0,0-.52-.44q-.32-.19-.63-.35l-.6-.29.79-1.81a4.64,4.64,0,0,1,2.47,1.54A4.5,4.5,0,0,1,59.68,52a5.92,5.92,0,0,1-.33,2.11,3,3,0,0,1-1.08,1.41,5.08,5.08,0,0,1-1.95.79,14.35,14.35,0,0,1-2.91.25H51.48V45.85H50l-1.36-1.71h2.82v-.6q0-.29,0-.6t0-.62c0-.2,0-.38,0-.55a4.52,4.52,0,0,0-1.11-2.23,2.83,2.83,0,0,0-2.15-.87h-.41a1.34,1.34,0,0,0-.32,0Z"/><path class="cls-8" d="M77.44,53.2a8,8,0,0,0-1.31-3.32l1-1-2-2-.94.94a8,8,0,0,0-3.35-1.41v-1.3H68.09v1.3a8,8,0,0,0-3.35,1.41L63.8,47l-2,2,1,1A8,8,0,0,0,61.5,53.2H60.07V56h1.49a8,8,0,0,0,1.39,3.18l-1.1,1.1,2,2,1.13-1.13a8,8,0,0,0,3.16,1.28V64h2.77V62.36A8,8,0,0,0,74,61.08l1.13,1.13,2-2L76,59.15A8,8,0,0,0,77.38,56h1.49V53.2Zm-8,5.25a4,4,0,1,1,4-4A4,4,0,0,1,69.47,58.45Z"/><circle class="cls-9" cx="69.47" cy="54.58" r="5.64"/><polygon class="cls-3" points="67.94 56.82 67.24 56.11 68.97 54.37 68.97 50.82 69.97 50.82 69.97 54.79 67.94 56.82"/></g></g></svg>