<svg xmlns="http://www.w3.org/2000/svg" viewBox="0 0 128.47 128.47"><defs><style>.cls-1{fill:none;stroke:#ec1c24;stroke-miterlimit:10;}.cls-2{fill:#f2f2f2;}.cls-3{fill:#7383bf;}.cls-4{fill:#536396;}.cls-5{fill:#38454f;}.cls-6{fill:#fff;}</style></defs><title>Asset 31</title><g id="Layer_2" data-name="Layer 2"><g id="Layer_1-2" data-name="Layer 1"><circle class="cls-1" cx="64.74" cy="64.74" r="63.24"/><circle class="cls-2" cx="63.24" cy="63.24" r="63.24"/><path class="cls-3" d="M70.44,69.25v8.17H44.75V69.25H25a.06.06,0,0,0-.06.06V92.15a2.78,2.78,0,0,0,2.78,2.78H87.51a2.78,2.78,0,0,0,2.79-2.78V69.3a.06.06,0,0,0-.06-.06Zm0,0"/><path class="cls-4" d="M78.62,51.73h-42L24.91,69.19a0,0,0,0,0,0,.06h19.8v8.17H70.44V69.25h19.8a0,0,0,0,0,0-.06Zm0,0"/><path class="cls-5" d="M67.76,59.08a1.17,1.17,0,0,0-1.65,0l-7.35,7.34V34.21a1.17,1.17,0,1,0-2.33,0V66.42l-7.35-7.34a1.17,1.17,0,1,0-1.65,1.65L57.59,70.89l.83-.82h0l9.35-9.34a1.16,1.16,0,0,0,0-1.65Zm0,0"/><path class="cls-5" d="M100.56,70.26a14.07,14.07,0,0,0-2.3-5.83l1.7-1.7L96.53,59.3l-1.65,1.65A14.08,14.08,0,0,0,89,58.46V56.18H84.14v2.29a14.08,14.08,0,0,0-5.88,2.48L76.61,59.3l-3.44,3.44,1.7,1.7a14.07,14.07,0,0,0-2.3,5.83H70.05v4.86h2.62a14.08,14.08,0,0,0,2.43,5.59l-1.94,1.94,3.44,3.44,2-2a14.07,14.07,0,0,0,5.54,2.25v2.86H89V86.35a14.07,14.07,0,0,0,5.54-2.25l2,2L100,82.65,98,80.71a14.08,14.08,0,0,0,2.43-5.59h2.62V70.26Zm-14,9.22a7.08,7.08,0,1,1,7.08-7.08A7.08,7.08,0,0,1,86.57,79.49Z"/><circle class="cls-6" cx="86.57" cy="72.69" r="9.91"/><polygon class="cls-3" points="83.89 76.62 82.64 75.37 85.69 72.33 85.69 66.09 87.45 66.09 87.45 73.06 83.89 76.62"/></g></g></svg>