<svg xmlns="http://www.w3.org/2000/svg" xmlns:xlink="http://www.w3.org/1999/xlink" viewBox="0 0 128.47 128.47"><defs><style>.cls-1,.cls-2{fill:none;}.cls-2{stroke:#ec1c24;stroke-miterlimit:10;}.cls-3{fill:#f2f2f2;}.cls-4{fill:#64798a;}.cls-5{fill:#d5d6db;}.cls-6{fill:#dc8744;}.cls-7{fill:#3a556a;}.cls-8{fill:#bbfafc;}.cls-9{fill:#2f4859;}.cls-10{fill:#7383bf;}.cls-11{fill:#556080;}.cls-12{fill:#26b99a;}.cls-13{clip-path:url(#clip-path);}.cls-14{fill:#fff;}</style><clipPath id="clip-path"><rect class="cls-1" x="36.85" y="72.54" width="8.12" height="8.35" transform="translate(-44.18 58.87) rotate(-50.08)"/></clipPath></defs><title>Asset 26</title><g id="Layer_2" data-name="Layer 2"><g id="Layer_1-2" data-name="Layer 1"><circle class="cls-2" cx="64.74" cy="64.74" r="63.24"/><circle class="cls-3" cx="63.24" cy="63.24" r="63.24"/><path class="cls-4" d="M96.53,100.29h-21a4.08,4.08,0,0,1-4.08-4.08V42.72a4.08,4.08,0,0,1,4.08-4.08h21a4.08,4.08,0,0,1,4.08,4.08V96.21A4.08,4.08,0,0,1,96.53,100.29Z"/><rect class="cls-5" x="76.13" y="89.68" width="19.75" height="4.83"/><rect class="cls-5" x="76.13" y="80.94" width="19.75" height="4.83"/><rect class="cls-5" x="76.13" y="72.32" width="19.75" height="4.83"/><circle class="cls-5" cx="86.01" cy="49.15" r="3.98"/><rect class="cls-6" x="39.27" y="91.49" width="17.81" height="5.65"/><path class="cls-7" d="M80,46.4a1.78,1.78,0,0,0-1.78-1.78H18.11a1.78,1.78,0,0,0-1.78,1.78v37H80Z"/><rect class="cls-8" x="19.8" y="48.09" width="56.74" height="35.26"/><path class="cls-7" d="M16.33,83.35v7a1.78,1.78,0,0,0,1.78,1.78H78.24A1.78,1.78,0,0,0,80,90.32v-7Z"/><circle class="cls-5" cx="48.17" cy="87.72" r="2.41"/><path class="cls-9" d="M59.23,96.73H37.11a4,4,0,0,0-4,4H63.28A4,4,0,0,0,59.23,96.73Z"/><path class="cls-10" d="M61.83,72.73l-5.31-2.66a2,2,0,0,1-1.12-1.81V66.18c.15-.17.32-.39.5-.65a12.31,12.31,0,0,0,1.65-3.33,1.66,1.66,0,0,0,1.18-1.59V58.39a1.66,1.66,0,0,0-.55-1.23V53.94s.66-5-6.12-5-6.12,5-6.12,5v3.22a1.65,1.65,0,0,0-.56,1.23v2.22a1.67,1.67,0,0,0,.77,1.4,11,11,0,0,0,2,4.16v2A2,2,0,0,1,47.12,70l-5,2.71a4.46,4.46,0,0,0-2.32,3.92v1.8H64.3V76.72a4.46,4.46,0,0,0-2.46-4Zm0,0"/><path class="cls-11" d="M42.16,72.7l3.31-1.8s0,0,0,0L47.12,70a2,2,0,0,0,1.06-1.78v-2A10.66,10.66,0,0,1,47,64.33c-.08-.15-.15-.31-.22-.47l0-.07c-.07-.17-.15-.34-.21-.52v0q-.09-.24-.17-.5l0-.14c-.06-.19-.11-.38-.15-.58a1.66,1.66,0,0,1-.77-1.4V58.39a1.65,1.65,0,0,1,.56-1.23V54a6.11,6.11,0,0,0-3.89-1.19c-5.32,0-5.56,4.45-5.56,4.45v2.78a1.51,1.51,0,0,0-.55,1.06V63a1.44,1.44,0,0,0,.66,1.21,8,8,0,0,0,2.09,3.59V69.6a1.75,1.75,0,0,1-.91,1.54l-3.73,2.34a3.86,3.86,0,0,0-2,3.38v1.55h7.78v-1.8a4.46,4.46,0,0,1,2.32-3.92Zm0,0"/><circle class="cls-12" cx="40.91" cy="77.15" r="5.16"/><g class="cls-13"><path class="cls-14" d="M41.4,75l1.23-1.47-4.49.38.4,4.51,1.23-1.47s2.59,1.27,2,5a4.69,4.69,0,0,0,1.45-4.34A4.4,4.4,0,0,0,41.4,75Zm0,0"/><path class="cls-12" d="M41.54,82.28l.07-.41c.51-3.14-1.32-4.47-1.8-4.76l-1.39,1.66L38,73.72l5-.43-1.37,1.64a4.46,4.46,0,0,1,1.74,2.6A4.88,4.88,0,0,1,41.86,82Zm-1.12-5.12A4.73,4.73,0,0,1,42,81.45a4.55,4.55,0,0,0,1.08-3.87,4.31,4.31,0,0,0-1.75-2.5l-.13-.1,1.09-1.3-4,.34.35,4,1.06-1.27.11.05a3.17,3.17,0,0,1,.58.39Zm0,0"/></g></g></g></svg>