<svg xmlns="http://www.w3.org/2000/svg" viewBox="0 0 128.47 128.47"><defs><style>.cls-1{fill:none;stroke:#ec1c24;stroke-miterlimit:10;}.cls-2{fill:#f2f2f2;}.cls-3{fill:#ff7058;}.cls-4{fill:#fff;}.cls-5{fill:#ffd15c;}.cls-6{fill:#cdd6e0;}</style></defs><title>Asset 15</title><g id="Layer_2" data-name="Layer 2"><g id="Layer_1-2" data-name="Layer 1"><circle class="cls-1" cx="64.74" cy="64.74" r="63.24"/><circle class="cls-2" cx="63.24" cy="63.24" r="63.24"/><circle class="cls-3" cx="63.99" cy="38.69" r="8.2"/><polygon class="cls-4" points="70.06 37.32 65.51 37.32 65.51 32.61 62.47 32.61 62.47 37.32 57.91 37.32 57.91 40.21 62.47 40.21 62.47 44.77 65.51 44.77 65.51 40.21 70.06 40.21 70.06 37.32"/><path class="cls-5" d="M30.86,41.88a3.37,3.37,0,0,0-3.34,3.34V97.34h6.53V45.22A3.24,3.24,0,0,0,30.86,41.88Z"/><path class="cls-5" d="M97.11,54.64A3.37,3.37,0,0,0,93.77,58v39.5h6.69V57.83A3.24,3.24,0,0,0,97.11,54.64Z"/><rect class="cls-2" x="34.06" y="65.13" width="59.71" height="12.61"/><rect class="cls-6" x="34.06" y="74.24" width="59.71" height="3.49"/><path class="cls-3" d="M93.92,88.83H62a3,3,0,0,1-3-3V62.39a3,3,0,0,1,3-3H93.92Z"/><rect class="cls-2" x="85.26" y="59.35" width="2.73" height="29.48"/><path class="cls-6" d="M45.45,63.61a10.71,10.71,0,0,0-9.72-9.72h0c-.91,0-1.67.61-1.52,1.52h0a10.71,10.71,0,0,0,9.72,9.72C44.84,65.28,45.45,64.52,45.45,63.61Z"/></g></g></svg>