<svg xmlns="http://www.w3.org/2000/svg" viewBox="0 0 128.47 128.47"><defs><style>.cls-1{fill:none;stroke:#ec1c24;stroke-miterlimit:10;}.cls-2{fill:#f2f2f2;}.cls-3{fill:#e2c35a;}.cls-4{fill:#d9b43a;}.cls-5{fill:#e7e4cd;}.cls-6{fill:#d5d2bd;}.cls-7{fill:#5b5751;}.cls-8{fill:#ebd37a;}.cls-9{fill:#ab5034;}</style></defs><title>Asset 16</title><g id="Layer_2" data-name="Layer 2"><g id="Layer_1-2" data-name="Layer 1"><circle class="cls-1" cx="64.74" cy="64.74" r="63.24"/><circle class="cls-2" cx="63.24" cy="63.24" r="63.24"/><path class="cls-3" d="M100.72,41.54H35.42a4.08,4.08,0,0,0-4.08,4.08v8.16L98.68,98.67h1.89a4.08,4.08,0,0,0,4.23-4.08v-49A4.08,4.08,0,0,0,100.72,41.54Z"/><path class="cls-4" d="M103.27,95.1A3.06,3.06,0,0,1,100.21,92V51.74a7.66,7.66,0,0,0-7.14-7.63V41.54H82L94.59,98.67h6a4.08,4.08,0,0,0,4.2-3.57h-1.5Z"/><path class="cls-5" d="M84.39,29.3H43.58a4.08,4.08,0,0,0-4.08,4.08V55.82h49V33.38A4.08,4.08,0,0,0,84.39,29.3Z"/><path class="cls-6" d="M78,44a13.35,13.35,0,0,0-9.73,4.23h0a6,6,0,0,1-4.36,1.89H39.5v5.71h49V44Z"/><path class="cls-7" d="M80.31,38.48H47.66a1.53,1.53,0,1,1,0-3.06H80.31a1.53,1.53,0,1,1,0,3.06Z"/><path class="cls-7" d="M80.31,44.6H47.66a1.53,1.53,0,1,1,0-3.06H80.31a1.53,1.53,0,1,1,0,3.06Z"/><path class="cls-7" d="M80.31,50.72H47.66a1.53,1.53,0,1,1,0-3.06H80.31a1.53,1.53,0,1,1,0,3.06Z"/><path class="cls-8" d="M100.57,98.67a4.15,4.15,0,0,1-3.93-4.18V51.74a4.08,4.08,0,0,0-4.08-4.08H78a9.63,9.63,0,0,0-7,3.06h0a9.63,9.63,0,0,1-7,3.06H27.26a4.08,4.08,0,0,0-4.08,4.08V94.59a4.08,4.08,0,0,0,4.08,4.08h73.31Z"/><path class="cls-3" d="M100.57,98.67a4.15,4.15,0,0,1-3.93-4.18l-73.46.1a4.08,4.08,0,0,0,4.08,4.08h73.31Z"/><path class="cls-9" d="M69.09,70.11H66V67A3.06,3.06,0,0,0,63,64h-2A3.06,3.06,0,0,0,57.86,67v3.06H54.8a3.06,3.06,0,0,0-3.06,3.06v2a3.06,3.06,0,0,0,3.06,3.06h3.06v3.06a3.06,3.06,0,0,0,3.06,3.06h2A3.06,3.06,0,0,0,66,81.33V78.27h3.06a3.06,3.06,0,0,0,3.06-3.06v-2A3.06,3.06,0,0,0,69.09,70.11Z"/></g></g></svg>