<svg xmlns="http://www.w3.org/2000/svg" viewBox="0 0 128.47 128.47"><defs><style>.cls-1{fill:none;stroke:#ec1c24;stroke-miterlimit:10;}.cls-2{fill:#f2f2f2;}.cls-3{fill:#f0fbff;}.cls-4{fill:#cdd6e0;}.cls-5{fill:#ffd15c;}.cls-6{fill:#4cdbc4;}.cls-7{fill:#ff7058;}.cls-8{fill:#fff;}.cls-9{fill:#f8b64c;}</style></defs><title>Asset 18</title><g id="Layer_2" data-name="Layer 2"><g id="Layer_1-2" data-name="Layer 1"><circle class="cls-1" cx="64.74" cy="64.74" r="63.24"/><circle class="cls-2" cx="63.24" cy="63.24" r="63.24"/><path class="cls-3" d="M81.38,26.39H35.79a3.14,3.14,0,0,0-3.13,3.13V98.45a3.14,3.14,0,0,0,3.13,3.13h56.4a3.14,3.14,0,0,0,3.13-3.13V40.33Z"/><path class="cls-4" d="M81.38,37.82a2.47,2.47,0,0,0,2.51,2.51H95.32L81.38,26.39Z"/><rect class="cls-5" x="62.11" y="44.25" width="27.42" height="3.6"/><rect class="cls-4" x="38.92" y="56.15" width="50.6" height="3.6"/><rect class="cls-4" x="38.92" y="68.22" width="50.45" height="3.6"/><rect class="cls-6" x="38.92" y="80.12" width="21.31" height="3.6"/><rect class="cls-7" x="38.92" y="32.65" width="16.76" height="17.39"/><polygon class="cls-8" points="53.49 39.7 48.79 39.7 48.79 35 45.66 35 45.66 39.7 40.96 39.7 40.96 42.84 45.66 42.84 45.66 47.54 48.79 47.54 48.79 42.84 53.49 42.84 53.49 39.7"/><polygon class="cls-7" points="88.74 96.42 85.61 96.42 84.04 99.08 78.71 89.99 83.41 87.33 88.74 96.42"/><polygon class="cls-7" points="69.94 96.42 73.07 96.42 74.64 99.08 79.81 89.99 75.27 87.33 69.94 96.42"/><path class="cls-5" d="M89.37,84.35c0,1.1-1.25,1.88-1.57,2.82s.16,2.35-.31,3.13c-.63.78-2,.78-3,1.25-.78.63-1.25,2-2.19,2.35s-2-.63-3.13-.63-2.19.94-3.13.63-1.41-1.72-2.19-2.35-2.35-.47-3-1.25,0-2.19-.31-3.13S69,85.45,69,84.35s1.25-1.88,1.57-2.82-.16-2.35.31-3.13c.63-.78,2-.78,3-1.25.78-.63,1.25-2,2.19-2.35s2,.63,3.13.63,2.19-.94,3.13-.63,1.41,1.72,2.19,2.35,2.35.47,3,1.25,0,2.19.31,3.13C88.11,82.63,89.37,83.41,89.37,84.35Z"/><circle class="cls-9" cx="79.34" cy="84.35" r="6.58"/></g></g></svg>