<svg xmlns="http://www.w3.org/2000/svg" viewBox="0 0 802.4 341.19"><defs><style>.cls-1{fill:#f2f2f2;}.cls-2{fill:#404041;}.cls-3{fill:#58595b;}.cls-4{fill:#edeeec;}.cls-5{fill:#b0aeb4;}.cls-6{fill:#c2c3c9;}.cls-7{fill:#004761;}.cls-32,.cls-8{fill:#fff;}.cls-9{fill:#ef545d;}.cls-10{fill:#2883c2;}.cls-11{fill:#efab4a;}.cls-12{fill:#b4b83a;}.cls-13{fill:#56a846;}.cls-14{fill:#23bfd4;}.cls-15{fill:#6ebf6b;}.cls-16{fill:#4b93cf;}.cls-17{fill:#f27650;}.cls-18{fill:#d95855;}.cls-19{fill:#952f91;}.cls-20{fill:#57aa48;}.cls-21{fill:#db5e5a;}.cls-22,.cls-25{fill:none;stroke-miterlimit:10;stroke-width:0.1px;}.cls-22{stroke:#fff;opacity:0.41;}.cls-23{fill:#0e75bb;}.cls-24{fill:#d5d6d5;}.cls-25{stroke:#39333f;opacity:0.11;}.cls-26{fill:#7bcdee;}.cls-27{fill:#575757;}.cls-28{fill:#e2d8ca;}.cls-29,.cls-31{fill:#2f130b;}.cls-30{fill:#afa396;}.cls-31,.cls-32,.cls-33,.cls-35{fill-rule:evenodd;}.cls-33{fill:#00506a;}.cls-34{fill:#c7b8a9;}.cls-35{fill:#dc1f26;}.cls-36{fill:#f7edf5;}.cls-37{fill:#c3d9e2;}.cls-38{fill:#00a5db;}.cls-39{fill:#302d2e;}.cls-40{fill:#c3dadc;}.cls-41{fill:#6dbed4;}.cls-42{fill:#394d4b;}.cls-43{fill:#dcebee;}.cls-44{fill:#c03a39;}</style></defs><title>Asset 7</title><g id="Layer_2" data-name="Layer 2"><g id="Layer_1-2" data-name="Layer 1"><rect class="cls-1" x="629.03" y="137.28" width="173.37" height="25.58" rx="1.69" ry="1.69"/><rect class="cls-1" x="352.1" width="99.88" height="25.58" rx="1.69" ry="1.69"/><g id="mouse_computer" data-name="mouse computer"><path class="cls-2" d="M418,290.88h71.14a2.78,2.78,0,0,1,0,5.57H474.8a2.78,2.78,0,0,0-2.78,2.78v16.05h1.2V299.22a1.58,1.58,0,0,1,1.57-1.57h14.29a4,4,0,0,0,0-8H418"/><path class="cls-3" d="M474,314.2a5.52,5.52,0,0,1,5.52,5.52V333a5.52,5.52,0,0,1-5.52,5.51h-1.47V314.2Z"/><path class="cls-2" d="M471.06,314.2h1.47v24.27h-1.47a5.52,5.52,0,0,1-5.52-5.51V319.72A5.52,5.52,0,0,1,471.06,314.2Z"/><path class="cls-4" d="M474.37,320.06v1.19a1.84,1.84,0,0,1-1.84,1.84v-4.86A1.84,1.84,0,0,1,474.37,320.06Z"/><path class="cls-4" d="M472.54,318.22h0v4.86h0a1.84,1.84,0,0,1-1.84-1.84v-1.19A1.84,1.84,0,0,1,472.54,318.22Z"/></g><g id="screen"><path class="cls-5" d="M385.08,273.94l-3.57,14.61h33.35l-3.57-14.61Z"/><path class="cls-6" d="M398,288.55h16.87l-3.57-14.61H398Z"/><path class="cls-2" d="M416.92,288.29H379.45a1.89,1.89,0,0,0-1.72,2v.76h40.92v-.76A1.89,1.89,0,0,0,416.92,288.29Z"/><path class="cls-2" d="M341.84,268.26v8.05a2.8,2.8,0,0,0,2.81,2.8H451.73a2.81,2.81,0,0,0,2.81-2.8v-8.05Z"/><path class="cls-7" d="M454.53,268.26V200.09a2.81,2.81,0,0,0-2.81-2.81H344.64a2.8,2.8,0,0,0-2.81,2.81v68.17Z"/><rect class="cls-4" x="346.45" y="201.66" width="103.46" height="61.94"/></g><g id="keyboard"><path class="cls-2" d="M451.18,302a1.33,1.33,0,0,0-1.37-1.28H346.56A1.33,1.33,0,0,0,345.2,302v37.94a1.33,1.33,0,0,0,1.37,1.28H449.81a1.33,1.33,0,0,0,1.37-1.28Z"/><path class="cls-3" d="M451.18,339.91V302a1.33,1.33,0,0,0-1.37-1.28H375.58l53.52,40.5h20.71A1.33,1.33,0,0,0,451.18,339.91Z"/><rect class="cls-8" x="347.84" y="304.01" width="5.77" height="5.77" rx="0.33" ry="0.33"/><rect class="cls-8" x="358.42" y="311.03" width="5.77" height="5.77" rx="0.33" ry="0.33"/><rect class="cls-8" x="360.08" y="318.06" width="5.77" height="5.77" rx="0.33" ry="0.33"/><rect class="cls-8" x="356.64" y="325.08" width="5.77" height="5.77" rx="0.33" ry="0.33"/><rect class="cls-8" x="347.84" y="332.1" width="5.77" height="6.66" rx="0.33" ry="0.33"/><rect class="cls-8" x="354.85" y="332.1" width="5.77" height="6.66" rx="0.33" ry="0.33"/><rect class="cls-8" x="361.85" y="332.1" width="5.77" height="6.66" rx="0.33" ry="0.33"/><path class="cls-8" d="M422,332.1h5.1a.33.33,0,0,1,.33.33v6a.33.33,0,0,1-.33.33H422a.34.34,0,0,1-.34-.34v-6A.33.33,0,0,1,422,332.1Z"/><path class="cls-8" d="M429,335.43h5.1a.34.34,0,0,1,.34.34v2.66a.33.33,0,0,1-.33.33H429a.33.33,0,0,1-.33-.33v-2.66A.33.33,0,0,1,429,335.43Z"/><path class="cls-8" d="M443.09,335.43h5.1a.34.34,0,0,1,.34.34v2.66a.33.33,0,0,1-.33.33h-5.1a.33.33,0,0,1-.33-.33v-2.66A.33.33,0,0,1,443.09,335.43Z"/><rect class="cls-8" x="368.86" y="332.1" width="7.6" height="6.66" rx="0.33" ry="0.33"/><rect class="cls-8" x="412.83" y="332.1" width="7.6" height="6.66" rx="0.33" ry="0.33"/><path class="cls-8" d="M378,332.1h33.2a.33.33,0,0,1,.33.33v6a.33.33,0,0,1-.33.33H378a.34.34,0,0,1-.34-.34v-6A.33.33,0,0,1,378,332.1Z"/><rect class="cls-8" x="363.66" y="325.08" width="5.77" height="5.77" rx="0.33" ry="0.33"/><rect class="cls-8" x="370.69" y="325.08" width="5.77" height="5.77" rx="0.33" ry="0.33"/><rect class="cls-8" x="377.71" y="325.08" width="5.77" height="5.77" rx="0.33" ry="0.33"/><rect class="cls-8" x="384.74" y="325.08" width="5.77" height="5.77" rx="0.33" ry="0.33"/><rect class="cls-8" x="391.76" y="325.08" width="5.77" height="5.77" rx="0.33" ry="0.33"/><rect class="cls-8" x="398.78" y="325.08" width="5.77" height="5.77" rx="0.33" ry="0.33"/><path class="cls-8" d="M406.14,325.08h5.1a.33.33,0,0,1,.33.33v5.1a.33.33,0,0,1-.33.33h-5.1a.34.34,0,0,1-.34-.34v-5.1A.33.33,0,0,1,406.14,325.08Z"/><rect class="cls-8" x="412.83" y="325.08" width="5.77" height="5.77" rx="0.33" ry="0.33"/><rect class="cls-8" x="419.86" y="325.08" width="5.77" height="5.77" rx="0.33" ry="0.33"/><rect class="cls-8" x="426.88" y="325.08" width="5.77" height="5.77" rx="0.33" ry="0.33"/><rect class="cls-8" x="433.9" y="325.08" width="14.56" height="5.77" rx="0.33" ry="0.33"/><rect class="cls-8" x="367.1" y="318.06" width="5.77" height="5.77" rx="0.33" ry="0.33"/><rect class="cls-8" x="374.13" y="318.06" width="5.77" height="5.77" rx="0.33" ry="0.33"/><rect class="cls-8" x="381.15" y="318.06" width="5.77" height="5.77" rx="0.33" ry="0.33"/><rect class="cls-8" x="388.18" y="318.06" width="5.77" height="5.77" rx="0.33" ry="0.33"/><rect class="cls-8" x="395.2" y="318.06" width="5.77" height="5.77" rx="0.33" ry="0.33"/><rect class="cls-8" x="402.22" y="318.06" width="5.77" height="5.77" rx="0.33" ry="0.33"/><rect class="cls-8" x="409.25" y="318.06" width="5.77" height="5.77" rx="0.33" ry="0.33"/><rect class="cls-8" x="416.27" y="318.06" width="5.77" height="5.77" rx="0.33" ry="0.33"/><rect class="cls-8" x="423.29" y="318.06" width="5.77" height="5.77" rx="0.33" ry="0.33"/><rect class="cls-8" x="430.32" y="318.06" width="5.77" height="5.77" rx="0.33" ry="0.33"/><rect class="cls-8" x="437.34" y="318.06" width="5.77" height="5.77" rx="0.33" ry="0.33"/><rect class="cls-8" x="365.44" y="311.03" width="5.77" height="5.77" rx="0.33" ry="0.33"/><path class="cls-8" d="M378.23,316.47a.33.33,0,0,1-.33.34h-5.1a.33.33,0,0,1-.33-.34v-5.1a.33.33,0,0,1,.33-.33h5.1a.33.33,0,0,1,.33.33Z"/><path class="cls-8" d="M385.25,316.47a.33.33,0,0,1-.33.34h-5.1a.33.33,0,0,1-.33-.34v-5.1a.33.33,0,0,1,.33-.33h5.1a.33.33,0,0,1,.33.33Z"/><rect class="cls-8" x="386.51" y="311.03" width="5.77" height="5.77" rx="0.33" ry="0.33"/><path class="cls-8" d="M399.3,316.47a.33.33,0,0,1-.33.34h-5.1a.33.33,0,0,1-.33-.34v-5.1a.33.33,0,0,1,.33-.33H399a.33.33,0,0,1,.33.33Z"/><path class="cls-8" d="M400.89,311H406a.33.33,0,0,1,.33.33v5.1a.33.33,0,0,1-.33.33h-5.1a.33.33,0,0,1-.33-.33v-5.1A.34.34,0,0,1,400.89,311Z"/><path class="cls-8" d="M413.35,316.47a.33.33,0,0,1-.33.34h-5.1a.33.33,0,0,1-.33-.34v-5.1a.33.33,0,0,1,.33-.33H413a.33.33,0,0,1,.33.33Z"/><path class="cls-8" d="M414.94,311H420a.33.33,0,0,1,.33.33v5.1a.33.33,0,0,1-.33.33h-5.1a.33.33,0,0,1-.33-.33v-5.1A.34.34,0,0,1,414.94,311Z"/><path class="cls-8" d="M422,311h5.1a.33.33,0,0,1,.33.33v5.1a.33.33,0,0,1-.33.33H422a.33.33,0,0,1-.33-.33v-5.1A.34.34,0,0,1,422,311Z"/><rect class="cls-8" x="428.65" y="311.03" width="5.77" height="5.77" rx="0.33" ry="0.33"/><path class="cls-8" d="M436,311h5.1a.33.33,0,0,1,.33.33v5.1a.33.33,0,0,1-.33.33H436a.33.33,0,0,1-.33-.33v-5.1A.34.34,0,0,1,436,311Z"/><path class="cls-8" d="M348.18,311h8.65a.33.33,0,0,1,.33.33v5.1a.33.33,0,0,1-.33.33h-8.65a.33.33,0,0,1-.33-.33v-5.1A.34.34,0,0,1,348.18,311Z"/><rect class="cls-8" x="439.15" y="304.01" width="9.32" height="5.77" rx="0.33" ry="0.33"/><rect class="cls-8" x="347.84" y="318.06" width="10.98" height="5.77" rx="0.33" ry="0.33"/><rect class="cls-8" x="347.84" y="325.08" width="7.54" height="5.77" rx="0.33" ry="0.33"/><rect class="cls-8" x="354.87" y="304.01" width="5.77" height="5.77" rx="0.33" ry="0.33"/><rect class="cls-8" x="361.89" y="304.01" width="5.77" height="5.77" rx="0.33" ry="0.33"/><path class="cls-8" d="M369.25,304h5.1a.33.33,0,0,1,.33.33v5.1a.33.33,0,0,1-.33.33h-5.1a.34.34,0,0,1-.34-.34v-5.1A.33.33,0,0,1,369.25,304Z"/><rect class="cls-8" x="375.94" y="304.01" width="5.77" height="5.77" rx="0.33" ry="0.33"/><rect class="cls-8" x="382.96" y="304.01" width="5.76" height="5.77" rx="0.33" ry="0.33"/><rect class="cls-8" x="389.99" y="304.01" width="5.77" height="5.77" rx="0.33" ry="0.33"/><rect class="cls-8" x="397.01" y="304.01" width="5.77" height="5.77" rx="0.33" ry="0.33"/><rect class="cls-8" x="404.03" y="304.01" width="5.77" height="5.77" rx="0.33" ry="0.33"/><rect class="cls-8" x="411.06" y="304.01" width="5.77" height="5.77" rx="0.33" ry="0.33"/><rect class="cls-8" x="418.08" y="304.01" width="5.77" height="5.77" rx="0.33" ry="0.33"/><rect class="cls-8" x="425.1" y="304.01" width="5.77" height="5.77" rx="0.33" ry="0.33"/><rect class="cls-8" x="432.13" y="304.01" width="5.77" height="5.77" rx="0.33" ry="0.33"/><path class="cls-8" d="M435.73,335.62v2.81a.33.33,0,0,0,.1.24.34.34,0,0,0,.24.1h5.1a.33.33,0,0,0,.23-.1.33.33,0,0,0,.1-.24v-2.81Z"/><path class="cls-8" d="M441.5,335.24v-2.81a.33.33,0,0,0-.1-.23.34.34,0,0,0-.23-.1h-5.1a.34.34,0,0,0-.24.1.33.33,0,0,0-.1.23v2.81Z"/><path class="cls-8" d="M443,311a.33.33,0,0,0-.33.33v5.1a.33.33,0,0,0,.33.34h1.33v6.69a.33.33,0,0,0,.1.24.33.33,0,0,0,.23.1h3.44a.33.33,0,0,0,.24-.1.33.33,0,0,0,.1-.24V311.36a.33.33,0,0,0-.33-.33Z"/></g><rect class="cls-4" x="348.95" y="228.47" width="22.06" height="6.04"/><rect class="cls-9" x="348.64" y="205.3" width="98.59" height="7.96"/><path class="cls-4" d="M355,207.5l-1,3.19h-.54l-.7-2.18a1.66,1.66,0,0,1-.05-.19l0,.1,0,.09-.7,2.18h-.54l-1-3.19h.5a.22.22,0,0,1,.13,0,.17.17,0,0,1,.07.1l.54,1.91,0,.15,0,.17c0-.06,0-.12,0-.17l0-.15.63-1.91a.21.21,0,0,1,.07-.09.19.19,0,0,1,.13,0h.17a.2.2,0,0,1,.13,0,.23.23,0,0,1,.07.1l.62,1.91a2.77,2.77,0,0,1,.08.32q0-.17.06-.32l.54-1.91a.17.17,0,0,1,.07-.1.21.21,0,0,1,.13,0Z"/><path class="cls-4" d="M355.44,209.63a1.08,1.08,0,0,0,.06.3.61.61,0,0,0,.13.21.5.5,0,0,0,.19.12.68.68,0,0,0,.24,0,.76.76,0,0,0,.23,0l.17-.07.13-.07a.21.21,0,0,1,.1,0,.11.11,0,0,1,.1.05l.16.2a.92.92,0,0,1-.2.18,1.08,1.08,0,0,1-.23.11l-.25.06-.25,0a1.21,1.21,0,0,1-.44-.08,1,1,0,0,1-.35-.23A1.09,1.09,0,0,1,355,210a1.46,1.46,0,0,1-.09-.52,1.24,1.24,0,0,1,.08-.44,1,1,0,0,1,.21-.35,1,1,0,0,1,.34-.24,1.13,1.13,0,0,1,.46-.09,1.11,1.11,0,0,1,.39.07.85.85,0,0,1,.31.2.91.91,0,0,1,.2.32,1.18,1.18,0,0,1,.07.44.35.35,0,0,1,0,.17.11.11,0,0,1-.1,0Zm1-.33a.63.63,0,0,0,0-.2.46.46,0,0,0-.09-.16.41.41,0,0,0-.15-.11.51.51,0,0,0-.21,0,.51.51,0,0,0-.37.13.66.66,0,0,0-.17.38Z"/><path class="cls-4" d="M357.92,207.42v3.27h-.54v-3.27Z"/><path class="cls-4" d="M360.09,208.91l0,0-.07,0-.08,0-.09-.06-.13-.06a.6.6,0,0,0-.19,0,.57.57,0,0,0-.25.05.47.47,0,0,0-.18.15.66.66,0,0,0-.11.23,1.26,1.26,0,0,0,0,.31,1.2,1.2,0,0,0,0,.32.68.68,0,0,0,.11.24.47.47,0,0,0,.18.15.54.54,0,0,0,.23,0,.59.59,0,0,0,.21,0l.13-.07.1-.07a.14.14,0,0,1,.09,0,.11.11,0,0,1,.1.05l.16.2a1,1,0,0,1-.2.18,1,1,0,0,1-.22.11l-.23.06-.24,0a1,1,0,0,1-.39-.08.92.92,0,0,1-.32-.23,1.07,1.07,0,0,1-.22-.37,1.41,1.41,0,0,1-.08-.49,1.44,1.44,0,0,1,.07-.46,1,1,0,0,1,.21-.37,1,1,0,0,1,.34-.24,1.19,1.19,0,0,1,.47-.09,1.13,1.13,0,0,1,.44.08,1.08,1.08,0,0,1,.34.23Z"/><path class="cls-4" d="M361.55,208.39a1.24,1.24,0,0,1,.46.08,1,1,0,0,1,.35.23,1,1,0,0,1,.23.37,1.5,1.5,0,0,1,0,1,1,1,0,0,1-.23.37,1,1,0,0,1-.35.23,1.24,1.24,0,0,1-.46.08,1.26,1.26,0,0,1-.46-.08,1,1,0,0,1-.35-.23,1,1,0,0,1-.23-.37,1.48,1.48,0,0,1,0-1,1,1,0,0,1,.23-.37,1,1,0,0,1,.35-.23A1.26,1.26,0,0,1,361.55,208.39Zm0,1.91a.48.48,0,0,0,.42-.19,1,1,0,0,0,.14-.56A1,1,0,0,0,362,209a.48.48,0,0,0-.42-.19.49.49,0,0,0-.42.19,1,1,0,0,0-.14.56.94.94,0,0,0,.14.55A.49.49,0,0,0,361.55,210.31Z"/><path class="cls-4" d="M363.08,210.69v-2.26h.33a.13.13,0,0,1,.14.1l0,.17.13-.12.14-.1.16-.06.19,0a.53.53,0,0,1,.35.12.19.19,0,1,0,.34.11.73.73,0,0,1,.17-.13.77.77,0,0,1,.2-.08l.21,0a.9.9,0,0,1,.33.06.63.63,0,0,1,.24.17.73.73,0,0,1,.15.27,1.18,1.18,0,0,1,.05.36v1.44h-.54v-1.44a.49.49,0,0,0-.09-.33.35.35,0,0,0-.28-.11.42.42,0,0,0-.16,0,.37.37,0,0,0-.13.08.39.39,0,0,0-.08.14.53.53,0,0,0,0,.19v1.44h-.55v-1.44a.5.5,0,0,0-.09-.33.34.34,0,0,0-.27-.1.44.44,0,0,0-.22.06.72.72,0,0,0-.19.16v1.65Z"/><path class="cls-4" d="M367.19,209.63a1.08,1.08,0,0,0,.06.3.61.61,0,0,0,.13.21.5.5,0,0,0,.19.12.68.68,0,0,0,.24,0,.76.76,0,0,0,.23,0l.17-.07.13-.07a.21.21,0,0,1,.1,0,.11.11,0,0,1,.1.05l.16.2a.92.92,0,0,1-.2.18,1.08,1.08,0,0,1-.23.11l-.25.06-.25,0a1.21,1.21,0,0,1-.44-.08,1,1,0,0,1-.35-.23,1.09,1.09,0,0,1-.24-.38,1.46,1.46,0,0,1-.09-.52,1.24,1.24,0,0,1,.08-.44,1,1,0,0,1,.21-.35,1,1,0,0,1,.34-.24,1.13,1.13,0,0,1,.46-.09,1.11,1.11,0,0,1,.39.07.85.85,0,0,1,.31.2.91.91,0,0,1,.2.32,1.18,1.18,0,0,1,.07.44.35.35,0,0,1,0,.17.11.11,0,0,1-.1,0Zm1-.33a.63.63,0,0,0,0-.2.46.46,0,0,0-.09-.16.41.41,0,0,0-.15-.11.51.51,0,0,0-.21,0,.51.51,0,0,0-.37.13.66.66,0,0,0-.17.38Z"/><path class="cls-4" d="M371,210.73a.59.59,0,0,1-.45-.17.64.64,0,0,1-.16-.46v-1.26h-.23a.11.11,0,0,1-.08,0,.11.11,0,0,1,0-.09v-.22l.36-.06.11-.62a.12.12,0,0,1,0-.07l.08,0h.28v.71h.6v.39h-.6v1.23a.24.24,0,0,0,.05.17.18.18,0,0,0,.14.06h.08l.06,0,0,0h.08l0,0,.16.26a.83.83,0,0,1-.27.15A1,1,0,0,1,371,210.73Z"/><path class="cls-4" d="M372.82,208.39a1.24,1.24,0,0,1,.46.08,1,1,0,0,1,.35.23,1,1,0,0,1,.23.37,1.5,1.5,0,0,1,0,1,1,1,0,0,1-.23.37,1,1,0,0,1-.35.23,1.24,1.24,0,0,1-.46.08,1.26,1.26,0,0,1-.46-.08,1,1,0,0,1-.35-.23,1,1,0,0,1-.23-.37,1.48,1.48,0,0,1,0-1,1,1,0,0,1,.23-.37,1,1,0,0,1,.35-.23A1.26,1.26,0,0,1,372.82,208.39Zm0,1.91a.48.48,0,0,0,.42-.19,1,1,0,0,0,.14-.56,1,1,0,0,0-.14-.56.48.48,0,0,0-.42-.19.49.49,0,0,0-.42.19,1,1,0,0,0-.14.56.94.94,0,0,0,.14.55A.49.49,0,0,0,372.82,210.31Z"/><path class="cls-4" d="M378.34,209.1a1.72,1.72,0,0,1-.12.64,1.45,1.45,0,0,1-.84.83,1.8,1.8,0,0,1-.66.12h-1.21V207.5h1.21a1.78,1.78,0,0,1,.66.12,1.5,1.5,0,0,1,.51.33,1.47,1.47,0,0,1,.33.5A1.72,1.72,0,0,1,378.34,209.1Zm-.61,0a1.49,1.49,0,0,0-.07-.47,1,1,0,0,0-.2-.35.86.86,0,0,0-.32-.22,1.09,1.09,0,0,0-.42-.08h-.62v2.24h.62a1.08,1.08,0,0,0,.42-.08.86.86,0,0,0,.32-.22,1,1,0,0,0,.2-.35A1.5,1.5,0,0,0,377.73,209.1Z"/><path class="cls-4" d="M378.67,208.74a1.34,1.34,0,0,1,.94-.36.92.92,0,0,1,.36.06.75.75,0,0,1,.26.18.78.78,0,0,1,.17.28,1.07,1.07,0,0,1,.06.35v1.43h-.25l-.12,0a.16.16,0,0,1-.07-.09l0-.16-.17.14-.17.1-.19.06-.22,0a.86.86,0,0,1-.26,0,.57.57,0,0,1-.21-.12.52.52,0,0,1-.14-.19.68.68,0,0,1,0-.27.52.52,0,0,1,0-.17.48.48,0,0,1,.09-.16.8.8,0,0,1,.17-.15,1.11,1.11,0,0,1,.25-.12,2.17,2.17,0,0,1,.35-.08,3.56,3.56,0,0,1,.46,0v-.13a.5.5,0,0,0-.1-.34.36.36,0,0,0-.28-.11.66.66,0,0,0-.22,0l-.15.07L379,209a.23.23,0,0,1-.12,0,.16.16,0,0,1-.1,0l-.06-.07Zm1.25,1-.4,0a1,1,0,0,0-.26.08.34.34,0,0,0-.14.11.23.23,0,0,0,0,.13.24.24,0,0,0,.08.21.37.37,0,0,0,.22.06.64.64,0,0,0,.29-.06.84.84,0,0,0,.24-.18Z"/><path class="cls-4" d="M382.34,208.87l0,0h-.06l-.08,0-.1,0-.14,0-.18,0a.41.41,0,0,0-.25.07.21.21,0,0,0-.09.18.17.17,0,0,0,0,.12.42.42,0,0,0,.13.09l.18.07.2.06.2.08a.72.72,0,0,1,.18.11.55.55,0,0,1,.13.17.53.53,0,0,1,0,.23.76.76,0,0,1-.06.3.66.66,0,0,1-.17.24.82.82,0,0,1-.28.16,1.23,1.23,0,0,1-.39.06l-.23,0-.21-.06-.19-.09-.15-.11.13-.21.06-.06.08,0,.1,0,.1.06.14.06a.62.62,0,0,0,.2,0l.17,0,.12-.06a.23.23,0,0,0,.07-.09.25.25,0,0,0,0-.1.18.18,0,0,0,0-.13.4.4,0,0,0-.12-.09l-.18-.07-.21-.06-.21-.08a.73.73,0,0,1-.18-.12.54.54,0,0,1-.12-.18.61.61,0,0,1,0-.26.65.65,0,0,1,.06-.26.62.62,0,0,1,.16-.22.79.79,0,0,1,.27-.15,1.11,1.11,0,0,1,.37-.06,1.13,1.13,0,0,1,.42.08,1,1,0,0,1,.32.2Z"/><path class="cls-4" d="M383.44,208.67a1.18,1.18,0,0,1,.29-.2.84.84,0,0,1,.37-.08.81.81,0,0,1,.33.06.65.65,0,0,1,.24.18.79.79,0,0,1,.15.27,1.15,1.15,0,0,1,0,.35v1.44h-.54v-1.44a.49.49,0,0,0-.09-.32.35.35,0,0,0-.29-.11.57.57,0,0,0-.26.06,1,1,0,0,0-.23.17v1.64h-.54v-3.27h.54Z"/><path class="cls-4" d="M385.92,208.71a1.12,1.12,0,0,1,.3-.23.82.82,0,0,1,.38-.08.79.79,0,0,1,.35.08.76.76,0,0,1,.27.22,1,1,0,0,1,.17.35,1.68,1.68,0,0,1,.06.46,1.7,1.7,0,0,1-.07.5,1.14,1.14,0,0,1-.19.38.87.87,0,0,1-.7.34l-.19,0-.16-.06-.13-.09-.12-.12,0,.15a.13.13,0,0,1,0,.08.14.14,0,0,1-.09,0h-.36v-3.27h.54Zm0,1.4a.54.54,0,0,0,.2.16.58.58,0,0,0,.23,0,.55.55,0,0,0,.23,0,.43.43,0,0,0,.17-.14.71.71,0,0,0,.11-.24,1.5,1.5,0,0,0,0-.36.92.92,0,0,0-.12-.54.42.42,0,0,0-.36-.17.51.51,0,0,0-.27.07.87.87,0,0,0-.22.2Z"/><path class="cls-4" d="M388.88,208.39a1.24,1.24,0,0,1,.46.08,1,1,0,0,1,.35.23,1,1,0,0,1,.23.37,1.5,1.5,0,0,1,0,1,1,1,0,0,1-.23.37,1,1,0,0,1-.35.23,1.24,1.24,0,0,1-.46.08,1.26,1.26,0,0,1-.46-.08,1,1,0,0,1-.35-.23,1,1,0,0,1-.23-.37,1.48,1.48,0,0,1,0-1,1,1,0,0,1,.23-.37,1,1,0,0,1,.35-.23A1.26,1.26,0,0,1,388.88,208.39Zm0,1.91a.48.48,0,0,0,.42-.19,1,1,0,0,0,.14-.56,1,1,0,0,0-.14-.56.48.48,0,0,0-.42-.19.49.49,0,0,0-.42.19,1,1,0,0,0-.14.56.94.94,0,0,0,.14.55A.49.49,0,0,0,388.88,210.31Z"/><path class="cls-4" d="M390.36,208.74a1.34,1.34,0,0,1,.94-.36.92.92,0,0,1,.36.06.75.75,0,0,1,.26.18.78.78,0,0,1,.17.28,1.07,1.07,0,0,1,.06.35v1.43h-.25l-.12,0a.16.16,0,0,1-.07-.09l0-.16-.17.14-.17.1-.19.06-.22,0a.86.86,0,0,1-.26,0,.57.57,0,0,1-.21-.12.52.52,0,0,1-.14-.19.68.68,0,0,1,0-.27.52.52,0,0,1,0-.17.48.48,0,0,1,.09-.16.8.8,0,0,1,.17-.15,1.11,1.11,0,0,1,.25-.12,2.17,2.17,0,0,1,.35-.08,3.56,3.56,0,0,1,.46,0v-.13a.5.5,0,0,0-.1-.34.36.36,0,0,0-.28-.11.66.66,0,0,0-.22,0l-.15.07-.12.07a.23.23,0,0,1-.12,0,.16.16,0,0,1-.1,0l-.06-.07Zm1.25,1-.4,0a1,1,0,0,0-.26.08.34.34,0,0,0-.14.11.23.23,0,0,0,0,.13.24.24,0,0,0,.08.21.37.37,0,0,0,.22.06.64.64,0,0,0,.29-.06.84.84,0,0,0,.24-.18Z"/><path class="cls-4" d="M393.16,208.82a1,1,0,0,1,.25-.32.54.54,0,0,1,.34-.12.42.42,0,0,1,.25.07l0,.41a.1.1,0,0,1,0,.06l-.06,0h-.22l-.16,0a.4.4,0,0,0-.13.08.5.5,0,0,0-.1.12,1.15,1.15,0,0,0-.08.16v1.39h-.54v-2.26H393a.17.17,0,0,1,.12,0,.17.17,0,0,1,0,.11Z"/><path class="cls-4" d="M396.2,207.42v3.27h-.33a.13.13,0,0,1-.14-.1l0-.22a1.13,1.13,0,0,1-.31.25.85.85,0,0,1-.41.1.74.74,0,0,1-.6-.3,1.07,1.07,0,0,1-.17-.36,1.81,1.81,0,0,1-.06-.49,1.53,1.53,0,0,1,.07-.47,1.13,1.13,0,0,1,.2-.37.93.93,0,0,1,.31-.25.89.89,0,0,1,.4-.09.8.8,0,0,1,.32.06.83.83,0,0,1,.24.16v-1.19Zm-.54,1.59a.54.54,0,0,0-.2-.16.6.6,0,0,0-.23,0,.52.52,0,0,0-.22,0,.44.44,0,0,0-.17.14.68.68,0,0,0-.11.24,1.4,1.4,0,0,0,0,.34,1.5,1.5,0,0,0,0,.34.68.68,0,0,0,.09.22.35.35,0,0,0,.15.13.47.47,0,0,0,.19,0,.55.55,0,0,0,.29-.07.84.84,0,0,0,.22-.2Z"/><rect class="cls-10" x="349.02" y="215.46" width="23.19" height="5.9" rx="0.48" ry="0.48"/><rect class="cls-11" x="373.96" y="215.46" width="23.19" height="5.9" rx="0.48" ry="0.48"/><rect class="cls-12" x="398.91" y="215.46" width="23.19" height="5.9" rx="0.48" ry="0.48"/><rect class="cls-13" x="424.04" y="215.46" width="23.19" height="5.9" rx="0.48" ry="0.48"/><rect class="cls-14" x="348.95" y="222.53" width="17.66" height="10.45" rx="0.48" ry="0.48"/><rect class="cls-15" x="368.24" y="222.53" width="17.66" height="10.45" rx="0.48" ry="0.48"/><rect class="cls-16" x="387.53" y="222.53" width="17.66" height="10.45" rx="0.48" ry="0.48"/><rect class="cls-17" x="348.95" y="234.15" width="17.66" height="10.45" rx="0.48" ry="0.48"/><rect class="cls-18" x="368.24" y="234.15" width="17.66" height="10.45" rx="0.48" ry="0.48"/><rect class="cls-19" x="387.53" y="234.15" width="17.66" height="10.45" rx="0.48" ry="0.48"/><rect class="cls-8" x="407.26" y="222.53" width="39.96" height="21.7" rx="2.26" ry="2.26"/><rect class="cls-8" x="407.26" y="245.59" width="39.96" height="16.64" rx="1.22" ry="1.22"/><rect class="cls-8" x="348.95" y="245.59" width="56.55" height="16.64" rx="1.22" ry="1.22"/><rect class="cls-20" x="350.23" y="249.06" width="26.43" height="11.84" rx="0.48" ry="0.48"/><rect class="cls-21" x="377.63" y="249.06" width="26.43" height="11.84" rx="0.48" ry="0.48"/><rect class="cls-8" x="358.15" y="216.43" width="4.65" height="0.58"/><line class="cls-22" x1="349.74" y1="217.5" x2="371.26" y2="217.5"/><polygon class="cls-8" points="351.56 218.18 350.37 218.18 349.78 219.14 350.37 220.09 351.56 220.09 352.15 219.14 351.56 218.18"/><rect class="cls-8" x="367.96" y="219.05" width="3.08" height="0.67"/><rect class="cls-8" x="383.2" y="216.43" width="4.65" height="0.58"/><line class="cls-22" x1="374.79" y1="217.5" x2="396.32" y2="217.5"/><polygon class="cls-8" points="376.61 218.18 375.43 218.18 374.83 219.14 375.43 220.09 376.61 220.09 377.21 219.14 376.61 218.18"/><rect class="cls-8" x="393.02" y="219.05" width="3.08" height="0.67"/><rect class="cls-8" x="408.15" y="216.43" width="4.65" height="0.58"/><line class="cls-22" x1="399.74" y1="217.5" x2="421.26" y2="217.5"/><polygon class="cls-8" points="401.56 218.18 400.37 218.18 399.78 219.14 400.37 220.09 401.56 220.09 402.15 219.14 401.56 218.18"/><rect class="cls-8" x="417.96" y="219.05" width="3.08" height="0.67"/><rect class="cls-8" x="433.58" y="216.43" width="4.65" height="0.58"/><line class="cls-22" x1="425.17" y1="217.5" x2="446.69" y2="217.5"/><polygon class="cls-8" points="426.99 218.18 425.8 218.18 425.2 219.14 425.8 220.09 426.99 220.09 427.58 219.14 426.99 218.18"/><rect class="cls-8" x="443.39" y="219.05" width="3.08" height="0.67"/><ellipse class="cls-8" cx="357.81" cy="225.15" rx="2.14" ry="1.99"/><rect class="cls-8" x="356.93" y="228.28" width="1.59" height="0.91"/><rect class="cls-8" x="353.88" y="230.53" width="7.71" height="1.79" rx="0.37" ry="0.37"/><ellipse class="cls-8" cx="376.96" cy="225.15" rx="2.14" ry="1.99"/><rect class="cls-8" x="376.08" y="228.28" width="1.59" height="0.91"/><rect class="cls-8" x="373.02" y="230.53" width="7.71" height="1.79" rx="0.37" ry="0.37"/><ellipse class="cls-8" cx="396.4" cy="225.15" rx="2.14" ry="1.99"/><rect class="cls-8" x="395.52" y="228.28" width="1.59" height="0.91"/><rect class="cls-8" x="392.46" y="230.53" width="7.71" height="1.79" rx="0.37" ry="0.37"/><ellipse class="cls-8" cx="357.81" cy="236.79" rx="2.14" ry="1.99"/><rect class="cls-8" x="356.93" y="239.91" width="1.59" height="0.91"/><rect class="cls-8" x="353.88" y="242.16" width="7.71" height="1.79" rx="0.37" ry="0.37"/><ellipse class="cls-8" cx="376.96" cy="236.79" rx="2.14" ry="1.99"/><rect class="cls-8" x="376.08" y="239.91" width="1.59" height="0.91"/><rect class="cls-8" x="373.02" y="242.16" width="7.71" height="1.79" rx="0.37" ry="0.37"/><ellipse class="cls-8" cx="396.4" cy="236.79" rx="2.14" ry="1.99"/><rect class="cls-8" x="395.52" y="239.91" width="1.59" height="0.91"/><rect class="cls-8" x="392.46" y="242.16" width="7.71" height="1.79" rx="0.37" ry="0.37"/><rect class="cls-23" x="408.42" y="224.22" width="5.78" height="0.74"/><rect class="cls-23" x="408.42" y="232.16" width="7.58" height="0.74"/><rect class="cls-23" x="408.42" y="247.17" width="7.58" height="0.74"/><rect class="cls-23" x="350.09" y="247.17" width="11.5" height="0.74"/><rect class="cls-24" x="412.98" y="249.92" width="4.67" height="0.74"/><rect class="cls-24" x="413.91" y="252.41" width="2.82" height="0.37"/><rect class="cls-24" x="413.91" y="255.4" width="2.82" height="0.37"/><rect class="cls-24" x="413.91" y="258.39" width="2.82" height="0.37"/><rect class="cls-24" x="413.91" y="261.14" width="2.82" height="0.37"/><rect class="cls-24" x="430.31" y="252.41" width="7.93" height="0.37"/><rect class="cls-24" x="430.31" y="255.4" width="7.93" height="0.37"/><rect class="cls-24" x="430.31" y="258.39" width="7.93" height="0.37"/><rect class="cls-24" x="430.31" y="261.14" width="7.93" height="0.37"/><rect class="cls-24" x="430.31" y="249.92" width="7.6" height="0.74"/><line class="cls-25" x1="408.42" y1="225.45" x2="446.13" y2="225.45"/><line class="cls-25" x1="408.42" y1="233.38" x2="446.13" y2="233.38"/><line class="cls-25" x1="408.42" y1="248.48" x2="446.13" y2="248.48"/><line class="cls-25" x1="408.42" y1="251.32" x2="446.13" y2="251.32"/><line class="cls-25" x1="408.42" y1="254.16" x2="446.13" y2="254.16"/><line class="cls-25" x1="408.42" y1="257" x2="446.13" y2="257"/><line class="cls-25" x1="408.42" y1="259.85" x2="446.13" y2="259.85"/><rect class="cls-25" x="409.12" y="227.34" width="13.98" height="2.22" rx="0.46" ry="0.46"/><rect class="cls-25" x="409.12" y="235.14" width="17.06" height="2.22" rx="0.46" ry="0.46"/><rect class="cls-25" x="409.12" y="239.91" width="17.06" height="2.22" rx="0.46" ry="0.46"/><rect class="cls-25" x="428.18" y="235.14" width="16.75" height="2.22" rx="0.46" ry="0.46"/><rect class="cls-25" x="424.98" y="227.34" width="10.65" height="2.22" rx="0.46" ry="0.46"/><rect class="cls-26" x="437.52" y="227.34" width="4.52" height="2.01" rx="0.42" ry="0.42"/><rect class="cls-26" x="428.05" y="240.02" width="4.52" height="2.01" rx="0.42" ry="0.42"/><rect class="cls-8" x="350.94" y="250.93" width="9.01" height="0.82"/><rect class="cls-8" x="350.94" y="254.78" width="9.01" height="0.82"/><rect class="cls-8" x="350.94" y="258.64" width="11.61" height="0.82"/><line class="cls-22" x1="350.59" y1="253.25" x2="376.32" y2="253.25"/><line class="cls-22" x1="350.59" y1="256.95" x2="376.32" y2="256.95"/><rect class="cls-8" x="378.33" y="250.93" width="9.01" height="0.82"/><rect class="cls-8" x="378.33" y="254.78" width="9.01" height="0.82"/><rect class="cls-8" x="378.33" y="258.64" width="9.01" height="0.82"/><line class="cls-22" x1="377.98" y1="253.25" x2="403.71" y2="253.25"/><line class="cls-22" x1="377.98" y1="256.95" x2="403.71" y2="256.95"/><path class="cls-27" d="M369,7.43v13.4h-2.59V15.12h-6.08v5.72h-2.6V7.43h2.6v5.42h6.08V7.43Z"/><path class="cls-27" d="M377.51,20.93a6.08,6.08,0,0,1-2.67-.58,6.54,6.54,0,0,1-2.06-1.53,7.09,7.09,0,0,1-1.8-4.69,6.75,6.75,0,0,1,.5-2.57,7.1,7.1,0,0,1,1.38-2.17,6.56,6.56,0,0,1,2.09-1.5,6.19,6.19,0,0,1,2.62-.56,5.88,5.88,0,0,1,2.65.59,6.63,6.63,0,0,1,2,1.56,7.16,7.16,0,0,1,1.32,2.19,6.89,6.89,0,0,1,.47,2.49,6.77,6.77,0,0,1-.49,2.56,6.93,6.93,0,0,1-1.36,2.15,6.53,6.53,0,0,1-2.08,1.49A6.19,6.19,0,0,1,377.51,20.93Zm-3.89-6.79a5.38,5.38,0,0,0,.26,1.68,4.48,4.48,0,0,0,.76,1.43,3.8,3.8,0,0,0,1.23,1,3.8,3.8,0,0,0,3.32,0,3.81,3.81,0,0,0,1.23-1,4.59,4.59,0,0,0,.75-1.44,5.36,5.36,0,0,0,.25-1.63,5.22,5.22,0,0,0-.27-1.68,4.63,4.63,0,0,0-.77-1.43,3.7,3.7,0,0,0-1.23-1,3.82,3.82,0,0,0-3.31,0,3.73,3.73,0,0,0-1.23,1,4.58,4.58,0,0,0-.75,1.43A5.36,5.36,0,0,0,373.63,14.14Z"/><path class="cls-27" d="M394,10.95a3.23,3.23,0,0,0-.48-.36,5.85,5.85,0,0,0-.85-.44,7.32,7.32,0,0,0-1.08-.37,4.75,4.75,0,0,0-1.19-.15,2.67,2.67,0,0,0-1.6.4,1.31,1.31,0,0,0-.53,1.11,1.15,1.15,0,0,0,.2.69,1.71,1.71,0,0,0,.58.48,4.81,4.81,0,0,0,1,.38q.58.17,1.33.36,1,.26,1.78.57a4.84,4.84,0,0,1,1.36.75,3.12,3.12,0,0,1,.86,1.09,3.6,3.6,0,0,1,.3,1.56,3.89,3.89,0,0,1-.41,1.84,3.42,3.42,0,0,1-1.09,1.24,4.77,4.77,0,0,1-1.59.69,8,8,0,0,1-1.88.22,10.1,10.1,0,0,1-3-.45,9.22,9.22,0,0,1-2.64-1.28L386.23,17a3.61,3.61,0,0,0,.61.44,9.35,9.35,0,0,0,1,.55,8.11,8.11,0,0,0,1.34.46,6.05,6.05,0,0,0,1.51.19q2.15,0,2.15-1.38a1.13,1.13,0,0,0-.25-.74A2.09,2.09,0,0,0,392,16a6.77,6.77,0,0,0-1.09-.42l-1.43-.42a12.05,12.05,0,0,1-1.67-.58,4.39,4.39,0,0,1-1.18-.74,2.76,2.76,0,0,1-.71-1,3.4,3.4,0,0,1-.24-1.33A4.16,4.16,0,0,1,386,9.74a3.66,3.66,0,0,1,1-1.32,4.75,4.75,0,0,1,1.56-.8,6.44,6.44,0,0,1,1.91-.27,7.41,7.41,0,0,1,2.6.44,9.73,9.73,0,0,1,2.08,1Z"/><path class="cls-27" d="M397.63,20.84V7.43h5.68a3.81,3.81,0,0,1,1.71.39,4.43,4.43,0,0,1,1.35,1,4.8,4.8,0,0,1,.89,1.43,4.32,4.32,0,0,1,.32,1.61,4.65,4.65,0,0,1-.3,1.65,4.59,4.59,0,0,1-.85,1.42,4.17,4.17,0,0,1-1.32,1,3.82,3.82,0,0,1-1.7.38h-3.17v4.49Zm2.6-6.78h3a1.49,1.49,0,0,0,1.2-.59,2.42,2.42,0,0,0,.48-1.59,2.61,2.61,0,0,0-.15-.92,2.23,2.23,0,0,0-.4-.69,1.58,1.58,0,0,0-.58-.42,1.69,1.69,0,0,0-.67-.14h-2.91Z"/><path class="cls-27" d="M409.39,20.84V7.43H412v13.4Z"/><path class="cls-27" d="M424.81,9.72h-4.28V20.84h-2.59V9.72h-4.28V7.43h11.15Z"/><path class="cls-27" d="M429,7.43h2.3l5.1,13.4h-2.68l-1.25-3.34h-4.68l-1.23,3.34h-2.68Zm3,8.23-1.85-5.27-1.92,5.27Z"/><path class="cls-27" d="M437.84,20.84V7.43h2.6V18.55h6.83v2.28Z"/><path class="cls-27" d="M634.49,149.75a6.94,6.94,0,0,1,.44-2.43,6.5,6.5,0,0,1,3.37-3.67,6.42,6.42,0,0,1,2.79-.58,6.09,6.09,0,0,1,3.2.81,5.18,5.18,0,0,1,2,2.11l-2,1.38a3.44,3.44,0,0,0-.64-1,3.19,3.19,0,0,0-.81-.61,3.62,3.62,0,0,0-.91-.33,4.3,4.3,0,0,0-.92-.1,3.52,3.52,0,0,0-1.71.4,3.76,3.76,0,0,0-1.21,1,4.56,4.56,0,0,0-.73,1.43,5.45,5.45,0,0,0-.25,1.6,5.21,5.21,0,0,0,.28,1.71,4.54,4.54,0,0,0,.8,1.44,4,4,0,0,0,1.25,1,3.4,3.4,0,0,0,1.59.38,4.2,4.2,0,0,0,.94-.11,3.59,3.59,0,0,0,.93-.36,3.55,3.55,0,0,0,.82-.63,2.92,2.92,0,0,0,.6-.93l2.13,1.23a4,4,0,0,1-.92,1.33,5.89,5.89,0,0,1-1.34,1,6.86,6.86,0,0,1-1.59.6,7,7,0,0,1-1.66.21,5.71,5.71,0,0,1-2.62-.6,6.83,6.83,0,0,1-2-1.58,7.32,7.32,0,0,1-1.34-2.21A6.88,6.88,0,0,1,634.49,149.75Z"/><path class="cls-27" d="M648.25,156.54v-13.4h2.6v11.12h6.83v2.28Z"/><path class="cls-27" d="M659.27,156.54v-13.4h2.6v13.4Z"/><path class="cls-27" d="M667.28,148v8.59h-2.6v-13.4h2l7,8.8v-8.78h2.6v13.38h-2.11Z"/><path class="cls-27" d="M679.07,156.54v-13.4h2.6v13.4Z"/><path class="cls-27" d="M683.66,149.75a6.94,6.94,0,0,1,.44-2.43,6.5,6.5,0,0,1,3.37-3.67,6.42,6.42,0,0,1,2.79-.58,6.09,6.09,0,0,1,3.2.81,5.18,5.18,0,0,1,2,2.11l-2,1.38a3.44,3.44,0,0,0-.64-1,3.19,3.19,0,0,0-.81-.61,3.62,3.62,0,0,0-.91-.33,4.3,4.3,0,0,0-.92-.1,3.52,3.52,0,0,0-1.71.4,3.76,3.76,0,0,0-1.21,1,4.56,4.56,0,0,0-.73,1.43,5.45,5.45,0,0,0-.25,1.6,5.21,5.21,0,0,0,.28,1.71,4.54,4.54,0,0,0,.8,1.44,4,4,0,0,0,1.25,1,3.4,3.4,0,0,0,1.59.38,4.2,4.2,0,0,0,.94-.11,3.59,3.59,0,0,0,.93-.36,3.55,3.55,0,0,0,.82-.63,2.92,2.92,0,0,0,.6-.93l2.13,1.23a4,4,0,0,1-.92,1.33,5.89,5.89,0,0,1-1.34,1,6.86,6.86,0,0,1-1.59.6,7,7,0,0,1-1.66.21,5.71,5.71,0,0,1-2.62-.6,6.83,6.83,0,0,1-2-1.58,7.32,7.32,0,0,1-1.34-2.21A6.88,6.88,0,0,1,683.66,149.75Z"/><path class="cls-27" d="M708.69,143.14l-9.36,13.4h-2.79l9.34-13.4Z"/><path class="cls-27" d="M709.37,149.75a6.94,6.94,0,0,1,.44-2.43,6.5,6.5,0,0,1,3.37-3.67,6.42,6.42,0,0,1,2.79-.58,6.09,6.09,0,0,1,3.2.81,5.18,5.18,0,0,1,2,2.11l-2,1.38a3.44,3.44,0,0,0-.64-1,3.19,3.19,0,0,0-.81-.61,3.62,3.62,0,0,0-.91-.33,4.3,4.3,0,0,0-.92-.1,3.52,3.52,0,0,0-1.71.4,3.76,3.76,0,0,0-1.21,1,4.56,4.56,0,0,0-.73,1.43,5.45,5.45,0,0,0-.25,1.6,5.21,5.21,0,0,0,.28,1.71,4.54,4.54,0,0,0,.8,1.44,4,4,0,0,0,1.25,1,3.4,3.4,0,0,0,1.59.38,4.2,4.2,0,0,0,.94-.11,3.59,3.59,0,0,0,.93-.36,3.55,3.55,0,0,0,.82-.63,2.92,2.92,0,0,0,.6-.93l2.13,1.23a4,4,0,0,1-.92,1.33,5.89,5.89,0,0,1-1.34,1,6.86,6.86,0,0,1-1.59.6,7,7,0,0,1-1.66.21,5.71,5.71,0,0,1-2.62-.6,6.83,6.83,0,0,1-2-1.58,7.32,7.32,0,0,1-1.34-2.21A6.88,6.88,0,0,1,709.37,149.75Z"/><path class="cls-27" d="M734.39,143.14v13.4h-2.59v-5.72h-6.08v5.72h-2.6v-13.4h2.6v5.42h6.08v-5.42Z"/><path class="cls-27" d="M741,143.14h2.3l5.1,13.4h-2.68l-1.25-3.34h-4.68l-1.23,3.34h-2.68Zm3,8.23-1.85-5.27-1.92,5.27Z"/><path class="cls-27" d="M760.8,156.54v-8.87l-3.45,6.61h-1.42l-3.45-6.61v8.87h-2.6v-13.4h2.79l4,7.63,4-7.62h2.77v13.4Z"/><path class="cls-27" d="M777,153.09a3,3,0,0,1-1.27,2.57,4.37,4.37,0,0,1-1.38.66,6,6,0,0,1-1.67.23H766.2v-13.4h7.17a2.65,2.65,0,0,1,1.26.3,3.16,3.16,0,0,1,1,.78,3.6,3.6,0,0,1,.61,1.09,3.69,3.69,0,0,1,.22,1.24,3.65,3.65,0,0,1-.49,1.84,3,3,0,0,1-1.43,1.27,3.45,3.45,0,0,1,1.82,1.22A3.52,3.52,0,0,1,777,153.09Zm-8.19-7.72v3.38h3.47a1.55,1.55,0,0,0,1.12-.45,1.67,1.67,0,0,0,.46-1.25,1.72,1.72,0,0,0-.42-1.23,1.38,1.38,0,0,0-1-.45Zm5.57,7.23a2,2,0,0,0-.12-.69,1.91,1.91,0,0,0-.33-.58,1.54,1.54,0,0,0-.49-.39,1.37,1.37,0,0,0-.62-.14h-4v3.53h3.87a1.7,1.7,0,0,0,.67-.13,1.61,1.61,0,0,0,.54-.37,1.79,1.79,0,0,0,.49-1.24Z"/><path class="cls-27" d="M788.34,154.26v2.28H779v-13.4h9.14v2.28h-6.53v3.23h5.64v2.11h-5.64v3.49Z"/><path class="cls-27" d="M790.38,156.54v-13.4h5.93a3.81,3.81,0,0,1,1.71.39,4.42,4.42,0,0,1,1.35,1,4.83,4.83,0,0,1,.89,1.43,4.32,4.32,0,0,1,.32,1.61,4.45,4.45,0,0,1-.65,2.37,3.73,3.73,0,0,1-1.76,1.54l3.06,5h-2.92l-2.74-4.49H793v4.49Zm2.6-6.78h3.27a1.37,1.37,0,0,0,.67-.17,1.7,1.7,0,0,0,.54-.46,2.3,2.3,0,0,0,.36-.69,2.67,2.67,0,0,0,.13-.85,2.42,2.42,0,0,0-.15-.87,2.29,2.29,0,0,0-.41-.69,1.84,1.84,0,0,0-.59-.45,1.52,1.52,0,0,0-.67-.16H793Z"/><rect class="cls-1" y="139.68" width="208.35" height="25.58" rx="1.69" ry="1.69"/><path class="cls-27" d="M2,157.92v-13.4H6.84a7.28,7.28,0,0,1,2.88.53A5.78,5.78,0,0,1,13,148.61a8,8,0,0,1,.42,2.6A7.84,7.84,0,0,1,13,154a5.9,5.9,0,0,1-1.33,2.11,6,6,0,0,1-2.08,1.36,7.36,7.36,0,0,1-2.73.48Zm8.85-6.72a5.68,5.68,0,0,0-.26-1.77,4,4,0,0,0-.77-1.4,3.45,3.45,0,0,0-1.25-.91,4.24,4.24,0,0,0-1.69-.32H4.58v8.83H6.84a4.08,4.08,0,0,0,1.71-.34,3.5,3.5,0,0,0,1.25-.93,4.15,4.15,0,0,0,.76-1.41A5.62,5.62,0,0,0,10.83,151.2Z"/><path class="cls-27" d="M15.49,157.92v-13.4h2.6v13.4Z"/><path class="cls-27" d="M24.7,144.52H27l5.1,13.4H29.42l-1.25-3.34H23.49l-1.23,3.34H19.58Zm3,8.23-1.85-5.27-1.92,5.27Z"/><path class="cls-27" d="M42.38,156.41a5.13,5.13,0,0,1-3.74,1.6,5.92,5.92,0,0,1-2.48-.53,6.27,6.27,0,0,1-2-1.45,6.93,6.93,0,0,1-1.36-2.18,7.24,7.24,0,0,1-.5-2.71,6.81,6.81,0,0,1,1.88-4.73A6.6,6.6,0,0,1,36.23,145a6.2,6.2,0,0,1,2.59-.54,6.28,6.28,0,0,1,3.24.79,5.13,5.13,0,0,1,2,2.13l-1.94,1.43a3.61,3.61,0,0,0-1.43-1.53,3.91,3.91,0,0,0-2-.53,3.4,3.4,0,0,0-1.56.36,3.64,3.64,0,0,0-1.21,1,4.62,4.62,0,0,0-.77,1.43,5.33,5.33,0,0,0-.27,1.72,5.08,5.08,0,0,0,.3,1.77,4.49,4.49,0,0,0,.83,1.42,3.87,3.87,0,0,0,1.25,1,3.59,3.59,0,0,0,1.58.35,4.57,4.57,0,0,0,3.51-1.83v-.94h-2.7V151h4.85v6.89H42.38Z"/><path class="cls-27" d="M49.37,149.33v8.59h-2.6v-13.4h2l7,8.8v-8.78h2.6v13.38H56.26Z"/><path class="cls-27" d="M66.88,158a6.08,6.08,0,0,1-2.67-.58,6.54,6.54,0,0,1-2.06-1.53,7.09,7.09,0,0,1-1.8-4.69,6.75,6.75,0,0,1,.5-2.57,7.1,7.1,0,0,1,1.38-2.17,6.56,6.56,0,0,1,2.09-1.5,6.19,6.19,0,0,1,2.62-.56,5.88,5.88,0,0,1,2.65.59,6.63,6.63,0,0,1,2,1.56A7.16,7.16,0,0,1,73,148.77a6.89,6.89,0,0,1,.47,2.49,6.77,6.77,0,0,1-.49,2.56A6.93,6.93,0,0,1,71.58,156a6.53,6.53,0,0,1-2.08,1.49A6.19,6.19,0,0,1,66.88,158ZM63,151.22a5.38,5.38,0,0,0,.26,1.68,4.48,4.48,0,0,0,.76,1.43,3.8,3.8,0,0,0,1.23,1,3.8,3.8,0,0,0,3.32,0,3.81,3.81,0,0,0,1.23-1,4.59,4.59,0,0,0,.75-1.44,5.36,5.36,0,0,0,.25-1.63,5.22,5.22,0,0,0-.27-1.68,4.63,4.63,0,0,0-.77-1.43,3.7,3.7,0,0,0-1.23-1,3.82,3.82,0,0,0-3.31,0,3.73,3.73,0,0,0-1.23,1,4.58,4.58,0,0,0-.75,1.43A5.36,5.36,0,0,0,63,151.22Z"/><path class="cls-27" d="M83.42,148a3.23,3.23,0,0,0-.48-.36,5.85,5.85,0,0,0-.85-.44,7.32,7.32,0,0,0-1.08-.37,4.75,4.75,0,0,0-1.19-.15,2.67,2.67,0,0,0-1.6.4,1.31,1.31,0,0,0-.53,1.11,1.15,1.15,0,0,0,.2.69,1.71,1.71,0,0,0,.58.48,4.81,4.81,0,0,0,1,.38q.58.17,1.33.36,1,.26,1.78.57a4.84,4.84,0,0,1,1.36.75,3.12,3.12,0,0,1,.86,1.09,3.6,3.6,0,0,1,.3,1.56,3.89,3.89,0,0,1-.41,1.84,3.42,3.42,0,0,1-1.09,1.24,4.77,4.77,0,0,1-1.59.69,8,8,0,0,1-1.88.22,10.1,10.1,0,0,1-3-.45,9.22,9.22,0,0,1-2.64-1.28l1.15-2.25a3.61,3.61,0,0,0,.61.44,9.35,9.35,0,0,0,1,.55,8.11,8.11,0,0,0,1.34.46,6.05,6.05,0,0,0,1.51.19q2.15,0,2.15-1.38a1.13,1.13,0,0,0-.25-.74,2.09,2.09,0,0,0-.7-.53,6.77,6.77,0,0,0-1.09-.42l-1.43-.42a12.05,12.05,0,0,1-1.67-.58,4.39,4.39,0,0,1-1.18-.74,2.76,2.76,0,0,1-.71-1,3.4,3.4,0,0,1-.24-1.33,4.16,4.16,0,0,1,.38-1.81,3.66,3.66,0,0,1,1-1.32,4.75,4.75,0,0,1,1.56-.8,6.44,6.44,0,0,1,1.91-.27,7.41,7.41,0,0,1,2.6.44,9.73,9.73,0,0,1,2.08,1Z"/><path class="cls-27" d="M96.93,146.81H92.65v11.12H90.06V146.81H85.78v-2.28H96.93Z"/><path class="cls-27" d="M98.59,157.92v-13.4h2.6v13.4Z"/><path class="cls-27" d="M103.18,151.13a6.94,6.94,0,0,1,.44-2.43A6.5,6.5,0,0,1,107,145a6.42,6.42,0,0,1,2.79-.58,6.09,6.09,0,0,1,3.2.81,5.18,5.18,0,0,1,2,2.11l-2,1.38a3.44,3.44,0,0,0-.64-1,3.19,3.19,0,0,0-.81-.61,3.62,3.62,0,0,0-.91-.33,4.3,4.3,0,0,0-.92-.1,3.52,3.52,0,0,0-1.71.4,3.76,3.76,0,0,0-1.21,1,4.56,4.56,0,0,0-.73,1.43,5.45,5.45,0,0,0-.25,1.6,5.21,5.21,0,0,0,.28,1.71,4.54,4.54,0,0,0,.8,1.44,4,4,0,0,0,1.25,1,3.4,3.4,0,0,0,1.59.38,4.2,4.2,0,0,0,.94-.11,3.59,3.59,0,0,0,.93-.36,3.55,3.55,0,0,0,.82-.63,2.92,2.92,0,0,0,.6-.93l2.13,1.23a4,4,0,0,1-.92,1.33,5.89,5.89,0,0,1-1.34,1,6.86,6.86,0,0,1-1.59.6,7,7,0,0,1-1.66.21,5.71,5.71,0,0,1-2.62-.6,6.83,6.83,0,0,1-2-1.58,7.32,7.32,0,0,1-1.34-2.21A6.88,6.88,0,0,1,103.18,151.13Z"/><path class="cls-27" d="M124.92,148a3.23,3.23,0,0,0-.48-.36,5.85,5.85,0,0,0-.85-.44,7.32,7.32,0,0,0-1.08-.37,4.75,4.75,0,0,0-1.19-.15,2.67,2.67,0,0,0-1.6.4,1.31,1.31,0,0,0-.53,1.11,1.15,1.15,0,0,0,.2.69,1.71,1.71,0,0,0,.58.48,4.81,4.81,0,0,0,1,.38q.58.17,1.33.36,1,.26,1.78.57a4.84,4.84,0,0,1,1.36.75,3.12,3.12,0,0,1,.86,1.09,3.6,3.6,0,0,1,.3,1.56,3.89,3.89,0,0,1-.41,1.84,3.42,3.42,0,0,1-1.09,1.24,4.77,4.77,0,0,1-1.59.69,8,8,0,0,1-1.88.22,10.1,10.1,0,0,1-3-.45,9.22,9.22,0,0,1-2.64-1.28l1.15-2.25a3.61,3.61,0,0,0,.61.44,9.35,9.35,0,0,0,1,.55,8.11,8.11,0,0,0,1.34.46,6.05,6.05,0,0,0,1.51.19q2.15,0,2.15-1.38a1.13,1.13,0,0,0-.25-.74,2.09,2.09,0,0,0-.7-.53,6.77,6.77,0,0,0-1.09-.42l-1.43-.42a12.05,12.05,0,0,1-1.67-.58,4.39,4.39,0,0,1-1.18-.74,2.76,2.76,0,0,1-.71-1,3.4,3.4,0,0,1-.24-1.33,4.16,4.16,0,0,1,.38-1.81,3.66,3.66,0,0,1,1-1.32,4.75,4.75,0,0,1,1.56-.8,6.44,6.44,0,0,1,1.91-.27,7.41,7.41,0,0,1,2.6.44,9.73,9.73,0,0,1,2.08,1Z"/><path class="cls-27" d="M132.23,151.13a6.94,6.94,0,0,1,.44-2.43A6.5,6.5,0,0,1,136,145a6.42,6.42,0,0,1,2.79-.58,6.09,6.09,0,0,1,3.2.81,5.18,5.18,0,0,1,2,2.11l-2,1.38a3.44,3.44,0,0,0-.64-1,3.19,3.19,0,0,0-.81-.61,3.62,3.62,0,0,0-.91-.33,4.3,4.3,0,0,0-.92-.1,3.52,3.52,0,0,0-1.71.4,3.76,3.76,0,0,0-1.21,1,4.56,4.56,0,0,0-.73,1.43,5.45,5.45,0,0,0-.25,1.6,5.21,5.21,0,0,0,.28,1.71,4.54,4.54,0,0,0,.8,1.44,4,4,0,0,0,1.25,1,3.4,3.4,0,0,0,1.59.38,4.2,4.2,0,0,0,.94-.11,3.59,3.59,0,0,0,.93-.36,3.55,3.55,0,0,0,.82-.63,2.92,2.92,0,0,0,.6-.93l2.13,1.23a4,4,0,0,1-.92,1.33,5.89,5.89,0,0,1-1.34,1,6.86,6.86,0,0,1-1.59.6,7,7,0,0,1-1.66.21,5.71,5.71,0,0,1-2.62-.6,6.83,6.83,0,0,1-2-1.58,7.32,7.32,0,0,1-1.34-2.21A6.88,6.88,0,0,1,132.23,151.13Z"/><path class="cls-27" d="M155.29,155.64v2.28H146v-13.4h9.14v2.28h-6.53V150h5.64v2.11h-5.64v3.49Z"/><path class="cls-27" d="M159.93,149.33v8.59h-2.6v-13.4h2l7,8.8v-8.78h2.6v13.38h-2.11Z"/><path class="cls-27" d="M181.75,146.81h-4.28v11.12h-2.59V146.81H170.6v-2.28h11.15Z"/><path class="cls-27" d="M192.72,155.64v2.28h-9.31v-13.4h9.14v2.28H186V150h5.64v2.11H186v3.49Z"/><path class="cls-27" d="M194.76,157.92v-13.4h5.93a3.81,3.81,0,0,1,1.71.39,4.42,4.42,0,0,1,1.35,1,4.83,4.83,0,0,1,.89,1.43,4.32,4.32,0,0,1,.32,1.61,4.45,4.45,0,0,1-.65,2.37,3.73,3.73,0,0,1-1.76,1.54l3.06,5h-2.92l-2.74-4.49h-2.57v4.49Zm2.6-6.78h3.27a1.37,1.37,0,0,0,.67-.17,1.7,1.7,0,0,0,.54-.46,2.3,2.3,0,0,0,.36-.69,2.67,2.67,0,0,0,.13-.85,2.42,2.42,0,0,0-.15-.87,2.29,2.29,0,0,0-.41-.69,1.84,1.84,0,0,0-.59-.45,1.52,1.52,0,0,0-.67-.16h-3.15Z"/><rect class="cls-28" x="377.07" y="52.12" width="49.47" height="90.15"/><rect class="cls-29" x="393.76" y="121.53" width="16.45" height="20.74"/><rect class="cls-30" x="331.17" y="76.61" width="45.91" height="65.67"/><path class="cls-31" d="M401.8,83.42a11.6,11.6,0,1,0-11.6-11.6,11.63,11.63,0,0,0,11.6,11.6Z"/><path class="cls-32" d="M401.8,81.21a9.39,9.39,0,1,0-9.39-9.39,9.43,9.43,0,0,0,9.39,9.39Z"/><path class="cls-33" d="M380.94,90.85h12.15v4.91H380.94Zm0,18.47h12.15v5H380.94Zm14.79,0h12.15v5H395.73Zm14.79,0h12.15v5H410.52Zm-29.58-9.21h12.15V105H380.94Zm14.79,0h12.15V105H395.73Zm0-9.27h12.15v4.91H395.73Zm14.79,0h12.15v4.91H410.52Zm0,9.27h12.15V105H410.52Z"/><rect class="cls-34" x="391.19" y="124.23" width="4.36" height="18.04"/><rect class="cls-34" x="408.06" y="124.23" width="4.3" height="18.04"/><path class="cls-33" d="M334.85,92.07h8.41v4.3h-8.41Zm0,29.34h8.41v4.3h-8.41Zm10.06,0h8.41v4.3h-8.41Zm10,0h8.41v4.3h-8.41Zm10.06,0h8.41v4.3H365Zm-30.13-9.82h8.41v4.3h-8.41Zm10.06,0h8.41v4.3h-8.41Zm10,0h8.41v4.3h-8.41Zm10.06,0h8.41v4.3H365Zm-30.13-9.76h8.41v4.3h-8.41Zm10.06,0h8.41v4.3h-8.41Zm10,0h8.41v4.3h-8.41Zm-10-9.76h8.41v4.3h-8.41Zm10,0h8.41v4.3h-8.41Zm10.06,0h8.41v4.3H365Zm0,9.76h8.41v4.3H365Z"/><rect class="cls-30" x="426.54" y="76.61" width="45.91" height="65.67"/><path class="cls-33" d="M468.76,92.07h-8.41v4.3h8.41Zm0,29.34h-8.41v4.3h8.41Zm-10,0h-8.41v4.3h8.41Zm-10.06,0h-8.41v4.3h8.41Zm-10.06,0h-8.41v4.3h8.41Zm30.13-9.82h-8.41v4.3h8.41Zm-10,0h-8.41v4.3h8.41Zm-10.06,0h-8.41v4.3h8.41Zm-10.06,0h-8.41v4.3h8.41Zm30.13-9.76h-8.41v4.3h8.41Zm-10,0h-8.41v4.3h8.41Zm-10.06,0h-8.41v4.3h8.41Zm10.06-9.76h-8.41v4.3h8.41Zm-10.06,0h-8.41v4.3h8.41Zm-10.06,0h-8.41v4.3h8.41Zm0,9.76h-8.41v4.3h8.41Z"/><rect class="cls-28" x="395.54" y="140.56" width="12.52" height="1.72"/><polygon class="cls-31" points="405.92 77.1 401.5 72.07 401.44 71.94 401.44 71.82 401.19 64.15 401.99 64.09 402.17 71.64 406.47 76.61 405.92 77.1"/><path class="cls-35" d="M393.46,34.69l.86-2.7s4.23-2.52,8.16-1.1,5,2,8.1,2.33,6.81-1.84,6.81-1.84l.31,12.4s-4.36,2.76-9,1.9-4.91-2.76-7.73-2.45a32.19,32.19,0,0,0-6.63,2Z"/><rect class="cls-29" x="393.03" y="31.62" width="1.84" height="20.5"/><rect class="cls-36" x="688.94" y="167.91" width="44.26" height="87.47"/><rect class="cls-37" x="692.9" y="171.98" width="36.34" height="79.33"/><polygon class="cls-35" points="707.27 177.9 714.88 177.9 714.88 183.34 720.26 183.34 720.26 190.94 714.88 190.94 714.88 196.38 707.27 196.38 707.27 190.94 701.83 190.94 701.83 183.34 707.27 183.34 707.27 177.9"/><rect class="cls-38" x="699.88" y="216.93" width="22.4" height="38.45"/><rect class="cls-37" x="696.39" y="250.79" width="29.63" height="2.43"/><rect class="cls-38" x="696.39" y="253.21" width="29.63" height="2.48"/><rect class="cls-37" x="696.39" y="255.7" width="29.63" height="2.43"/><rect class="cls-37" x="657.04" y="180.11" width="31.9" height="75.27"/><rect class="cls-36" x="657.04" y="185.34" width="31.9" height="11.14"/><rect class="cls-38" x="661.16" y="200.45" width="5.76" height="15.16"/><rect class="cls-38" x="670.51" y="200.45" width="5.76" height="15.16"/><rect class="cls-38" x="679.86" y="200.45" width="5.76" height="15.16"/><rect class="cls-38" x="661.16" y="221.1" width="5.76" height="15.21"/><rect class="cls-38" x="670.51" y="221.1" width="5.76" height="15.21"/><rect class="cls-38" x="679.86" y="221.1" width="5.76" height="15.21"/><rect class="cls-36" x="657.04" y="240.12" width="31.9" height="11.14"/><rect class="cls-37" x="733.26" y="180.11" width="31.9" height="75.27"/><rect class="cls-36" x="733.26" y="185.34" width="31.9" height="11.14"/><rect class="cls-38" x="755.23" y="200.45" width="5.81" height="15.16"/><rect class="cls-38" x="745.88" y="200.45" width="5.81" height="15.16"/><rect class="cls-38" x="736.53" y="200.45" width="5.81" height="15.16"/><rect class="cls-38" x="755.23" y="221.1" width="5.81" height="15.21"/><rect class="cls-38" x="745.88" y="221.1" width="5.81" height="15.21"/><rect class="cls-38" x="736.53" y="221.1" width="5.81" height="15.21"/><rect class="cls-36" x="733.26" y="240.12" width="31.9" height="11.14"/><rect class="cls-39" x="685.09" y="211.65" width="51.92" height="7.66"/><rect class="cls-40" x="76.05" y="207.01" width="56.4" height="53.27"/><rect class="cls-40" x="34.46" y="207.38" width="42.64" height="52.89"/><rect class="cls-41" x="59.2" y="213.87" width="12.09" height="12.09"/><path class="cls-42" d="M33.8,205.76a1.3,1.3,0,0,0-1.41,1.14v.84a1.3,1.3,0,0,0,1.41,1.14H80.91v-3.13Z"/><rect class="cls-41" x="40.29" y="213.87" width="12.09" height="12.09"/><rect class="cls-40" x="129.4" y="207.38" width="42.64" height="53.2"/><path class="cls-42" d="M172.7,205.76a1.3,1.3,0,0,1,1.41,1.14v.84a1.3,1.3,0,0,1-1.41,1.14H125.58v-3.13Z"/><polygon class="cls-43" points="78.67 182.88 78.67 197.82 78.67 260.9 127.99 260.9 127.99 197.82 127.99 182.88 78.67 182.88"/><rect class="cls-41" x="85.99" y="230.83" width="15.66" height="27.55"/><rect class="cls-41" x="105.01" y="230.83" width="15.54" height="27.55"/><rect class="cls-42" x="72.75" y="182.1" width="61.16" height="3.85" rx="1.41" ry="1.41"/><path class="cls-42" d="M103.35,166.87a7.79,7.79,0,1,1-5.51,2.28,7.74,7.74,0,0,1,5.51-2.28m0-1.73a9.52,9.52,0,1,0,9.52,9.52,9.52,9.52,0,0,0-9.52-9.52Z"/><rect class="cls-42" x="83.65" y="227.7" width="39.07" height="3.09" rx="0.55" ry="0.55"/><rect class="cls-41" x="59.2" y="231.55" width="12.09" height="12.09"/><rect class="cls-41" x="40.29" y="231.55" width="12.09" height="12.09"/><rect class="cls-41" x="104.75" y="196.47" width="10.54" height="10.54"/><rect class="cls-41" x="90.67" y="196.47" width="10.54" height="10.54"/><rect class="cls-41" x="104.75" y="211.13" width="10.54" height="10.54"/><rect class="cls-41" x="90.67" y="211.13" width="10.54" height="10.54"/><circle class="cls-44" cx="103.33" cy="174.76" r="8.55"/><rect class="cls-8" x="102.23" y="170.57" width="2.3" height="8.16" rx="0.63" ry="0.63"/><rect class="cls-8" x="99.28" y="173.52" width="8.16" height="2.3" rx="0.63" ry="0.63"/><rect class="cls-41" x="154.11" y="213.87" width="12.09" height="12.09"/><rect class="cls-41" x="135.21" y="213.87" width="12.09" height="12.09"/><rect class="cls-41" x="154.11" y="231.55" width="12.09" height="12.09"/><rect class="cls-41" x="135.21" y="231.55" width="12.09" height="12.09"/><path class="cls-2" d="M404.28,192.42c-4.15-4.23-4.94-10.22-5.35-15.88a19,19,0,0,1,1.42-9.54c1.34-3.12,2.76-6.21,4.14-9.31.26-.58-.6-1.09-.86-.5-1.56,3.5-3.23,7-4.66,10.52-1.29,3.21-1.25,6.2-1,9.61.46,5.7,1.42,11.58,5.58,15.81.45.46,1.16-.25.71-.71Z"/><path class="cls-2" d="M399.59,159.05l2.78-2,1.39-1c.43-.3,1.12-1,1.62-1.15.77-.19.69.31.72,1s0,1.15,0,1.73c0,1.25,0,2.49,0,3.74a.5.5,0,0,0,1,0c0-1.82,0-3.65,0-5.47,0-.74.08-1.95-.8-2.28s-1.93.77-2.59,1.24l-4.64,3.29c-.52.37,0,1.24.5.86Z"/><path class="cls-2" d="M323.94,240.78A69.33,69.33,0,0,0,283.66,218c-17.45-3-36.17,2-52.81-5.48-.58-.26-1.09.6-.5.86,15.82,7.13,33.37,3.09,50,5.14a68.32,68.32,0,0,1,42.86,23c.42.49,1.13-.22.71-.71Z"/><path class="cls-2" d="M224.8,208.9l.62,13.68c0,.64,1,.64,1,0l-.62-13.68c0-.64-1-.64-1,0Z"/><path class="cls-2" d="M225.49,209.63a115.05,115.05,0,0,0,13,.82.5.5,0,0,0,0-1,115.05,115.05,0,0,1-13-.82c-.64-.08-.63.92,0,1Z"/><path class="cls-2" d="M478.47,255.63c1.94-9.26,10-15,18.39-18.09a111.51,111.51,0,0,1,27.65-6,226.85,226.85,0,0,1,28.06-.88c9.18.2,18.17.47,27.1-2.05C590,225.7,600,221,609.92,217c.59-.24.33-1.21-.27-1-9.28,3.75-18.5,8-28.05,11-9.9,3.11-19.72,2.85-30,2.65-18.8-.36-39,.32-56.65,7.55-8.1,3.32-15.6,9.19-17.48,18.16-.13.63.83.9,1,.27Z"/><path class="cls-2" d="M603,212.84c2.29.36,8.37.25,8.9,2.93.57,2.84-1.06,6.7-2.35,9.13-.3.57.56,1.07.86.5,1.48-2.78,3.45-7.57,2.41-10.8-.35-1.09-.92-1.24-2-1.54a60.73,60.73,0,0,0-7.6-1.18c-.63-.1-.9.87-.27,1Z"/></g></g></svg>