<svg xmlns="http://www.w3.org/2000/svg" viewBox="0 0 128.47 128.47"><defs><style>.cls-1{fill:none;stroke:#ec1c24;stroke-miterlimit:10;}.cls-2{fill:#f2f2f2;}.cls-3{fill:#8697cb;}.cls-4{fill:#556080;}.cls-5{fill:#f0c419;}.cls-6{fill:#fff;}.cls-7{fill:#26b99a;}</style></defs><title>Asset 43</title><g id="Layer_2" data-name="Layer 2"><g id="Layer_1-2" data-name="Layer 1"><circle class="cls-1" cx="64.74" cy="64.74" r="63.24"/><circle class="cls-2" cx="63.24" cy="63.24" r="63.24"/><path class="cls-3" d="M90.48,51.4C90.33,39.88,81,30.21,69.4,30.21A22.15,22.15,0,0,0,51.3,39.93a10.59,10.59,0,0,0-16.46,8.83c0,.2,0,.4,0,.6s0,.49,0,.72a17,17,0,0,0-9.27,14.77c0,7.72,4.75,14.41,11.92,15.69h53a14.86,14.86,0,0,0,0-29.14"/><path class="cls-4" d="M83.85,52.73a1.32,1.32,0,0,1-.2-2.63,26.6,26.6,0,0,1,7,0,1.32,1.32,0,1,1-.39,2.62,24.69,24.69,0,0,0-6.23,0l-.2,0"/><path class="cls-4" d="M57.36,50.08A1.32,1.32,0,0,1,56,48.75a9.27,9.27,0,0,0-18.54,0,1.32,1.32,0,0,1-2.65,0,11.92,11.92,0,1,1,23.84,0,1.32,1.32,0,0,1-1.32,1.32"/><path class="cls-5" d="M86.5,56.7s-5,5.3-15.89,5.3V75.88a23.63,23.63,0,0,0,9.16,18.22,19.77,19.77,0,0,0,6.73,3.67,22.11,22.11,0,0,0,7.2-3.67,23.19,23.19,0,0,0,8.7-18.22v-14c-10.85,0-15.89-5.19-15.89-5.19"/><path class="cls-6" d="M86.5,92.47A16.63,16.63,0,0,1,83,90.26a19,19,0,0,1-7.1-14.38V67.3a28.69,28.69,0,0,0,10.6-4,28.69,28.69,0,0,0,10.6,4v8.58a18.62,18.62,0,0,1-6.71,14.38,16.38,16.38,0,0,1-3.88,2.21"/><path class="cls-7" d="M85.18,83.19a1.32,1.32,0,0,1-.94-.39l-4-4A1.32,1.32,0,0,1,82.14,77L85,79.83l5.72-8a1.32,1.32,0,1,1,2.15,1.54l-6.62,9.27a1.32,1.32,0,0,1-1,.55h-.11"/></g></g></svg>