<svg xmlns="http://www.w3.org/2000/svg" viewBox="0 0 128.47 128.47"><defs><style>.cls-1{fill:none;stroke:#ec1c24;stroke-miterlimit:10;}.cls-2{fill:#f2f2f2;}.cls-3{fill:#2a3137;}.cls-4{fill:#2a3237;}.cls-5{fill:#d33e2c;}.cls-6{fill:#415e72;}.cls-7{fill:#cfdce5;}.cls-8{fill:#25b6d2;}.cls-9{fill:#fff;}</style></defs><title>Asset 40</title><g id="Layer_2" data-name="Layer 2"><g id="Layer_1-2" data-name="Layer 1"><circle class="cls-1" cx="64.74" cy="64.74" r="63.24"/><circle class="cls-2" cx="63.24" cy="63.24" r="63.24"/><path class="cls-3" d="M62.8,85.09c0,.41,0,.78,0,1.15,0,.83,0,1.66,0,2.48a1.69,1.69,0,0,1-1.81,1.52,1.74,1.74,0,0,1-1.67-1.75q0-13.42,0-26.84a1.75,1.75,0,1,1,3.5,0q0,7.41,0,14.82,0,2.54,0,5.09c0,.09,0,.19,0,.31l.38,0h42.54c.28,0,.35-.08.35-.36,0-3.87,0-7.74,0-11.61a2.05,2.05,0,0,1,.75-1.8,1.83,1.83,0,0,1,2-.21,1.8,1.8,0,0,1,1.1,1.72q0,4.5,0,9,0,4.83,0,9.67a1.87,1.87,0,0,1-1.72,1.91,1.89,1.89,0,0,1-2.06-1.5,2.55,2.55,0,0,1,0-.54c0-.87,0-1.74,0-2.61,0-.49,0-.49-.47-.49H62.8Z"/><path class="cls-4" d="M76.28,78.39c0-.1,0-.17,0-.24,0-1.84,0-3.69,0-5.53A3.05,3.05,0,0,1,78,69.72a3,3,0,0,1,1.26-.28q10.11,0,20.22,0a3,3,0,0,1,3,2.86c.06,2,0,4,0,6.1Z"/><path class="cls-5" d="M59.31,49.76c-.11-.3,0-.44.24-.58a19.92,19.92,0,0,1,9.21-2.56A17.87,17.87,0,0,1,78.5,49a13.53,13.53,0,0,1,4.82,4.65l.19.3L86.77,52l-3.06,9.31-9.59-2,3.27-1.88a16.14,16.14,0,0,0-7.81-6.79A16,16,0,0,0,59.31,49.76Z"/><path class="cls-5" d="M102.32,49V44.95l7.6,7.89-7.53,7.81c0-.48-.06-.88-.07-1.28,0-.82,0-1.63,0-2.45,0-.15,0-.28-.22-.3a36,36,0,0,0-8.83.42,15.38,15.38,0,0,0-5.61,2.38c-.74.47-1.44,1-2.25,1.55a20.78,20.78,0,0,1,6.72-8.48A17.21,17.21,0,0,1,102.32,49Z"/><path class="cls-4" d="M65.24,73.92a4.48,4.48,0,1,1,4.45,4.49A4.5,4.5,0,0,1,65.24,73.92Z"/><path class="cls-6" d="M27,32.17,60.88,28a2.05,2.05,0,0,1,2.29,1.78L71,93.52a2.05,2.05,0,0,1-1.78,2.29L35.34,100a2.05,2.05,0,0,1-2.29-1.78L25.19,34.46A2.05,2.05,0,0,1,27,32.17Z"/><rect class="cls-6" x="30.87" y="35.3" width="34.17" height="54.66" transform="translate(-7.31 6.34) rotate(-7.03)"/><path class="cls-7" d="M40.08,32.62l8.14-1a.68.68,0,0,1,.76.59h0a.68.68,0,0,1-.59.76l-8.14,1a.68.68,0,0,1-.76-.59h0A.68.68,0,0,1,40.08,32.62Z"/><path class="cls-7" d="M47.56,93l8.14-1a.68.68,0,0,1,.76.59h0a.68.68,0,0,1-.59.76l-8.14,1a.68.68,0,0,1-.76-.59h0A.68.68,0,0,1,47.56,93Z"/><path class="cls-8" d="M20.29,44.72l28-3.45a2.56,2.56,0,0,1,2.86,2.23L53.3,61.28a2.56,2.56,0,0,1-2.23,2.86l-28,3.45a2.56,2.56,0,0,1-2.86-2.23L18.07,47.57A2.56,2.56,0,0,1,20.29,44.72Z"/><polygon class="cls-8" points="46.93 72.39 45.67 62.22 32.97 63.79 46.93 72.39"/><rect class="cls-9" x="34.09" y="50.61" width="2.56" height="2.56" transform="translate(-6.09 4.72) rotate(-7.03)"/><rect class="cls-9" x="29.01" y="51.23" width="2.56" height="2.56" transform="translate(-6.2 4.1) rotate(-7.03)"/><rect class="cls-9" x="23.92" y="51.86" width="2.56" height="2.56" transform="translate(-6.32 3.49) rotate(-7.03)"/><rect class="cls-9" x="39.17" y="49.98" width="2.56" height="2.56" transform="translate(-5.97 5.34) rotate(-7.03)"/><rect class="cls-9" x="44.25" y="49.35" width="2.56" height="2.56" transform="translate(-5.86 5.96) rotate(-7.03)"/><rect class="cls-9" x="34.71" y="55.69" width="2.56" height="2.56" transform="translate(-6.71 4.84) rotate(-7.03)"/><rect class="cls-9" x="39.8" y="55.06" width="2.56" height="2.56" transform="translate(-6.59 5.45) rotate(-7.03)"/><rect class="cls-9" x="44.88" y="54.43" width="2.56" height="2.56" transform="translate(-6.48 6.07) rotate(-7.03)"/><path class="cls-9" d="M37.1,85.73a4.18,4.18,0,0,0,2.16.37c1.15-.14,1.61-.78,1.53-1.5S40.2,83.49,39,83.2c-1.63-.36-2.47-1.13-2.6-2.17a2.7,2.7,0,0,1,2.47-2.91h.21a4.35,4.35,0,0,1,2.2.28L41,79.59a3.4,3.4,0,0,0-1.84-.28c-.93.11-1.39.72-1.31,1.36s.65,1,1.83,1.27c1.58.39,2.44,1,2.6,2.34.19,1.53-.86,2.75-2.93,3A5,5,0,0,1,36.86,87Z"/><path class="cls-9" d="M43.84,80.11c-.11-.9-.22-1.63-.36-2.34l1.38-.17L45.11,79h.05A3,3,0,0,1,47.69,77a2.59,2.59,0,0,1,2.67,1.44h0a3.6,3.6,0,0,1,.83-1.25,3,3,0,0,1,1.85-.85c1.15-.14,2.94.4,3.31,3.42L57,84.91l-1.54.19-.61-4.92c-.21-1.67-.94-2.6-2.22-2.44A2.06,2.06,0,0,0,51,79.41a2.66,2.66,0,0,0,0,.8l.66,5.37-1.54.19-.64-5.2c-.17-1.38-.9-2.31-2.11-2.16A2.37,2.37,0,0,0,45.52,81l.65,5.24-1.54.19-.78-6.33Z"/><path class="cls-9" d="M59.18,83a4.18,4.18,0,0,0,2.16.37c1.15-.14,1.61-.78,1.53-1.5s-.59-1.11-1.81-1.4c-1.63-.36-2.47-1.13-2.6-2.17a2.7,2.7,0,0,1,2.47-2.91h.21a4.35,4.35,0,0,1,2.2.28l-.25,1.2a3.4,3.4,0,0,0-1.84-.28c-.93.11-1.39.72-1.31,1.36s.65,1,1.83,1.27c1.58.39,2.44,1,2.6,2.34.19,1.53-.86,2.75-2.93,3a5,5,0,0,1-2.51-.29Z"/></g></g></svg>