<svg xmlns="http://www.w3.org/2000/svg" viewBox="0 0 128.47 128.47"><defs><style>.cls-1{fill:none;stroke:#ec1c24;stroke-miterlimit:10;}.cls-2{fill:#f2f2f2;}.cls-3{fill:#82dcc7;}.cls-4{fill:#dd352e;}</style></defs><title>Asset 28</title><g id="Layer_2" data-name="Layer 2"><g id="Layer_1-2" data-name="Layer 1"><circle class="cls-1" cx="64.74" cy="64.74" r="63.24"/><circle class="cls-2" cx="63.24" cy="63.24" r="63.24"/><path class="cls-3" d="M78.84,90.51A31.16,31.16,0,1,1,93,70.23l-3.83-.91,4.43,14.8,10.6-11.24L100.35,72a38.7,38.7,0,1,0-17.55,25"/><path class="cls-4" d="M56.57,62.86c-9.67,0-9.67-14,0-14S66.23,62.86,56.57,62.86ZM78.3,49.41,57.81,80.68H51.49L72,49.41ZM56.57,58.77c3.83,0,3.83-5.84,0-5.84S52.74,58.77,56.57,58.77ZM73.49,80.95c-9.67,0-9.67-14,0-14S83.16,80.95,73.49,80.95Zm0-4.05c3.83,0,3.83-5.84,0-5.84S69.66,76.9,73.49,76.9Z"/></g></g></svg>