<svg xmlns="http://www.w3.org/2000/svg" viewBox="0 0 128.47 128.47"><defs><style>.cls-1{fill:none;stroke:#ec1c24;stroke-miterlimit:10;}.cls-2{fill:#f2f2f2;}.cls-3{fill:#48c1e1;}.cls-4,.cls-7{opacity:0.1;}.cls-5{fill:#c5ccd3;}.cls-6{fill:#e6e9ed;}.cls-7{isolation:isolate;}.cls-8{fill:#9ea7af;}.cls-9{fill:#fff;}.cls-10{fill:#046699;}.cls-11{fill:#282828;}.cls-12{fill:#a2dff9;}.cls-13{fill:#ffd5b3;}.cls-14{fill:#89c947;}.cls-15{fill:#368c0e;}.cls-16{fill:#fb8276;}</style></defs><title>Asset 10</title><g id="Layer_2" data-name="Layer 2"><g id="Layer_1-2" data-name="Layer 1"><circle class="cls-1" cx="64.74" cy="64.74" r="63.24"/><circle class="cls-2" cx="63.24" cy="63.24" r="63.24"/><path class="cls-3" d="M60.95,20.12a.9.9,0,0,0-.9-.9H30.67a.9.9,0,0,0-.9.9v11.5a.9.9,0,0,0,.9.9H41.21a2.52,2.52,0,0,1,1.54.64l2.17,2.16a.91.91,0,0,0,1.28,0l2.17-2.16a2.51,2.51,0,0,1,1.54-.64H60a.9.9,0,0,0,.9-.9V20.12Z"/><g class="cls-4"><path d="M33.53,31.61V20.12a.9.9,0,0,1,.9-.9H30.67a.9.9,0,0,0-.9.9v11.5a.9.9,0,0,0,.9.9h3.76A.9.9,0,0,1,33.53,31.61Z"/></g><path class="cls-5" d="M68.83,103V95.08a13.39,13.39,0,0,1-5-4.09,18.51,18.51,0,0,1-2.29-4,8.06,8.06,0,0,1,.16,1.62V99.39A19.83,19.83,0,0,0,68.83,103Z"/><path class="cls-6" d="M25.88,108.76a.94.94,0,0,1-.94-.94V88.64A8.11,8.11,0,0,1,33,80.56H53.8a8.11,8.11,0,0,1,8.11,8.08v19.17a.94.94,0,0,1-.94.94Z"/><path class="cls-7" d="M33.45,81.27l.38-.71H33a8.11,8.11,0,0,0-8.11,8.08v19.17a.94.94,0,0,0,.94.94H29.6a.94.94,0,0,1-.94-.94V88.64A8.09,8.09,0,0,1,33.45,81.27Z"/><path class="cls-8" d="M55.16,84.54V81a1.31,1.31,0,0,0-2.35-.79Z"/><path class="cls-8" d="M55,85.66l-2.43,1.13v2.09l1.09.56a.57.57,0,0,1,.21.87l-1.3,1.81v3.56a4.75,4.75,0,0,1,2.62,0V85.52A.69.69,0,0,1,55,85.66Z"/><path class="cls-5" d="M57.3,106.81H56.07a1.31,1.31,0,0,1-.09-2.62v-4.14a2.14,2.14,0,0,0-4.28,0v4.14a1.31,1.31,0,0,1-.09,2.62H50.39a1.31,1.31,0,0,1-1.31-1.31v-5.45a4.76,4.76,0,0,1,9.53,0v5.45A1.31,1.31,0,0,1,57.3,106.81Z"/><ellipse class="cls-5" cx="33.77" cy="102.88" rx="2.63" ry="2.62"/><path class="cls-8" d="M35.08,99.17v-6L33,90.32a.57.57,0,0,1,.21-.87l1.85-1V87.14l-2.62-1.22V99.17a3.94,3.94,0,1,0,2.62,0Zm-1.31,5a1.31,1.31,0,1,1,1.32-1.31A1.32,1.32,0,0,1,33.77,104.19Z"/><path class="cls-9" d="M52.27,78.8A1.64,1.64,0,0,0,51,78a13.81,13.81,0,0,1-4.15,1.52V100a.66.66,0,0,0,.45-.29L54,90.42a.75.75,0,0,0-.27-1.13L51.59,88.2c-.43-.22-.43-.58,0-.78L55,85.82a.83.83,0,0,0,.39-1.16Z"/><path class="cls-9" d="M37.41,78H35.89a1.64,1.64,0,0,0-1.31.78l-3.15,5.86a.83.83,0,0,0,.39,1.16l3.43,1.59c.44.21.45.56,0,.78l-2.12,1.09a.75.75,0,0,0-.27,1.13l6.67,9.29A.67.67,0,0,0,40,100V79.15A13.85,13.85,0,0,1,37.41,78Z"/><rect class="cls-10" x="39.89" y="80.37" width="7.07" height="28.38"/><path class="cls-11" d="M57,39.19H44.45a5.74,5.74,0,0,0-4.89,2.76H35.79A5.77,5.77,0,0,0,30,47.74V58.23h.17v-1c0-3.62,1.37-6.32,4.07-8,2.34-1.47,5.67-2.22,9.92-2.22s7.59.75,9.92,2.22c2.7,1.7,4.07,4.4,4.07,8v1h.17V40.57A1.37,1.37,0,0,0,57,39.19Z"/><path class="cls-9" d="M37.41,78H35.89a1.64,1.64,0,0,0-1.31.78l-3.15,5.86a.83.83,0,0,0,.39,1.16l3.43,1.59c.44.21.45.56,0,.78l-2.12,1.09a.75.75,0,0,0-.27,1.13l6.67,9.29A.67.67,0,0,0,40,100V79.15A13.85,13.85,0,0,1,37.41,78Z"/><path class="cls-7" d="M30.22,57.19a8.91,8.91,0,0,1,3.49-7.62V47.74a5.77,5.77,0,0,1,5.75-5.8H35.79A5.77,5.77,0,0,0,30,47.74V58.23h.17v-1Z"/><path class="cls-7" d="M42.35,47V45a5.78,5.78,0,0,1,5.75-5.8H44.45A5.78,5.78,0,0,0,38.71,45v2.48A23.93,23.93,0,0,1,42.35,47Z"/><path class="cls-12" d="M95.49,82.47H89.63a12.31,12.31,0,0,1-9.4,0h-4A7.55,7.55,0,0,0,68.65,90v17.88a.88.88,0,0,0,.88.88h32.63a.88.88,0,0,0,.88-.88V90A7.55,7.55,0,0,0,95.49,82.47Z"/><path class="cls-13" d="M58.37,65.69A14.23,14.23,0,0,1,44.2,80h0A14.23,14.23,0,0,1,30,65.69v-8.5c0-7.89,6.34-10.42,14.16-10.42h0c7.82,0,14.16,2.53,14.16,10.42v8.5Z"/><g class="cls-4"><path d="M33.7,65.69v-8.5c0-7.26,5.38-10,12.33-10.36q-.9,0-1.83-.05C36.38,46.77,30,49.3,30,57.19v8.5A14.14,14.14,0,0,0,46,79.85,14.24,14.24,0,0,1,33.7,65.69Z"/></g><path class="cls-7" d="M80.29,82.5l-.06,0h-4A7.55,7.55,0,0,0,68.65,90v17.88a.88.88,0,0,0,.88.88h4.71a.88.88,0,0,1-.88-.88V90A7.55,7.55,0,0,1,80.29,82.5Z"/><path class="cls-14" d="M81.33,45.39a13.28,13.28,0,0,1,7.21,0,6.5,6.5,0,0,0,1.92-4.69.7.7,0,0,0-.7-.7H80.1a.7.7,0,0,0-.7.7A6.5,6.5,0,0,0,81.33,45.39Z"/><path class="cls-7" d="M81.33,45.39a13.27,13.27,0,0,1,3.24-.49,6.58,6.58,0,0,1-1.47-4.19.7.7,0,0,1,.7-.7H80.1a.7.7,0,0,0-.7.7A6.5,6.5,0,0,0,81.33,45.39Z"/><path class="cls-13" d="M71.17,65.27v3.62c0,7.74,6.16,14.69,13.77,14.69s13.77-7,13.77-14.69V65.27Z"/><g class="cls-4"><path d="M74.85,68.88V65.27H71.17v3.62c0,7.74,6.16,14.69,13.77,14.69a12.37,12.37,0,0,0,1.84-.14C80,82.42,74.85,76,74.85,68.88Z"/></g><path class="cls-15" d="M70.73,59.56h28.4a2.68,2.68,0,0,1,.65.08c-.86-8.46-7.18-15-14.85-15s-14,6.56-14.85,15A2.67,2.67,0,0,1,70.73,59.56Z"/><path class="cls-7" d="M70.73,59.56h3.12c.82-7.71,6.18-13.84,13-14.8a13.31,13.31,0,0,0-1.88-.13c-7.67,0-14,6.56-14.85,15A2.68,2.68,0,0,1,70.73,59.56Z"/><path class="cls-14" d="M101.84,62.83a2.71,2.71,0,0,1-2.7,2.7H70.73a2.71,2.71,0,0,1-2.7-2.7v-.77a2.71,2.71,0,0,1,2.7-2.7h28.4a2.71,2.71,0,0,1,2.7,2.7Z"/><g class="cls-4"><path d="M71.74,62.83v-.77a2.71,2.71,0,0,1,2.7-2.7H70.73a2.71,2.71,0,0,0-2.7,2.7v.77a2.71,2.71,0,0,0,2.7,2.7h3.71A2.71,2.71,0,0,1,71.74,62.83Z"/></g><path class="cls-16" d="M92.4,103.07a.51.51,0,0,1-.51-.51V99.43H88.76a.51.51,0,0,1-.51-.51V96.27a.51.51,0,0,1,.51-.51h3.14V92.63a.51.51,0,0,1,.51-.51h2.65a.51.51,0,0,1,.51.51v3.13h3.14a.51.51,0,0,1,.51.51v2.65a.51.51,0,0,1-.51.51H95.57v3.13a.51.51,0,0,1-.51.51Z"/><path class="cls-12" d="M37.5,25.12H34.95a1.31,1.31,0,0,1,0-2.62H37.5a1.31,1.31,0,0,1,0,2.62Z"/><path class="cls-12" d="M55.38,25.12H41.29a1.31,1.31,0,0,1,0-2.62H55.38a1.31,1.31,0,0,1,0,2.62Z"/><path class="cls-12" d="M49,29.23H34.95a1.31,1.31,0,0,1,0-2.62H49a1.31,1.31,0,1,1,0,2.62Z"/></g></g></svg>