<svg xmlns="http://www.w3.org/2000/svg" viewBox="0 0 128.47 128.47"><defs><style>.cls-1{fill:none;stroke:#ec1c24;stroke-miterlimit:10;}.cls-2{fill:#f2f2f2;}.cls-3{fill:#dbdadf;}.cls-4{fill:#b8bfc1;}.cls-5{fill:#e6e6e8;}.cls-6{fill:#f7414b;}.cls-7{fill:#d82e3f;}.cls-8{fill:#f95868;}.cls-9{fill:#b0dcf7;}.cls-10{fill:#7ac1dd;}.cls-11{fill:#bbe6fc;}.cls-12{fill:#96d2ea;}.cls-13{fill:#f5f5f5;}.cls-14{fill:#c6a875;}.cls-15{fill:#b29166;}</style></defs><title>Asset 9</title><g id="Layer_2" data-name="Layer 2"><g id="Layer_1-2" data-name="Layer 1"><circle class="cls-1" cx="64.74" cy="64.74" r="63.24"/><circle class="cls-2" cx="63.24" cy="63.24" r="63.24"/><path class="cls-3" d="M81.7,38H77v3.67a1.66,1.66,0,0,1-1.66,1.66h-.69a1.66,1.66,0,0,1-1.66-1.66V38H68.54v3.67a1.66,1.66,0,0,1-1.66,1.66h-.69a1.66,1.66,0,0,1-1.66-1.66V38H42.45v3.67a1.66,1.66,0,0,1-1.67,1.66h-.69a1.66,1.66,0,0,1-1.67-1.66V38H34v3.67a1.66,1.66,0,0,1-1.66,1.66h-.69A1.66,1.66,0,0,1,30,41.66V38H25.27a2,2,0,0,0-2,2V86a2,2,0,0,0,2,2H78.54a22,22,0,0,1,0-5.24,14.9,14.9,0,0,1-5.36-7c-3.45-9.2,2.55-17.84,10.45-16.65V40A2,2,0,0,0,81.7,38Z"/><path class="cls-4" d="M26.58,86V40a2,2,0,0,1,2-2H25.27a2,2,0,0,0-2,2V86a2,2,0,0,0,2,2h3.28A2,2,0,0,1,26.58,86Z"/><path class="cls-5" d="M81.7,38H77v3.67a1.66,1.66,0,0,1-1.66,1.66h-.69a1.66,1.66,0,0,1-1.66-1.66V38H68.54v3.67a1.66,1.66,0,0,1-1.66,1.66h-.69a1.66,1.66,0,0,1-1.66-1.66V38H61.93a42.8,42.8,0,0,0,10.5,30.13c1-6.08,5.91-9.82,11.24-9V40A2,2,0,0,0,81.7,38Z"/><path class="cls-6" d="M81.7,38H25.27a2,2,0,0,0-2,2V51.25H83.67V40A2,2,0,0,0,81.7,38Z"/><path class="cls-7" d="M26.58,40a2,2,0,0,1,2-2H25.27a2,2,0,0,0-2,2V51.25h3.28Z"/><path class="cls-8" d="M81.7,38H61.93a43,43,0,0,0,1.47,13.26H83.67V40A2,2,0,0,0,81.7,38Z"/><path class="cls-9" d="M94.71,58.85h-.45a11.51,11.51,0,0,0-5.88,2,11.44,11.44,0,0,0-5.88-2,9.71,9.71,0,0,0-6.83,2.52c-5.82,5.39-4.35,16.33,2.73,21.24-1.26,9.76,4.68,18.34,5.06,11.2,0-.49,0-.85,0-1.15.08-2.79.75-5.92,3.42-6.7h0a4.94,4.94,0,0,1,2.93,0h0c5,1.44,2.37,9.67,4.36,10.4,1.72.74,5.14-6.1,4.15-13.76C108.49,75.57,105.82,58.85,94.71,58.85Z"/><path class="cls-10" d="M81.51,82.43a1.65,1.65,0,0,0-.6-1.5h0c-7.2-5.71-7.66-17.64-.35-22-7,1.16-10.44,9.41-7.37,17a14.84,14.84,0,0,0,5.22,6.66c-1.29,9.92,4.91,18.72,5.08,10.71A20.67,20.67,0,0,1,81.51,82.43Z"/><path class="cls-11" d="M94.71,58.85h-.45a11.51,11.51,0,0,0-5.88,2,11.44,11.44,0,0,0-5.88-2,9.71,9.71,0,0,0-6.83,2.52,11.46,11.46,0,0,0-3.41,6.56A42.89,42.89,0,0,0,98.6,82.43C108.48,75.23,105.69,58.85,94.71,58.85Z"/><path class="cls-12" d="M75.43,71.23c-.69-4.75,1-9.81,5.13-12.25a9.49,9.49,0,0,0-5.13,2.63,11.52,11.52,0,0,0-3.16,6.32A43.22,43.22,0,0,0,75.43,71.23Z"/><path class="cls-13" d="M72.4,59.54H31a1.23,1.23,0,0,1,0-2.46H72.4a1.23,1.23,0,1,1,0,2.46Z"/><path class="cls-13" d="M69.06,65.13H31a1.23,1.23,0,1,1,0-2.46h38a1.23,1.23,0,1,1,0,2.46Z"/><path class="cls-13" d="M68,70.71H31a1.23,1.23,0,1,1,0-2.46H68a1.23,1.23,0,1,1,0,2.46Z"/><path class="cls-13" d="M68.73,76.3H31a1.23,1.23,0,0,1,0-2.46H68.73a1.23,1.23,0,0,1,0,2.46Z"/><path class="cls-13" d="M71.19,81.89H31a1.23,1.23,0,0,1,0-2.46H71.19a1.23,1.23,0,1,1,0,2.46Z"/><path class="cls-14" d="M34,41.66a1.66,1.66,0,0,1-1.66,1.66h-.69A1.66,1.66,0,0,1,30,41.66V33.2a1.66,1.66,0,0,1,1.66-1.66h.69A1.66,1.66,0,0,1,34,33.2Z"/><path class="cls-14" d="M42.45,41.66a1.66,1.66,0,0,1-1.67,1.66h-.69a1.66,1.66,0,0,1-1.67-1.66V33.2a1.66,1.66,0,0,1,1.67-1.66h.69a1.66,1.66,0,0,1,1.67,1.66Z"/><path class="cls-14" d="M68.54,41.66a1.66,1.66,0,0,1-1.66,1.66h-.69a1.66,1.66,0,0,1-1.66-1.66V33.2a1.66,1.66,0,0,1,1.66-1.66h.69a1.66,1.66,0,0,1,1.66,1.66Z"/><path class="cls-14" d="M77,41.66a1.66,1.66,0,0,1-1.66,1.66h-.69a1.66,1.66,0,0,1-1.66-1.66V33.2a1.67,1.67,0,0,1,1.66-1.66h.69A1.66,1.66,0,0,1,77,33.2Z"/><path class="cls-15" d="M32,41.66V33.2a1.66,1.66,0,0,1,1-1.53,3,3,0,0,0-1.35-.14A1.66,1.66,0,0,0,30,33.2v8.46a1.66,1.66,0,0,0,1.66,1.66A3,3,0,0,0,33,43.19,1.67,1.67,0,0,1,32,41.66Z"/><path class="cls-15" d="M40.43,41.66V33.2a1.66,1.66,0,0,1,1-1.53,3,3,0,0,0-1.35-.14,1.66,1.66,0,0,0-1.67,1.66v8.46a1.66,1.66,0,0,0,1.67,1.66h.69a1.66,1.66,0,0,0,.66-.14A1.67,1.67,0,0,1,40.43,41.66Z"/><path class="cls-15" d="M66.53,41.66V33.2a1.66,1.66,0,0,1,1-1.53,3,3,0,0,0-1.35-.14,1.66,1.66,0,0,0-1.66,1.66v8.46a1.66,1.66,0,0,0,1.66,1.66,3,3,0,0,0,1.35-.14A1.67,1.67,0,0,1,66.53,41.66Z"/><path class="cls-15" d="M74.94,41.66V33.2a1.66,1.66,0,0,1,1-1.53,3,3,0,0,0-1.35-.14,1.66,1.66,0,0,0-1.66,1.66v8.46a1.67,1.67,0,0,0,1.66,1.66,3,3,0,0,0,1.35-.14A1.67,1.67,0,0,1,74.94,41.66Z"/></g></g></svg>