<svg xmlns="http://www.w3.org/2000/svg" viewBox="0 0 128.47 128.47"><defs><style>.cls-1{fill:none;stroke:#ec1c24;stroke-miterlimit:10;}.cls-2{fill:#f2f2f2;}.cls-3{fill:#c2b8b9;}.cls-4{fill:#463836;}.cls-5{fill:#ffd24d;}.cls-6{fill:#f14742;}</style></defs><title>Asset 38</title><g id="Layer_2" data-name="Layer 2"><g id="Layer_1-2" data-name="Layer 1"><circle class="cls-1" cx="64.74" cy="64.74" r="63.24"/><circle class="cls-2" cx="63.24" cy="63.24" r="63.24"/><path class="cls-3" d="M71.19,44.87a6.28,6.28,0,0,0-6.26-6.26H36.23A6.28,6.28,0,0,0,30,44.87v8l20.61,4,20.61-4Z"/><path class="cls-3" d="M30,102.18a6.28,6.28,0,0,0,6.26,6.26h28.7a6.28,6.28,0,0,0,6.26-6.26v-8l-20.61-4L30,94.16Z"/><rect class="cls-4" x="29.96" y="52.89" width="41.23" height="41.27"/><path class="cls-5" d="M98,40.79C98,29,86,19.53,71.23,19.53S44.46,29,44.46,40.79C44.46,51.29,54,60,66.61,61.74h0a13.27,13.27,0,0,1-3.66,11.49,13.13,13.13,0,0,0,13-11.49h0C88.44,60,98,51.29,98,40.79Z"/><path class="cls-6" d="M67.06,40.63A6.43,6.43,0,0,1,66.64,43a6,6,0,0,1-1.17,1.91,5.45,5.45,0,0,1-4.07,1.76h-5v-12h5a5.37,5.37,0,0,1,2.27.48,5.62,5.62,0,0,1,1.79,1.29,5.87,5.87,0,0,1,1.17,1.91A6.45,6.45,0,0,1,67.06,40.63Zm-2.36-.06A4.43,4.43,0,0,0,64.45,39a3.9,3.9,0,0,0-.78-1.31,3.61,3.61,0,0,0-1.25-.89,4.16,4.16,0,0,0-1.67-.32h-2v8.2h2a4.19,4.19,0,0,0,1.64-.31,3.56,3.56,0,0,0,1.24-.86,3.85,3.85,0,0,0,.79-1.29A4.86,4.86,0,0,0,64.7,40.57Z"/><path class="cls-6" d="M79.39,34.63v6.52A6.76,6.76,0,0,1,79,43.38a5.36,5.36,0,0,1-1,1.81,4.85,4.85,0,0,1-1.67,1.22,5.9,5.9,0,0,1-4.47,0,5,5,0,0,1-1.69-1.19,5.27,5.27,0,0,1-1.07-1.79,6.41,6.41,0,0,1-.38-2.21V34.63H71v6.61a4.22,4.22,0,0,0,.2,1.3,3.12,3.12,0,0,0,.57,1.06,2.67,2.67,0,0,0,.94.71,3,3,0,0,0,1.28.26,3.28,3.28,0,0,0,1.33-.25,2.49,2.49,0,0,0,.93-.69,3,3,0,0,0,.56-1A4.41,4.41,0,0,0,77,41.26V34.63Z"/><path class="cls-6" d="M89.26,46.64H81.34v-12h7.93v1.92H83.62v2.87h5.57v1.88H83.62v3.3h5.64Z"/></g></g></svg>