<svg xmlns="http://www.w3.org/2000/svg" xmlns:xlink="http://www.w3.org/1999/xlink" viewBox="0 0 128.47 128.47"><defs><style>.cls-1,.cls-2{fill:none;}.cls-2{stroke:#ec1c24;stroke-miterlimit:10;}.cls-3{fill:#f2f2f2;}.cls-4{fill:#6e76e5;}.cls-5{clip-path:url(#clip-path);}.cls-6{fill:#00eed1;}</style><clipPath id="clip-path"><rect class="cls-1" x="29.87" y="29.79" width="68.23" height="68.4"/></clipPath></defs><title>Asset 32</title><g id="Layer_2" data-name="Layer 2"><g id="Layer_1-2" data-name="Layer 1"><circle class="cls-2" cx="64.74" cy="64.74" r="63.24"/><circle class="cls-3" cx="63.24" cy="63.24" r="63.24"/><path class="cls-4" d="M42.26,80.37V65.22a7.57,7.57,0,0,0,0,15.14Zm0,0"/><path class="cls-4" d="M42.26,82.88A12.4,12.4,0,0,0,29.87,95.26V98H54.64V95.26A12.4,12.4,0,0,0,42.26,82.88Zm0,0"/><g class="cls-5"><path class="cls-4" d="M85.76,80.37V65.22a7.57,7.57,0,0,0,0,15.14Zm0,0"/><path class="cls-4" d="M85.76,82.88A12.4,12.4,0,0,0,73.37,95.26V98H98.14V95.26A12.4,12.4,0,0,0,85.76,82.88Zm0,0"/></g><path class="cls-4" d="M64,44.93V29.79a7.57,7.57,0,0,0,0,15.14Zm0,0"/><path class="cls-4" d="M49.83,72.8a7.58,7.58,0,0,0-7.57-7.57V80.37a7.58,7.58,0,0,0,7.57-7.57Zm0,0"/><path class="cls-4" d="M93.33,72.8a7.58,7.58,0,0,0-7.57-7.57V80.37a7.58,7.58,0,0,0,7.57-7.57Zm0,0"/><path class="cls-4" d="M71.58,37.36A7.58,7.58,0,0,0,64,29.79V44.93a7.58,7.58,0,0,0,7.57-7.57Zm0,0"/><path class="cls-4" d="M76.39,59.83a12.39,12.39,0,0,0-24.77,0v2.76H76.39V59.83Zm0,0"/><path class="cls-6" d="M66.77,75.7v-9H61.25v9l-7.79,4.5L56.22,85,64,80.48,71.8,85l2.76-4.78Zm0,0"/></g></g></svg>