<svg xmlns="http://www.w3.org/2000/svg" viewBox="0 0 128.47 128.47"><defs><style>.cls-1{fill:none;stroke:#ec1c24;stroke-miterlimit:10;}.cls-2{fill:#f2f2f2;}.cls-3{fill:#2e3333;}.cls-4{fill:#646b79;}.cls-5{fill:#6eb1e1;}.cls-6{fill:#fffde1;}.cls-7{fill:#71d456;}.cls-8{fill:#dededf;}.cls-9{fill:#fbd303;}.cls-10{fill:#d30922;}.cls-11{fill:#fbda35;}.cls-12{fill:#f7ba35;}</style></defs><title>Asset 27</title><g id="Layer_2" data-name="Layer 2"><g id="Layer_1-2" data-name="Layer 1"><circle class="cls-1" cx="64.74" cy="64.74" r="63.24"/><circle class="cls-2" cx="63.24" cy="63.24" r="63.24"/><path class="cls-3" d="M32,78.48V85a2,2,0,0,0,2,2H89.15a2,2,0,0,0,2-2V78.48Z"/><path class="cls-4" d="M91.2,46.13a2,2,0,0,0-2-2H34.09a2,2,0,0,0-2,2V78.48H91.2Z"/><rect class="cls-5" x="35.03" y="46.81" width="53.24" height="28.95"/><rect class="cls-4" x="55.29" y="87.06" width="12.72" height="7.22"/><path class="cls-3" d="M69.84,94.28H53.4a3.45,3.45,0,0,0-3.45,3.45h23.4A3.46,3.46,0,0,0,69.84,94.28Z"/><rect class="cls-6" x="43.3" y="33.25" width="36.64" height="42.5"/><rect class="cls-7" x="47.64" y="37.54" width="14.13" height="1.88"/><rect class="cls-8" x="47.64" y="42.78" width="27.9" height="1.88"/><rect class="cls-8" x="47.64" y="48.06" width="27.9" height="1.88"/><rect class="cls-8" x="59.32" y="53.35" width="16.28" height="1.88"/><rect class="cls-8" x="59.32" y="58.64" width="16.28" height="1.88"/><rect class="cls-8" x="59.32" y="63.87" width="16.28" height="1.88"/><rect class="cls-8" x="59.32" y="69.16" width="16.28" height="1.88"/><path class="cls-9" d="M49.93,60.3V59a1.13,1.13,0,0,0-.29-.9,1,1,0,0,0-.7-.24,1.5,1.5,0,0,0-.52.1,1.87,1.87,0,0,0-.45.23,1.72,1.72,0,0,1-.36-.38,1.25,1.25,0,0,1-.19-.74,1.12,1.12,0,0,1,.52-.88,2.52,2.52,0,0,1,1.54-.4,3.54,3.54,0,0,1,1,.15,2.43,2.43,0,0,1,.92.5,2.7,2.7,0,0,1,.67.93,3.45,3.45,0,0,1,.27,1.44v1.5h4.32a.81.81,0,0,1,.59.22,1,1,0,0,1,.23.72,1.63,1.63,0,0,1-.08.52,3,3,0,0,1-.16.39h-4.9v3.13a2.09,2.09,0,0,0,.36,1.35,1.54,1.54,0,0,0,2,.13,1,1,0,0,0,.31-.7.63.63,0,0,0-.2-.55.75.75,0,0,0-.44-.14H54.1a2,2,0,0,1-.12-.3,1.34,1.34,0,0,1,.27-1.26,1.38,1.38,0,0,1,1-.31,2.22,2.22,0,0,1,1.6.59,2.41,2.41,0,0,1,.62,1.81,3.05,3.05,0,0,1-.27,1.27,3.09,3.09,0,0,1-.75,1,3.41,3.41,0,0,1-1.18.68,4.71,4.71,0,0,1-1.56.24,3.4,3.4,0,0,1-3.79-3.71V62.15h-1a.81.81,0,0,1-.59-.22,1,1,0,0,1-.23-.72,1.62,1.62,0,0,1,.08-.52,3,3,0,0,1,.16-.39Z"/><circle class="cls-10" cx="80.31" cy="45.85" r="15.62"/><circle class="cls-8" cx="61.62" cy="82.66" r="1.36"/><polygon class="cls-11" points="72.52 34.18 78.11 41.58 73.07 41.58 85.38 57.53 82.49 45.92 88.09 45.92 79.38 34.18 72.52 34.18"/><polygon class="cls-12" points="88.09 45.92 79.38 34.18 75.95 34.18 83.08 43.79 78.11 43.8 85.38 57.53 82.49 45.92 88.09 45.92"/></g></g></svg>