<svg xmlns="http://www.w3.org/2000/svg" viewBox="0 0 128.47 128.47"><defs><style>.cls-1{fill:none;stroke:#ec1c24;stroke-miterlimit:10;}.cls-2{fill:#f2f2f2;}.cls-3{fill:#463836;}.cls-4{fill:#6fc5d6;}.cls-5{fill:#ffd24d;}.cls-6{fill:#f99d88;}.cls-7{fill:#fad4c6;}</style></defs><title>Asset 42</title><g id="Layer_2" data-name="Layer 2"><g id="Layer_1-2" data-name="Layer 1"><circle class="cls-1" cx="64.74" cy="64.74" r="63.24"/><circle class="cls-2" cx="63.24" cy="63.24" r="63.24"/><path class="cls-3" d="M95.89,24.7l3.48,23.12L95.89,70.95H32.08L28.6,47.82,32.08,24.7Z"/><path class="cls-4" d="M32.08,24.7V70.95H32a7.14,7.14,0,0,1-7.12-7.12v-32A7.14,7.14,0,0,1,32,24.7Z"/><path class="cls-4" d="M96,24.7a7.14,7.14,0,0,1,7.12,7.12v32A7.14,7.14,0,0,1,96,70.95h-.11V24.7Z"/><path class="cls-5" d="M80.28,48.68l.05-.06,0,0,0-.07,0,0,0-.08,0,0,0-.09v0l0-.1v0s0-.07,0-.11v0a1.3,1.3,0,0,0,0-.28v0s0-.07,0-.11v0l0-.1v0l0-.09,0,0,0-.08,0,0,0-.07,0,0L80.28,47l0,0-.06-.06,0,0-3.65-3.2a1.3,1.3,0,1,0-1.72,2l1,.92H61.55a1.3,1.3,0,0,0,0,2.61H75.83l-1,.92a1.3,1.3,0,0,0,1.72,2l3.65-3.2,0,0,.06-.06Z"/><path class="cls-6" d="M79.3,70.95l-3.83,3.48-3.83-3.48a3.83,3.83,0,0,1,7.66,0Z"/><path class="cls-6" d="M71.64,70.95l-3.83,3.48L64,70.95a3.83,3.83,0,1,1,7.66,0Z"/><path class="cls-6" d="M64,70.95l-3.83,3.48-3.83-3.48a3.83,3.83,0,1,1,7.66,0Z"/><path class="cls-7" d="M56.33,70.95V48.32a3.83,3.83,0,1,0-7.66,0V84.92A15.39,15.39,0,0,0,55,97.43v5.84H73V97.43a15.39,15.39,0,0,0,6.3-12.51v-14h-23Z"/></g></g></svg>