<svg xmlns="http://www.w3.org/2000/svg" viewBox="0 0 128.47 128.47"><defs><style>.cls-1{fill:none;stroke:#ec1c24;stroke-miterlimit:10;}.cls-2{fill:#f2f2f2;}.cls-3{fill:#ef545d;}.cls-4{fill:#dd4756;}.cls-5{fill:#ccc3a8;}.cls-6{fill:#ce384e;}.cls-7{fill:#0071ce;}.cls-8{fill:#ffb92e;}.cls-9{fill:#c9b585;}.cls-10{fill:#0067ad;}.cls-11{fill:#ef9a1d;}.cls-12{fill:#f9d19b;}.cls-13{fill:#f46e7b;}.cls-14{fill:#0098ed;}.cls-15{fill:#e0d7c1;}</style></defs><title>Asset 20</title><g id="Layer_2" data-name="Layer 2"><g id="Layer_1-2" data-name="Layer 1"><circle class="cls-1" cx="64.74" cy="64.74" r="63.24"/><circle class="cls-2" cx="63.24" cy="63.24" r="63.24"/><path class="cls-3" d="M61.87,29.07H42.82a.86.86,0,0,0-.86.86V41.57a.86.86,0,0,0,.86.86H61.87a.86.86,0,0,0,.86-.86V29.94A.86.86,0,0,0,61.87,29.07Z"/><path class="cls-4" d="M45,41.57V29.94a.86.86,0,0,1,.86-.86h-3a.86.86,0,0,0-.86.86V41.57a.86.86,0,0,0,.86.86h3A.86.86,0,0,1,45,41.57Z"/><path class="cls-5" d="M87.62,54.58H64.05a1.32,1.32,0,0,0-1.32,1.32V97.58a1.32,1.32,0,0,0,1.32,1.32H87.62a1.32,1.32,0,0,0,1.32-1.32V55.9A1.32,1.32,0,0,0,87.62,54.58Z"/><path class="cls-3" d="M98,85.54H79a.86.86,0,0,0-.86.86V98a.86.86,0,0,0,.86.86H98A.86.86,0,0,0,98.9,98V86.4A.86.86,0,0,0,98,85.54Z"/><path class="cls-4" d="M61.87,29.07H42.82a.86.86,0,0,0-.86.86v3.84H62.73V29.94A.86.86,0,0,0,61.87,29.07Z"/><path class="cls-6" d="M45,29.94a.86.86,0,0,1,.86-.86h-3a.86.86,0,0,0-.86.86v3.84h3Z"/><path class="cls-7" d="M57.81,98.9h3.1a1.82,1.82,0,0,0,1.82-1.82V72.49a1.82,1.82,0,0,0-1.82-1.82h-30a1.82,1.82,0,0,0-1.82,1.82V97.08A1.82,1.82,0,0,0,30.9,98.9h23"/><path class="cls-8" d="M62.73,44.25a1.82,1.82,0,0,0-1.82-1.82h-30a1.82,1.82,0,0,0-1.82,1.82V68.84a1.82,1.82,0,0,0,1.82,1.82h30a1.82,1.82,0,0,0,1.82-1.82Z"/><path class="cls-9" d="M65.77,97.58V55.9a1.32,1.32,0,0,1,1.32-1.32h-3a1.32,1.32,0,0,0-1.32,1.32V97.58a1.32,1.32,0,0,0,1.32,1.32h3A1.32,1.32,0,0,1,65.77,97.58Z"/><path class="cls-4" d="M81.16,98V86.4a.86.86,0,0,1,.86-.86H79a.86.86,0,0,0-.86.86V98a.86.86,0,0,0,.86.86h3A.86.86,0,0,1,81.16,98Z"/><path class="cls-10" d="M32.11,97.08V72.49a1.82,1.82,0,0,1,1.82-1.82h-3a1.82,1.82,0,0,0-1.82,1.82V97.08A1.82,1.82,0,0,0,30.9,98.9h3A1.82,1.82,0,0,1,32.11,97.08Z"/><path class="cls-11" d="M32.11,68.84V44.25a1.82,1.82,0,0,1,1.82-1.82h-3a1.82,1.82,0,0,0-1.82,1.82V68.84a1.82,1.82,0,0,0,1.82,1.82h3A1.82,1.82,0,0,1,32.11,68.84Z"/><path class="cls-12" d="M58,63.22H51.44a1.14,1.14,0,0,1,0-2.28H58a1.14,1.14,0,0,1,0,2.28Z"/><path class="cls-13" d="M92.14,95.55H85.62a1.14,1.14,0,0,1,0-2.28h6.53a1.14,1.14,0,0,1,0,2.28Z"/><path class="cls-13" d="M55.87,39.08H49.34a1.14,1.14,0,0,1,0-2.28h6.53a1.14,1.14,0,0,1,0,2.28Z"/><path class="cls-12" d="M58,67H51.44a1.14,1.14,0,0,1,0-2.28H58A1.14,1.14,0,1,1,58,67Z"/><path class="cls-14" d="M58,91.15H51.44a1.14,1.14,0,1,1,0-2.28H58a1.14,1.14,0,0,1,0,2.28Z"/><path class="cls-14" d="M58,94.94H51.44a1.14,1.14,0,1,1,0-2.28H58a1.14,1.14,0,0,1,0,2.28Z"/><path class="cls-4" d="M98,85.54H79a.86.86,0,0,0-.86.86v3.84H98.9V86.4A.86.86,0,0,0,98,85.54Z"/><path class="cls-6" d="M81.16,86.4a.86.86,0,0,1,.86-.86H79a.86.86,0,0,0-.86.86v3.84h3Z"/><rect class="cls-12" x="42.02" y="50.59" width="3.88" height="11.92" rx="1.94" ry="1.94"/><rect class="cls-12" x="41.97" y="50.59" width="3.88" height="11.92" rx="1.94" ry="1.94" transform="translate(100.46 12.65) rotate(90)"/><rect class="cls-14" x="42.02" y="77.31" width="3.88" height="11.92" rx="1.94" ry="1.94"/><rect class="cls-14" x="41.97" y="77.31" width="3.88" height="11.92" rx="1.94" ry="1.94" transform="translate(127.17 39.36) rotate(90)"/><rect class="cls-15" x="74.9" y="69.41" width="3.88" height="11.92" rx="1.94" ry="1.94"/><rect class="cls-15" x="74.84" y="69.41" width="3.88" height="11.92" rx="1.94" ry="1.94" transform="translate(152.15 -1.41) rotate(90)"/></g></g></svg>