<svg xmlns="http://www.w3.org/2000/svg" xmlns:xlink="http://www.w3.org/1999/xlink" viewBox="0 0 86.98 86.76"><defs><style>.cls-1,.cls-2{fill:none;}.cls-2{stroke:#ec2027;stroke-miterlimit:10;stroke-width:0.5px;}.cls-3{fill:#f2f2f2;}.cls-4{fill:#f7f1e6;}.cls-5{fill:#2b3237;}.cls-6{fill:#e6a123;}.cls-7{fill:#d43d21;}.cls-8{fill:#e0dcd3;}.cls-9{clip-path:url(#clip-path);}.cls-10{fill:#e74424;}.cls-11{fill:#1b2327;}</style><clipPath id="clip-path"><rect class="cls-1" x="27.32" y="19.42" width="18.95" height="16"/></clipPath></defs><title>Asset 2</title><g id="Layer_2" data-name="Layer 2"><g id="Layer_1-2" data-name="Layer 1"><rect class="cls-2" x="0.87" y="0.66" width="85.86" height="85.86" rx="42.93" ry="42.93" transform="translate(-17.99 43.74) rotate(-45)"/><rect class="cls-3" width="85.86" height="85.86" rx="42.93" ry="42.93" transform="translate(-17.78 42.93) rotate(-45)"/><path class="cls-4" d="M65.53,52.18a2,2,0,0,0,1.54-1.94V50a2,2,0,0,0-2-2H59.66a2,2,0,0,0-2,2v.2a2,2,0,0,0,1.54,1.94H30.29v3.93H67.82V52.18Zm0,0"/><path class="cls-5" d="M69.07,37.31H52.55a1.25,1.25,0,0,0-1.25,1.25v4.8H52.5V39.8H67.82v16.3H30.29V44.82a1.34,1.34,0,1,0-2.68,0V66.23a1.34,1.34,0,1,0,2.68,0v-7.4H67.82v7.5a1.25,1.25,0,0,0,2.49,0V38.56a1.25,1.25,0,0,0-1.25-1.25Zm0,0"/><path class="cls-6" d="M51,43.35a1.41,1.41,0,0,0,0,2.82h1.66a1.41,1.41,0,0,0,0-2.82Zm0,0"/><path class="cls-7" d="M38,44h1.92v1.92a1.21,1.21,0,0,0,1.21,1.21h.81a1.21,1.21,0,0,0,1.21-1.21V44h1.92a1.21,1.21,0,0,0,1.21-1.21V42a1.21,1.21,0,0,0-1.21-1.21H43.14V38.84a1.21,1.21,0,0,0-1.21-1.21h-.81a1.21,1.21,0,0,0-1.21,1.21v1.92H38A1.21,1.21,0,0,0,36.8,42v.81A1.21,1.21,0,0,0,38,44Zm0,0"/><path class="cls-8" d="M41,20.37a.9.9,0,0,0-.9-.9H33.94a.9.9,0,0,0-.9.9v2.41h8Zm-2.89,1a.28.28,0,0,1-.28.28h-.44v.44a.28.28,0,0,1-.28.28h-.19a.28.28,0,0,1-.28-.28v-.44h-.44a.28.28,0,0,1-.28-.28v-.19a.28.28,0,0,1,.28-.28h.44v-.44a.28.28,0,0,1,.28-.28h.19a.28.28,0,0,1,.28.28v.44h.44a.28.28,0,0,1,.28.28Zm0,0"/><g class="cls-9"><path class="cls-10" d="M37.83,20.95h-.44v-.44a.28.28,0,0,0-.28-.28h-.19a.28.28,0,0,0-.28.28v.44h-.44a.28.28,0,0,0-.28.28v.19a.28.28,0,0,0,.28.28h.44v.44a.28.28,0,0,0,.28.28h.19a.28.28,0,0,0,.28-.28v-.44h.44a.28.28,0,0,0,.28-.28v-.19a.28.28,0,0,0-.28-.28Zm0,0"/><path class="cls-10" d="M45.38,22.78H28.22a.9.9,0,0,0-.9.9V34.46a.9.9,0,0,0,.9.9H45.38a.9.9,0,0,0,.9-.9V23.68a.9.9,0,0,0-.9-.9ZM44.66,25a.7.7,0,1,1-.7.7.7.7,0,0,1,.7-.7Zm0,2.14a.7.7,0,1,1-.7.7.7.7,0,0,1,.7-.7ZM42.57,25a.7.7,0,1,1-.7.7.7.7,0,0,1,.7-.7Zm0,2.14a.7.7,0,1,1-.7.7.7.7,0,0,1,.7-.7Zm-1.73,3.07V33.1a.67.67,0,0,1-.67.67H29.62a.67.67,0,0,1-.67-.67V25a.67.67,0,0,1,.67-.67H40.17a.67.67,0,0,1,.67.67Zm3.92,3.61H42.4a.54.54,0,1,1,0-1.08h2.36a.54.54,0,0,1,0,1.08Zm.05-1.53H42.45a.54.54,0,1,1,0-1.08h2.36a.54.54,0,1,1,0,1.08Zm.05-1.53H42.51a.54.54,0,0,1,0-1.08h2.36a.54.54,0,0,1,0,1.08Zm0,0"/></g><path class="cls-4" d="M34.68,31.19l.21-1h-.27Zm0,0"/><path class="cls-4" d="M31.21,28.08a.15.15,0,0,1,.29,0l.29,1.75h.49l.42-1.76a.15.15,0,0,1,.15-.12.15.15,0,0,1,.15.12l.37,1.76h.14l.6-3.28a.15.15,0,0,1,.3,0l.2,3.26H35l.28-1.35a.15.15,0,0,1,.3,0l.16,1.34h.16l.63-3.27a.15.15,0,0,1,.3,0L37,29.86h.3l.18-.94a.15.15,0,0,1,.29,0l.25.95h.18l.14-.55a.15.15,0,0,1,.28,0l.27.57h2V25a.67.67,0,0,0-.67-.67H29.62a.67.67,0,0,0-.67.67v4.81h1.66Zm0,0"/><path class="cls-4" d="M33.44,30.23v-.06h0Zm0,0"/><path class="cls-4" d="M32,31.07l.22-.91h-.36Zm0,0"/><path class="cls-4" d="M38.09,30.22v-.06h0Zm0,0"/><path class="cls-4" d="M35.75,30.37l0-.21h-.06Zm0,0"/><path class="cls-4" d="M37.05,31l.16-.84H37Zm0,0"/><path class="cls-4" d="M31.3,28.75l-.37,1.1h.55Zm0,0"/><path class="cls-4" d="M34.17,27.86l-.36,2h.49Zm0,0"/><path class="cls-4" d="M35.34,29.48l-.08.37h.12Zm0,0"/><path class="cls-4" d="M40.51,30.17H38.42l-.18.7a.15.15,0,0,1-.15.11h0a.15.15,0,0,1-.15-.11l-.18-.7h-.24l-.4,2.05a.15.15,0,0,1-.3,0l-.13-2h-.6l-.23,1.22a.15.15,0,0,1-.15.12.15.15,0,0,1-.14-.13l-.14-1.21H35.2l-.45,2.21a.15.15,0,0,1-.15.12h0a.15.15,0,0,1-.14-.14l-.13-2.18h-.56l-.16.88a.15.15,0,0,1-.15.12h0A.15.15,0,0,1,33.3,31l-.18-.88h-.6l-.41,1.71A.15.15,0,0,1,32,32a.15.15,0,0,1-.14-.13l-.28-1.7H28.95V33.1a.67.67,0,0,0,.67.67H40.17a.67.67,0,0,0,.67-.67V30.16h-.33Zm0,0"/><path class="cls-4" d="M37.63,29.63l0,.23h.1Zm0,0"/><path class="cls-4" d="M36.55,27.81l-.39,2.05h.52Zm0,0"/><path class="cls-4" d="M38.51,29.8l0,.06h0Zm0,0"/><path class="cls-4" d="M32.84,28.82l-.25,1h.46Zm0,0"/><path class="cls-11" d="M40.84,29.85H28.95v.31H40.84Zm0,0"/><path class="cls-11" d="M38.88,29.86h0Zm0,0"/><path class="cls-5" d="M38.87,29.85l-.27-.57a.15.15,0,0,0-.28,0l-.14.55-.08.31v0L38,29.86l-.25-.95a.15.15,0,0,0-.29,0l-.18.94-.06.31-.16.84L37,30.17l0-.31-.21-3.25a.15.15,0,0,0-.3,0l-.63,3.27-.06.31,0,.21,0-.21,0-.31-.16-1.34a.15.15,0,0,0-.3,0L35,29.86l-.06.31-.21,1-.06-1,0-.31-.2-3.26a.15.15,0,0,0-.3,0l-.6,3.28-.07.37v-.06l-.06-.31L33,28.09a.15.15,0,0,0-.15-.12.15.15,0,0,0-.15.12l-.42,1.76-.07.31-.22.91-.15-.91-.05-.31L31.5,28.1a.15.15,0,0,0-.29,0l-.6,1.78H28.95v.31h1.76a.17.17,0,0,0,.15-.11l.07-.2.37-1.1.18,1.1.05.31.28,1.7A.15.15,0,0,0,32,32a.15.15,0,0,0,.15-.12l.41-1.71.07-.31.25-1,.22,1,.06.31.18.88a.15.15,0,0,0,.15.12h0a.15.15,0,0,0,.15-.12l.16-.88.06-.31.36-2,.12,2,0,.31.13,2.18a.15.15,0,0,0,.14.14h0a.15.15,0,0,0,.15-.12l.45-2.21.06-.31.08-.37,0,.37,0,.31.14,1.21a.15.15,0,0,0,.14.13.15.15,0,0,0,.15-.12l.23-1.22.06-.31.39-2.05.13,2.05,0,.31.13,2a.15.15,0,0,0,.3,0l.4-2.05.06-.31,0-.23.06.23.08.31.18.7a.15.15,0,0,0,.15.11h0a.15.15,0,0,0,.15-.11l.18-.7.08-.31,0-.06,0,.06.1.22a.15.15,0,0,0,.14.09h2.06v-.31Zm0,0"/><path class="cls-4" d="M43.28,25.66a.7.7,0,1,1-.7-.7.7.7,0,0,1,.7.7Zm0,0"/><path class="cls-4" d="M45.36,25.66a.7.7,0,1,1-.7-.7.7.7,0,0,1,.7.7Zm0,0"/><path class="cls-4" d="M43.28,27.8a.7.7,0,1,1-.7-.7.7.7,0,0,1,.7.7Zm0,0"/><path class="cls-4" d="M45.36,27.8a.7.7,0,1,1-.7-.7.7.7,0,0,1,.7.7Zm0,0"/><path class="cls-11" d="M44.87,29.65H42.51a.54.54,0,0,0,0,1.08h2.36a.54.54,0,0,0,0-1.08Zm0,0"/><path class="cls-11" d="M44.82,31.17H42.45a.54.54,0,1,0,0,1.08h2.36a.54.54,0,1,0,0-1.08Zm0,0"/><path class="cls-11" d="M44.76,32.7H42.4a.54.54,0,1,0,0,1.08h2.36a.54.54,0,0,0,0-1.08Zm0,0"/></g></g></svg>