<svg xmlns="http://www.w3.org/2000/svg" viewBox="0 0 128.47 128.47"><defs><style>.cls-1{fill:none;stroke:#ec1c24;stroke-miterlimit:10;}.cls-2{fill:#f2f2f2;}.cls-3{fill:#324a5e;}.cls-4{fill:#fff;}.cls-5{fill:#e6e9ee;}.cls-6{fill:#ff7058;}.cls-7{fill:#ffd05b;}.cls-8{fill:#84dbff;}.cls-9{fill:#40596b;}.cls-10{fill:#e4eaef;}.cls-11{fill:#334a5e;}.cls-12{fill:#64798a;}.cls-13{fill:#ebf0f3;}.cls-14{fill:#3a556a;}.cls-15{fill:#e56353;}</style></defs><title>Asset 39</title><g id="Layer_2" data-name="Layer 2"><g id="Layer_1-2" data-name="Layer 1"><circle class="cls-1" cx="64.74" cy="64.74" r="63.24"/><circle class="cls-2" cx="63.24" cy="63.24" r="63.24"/><path class="cls-3" d="M72.94,89,30.1,90.75a.79.79,0,0,1-.82-.76l-2.16-54.3a.79.79,0,0,1,.76-.82l42.85-1.7a.79.79,0,0,1,.82.76l2.16,54.3A.82.82,0,0,1,72.94,89Z"/><polygon class="cls-4" points="31.59 37.94 33.35 82.12 62.8 80.95 62.55 74.73 68.77 74.48 67.27 36.52 31.59 37.94"/><polygon class="cls-5" points="62.8 80.95 68.77 74.48 62.55 74.73 62.8 80.95"/><path class="cls-6" d="M52.73,32.1l0-1.23a3.5,3.5,0,0,0-7,.28l0,1.23-6.17.24.28,7.16L59.2,39l-.28-7.16Z"/><circle class="cls-7" cx="49.18" cy="31.03" r="1.75" transform="translate(-1.19 1.98) rotate(-2.27)"/><rect class="cls-8" x="37" y="48.87" width="4" height="1.85" transform="matrix(1, -0.04, 0.04, 1, -1.94, 1.59)"/><rect class="cls-5" x="43.48" y="48.31" width="19.35" height="1.85" transform="translate(-1.91 2.15) rotate(-2.27)"/><rect class="cls-8" x="37.23" y="54.64" width="4" height="1.85" transform="translate(-2.17 1.6) rotate(-2.27)"/><rect class="cls-5" x="43.71" y="54.08" width="19.35" height="1.85" transform="matrix(1, -0.04, 0.04, 1, -2.14, 2.16)"/><rect class="cls-8" x="37.46" y="60.41" width="4" height="1.85" transform="translate(-2.4 1.61) rotate(-2.27)"/><rect class="cls-5" x="43.94" y="59.85" width="19.35" height="1.85" transform="matrix(1, -0.04, 0.04, 1, -2.37, 2.17)"/><rect class="cls-8" x="37.69" y="66.17" width="4" height="1.85" transform="translate(-2.63 1.63) rotate(-2.27)"/><rect class="cls-5" x="44.17" y="65.61" width="19.35" height="1.85" transform="matrix(1, -0.04, 0.04, 1, -2.6, 2.19)"/><path class="cls-9" d="M56,57.09h0a4.28,4.28,0,0,0-5.89-1.14l-2.82,1.88,4.75,7L54.88,63A4.28,4.28,0,0,0,56,57.09Z"/><path class="cls-2" d="M50.62,65.2c-.49.35-1,.69-1.53,1a49.55,49.55,0,0,1-9.21,4.5c-1.19.45-2.38.89-3.22,1.19a1.76,1.76,0,0,1-.49.1A1.46,1.46,0,0,1,35,71.34a1.34,1.34,0,0,1,.1-1.73c.59-.69,1.44-1.58,2.28-2.57A50.4,50.4,0,0,1,45,60.16c.49-.35,1-.74,1.48-1l.25.4,3.61,5.35Z"/><path class="cls-6" d="M37.36,67c-.84.94-1.68,1.88-2.28,2.57a1.42,1.42,0,0,0-.1,1.78h0a1.39,1.39,0,0,0,1.68.54c.84-.3,2-.74,3.22-1.19,1.53-.54,3-1.19,4.45-1.88"/><path class="cls-6" d="M37.66,76.78a2.18,2.18,0,1,1-4.36,0c0-1.19,2.18-4,2.18-4S37.66,75.6,37.66,76.78Z"/><path class="cls-10" d="M50.33,64.81l-3.61-5.35-.25-.4-1.48,1,4.11,6c.49-.35,1-.64,1.53-1Z"/><path class="cls-11" d="M52.36,65.3,47,57.38a1.25,1.25,0,0,0-2.08,1.39l5.35,7.87A1.23,1.23,0,0,0,52,67,1.16,1.16,0,0,0,52.36,65.3Z"/><path class="cls-12" d="M100.85,36.56v4.51H57.59V35.24a2.62,2.62,0,0,1,2.63-2.63H96.9A3.94,3.94,0,0,1,100.85,36.56Z"/><path class="cls-12" d="M57.59,90.18h43.25v6.34a4,4,0,0,1-3.95,3.95H61.54a4,4,0,0,1-3.95-3.95Z"/><rect class="cls-13" x="57.59" y="41.07" width="43.26" height="49.09"/><circle class="cls-14" cx="78.07" cy="95.32" r="3.95"/><path class="cls-14" d="M86.26,37.69H72.18a.86.86,0,0,1-.86-.86h0a.86.86,0,0,1,.86-.86H86.26a.86.86,0,0,1,.86.86h0A.86.86,0,0,1,86.26,37.69Z"/><path class="cls-15" d="M74.45,75.49a2,2,0,0,1-1.4-.58l-4.48-4.48a2,2,0,1,1,2.79-2.79L74,70.28a44.19,44.19,0,0,1,13.37-14.2,2,2,0,1,1,2.17,3.29A40.94,40.94,0,0,0,76.19,74.44a2,2,0,0,1-1.45,1Z"/></g></g></svg>