<svg xmlns="http://www.w3.org/2000/svg" viewBox="0 0 86.98 86.76"><defs><style>.cls-1{fill:none;stroke:#ec2027;stroke-miterlimit:10;stroke-width:0.5px;}.cls-2{fill:#f2f2f2;}.cls-3{fill:#d1e7f8;}.cls-4{fill:#b9d8f4;}.cls-5{fill:#96c8ef;}.cls-6{fill:#91dc5a;}.cls-7{fill:#7ed63e;}.cls-8{fill:#6dc82a;}.cls-9{fill:#ffe477;}.cls-10{fill:#ffda44;}.cls-11{fill:#ffcd00;}.cls-12{fill:#ff0c38;}.cls-13{fill:#d80027;}.cls-14{fill:#a5001e;}.cls-15{fill:#005b4e;}.cls-16{fill:#4747c9;}.cls-17{fill:#3535aa;}.cls-18{fill:#e1e6e9;}.cls-19{fill:#e56353;}.cls-20{fill:#ebf0f3;}.cls-21{fill:#d5d6db;}.cls-22{fill:#d15241;}.cls-23{fill:#44c4a1;}.cls-24{fill:#3ea69b;}</style></defs><title>Asset 4</title><g id="Layer_2" data-name="Layer 2"><g id="Layer_1-2" data-name="Layer 1"><rect class="cls-1" x="0.87" y="0.66" width="85.86" height="85.86" rx="42.93" ry="42.93" transform="translate(-17.99 43.74) rotate(-45)"/><rect class="cls-2" width="85.86" height="85.86" rx="42.93" ry="42.93" transform="translate(-17.78 42.93) rotate(-45)"/><path class="cls-3" d="M48.61,26.3V47.15A3.82,3.82,0,0,0,52.42,51h0a3.82,3.82,0,0,0,3.81-3.81V26.3Z"/><path class="cls-4" d="M56.37,26.81h-7.9a1.33,1.33,0,0,1-1.33-1.33h0a1.33,1.33,0,0,1,1.33-1.33h7.9a1.33,1.33,0,0,1,1.33,1.33h0A1.33,1.33,0,0,1,56.37,26.81Z"/><path class="cls-4" d="M52.42,47.15V26.3H48.61V47.15A3.82,3.82,0,0,0,52.42,51h0a3.77,3.77,0,0,0,1.9-.51A3.82,3.82,0,0,1,52.42,47.15Z"/><path class="cls-5" d="M50.95,25.48h0a1.33,1.33,0,0,1,1.33-1.33H48.47a1.33,1.33,0,0,0-1.33,1.33h0a1.33,1.33,0,0,0,1.33,1.33h3.81A1.33,1.33,0,0,1,50.95,25.48Z"/><path class="cls-6" d="M50.42,41.92V47.1a2,2,0,0,0,2,2,2,2,0,0,0,2-2V41.92a.6.6,0,0,0-.6-.6H51A.6.6,0,0,0,50.42,41.92Z"/><path class="cls-7" d="M52.94,49.07a3.77,3.77,0,0,1-.52-1.92V41.31H51a.6.6,0,0,0-.6.6V47.1a2,2,0,0,0,2,2A2,2,0,0,0,52.94,49.07Z"/><circle class="cls-7" cx="52.42" cy="43.89" r="0.69"/><path class="cls-8" d="M52.42,43.21a.69.69,0,0,0,0,1.37Z"/><circle class="cls-7" cx="51.18" cy="38.53" r="0.69"/><path class="cls-3" d="M36.5,26.3V47.15A3.82,3.82,0,0,0,40.31,51h0a3.82,3.82,0,0,0,3.81-3.81V26.3Z"/><path class="cls-4" d="M40.31,47.15V26.3H36.5V47.15A3.82,3.82,0,0,0,40.31,51h0a3.77,3.77,0,0,0,1.9-.51A3.81,3.81,0,0,1,40.31,47.15Z"/><path class="cls-4" d="M44.25,26.81h-7.9A1.33,1.33,0,0,1,35,25.48h0a1.33,1.33,0,0,1,1.33-1.33h7.9a1.33,1.33,0,0,1,1.33,1.33h0A1.33,1.33,0,0,1,44.25,26.81Z"/><path class="cls-5" d="M38.83,25.48h0a1.33,1.33,0,0,1,1.33-1.33H36.36A1.33,1.33,0,0,0,35,25.48h0a1.33,1.33,0,0,0,1.33,1.33h3.81A1.33,1.33,0,0,1,38.83,25.48Z"/><path class="cls-9" d="M38.31,38.16V47.1a2,2,0,0,0,1.92,2,2,2,0,0,0,2.07-2v-9a.6.6,0,0,0-.6-.6H38.92A.6.6,0,0,0,38.31,38.16Z"/><path class="cls-10" d="M40.83,49.07a3.77,3.77,0,0,1-.53-1.92V37.56H38.92a.6.6,0,0,0-.6.6V47.1a2,2,0,0,0,1.92,2A2,2,0,0,0,40.83,49.07Z"/><circle class="cls-10" cx="40.31" cy="39.94" r="0.69"/><path class="cls-11" d="M40.31,39.26a.69.69,0,0,0,0,1.37Z"/><circle class="cls-10" cx="41.54" cy="30.35" r="0.69"/><circle class="cls-10" cx="39" cy="29.26" r="0.69"/><path class="cls-3" d="M24.38,26.3V47.15A3.82,3.82,0,0,0,28.19,51h0A3.82,3.82,0,0,0,32,47.15V26.3Z"/><path class="cls-4" d="M28.19,47.15V26.3H24.38V47.15A3.82,3.82,0,0,0,28.19,51h0a3.77,3.77,0,0,0,1.9-.51A3.81,3.81,0,0,1,28.19,47.15Z"/><path class="cls-4" d="M32.14,26.81h-7.9a1.33,1.33,0,0,1-1.33-1.33h0a1.33,1.33,0,0,1,1.33-1.33h7.9a1.33,1.33,0,0,1,1.33,1.33h0A1.33,1.33,0,0,1,32.14,26.81Z"/><path class="cls-5" d="M26.72,25.48h0a1.33,1.33,0,0,1,1.33-1.33H24.24a1.33,1.33,0,0,0-1.33,1.33h0a1.33,1.33,0,0,0,1.33,1.33h3.81A1.33,1.33,0,0,1,26.72,25.48Z"/><path class="cls-12" d="M26.2,43V47.1a2,2,0,0,0,2,2,2,2,0,0,0,2-2V43a.6.6,0,0,0-.6-.6H26.8A.6.6,0,0,0,26.2,43Z"/><path class="cls-13" d="M28.72,49.07a3.77,3.77,0,0,1-.52-1.92V42.44H26.8a.6.6,0,0,0-.6.6V47.1a2,2,0,0,0,2,2A2,2,0,0,0,28.72,49.07Z"/><circle class="cls-13" cx="27.14" cy="40.63" r="0.69"/><circle class="cls-12" cx="29.24" cy="37.94" r="0.69"/><circle class="cls-13" cx="28.19" cy="45.23" r="0.69"/><path class="cls-14" d="M28.19,44.54a.69.69,0,1,0,0,1.37Z"/><path class="cls-15" d="M21.23,56.06h0a1.33,1.33,0,0,1-1.33-1.33v-23a1.33,1.33,0,0,1,1.33-1.33h0a1.33,1.33,0,0,1,1.33,1.33v23A1.33,1.33,0,0,1,21.23,56.06Z"/><path class="cls-15" d="M59.38,56.06h0a1.33,1.33,0,0,1-1.33-1.33v-23a1.33,1.33,0,0,1,1.33-1.33h0a1.33,1.33,0,0,1,1.33,1.33v23A1.33,1.33,0,0,1,59.38,56.06Z"/><path class="cls-16" d="M61.41,57.67H19.2a1.62,1.62,0,0,1-1.61-1.61h0a1.62,1.62,0,0,1,1.61-1.61H61.41A1.62,1.62,0,0,1,63,56.06h0A1.62,1.62,0,0,1,61.41,57.67Z"/><path class="cls-16" d="M61.41,35.51H19.2a1.62,1.62,0,0,1-1.61-1.61h0a1.62,1.62,0,0,1,1.61-1.61H61.41A1.62,1.62,0,0,1,63,33.9h0A1.62,1.62,0,0,1,61.41,35.51Z"/><path class="cls-17" d="M25.89,33.92v0a1.59,1.59,0,0,1,1.59-1.59H19.2a1.62,1.62,0,0,0-1.61,1.61h0a1.62,1.62,0,0,0,1.61,1.61h8.28A1.59,1.59,0,0,1,25.89,33.92Z"/><path class="cls-17" d="M25.89,56.08v0a1.59,1.59,0,0,1,1.59-1.59H19.2a1.62,1.62,0,0,0-1.61,1.61h0a1.62,1.62,0,0,0,1.61,1.61h8.28A1.59,1.59,0,0,1,25.89,56.08Z"/><path class="cls-18" d="M65.25,37.46V30.8H57.78v6.66a12.8,12.8,0,1,0,7.47,0Z"/><path class="cls-19" d="M72.53,49.7a11,11,0,0,1-22,0,2.24,2.24,0,0,1,3.14-.07c.18.18.35.42.61.45a.78.78,0,0,0,.38-.07c1-.4,1.77-1.43,2.85-1.46s1.82.87,2.64,1.51a1.61,1.61,0,0,0,1,.43,2.41,2.41,0,0,0,1.21-.59,2.81,2.81,0,0,1,2-.51,1.92,1.92,0,0,1,1.18.67.7.7,0,0,0,1,0l.35-.32A1.87,1.87,0,0,1,68,49.23c.86,0,1.58,1,2.4.76a4,4,0,0,0,.59-.33A1.68,1.68,0,0,1,72.53,49.7Z"/><path class="cls-20" d="M65.5,27.82h-8a.56.56,0,0,0-.56.56v1.85a.56.56,0,0,0,.56.56h8a.56.56,0,0,0,.56-.56V28.38A.56.56,0,0,0,65.5,27.82Z"/><rect class="cls-21" x="57.78" y="30.8" width="7.47" height="1.53"/><circle class="cls-22" cx="56.55" cy="53.89" r="1.19"/><circle class="cls-22" cx="60.12" cy="56.49" r="1.19"/><circle class="cls-22" cx="63.2" cy="53.45" r="1.19"/><circle class="cls-22" cx="66.81" cy="55.82" r="1.19"/><path class="cls-20" d="M60.52,64.6l-10-18V37.12H42.18v9.44l-10,18a1.78,1.78,0,0,0,1.58,2.6H58.94A1.78,1.78,0,0,0,60.52,64.6Z"/><path class="cls-23" d="M40.71,53.22l-6,10.47a1.19,1.19,0,0,0,1.05,1.73H57A1.19,1.19,0,0,0,58,63.68L52,53.22Z"/><path class="cls-20" d="M50.73,33.89H42a.56.56,0,0,0-.56.56v2.1a.56.56,0,0,0,.56.56h8.75a.56.56,0,0,0,.56-.56v-2.1A.56.56,0,0,0,50.73,33.89Z"/><rect class="cls-18" x="42.18" y="37.12" width="8.36" height="1.62"/><circle class="cls-24" cx="42.04" cy="59.69" r="1.19"/><circle class="cls-24" cx="44.43" cy="55.97" r="1.19"/><circle class="cls-24" cx="46.19" cy="62.06" r="1.19"/><circle class="cls-24" cx="39.12" cy="63.24" r="1.19"/><circle class="cls-24" cx="50.22" cy="58.34" r="1.19"/><circle class="cls-24" cx="53.7" cy="62.71" r="1.19"/></g></g></svg>