<svg xmlns="http://www.w3.org/2000/svg" viewBox="0 0 128.47 128.47"><defs><style>.cls-1{fill:none;stroke:#ec1c24;stroke-miterlimit:10;}.cls-2{fill:#f2f2f2;}.cls-3{fill:#89c947;}.cls-4{fill:#48c1e1;}.cls-5{fill:#a2dff9;}.cls-6{fill:#0291c9;}.cls-10,.cls-7{opacity:0.1;}.cls-8{fill:#fb8276;}.cls-9{fill:#ef5050;}.cls-10{isolation:isolate;}.cls-11{fill:#ffd5b3;}.cls-12{fill:#ffb98a;}.cls-13{fill:#e6e9ed;}.cls-14{fill:#368c0e;}.cls-15{fill:#c0272d;}</style></defs><title>Asset 8</title><g id="Layer_2" data-name="Layer 2"><g id="Layer_1-2" data-name="Layer 1"><circle class="cls-1" cx="64.74" cy="64.74" r="63.24"/><circle class="cls-2" cx="63.24" cy="63.24" r="63.24"/><path class="cls-3" d="M34.53,99.23a4.61,4.61,0,0,1-4.6-4.6v-38H27v38a7.56,7.56,0,0,0,7.55,7.55h5.52V99.23H34.53Z"/><path class="cls-4" d="M35.66,23.55V19.27a1,1,0,0,0-1-1H22.26a1,1,0,0,0-1,1v4.28Z"/><path class="cls-5" d="M40.93,110.3a1.17,1.17,0,0,1-1.17-1.17V79.41a4.68,4.68,0,0,1,4.68-4.68H92.87a4.68,4.68,0,0,1,4.68,4.68v29.71a1.17,1.17,0,0,1-1.17,1.17Z"/><path class="cls-6" d="M47.38,74.73l2.32,2.91a23.68,23.68,0,0,0,37.92,0l2.32-2.91Z"/><g class="cls-7"><path d="M46.09,109.13V79.41a4.68,4.68,0,0,1,4.68-4.68H44.44a4.68,4.68,0,0,0-4.68,4.68v29.71a1.17,1.17,0,0,0,1.17,1.17h6.33A1.17,1.17,0,0,1,46.09,109.13Z"/></g><path class="cls-8" d="M84.8,101.39a.75.75,0,0,1-.53-.22L78.4,95.3A3.75,3.75,0,0,1,83.7,90l1.12,1.12L85.94,90a3.75,3.75,0,1,1,5.3,5.3l-5.91,5.86A.75.75,0,0,1,84.8,101.39Z"/><path class="cls-9" d="M63.42,17.16a18.82,18.82,0,0,1,10.48,0,9.25,9.25,0,0,0,2.59-6.52,1,1,0,0,0-1-1H61.81a1,1,0,0,0-1,1A9.25,9.25,0,0,0,63.42,17.16Z"/><path class="cls-10" d="M63.42,17.16a18.78,18.78,0,0,1,5.24-.74h.44a9.36,9.36,0,0,1-1.95-5.78,1,1,0,0,1,1-1H61.81a1,1,0,0,0-1,1A9.25,9.25,0,0,0,63.42,17.16Z"/><path class="cls-11" d="M48.48,45.63v5c0,11.35,9,21.56,20.18,21.56S88.83,62,88.83,50.68v-5Z"/><g class="cls-7"><path d="M53.59,50.68v-5H48.48v5c0,11.35,9,21.56,20.18,21.56a18.12,18.12,0,0,0,2.55-.18C61.27,70.64,53.59,61.15,53.59,50.68Z"/></g><rect class="cls-12" x="66.52" y="102.18" width="8.52" height="7.98" rx="2.83" ry="2.83"/><path class="cls-4" d="M25.09,51.19V55.9a1,1,0,0,0,1,1h4.71a1,1,0,0,0,1-1V51.19Z"/><path class="cls-5" d="M38.58,50.38a1,1,0,0,1-1,1H19.34a1,1,0,0,1-1-1V24.24a1,1,0,0,1,1-1H37.57a1,1,0,0,1,1,1V50.38Z"/><rect class="cls-13" x="18.33" y="27.88" width="20.25" height="18.43"/><g class="cls-7"><path d="M23.39,50.38V24.24a1,1,0,0,1,1-1H19.34a1,1,0,0,0-1,1V50.38a1,1,0,0,0,1,1h5.06A1,1,0,0,1,23.39,50.38Z"/></g><path class="cls-14" d="M31.74,35.81H29.86V33.93a1.47,1.47,0,0,0-2.95,0v1.88H25a1.47,1.47,0,0,0,0,2.95h1.88v1.88a1.47,1.47,0,0,0,2.95,0V38.76h1.88a1.47,1.47,0,1,0,0-2.95Z"/><path class="cls-15" d="M47.76,37.37H89.68c-1.27-11.93-10.19-21.17-21-21.17s-19.75,9.24-21,21.17Z"/><path class="cls-10" d="M47.76,37.37h6.16c1.15-10.75,8.51-19.32,17.88-20.9a18.83,18.83,0,0,0-3.14-.26c-10.82,0-19.75,9.24-21,21.17Z"/><path class="cls-9" d="M92.6,42.82a3,3,0,0,1-3,3H47.76a3,3,0,0,1-3-3V40.13a3,3,0,0,1,3-3h41.8a3,3,0,0,1,3,3v2.68Z"/><g class="cls-7"><path d="M51.07,42.82V40.13a3,3,0,0,1,3-3H47.76a3,3,0,0,0-3,3v2.68a3,3,0,0,0,3,3h6.35A3,3,0,0,1,51.07,42.82Z"/></g><path class="cls-4" d="M68,101.17H49.89V90.61a2.34,2.34,0,0,0-2.34-2.34H42.1a2.34,2.34,0,0,0-2.34,2.34v18.52a1.17,1.17,0,0,0,1.17,1.17H69.18v-8A1.17,1.17,0,0,0,68,101.17Z"/></g></g></svg>