<svg xmlns="http://www.w3.org/2000/svg" xmlns:xlink="http://www.w3.org/1999/xlink" viewBox="0 0 86.98 86.76"><defs><style>.cls-1,.cls-2{fill:none;}.cls-2{stroke:#ec2027;stroke-miterlimit:10;stroke-width:0.5px;}.cls-3{fill:#f2f2f2;}.cls-4{clip-path:url(#clip-path);}.cls-5{fill:#e3bd59;}.cls-6{fill:#dab555;}.cls-7{fill:#efc75e;}.cls-8{fill:#f2d27e;}.cls-9{fill:#caa648;}.cls-10{fill:#e3e3e3;}.cls-11{fill:#7edee6;}.cls-12{fill:#fc7c81;}.cls-13{fill:#77ccd9;}.cls-14{fill:#bcbcbc;}.cls-15{fill:#3b484a;}</style><clipPath id="clip-path"><rect class="cls-1" x="44.69" y="23.4" width="18.05" height="18.09"/></clipPath></defs><title>Asset 1</title><g id="Layer_2" data-name="Layer 2"><g id="Layer_1-2" data-name="Layer 1"><rect class="cls-2" x="0.87" y="0.66" width="85.86" height="85.86" rx="42.93" ry="42.93" transform="translate(-17.99 43.74) rotate(-45)"/><rect class="cls-3" width="85.86" height="85.86" rx="42.93" ry="42.93" transform="translate(-17.78 42.93) rotate(-45)"/><g class="cls-4"><path class="cls-5" d="M48.06,24l-2.79,2.79a2,2,0,0,0,0,2.79l11.3,11.3a2,2,0,0,0,2.79,0l2.79-2.79a2,2,0,0,0,0-2.79L50.83,24a2,2,0,0,0-2.77,0Zm0,0"/><path class="cls-6" d="M59.15,32.31l.46.46L54,38.33l-.46-.46Zm-10.9.22-.46-.46,5.56-5.56.46.46Zm0,0"/><path class="cls-7" d="M59.35,24l2.79,2.79a2,2,0,0,1,0,2.79l-11.3,11.3a2,2,0,0,1-2.79,0l-2.77-2.79a2,2,0,0,1,0-2.79L56.57,24a2,2,0,0,1,2.77,0Zm0,0"/></g><path class="cls-8" d="M54.74,28.5l2.89,2.89a1,1,0,0,1,0,1.44L54.1,36.35a1,1,0,0,1-1.44,0l-2.89-2.89a1,1,0,0,1,0-1.44l3.53-3.53a1,1,0,0,1,1.44,0Zm0,0"/><path class="cls-9" d="M53.38,30.28a.35.35,0,1,0,.49,0,.34.34,0,0,0-.49,0Zm-1,1a.35.35,0,1,0,.49,0,.34.34,0,0,0-.49,0Zm-1,1a.35.35,0,1,0,.49,0,.34.34,0,0,0-.49,0Zm3-1a.35.35,0,1,0,.49,0,.34.34,0,0,0-.49,0Zm-1,1a.35.35,0,1,0,.49,0,.34.34,0,0,0-.49,0Zm-1,1a.35.35,0,1,0,.49,0,.34.34,0,0,0-.49,0Zm3-1a.35.35,0,1,0,.49,0,.34.34,0,0,0-.49,0Zm-1,1a.35.35,0,1,0,.49,0,.34.34,0,0,0-.49,0Zm-1,1a.35.35,0,1,0,.49,0,.34.34,0,0,0-.49,0ZM58,25.64a.35.35,0,1,0,.49,0,.34.34,0,0,0-.49,0Zm-1,1a.35.35,0,1,0,.49,0,.34.34,0,0,0-.49,0Zm-1,1a.35.35,0,1,0,.49,0,.34.34,0,0,0-.49,0Zm2,0a.35.35,0,1,0,.49,0,.34.34,0,0,0-.49,0Zm2.48,0a.35.35,0,1,0,0,.49.34.34,0,0,0,0-.49Zm-1,1a.35.35,0,1,0,0,.49.34.34,0,0,0,0-.49Zm-1.49,1a.35.35,0,1,0,.49,0,.34.34,0,0,0-.49,0Zm-9.15,5.21a.35.35,0,1,0,.49,0,.34.34,0,0,0-.49,0Zm-1,1a.35.35,0,1,0,.49,0,.34.34,0,0,0-.49,0Zm-1,1a.35.35,0,1,0,.49,0,.34.34,0,0,0-.49,0Zm2,0a.35.35,0,1,0,.49,0,.34.34,0,0,0-.49,0Zm2,0a.35.35,0,1,0,.49,0,.34.34,0,0,0-.49,0Zm-1,1a.35.35,0,1,0,.49,0,.34.34,0,0,0-.49,0Zm-1,1a.35.35,0,1,0,.49,0,.34.34,0,0,0-.49,0Zm10.84-2.25a.35.35,0,1,0,.49,0,.34.34,0,0,0-.49,0Zm-1-1a.35.35,0,1,0,.49,0,.34.34,0,0,0-.49,0Zm-1,1a.35.35,0,1,0,.49,0,.34.34,0,0,0-.49,0Zm0,2a.35.35,0,1,0,.49,0,.37.37,0,0,0-.49,0Zm-1-1a.35.35,0,1,0,.49,0,.37.37,0,0,0-.49,0Zm-9.08-9.56a.35.35,0,1,0,0,.49.34.34,0,0,0,0-.49Zm1,1a.35.35,0,1,0,0,.49.34.34,0,0,0,0-.49Zm1-1a.35.35,0,1,0,0,.49.34.34,0,0,0,0-.49Zm0-1.48a.35.35,0,1,0-.49,0,.34.34,0,0,0,.49,0Zm1,.49a.35.35,0,1,0,0,.49.37.37,0,0,0,0-.49Zm0,0"/><path class="cls-10" d="M30.5,53a1.5,1.5,0,0,1-.34-2.83l7.65-3.47A2.05,2.05,0,0,0,39,45.22l1.12-5.89a2.05,2.05,0,0,0-.69-2l-2-1.7a1.5,1.5,0,0,1,1.93-2.29l2,1.7A5,5,0,0,1,43,39.89l-1.12,5.89A5,5,0,0,1,39,49.43L31.39,52.9A1.49,1.49,0,0,1,30.5,53Z"/><path class="cls-10" d="M27.05,52.36a1.49,1.49,0,0,1-.79-.43l-5.85-6a5,5,0,0,1-1.33-4.45l1.12-5.89a5,5,0,0,1,3.34-3.84L26,30.88a1.5,1.5,0,1,1,1,2.83l-2.49.84a2.05,2.05,0,0,0-1.36,1.56L22,42a2.05,2.05,0,0,0,.54,1.81l5.85,6a1.5,1.5,0,0,1-1.35,2.51Z"/><path class="cls-11" d="M42.55,70.91l-10.36-2a7.68,7.68,0,0,1-6.11-9l1.69-8.91a1.28,1.28,0,0,1,2.52.48l-1.69,8.91a5.12,5.12,0,0,0,4.07,6l10.36,2a5.12,5.12,0,0,0,6-4.07L51.4,51.71a1.28,1.28,0,0,1,2.52.48L51.52,64.8A7.68,7.68,0,0,1,42.55,70.91Z"/><path class="cls-12" d="M37.75,31.95l1.18.22a.73.73,0,0,1,.58.85l-.65,3.44A.73.73,0,0,1,38,37l-1.18-.22a1.16,1.16,0,0,1-.92-1.35l.49-2.6A1.16,1.16,0,0,1,37.75,31.95Z"/><path class="cls-12" d="M28,30.1l-1.18-.22a.73.73,0,0,0-.85.58l-.65,3.44a.73.73,0,0,0,.58.85l1.18.22a1.16,1.16,0,0,0,1.35-.92l.49-2.6A1.16,1.16,0,0,0,28,30.1Z"/><path class="cls-13" d="M27.93,57.12a5.92,5.92,0,0,0,1.29.1l1.08-5.68a1.28,1.28,0,1,0-2.52-.48L26.7,56.74A5.92,5.92,0,0,0,27.93,57.12Z"/><path class="cls-14" d="M34.17,48.36l-4,1.82a1.5,1.5,0,1,0,1.24,2.72L35,51.28A5.9,5.9,0,0,0,34.17,48.36Z"/><path class="cls-14" d="M28.41,49.85l-3.07-3.17a5.9,5.9,0,0,0-1.8,2.44l2.73,2.81a1.5,1.5,0,0,0,2.15-2.08Z"/><circle class="cls-12" cx="29.04" cy="51.3" r="3.42" transform="translate(-26.77 70.27) rotate(-79.26)"/><path class="cls-13" d="M52.89,50.69a1.28,1.28,0,0,0-1.5,1l-1.16,6.12a9.06,9.06,0,0,0,2.52.48l1.16-6.12A1.28,1.28,0,0,0,52.89,50.69Z"/><circle class="cls-14" cx="53.16" cy="49.27" r="6.55" transform="translate(-5.15 92.32) rotate(-79.26)"/><circle class="cls-10" cx="53.16" cy="49.27" r="4.31" transform="translate(-5.15 92.32) rotate(-79.26)"/><path class="cls-15" d="M50.67,49.53a.63.63,0,0,1-.5-.73l.08-.43a.63.63,0,0,1,1.23.23L51.4,49A.63.63,0,0,1,50.67,49.53Z"/><path class="cls-15" d="M55.39,50.43a.63.63,0,0,1-.5-.73l.08-.43a.63.63,0,1,1,1.23.23l-.08.43A.63.63,0,0,1,55.39,50.43Z"/><path class="cls-15" d="M53,50.21a1.41,1.41,0,0,1-1-.67.63.63,0,1,1,1.08-.63.18.18,0,0,0,.24,0,.63.63,0,1,1,.77,1A1.41,1.41,0,0,1,53,50.21Z"/></g></g></svg>