<svg xmlns="http://www.w3.org/2000/svg" viewBox="0 0 128.47 128.47"><defs><style>.cls-1{fill:none;stroke:#ec1c24;stroke-miterlimit:10;}.cls-2{fill:#f2f2f2;}.cls-3{fill:#dd352e;}.cls-4{fill:#fff;}.cls-5{fill:#ed7161;}.cls-6{fill:#61b872;}.cls-7{fill:#ebba16;}.cls-8{fill:#dc691d;}.cls-9{fill:#c03a2b;}.cls-10{fill:#a485be;}</style></defs><title>Asset 14</title><g id="Layer_2" data-name="Layer 2"><g id="Layer_1-2" data-name="Layer 1"><circle class="cls-1" cx="64.74" cy="64.74" r="63.24"/><circle class="cls-2" cx="63.24" cy="63.24" r="63.24"/><rect class="cls-3" x="34.08" y="29.1" width="52.34" height="69.78"/><path class="cls-4" d="M69,49H64v-5H56.51v5h-5v7.48h5v5H64v-5h5Zm0,0"/><path class="cls-5" d="M66.48,75.2H54a1.25,1.25,0,0,1,0-2.5H66.48a1.25,1.25,0,1,1,0,2.5Zm0,0"/><path class="cls-5" d="M71.46,80.19H49a1.25,1.25,0,1,1,0-2.5H71.46a1.25,1.25,0,1,1,0,2.5Zm0,0"/><path class="cls-5" d="M71.46,85.17H49a1.25,1.25,0,1,1,0-2.5H71.46a1.25,1.25,0,1,1,0,2.5Zm0,0"/><rect class="cls-6" x="86.42" y="29.1" width="7.47" height="12.46"/><rect class="cls-7" x="86.42" y="41.56" width="7.47" height="12.46"/><rect class="cls-8" x="86.42" y="54.02" width="7.47" height="12.46"/><rect class="cls-9" x="86.42" y="66.48" width="7.47" height="12.46"/><rect class="cls-10" x="86.42" y="78.94" width="7.47" height="12.46"/></g></g></svg>