<svg xmlns="http://www.w3.org/2000/svg" viewBox="0 0 207.98 209.51"><defs><style>.cls-1{fill:#fff;}.cls-2{fill:#48afcc;}.cls-3{fill:#71c6de;}.cls-4{fill:#b6f0ff;}.cls-5{fill:#e34e10;}.cls-6{fill:#fc611f;}.cls-7{fill:#3194b0;}.cls-8{fill:#acb3ba;}.cls-9{fill:#40596b;}.cls-10{fill:#f2f2f2;}.cls-11{fill:#0d4972;}.cls-12{fill:#00233f;}.cls-13{fill:#04445b;}.cls-14{fill:#055072;}.cls-15{fill:#03445b;}.cls-16{fill:#097d8c;}.cls-17{fill:#149ca3;}.cls-18{fill:#36c9b4;}.cls-19{fill:#22b2b2;}.cls-20{fill:#13628e;}</style></defs><title>Asset 45</title><g id="Layer_2" data-name="Layer 2"><g id="Layer_1-2" data-name="Layer 1"><circle class="cls-1" cx="56.03" cy="56.03" r="56.03"/><rect class="cls-2" x="48.45" y="67.9" width="3.57" height="22.39" transform="translate(-42.16 94.63) rotate(-67.13)"/><path class="cls-2" d="M55.51,88.41a42.43,42.43,0,0,0,6.27-13,45.45,45.45,0,0,0,1.36-13.81c-.33-5.21-1.82-10.91-5.73-14.57-.38-.35,2.94-4.7,3.4-5.39,7.7,5.74,10.26,15.61,10.67,24.81A52.63,52.63,0,0,1,69.6,81.62a50.67,50.67,0,0,1-5.3,12.14Z"/><rect class="cls-2" x="37.3" y="30.75" width="28.33" height="18.34" transform="translate(-5.32 71.82) rotate(-67.13)"/><rect class="cls-1" x="55.48" y="13.76" width="4.87" height="21.71" transform="translate(12.72 68.41) rotate(-67.13)"/><rect class="cls-1" x="42.57" y="44.36" width="4.87" height="21.71" transform="translate(-23.36 75.23) rotate(-67.13)"/><rect class="cls-2" x="57.38" y="14.28" width="4.87" height="11.7" transform="translate(18.02 67.41) rotate(-67.13)"/><rect class="cls-1" x="59.26" y="8.2" width="4.87" height="14.87" transform="translate(23.32 66.4) rotate(-67.13)"/><rect class="cls-3" x="33.07" y="33.55" width="28.33" height="9.17" transform="translate(-6.26 66.83) rotate(-67.13)"/><rect class="cls-4" x="60.49" y="21.3" width="4.87" height="10.85" transform="translate(13.84 74.32) rotate(-67.13)"/><rect class="cls-1" x="64.05" y="26.67" width="4.87" height="3.12" transform="translate(14.63 78.52) rotate(-67.13)"/><rect class="cls-4" x="47.58" y="51.89" width="4.87" height="10.85" transform="translate(-22.24 81.12) rotate(-67.13)"/><rect class="cls-1" x="51.16" y="57.29" width="4.87" height="3.09" transform="translate(-21.44 85.35) rotate(-67.13)"/><rect class="cls-3" x="54.68" y="16.06" width="4.87" height="5.85" transform="translate(17.42 64.24) rotate(-67.13)"/><rect class="cls-4" x="62.65" y="13.37" width="4.87" height="7.43" transform="translate(24.05 70.41) rotate(-67.13)"/><rect class="cls-1" x="65.12" y="17.01" width="4.87" height="2.17" transform="translate(24.62 73.3) rotate(-67.12)"/><path class="cls-2" d="M51.47,60.58,47,58.67l-.68,6,4.67.53Zm-5.29-2.23-4.33-1.83L39.6,61.84l4.33,1.83Zm-12.45-.42,3.64,3,3.82-4.66-4.51-1.91Z"/><path class="cls-3" d="M44.07,57.46l-2.22-.94L39.6,61.84l2.22.94Zm-10.34.47,3.64,3,3.82-4.66-4.51-1.91Z"/><rect class="cls-5" x="36.16" y="54" width="4.97" height="31.17" transform="translate(-40.49 78.15) rotate(-67.13)"/><rect class="cls-6" x="28.98" y="58.76" width="4.97" height="15.58" transform="translate(-42.08 69.67) rotate(-67.13)"/><polygon class="cls-2" points="47.8 25.02 62.95 36.28 65.42 30.43 48.53 23.3 47.8 25.02"/><polygon class="cls-2" points="66.15 20.15 55.36 15.63 54.8 16.97 64.78 23.41 66.15 20.15"/><path class="cls-2" d="M43.3,57.13l-1.45-.61-.69,1.65,2.17,1.06.75-1.77Zm-6.63-2.8-1,1.17L40,57.62l1.13-1.39Z"/><path class="cls-7" d="M67,48.77a22.79,22.79,0,0,0-6.17-7.09c-.46.68-3.78,5-3.4,5.39a16.2,16.2,0,0,1,3.83,5.79A7.77,7.77,0,0,0,67,48.77Z"/><circle class="cls-3" cx="59.82" cy="44.53" r="6.4"/><circle class="cls-2" cx="59.82" cy="44.53" r="3.47"/><path class="cls-7" d="M57,45.28a3.45,3.45,0,0,1,5.72-2.61,3.46,3.46,0,1,0-5.17,4.47A3.44,3.44,0,0,1,57,45.28Z"/><path class="cls-3" d="M84.57,97.65V91.09a3.8,3.8,0,0,0-3.8-3.8H39a3.8,3.8,0,0,0-3.8,3.8v6.57Z"/><path class="cls-2" d="M84.57,97.65v-5.3a3.8,3.8,0,0,0-3.8-3.8H59.9v9.1Z"/><polygon class="cls-7" points="52.04 77.93 50.63 81.2 39.23 76.39 40.62 73.11 52.04 77.93"/><circle class="cls-1" cx="151.95" cy="79.09" r="56.03"/><circle class="cls-1" cx="82.77" cy="153.48" r="56.03"/><path class="cls-8" d="M182.24,41.86,117.81,50.2a4.71,4.71,0,0,0-4.18,5.24l0,.15a4.84,4.84,0,0,0,5.4,4.16l64.59-8.36a4.84,4.84,0,0,0,4.16-5.4l0-.15A5,5,0,0,0,182.24,41.86Z"/><path class="cls-9" d="M119,59.75l6.8,52.57a3.12,3.12,0,0,0,3.48,2.68l24-3.11a5.13,5.13,0,1,0,10.17-1.32l24-3.11a3.12,3.12,0,0,0,2.68-3.48l-6.8-52.57Zm39.66,53.33a1.72,1.72,0,0,1-1.92-1.48l3.39-.44A1.72,1.72,0,0,1,158.7,113.08Z"/><path class="cls-10" d="M172.15,75.29l-16,2.07-.72-5.55,12.18-1.58a2,2,0,0,0-.52-4l-12.18,1.58-.7-5.4a2,2,0,1,0-4,.52l.7,5.4L138.7,69.91a2,2,0,1,0,.52,4l12.18-1.58.72,5.55-16,2.07a2,2,0,1,0,.52,4l16.19-2.09.72,5.55L141.32,89a2,2,0,1,0,.52,4L154,91.43l.7,5.4L145,98.09c-2.47.32-4.54,2.47-4.39,4.8a4.74,4.74,0,0,0,5.3,4.64l7.25-.94a3.16,3.16,0,0,0,2.19-1.22,3.38,3.38,0,0,1,4.62-.6,3.16,3.16,0,0,0,2.43.63l6.94-.9c2.47-.32,4.54-2.47,4.39-4.8a4.74,4.74,0,0,0-5.3-4.64l-10,1.3-.74-5.7,12.18-1.58a2,2,0,1,0-.52-4l-12.18,1.58-.72-5.55L172.63,79a2.06,2.06,0,0,0,1.74-2.26A2,2,0,0,0,172.15,75.29Z"/><path class="cls-11" d="M108.32,144.54c0,5.11.23,8.94-4.88,8.94H63.14c-5.11,0-4.76-3.83-4.76-8.94v-13c0-5.11,4.3-5.92,9.41-5.92h31c5.11,0,9.52.81,9.52,5.92Zm0,0"/><path class="cls-12" d="M58.49,131.3c0-5.11,4.18-5.69,9.29-5.69h31c5.11,0,9.52.81,9.52,5.92v13c0,5.11.35,9.18-4.76,9.18"/><path class="cls-13" d="M74.64,184.84H61a7,7,0,1,1,0-13.94H74.64a1.16,1.16,0,1,1,0,2.32H61a4.65,4.65,0,1,0,0,9.29H74.64a1.16,1.16,0,1,1,0,2.32Zm0,0"/><path class="cls-14" d="M93.45,170.91a3.52,3.52,0,0,1-3.6,3.49H75.57a3.49,3.49,0,1,1,0-7H89.74a3.55,3.55,0,0,1,3.72,3.48Zm0,0"/><path class="cls-15" d="M93.45,170.91a3.52,3.52,0,0,1-3.6,3.49H75.57a3.55,3.55,0,0,1-3.6-3.6"/><path class="cls-16" d="M87.41,166.72a4.65,4.65,0,1,1-9.29,0v-1a4.65,4.65,0,1,1,9.29,0Zm0,0"/><path class="cls-17" d="M111.81,155.46c0,5.92.47,10.8-5.46,10.8H60.24c-5.92,0-5.34-5-5.34-10.8V132c0-5.81,4.76-6.39,10.69-6.39H101c5.92,0,10.8.58,10.8,6.39Zm0,0"/><path class="cls-18" d="M111.81,153.14c0,5.92.47,10.8-5.46,10.8H60.24c-5.92,0-5.34-4.88-5.34-10.8V129.79c0-5.92,4.76-6.5,10.69-6.5H101c5.92,0,10.8.58,10.8,6.5Zm0,0"/><path class="cls-19" d="M65.35,123.29H101c5.92,0,10.8.58,10.8,6.5v23.46c0,5.92.47,10.8-5.46,10.8H60.7"/><path class="cls-17" d="M101.12,123.4c5.92,0,10.69.46,10.69,6.39v23.46c0,5.92.47,10.8-5.46,10.8"/><path class="cls-17" d="M108.32,146.75c0,5.11.23,9.06-4.88,9.06H63.14c-5.11,0-4.76-3.95-4.76-9.06v-13c0-5.11,4.3-5.81,9.41-5.81h31c5.11,0,9.52.7,9.52,5.81Zm0,0"/><path class="cls-11" d="M108.32,144.54c0,5.11.23,8.94-4.88,8.94H63.14c-5.11,0-4.76-3.83-4.76-8.94v-13c0-5.11,4.3-5.92,9.41-5.92h31c5.11,0,9.52.81,9.52,5.92Zm0,0"/><path class="cls-12" d="M58.38,131.53c0-5.11,4.3-5.92,9.41-5.92h31c5.11,0,9.52.81,9.52,5.92v13c0,5.11.23,8.94-4.88,8.94"/><path class="cls-13" d="M78.24,159.18a.81.81,0,1,1-.81-.81.81.81,0,0,1,.81.81Zm0,0"/><path class="cls-13" d="M84,159.18a.81.81,0,1,1-.81-.81.81.81,0,0,1,.81.81Zm0,0"/><path class="cls-13" d="M90,159.18a.81.81,0,1,1-.81-.81.81.81,0,0,1,.81.81Zm0,0"/><path class="cls-18" d="M95.55,184.38a3.92,3.92,0,0,1-3.95,3.95H75.1a3.92,3.92,0,0,1-3.95-3.95V184a3.92,3.92,0,0,1,3.95-3.95H91.71A3.92,3.92,0,0,1,95.66,184v.35Zm0,0"/><path class="cls-19" d="M95.55,184.61v-.47a4.12,4.12,0,0,1-3.95,4.18H75.1a3.92,3.92,0,0,1-3.95-3.95l.12.12"/><path class="cls-19" d="M103.67,182.52a7,7,0,0,0-13.94,0V186a7,7,0,0,0,13.94,0Zm0,0"/><path class="cls-11" d="M96.71,193a6.84,6.84,0,0,0,7-7v-3.49a6.84,6.84,0,0,0-7-7"/><path class="cls-20" d="M97.5,176.66c.66-.51,2.15.3,3.34,1.81s1.61,3.16,1,3.67-2.15-.3-3.34-1.81-1.61-3.16-1-3.67Zm0,0"/><path class="cls-17" d="M75.92,181.13a.46.46,0,1,1-.47-.46.47.47,0,0,1,.47.46Zm0,0"/><path class="cls-17" d="M79.17,181.13a.46.46,0,1,1-.46-.46.46.46,0,0,1,.46.46Zm0,0"/><path class="cls-17" d="M82.42,181.13a.46.46,0,1,1-.46-.46.47.47,0,0,1,.46.46Zm0,0"/><path class="cls-17" d="M75.92,182.87a.46.46,0,1,1-.47-.46.46.46,0,0,1,.47.46Zm0,0"/><path class="cls-17" d="M79.17,182.87a.46.46,0,1,1-.46-.46.46.46,0,0,1,.46.46Zm0,0"/><path class="cls-17" d="M82.42,182.87a.46.46,0,1,1-.46-.46.46.46,0,0,1,.46.46Zm0,0"/><path class="cls-17" d="M75.92,184.61a.46.46,0,1,1-.47-.47.47.47,0,0,1,.47.47Zm0,0"/><path class="cls-17" d="M79.17,184.61a.46.46,0,1,1-.46-.47.46.46,0,0,1,.46.47Zm0,0"/><path class="cls-17" d="M82.42,184.61a.46.46,0,1,1-.46-.47.47.47,0,0,1,.46.47Zm0,0"/><path class="cls-17" d="M75.92,186.35a.46.46,0,1,1-.47-.46.46.46,0,0,1,.47.46Zm0,0"/><path class="cls-17" d="M79.17,186.35a.46.46,0,1,1-.46-.46.46.46,0,0,1,.46.46Zm0,0"/><path class="cls-17" d="M82.42,186.35a.46.46,0,1,1-.46-.46.46.46,0,0,1,.46.46Zm0,0"/><path class="cls-17" d="M106.58,187.4a.43.43,0,0,1-.35-.12c-.23-.23-.23-.58,0-.7a4.28,4.28,0,0,0,0-6.16c-.23-.23-.23-.58,0-.7s.58-.23.7,0a5.47,5.47,0,0,1,0,7.67c-.12-.12-.23,0-.35,0Zm0,0"/><path class="cls-17" d="M108,191.23a.43.43,0,0,1-.35-.12c-.23-.23-.23-.58,0-.7a10,10,0,0,0,2.9-7.09,9.75,9.75,0,0,0-2.9-7c-.23-.23-.23-.58,0-.7s.58-.23.7,0a10.94,10.94,0,0,1,0,15.56Zm0,0"/><path class="cls-17" d="M110.06,195.18a.43.43,0,0,1-.35-.12c-.23-.23-.23-.58,0-.7a15.48,15.48,0,0,0,4.53-10.92,15.28,15.28,0,0,0-4.53-10.92c-.23-.23-.23-.58,0-.7s.58-.23.7,0a16.54,16.54,0,0,1,0,23.46.43.43,0,0,0-.35-.12Zm0,0"/></g></g></svg>