<svg xmlns="http://www.w3.org/2000/svg" viewBox="0 0 128.47 128.47"><defs><style>.cls-1{fill:none;stroke:#ec1c24;stroke-miterlimit:10;}.cls-2{fill:#f2f2f2;}.cls-3{fill:#ffba4d;}.cls-4{fill:#faa330;}.cls-5{fill:#f0f0f0;}.cls-6{fill:#d9d9d9;}.cls-7{fill:#bcbcbc;}.cls-8{fill:#e3e3e3;}.cls-9{fill:#3b484a;}.cls-10{fill:#fc7c81;}</style></defs><title>Asset 11</title><g id="Layer_2" data-name="Layer 2"><g id="Layer_1-2" data-name="Layer 1"><circle class="cls-1" cx="64.74" cy="64.74" r="63.24"/><circle class="cls-2" cx="63.24" cy="63.24" r="63.24"/><path class="cls-3" d="M89.33,35.81H38.64a6,6,0,0,0-6,6V99.24a6,6,0,0,0,6,6H89.33a6,6,0,0,0,6-6V41.8A6,6,0,0,0,89.33,35.81Z"/><path class="cls-4" d="M40.22,35.81V43a7.49,7.49,0,0,0,7.48,7.48H80.27A7.49,7.49,0,0,0,87.75,43V35.81Z"/><path class="cls-5" d="M38.64,99.51a.27.27,0,0,1-.27-.27V41.8a.27.27,0,0,1,.27-.27H89.33a.27.27,0,0,1,.27.27V99.24a.27.27,0,0,1-.27.27Z"/><path class="cls-6" d="M40.22,41.53V43a7.49,7.49,0,0,0,7.48,7.48H80.27A7.49,7.49,0,0,0,87.75,43V41.53Z"/><path class="cls-7" d="M80.27,30.11H71.35a7.36,7.36,0,0,0-14.73,0H47.7a2.5,2.5,0,0,0-2.5,2.5V43a2.5,2.5,0,0,0,2.5,2.5H80.27a2.5,2.5,0,0,0,2.5-2.5V32.61A2.5,2.5,0,0,0,80.27,30.11Z"/><circle class="cls-8" cx="63.99" cy="29.68" r="2.62"/><path class="cls-9" d="M52.51,39.66a1.24,1.24,0,0,1-1.24-1.24V36.34a1.24,1.24,0,1,1,2.49,0v2.08A1.24,1.24,0,0,1,52.51,39.66Z"/><path class="cls-9" d="M75.46,39.66a1.24,1.24,0,0,1-1.24-1.24V36.34a1.24,1.24,0,1,1,2.49,0v2.08A1.24,1.24,0,0,1,75.46,39.66Z"/><path class="cls-9" d="M64,40.77a5,5,0,0,1-3.77-1.68,1.24,1.24,0,1,1,1.87-1.64,2.58,2.58,0,0,0,3.79,0,1.24,1.24,0,1,1,1.87,1.64A5,5,0,0,1,64,40.77Z"/><path class="cls-9" d="M77.71,74H50.27a1.24,1.24,0,0,1,0-2.49H77.71a1.24,1.24,0,1,1,0,2.49Z"/><path class="cls-9" d="M77.71,81.54H50.27a1.24,1.24,0,0,1,0-2.49H77.71a1.24,1.24,0,1,1,0,2.49Z"/><path class="cls-9" d="M77.71,89H50.27a1.24,1.24,0,0,1,0-2.49H77.71a1.24,1.24,0,1,1,0,2.49Z"/><polygon class="cls-10" points="71.03 56.23 66.61 56.23 66.61 51.82 61.36 51.82 61.36 56.23 56.95 56.23 56.95 61.48 61.36 61.48 61.36 65.9 66.61 65.9 66.61 61.48 71.03 61.48 71.03 56.23"/></g></g></svg>