<svg xmlns="http://www.w3.org/2000/svg" viewBox="0 0 86.98 86.76"><defs><style>.cls-1{fill:none;stroke:#ec2027;stroke-miterlimit:10;stroke-width:0.5px;}.cls-2{fill:#f2f2f2;}.cls-3{fill:#e6e9ed;}.cls-4{fill:#48c1e1;}.cls-5{fill:#a2dff9;}.cls-6{opacity:0.1;isolation:isolate;}.cls-7{fill:#f7931e;}.cls-8{fill:#fff;}.cls-9{fill:#775436;}.cls-10{fill:#368c0e;}.cls-11{fill:#c6a07d;}.cls-12{fill:#046699;}.cls-13{fill:#ffc502;}.cls-14{fill:#c5ccd3;}.cls-15{fill:#fcdb67;}</style></defs><title>Asset 5</title><g id="Layer_2" data-name="Layer 2"><g id="Layer_1-2" data-name="Layer 1"><rect class="cls-1" x="0.87" y="0.66" width="85.86" height="85.86" rx="42.93" ry="42.93" transform="translate(-17.99 43.74) rotate(-45)"/><rect class="cls-2" width="85.86" height="85.86" rx="42.93" ry="42.93" transform="translate(-17.78 42.93) rotate(-45)"/><path class="cls-3" d="M60.21,47.52a.09.09,0,0,0-.09-.09h-.59a.37.37,0,0,1-.37-.37V45.42a.37.37,0,0,1,.37-.37h.93V26.16A.46.46,0,0,0,60,25.7H46.79a.46.46,0,0,0-.46.46v15.5A1.78,1.78,0,0,1,48,43.43V57H60a.46.46,0,0,0,.21-.05V47.52Z"/><path class="cls-4" d="M60.21,54.3V47.52a.09.09,0,0,0-.09-.09h-.59a.37.37,0,0,1-.37-.37V45.42a.37.37,0,0,1,.37-.37h.93V36.33H46.33v5.33A1.78,1.78,0,0,1,48,43.43V54.3H60.21Z"/><rect class="cls-5" x="47.98" y="53.63" width="12.23" height="1.35"/><path class="cls-6" d="M49.28,56.5V26.16a.46.46,0,0,1,.46-.46h-3a.46.46,0,0,0-.46.46v15.5A1.78,1.78,0,0,1,48,43.43V57h1.76A.46.46,0,0,1,49.28,56.5Z"/><path class="cls-7" d="M57.69,48.45a2.78,2.78,0,1,1-2.78-2.78A2.78,2.78,0,0,1,57.69,48.45Z"/><path class="cls-8" d="M52,45.27a.67.67,0,1,1,.48-.2A.68.68,0,0,1,52,45.27Z"/><path class="cls-5" d="M49.81,43.31a.67.67,0,1,1,.48-.2A.68.68,0,0,1,49.81,43.31Z"/><path class="cls-5" d="M55.19,44.14a.67.67,0,1,1,.48-.2A.68.68,0,0,1,55.19,44.14Z"/><path class="cls-8" d="M52.5,42.69a.67.67,0,1,1,.48-.2A.68.68,0,0,1,52.5,42.69Z"/><path class="cls-8" d="M49.81,40.22a.67.67,0,1,1,.48-.2A.68.68,0,0,1,49.81,40.22Z"/><rect class="cls-9" x="31.74" y="38.68" width="10.69" height="3.05"/><rect class="cls-6" x="31.74" y="38.68" width="2.87" height="3.05"/><path class="cls-10" d="M30.25,38.35a.46.46,0,0,0,.46.46H43.47a.46.46,0,0,0,.46-.46V35.18a.46.46,0,0,0-.46-.46H30.71a.46.46,0,0,0-.46.46Z"/><path class="cls-6" d="M33.19,38.35V35.18a.46.46,0,0,1,.46-.46H30.71a.46.46,0,0,0-.46.46v3.18a.46.46,0,0,0,.46.46h2.94A.46.46,0,0,1,33.19,38.35Z"/><path class="cls-11" d="M46.2,41.56H28a1.88,1.88,0,0,0-1.87,1.87v5.05h6a.37.37,0,0,1,.37.37v3a.09.09,0,0,0,.09.09H34a.84.84,0,0,1,.83.84v10H46.2a1.88,1.88,0,0,0,1.87-1.87V43.43A1.88,1.88,0,0,0,46.2,41.56Z"/><path class="cls-6" d="M29,48.48V43.43a1.88,1.88,0,0,1,1.87-1.87H28a1.88,1.88,0,0,0-1.87,1.87v5.05Z"/><path class="cls-9" d="M34.88,60.24v2.49H46.2a1.88,1.88,0,0,0,1.87-1.87v-.62H34.88Z"/><path class="cls-8" d="M38.76,45.67h9.31V56.13H38.76a.38.38,0,0,1-.37-.37V46A.38.38,0,0,1,38.76,45.67Z"/><path class="cls-6" d="M40.31,55.76V46a.38.38,0,0,1,.37-.37H38.76a.38.38,0,0,0-.37.37v9.71a.38.38,0,0,0,.37.37h1.92A.37.37,0,0,1,40.31,55.76Z"/><path class="cls-10" d="M44.88,50.33h-3a.67.67,0,1,1,0-1.35h3a.67.67,0,1,1,0,1.35Z"/><path class="cls-10" d="M44.88,52.95h-3a.67.67,0,0,1,0-1.35h3a.67.67,0,0,1,0,1.35Z"/><path class="cls-7" d="M32.6,52v-3.1a.46.46,0,0,0-.46-.46H23.22a.46.46,0,0,0-.46.46V52Z"/><path class="cls-6" d="M25.67,52v-3.1a.46.46,0,0,1,.46-.46H23.22a.46.46,0,0,0-.46.46V52Z"/><path class="cls-12" d="M20.39,64.43a.93.93,0,0,0,.92.93H34a.93.93,0,0,0,.92-.93V61.59H20.39Z"/><path class="cls-12" d="M34,51.82H21.32a.93.93,0,0,0-.92.93v2.37H35V52.75A.93.93,0,0,0,34,51.82Z"/><rect class="cls-13" x="20.39" y="55.12" width="14.57" height="6.48"/><rect class="cls-3" x="20.39" y="55.12" width="4.11" height="6.48"/><path class="cls-6" d="M22.55,64.43V52.75a.93.93,0,0,1,.92-.93H21.32a.93.93,0,0,0-.92.93V64.44a.93.93,0,0,0,.92.93h2.15A.93.93,0,0,1,22.55,64.43Z"/><path class="cls-7" d="M60.12,47.43V64.9a.46.46,0,0,0,.46.46h4.24a.46.46,0,0,0,.46-.46V47.43Z"/><polygon class="cls-13" points="60.12 61.34 65.28 56.18 65.28 51.43 60.12 56.58 60.12 61.34"/><path class="cls-6" d="M62,64.9V47.43H60.12V64.9a.46.46,0,0,0,.46.46h1.93A.46.46,0,0,1,62,64.9Z"/><path class="cls-14" d="M66.34,47.06a.46.46,0,0,1-.46.46H59.53a.46.46,0,0,1-.46-.46V45.42a.46.46,0,0,1,.46-.46h6.34a.46.46,0,0,1,.46.46Z"/><path class="cls-6" d="M61,47.06V45.42a.46.46,0,0,1,.46-.46h-1.9a.46.46,0,0,0-.46.46v1.64a.46.46,0,0,0,.46.46h1.9A.46.46,0,0,1,61,47.06Z"/><path class="cls-15" d="M43.16,30.87a1.38,1.38,0,0,1-1.37,1.38H39.22a1.38,1.38,0,0,1-1.37-1.38h0a1.38,1.38,0,0,1,1.37-1.38h2.57a1.38,1.38,0,0,1,1.37,1.38Z"/><path class="cls-15" d="M38,25.14a1.38,1.38,0,0,1,0,1.95L36.17,28.9a1.37,1.37,0,0,1-1.94,0h0a1.38,1.38,0,0,1,0-1.95L36,25.14a1.37,1.37,0,0,1,1.94,0Z"/><path class="cls-15" d="M43.38,25.32a1.37,1.37,0,0,1-1.94,0L39.62,23.5a1.38,1.38,0,0,1,0-1.95h0a1.37,1.37,0,0,1,1.94,0l1.81,1.82a1.38,1.38,0,0,1,0,1.95Z"/></g></g></svg>