<svg xmlns="http://www.w3.org/2000/svg" viewBox="0 0 128.47 128.47"><defs><style>.cls-1{fill:none;stroke:#ec1c24;stroke-miterlimit:10;}.cls-2{fill:#f2f2f2;}.cls-3{fill:#e4e7e7;}.cls-4{fill:#d8dbdb;}.cls-5{fill:#324d5b;}.cls-6{fill:#283e49;}.cls-7{fill:#3db39e;}.cls-8{fill:#ccd0d2;}.cls-9{fill:#f3f3f3;}.cls-10{fill:#d8dadc;}.cls-11{fill:#a4a9ad;}.cls-12{fill:#c3c6c8;}.cls-13{fill:#1e252b;}.cls-14{fill:#0071ce;}.cls-15{fill:#fff;}.cls-16{fill:#b3b8ba;}</style></defs><title>Asset 19</title><g id="Layer_2" data-name="Layer 2"><g id="Layer_1-2" data-name="Layer 1"><circle class="cls-1" cx="64.74" cy="64.74" r="63.24"/><circle class="cls-2" cx="63.24" cy="63.24" r="63.24"/><path class="cls-3" d="M75.72,70h34.16a1.77,1.77,0,0,1,1.77,1.77v18a1.77,1.77,0,0,1-1.77,1.77H75.72A1.77,1.77,0,0,1,74,89.74v-18A1.77,1.77,0,0,1,75.72,70Zm0,0"/><path class="cls-4" d="M74,89.74a1.77,1.77,0,0,0,1.77,1.77h34.16a1.77,1.77,0,0,0,1.77-1.77V77.37H74Zm0,0"/><path class="cls-5" d="M79,68.54h27.68a1.77,1.77,0,0,1,1.77,1.77v2.36a1.77,1.77,0,0,1-1.77,1.77H79a1.77,1.77,0,0,1-1.77-1.77V70.3A1.77,1.77,0,0,1,79,68.54Zm0,0"/><path class="cls-6" d="M80.14,70.6h25.33a.88.88,0,1,1,0,1.77H80.14a.87.87,0,0,1-.88-.88.89.89,0,0,1,.88-.88Zm0,0"/><path class="cls-7" d="M78.52,80.32a1.33,1.33,0,1,1-1.33,1.33,1.32,1.32,0,0,1,1.33-1.33Zm0,0"/><path class="cls-5" d="M82.94,80.32a1.33,1.33,0,1,1-1.33,1.33,1.32,1.32,0,0,1,1.33-1.33Zm0,0"/><path class="cls-8" d="M104.58,56.76h2.06a1.77,1.77,0,0,1,1.77,1.77v1.77a1.77,1.77,0,0,1-1.77,1.77h-2.06a1.77,1.77,0,0,1-1.77-1.77V58.52a1.77,1.77,0,0,1,1.77-1.77Zm0,0"/><path class="cls-9" d="M80.44,59.14V71.51h24.74V56.79h-23a1.77,1.77,0,0,0-1.77,1.77Zm26.51-2.39h-1.77v1.77a1.77,1.77,0,0,1,1.77-1.77Zm0,0"/><path class="cls-10" d="M84.56,62.06h16.49a.59.59,0,0,0,0-1.18H84.56a.59.59,0,1,0,0,1.18Zm16.49,1.47H84.56a.59.59,0,1,0,0,1.18h16.49a.59.59,0,1,0,0-1.18Zm0,2.65H84.56a.59.59,0,1,0,0,1.18h16.49a.59.59,0,0,0,0-1.18Zm0,0"/><path class="cls-11" d="M19.21,79.37a2.89,2.89,0,0,1-2.89-2.89V39.94c0-1.59,1.3-3.65,2.89-3.65H73.83a2.89,2.89,0,0,1,2.89,2.89V76.49a2.89,2.89,0,0,1-2.89,2.89Zm0,0"/><path class="cls-12" d="M21.53,79.37a2.89,2.89,0,0,1-2.89-2.89V39.17a2.89,2.89,0,0,1,2.89-2.89H76.15A2.89,2.89,0,0,1,79,39.17V76.49a2.89,2.89,0,0,1-2.88,2.89Zm0,0"/><path class="cls-13" d="M21.53,36.29H76.15A2.89,2.89,0,0,1,79,39.17v35H18.64v-35a2.89,2.89,0,0,1,2.89-2.89Zm0,0"/><rect class="cls-14" x="22.49" y="40.14" width="52.7" height="30.15"/><rect class="cls-15" x="27.25" y="47.29" width="43.18" height="15.84"/><rect class="cls-11" x="31.24" y="50.52" width="13.79" height="9.44"/><rect class="cls-12" x="50.28" y="50.99" width="17.19" height="4.07"/><path class="cls-16" d="M50.38,89.78H36.53L40,79.37H53.84Zm0,0"/><path class="cls-12" d="M55.09,89.78a1,1,0,0,1,0,1.91H41.34V89.78Zm0,0"/><path class="cls-11" d="M36,91.68a1.55,1.55,0,0,1-1.46-2.06h0l3.41-10.25H40l-3.46,10.4h4.81a1,1,0,0,1,0,1.91H36Zm0,0"/><path class="cls-13" d="M50.28,76.81a1.44,1.44,0,1,1-1.44-1.44,1.44,1.44,0,0,1,1.44,1.44Zm0,0"/><path class="cls-13" d="M64,64.82,60.63,61.5l1.79-.65a1.06,1.06,0,0,0-.13-2l-5.91-1.34h-.25l-.18,0h0l-.15,0h0l-.16.08,0,0-.15.12a1,1,0,0,0-.12.15l0,0a1.12,1.12,0,0,0-.08.16v0a1,1,0,0,0,0,.15v0a1.08,1.08,0,0,0,0,.18s0,0,0,0a1.14,1.14,0,0,0,0,.15v.06l1.34,5.91a1.06,1.06,0,0,0,1,.82h.07a1.06,1.06,0,0,0,1-.7L59.13,63l3.32,3.32a1.06,1.06,0,0,0,1.5-1.5Zm0,0"/></g></g></svg>