<svg xmlns="http://www.w3.org/2000/svg" viewBox="0 0 128.47 128.47"><defs><style>.cls-1{fill:none;stroke:#ec1c24;stroke-miterlimit:10;}.cls-2{fill:#f2f2f2;}.cls-3{fill:#afb6bb;}.cls-4{fill:#eec49e;}.cls-5{fill:#d3aa81;}.cls-6{fill:#be6e41;}.cls-7{fill:#6c4127;}.cls-8{fill:#fec648;}.cls-9{fill:#ed8a19;}.cls-10{fill:#dd352e;}.cls-11{fill:#f2ecbf;}.cls-12{fill:#d4dbec;}</style></defs><title>Asset 22</title><g id="Layer_2" data-name="Layer 2"><g id="Layer_1-2" data-name="Layer 1"><circle class="cls-1" cx="64.74" cy="64.74" r="63.24"/><circle class="cls-2" cx="63.24" cy="63.24" r="63.24"/><path class="cls-3" d="M43,52.86a1.17,1.17,0,0,1-1.24-1.24V47.92a1.24,1.24,0,0,1,2.47,0v3.71A1.17,1.17,0,0,1,43,52.86Z"/><path class="cls-3" d="M56.57,52.86a1.17,1.17,0,0,1-1.24-1.24V47.92a1.24,1.24,0,0,1,2.47,0v3.71A1.17,1.17,0,0,1,56.57,52.86Z"/><rect class="cls-4" x="28.14" y="28.14" width="4.94" height="71.69"/><rect class="cls-4" x="94.89" y="28.14" width="4.94" height="71.69"/><rect class="cls-5" x="33.09" y="89.94" width="61.8" height="4.94"/><rect class="cls-5" x="33.09" y="33.09" width="61.8" height="4.94"/><rect class="cls-5" x="33.09" y="61.51" width="61.8" height="4.94"/><rect class="cls-6" x="68.93" y="52.86" width="17.3" height="8.65"/><rect class="cls-7" x="67.69" y="49.15" width="19.78" height="4.94"/><rect class="cls-8" x="42.97" y="81.29" width="17.3" height="8.65"/><rect class="cls-9" x="41.74" y="77.58" width="19.78" height="4.94"/><rect class="cls-10" x="72.64" y="81.29" width="12.36" height="8.65"/><rect class="cls-11" x="71.4" y="77.58" width="14.83" height="4.94"/><path class="cls-12" d="M45.45,61.51H40.5V54.1A2.48,2.48,0,0,1,43,51.63h0a2.48,2.48,0,0,1,2.47,2.47Z"/><path class="cls-12" d="M59,61.51H54.1V54.1a2.48,2.48,0,0,1,2.47-2.47h0A2.48,2.48,0,0,1,59,54.1Z"/></g></g></svg>