<svg xmlns="http://www.w3.org/2000/svg" viewBox="0 0 159.13 159.13"><defs><style>.cls-1{fill:#ec1c24;}.cls-2{fill:#fff;}.cls-3{fill:#647a8a;}.cls-4{fill:#ebeff2;}.cls-5{fill:#3b566a;}.cls-6{fill:#e0e5e9;}.cls-7{fill:#1b75bb;}.cls-8{fill:#2d9f48;}.cls-9{fill:#fad362;}.cls-10{fill:#cc2027;}.cls-11{fill:#126095;}.cls-12{fill:#237d3e;}.cls-13{fill:#f4c258;}.cls-14{fill:#d4d6db;}</style></defs><title>Asset 46</title><g id="Layer_2" data-name="Layer 2"><g id="Layer_1-2" data-name="Layer 1"><path class="cls-1" d="M80.14,159.13a79,79,0,1,1,79-79A79.08,79.08,0,0,1,80.14,159.13Zm0-156.57a77.58,77.58,0,1,0,77.58,77.58A77.66,77.66,0,0,0,80.14,2.56Z"/><circle class="cls-2" cx="78.28" cy="78.28" r="78.28"/><path class="cls-3" d="M111.28,39.72H47.15a3.82,3.82,0,0,0-3.82,3.82V123.1a3.82,3.82,0,0,0,3.82,3.82h64.13a3.82,3.82,0,0,0,3.82-3.82V43.54A3.82,3.82,0,0,0,111.28,39.72Z"/><rect class="cls-4" x="47.53" y="44.74" width="63.36" height="78.16"/><rect class="cls-2" x="47.53" y="42.82" width="63.36" height="78.16"/><rect class="cls-5" x="59.42" y="39.72" width="39.59" height="3.1"/><rect class="cls-6" x="59.42" y="42.82" width="39.59" height="6.82"/><path class="cls-1" d="M94.61,37.18H85a5.83,5.83,0,0,0-11.67,0H63.81a1.58,1.58,0,0,0-1.58,1.59v8.07h34V38.77A1.58,1.58,0,0,0,94.61,37.18Z"/><rect class="cls-1" x="51.7" y="73.03" width="6.05" height="8.36"/><rect class="cls-7" x="59.86" y="63.6" width="6.05" height="17.79"/><rect class="cls-8" x="68.01" y="54.06" width="6.05" height="27.33"/><rect class="cls-9" x="76.16" y="66.85" width="6.06" height="14.53"/><rect class="cls-10" x="51.7" y="78.76" width="6.05" height="2.62"/><rect class="cls-11" x="59.86" y="78.76" width="6.05" height="2.62"/><rect class="cls-12" x="68.01" y="78.76" width="6.05" height="2.62"/><rect class="cls-13" x="76.16" y="78.76" width="6.06" height="2.62"/><rect class="cls-14" x="51.7" y="85.66" width="55.03" height="1.87"/><rect class="cls-14" x="88.08" y="56.12" width="18.65" height="1.87"/><rect class="cls-14" x="88.08" y="63.51" width="18.65" height="1.87"/><rect class="cls-14" x="88.08" y="70.9" width="18.65" height="1.87"/><rect class="cls-14" x="88.08" y="78.28" width="18.65" height="1.87"/><rect class="cls-14" x="51.7" y="93.05" width="55.03" height="1.87"/><rect class="cls-14" x="51.7" y="100.25" width="55.03" height="18.51"/><rect class="cls-4" x="51.7" y="99.49" width="55.03" height="18.51"/><path class="cls-7" d="M52.71,117.5a.51.51,0,0,1-.34-.13.52.52,0,0,1-.06-.73l7-8.14a.52.52,0,0,1,.65-.11l7.76,4.37,6.86-7.11a.52.52,0,0,1,.64-.09l8.28,4.86,6.41-7.08a.52.52,0,0,1,.63-.11L98,107l6.42-5.51a.52.52,0,1,1,.68.79l-6.68,5.74a.53.53,0,0,1-.58.07l-7.4-3.81L84,111.43a.52.52,0,0,1-.65.1l-8.29-4.86-6.86,7.1a.53.53,0,0,1-.63.09l-7.74-4.36-6.73,7.82A.52.52,0,0,1,52.71,117.5Z"/><path class="cls-1" d="M52.71,117.5a.52.52,0,0,1-.21-1l8.59-3.9a.5.5,0,0,1,.42,0l6.13,2.56,6.18-3.29a.51.51,0,0,1,.38,0l8.26,2.27,7.59-4.54a.52.52,0,0,1,.39-.06l9.19,2.19,2.58-1.78a.52.52,0,0,1,.59.86L100,112.67a.51.51,0,0,1-.41.08l-9.21-2.2-7.6,4.55a.53.53,0,0,1-.41.05l-8.27-2.27-6.21,3.31a.51.51,0,0,1-.44,0l-6.15-2.57-8.39,3.81A.53.53,0,0,1,52.71,117.5Z"/></g></g></svg>