<svg xmlns="http://www.w3.org/2000/svg" xmlns:xlink="http://www.w3.org/1999/xlink" viewBox="0 0 128.47 128.47"><defs><style>.cls-1,.cls-2{fill:none;}.cls-2{stroke:#ec1c24;stroke-miterlimit:10;}.cls-3{fill:#f2f2f2;}.cls-4{fill:#26b99a;}.cls-5{clip-path:url(#clip-path);}.cls-6{fill:#c60a44;}</style><clipPath id="clip-path"><rect class="cls-1" x="24.5" y="28.25" width="78.98" height="71.48"/></clipPath></defs><title>Asset 24</title><g id="Layer_2" data-name="Layer 2"><g id="Layer_1-2" data-name="Layer 1"><circle class="cls-2" cx="64.74" cy="64.74" r="63.24"/><circle class="cls-3" cx="63.24" cy="63.24" r="63.24"/><path class="cls-4" d="M68.62,98a1.47,1.47,0,1,1,0-2.95c.94,0,1.88,0,2.8-.13a1.47,1.47,0,1,1,.27,2.93c-1,.09-2,.15-3.07.15Zm8.71-1.19a1.47,1.47,0,0,1-.4-2.89c.9-.25,1.8-.55,2.67-.88a1.47,1.47,0,1,1,1,2.75c-.95.36-1.93.69-2.92,1a1.59,1.59,0,0,1-.4,0Zm8.07-3.5a1.47,1.47,0,0,1-.76-2.73c.8-.48,1.58-1,2.33-1.56a1.47,1.47,0,0,1,1.75,2.36c-.82.61-1.68,1.19-2.55,1.72a1.52,1.52,0,0,1-.77.22Zm6.83-5.54a1.48,1.48,0,0,1-1.08-2.48q1-1,1.83-2.13a1.47,1.47,0,0,1,2.31,1.81c-.63.8-1.3,1.59-2,2.33a1.46,1.46,0,0,1-1.07.47Zm5.09-7.17a1.46,1.46,0,0,1-.68-.17,1.48,1.48,0,0,1-.63-2c.43-.82.83-1.68,1.19-2.54A1.47,1.47,0,0,1,99.92,77c-.39.95-.83,1.88-1.29,2.79a1.48,1.48,0,0,1-1.31.79Zm3-8.28a1.41,1.41,0,0,1-.3,0,1.47,1.47,0,0,1-1.14-1.74c.19-.91.35-1.85.45-2.77a1.47,1.47,0,1,1,2.92.34c-.12,1-.29,2-.49,3a1.47,1.47,0,0,1-1.44,1.16Zm0,0"/><g class="cls-5"><path class="cls-4" d="M101,64.13a1.46,1.46,0,0,1-1.47-1.47,30.89,30.89,0,0,0-61.77,0,1.47,1.47,0,1,1-2.94,0,33.82,33.82,0,1,1,67.64,0A1.46,1.46,0,0,1,101,64.13Zm0,0"/><path class="cls-4" d="M36.26,64.13a1.46,1.46,0,0,1-1-.43L24.93,53.41A1.47,1.47,0,1,1,27,51.33L37.3,61.63a1.47,1.47,0,0,1-1,2.51Zm0,0"/></g><path class="cls-4" d="M36.26,64.13a1.47,1.47,0,0,1-1-2.51l10.29-10.3a1.47,1.47,0,0,1,2.08,2.08L37.3,63.7a1.46,1.46,0,0,1-1,.43Zm0,0"/><path class="cls-6" d="M57.29,43.12q4.54,0,6.55,2.67a11.13,11.13,0,0,1,2,6.88v4.08H67.6a1.8,1.8,0,0,1,1.8,1.8v0a1.8,1.8,0,0,1-1.8,1.8H65.84V75a5.86,5.86,0,0,0,1.78,4.57A6.31,6.31,0,0,0,72,81.23a11.25,11.25,0,0,0,8.62-4.11,13.74,13.74,0,0,0,3.69-9.44q0-7.5-8.36-7.5l-.75,0a1.8,1.8,0,0,1-1.88-1.8h0a1.81,1.81,0,0,1,1.71-1.8q.66,0,1.31,0,5.66,0,8.82,3a10.69,10.69,0,0,1,3.16,8.1,17.39,17.39,0,0,1-4.67,12A15,15,0,0,1,72,84.85a10.47,10.47,0,0,1-7.27-2.63A9.16,9.16,0,0,1,61.83,75V60.37H57.64a1.8,1.8,0,0,1-1.8-1.8v0a1.8,1.8,0,0,1,1.8-1.8h4.19V52.67a7.32,7.32,0,0,0-1.12-4.44q-1.12-1.48-4.08-1.48h-.35A1.78,1.78,0,0,1,54.46,45h0a1.79,1.79,0,0,1,1.61-1.78A11.67,11.67,0,0,1,57.29,43.12Z"/></g></g></svg>