<svg xmlns="http://www.w3.org/2000/svg" xmlns:xlink="http://www.w3.org/1999/xlink" viewBox="0 0 128.47 128.47"><defs><style>.cls-1,.cls-12{fill:none;stroke-miterlimit:10;}.cls-1{stroke:#ec1c24;}.cls-2{fill:#f2f2f2;}.cls-3{fill:#e5e5da;}.cls-4{fill:url(#linear-gradient);}.cls-5{fill:#56816e;}.cls-6{fill:#f7fef7;}.cls-7{fill:#e71e25;}.cls-8{fill:#fefefe;}.cls-9{fill:url(#linear-gradient-2);}.cls-10{fill:url(#linear-gradient-3);}.cls-11{fill:#d1d0bf;}.cls-12{stroke:#bcbbaf;}.cls-13{fill:#e04f5f;}.cls-14{fill:#fff;}</style><linearGradient id="linear-gradient" x1="-1519.82" y1="1160.68" x2="-1478.21" y2="1160.68" gradientTransform="translate(1577.57 -1110.48)" gradientUnits="userSpaceOnUse"><stop offset="0" stop-color="#cec2ac"/><stop offset="0.12" stop-color="#c3d5b3"/><stop offset="0.25" stop-color="#bce1b7"/><stop offset="0.38" stop-color="#bae5b8"/><stop offset="0.5" stop-color="#cfe0bf"/><stop offset="0.64" stop-color="#dfdcc5"/><stop offset="0.8" stop-color="#e9dac9"/><stop offset="1" stop-color="#ecd9ca"/></linearGradient><linearGradient id="linear-gradient-2" x1="-1520.05" y1="1163.07" x2="-1478.44" y2="1163.07" gradientTransform="translate(1578.81 -1110.7)" xlink:href="#linear-gradient"/><linearGradient id="linear-gradient-3" x1="-1374.69" y1="1106.86" x2="-1333.08" y2="1106.86" gradientTransform="translate(1435.4 -1053.47)" xlink:href="#linear-gradient"/></defs><title>Asset 35</title><g id="Layer_2" data-name="Layer 2"><g id="Layer_1-2" data-name="Layer 1"><circle class="cls-1" cx="64.74" cy="64.74" r="63.24"/><circle class="cls-2" cx="63.24" cy="63.24" r="63.24"/><path class="cls-3" d="M101,52.42,93.39,64.24c-.07.11-.24.13-.3,0L74.18,32.18c-.06-.1,0-.24.17-.24l14-.92Zm0,0"/><rect class="cls-4" x="57.74" y="38.25" width="41.61" height="23.92" transform="translate(-14.62 47.11) rotate(-30.69)"/><path class="cls-5" d="M56.6,51,67.31,69.08,100.5,49.39,89.78,31.33Zm40.73-4a2.23,2.23,0,0,0-.83,3L69.82,65.89a2.23,2.23,0,0,0-3.07-.73l-7-11.75a2.23,2.23,0,0,0,.83-3L87.28,34.52a2.23,2.23,0,0,0,3.07.73Z"/><ellipse class="cls-6" cx="70.1" cy="55.22" rx="6.08" ry="7.41" transform="translate(-18.36 43.51) rotate(-30.69)"/><path class="cls-5" d="M72.57,59.56a3,3,0,0,1-1.25.38,2.31,2.31,0,0,1-1.25-.18,3.73,3.73,0,0,1-1-1.35l-.69-1.16a.49.49,0,0,0-.67-.17l-.67.4a.49.49,0,0,1-.67-.17l-.18-.3a.49.49,0,0,1,.17-.67L67,56a.49.49,0,0,0,.17-.67L67,55a12.4,12.4,0,0,0-.7-1,.5.5,0,0,0-.17-.15,1.33,1.33,0,0,0-.66-.14.48.48,0,0,1-.48-.5V52.9a.49.49,0,0,1,.46-.48,2.52,2.52,0,0,1,1.22.17,2.75,2.75,0,0,1,1.16,1.2l.49.82a.49.49,0,0,0,.67.17l.31-.19a.49.49,0,0,1,.67.17l.18.3a.49.49,0,0,1-.17.67l-.31.19a.49.49,0,0,0-.17.67l1,1.76a.48.48,0,0,0,.37.24,1.58,1.58,0,0,0,.9-.14,2.07,2.07,0,0,0,1-1.39,2.25,2.25,0,0,0-.25-1.7,1.26,1.26,0,0,0-1-.64.49.49,0,0,1-.39-.66l.14-.37a.5.5,0,0,1,.59-.29,2.81,2.81,0,0,1,1.77,1.31,3.57,3.57,0,0,1,.38,2.68A3.18,3.18,0,0,1,72.57,59.56Z"/><circle class="cls-7" cx="86.58" cy="46.82" r="3.22" transform="translate(-11.77 50.74) rotate(-30.69)"/><path class="cls-8" d="M87.73,44.12l2.54,4.27s0,.06,0,.08l-.35.21s0,0-.06,0l0,0L86.4,42.86c-.15-.25-.27-.52-.41-.78l-.39-.77-.43-.85c0-.07,0-.07-.1,0l-1.71,1.07s0,0,0,.07L84.43,43l.54.69,0,0,3.43,5.78s0,.06,0,.09L88,49.8s0,0-.06,0l0,0-3.26-5.5c-.15-.26-.33-.5-.5-.75l-.5-.73-.66-1s0,0-.09,0l-1.53.94s0,0,0,.07l.91,1.1.76.91.05.07,3.4,5.73s0,.06,0,.09l-.34.2s0,0-.06,0l-.61-1-2.67-4.5a6.08,6.08,0,0,0-.44-.62l-.61-.79-.67-.86-.29-.38s0,0,0-.06l2.09-1.29L85.14,40l.16-.1s0,0,.06,0l.48.89c.2.36.39.72.58,1.08C86.84,42.65,87.31,43.41,87.73,44.12Z"/><path class="cls-5" d="M86.53,50.72h0l-.33.2a.08.08,0,0,1-.06,0,.08.08,0,0,1,0,0l-.49-.83-.79-1.33-2-3.38a6.11,6.11,0,0,0-.44-.62L81.76,44,81,43l-.19-.25a.07.07,0,0,1,0-.11l2.09-1.29,2.23-1.38.15-.09a.08.08,0,0,1,.06,0,.08.08,0,0,1,0,0l.3.56L86,41l.43.8c.31.59.65,1.16,1,1.71l.33.56,2.54,4.27a.1.1,0,0,1,0,.08.1.1,0,0,1-.05.05l-.35.21a.07.07,0,0,1-.06,0,.07.07,0,0,1,0,0v0h0l-.86-1.44-2.57-4.33c-.1-.17-.19-.35-.27-.52L86,42.1l-.26-.52-.13-.25-.26-.51-.17-.34,0,0,0,0-.45.28-1.26.79h0l.72.93L85,43.64l0,.05.43.72,3,5.05a.1.1,0,0,1,0,.08.11.11,0,0,1-.06.06l-.37.22a.07.07,0,0,1-.06,0,.07.07,0,0,1,0,0v0h0l-.78-1.31-2.48-4.19c-.11-.19-.24-.38-.37-.56l-.13-.19L83.84,43l-.17-.25-.11-.16-.55-.8,0,0h0l-1.53.94h0l.73.88.37.44.57.69.05.08.76,1.27,2.65,4.46a.1.1,0,0,1,0,.08A.09.09,0,0,1,86.53,50.72Zm-.2,0,.16-.09,0,0h0v0l-2.65-4.46L83.1,44.9l0-.07-.57-.69-.37-.44-.73-.88a.07.07,0,0,1,0-.12l1.53-.94a.08.08,0,0,1,.13,0l.55.8.11.16.17.25.33.48.13.19c.12.18.25.37.37.56l2.48,4.19L88,49.74l0,0h0l.37-.22,0,0v0l-3-5.05L85,43.73l0,0L84,42.53l-.72-.93a.08.08,0,0,1,0-.06.09.09,0,0,1,0-.05l1.26-.79.45-.28s.06,0,.08,0,0,0,.06.07l.17.34.26.51.13.25.26.52.13.27c.08.17.17.35.27.51L89,47.18l.86,1.45,0,0h0l.35-.21h0v0l-2.54-4.27h0l-.33-.56c-.33-.55-.67-1.12-1-1.71l-.43-.8-.33-.61-.3-.56h0l-.16.1-2.23,1.38-2.09,1.29h0l.19.25.78,1,.59.77a6.15,6.15,0,0,1,.44.63l2,3.38L85.65,50l.49.83h0Z"/><path class="cls-8" d="M83.33,48.9l1.58,2.66s0,.06,0,.08l-.23.13s0,0-.05,0l0,0-3-5s0,0-.09,0L81,47s0,0,0,.08l2.87,4.83.15.24s0,0,0,.05l-.28.16s0,0-.06,0v0L80.46,47s0-.06,0-.09l1.19-.7s.06,0,.08,0Z"/><path class="cls-5" d="M84.91,51.67h0l-.22.13a.07.07,0,0,1-.06,0,.07.07,0,0,1,0,0v0h0L84,50.83l-2.44-4.12,0,0h0L81,47h0v0l2.46,4.14.45.75.11.18a.07.07,0,0,1,0,.06.07.07,0,0,1,0,0l-.28.16a.08.08,0,0,1-.06,0,.08.08,0,0,1,0,0h0l-.4-.67L80.43,47a.11.11,0,0,1,0-.08.1.1,0,0,1,.05-.06h0l1.19-.7h0a.09.09,0,0,1,.07,0,.1.1,0,0,1,.05.05L83,48.35l.63,1.06,1.26,2.13a.1.1,0,0,1,0,.07A.09.09,0,0,1,84.91,51.67Zm-.15,0,.1-.06h0v0l-1.26-2.13L83,48.39l-1.26-2.13v0h0l-1.19.7,0,0v0l2.76,4.65.39.66v0h0l.28-.16h0L83.83,52l-.45-.75-2.46-4.14a.09.09,0,0,1,0-.07A.09.09,0,0,1,81,47l.53-.32a.1.1,0,0,1,.08,0,.1.1,0,0,1,.06.05l2.44,4.12.55.92,0,0h0Z"/><path class="cls-8" d="M89.81,45.05l-1.58-2.66s0-.06,0-.08l1.19-.71s.05,0,.08,0L92.68,47s0,.05,0,.07l-.27.16s0,0-.05,0l0,0-3-5s0,0-.09,0l-.53.32s0,0,0,.08l1.1,1.84,1.9,3.2s0,.07,0,.09l-.22.13s0,0,0,0l0-.06Z"/><path class="cls-5" d="M91.7,47.64h0l-.2.12h0a.07.07,0,0,1-.06,0,.07.07,0,0,1,0,0l0,0v0l-1.78-3L88.2,42.41a.08.08,0,0,1,0-.13h0l1.19-.71a.08.08,0,0,1,.12,0l3.16,5.33a.09.09,0,0,1,0,.07.08.08,0,0,1,0,0l-.27.16a.08.08,0,0,1-.06,0,.07.07,0,0,1,0,0v0h0L92,46.6l-2.65-4.47,0,0h0l-.53.32h0v0l.9,1.51.52.87,1.59,2.67a.1.1,0,0,1,0,.08A.09.09,0,0,1,91.7,47.64Zm-.15,0,.1-.06,0,0h0v0l-1.59-2.67L89.56,44l-.9-1.51a.09.09,0,0,1,0-.07.1.1,0,0,1,0-.05l.53-.32a.1.1,0,0,1,.08,0,.1.1,0,0,1,.06.05L92,46.56l.34.57,0,0h0l.27-.16h0v0l-3.16-5.33v0h0l-1.19.71h0v0l1.35,2.28,1.79,3,0,0h0Z"/><path class="cls-8" d="M82,50.69l1.13,1.9s0,.05,0,.08l-.23.14s0,0-.06,0l0,0-2.08-3.51s0,0-.09,0l-.5.3s0,0,0,.08l2.09,3.52s0,.06,0,.09l-.24.14s0,0-.07,0l-.49-.83-1.77-3s0-.06,0-.08l1.15-.68s.05,0,.08,0Z"/><path class="cls-5" d="M82.18,53.22h0l-.24.14a.09.09,0,0,1-.06,0,.09.09,0,0,1-.05,0l-.39-.66-.35-.59-1.51-2.55a.1.1,0,0,1,0-.07.1.1,0,0,1,0-.05l1.15-.68h0a.07.07,0,0,1,.12,0l.9,1.52.45.76.9,1.52a.07.07,0,0,1,0,.12l-.23.13a.08.08,0,0,1-.06,0,.07.07,0,0,1,0,0h0l-.26-.44-1.82-3.07,0,0h0l-.5.3h0v0l1.12,1.88,1,1.64a.1.1,0,0,1,0,.08A.09.09,0,0,1,82.18,53.22Zm-.16,0,.12-.07h0v0l-1-1.64-1.12-1.88a.09.09,0,0,1,0-.07.09.09,0,0,1,0-.05l.5-.29a.08.08,0,0,1,.13,0l1.82,3.07.26.45v0h0l.23-.14h0v0l-.9-1.52-.45-.76-.9-1.52v0h0l-1.15.68h0v0l1.51,2.55.35.59.39.66h0Z"/><path class="cls-8" d="M92,44.71l-1.13-1.9s0-.05,0-.08L92.06,42s.05,0,.08,0l2.26,3.8s0,.05,0,.08l-.26.15s0,0,0,0l0,0L92,42.55s0-.05-.09,0l-.5.3s0,0,0,.08l2.09,3.52s0,.07,0,.09l-.21.12s-.05,0-.07,0Z"/><path class="cls-5" d="M93.46,46.53h0l-.2.12a.09.09,0,0,1-.07,0,.09.09,0,0,1-.05-.05l-1-1.63-.39-.65-.9-1.52a.09.09,0,0,1,0-.07.09.09,0,0,1,0-.05h0L92,42h0a.09.09,0,0,1,.07,0,.09.09,0,0,1,.05,0l2.26,3.8a.09.09,0,0,1,0,.07.09.09,0,0,1,0,.05l-.25.14h0a.07.07,0,0,1-.06,0,.07.07,0,0,1,0,0v0h0l-.3-.5-1.78-3,0,0h0l-.5.3h0v0l1,1.64,1.12,1.88a.1.1,0,0,1,0,.08A.09.09,0,0,1,93.46,46.53Zm-.15,0,.1-.06,0,0v0l-1.12-1.88-1-1.64a.09.09,0,0,1,0-.07.09.09,0,0,1,0-.05l.5-.3a.11.11,0,0,1,.07,0,.1.1,0,0,1,.06.05l1.78,3,.3.51v0h0l.25-.15h0v0l-2.26-3.8v0h0l-1.15.68h0v0l.9,1.52.39.65,1,1.63v0h0Z"/><rect class="cls-8" x="80.72" y="49.52" width="15.13" height="0.9" transform="translate(-13.14 52.05) rotate(-30.69)"/><path class="cls-5" d="M95.07,46.51,82,54.27l-.49-.83,13.06-7.75ZM82,54.18l13-7.69-.43-.72-13,7.69Z"/><rect class="cls-9" x="58.77" y="40.41" width="41.61" height="23.92" transform="translate(-15.58 47.94) rotate(-30.69)"/><path class="cls-5" d="M57.62,53.19,68.34,71.24l33.18-19.69L90.81,33.5Zm40.73-4a2.23,2.23,0,0,0-.83,3L70.84,68.05a2.23,2.23,0,0,0-3.07-.73l-7-11.75a2.23,2.23,0,0,0,.83-3L88.3,36.69a2.23,2.23,0,0,0,3.07.73Z"/><ellipse class="cls-6" cx="71.13" cy="57.38" rx="6.08" ry="7.41" transform="translate(-19.32 44.33) rotate(-30.69)"/><path class="cls-5" d="M73.59,61.73a3,3,0,0,1-1.25.38,2.31,2.31,0,0,1-1.25-.18,3.73,3.73,0,0,1-1-1.35l-.69-1.16a.49.49,0,0,0-.67-.17l-.67.4a.49.49,0,0,1-.67-.17l-.18-.3a.49.49,0,0,1,.17-.67l.67-.4a.49.49,0,0,0,.17-.67L68,57.14a12.4,12.4,0,0,0-.7-1,.5.5,0,0,0-.17-.15,1.33,1.33,0,0,0-.66-.14.48.48,0,0,1-.48-.5v-.25a.49.49,0,0,1,.46-.48,2.52,2.52,0,0,1,1.22.17A2.75,2.75,0,0,1,68.84,56l.49.82a.49.49,0,0,0,.67.17l.31-.19a.49.49,0,0,1,.67.17l.18.3a.49.49,0,0,1-.17.67l-.31.19a.49.49,0,0,0-.17.67l1,1.76a.48.48,0,0,0,.37.24,1.58,1.58,0,0,0,.9-.14,2.07,2.07,0,0,0,1-1.39,2.25,2.25,0,0,0-.25-1.7,1.26,1.26,0,0,0-1-.64.49.49,0,0,1-.39-.66l.14-.37a.5.5,0,0,1,.59-.29,2.81,2.81,0,0,1,1.77,1.31,3.57,3.57,0,0,1,.38,2.68A3.18,3.18,0,0,1,73.59,61.73Z"/><circle class="cls-7" cx="87.6" cy="48.98" r="3.22" transform="translate(-12.73 51.56) rotate(-30.69)"/><path class="cls-8" d="M88.76,46.28l2.54,4.27s0,.06,0,.08l-.35.21s0,0-.06,0l0,0L87.42,45c-.15-.25-.27-.52-.41-.78l-.39-.77-.43-.85c0-.07,0-.07-.1,0l-1.71,1.07s0,0,0,.07l1.08,1.39.54.69,0,0,3.43,5.78s0,.06,0,.09l-.37.22s0,0-.06,0l0,0-3.26-5.5c-.15-.26-.33-.5-.5-.75l-.5-.73-.66-1s0,0-.09,0l-1.53.94s0,0,0,.07l.91,1.1.76.91.05.07,3.4,5.73s0,.06,0,.09l-.34.2s0,0-.06,0l-.61-1-2.67-4.5a6.08,6.08,0,0,0-.44-.62l-.61-.79-.67-.86-.29-.38s0,0,0-.06l2.09-1.29,2.23-1.38.16-.1s0,0,.06,0l.48.89c.2.36.39.72.58,1.08C87.86,44.81,88.34,45.57,88.76,46.28Z"/><path class="cls-5" d="M87.55,52.89h0l-.33.2a.08.08,0,0,1-.06,0,.08.08,0,0,1,0,0l-.49-.83-.79-1.33-2-3.38a6.11,6.11,0,0,0-.44-.62l-.59-.77-.78-1-.19-.25a.07.07,0,0,1,0-.11l2.09-1.29,2.23-1.38L86.3,42a.08.08,0,0,1,.06,0,.08.08,0,0,1,0,0l.3.56.33.61.43.8c.31.59.65,1.16,1,1.71l.33.56,2.54,4.27a.1.1,0,0,1,0,.08.1.1,0,0,1-.05.05l-.35.21a.07.07,0,0,1-.06,0,.07.07,0,0,1,0,0v0h0L90,49.38,87.39,45c-.1-.17-.19-.35-.27-.52L87,44.26l-.26-.52-.13-.25L86.34,43l-.17-.34,0,0,0,0-.45.28-1.26.79h0l.72.93L86,45.81l0,.05.43.72,3,5.05a.1.1,0,0,1,0,.08.11.11,0,0,1-.06.06l-.37.22A.07.07,0,0,1,89,52a.07.07,0,0,1,0,0v0h0l-.78-1.31-2.48-4.19c-.11-.19-.24-.38-.37-.56l-.13-.19-.33-.48L84.69,45l-.11-.16L84,44l0,0h0l-1.53.94h0l.73.88.37.44.57.69.05.08.76,1.27,2.65,4.46a.1.1,0,0,1,0,.08A.09.09,0,0,1,87.55,52.89Zm-.2,0,.16-.09,0,0h0v0l-2.65-4.46-.76-1.27,0-.07-.57-.69-.37-.44L82.4,45a.07.07,0,0,1,0-.12L84,43.93a.08.08,0,0,1,.13,0l.55.8.11.16.17.25.33.48.13.19c.12.18.25.37.37.56l2.48,4.19L89,51.9l0,0h0l.37-.22,0,0v0l-3-5.05L86,45.89l0,0-.89-1.16-.72-.93a.08.08,0,0,1,0-.06.09.09,0,0,1,0-.05l1.26-.79.45-.28s.06,0,.08,0,0,0,.06.07l.17.34.26.51.13.25.26.52.13.27c.08.17.17.35.27.51L90,49.34l.86,1.45,0,0h0l.35-.21h0v0L88.73,46.3h0l-.33-.56c-.33-.55-.67-1.12-1-1.71l-.43-.8-.33-.61-.3-.56h0l-.16.1-2.23,1.38-2.09,1.29h0l.19.25.78,1,.59.77a6.15,6.15,0,0,1,.44.63l2,3.38.79,1.33.49.83h0Z"/><path class="cls-8" d="M84.35,51.07l1.58,2.66s0,.06,0,.08l-.23.13s0,0-.05,0l0,0-3-5s0,0-.09,0l-.53.32s0,0,0,.08l2.87,4.83.15.24s0,0,0,.05l-.28.16s0,0-.06,0v0l-3.15-5.31s0-.06,0-.09l1.19-.7s.06,0,.08,0Z"/><path class="cls-5" d="M85.93,53.83h0L85.7,54a.07.07,0,0,1-.06,0,.07.07,0,0,1,0,0v0h0L85,53,82.6,48.88l0,0h0l-.53.32h0v0l2.46,4.14.45.75.11.18a.07.07,0,0,1,0,.06.07.07,0,0,1,0,0l-.28.16a.08.08,0,0,1-.06,0,.08.08,0,0,1,0,0h0l-.4-.67-2.76-4.65a.11.11,0,0,1,0-.08.1.1,0,0,1,.05-.06h0l1.19-.7h0a.09.09,0,0,1,.07,0,.1.1,0,0,1,.05.05l1.26,2.13.63,1.06L86,53.71a.1.1,0,0,1,0,.07A.09.09,0,0,1,85.93,53.83Zm-.15,0,.1-.06h0v0l-1.26-2.13L84,50.55l-1.26-2.13v0h0l-1.19.7,0,0v0l2.76,4.65.39.66v0h0l.28-.16h0l-.11-.18-.45-.75L82,49.25a.09.09,0,0,1,0-.07.09.09,0,0,1,0-.05l.53-.32a.1.1,0,0,1,.08,0,.1.1,0,0,1,.06.05L85.09,53l.55.92,0,0h0Z"/><path class="cls-8" d="M90.83,47.22l-1.58-2.66s0-.06,0-.08l1.19-.71s.05,0,.08,0l3.17,5.33s0,.05,0,.07l-.27.16s0,0-.05,0l0,0-3-5s0,0-.09,0l-.53.32s0,0,0,.08l1.1,1.84,1.9,3.2s0,.07,0,.09l-.22.13s0,0,0,0l0-.06Z"/><path class="cls-5" d="M92.72,49.81h0l-.2.12h0a.07.07,0,0,1-.06,0,.07.07,0,0,1,0,0l0,0v0l-1.78-3-1.35-2.28a.08.08,0,0,1,0-.13h0l1.19-.71a.08.08,0,0,1,.12,0l3.16,5.33a.09.09,0,0,1,0,.07.08.08,0,0,1,0,0l-.27.16a.08.08,0,0,1-.06,0,.07.07,0,0,1,0,0v0h0L93,48.76l-2.65-4.47,0,0h0l-.53.32h0v0l.9,1.51.52.87,1.59,2.67a.1.1,0,0,1,0,.08A.09.09,0,0,1,92.72,49.81Zm-.15,0,.1-.06,0,0h0v0L91.1,47l-.52-.87-.9-1.51a.09.09,0,0,1,0-.07.1.1,0,0,1,0-.05l.53-.32a.1.1,0,0,1,.08,0,.1.1,0,0,1,.06.05L93,48.73l.34.57,0,0h0l.27-.16h0v0L90.51,43.8v0h0l-1.19.71h0v0l1.35,2.28,1.79,3,0,0h0Z"/><path class="cls-8" d="M83,52.85l1.13,1.9s0,.05,0,.08l-.23.14s0,0-.06,0l0,0-2.08-3.51s0,0-.09,0l-.5.3s0,0,0,.08l2.09,3.52s0,.06,0,.09l-.24.14s0,0-.07,0l-.49-.83-1.77-3s0-.06,0-.08l1.15-.68s.05,0,.08,0Z"/><path class="cls-5" d="M83.2,55.39h0l-.24.14a.09.09,0,0,1-.06,0,.09.09,0,0,1-.05,0l-.39-.66-.35-.59L80.58,51.7a.1.1,0,0,1,0-.07.1.1,0,0,1,0-.05l1.15-.68h0a.07.07,0,0,1,.12,0l.9,1.52.45.76.9,1.52a.07.07,0,0,1,0,.12l-.23.13a.08.08,0,0,1-.06,0,.07.07,0,0,1,0,0h0l-.26-.44-1.82-3.07,0,0h0l-.5.3h0v0l1.12,1.88,1,1.64a.1.1,0,0,1,0,.08A.09.09,0,0,1,83.2,55.39Zm-.16,0,.12-.07h0v0l-1-1.64-1.12-1.88a.09.09,0,0,1,0-.07.09.09,0,0,1,0-.05l.5-.29a.08.08,0,0,1,.13,0l1.82,3.07.26.45v0h0l.23-.14h0v0l-.9-1.52-.45-.76L81.82,51v0h0l-1.15.68h0v0l1.51,2.55.35.59.39.66h0Z"/><path class="cls-8" d="M93,46.87,91.92,45s0-.05,0-.08l1.15-.68s.05,0,.08,0L95.42,48s0,.05,0,.08l-.26.15s0,0,0,0l0,0L93,44.71s0-.05-.09,0l-.5.3s0,0,0,.08l2.09,3.52s0,.07,0,.09l-.21.12s-.05,0-.07,0Z"/><path class="cls-5" d="M94.48,48.69h0l-.2.12a.09.09,0,0,1-.07,0,.09.09,0,0,1-.05-.05l-1-1.63-.39-.65L91.89,45a.09.09,0,0,1,0-.07.09.09,0,0,1,0-.05h0l1.15-.68h0a.09.09,0,0,1,.07,0,.09.09,0,0,1,.05,0L95.45,48a.09.09,0,0,1,0,.07.09.09,0,0,1,0,.05l-.25.14h0a.07.07,0,0,1-.06,0,.07.07,0,0,1,0,0v0h0l-.3-.5-1.78-3,0,0h0l-.5.3h0v0l1,1.64,1.12,1.88a.1.1,0,0,1,0,.08A.09.09,0,0,1,94.48,48.69Zm-.15,0,.1-.06,0,0v0l-1.12-1.88-1-1.64a.09.09,0,0,1,0-.07.09.09,0,0,1,0-.05l.5-.3a.11.11,0,0,1,.07,0,.1.1,0,0,1,.06.05l1.78,3,.3.51v0h0l.25-.15h0v0l-2.26-3.8v0h0L92,44.92h0v0l.9,1.52.39.65,1,1.63v0h0Z"/><rect class="cls-8" x="81.75" y="51.68" width="15.13" height="0.9" transform="translate(-14.1 52.88) rotate(-30.69)"/><path class="cls-5" d="M96.09,48.68,83,56.43l-.49-.83,13.06-7.75ZM83,56.34l13-7.69-.43-.72-13,7.69Z"/><rect class="cls-10" x="60.7" y="41.43" width="41.61" height="23.92" transform="translate(-15.57 45.04) rotate(-28.31)"/><path class="cls-5" d="M59.54,53.3l10,18.48,34-18.3L93.51,35ZM100.4,51a2.23,2.23,0,0,0-1,3L72.13,68.69a2.23,2.23,0,0,0-3-.86l-6.48-12a2.23,2.23,0,0,0,1-3L90.88,38.08a2.23,2.23,0,0,0,3,.86Z"/><ellipse class="cls-6" cx="72.86" cy="58.05" rx="6.08" ry="7.41" transform="translate(-18.81 41.49) rotate(-28.31)"/><path class="cls-5" d="M75.14,62.49a3,3,0,0,1-1.27.33,2.31,2.31,0,0,1-1.24-.23,3.73,3.73,0,0,1-1-1.39L71,60a.49.49,0,0,0-.66-.2l-.69.37A.49.49,0,0,1,69,60l-.17-.31A.49.49,0,0,1,69,59l.69-.37a.49.49,0,0,0,.2-.66l-.17-.31a12.4,12.4,0,0,0-.65-1.07.5.5,0,0,0-.16-.16,1.33,1.33,0,0,0-.65-.16.48.48,0,0,1-.46-.52l0-.25a.49.49,0,0,1,.48-.46,2.52,2.52,0,0,1,1.21.22,2.75,2.75,0,0,1,1.1,1.25l.45.84a.49.49,0,0,0,.66.2l.32-.17a.49.49,0,0,1,.66.2l.17.31a.49.49,0,0,1-.2.66l-.32.17a.49.49,0,0,0-.2.66l1,1.8a.48.48,0,0,0,.36.25,1.58,1.58,0,0,0,.9-.1,2.07,2.07,0,0,0,1-1.35,2.25,2.25,0,0,0-.18-1.71,1.26,1.26,0,0,0-.94-.68.49.49,0,0,1-.37-.67l.16-.36a.5.5,0,0,1,.61-.27,2.81,2.81,0,0,1,1.72,1.38,3.57,3.57,0,0,1,.27,2.69A3.18,3.18,0,0,1,75.14,62.49Z"/><circle class="cls-7" cx="89.67" cy="50.34" r="3.22" transform="translate(-13.15 48.54) rotate(-28.31)"/><path class="cls-8" d="M90.94,47.69l2.36,4.38s0,.06,0,.08l-.36.19s0,0-.06,0l0,0-3.19-5.91c-.14-.26-.25-.53-.37-.8l-.36-.78-.39-.87c0-.07,0-.07-.09,0l-1.76,1s0,0,0,.07l1,1.44.51.72,0,.05,3.19,5.91s0,.07,0,.09l-.38.2s0,0-.06,0l0,0-3-5.63c-.14-.26-.31-.51-.46-.77L87,46.17l-.62-1s0,0-.09,0L84.68,46s0,0,0,.07l.86,1.13.72.94,0,.08,3.16,5.87s0,.06,0,.09l-.34.18s0,0-.06,0l-.57-1.06L86,48.71a6.08,6.08,0,0,0-.41-.64L85,47.25l-.63-.88L84.08,46s0,0,0-.06l2.14-1.2,2.29-1.29.16-.09s0,0,.06,0l.44.91c.18.37.36.74.54,1.11C90.11,46.18,90.55,47,90.94,47.69Z"/><path class="cls-5" d="M89.46,54.24h0l-.34.18a.08.08,0,0,1-.06,0,.08.08,0,0,1,0,0l-.46-.85-.73-1.36L86,48.72a6.11,6.11,0,0,0-.41-.64L85,47.29l-.74-1L84.06,46a.07.07,0,0,1,0-.11l2.14-1.2,2.29-1.29.16-.09a.08.08,0,0,1,.06,0,.08.08,0,0,1,0,0l.28.57.31.63.4.82c.28.6.6,1.18.9,1.74l.31.57L93.32,52a.1.1,0,0,1,0,.08.1.1,0,0,1-.05.05l-.36.19a.07.07,0,0,1-.06,0,.07.07,0,0,1,0,0v0h0L92,50.83l-2.39-4.43c-.09-.17-.17-.35-.25-.53l-.12-.27L89,45.06l-.11-.26-.24-.52-.16-.35,0,0,0,0-.46.26-1.29.74h0l.68,1,.84,1.19,0,.05.4.74,2.79,5.17a.1.1,0,0,1,0,.08.11.11,0,0,1-.06.05l-.38.2a.07.07,0,0,1-.06,0,.07.07,0,0,1,0,0v0h0L90.18,52l-2.31-4.29c-.11-.2-.23-.39-.34-.57l-.12-.19-.31-.49-.16-.26-.1-.17-.52-.83,0,0h0l-1.57.87h0l.7.91.35.46.54.71.05.08.7,1.3,2.46,4.57a.1.1,0,0,1,0,.08A.09.09,0,0,1,89.46,54.24Zm-.2,0,.17-.09h0v0L87,49.58l-.7-1.3,0-.07-.54-.71L85.34,47l-.7-.91a.08.08,0,0,1,0-.06s0,0,0-.05l1.57-.87a.08.08,0,0,1,.13,0l.52.83.11.17.16.26.31.49.12.19c.12.19.24.38.34.58L90.23,52,91,53.31v0h0l.38-.2,0,0v0l-2.79-5.17-.4-.74,0,0-.84-1.19-.68-1a.08.08,0,0,1,0-.07.09.09,0,0,1,0-.05L88,44.13l.46-.27s.06,0,.09,0,0,0,.06.07l.16.35.24.52.12.26.24.53.12.27c.08.17.16.36.25.53l2.39,4.43.8,1.49v0h0l.36-.19h0v0l-2.36-4.38h0l-.31-.57c-.3-.56-.62-1.15-.9-1.75l-.4-.82L89,43.94l-.28-.57h0l-.16.09-2.29,1.29-2.14,1.2h0l.18.26.74,1,.56.79a6.15,6.15,0,0,1,.42.64l1.86,3.46.73,1.36.46.85h0Z"/><path class="cls-8" d="M86.33,52.28,87.8,55s0,.06,0,.08l-.23.12s0,0-.05,0l0,0L84.7,50s0-.05-.09,0l-.55.29s0,0,0,.07l2.66,4.94.14.25s0,0,0,.05l-.28.15s0,0-.06,0v0l-2.93-5.44s0-.06,0-.09l1.22-.65s.06,0,.08,0Z"/><path class="cls-5" d="M87.8,55.11h0l-.23.12a.07.07,0,0,1-.06,0,.07.07,0,0,1,0,0v0h0l-.5-.94L84.67,50l0,0h0l-.55.29h0v0l2.28,4.24.42.77.1.18a.07.07,0,0,1,0,.06.07.07,0,0,1,0,0l-.28.15a.08.08,0,0,1-.07,0,.08.08,0,0,1,0,0h0L86.08,55l-2.56-4.76a.11.11,0,0,1,0-.08.1.1,0,0,1,.05-.06h0l1.22-.65h0a.09.09,0,0,1,.07,0,.1.1,0,0,1,.05.05l1.17,2.18.59,1.09L87.83,55a.1.1,0,0,1,0,.08A.09.09,0,0,1,87.8,55.11Zm-.15,0,.11-.05h0v0L86.6,52.84,86,51.75l-1.17-2.18v0h0l-1.22.65,0,0v0L86.14,55l.37.68v0h0l.28-.15h0l-.1-.18-.42-.77L84,50.37a.09.09,0,0,1,0-.07.09.09,0,0,1,.05,0L84.6,50a.1.1,0,0,1,.08,0,.1.1,0,0,1,.06.06L87,54.21l.51.95v0h0Z"/><path class="cls-8" d="M93,48.71,91.5,46s0-.06,0-.08l1.22-.66s.05,0,.07,0l2.94,5.46s0,.05,0,.07l-.27.15s0,0-.05,0l0,0-2.77-5.15s0-.05-.09,0L92,46s0,0,0,.07L93,48l1.77,3.28s0,.07,0,.09l-.23.12s0,0,0,0l0-.06Z"/><path class="cls-5" d="M94.75,51.37h0l-.21.11h0a.07.07,0,0,1-.06,0,.07.07,0,0,1,0,0l0,0v0l-1.66-3.08L91.47,46a.08.08,0,0,1,0-.13h0l1.22-.66a.08.08,0,0,1,.12,0l2.94,5.46a.09.09,0,0,1,0,.07.08.08,0,0,1,0,0l-.27.15a.08.08,0,0,1-.06,0,.07.07,0,0,1,0,0v0h0l-.31-.57L92.6,45.76l0,0h0L92,46h0v0l.83,1.55.48.89,1.47,2.73a.1.1,0,0,1,0,.08A.09.09,0,0,1,94.75,51.37Zm-.15,0,.1-.05,0,0h0v0l-1.47-2.73-.48-.89-.83-1.54a.09.09,0,0,1,0-.07S92,46,92,46l.55-.29a.1.1,0,0,1,.08,0,.1.1,0,0,1,.06.06l2.46,4.57.31.58,0,0h0l.27-.15h0v0l-2.94-5.46v0h0l-1.22.66h0v0l1.26,2.33,1.67,3.1,0,0h0Z"/><path class="cls-8" d="M84.89,54l1,1.94s0,.06,0,.08l-.24.13s0,0-.06,0v0l-1.93-3.59s0-.05-.09,0l-.51.27s0,0,0,.08L85,56.44s0,.06,0,.09l-.25.13s0,0-.07,0l-.46-.85-1.64-3s0-.06,0-.08L83.77,52s.05,0,.07,0Z"/><path class="cls-5" d="M85,56.55h0l-.24.13a.09.09,0,0,1-.06,0,.09.09,0,0,1,0,0L84.28,56l-.33-.6-1.41-2.61a.1.1,0,0,1,0-.07s0,0,.05-.05L83.75,52h0a.07.07,0,0,1,.12,0l.84,1.56.42.78L86,55.93a.07.07,0,0,1,0,.12l-.23.13a.08.08,0,0,1-.06,0,.07.07,0,0,1,0,0h0l-.24-.45-1.69-3.14,0,0h0l-.51.27h0v0l1,1.92L85,56.43a.1.1,0,0,1,0,.08A.09.09,0,0,1,85,56.55Zm-.16,0L85,56.5h0v0l-.91-1.68-1-1.92a.09.09,0,0,1,0-.07.09.09,0,0,1,.05-.05l.51-.27a.08.08,0,0,1,.13,0l1.69,3.14.25.46v0h0l.24-.13h0v0l-.84-1.55-.42-.78-.84-1.56v0h0l-1.17.63h0v0L84,55.34l.33.6.36.68h0Z"/><path class="cls-8" d="M95.2,48.45l-1-1.95s0-.05,0-.07l1.18-.63s.05,0,.07,0l2.1,3.89s0,.06,0,.08l-.26.14s0,0,0,0l0,0-1.93-3.59s0-.05-.09,0l-.51.28s0,0,0,.08l1.94,3.6s0,.07,0,.09l-.21.11s-.05,0-.07,0Z"/><path class="cls-5" d="M96.56,50.33h0l-.21.11a.09.09,0,0,1-.07,0,.09.09,0,0,1-.05-.05l-.9-1.67L95,48.08l-.84-1.56a.09.09,0,0,1,0-.07.09.09,0,0,1,0,0h0l1.18-.63h0a.09.09,0,0,1,.07,0,.09.09,0,0,1,.05,0l2.1,3.89a.09.09,0,0,1,0,.07.09.09,0,0,1,0,0l-.25.13h0a.07.07,0,0,1-.06,0,.07.07,0,0,1,0,0v0h0l-.28-.51-1.66-3.08,0,0h0l-.51.28h0v0l.91,1.68,1,1.92a.1.1,0,0,1,0,.08A.09.09,0,0,1,96.56,50.33Zm-.15,0,.11-.05h0v0l-1-1.92-.91-1.68a.09.09,0,0,1,0-.07.09.09,0,0,1,0,0l.51-.28a.11.11,0,0,1,.08,0,.1.1,0,0,1,.06.06l1.66,3.08.28.52v0h0l.25-.14h0v0l-2.1-3.89v0h0l-1.18.63h0v0L95,48l.36.67.9,1.67v0h0Z"/><rect class="cls-8" x="83.68" y="53.11" width="15.13" height="0.9" transform="translate(-14.49 49.68) rotate(-28.31)"/><path class="cls-5" d="M98.16,50.38l-13.38,7.2-.46-.85,13.38-7.2ZM84.82,57.5l13.26-7.14-.4-.74L84.42,56.76Z"/><polygon class="cls-11" points="22.48 62.05 74 31.88 93.16 64.39 41.64 94.56 22.48 62.05"/><line class="cls-12" x1="41.64" y1="94.56" x2="93.16" y2="64.39"/><path class="cls-13" d="M61.42,80.55l-4.77-3.85,3.07-5.32-6.48-.57-.57-6.23-5.45,2.61-3.75-4.87-3.52,5-5.68-2.95-.34,6.46-6.36.34,2.39,6.12-4.89,2.95,5,3.74-2.5,5.32,6.25.68.34,6.34,5.8-2.72,3.86,5.1,3.41-5.1,5.34,2.61L53,89.83l6.25-.11L57,84.51Z"/><path class="cls-14" d="M35.81,77.87s-1.19-.13-1.68-.13-.92.23-.92.61.23.49,1.19.79c1.24.4,1.62.74,1.62,1.69a1.75,1.75,0,0,1-2,1.83,10.67,10.67,0,0,1-1.91-.26l.12-.9s1.13.15,1.73.15.89-.29.89-.74-.2-.51-1-.75c-1.29-.37-1.78-.81-1.78-1.73,0-1.19.79-1.7,2-1.7A12,12,0,0,1,35.9,77Z"/><path class="cls-14" d="M40.08,81.41c0,.25.05.35.28.4l0,.85a1.87,1.87,0,0,1-1.2-.29,3.24,3.24,0,0,1-1.24.29c-.88,0-1.31-.49-1.31-1.38S37.12,80.05,38,80l.9-.07v-.26c0-.36-.16-.45-.5-.45-.56,0-1.58.07-1.58.07l0-.78a7.67,7.67,0,0,1,1.71-.24c1.09,0,1.53.43,1.53,1.41Zm-1.89-.64c-.29,0-.47.17-.47.47s.11.5.41.5a3.6,3.6,0,0,0,.83-.13v-.9Z"/><path class="cls-14" d="M41.2,76.66h1.13v5.89H41.2Z"/><path class="cls-14" d="M46.65,81.41c0,.25.05.35.28.4l0,.85a1.87,1.87,0,0,1-1.2-.29,3.24,3.24,0,0,1-1.24.29c-.88,0-1.31-.49-1.31-1.38s.55-1.22,1.47-1.29l.9-.07v-.26c0-.36-.16-.45-.5-.45-.56,0-1.58.07-1.58.07l0-.78a7.67,7.67,0,0,1,1.71-.24c1.09,0,1.53.43,1.53,1.41Zm-1.89-.64c-.29,0-.47.17-.47.47s.11.5.41.5a3.6,3.6,0,0,0,.83-.13v-.9Z"/><path class="cls-14" d="M47.73,78.34h1.12v.45a5.1,5.1,0,0,1,1.35-.55v1.14a10.49,10.49,0,0,0-1.34.35v2.82H47.73Z"/><path class="cls-14" d="M51.58,78.34l.77,3.25h.19l.77-3.25h1.11l-1.48,6h-1.1l.46-1.77h-.79l-1-4.21Z"/></g></g></svg>