<svg xmlns="http://www.w3.org/2000/svg" viewBox="0 0 128.47 128.47"><defs><style>.cls-1{fill:none;stroke:#ec1c24;stroke-miterlimit:10;}.cls-2{fill:#f2f2f2;}.cls-3{fill:#8fd9c2;}.cls-4{fill:#4bbcd6;}.cls-5{fill:#fff;}.cls-6{fill:#f23e6d;}.cls-7{fill:#ff7226;}.cls-8{fill:#f7ebd4;}.cls-9{fill:#ffd15d;}.cls-10{fill:#f56e92;}.cls-11{fill:#3e0412;}.cls-12{fill:#ff583e;}</style></defs><title>Asset 25</title><g id="Layer_2" data-name="Layer 2"><g id="Layer_1-2" data-name="Layer 1"><circle class="cls-1" cx="64.74" cy="64.74" r="63.24"/><circle class="cls-2" cx="63.24" cy="63.24" r="63.24"/><path class="cls-3" d="M54.75,28a6.64,6.64,0,0,0-6.64,6.64v55H68.29L71,58.81,68.29,28Zm0,0"/><path class="cls-4" d="M81.83,28H68.29V89.63H81.83A6.64,6.64,0,0,0,88.47,83V34.62A6.64,6.64,0,0,0,81.83,28Zm0,0"/><path class="cls-5" d="M82.32,37.95A3.94,3.94,0,1,1,78.38,34a3.94,3.94,0,0,1,3.94,3.94Zm0,0"/><path class="cls-5" d="M82.32,51.86a3.94,3.94,0,1,1-3.94-3.94,3.94,3.94,0,0,1,3.94,3.94Zm0,0"/><path class="cls-5" d="M82.32,65.76a3.94,3.94,0,1,1-3.94-3.94,3.94,3.94,0,0,1,3.94,3.94Zm0,0"/><path class="cls-5" d="M82.32,79.67a3.94,3.94,0,1,1-3.94-3.94,3.94,3.94,0,0,1,3.94,3.94Zm0,0"/><path class="cls-5" d="M62.16,37.95A3.94,3.94,0,1,1,58.22,34a3.94,3.94,0,0,1,3.94,3.94Zm0,0"/><polyline class="cls-6" points="59.16 51.19 59.16 45.8 30.34 45.8 30.34 51.19"/><path class="cls-7" d="M30.34,49.83l-1.76,1a4.09,4.09,0,0,0-1.76,3.24v7.14l17.92,2.71,17.93-2.71V54.08a4.09,4.09,0,0,0-1.76-3.24l-1.76-1"/><path class="cls-7" d="M26.82,82.92v3.36a3.37,3.37,0,0,0,3.36,3.36H59.32a3.37,3.37,0,0,0,3.36-3.36V82.92L44.75,80.21Zm0,0"/><rect class="cls-8" x="26.82" y="61.22" width="35.85" height="21.7"/><path class="cls-9" d="M29.6,38.74a1.68,1.68,0,0,0-1.68,1.68V45.8H36l-1.35-7.06Zm0,0"/><path class="cls-9" d="M61.57,40.42a1.68,1.68,0,0,0-1.68-1.68H54.84L53.49,45.8h8.08Zm0,0"/><path class="cls-9" d="M41.38,38.74,40,45.8h9.44l-1.35-7.06Zm0,0"/><rect class="cls-8" x="34.65" y="38.74" width="6.73" height="7.06"/><rect class="cls-8" x="48.11" y="38.74" width="6.73" height="7.06"/><path class="cls-9" d="M38.67,66.93a5.14,5.14,0,0,0,0,10.29h6.08V66.93Zm0,0"/><path class="cls-10" d="M50.83,66.93H44.75V77.22h6.08a5.14,5.14,0,0,0,0-10.29Zm0,0"/><path class="cls-11" d="M56.57,35.52a2.93,2.93,0,0,1,3.3,0A1,1,0,1,0,61,33.87a5,5,0,0,0-5.59,0,1,1,0,1,0,1.14,1.68Zm0,0"/><path class="cls-12" d="M101.15,77.29l-6-4.82L99,65.8l-8.11-.71-.71-7.8-6.83,3.26-4.7-6.1-4.41,6.24L67.14,57l-.43,8.09-8,.43,3,7.66-6.12,3.69,6.26,4.68-3.13,6.67,7.83.85L67,97l7.26-3.4L79.09,100l4.27-6.38,6.69,3.26.57-7.94,7.83-.14L95.6,82.25Z"/><path class="cls-5" d="M71.73,66.58A5,5,0,0,1,75.47,68a5.67,5.67,0,0,1,1.43,4.14v1.14H78V77H76.9l0,5.2a1.72,1.72,0,0,0,.63,1.45,2.55,2.55,0,0,0,1.62.49A3.33,3.33,0,0,0,82,82.85a5.24,5.24,0,0,0,1-3.25Q83,77,80.69,77a6.6,6.6,0,0,0-1.29.12V73.35a8.79,8.79,0,0,1,1.94-.22,5.54,5.54,0,0,1,4.46,1.77,7,7,0,0,1,1.51,4.69,8.37,8.37,0,0,1-2.18,5.85,7.63,7.63,0,0,1-5.94,2.4,7.31,7.31,0,0,1-4.65-1.49,5,5,0,0,1-1.91-4.14V77H70.19V73.32h2.43V73q0-2.4-2-2.4-.86,0-1.14,0V66.8A13.69,13.69,0,0,1,71.73,66.58Z"/></g></g></svg>