<svg xmlns="http://www.w3.org/2000/svg" viewBox="0 0 128.47 128.47"><defs><style>.cls-1{fill:none;stroke:#ec1c24;stroke-miterlimit:10;}.cls-2{fill:#f2f2f2;}.cls-3{fill:#f5f7f7;}.cls-4{fill:#d8d8d8;}.cls-5{fill:#efefef;}.cls-6{fill:#cecece;}.cls-7{fill:#939393;}.cls-8{fill:#adadad;}.cls-9{fill:#828282;}.cls-10{fill:#e4f1f2;}.cls-11{fill:#78988d;}.cls-12{fill:#a1d3cb;}.cls-13{fill:#666;}.cls-14{fill:#c6c6c6;}.cls-15{fill:#e0e0e0;}.cls-16{fill:#b7b7b7;}</style></defs><title>Asset 17</title><g id="Layer_2" data-name="Layer 2"><g id="Layer_1-2" data-name="Layer 1"><circle class="cls-1" cx="64.74" cy="64.74" r="63.24"/><circle class="cls-2" cx="63.24" cy="63.24" r="63.24"/><path class="cls-3" d="M105.28,67.58v9a1.8,1.8,0,0,1-1.8,1.8H67.58V89.12h3.59a3.59,3.59,0,0,1,3.59,3.59v7.18h7.18a1.8,1.8,0,0,1,1.8,1.8v1.8a1.8,1.8,0,0,1-1.8,1.8H46a1.8,1.8,0,0,1-1.8-1.8v-1.8a1.8,1.8,0,0,1,1.8-1.8h7.18V92.71a3.59,3.59,0,0,1,3.59-3.59H60.4V78.35H24.49a1.8,1.8,0,0,1-1.8-1.8v-9A3.59,3.59,0,0,1,26.28,64h5.39l18-25.14H46a1.8,1.8,0,0,1-1.8-1.8v-1.8a1.8,1.8,0,0,1,1.8-1.8A10.77,10.77,0,0,1,56.81,22.69H71.17A10.77,10.77,0,0,1,81.94,33.46a1.8,1.8,0,0,1,1.8,1.8v1.8a1.8,1.8,0,0,1-1.8,1.8H78.35L96.3,64h5.39a3.59,3.59,0,0,1,3.59,3.59Zm0,0"/><path class="cls-4" d="M105.28,67.58v9a1.8,1.8,0,0,1-1.8,1.8H67.58V89.12h3.59a3.59,3.59,0,0,1,3.59,3.59v7.18h7.18a1.8,1.8,0,0,1,1.8,1.8v1.8a1.8,1.8,0,0,1-1.8,1.8H46a1.8,1.8,0,0,1-1.8-1.8v-1.8a1.8,1.8,0,0,1,1.8-1.8h7.18V92.71a3.59,3.59,0,0,1,3.59-3.59H60.4V78.35H24.49a1.8,1.8,0,0,1-1.8-1.8v-9A3.59,3.59,0,0,1,26.28,64h75.41a3.59,3.59,0,0,1,3.59,3.59Zm0,0"/><path class="cls-5" d="M53.21,99.89v5.39H46a1.8,1.8,0,0,1-1.8-1.8v-1.8a1.8,1.8,0,0,1,1.8-1.8Zm0,0"/><path class="cls-6" d="M81.94,99.89a1.8,1.8,0,0,1,1.8,1.8v1.8a1.8,1.8,0,0,1-1.8,1.8H74.76V99.89Zm0,0"/><path class="cls-7" d="M83.74,101.69v1.8a1.8,1.8,0,0,1-1.8,1.8H46a1.8,1.8,0,0,1-1.8-1.8v-1.8Zm0,0"/><path class="cls-8" d="M53.21,105.28H46a1.8,1.8,0,0,1-1.8-1.8v-1.8h9Zm0,0"/><path class="cls-9" d="M74.76,101.69h9v1.8a1.8,1.8,0,0,1-1.8,1.8H74.76Zm0,0"/><path class="cls-10" d="M96.3,64v3.59H31.67V64l18-25.14H46a1.8,1.8,0,0,1-1.8-1.8v-1.8a1.8,1.8,0,0,1,1.8-1.8A10.77,10.77,0,0,1,56.81,22.69H71.17A10.77,10.77,0,0,1,81.94,33.46a1.8,1.8,0,0,1,1.8,1.8v1.8a1.8,1.8,0,0,1-1.8,1.8H78.35Zm0,0"/><path class="cls-3" d="M80.15,64v3.59H47.83V64l5.39-26.93H74.76Zm0,0"/><path class="cls-11" d="M105.28,67.58V73H22.69V67.58A3.59,3.59,0,0,1,26.28,64h75.41a3.59,3.59,0,0,1,3.59,3.59Zm0,0"/><rect class="cls-12" x="47.83" y="63.99" width="32.32" height="8.98"/><path class="cls-9" d="M105.28,71.17v5.39a1.8,1.8,0,0,1-1.8,1.8H67.58V89.12h3.59a3.59,3.59,0,0,1,3.59,3.59v7.18H53.21V92.71a3.59,3.59,0,0,1,3.59-3.59H60.4V78.35H24.49a1.8,1.8,0,0,1-1.8-1.8V71.17Zm0,0"/><path class="cls-7" d="M64,99.89H53.21V92.71a3.59,3.59,0,0,1,3.59-3.59H64Zm0,0"/><path class="cls-13" d="M60.4,85.53V78.35h7.18Zm0,0"/><rect class="cls-13" x="22.69" y="71.17" width="82.59" height="1.8"/><path class="cls-14" d="M83.74,35.26H44.24a1.8,1.8,0,0,1,1.8-1.8A10.77,10.77,0,0,1,56.81,22.69H71.17A10.77,10.77,0,0,1,81.94,33.46a1.8,1.8,0,0,1,1.8,1.8Zm0,0"/><path class="cls-15" d="M64,22.69A10.77,10.77,0,0,0,53.21,33.46v1.8H46v-1.8A10.77,10.77,0,0,1,56.81,22.69Zm0,0"/><path class="cls-16" d="M71.17,22.69A10.77,10.77,0,0,1,81.94,33.46v1.8H74.76v-1.8A10.77,10.77,0,0,0,64,22.69Zm0,0"/><path class="cls-4" d="M83.74,35.26v1.8a1.8,1.8,0,0,1-1.8,1.8H46a1.8,1.8,0,0,1-1.8-1.8v-1.8a1.8,1.8,0,0,1,1.8-1.8H81.94a1.8,1.8,0,0,1,1.8,1.8Zm0,0"/><path class="cls-5" d="M53.21,33.46v5.39H46a1.8,1.8,0,0,1-1.8-1.8v-1.8a1.8,1.8,0,0,1,1.8-1.8Zm0,0"/><path class="cls-6" d="M83.74,35.26v1.8a1.8,1.8,0,0,1-1.8,1.8H74.76V33.46h7.18a1.8,1.8,0,0,1,1.8,1.8Zm0,0"/><path class="cls-12" d="M56.81,37.06v3.59a1.8,1.8,0,0,1-1.8,1.8H51.42a1.8,1.8,0,0,1-1.8-1.8V37.06Zm0,0"/><path class="cls-11" d="M56.81,37.06v3.59a1.8,1.8,0,0,1-1.8,1.8h-1.8V37.06Zm0,0"/><path class="cls-12" d="M67.58,37.06v3.59a1.8,1.8,0,0,1-1.8,1.8H62.19a1.8,1.8,0,0,1-1.8-1.8V37.06Zm0,0"/><path class="cls-11" d="M67.58,37.06v3.59a1.8,1.8,0,0,1-1.8,1.8H64V37.06Zm0,0"/><path class="cls-12" d="M78.35,37.06v3.59a1.8,1.8,0,0,1-1.8,1.8H73a1.8,1.8,0,0,1-1.8-1.8V37.06Zm0,0"/><path class="cls-11" d="M78.35,37.06v3.59a1.8,1.8,0,0,1-1.8,1.8h-1.8V37.06Zm0,0"/><path class="cls-7" d="M83.74,35.26v1.8a1.8,1.8,0,0,1-1.8,1.8H46a1.8,1.8,0,0,1-1.8-1.8v-1.8Zm0,0"/><path class="cls-8" d="M53.21,38.85H46a1.8,1.8,0,0,1-1.8-1.8v-1.8h9Zm0,0"/><path class="cls-9" d="M81.94,38.85H74.76V35.26h9v1.8a1.8,1.8,0,0,1-1.8,1.8Zm0,0"/></g></g></svg>