<svg xmlns="http://www.w3.org/2000/svg" viewBox="0 0 128.47 128.47"><defs><style>.cls-1{fill:none;stroke:#ec1c24;stroke-miterlimit:10;}.cls-2{fill:#f2f2f2;}.cls-3{fill:#e4c05c;}.cls-4{fill:#556080;}.cls-5{fill:#8697cb;}</style></defs><title>Asset 44</title><g id="Layer_2" data-name="Layer 2"><g id="Layer_1-2" data-name="Layer 1"><circle class="cls-1" cx="64.74" cy="64.74" r="63.24"/><circle class="cls-2" cx="63.24" cy="63.24" r="63.24"/><rect class="cls-3" x="53.29" y="43.25" width="20.07" height="16.06"/><path class="cls-4" d="M70.68,43.25H68V38.56a4.68,4.68,0,0,0-9.37,0v4.68H56V38.56a7.36,7.36,0,0,1,14.72,0Zm0,0"/><path class="cls-4" d="M89.41,96.77H38.57a13.38,13.38,0,1,1,0-26.76H89.41a13.38,13.38,0,0,1,0,26.76Zm0,0"/><path class="cls-5" d="M44.66,79.51l-3.41,1.71V76.7a1.34,1.34,0,1,0-2.68,0v4.53l-3.42-1.7A1.34,1.34,0,1,0,34,81.91l3.92,2-3.05,4.07a1.33,1.33,0,0,0,.27,1.87,1.29,1.29,0,0,0,.8.27A1.32,1.32,0,0,0,37,89.54l2.95-3.93,2.94,3.93A1.34,1.34,0,0,0,45,87.94l-3.05-4.07,3.92-2a1.34,1.34,0,0,0-1.2-2.4Zm0,0"/><path class="cls-5" d="M60.71,79.51,57.3,81.22V76.7a1.34,1.34,0,1,0-2.67,0v4.53l-3.42-1.7A1.34,1.34,0,1,0,50,81.91l3.92,2-3.05,4.07a1.34,1.34,0,0,0,.27,1.87,1.32,1.32,0,0,0,.8.27A1.34,1.34,0,0,0,53,89.54L56,85.61l2.95,3.93A1.34,1.34,0,0,0,61,87.94L58,83.87l3.92-2a1.34,1.34,0,0,0-1.2-2.4Zm0,0"/><path class="cls-5" d="M76.77,79.51l-3.42,1.71V76.7a1.34,1.34,0,1,0-2.68,0v4.53l-3.42-1.7a1.34,1.34,0,0,0-1.2,2.39l3.92,2-3.05,4.07a1.33,1.33,0,1,0,2.14,1.6L72,85.61,75,89.54a1.33,1.33,0,1,0,2.14-1.6L74,83.87l3.92-2a1.34,1.34,0,0,0-1.2-2.4Zm0,0"/><path class="cls-5" d="M94.62,80.11a1.34,1.34,0,0,0-1.8-.59l-3.42,1.7V76.7a1.34,1.34,0,1,0-2.67,0v4.53l-3.42-1.7a1.34,1.34,0,1,0-1.2,2.39l3.91,2L83,87.94a1.33,1.33,0,0,0,.27,1.87,1.34,1.34,0,0,0,1.87-.27l2.95-3.93L91,89.54a1.34,1.34,0,0,0,2.14-1.6l-3.05-4.07,3.91-2a1.33,1.33,0,0,0,.6-1.8Zm0,0"/></g></g></svg>