<svg xmlns="http://www.w3.org/2000/svg" viewBox="0 0 128.47 128.47"><defs><style>.cls-1{fill:none;stroke:#ec1c24;stroke-miterlimit:10;}.cls-2{fill:#f2f2f2;}.cls-3{fill:#8ad7f8;}.cls-4{fill:#ffd15c;}.cls-5{fill:#f3f3f3;}.cls-6{fill:#e8eae9;}.cls-7{fill:#415a6b;}.cls-8{fill:#344a5e;}.cls-9{fill:#f3705a;}</style></defs><title>Asset 41</title><g id="Layer_2" data-name="Layer 2"><g id="Layer_1-2" data-name="Layer 1"><circle class="cls-1" cx="64.74" cy="64.74" r="63.24"/><circle class="cls-2" cx="63.24" cy="63.24" r="63.24"/><polygon class="cls-3" points="41.13 27.89 45.19 36.16 54.36 37.52 47.74 43.98 49.4 53.16 41.13 48.8 33.01 53.16 34.51 43.98 27.89 37.52 37.07 36.16 41.13 27.89"/><polygon class="cls-3" points="86.85 27.89 90.91 36.16 100.08 37.52 93.46 43.98 94.97 53.16 86.85 48.8 78.58 53.16 80.23 43.98 73.61 37.52 82.79 36.16 86.85 27.89"/><path class="cls-4" d="M50.6,95.72l-2.41-.3H45.79V78.73h1.5l3.76-2.11A26.63,26.63,0,0,0,61.88,65.49v-.15a4.27,4.27,0,0,0,.6-2l.6-2.71s1.8-1.2,2.86,1.2c0,0,1.5,4.06-.6,7.37-.3,1.5-2.41,3.16-2.26,4.51a3.28,3.28,0,0,0,2.71.6c1.35-.45,5,.3,5.71,2.11a2.68,2.68,0,0,1-1.35,4.21,3.26,3.26,0,0,1,1.5,2.71A3,3,0,0,1,70,85.94a2.53,2.53,0,0,1,.6,2.86c-.75,1.65-1.65,1.8-1.65,1.8s1.35,2,.45,3.31h0a6.12,6.12,0,0,1-2.86,2C62.33,97.07,56.62,96.47,50.6,95.72Z"/><path class="cls-5" d="M63.08,60.83l-.6,2.71a2.14,2.14,0,0,1-.3.9c1.35.15,1.8-1.05,2-2.11C64.29,61.43,63.08,60.83,63.08,60.83Z"/><rect class="cls-6" x="41.43" y="77.97" width="6.17" height="19.1"/><rect class="cls-7" x="27.89" y="77.22" width="16.69" height="22.86"/><circle class="cls-8" cx="39.47" cy="95.27" r="2.26"/><polygon class="cls-9" points="63.99 27.89 69.7 39.47 82.48 41.43 73.31 50.45 75.42 63.08 63.99 57.07 52.56 63.08 54.66 50.45 45.49 41.43 58.27 39.47 63.99 27.89"/></g></g></svg>