<svg xmlns="http://www.w3.org/2000/svg" viewBox="0 0 128.47 128.47"><defs><style>.cls-1{fill:none;stroke:#ec1c24;stroke-miterlimit:10;}.cls-2{fill:#f2f2f2;}.cls-3{fill:#1a76a1;}.cls-4{fill:#e0e5e8;}.cls-5{fill:#ebeff2;}.cls-6{fill:#e56354;}.cls-7{fill:#fad362;}.cls-8{fill:#f4c158;}</style></defs><title>Asset 37</title><g id="Layer_2" data-name="Layer 2"><g id="Layer_1-2" data-name="Layer 1"><circle class="cls-1" cx="64.74" cy="64.74" r="63.24"/><circle class="cls-2" cx="63.24" cy="63.24" r="63.24"/><path class="cls-3" d="M102.53,85.75H25.45V53.5l37-19.78a3.08,3.08,0,0,1,2.9,0L102.53,53.5Z"/><polygon class="cls-4" points="83.64 34.9 36.24 34.9 36.24 78.73 91.74 78.73 91.74 42.99 83.64 34.9"/><polygon class="cls-5" points="83.64 42.99 91.74 42.99 83.64 34.9 83.64 42.99"/><path class="cls-6" d="M52,54a7.92,7.92,0,0,1-2.25-.78,1.18,1.18,0,0,1-.53-1,1.12,1.12,0,0,1,.53-1,2.47,2.47,0,0,1,1.35-.34,5.19,5.19,0,0,1,1.67.29,3.81,3.81,0,0,1,1.34.74l1-1.42a5.54,5.54,0,0,0-1.82-1,6.69,6.69,0,0,0-2.13-.35,4.54,4.54,0,0,0-2.79.84,2.8,2.8,0,0,0-1.13,2.39,2.7,2.7,0,0,0,1,2.3,4.22,4.22,0,0,0,1.14.65,15.64,15.64,0,0,0,1.87.54,5.3,5.3,0,0,1,1.73.66,1.17,1.17,0,0,1,.5,1,1.23,1.23,0,0,1-.54,1,2.41,2.41,0,0,1-1.45.39,5.32,5.32,0,0,1-3.52-1.47l-1.18,1.42a6.79,6.79,0,0,0,4.65,1.81,4.39,4.39,0,0,0,2.89-.91,2.93,2.93,0,0,0,1.1-2.38,2.77,2.77,0,0,0-.87-2.22A6.19,6.19,0,0,0,52,54Z"/><polygon class="cls-6" points="64.07 56.39 60.69 49.37 57.75 49.37 57.75 60.55 59.64 60.55 59.64 51.82 63.52 59.57 64.58 59.57 68.48 51.82 68.48 60.55 70.37 60.55 70.37 49.37 67.44 49.37 64.07 56.39"/><path class="cls-6" d="M80.34,55.17A6.19,6.19,0,0,0,77.75,54a7.92,7.92,0,0,1-2.25-.78,1.18,1.18,0,0,1-.53-1,1.12,1.12,0,0,1,.53-1,2.47,2.47,0,0,1,1.35-.34,5.19,5.19,0,0,1,1.67.29,3.81,3.81,0,0,1,1.34.74l1-1.42a5.54,5.54,0,0,0-1.82-1,6.69,6.69,0,0,0-2.13-.35,4.54,4.54,0,0,0-2.79.84A2.8,2.8,0,0,0,73,52.33a2.7,2.7,0,0,0,1,2.3,4.22,4.22,0,0,0,1.14.65,15.64,15.64,0,0,0,1.87.54,5.3,5.3,0,0,1,1.73.66,1.17,1.17,0,0,1,.5,1,1.23,1.23,0,0,1-.54,1,2.41,2.41,0,0,1-1.45.39,5.32,5.32,0,0,1-3.52-1.47l-1.18,1.42a6.79,6.79,0,0,0,4.65,1.81,4.39,4.39,0,0,0,2.89-.91,2.93,2.93,0,0,0,1.1-2.38A2.77,2.77,0,0,0,80.34,55.17Z"/><path class="cls-7" d="M102.52,53.5v38a3.09,3.09,0,0,1-3.08,3.08H28.53a3.07,3.07,0,0,1-2.6-1.43,3,3,0,0,1-.48-1.65v-38L58.79,74.59l5.12,3.24L69,74.59Z"/><path class="cls-8" d="M102,93.18a3.06,3.06,0,0,1-2.6,1.43H28.53a3.07,3.07,0,0,1-2.6-1.43l13.12-7.43L58.79,74.59l2.44-1.38a5.23,5.23,0,0,1,5.36,0L69,74.59l19.8,11.16Z"/><path class="cls-6" d="M47.55,41.12a2,2,0,0,0-.55-.95,3.5,3.5,0,0,0-1.48-.82,3.5,3.5,0,0,0-.93-1.42,2,2,0,0,0-1-.47,2.63,2.63,0,0,0-2.44,1.34,4.65,4.65,0,0,0-.52,4.84,1.44,1.44,0,0,0,1,.9,4.65,4.65,0,0,0,4.78-.88A2.63,2.63,0,0,0,47.55,41.12Z"/><path class="cls-6" d="M70.8,67a1.67,1.67,0,0,0-.45-.79,2.91,2.91,0,0,0-1.23-.68,2.91,2.91,0,0,0-.77-1.18,1.67,1.67,0,0,0-.82-.39,2.19,2.19,0,0,0-2,1.11,3.87,3.87,0,0,0-.43,4,1.19,1.19,0,0,0,.81.75,3.87,3.87,0,0,0,4-.73A2.19,2.19,0,0,0,70.8,67Z"/><path class="cls-6" d="M73.44,37.48a1.67,1.67,0,0,0-.79.45A2.91,2.91,0,0,0,72,39.17a2.91,2.91,0,0,0-1.18.77,1.67,1.67,0,0,0-.39.82,2.19,2.19,0,0,0,1.11,2,3.87,3.87,0,0,0,4,.43,1.19,1.19,0,0,0,.75-.81,3.87,3.87,0,0,0-.73-4A2.19,2.19,0,0,0,73.44,37.48Z"/></g></g></svg>