<svg xmlns="http://www.w3.org/2000/svg" xmlns:xlink="http://www.w3.org/1999/xlink" viewBox="0 0 178.5 142.31"><defs><style>.cls-1,.cls-2,.cls-9{fill-rule:evenodd;}.cls-1{fill:url(#linear-gradient);}.cls-2,.cls-5{fill:#2e3191;}.cls-3{fill:#f7c1d8;}.cls-4{fill:#363639;}.cls-6{fill:#231f20;}.cls-7{fill:#fff;}.cls-8{fill:#ffc50a;}.cls-9{fill:#fff100;}</style><linearGradient id="linear-gradient" x1="-135.25" y1="7133.08" x2="-135.25" y2="6906.34" gradientTransform="translate(166.65 -3640.69) scale(0.58 0.53)" gradientUnits="userSpaceOnUse"><stop offset="0" stop-color="#fff"/><stop offset="1" stop-color="#fcc47a"/></linearGradient></defs><title>Asset 28</title><g id="Layer_2" data-name="Layer 2"><g id="Layer_1-2" data-name="Layer 1"><path class="cls-1" d="M37.4,121.15V47.58S35.15,29.69,88.57.26h.38c53.42,29.43,51.16,47.32,51.16,47.32v73.57Z"/><path class="cls-2" d="M88.95,0H88.5l-.06,0c-53,29.17-51.39,46.85-51.29,47.58v73.8H140.37V47.58c.09-.7,1.67-18.37-51.3-47.55L89,0Zm-.07.51c49.36,27.2,51,44.68,51,46.82a2.14,2.14,0,0,1,0,.22v73.35H37.66V47.58a1.29,1.29,0,0,1,0-.23c0-2.19,1.66-19.65,51-46.84Z"/><path class="cls-3" d="M169.22,62.41l9,25.68s-9.29-2.24-13.39-8.23Z"/><path class="cls-4" d="M169.05,62.37l-4.4,17.53,0,.06c4.1,6,13.41,8.28,13.5,8.3l.31.07-9.31-26.52Zm.2.64L178,87.84c-1.58-.43-9.3-2.78-12.94-8C165.06,79.67,169,64,169.25,63Z"/><path class="cls-3" d="M9.29,62,.27,87.7s9.29-2.24,13.4-8.23Z"/><path class="cls-4" d="M9.12,62,0,87.94l.31-.07c.1,0,9.4-2.33,13.5-8.3l0-.06L9.31,61.43Zm.13.65,4.23,16.82C9.85,84.67,2.12,87,.54,87.45Z"/><path class="cls-5" d="M169.28,62.05a80,80,0,1,1-160.07,0l22.13.32a58,58,0,0,0,116,0Z"/><path class="cls-4" d="M169.19,61.79l-22.06.32v.17c0,31.71-26,57.5-57.85,57.5S31.42,94,31.42,62.28v-.17L8.94,61.78V62a80.21,80.21,0,1,0,160.41,0v-.18ZM9.29,62.13l21.8.32c.09,31.82,26.15,57.67,58.18,57.67s58.09-25.86,58.18-57.67L169,62.13a79.86,79.86,0,0,1-159.72,0Z"/><polygon class="cls-4" points="127.89 37.58 127.89 104.63 50.78 104.63 50.78 37.58 89.34 24.48 127.89 37.58"/><path class="cls-6" d="M89.23,24.17,50.45,37.34V105h77.76V37.34L89.34,24.13Zm.11.65,38.22,13v66.5H51.1V37.81Z"/><path class="cls-5" d="M61.69,61.51l-4.25,41.41h64.14l-4.24-41.41-1.79.43s-11.44-9.87-26.94,2.18c0,0-16.23-9.87-25.07-2.32Z"/><path class="cls-7" d="M88.73,99.87a23.52,23.52,0,0,1,27-2.71l-3.09-37S103,53.62,89.31,63.68c0,0-15.26-9.09-23.57-2.13l-2.51,36S77.14,88.84,88.73,99.87Z"/><rect class="cls-7" x="115.78" y="62.64" width="1.16" height="35.96" transform="translate(-6.87 10.96) rotate(-5.24)"/><rect class="cls-7" x="44.13" y="80.52" width="36.07" height="1.16" transform="translate(-22.76 137.92) rotate(-86.31)"/><rect class="cls-7" x="72.28" y="95.33" width="4.58" height="0.58"/><rect class="cls-7" x="67.96" y="96.3" width="13.3" height="0.58"/><rect class="cls-7" x="65.85" y="97.44" width="18.23" height="0.58"/><rect class="cls-7" x="63.65" y="98.77" width="22.37" height="0.58"/><rect class="cls-7" x="61.8" y="100.18" width="25.63" height="0.58"/><rect class="cls-7" x="102.15" y="95.33" width="4.58" height="0.58"/><rect class="cls-7" x="97.74" y="96.3" width="13.3" height="0.58"/><rect class="cls-7" x="94.92" y="97.44" width="18.23" height="0.58"/><rect class="cls-7" x="92.99" y="98.77" width="22.37" height="0.58"/><rect class="cls-7" x="91.58" y="100.18" width="25.63" height="0.58"/><polygon class="cls-8" points="128.5 63.86 128.5 55.44 89.3 42.33 50.1 55.44 50.1 63.86 89.3 51.8 128.5 63.86"/><path class="cls-5" d="M95.91,89.11v4.45a2.26,2.26,0,0,1-1.06,1.84s1.8-.89,1.8-1.84V90.44S98,90.64,95.91,89.11Z"/><path class="cls-5" d="M89.65,90.41v3.54a1.8,1.8,0,0,1-1.07,1.46s1.8-.7,1.8-1.46V91.46S91.72,91.61,89.65,90.41Z"/><path class="cls-5" d="M91.32,66.5s-1.2,2.26-1.59,3A3.66,3.66,0,0,0,91,74.17c2.2,1.33,3.33,2.48,2.53,6.55,0,0,1.93-4.26-.33-6.1s-4.8-4-1.93-6.53Z"/><path class="cls-5" d="M88.47,78.76V68.33l.47-1V78.43s.18,2.29-1,3.32A8.12,8.12,0,0,0,88.47,78.76Z"/><path class="cls-5" d="M88.94,67.38s-1.33,2.18-1.73,2.85a3,3,0,0,0,1.33,4.08c2.19,1.17,3.33,2.18,2.53,5.76,0,0,1.93-3.74-.34-5.37s-4.79-3.52-1.79-5.92Z"/><path class="cls-5" d="M86.28,68.79s-1.19,1.5-1.59,2.06-.87,2.43,1.33,3.41,3.33,1.83,2.52,4.82c0,0,1.93-3.13-.33-4.49s-4.8-2.94-1.94-4.63Z"/><path class="cls-5" d="M95.76,87s-3.08,2.3-5.17,2.3-3.54-.68-3.45-1.43a6.82,6.82,0,0,1-5,3.18s1.32,1,4.15-1c0,0,.38,1.45,1.44,1.09a1.21,1.21,0,0,0,.89-1.33s1.91,2,7.07-2.11Z"/><path class="cls-5" d="M84.05,87.57c-.64,1.19-3.31,1.63-5,1.63-4.9-.08-12.69-5.42-11.28-10.9S78.21,74,82.36,75.71A67.25,67.25,0,0,1,99.3,87.5L117.88,89v-.75l-18-1.58c-3.63-3.63-10.39-8.12-15.51-11s-16.28-4.68-17.71,2.25,6.69,12,12.25,12c3.86,0,5.22-1.24,5.7-2a1.23,1.23,0,0,0-.44-1.6c-.94-.51-1.65.19-1.58.64.13.83,1,1,1.51.23Z"/><ellipse class="cls-5" cx="91.54" cy="84.78" rx="1.04" ry="0.99"/><ellipse class="cls-5" cx="83.45" cy="87.02" rx="1.06" ry="1.01"/><path class="cls-5" d="M87.31,88c2.41,0,5.69-1,5-2.59L92,84a2.71,2.71,0,0,1,1,2.23S92.11,89.17,87.31,88Z"/><path class="cls-5" d="M89.26,83.26v2c0,.94-1.13.79-1.28.14a1.13,1.13,0,0,1-1.28.65c-1-.14-.61-1.73-.61-1.73a11.46,11.46,0,0,1-8.31,2.16c-4.61-.8-6.27-4.48-5.59-7.21s4.76-4.91,11.56-1.88S97.34,87,98.93,88.53l19.5,1.83L118,91.53s-18.52-2-19.7-1.89A51.16,51.16,0,0,0,83.49,78.29c-9.28-4.72-12.7,2.52-9.15,5.6s9.88.94,11.26-.19a10.13,10.13,0,0,0,.72-1.26,2.65,2.65,0,0,1,.41-.68s.11,2,.11,2.63.92.31.92-.31v-.41l.43-.41v1.26c0,.5.29.38.29.06V83.44Z"/><path class="cls-5" d="M94.29,82.62h-.44l-18.58-.07a2,2,0,0,1-1.06-.18s0-.05,0-.05A1.69,1.69,0,0,1,74.8,82a7.21,7.21,0,0,0,1.09-.45,4,4,0,0,0,.6-.5.77.77,0,0,1,.61-.25h0l.83,0,.47,0,1.24,0h.65a.7.7,0,0,0,.43-.22l.38-.35.35.34a.74.74,0,0,0,.41.23h.47a.7.7,0,0,0,.59-.28,1.26,1.26,0,0,0,.22-.78,2.23,2.23,0,0,0-.25-.91l-.16.31a2.3,2.3,0,0,0-.16.39.26.26,0,0,0,.08.17c.12.12.17.2.17.22s-.17.16-.51.16h-.46a.45.45,0,0,1-.19,0L81.54,80a.88.88,0,0,0,.3-.2.45.45,0,0,0,.09-.31.56.56,0,0,0-.25-.48,1,1,0,0,0-.55-.16c-.5,0-.8.29-.9.87a2.29,2.29,0,0,1,.32.13l.2.11-.18.1a1,1,0,0,1-.28,0h-.64l-.28,0a1.09,1.09,0,0,0,.35-.75.69.69,0,0,0-.19-.46.66.66,0,0,0-.48-.18c-.52,0-1,.33-1.3,1,0-.2.06-.34.07-.41a2.4,2.4,0,0,0,0-.34,3.12,3.12,0,0,0,0-.41l-.07-.53a1,1,0,0,1,.28-.6l-.19-.28-.17-.27a1.07,1.07,0,0,0-.35.72,4.51,4.51,0,0,0,.08.66l.14.66a3.1,3.1,0,0,1,.07.66,1.48,1.48,0,0,1-.11.49H77v0a1.14,1.14,0,0,0-.63.36l-.52.62a2,2,0,0,1-.89.42,1.83,1.83,0,0,0-.88.4,1.07,1.07,0,0,0-.23.33.91.91,0,0,0-.11.42A.36.36,0,0,0,74,83a5,5,0,0,0,1.43.13h17A3.88,3.88,0,0,0,94,83l.28-.15a.21.21,0,0,0,.13-.19S94.39,82.62,94.29,82.62Zm-16-3a1,1,0,0,1,.54-.15,1.15,1.15,0,0,1,.32.05c.15,0,.22.11.22.18s-.12.16-.36.23a3.15,3.15,0,0,1-.47.11,4.93,4.93,0,0,1-.69.06A1.45,1.45,0,0,1,78.31,79.59Z"/><polyline class="cls-5" points="94.45 91 94.15 91.56 93.6 91.16 93.92 90.58 94.45 91"/><polyline class="cls-5" points="89.27 91.14 88.96 91.7 88.42 91.3 88.74 90.72 89.27 91.14"/><path class="cls-5" d="M94.92,93.13a1.88,1.88,0,0,1-.17.85.5.5,0,0,1-.46.31h-.18v-.78h.18c.26,0,.39-.06.39-.17a.77.77,0,0,0-.13-.24.35.35,0,0,1-.06-.18,3.1,3.1,0,0,1,.12-.43c0-.07.06-.18.12-.35a3.37,3.37,0,0,1,.19,1Z"/><path class="cls-5" d="M94.1,94.3h-.36a.3.3,0,0,1-.19-.05.77.77,0,0,1-.12-.17c0,.31-.12.46-.3.46s-.39-.24-.69-.72a1.34,1.34,0,0,1-.18.36.24.24,0,0,1-.18.11h-.18v-.78h.19c.17,0,.34-.19.51-.56.07-.15.11-.24.13-.28a.27.27,0,0,1,.21-.15c.07,0,.16.11.27.32l.2.41c.11.18.23.26.34.26h.36v.78m-1-.78A1.89,1.89,0,0,0,93,93c0-.13-.08-.19-.13-.19s-.09.07-.13.19l-.11.28.25.31c0,.05.08.07.11.07s.06-.06.06-.17Z"/><path class="cls-5" d="M91.7,94.3c-.44,0-.68-.41-.68-1.21,0-.42,0-25,0-25.22a3.12,3.12,0,0,0-.08-.37,1.63,1.63,0,0,1-.05-.35.78.78,0,0,1,.11-.37s.27-.12.36-.26l0,.33c.09.69.13,25.56.13,26.18a.67.67,0,0,0,.07.37.15.15,0,0,0,.15.12h.36v.78Z"/><path class="cls-5" d="M89.08,93.06a1.11,1.11,0,0,1-.34.85,1.29,1.29,0,0,1-.92.31h-.36v-.78h.36c.51,0,.78-.06.78-.17s-.08-.11-.27-.24-.12-.12-.12-.18a2.23,2.23,0,0,1,.24-.43l.25-.35a1.87,1.87,0,0,1,.38,1Z"/><path class="cls-5" d="M87.81,94.22h-.73c-.67,0-1-.34-1.05-1.13A6.51,6.51,0,0,1,86,92c0-.06-.06-22.09-.15-22.28a1,1,0,0,1-.11-.35A.54.54,0,0,1,86,69l.33-.26.08.33c.18.69.26,23.26.26,23.87a.46.46,0,0,0,.14.37.38.38,0,0,0,.31.12h.73v.78Z"/><polygon class="cls-5" points="80.77 84.19 80.39 84.79 79.8 84.4 79.5 84.9 78.87 84.46 79.26 83.86 79.83 84.29 80.18 83.75 80.77 84.19 80.77 84.19"/><polygon class="cls-5" points="83.54 81.44 83.16 82.05 82.57 81.65 82.28 82.16 81.65 81.71 82.03 81.11 82.6 81.54 82.95 81 83.54 81.44 83.54 81.44"/><polygon class="cls-9" points="89.03 125.21 90.54 129.85 95.41 129.85 91.47 132.73 92.98 137.37 89.03 134.5 85.09 137.37 86.59 132.73 82.66 129.85 87.52 129.85 89.03 125.21"/><path class="cls-7" d="M104.14,130.42l.24,1.45-1,.16a1.17,1.17,0,0,1,.6.9,3,3,0,0,1-.3,1.69,3.83,3.83,0,0,1-1.26,1.57,12.29,12.29,0,0,1-1.51,1,3.78,3.78,0,0,1-1.18.43q-1.65.25-2.4-1.86l-.14-.47-.11-.46c0-.24-.07-.5-.09-.76v-.4a2.15,2.15,0,0,1,0-.24.57.57,0,0,1,0-.19,6,6,0,0,1,0-.75l0-.34,0-.14a.5.5,0,0,1,.05-.17c.1-.39.22-.6.34-.62s.08.08.1.17a4.82,4.82,0,0,1-.06.94l-.11,1.18v.44l0,.39a1.6,1.6,0,0,0,.15.51,2,2,0,0,0,2.29,1.26,3.83,3.83,0,0,0,.7-.17,4,4,0,0,0,.7-.32,5.15,5.15,0,0,0,1.29-1c.09-.09.26-.27.49-.55l.15-.21.11-.14.1-.2a.81.81,0,0,0-.41-.41l-.92-.29a2.65,2.65,0,0,1-1-.42l-.06-.18v-.26c0-.08,0-.15,0-.21a1.06,1.06,0,0,1,0-.19l.1-.34a.43.43,0,0,1,.22-.26l.3-.12.27-.08Z"/><path class="cls-7" d="M105.57,131.54l-1.36.34-.33-1.4,1.29-.35.38-.13.29-.16a.81.81,0,0,0,.33-.53,4.86,4.86,0,0,1,.44-1.5c.22-.47.44-.74.64-.79s.34.09.43.43a2.74,2.74,0,0,0,.84,1.18,2.14,2.14,0,0,0,.53.21,3.61,3.61,0,0,0,.73.11l.4-.1.39,1.41-.24.06a2.13,2.13,0,0,1-1.21-.09L109,131a8.81,8.81,0,0,1-1.37-.28l-.64-.25-.21-.14-.21-.16a1.91,1.91,0,0,1-.22.89A1.21,1.21,0,0,1,105.57,131.54Zm1.11-2.6a2.62,2.62,0,0,0,.69.41l.2.07.28.07H108l.15,0-.38-.73-.32-.59a.12.12,0,0,0-.12,0,1,1,0,0,0-.4.3A.88.88,0,0,0,106.68,128.94Z"/><path class="cls-7" d="M112.06,129.78l-1.45.49-.49-1.39,1.44-.48c.53-.17.75-.39.65-.67a1.37,1.37,0,0,0-.14-.27l-.33-.44-.33-.42,0-1.34a3.62,3.62,0,0,1,.69.82l.31.56a4,4,0,0,1,.23.56l.11.29,0,.11,0,.17a2.32,2.32,0,0,1-.06,1.38A1.1,1.1,0,0,1,112.06,129.78Zm.62,3.08-1-.55.41-1.09,1,.59Zm1.47-.5-1-.57.37-1.07,1,.58Z"/><path class="cls-7" d="M114.19,121.79c.23-.09.59,0,1.08.3a9,9,0,0,1,1.52,1.3,6.66,6.66,0,0,1,1.15,1.77,3.34,3.34,0,0,1,.27,1.91,4.71,4.71,0,0,1-.84.75,5,5,0,0,1-1.21.72q-.64.25-.91,0a3.25,3.25,0,0,1-.47-.79,2.84,2.84,0,0,1-.26-.94s.1,0,.2.16a.74.74,0,0,0,.25.22l.34-.08.37-.13a5.66,5.66,0,0,0,1.37-.73,2.41,2.41,0,0,0,.62-.61,2.23,2.23,0,0,0-.31-.52,4.93,4.93,0,0,0-.54-.61,5.06,5.06,0,0,0-1.63-1.1.86.86,0,0,0-.56-.08l-.1,0-.07.08-.09.11a5.27,5.27,0,0,1-.35-1.17C114,122.05,114,121.85,114.19,121.79Z"/><path class="cls-7" d="M121.78,125.95l-.14.06a2.33,2.33,0,0,1-.91-.15,4.24,4.24,0,0,1-.83-.75l-.18-.31-.29-.58-3.37-6.84A4.72,4.72,0,0,1,116,116l3.49,7.08a7,7,0,0,0,.38.69c.07.1.13.2.2.29l.25.31a1,1,0,0,0,.74.33l.07,0Z"/><path class="cls-7" d="M121,124.6l2-.89a3.8,3.8,0,0,0,.51-.35,1.69,1.69,0,0,0,.23-.2.87.87,0,0,0,.13-.19c.2-.27.29-.45.26-.55a3.77,3.77,0,0,0-1.92-1.13c-.33-.09-.77-.2-1.3-.31-.35-.06-.79-.12-1.32-.18l-.69-.75a2.81,2.81,0,0,1-.27-.73,3.42,3.42,0,0,1-.11-.77l3.73-7.11.3,1.35-3.41,6.76.6,0,.8.08.69.11.66.16c.36.08.74.18,1.15.31s.77.24,1.13.37l1.82.65a2.94,2.94,0,0,0,1.15.19l1.22-.89.75,1.27-1.29.92a1.13,1.13,0,0,1-.9,0l-.68-.28-1-.48a6.33,6.33,0,0,0-1.43-.6l.23.26.26.32.16.21.16.25a1.4,1.4,0,0,1,.14,1.49l-.19.31-.2.25-.29.25-.34.26L121.72,126Z"/><path class="cls-7" d="M130.06,121.34l-.9.58-.86-1.21.89-.58c.46-.3.61-.57.44-.81a1.81,1.81,0,0,0-.21-.23l-.44-.33-.43-.32-.4-1.29a3.45,3.45,0,0,1,.89.62l.45.46a5.06,5.06,0,0,1,.38.47l.18.26.06.1.07.17a2.32,2.32,0,0,1,.34,1.35A1.07,1.07,0,0,1,130.06,121.34Zm1.46,2.81-1.15-.26.09-1.16,1.12.32Zm1.28-.86-1.13-.29.05-1.13,1.09.32Z"/><path class="cls-7" d="M139.77,111l1,1.14-1.29,1.12a1.24,1.24,0,0,1,1,.5,3.07,3.07,0,0,1,.61,1.61,3.69,3.69,0,0,1-.29,2,11.71,11.71,0,0,1-.81,1.55,3.7,3.7,0,0,1-.8.93q-1.31,1-3-.49l-.37-.34-.33-.34c-.16-.19-.32-.4-.46-.62l-.22-.34-.14-.19a.84.84,0,0,1-.08-.18,6.37,6.37,0,0,1-.34-.68l-.13-.31-.06-.13a.6.6,0,0,1,0-.17c-.11-.39-.12-.62,0-.7s.11,0,.18.1a5.17,5.17,0,0,1,.43.84l.51,1.07.23.38.23.32a1.78,1.78,0,0,0,.4.37,2,2,0,0,0,2.64,0A4,4,0,0,0,139,118a4.09,4.09,0,0,0,.44-.61,4.75,4.75,0,0,0,.62-1.47,6.42,6.42,0,0,0,.15-.71l0-.25,0-.17v-.22a.82.82,0,0,0-.57-.16l-1,.18a2.64,2.64,0,0,1-1.06.09l-.15-.13-.13-.22a2,2,0,0,1-.09-.19,1,1,0,0,1-.06-.18l-.09-.35a.42.42,0,0,1,.06-.33l.21-.24.2-.2Z"/><path class="cls-7" d="M141.18,111.76l-.45.42-1.06-1.06.35-.31.24-.27.11-.14.08-.19a.77.77,0,0,0,0-.46,3.27,3.27,0,0,0-.3-.7l-.19-.4-.09-.2-.07-.18a3,3,0,0,1-.17-.63,1.64,1.64,0,0,1,0-.49.52.52,0,0,1,.16-.31q.29-.27,1.26.18a4.84,4.84,0,0,1,.65.4,4.94,4.94,0,0,1,.59.51l.33.36a.89.89,0,0,1,.13.17l.1.17a1.46,1.46,0,0,1,.26.59c0,.18,0,.29-.06.35a2.3,2.3,0,0,1-.5.26.91.91,0,0,1-.27.1l-.11,0-.22,0a1.44,1.44,0,0,1-1-.14,2.33,2.33,0,0,1,.57,1.21A1.6,1.6,0,0,1,141.18,111.76Zm-.7-2.89a4,4,0,0,0,.82-.08l.37-.11.54-.2a1.94,1.94,0,0,0-.45-.35,1.68,1.68,0,0,0-.51-.21.8.8,0,0,0-.78.08C140.29,108.17,140.29,108.46,140.48,108.87Z"/><path class="cls-7" d="M148.05,105.21l-.07.08q-1.54.82-5.66-2.55l-.5-.49-.41-.34.57.74,1.09,1.25a13.7,13.7,0,0,1,1.14,1.51l.26.39.17.32.19.37.16.38a2.85,2.85,0,0,1,.16.72,1.49,1.49,0,0,1,0,.34c0,.13,0,.27,0,.4a6,6,0,0,1-.5,1.48l-.36.62-.42.53c-.38.42-.62.59-.71.51l0-.09.08-.21a.32.32,0,0,0,.05-.13l0-.16.1-.35.13-.5.21-1,.14-.91a1.88,1.88,0,0,0-.06-1.07,5.06,5.06,0,0,0-.87-.61,6.89,6.89,0,0,0-1-.48,10.34,10.34,0,0,0-1.94-.66c-.54-.11-1-.2-1.49-.26.13.15.15.28.07.37s-.5.14-1.17,0a2.39,2.39,0,0,1-.39-.21,4.88,4.88,0,0,1-.46-.34l-.29-.24-.28-.27c-.15-.16-.21-.27-.16-.32a2,2,0,0,1,1.13-.19,9.07,9.07,0,0,1,2,.29,10.32,10.32,0,0,1,1.14.34l.72.28.46.19a11.5,11.5,0,0,1,1.23.69c.43.28.72.48.88.61l.37.3a4.37,4.37,0,0,0-.78-2,18.22,18.22,0,0,0-1.77-2.25l-1.73-1.86c-.49-.53-.69-.87-.61-1l.45.35.44.34.9.7.93.68.71.58.57.44.3.24.19.16.15.09.51.36.37.28.2.12.23.12.17.09.19.09.41.17a1.63,1.63,0,0,0,1.26,0l0-.05Z"/><path class="cls-7" d="M151.2,100.4l-.09.13-.16.22-.16.12-.21.13-.21.09-.28.14a1.31,1.31,0,0,1,0,.81,2.82,2.82,0,0,1-.43.94,1.51,1.51,0,0,1-.37.41l-.29-.28,0,.29,0,.18,0,.26-.06.16-.08.11-.81,1.1-1.26-.82.81-1.09.12-.17.08-.18.06-.19,0-.24v-.15l0-.14a1.39,1.39,0,0,0-.08-.27l-.1-.22-.12-.19a1,1,0,0,1-.11-.26c0-.06.12-.06.23,0l.13.09.13.12a1.46,1.46,0,0,1,.21.25l.17.22.16.16.09-.11.09-.13A3.44,3.44,0,0,0,149,101q.16-.44,0-.65l-.54-.57-.3-.65.13,0a12.25,12.25,0,0,1,1,.89l.27-.1.25-.13a1.25,1.25,0,0,0,.32-.27.92.92,0,0,0-.28-.25,3.56,3.56,0,0,0-.67-.32l-.52-.82c0-.06.24,0,.58.24l.3.2.14.09.15.13.28.24.14.13.19.17A3.18,3.18,0,0,1,151.2,100.4Z"/><path class="cls-7" d="M152.67,98.36s-.19,0-.48-.19l-7.68-4.32-.35-.39-.4-.46c-.25-.31-.37-.48-.36-.53l7.35,4.13.39.24.21.16.13.08,0,0,.08.08a4.89,4.89,0,0,1,.82.74C152.62,98.13,152.71,98.29,152.67,98.36Z"/><path class="cls-7" d="M133.89,120.24s-.15-.11-.34-.4l-4.79-7.4-.13-.5-.14-.59c-.08-.39-.1-.6-.07-.64l4.58,7.07.23.39a1.73,1.73,0,0,1,.12.24l.08.13,0,0a.63.63,0,0,1,0,.11,5,5,0,0,1,.38,1C134,120,134,120.2,133.89,120.24Z"/><path class="cls-7" d="M148.61,93.42l-1.13.28L147,92.64l1.13-.21Zm.69-1.34-1.13.24-.53-1,1.13-.23ZM150,93.6a2.79,2.79,0,0,1,1.66-.93,2.89,2.89,0,0,1,1.76.28,3.19,3.19,0,0,1,1.45,1.44,2.1,2.1,0,0,1,0,.24,1.8,1.8,0,0,1,0,.31l-.06.34-.12.3a1.13,1.13,0,0,1-.64.54,2.39,2.39,0,0,1-.48,0,1.67,1.67,0,0,1-.56-.19l-.14-.07-.21-.14-.22-.15-.24-.2c-.18-.14-.35-.29-.52-.44a6.46,6.46,0,0,1-.51-.51l-.11.08-.14,0-.12-.09Zm1.42.55.16.22.29.3a2.19,2.19,0,0,0,.63.47.94.94,0,0,0,.74.1,1.14,1.14,0,0,0,.37-.42,1.51,1.51,0,0,0,.17-.64,1.27,1.27,0,0,0-.07-.58,1.47,1.47,0,0,0-.72,0l-.46.09a3.94,3.94,0,0,0-.46.14A1.58,1.58,0,0,0,151.45,94.16Z"/><path class="cls-7" d="M157.07,86l1.38.56L157.91,88a5.08,5.08,0,0,1,1.32.83,2.71,2.71,0,0,1,.31.26l.3.31.3.33.29.36a4.92,4.92,0,0,1,.73,1.37,1.58,1.58,0,0,1,0,1.16,3.87,3.87,0,0,1-.65.71l-.56.55-.1.1-.16.13-.28.22c-.34.27-.56.38-.66.34a.08.08,0,0,1,0-.11l.51-.74a4.35,4.35,0,0,0,.32-.58,2.94,2.94,0,0,0,.16-2,4.54,4.54,0,0,0-.85-1.82,5.71,5.71,0,0,0-.6-.67,1.9,1.9,0,0,0-.52-.36l-.29.66c-.09.19-.17.36-.25.51a2.4,2.4,0,0,1-.2.32.81.81,0,0,1-.63.22,1.76,1.76,0,0,1-.68-.16,3.21,3.21,0,0,1-.4-.2l-.24-.15-.26-.18a3.85,3.85,0,0,1-.91-.84,1.17,1.17,0,0,1-.22-.43.61.61,0,0,1,0-.39q.2-.45,1.05-.47a8.45,8.45,0,0,1,1.78.18ZM155,88.42a1,1,0,0,0,0,.24,1,1,0,0,0,0,.25.67.67,0,0,0,.45.41c.06,0,.19-.05.37-.24l.25-.49.24-.54a1.35,1.35,0,0,0-.71,0A.77.77,0,0,0,155,88.42Z"/><path class="cls-7" d="M157,86.16l.1-.44.07-.42,0-.56c0-.11,0-.17,0-.18a2.63,2.63,0,0,1-1.64.1l-.22-.07a.42.42,0,0,1-.12-.07L155,84.4l-.08-.06-.1-.09a3.27,3.27,0,0,1-1.06-1,1.47,1.47,0,0,1-.23-1.31l.06-.2a.44.44,0,0,1,.12-.2l0-.09a.26.26,0,0,1,.08-.09l.17-.18a2.84,2.84,0,0,1,.73-.52.89.89,0,0,1,.55-.13l.06.06a2.23,2.23,0,0,0-.42.49l-.24.38-.18.42a1.72,1.72,0,0,0,.67,2,7.32,7.32,0,0,0,1.33-.29,4,4,0,0,0,.61-.31,1.19,1.19,0,0,0,.18-.17.46.46,0,0,0,.1-.17,6.06,6.06,0,0,0,0-1.23l0-.57,0-.48-.08-.65,1.18,1,.16,1.06.11,1.44v1.56l0,.27-.06.45,0,.31-.08.24-.07.21Z"/><path class="cls-7" d="M161.81,73.87l0,.14a1.22,1.22,0,0,1-.67.59,2.25,2.25,0,0,1-.48.11l-.78.08.08.05.24.14.35.16.19.12a1.92,1.92,0,0,1,.37.42,2.11,2.11,0,0,1,.15.76,4.45,4.45,0,0,1-.1,1c-.16.76-.44,1.21-.85,1.32-.11,0-.43,0-1,0-.77-.15-1.15-.29-1.12-.44l0,0,.08,0,.32,0,.21,0h.2a.26.26,0,0,0,.17-.12,1.55,1.55,0,0,0,.14-.21,2.89,2.89,0,0,0,.15-.3,3.41,3.41,0,0,0,.16-.56l0-.1,0-.09.06-.26,0-.13,0-.13a2.83,2.83,0,0,0,0-.64,1.87,1.87,0,0,0-.16-.51.8.8,0,0,0-.28-.31l-.24-.09-.26-.07-.19,0-.21,0-.37,0q-.43,0-1.18,0l-1,0L154.56,74a20,20,0,0,1,2.52,0l1.43.06c.38,0,.67,0,.88,0a1.26,1.26,0,0,0,.89-.38l0-.14Z"/><path class="cls-7" d="M160.27,73.81l.1-1.2,0-.38a.41.41,0,0,0,0-.17l0-.18c-.06-.21-.14-.33-.26-.36l-7.82-.94a.41.41,0,0,0-.27,0l-.12,0-.1,0a1.73,1.73,0,0,1-.48,0l-.57-.18-.7-.23c-.11,0-.16-.08-.16-.12l0,0,.07,0a2.63,2.63,0,0,0,1-.2l.3-.17.39-.27,1,.29c.27.06.4.14.38.23v0l-.08.07,6.9.83q2.27.27,2.05,1.91L161.79,74Z"/><path class="cls-7" d="M162.32,69s-.18.05-.52,0l-8.88-.68-.49-.2-.56-.25c-.37-.17-.56-.28-.56-.33l8.48.65.46.06.26.05h.2l.11,0a5,5,0,0,1,1.07.32C162.19,68.78,162.33,68.88,162.32,69Z"/><path class="cls-7" d="M20.4,72.21l-7.92,1.29.77-.53q.68-.28,1.8-.83c.09-.05.3-.21.62-.46q-1.08-.31-1.2-1a1.67,1.67,0,0,1,.7-1.46,7.75,7.75,0,0,1,1-.72,11.54,11.54,0,0,1,1.66-.77,17.53,17.53,0,0,1,1.8-.64l-.27.59-1.28.52a4.36,4.36,0,0,0-1.11.62,5.6,5.6,0,0,0-.74.76,1,1,0,0,0-.17.84q.17.68,1.19.51a3,3,0,0,0,.62-.18,1,1,0,0,0,.48-.31s0-.06,0-.08l-.28-.08q-.5-.12-.56-.46a.74.74,0,0,1,.25-.63,1.35,1.35,0,0,1,.79-.39,1.14,1.14,0,0,1,1.11.28.74.74,0,0,1,.18.38Q20,70.26,19,71a4.11,4.11,0,0,1-1.87.72l-.78.45,4-.65-.72-4.4,1-.88,1,6.05-1,.9Z"/><path class="cls-7" d="M21.07,73.29l.24-.07q.73-.21,1.93-.47l-.42.52a4.91,4.91,0,0,0-.78.29l-.17.14.07.32L21,75l-.2-.95-7.9,1.7,1-.94,5.49-1.18.38-.12a1.3,1.3,0,0,0,.57-.4.61.61,0,0,0,.15-.51l0-.16.87-.9a4.4,4.4,0,0,1,.23.65A1,1,0,0,1,21.07,73.29Z"/><path class="cls-7" d="M18.69,76.32l.21.08.8.31a4.92,4.92,0,0,1,1.49,1L20.35,79a11.54,11.54,0,0,0-3.65.27l-.6.19L14.55,80l-.28.1.28-.68a25.65,25.65,0,0,1,3-1.11,11.7,11.7,0,0,1,1.6-.3,4.68,4.68,0,0,0-3.26-.91L17,76l4-1.05-.11-.4.88-1L23,78.3l-.88,1-1-3.63Z"/><path class="cls-7" d="M12.46,81.5l1.2-2.27,1,.24L13.14,81.6Z"/><path class="cls-7" d="M17.66,80.54l1.24-.4.78,2.46-1.24.4Z"/><path class="cls-7" d="M21,83.82l.21.06.83.23a4.9,4.9,0,0,1,1.59.89l-.71,1.29a11.54,11.54,0,0,0-3.61.65c-.2.07-.39.16-.58.25l-1.48.71-.27.13.21-.7a25.61,25.61,0,0,1,2.9-1.42,11.58,11.58,0,0,1,1.56-.46,4.68,4.68,0,0,0-3.34-.57l.93-1.21,3.89-1.46L23,81.81l.77-1.07,1.73,4.61-.77,1.07-1.32-3.51Z"/><path class="cls-7" d="M25.24,86.54l.23-.11q.68-.35,1.8-.83l-.32.59a4.74,4.74,0,0,0-.71.44l-.14.17.13.3-.76,1.1-.38-.89-7.43,3.18.8-1.11,5.16-2.21L24,87a1.29,1.29,0,0,0,.49-.5.61.61,0,0,0,.05-.53l-.06-.15.69-1.05a4.39,4.39,0,0,1,.35.6A1,1,0,0,1,25.24,86.54Z"/><path class="cls-7" d="M26.31,88.85a2.6,2.6,0,0,1-.73-.09,2.29,2.29,0,0,1-.46-.26l.5-.45a1.93,1.93,0,0,0,1.09.13.67.67,0,0,1-.08-.13.49.49,0,0,1,.09-.52,1.42,1.42,0,0,1,.58-.45,1.48,1.48,0,0,1,.8-.15.58.58,0,0,1,.5.31.66.66,0,0,1-.15.71,2.2,2.2,0,0,1-.83.62A3,3,0,0,1,26.31,88.85Z"/><path class="cls-7" d="M22.71,96.3a1.57,1.57,0,0,1-.73-.24,1.49,1.49,0,0,1-.32-.46,1.32,1.32,0,0,1-.07-1,6.09,6.09,0,0,1,.58-1.15,19,19,0,0,1,4.22-3.94l-.17.75q-.78.73-2.45,2.38a3.43,3.43,0,0,0-.61,1A1.52,1.52,0,0,0,23,94.86a.85.85,0,0,0,.54.44,1.22,1.22,0,0,0,.92-.13.71.71,0,0,0,.34-.35.57.57,0,0,1-.4-.29.59.59,0,0,1,0-.58,1.37,1.37,0,0,1,.6-.53,1.59,1.59,0,0,1,.8-.19.57.57,0,0,1,.53.27.6.6,0,0,1,0,.42.93.93,0,0,0,.72-.11q.61-.32.4-.73a1.43,1.43,0,0,0-1-.63,1.76,1.76,0,0,0-.33,0,1.65,1.65,0,0,1-.72.66q-.73.38-1-.16-.36-.69.78-1.28a2.49,2.49,0,0,1,2.28-.05,1.75,1.75,0,0,1,.88.77,1.15,1.15,0,0,1,0,1,2,2,0,0,1-1,.94,4.35,4.35,0,0,1-1.83.56,3.46,3.46,0,0,1-1.16,1A2.9,2.9,0,0,1,22.71,96.3Z"/><path class="cls-7" d="M23.18,99.22a.55.55,0,0,1,0-.54,1.21,1.21,0,0,1,.49-.52,1.31,1.31,0,0,1,.67-.2.49.49,0,0,1,.46.21.56.56,0,0,1,0,.54,1.19,1.19,0,0,1-.49.53,1.29,1.29,0,0,1-.67.2A.5.5,0,0,1,23.18,99.22Zm7.18-2-6.84,4.13.4-.73q.52-.58.68-.8A3.2,3.2,0,0,0,25.37,98a2.06,2.06,0,0,0-.26-.81L26,95.82a17.52,17.52,0,0,1,2.35.21,1.89,1.89,0,0,0-.06-.9A1.35,1.35,0,0,1,28.42,94L29,92.86l2.4,4L30.85,98ZM30,96.64l-.64-1.07a13.82,13.82,0,0,1-.86,1.6,6.31,6.31,0,0,1-1,0,8,8,0,0,0-1,0,3.73,3.73,0,0,1-.69,2.06Z"/><path class="cls-7" d="M31.4,98.07l.2-.15q.6-.46,1.62-1.14l-.21.64a4.74,4.74,0,0,0-.62.56,1.27,1.27,0,0,0-.1.19l.18.27-.55,1.22-.54-.81-6.74,4.46.58-1.24L29.91,99l.31-.25a1.29,1.29,0,0,0,.39-.58.61.61,0,0,0,0-.53l-.09-.13L31,96.31a4.51,4.51,0,0,1,.45.52A1,1,0,0,1,31.4,98.07Z"/><path class="cls-7" d="M29.19,104.25v0a5.24,5.24,0,0,1-.44,1.91l-.51,1.2-1.3,1.35.49-1a8.37,8.37,0,0,0,.62-2.54,4.67,4.67,0,0,0-.22-2.13l1.75-2.13a2.57,2.57,0,0,0,.19,1.94,1.53,1.53,0,0,0,1.84.41.88.88,0,0,0,.41-.77.67.67,0,0,0-.1-.37l-.06-.06a2.34,2.34,0,0,1-1.15.27.68.68,0,0,1-.6-.26q-.33-.46.29-1a1.82,1.82,0,0,1,1-.42,2.15,2.15,0,0,1,1,.22l.05,0a1.09,1.09,0,0,0,.08-.4l-.82-1.13L32.14,98l2.73,3.76L34.39,103,33,101.12l-.07.08a.42.42,0,0,0-.08.12,1.41,1.41,0,0,1,.09.48,2,2,0,0,1-.29,1.1,3,3,0,0,1-.89,1A2.6,2.6,0,0,1,29.19,104.25Z"/><path class="cls-7" d="M38.84,101.72a.28.28,0,0,1,.29.11.44.44,0,0,1,.06.43.85.85,0,0,0-.65.16.58.58,0,0,0-.19.39.39.39,0,0,0,.08.35,1.94,1.94,0,0,0,.41.39l.51.43a1.8,1.8,0,0,1,.58,1.18,2.31,2.31,0,0,1-.87,1.63l.21.24-.37,1.28-1.7-1.93a.43.43,0,0,0,0,.37,2.6,2.6,0,0,1,.08.55,2.06,2.06,0,0,1-.24.9,3.31,3.31,0,0,1-1,1.2,2.46,2.46,0,0,1-2.47.46,2.42,2.42,0,0,1,0,.81,8.57,8.57,0,0,1-.15.91l-.33,1.28-1.17,1.4a8.06,8.06,0,0,0,.29-5.51l1.39-2.25a2.56,2.56,0,0,0,.41,1.84,1,1,0,0,0,.36.28,2.49,2.49,0,0,0,.51.16,1.74,1.74,0,0,0,.65-.07.75.75,0,0,0,.26-.16,1.61,1.61,0,0,0,.42-.56.42.42,0,0,0,0-.48l-.09-.08a2,2,0,0,1-1.07.37.7.7,0,0,1-.63-.22.6.6,0,0,1-.13-.52,1,1,0,0,1,.36-.59,2.06,2.06,0,0,1,.65-.38,1.25,1.25,0,0,1,.63-.1,1,1,0,0,1,.49.09c.14.05.21.09.21.11a3,3,0,0,1,.06-.38l-1-1.11.37-1.27,2.47,2.75a.53.53,0,0,0,.35,0h0a.67.67,0,0,0,0-.29.75.75,0,0,0-.22-.41,7.48,7.48,0,0,0-.68-.66l-.24-.25a1.45,1.45,0,0,1-.32-1.33,1.9,1.9,0,0,1,.62-1A1.78,1.78,0,0,1,38.84,101.72Z"/><path class="cls-7" d="M41.67,111,36,116.67l.41-1.41,2.46-2.46a1.2,1.2,0,0,0,.18-.5.47.47,0,0,0-.06-.4c-.1-.1-.3-.1-.59,0q-1.9.78-2.13.63l-.15-.12a.6.6,0,0,1-.22-.41q-.11-.3.63-1.77l1-.21a4.61,4.61,0,0,0-.42.57q-.28.44-.18.54c.05.05.26,0,.63-.12l.85-.31a2.26,2.26,0,0,0,.61-1.09q0-.23-.33-.64a.68.68,0,0,1-.15-.76s0-.11.09-.23v-.16l.24-1.17,3.78,3.78-.27,1.28Zm-2.43-.43.17,0c.25,0,.41,0,.5.07s.12.57-.09,1.24l1.35-1.35L40,109.32A2.31,2.31,0,0,1,39.24,110.6Z"/><path class="cls-7" d="M45.27,114.24l-5.17,5.92.18-1.28L43,115.72a1,1,0,0,0,.21-.5c0-.2,0-.34-.08-.41s-.17-.06-.3,0a2.57,2.57,0,0,0-.61.7l-.63-.11A1,1,0,0,0,42,115a3.83,3.83,0,0,0,.17-.56.69.69,0,0,0-.21-.66.62.62,0,0,0-.62-.08,1.5,1.5,0,0,0-.7.47.84.84,0,0,0-.27.71,2.06,2.06,0,0,1,.17-.23,1.26,1.26,0,0,1,.61-.41.54.54,0,0,1,.54.08q.33.29,0,1a2,2,0,0,1-.53.72q-.7.47-1.16.07a1.21,1.21,0,0,1-.38-1.16,2.94,2.94,0,0,1,.77-1.49,3.72,3.72,0,0,1,1.21-1,1,1,0,0,1,1.14,0,1.11,1.11,0,0,1,.31,1.12v.09q.7-.36.93-.11a.74.74,0,0,1,.17.6c0,.12-.06.24-.1.36a.18.18,0,0,1,0,.06l.72-.83L42,111.39l.19-1.34,4,3.5L46,114.89Z"/><path class="cls-7" d="M46.54,114.71l.14-.21q.43-.63,1.19-1.59v.67a4.75,4.75,0,0,0-.41.72,1.23,1.23,0,0,0,0,.22l.25.2-.15,1.33-.76-.6-5,6.34.17-1.36,3.49-4.4a3.15,3.15,0,0,0,.22-.34,1.29,1.29,0,0,0,.19-.67.61.61,0,0,0-.21-.49l-.13-.1.1-1.25a4.36,4.36,0,0,1,.59.36A1,1,0,0,1,46.54,114.71Z"/><path class="cls-7" d="M47,116.6a2.12,2.12,0,0,1,0-.58l.12-.32.07-1.23,3.94,2.84-.08,1.36-.77-.56-4.61,6.39.08-.84.4-.88a2.44,2.44,0,0,0,.23-.87,4,4,0,0,0-.07-.93,1.12,1.12,0,0,1-1.08,0,.72.72,0,0,1-.32-.69,1.85,1.85,0,0,1,.06-.36,3.33,3.33,0,0,1,.34-.62,1.73,1.73,0,0,1,.92-.72.93.93,0,0,1,.84.14.41.41,0,0,1,.14.18,1.84,1.84,0,0,0,.31-1,1.63,1.63,0,0,0-.29-.78A1.38,1.38,0,0,1,47,116.6Zm2.72,1.1-1.42-1c0,.22,0,.49,0,.81a5.27,5.27,0,0,1-.7,2.15,3.41,3.41,0,0,1-.35.52q0,.36-.1,1.1Z"/><path class="cls-7" d="M51.84,119l-4.35,6.63,0-1.33,3.73-5.68-.44-.29,0-1.34,1.12.73.14-.3a4.51,4.51,0,0,0,.24-1.08,1.92,1.92,0,0,0,0-.9,2.57,2.57,0,0,0-1-1.35,2.26,2.26,0,0,0-.61-.26q-.53-.15-.67.06t.35.49l.56.38a1.94,1.94,0,0,1,.52.54,1.21,1.21,0,0,1,.12.79,2.21,2.21,0,0,1-.36.92,4.06,4.06,0,0,1-.39.49l-.79-.52a1.88,1.88,0,0,0,.76-.34q.18-.27-.33-.66l-.66-.49a1.51,1.51,0,0,1-.41-.79,1.43,1.43,0,0,1,.23-1.1,1.29,1.29,0,0,1,.62-.56,2.52,2.52,0,0,1,1.56.06,1.26,1.26,0,0,1,.3.13,2.31,2.31,0,0,1,.93,1.27,3.74,3.74,0,0,1,.06,1.91,5.41,5.41,0,0,1-.34,1.15l-.21.52.36.23v1.31Z"/><path class="cls-7" d="M54.12,123.48l-.11.21a2.26,2.26,0,0,0-.33,1.22.91.91,0,0,0,.26.5,1,1,0,0,0,.43.32,3.23,3.23,0,0,1,.7.26,1.49,1.49,0,0,1,.79.93l0,.2,2.36-4.41s0,0,0,0a1,1,0,0,0-.71.07,3.1,3.1,0,0,0-.77.4,2.38,2.38,0,0,0-.42.4l.08,0a.44.44,0,0,1,.2.46,1.7,1.7,0,0,1-.21.7,1.52,1.52,0,0,1-.45.52.57.57,0,0,1-.5.14l-.22-.09a.85.85,0,0,1-.37-1,2.5,2.5,0,0,1,.26-.74,4.06,4.06,0,0,1,1.05-1.22,4.43,4.43,0,0,1,1.24-.74,1.32,1.32,0,0,1,1.2,0c.15.09.24.32.29.7a1.54,1.54,0,0,1-.12.91L55.13,130q-.05-.35-.09-.71a2.3,2.3,0,0,1,.15-.67q.31-.87-.21-1.15a4.13,4.13,0,0,0-.73-.24,2.92,2.92,0,0,1-.61-.23,1.62,1.62,0,0,1-.8-1.91,5.23,5.23,0,0,1,.56-1.54,5.55,5.55,0,0,1,1.24-1.53l.14-.09h.08s0,0,0,.11l0,.48A4.13,4.13,0,0,0,54.12,123.48Z"/><path class="cls-7" d="M62.44,128a2.06,2.06,0,0,0,0-1.1.93.93,0,0,0-.52-.67l-2.49,5.69-.12-.72c.11-.51.16-.8.17-.89a4.48,4.48,0,0,0,0-.83,2.47,2.47,0,0,0-1-2l-.11-1.66a8.23,8.23,0,0,1,3.43-1.05l.11-.25-2.59-1.14L59.1,122l5.4,2.37.2,1.29-2.14-.94-.07.16a1.57,1.57,0,0,1,.67,1.14,4,4,0,0,1-.33,2.55,2.35,2.35,0,0,1-.65.89.73.73,0,0,1-.79.18.62.62,0,0,1-.35-.49,1.31,1.31,0,0,1,.11-.8,1.48,1.48,0,0,1,.66-.71.71.71,0,0,1,.35,0A.54.54,0,0,1,62.44,128Zm-1.21-2a4.82,4.82,0,0,0-1.12.29l-.59.26a4.3,4.3,0,0,1,.52,2.16Z"/><path class="cls-7" d="M65.17,125.38l.07-.24q.22-.73.65-1.87l.21.64a4.86,4.86,0,0,0-.17.81,1.39,1.39,0,0,0,0,.22l.3.11.27,1.31-.91-.34-2.85,7.56-.25-1.34,2-5.25a2.86,2.86,0,0,0,.11-.39,1.28,1.28,0,0,0,0-.7.61.61,0,0,0-.35-.41l-.15-.06-.29-1.22a4.41,4.41,0,0,1,.67.16A1,1,0,0,1,65.17,125.38Z"/><path class="cls-7" d="M66.16,129.55q-.32.73-.44,1.1a2.72,2.72,0,0,0,.05,2.17.14.14,0,0,0,.17.09.2.2,0,0,1,0,.08c0,.08-.12.14-.28.16a.48.48,0,0,0,.18,0l0-.07,0-.14a1.31,1.31,0,0,1,0-.78,1.14,1.14,0,0,1,.65-.74.51.51,0,0,1,.35,0,.39.39,0,0,1,.26.31,1.2,1.2,0,0,1,0,1,1.68,1.68,0,0,1-.59.86.83.83,0,0,1-.78.15q-.8-.27-.83-1.68a7.45,7.45,0,0,1,.44-2.52,7.59,7.59,0,0,1,1.9-3l-1.17-.4-.32-1.27,3.13,1.06.29,1.18Q67.2,127.17,66.16,129.55Z"/><path class="cls-7" d="M71.17,127.77l-.67,2.41a1.83,1.83,0,0,0,1.05-.79,3.79,3.79,0,0,1,.42-.44,2.28,2.28,0,0,1,.41,1.29,4.63,4.63,0,0,1-.16,1.59,6.64,6.64,0,0,1-.49,1.23,2.41,2.41,0,0,1-.95,1.07,1.44,1.44,0,0,1-1.11.15,1.53,1.53,0,0,1-1.07-1.15,8.38,8.38,0,0,1-.22-1.75,16.87,16.87,0,0,1,.28-2.83L69,127.1l.39.59a12.7,12.7,0,0,0-.26,1.84,6.52,6.52,0,0,0,.06,1.74,5.32,5.32,0,0,0,.17.72,1,1,0,0,0,.72.66,1.12,1.12,0,0,0,.94-.19,1.92,1.92,0,0,0,.73-1,1.47,1.47,0,0,0,.07-.72,3.37,3.37,0,0,1-1,.81.89.89,0,0,1-.64.12q-.54-.15-.45-1.28,0-.18.77-2.81l-1.73-.48-.39-1.25,5.14,1.42.39,1.25Z"/><path class="cls-7" d="M73.71,129.22a2.08,2.08,0,0,1-.22-.54l0-.34L73,127.19l4.76,1,.49,1.27-.93-.19L75.75,137l-.27-.8v-1a2.45,2.45,0,0,0-.15-.88,3.89,3.89,0,0,0-.45-.82,1.12,1.12,0,0,1-1,.44.72.72,0,0,1-.58-.5,2,2,0,0,1-.09-.35,3.41,3.41,0,0,1,.06-.7,1.74,1.74,0,0,1,.54-1,.93.93,0,0,1,.82-.21.42.42,0,0,1,.2.1,1.83,1.83,0,0,0-.14-1,1.61,1.61,0,0,0-.58-.59A1.39,1.39,0,0,1,73.71,129.22Zm2.93-.12-1.72-.35.33.74a5.28,5.28,0,0,1,.24,2.25,3.25,3.25,0,0,1-.11.62c.09.22.21.57.37,1Z"/><path class="cls-7" d="M79.08,129.47l-1.23,7.83-.52-1.23,1.05-6.71-.52-.08-.59-1.21,1.32.21v-.33a4.52,4.52,0,0,0-.22-1.09,1.91,1.91,0,0,0-.41-.8,2.57,2.57,0,0,0-1.49-.81,2.25,2.25,0,0,0-.67,0q-.54.08-.58.33t.52.31l.67.12a1.94,1.94,0,0,1,.7.27,1.21,1.21,0,0,1,.43.67,2.19,2.19,0,0,1,.05,1,4.19,4.19,0,0,1-.15.61l-.93-.15c.35-.32.54-.52.55-.62s-.16-.37-.57-.46l-.8-.17a1.51,1.51,0,0,1-.7-.55,1.43,1.43,0,0,1-.24-1.1,1.3,1.3,0,0,1,.33-.76,2.52,2.52,0,0,1,1.44-.59,1.29,1.29,0,0,1,.33,0,2.31,2.31,0,0,1,1.37.77,3.77,3.77,0,0,1,.84,1.71,5.43,5.43,0,0,1,.16,1.18l0,.56.42.07.54,1.2Z"/><path class="cls-6" d="M67.76,113.47l-.44-1.19a2.34,2.34,0,0,0,1.37.38c.75,0,1.44-.32,1.44-1.19a.36.36,0,0,0-.38-.38,3.2,3.2,0,0,0-.33.1v.06a1.05,1.05,0,0,1-.93.9c-.28,0-.61-.17-.61-.5,0-.73.81-1,1.37-1.12-.38-.21-.93-.69-.95-1.18-.09.38-.52,1.3-1,1.3s-.63-.43-.8-.74c0,0,.12-.27.16-.27s.2.32.38.32c.35,0,.68-.6.68-.93l-.13-.16H66l-.47-.49h5.12l.5.49a6.35,6.35,0,0,0-.87,0,.74.74,0,0,1,.18.57,1.08,1.08,0,0,1-.75,1.08,1.37,1.37,0,0,1,1,1.4c0,.71-.81,1.16-1.34,1.43h0s0,0,0,0a6.52,6.52,0,0,1,.91.57l1.2,1.13.07.44A7.91,7.91,0,0,0,67.76,113.47Zm2-4.59H68.54a1,1,0,0,0,.89,1c.25,0,.62-.14.62-.45C70.06,109.28,69.92,108.89,69.76,108.89Z"/><path class="cls-6" d="M72.3,108.89v5.17l-.46-.51v-3.7c0-.53-.4-1.06-1-1l-.53-.49a2.51,2.51,0,0,1,.39,0,1,1,0,0,1,1.09.7,3.23,3.23,0,0,1,.17.58.43.43,0,0,0,0,.08v0c0-.73-.18-1.46-.18-2.2l.19.16c0,.22.09.6.29.73h.33l.48.49Z"/><path class="cls-6" d="M75.55,106.67c-.94,0-1.35.48-1.72,1.3l.18.43h.51l.48.49h-.82v5l-.49-.47v-4.51H73l-.48-.49h1.23c-.15-.18-.47-.43-.47-.67a1.86,1.86,0,0,1,1.82-1.6c.95,0,2.6.75,2.93,1.74A4,4,0,0,0,75.55,106.67Z"/><path class="cls-6" d="M79.27,108.89v5a4.07,4.07,0,0,1-.52-.51l.07-2.54c-.25-.3-.17-.72-.54-.94l-1.62,1.68-.7-.27c.19-.2.5-.42.5-.73s-.09-.49-.31-.49-.36.19-.6.19a.48.48,0,0,1-.39-.4c0-.78,1.2-1.39,1.83-1.39,1.23,0,1.68,1.07,2,2.07a17.51,17.51,0,0,1-.22-2.89c.36.28.27.7.74.74l.47.49Zm-2.12.11a1.1,1.1,0,0,0-1.08.63h0a.73.73,0,0,1,.64.88l1.12-1.15A.92.92,0,0,0,77.15,109Z"/><path class="cls-6" d="M79.94,108.89l-.48-.49H85l.5.49Zm3.43,4.22a2.27,2.27,0,0,1-1.42-.41,7.3,7.3,0,0,1-1.75-3.52l.28.12c.49,1.23,1.11,3,2.62,3A1.39,1.39,0,0,0,84.49,111c0-.44-.34-1.06-.81-1.06a1.15,1.15,0,0,0-.32,0,1,1,0,0,1,.19.56c0,.52-.36.71-.81.71s-.76-.46-.76-1a1.1,1.1,0,0,1,1.13-1,1.9,1.9,0,0,1,1.78,2A1.86,1.86,0,0,1,83.37,113.11Z"/><path class="cls-6" d="M88.59,109.79a1.24,1.24,0,0,1,1.15-1.16,1.09,1.09,0,0,1,1,1.1,1.1,1.1,0,1,1-2.19.05Zm0,2.85a1.27,1.27,0,0,1,1.14-1.2,1.09,1.09,0,0,1,1,1.12,1.17,1.17,0,0,1-1,1.19A1.15,1.15,0,0,1,88.61,112.64Zm1.33-3.48a.88.88,0,0,0-.78.88c0,.2.07.38.3.38a.92.92,0,0,0,.84-.84A.38.38,0,0,0,89.95,109.16Zm-.12,2.8c-.44,0-.65.45-.65.84,0,.23.08.54.35.54a.83.83,0,0,0,.75-.79C90.26,112.27,90.12,112,89.82,112Z"/><path class="cls-6" d="M94.36,112.4l-.47-1.67c.14.45,1.51.94,2,.94s1-.23,1-.66c0-1.19-2.23-1.09-2.23-2.08a1.57,1.57,0,0,1,.05-.37.68.68,0,0,1,.4-.2c.35,0,.52.14.54.53a2.31,2.31,0,0,1,1.66,1.92c0,1-.54,1.26-1.32,1.56a11.19,11.19,0,0,1,2.07,1.68l.12.63A7.78,7.78,0,0,0,94.36,112.4Z"/><path class="cls-6" d="M100.4,113.35A2,2,0,0,1,98.64,111a1.93,1.93,0,0,1,2.53-1.35,1.91,1.91,0,0,1,1.2,2.09A2,2,0,0,1,100.4,113.35Zm.65-3.26a1.65,1.65,0,0,0-1.58.81c-.29.62-.58,1.26.12,1.76s2.08-.39,2.2-1.33S101.47,110.19,101,110.09Z"/><path class="cls-6" d="M103.66,113.2a1,1,0,0,1,1-.93,1.37,1.37,0,0,1,1,.35c.16-.17.28-.23.28-.5,0-1.45-2.24-2.24-2.24-3.21a.63.63,0,0,1,.58-.65c.56,0,.44.55.46.89v0c.79.8,1.71,1.51,1.71,2.78a2.05,2.05,0,0,1-1.89,1.94C104.18,113.92,103.66,113.65,103.66,113.2Z"/><path class="cls-6" d="M111,111.34a4,4,0,0,1-.22,1.2,2,2,0,0,1-.47.64,1.59,1.59,0,0,1-1.16.45q-1,0-1.89-1.53a6.7,6.7,0,0,1-.83-2.5l.42.19a4.6,4.6,0,0,0,.58,1.68,3,3,0,0,0,.48.65,1.56,1.56,0,0,0,1.14.57,1.52,1.52,0,0,0,1.05-.43,1.21,1.21,0,0,0,.43-1,2,2,0,0,0-.32-1.14,1.56,1.56,0,0,0-.76-.42,1.12,1.12,0,0,1,.16.54.83.83,0,0,1-.1.39.8.8,0,0,1-.74.48.74.74,0,0,1-.61-.31,1.11,1.11,0,0,1-.25-.7,1.06,1.06,0,0,1,.57-1,1.73,1.73,0,0,1,.58-.13,1.33,1.33,0,0,1,1,.38,2.41,2.41,0,0,1,.68.87A2.87,2.87,0,0,1,111,111.34Z"/><path class="cls-7" d="M134.08,121.69c.17.27.53.29.89.24l-.81,1.07.41.29,1-1.48c.73-.18,1-.26,1-.45a.42.42,0,0,0,0-.09c-.06-.28-.31-.24-1-.11l-.14.18-.08,0c-.7.17-.82,0-.82,0s.1-.45.36-.76l-.39-.32C134.31,120.55,133.8,121.24,134.08,121.69Z"/></g></g></svg>