<svg xmlns="http://www.w3.org/2000/svg" xmlns:xlink="http://www.w3.org/1999/xlink" viewBox="0 0 240.12 158.46"><defs><style>.cls-1{fill:#231f20;}.cls-2{fill:url(#linear-gradient);}.cls-3{fill:url(#linear-gradient-2);}.cls-4{fill:url(#linear-gradient-3);}.cls-5{fill:#00a9ee;}</style><linearGradient id="linear-gradient" x1="102.85" y1="16.65" x2="102.85" y2="112.81" gradientUnits="userSpaceOnUse"><stop offset="0" stop-color="#2dcc70"/><stop offset="1" stop-color="#27ae61"/></linearGradient><linearGradient id="linear-gradient-2" x1="139.88" y1="16.65" x2="139.88" y2="112.81" xlink:href="#linear-gradient"/><linearGradient id="linear-gradient-3" x1="-218.21" y1="11.5" x2="-218.21" y2="85.58" gradientTransform="translate(271.51 -155.48) rotate(-45)" xlink:href="#linear-gradient"/></defs><title>Asset 5</title><g id="Layer_2" data-name="Layer 2"><g id="Layer_1-2" data-name="Layer 1"><path class="cls-1" d="M24.72,135.08v18.29H21.54a5.2,5.2,0,0,0-1.3-2.67,8.86,8.86,0,0,0-2.33-1.91,8,8,0,0,1-5.84,2.94,10.08,10.08,0,0,1-7-2.91,18.12,18.12,0,0,1-4.34-6.46l2.15-2.26a14.73,14.73,0,0,0,3.39,5.65,7.85,7.85,0,0,0,5.74,2.8,3.72,3.72,0,0,0,3.18-1.81,6.14,6.14,0,0,0,1.13-3.61,5.91,5.91,0,0,0-1-3.48,3.54,3.54,0,0,0-3.11-1.53,3.37,3.37,0,0,0-1.85.48,1.81,1.81,0,0,0-.92,1.6c0,.78.6,1.17,1.81,1.17a5.25,5.25,0,0,0,1-.11l-1.12,3.05a5.76,5.76,0,0,1-1.3.24,3.4,3.4,0,0,1-2.7-1.37,4.59,4.59,0,0,1-1.13-3,4.37,4.37,0,0,1,2-3.73,6.92,6.92,0,0,1,4.17-1.26q7.32,0,7.39,10.56a19.07,19.07,0,0,1,1.77,1.41V135.08H0V132H27.18v3.08Z"/><path class="cls-1" d="M31.28,135.08v18.29H27.9V135.08h-3V132H34v3.08Z"/><path class="cls-1" d="M55,135.08v18.29H51.66c0-.07.05-.78.14-2.14.05-.68.07-1.39.07-2.14q0-5.94-2.77-5.94a2.07,2.07,0,0,0-1.78,1.27,5.2,5.2,0,0,0-.68,2.18H43a5.71,5.71,0,0,0-.69-2.4,2.15,2.15,0,0,0-1.91-1.33c-1.76,0-2.63,1.14-2.63,3.42q0,2.84,3.79,2.84a9.58,9.58,0,0,0,1.37-.11l-1.16,3.49c-.64.07-1.08.1-1.3.1a6.11,6.11,0,0,1-4.64-1.89A6.67,6.67,0,0,1,34,146a6.59,6.59,0,0,1,1.74-4.73,6.11,6.11,0,0,1,4.64-1.83,5.46,5.46,0,0,1,4.5,2.7q2.06-2.7,4.27-2.7a3.27,3.27,0,0,1,2.52,1.43v-5.77H32V132H57.3v3.08Z"/><path class="cls-1" d="M58.13,143.08v-3.46H72.49v3.46Z"/><path class="cls-1" d="M97.69,135.08v18.29H94.51a5.2,5.2,0,0,0-1.3-2.67,8.86,8.86,0,0,0-2.33-1.91A8,8,0,0,1,85,151.73a10.08,10.08,0,0,1-7-2.91,18.12,18.12,0,0,1-4.34-6.46l2.15-2.26a14.73,14.73,0,0,0,3.39,5.65,7.85,7.85,0,0,0,5.74,2.8,3.72,3.72,0,0,0,3.18-1.81,6.14,6.14,0,0,0,1.13-3.61,5.91,5.91,0,0,0-1-3.48,3.54,3.54,0,0,0-3.11-1.53,3.37,3.37,0,0,0-1.85.48,1.81,1.81,0,0,0-.92,1.6c0,.78.6,1.17,1.81,1.17a5.25,5.25,0,0,0,1-.11l-1.13,3.05a5.61,5.61,0,0,1-1.29.24,3.43,3.43,0,0,1-2.71-1.37,4.63,4.63,0,0,1-1.12-3,4.37,4.37,0,0,1,2-3.73,6.92,6.92,0,0,1,4.17-1.26q7.32,0,7.38,10.56a17.68,17.68,0,0,1,1.78,1.41V135.08H73V132h27.18v3.08Z"/><path class="cls-1" d="M104.25,135.08v18.29h-3.38V135.08h-3V132H107v3.08Z"/><path class="cls-1" d="M129.11,129.64q-6.26-4-10.29-4a9,9,0,0,0-5.37,1.5A6,6,0,0,0,111,132h2.5v3.08H111V153.3h-3.45V135.08H105V132h2.53a9,9,0,0,1,3.46-7.21,12.3,12.3,0,0,1,7.84-2.36,15.67,15.67,0,0,1,6.26,1.4,44.09,44.09,0,0,1,5.89,3.35Z"/><path class="cls-1" d="M119.78,140.79a3.24,3.24,0,0,0-.8-1.95,3.81,3.81,0,0,0-1.63-1.42,5.8,5.8,0,0,0-2.29-.19H113v-2.15h-1.92V132h23.22v3.08h-2.43v18.29h-3.38v-2.29c0-1.44-1.07-3-3.19-4.59s-3.78-2.29-5.28-2.29a3.74,3.74,0,0,0-2.06.62,2,2,0,0,0-1.1,1.71,1.75,1.75,0,0,0,.72,1.38,2.32,2.32,0,0,0,1.5.6,8.87,8.87,0,0,0,2.7-.89l1,3.25a9.18,9.18,0,0,1-3.9,1.2,5.65,5.65,0,0,1-4-1.59,5.06,5.06,0,0,1-1.71-3.85,5.33,5.33,0,0,1,2-4.34A6.63,6.63,0,0,1,119.78,140.79Zm8.69-5.71h-9q3.87,2.63,4,6.29a14.33,14.33,0,0,1,4.91,3.76Z"/><path class="cls-1" d="M152.16,135.08v18.29h-3.38v-1.92c0-1.68-1-3.47-3-5.35s-3.81-2.82-5.5-2.82a2.86,2.86,0,0,0-1.91.72,2.21,2.21,0,0,0-.84,1.74,2.34,2.34,0,0,0,.76,1.8,2.58,2.58,0,0,0,1.84.7,5.8,5.8,0,0,0,1.92-.51l1,3.21a8,8,0,0,1-3.59.75,4.93,4.93,0,0,1-3.87-1.81,6.17,6.17,0,0,1,.16-8.31,5.63,5.63,0,0,1,4.2-1.74q5,0,8.81,5.06v-9.81H132.13V132h22.08v3.08Z"/><path class="cls-1" d="M166.05,144.68a9,9,0,0,0,.68,3.52c.62,1.44,1.48,2.16,2.6,2.16a4.22,4.22,0,0,0,2-.79l1.12,3.11a6.16,6.16,0,0,1-3,.93q-6.5,0-6.5-9.92,0-5.37,7-11.69h4.17v3a9,9,0,0,0-5.78,3.33A9.72,9.72,0,0,0,166.05,144.68Z"/><path class="cls-1" d="M176.79,135.08v15l.82,0a11.28,11.28,0,0,0,5.74-1.5c2.21-1.18,3.32-2.61,3.32-4.27s-.84-2.67-2.5-2.67a10.73,10.73,0,0,0-3.28,1.4l-1.37-3a8.72,8.72,0,0,1,2.65-1.28,9.66,9.66,0,0,1,3-.53,4.51,4.51,0,0,1,3.79,1.77,6.58,6.58,0,0,1,1.23,4.11,7.47,7.47,0,0,1-3.07,5.81,13.85,13.85,0,0,1-6.12,2.94,42.31,42.31,0,0,1-7.63.48V135.08h-2V132h14.5v-.14a3.54,3.54,0,0,0-1.58-3,5.26,5.26,0,0,0-3.28-1.06c-1.66,0-4.1.86-7.32,2.6l-1.12-2.6a16.84,16.84,0,0,1,8.71-2.94,8,8,0,0,1,5.47,2,7.15,7.15,0,0,1,2.5,5.11H192v3.08Z"/><path class="cls-1" d="M186.29,158.46a4.21,4.21,0,0,0-3.38-2.12,10.16,10.16,0,0,0-2.75.56,10,10,0,0,1-2.75.57q-4,0-7.32-4.79l1.75-2.53c1.64,2.6,3.45,3.9,5.41,3.9a10.08,10.08,0,0,0,2.53-.48,10.22,10.22,0,0,1,2.54-.48,6.67,6.67,0,0,1,3.84,1.3V148h3.38v10.43Z"/><path class="cls-1" d="M203.87,135.08v6.63l6.32-2.53,2.43,2.26a18.58,18.58,0,0,1,.21,2.49,9.86,9.86,0,0,1-2.36,6.94,8.67,8.67,0,0,1-6.7,2.57,10.43,10.43,0,0,1-7.87-3.8,22.93,22.93,0,0,1-4.48-7.83l2.74-1.84q3.63,10.11,9.81,10.11a5.08,5.08,0,0,0,3.8-1.67,5.47,5.47,0,0,0,1.6-3.9,5.22,5.22,0,0,0-.17-1.4l-5.88,2.56-2.84-2.22v-8.37H189.82V132h24.61v3.08Z"/><path class="cls-1" d="M218.85,135.08v18.29h-3.39V135.08h-3V132h9.13v3.08Z"/><path class="cls-1" d="M237.89,135.08v18.08h-3.38v-9.6a2.28,2.28,0,0,0-.48-1.39,1.45,1.45,0,0,0-1.2-.63c-.76,0-1.67.94-2.74,2.84-.67,1.32-1.32,2.64-2,4a4.84,4.84,0,0,1-4.07,2.36,6.93,6.93,0,0,1-3.36-1.37v-3.72c1.3,1.16,2.31,1.74,3,1.74s1.5-.68,2.26-2a6.79,6.79,0,0,0,1-3.11q0-4.31-5.09-7.11h-2.7V132h20.65v3.08Zm-3.38,0h-7.22a9,9,0,0,1,2.58,4.34,3.89,3.89,0,0,1,2.61-1.2,2.68,2.68,0,0,1,2,.89Z"/><path class="cls-1" d="M233.72,132.2l-4.51-.13,7.45-6.57,3.46.07Z"/><path class="cls-2" d="M148.49,67.61l-7-7L123.07,42.19h0l-6.95-6.95h0l-6.32-6.31-7-6.95-6.95,7h0L82.42,42.41l7,7h0l6.31,6.32h0l6.95,7,13.49-13.48,18.46,18.46L102.85,99.34,64.17,60.66l-7,7L95.9,106.29l6.95,6.95,7-6.95,31.73-31.73ZM102.63,48.73l-6.31-6.32,6.53-6.53,6.32,6.31Z"/><polygon class="cls-3" points="114.57 10.27 107.61 17.22 158.23 67.83 124.02 102.05 119.03 97.07 112.08 104.02 117.06 109 123.69 115.62 124.02 115.95 169.1 70.87 172.13 67.83 114.57 10.27"/><polygon class="cls-4" points="118.39 6.95 160.03 48.59 169.01 57.57 175.96 64.52 179.88 60.6 182.91 57.57 125.34 0 118.39 6.95"/><rect class="cls-5" x="92.37" y="69.28" width="21.25" height="21.25" transform="translate(-26.34 96.24) rotate(-45)"/></g></g></svg>