<svg xmlns="http://www.w3.org/2000/svg" viewBox="0 0 430.77 184.92"><defs><style>.cls-1{fill:#231f20;}.cls-2{fill:#006b4f;}.cls-3{fill:#fff;}.cls-4{fill:#ee2e43;}</style></defs><title>logo</title><g id="Layer_2" data-name="Layer 2"><g id="Layer_1-2" data-name="Layer 1"><path class="cls-1" d="M205.58,66.56l22-43.06h.83l22,43.06h-8.95l-3.36-6.77H217.83l-3.3,6.77Zm16.26-14h12.31l-6.12-13Z"/><path class="cls-1" d="M299,23.5V66.56h-8.25V44.76L277.22,61l-13.43-16.2v21.8h-8.25V23.5h.53l21.15,24.86L298.43,23.5Z"/><path class="cls-1" d="M317.87,66.56h-8.25V23.5h8.25Z"/><path class="cls-1" d="M365.06,66.56,336.72,40.93V66.56h-8.25V23.5h.89l28.33,26v-26h8.25V66.56Z"/><path class="cls-1" d="M234.55,108.19a14.19,14.19,0,0,1-2.4,3.24,15.82,15.82,0,0,1-3.17,2.49,15.55,15.55,0,0,1-7.93,2.19,14.77,14.77,0,0,1-6-1.23,15.64,15.64,0,0,1-4.92-3.32,16.08,16.08,0,0,1-3.33-4.92,15.36,15.36,0,0,1,0-12,15.84,15.84,0,0,1,3.33-4.92,15.64,15.64,0,0,1,4.92-3.32,14.77,14.77,0,0,1,6-1.23A15.42,15.42,0,0,1,229,87.35a16.57,16.57,0,0,1,3.17,2.49,14.94,14.94,0,0,1,2.4,3.21l-5.34,2.16a12.55,12.55,0,0,0-1.53-1.84,11.46,11.46,0,0,0-1.94-1.51,10.51,10.51,0,0,0-2.24-1,8.4,8.4,0,0,0-2.45-.36,9,9,0,0,0-3.82.83,10.1,10.1,0,0,0-3.08,2.23,10.47,10.47,0,0,0-2.08,3.24,10,10,0,0,0,0,7.74,10.74,10.74,0,0,0,2.08,3.22,9.91,9.91,0,0,0,3.08,2.22,8.82,8.82,0,0,0,3.82.84,8.08,8.08,0,0,0,2.45-.37,9.61,9.61,0,0,0,2.24-1,10.21,10.21,0,0,0,1.94-1.53,12.62,12.62,0,0,0,1.53-1.85Z"/><path class="cls-1" d="M260.47,110.47v5.06H239V85.66h5.72v24.81Z"/><path class="cls-1" d="M269.77,90.72v7.47h14.45v5.18H269.77v7h16.29v5.14h-22V85.66h22v5.06Z"/><path class="cls-1" d="M288.3,115.53,303.56,85.7h.58l15.26,29.83h-6.2l-2.33-4.69H296.79l-2.29,4.69Zm11.26-9.67h8.53l-4.24-9Z"/><path class="cls-1" d="M348.25,115.53,328.62,97.78v17.75h-5.71V85.7h.61l19.63,18v-18h5.71v29.83Z"/><path class="cls-1" d="M361.92,115.53h-5.71V85.7h5.71Z"/><path class="cls-1" d="M394.61,115.53,375,97.78v17.75h-5.71V85.7h.61l19.63,18v-18h5.71v29.83Z"/><path class="cls-1" d="M430.77,99.21c0,.57,0,1.1,0,1.59s0,.87,0,1.29,0,.74,0,1a13.67,13.67,0,0,1-1.53,5.22,14.1,14.1,0,0,1-3.31,4.14,15.39,15.39,0,0,1-4.65,2.72,15.82,15.82,0,0,1-5.53,1,14.84,14.84,0,0,1-6-1.23,15.73,15.73,0,0,1-8.28-8.24,15.3,15.3,0,0,1,0-12,15.7,15.7,0,0,1,3.35-4.94,16,16,0,0,1,4.93-3.33A15.44,15.44,0,0,1,423,87a15.29,15.29,0,0,1,5.45,5l-4.89,3a11.34,11.34,0,0,0-3.41-3.23,8.46,8.46,0,0,0-4.55-1.3,9,9,0,0,0-3.82.83,10.31,10.31,0,0,0-3.1,2.23,10.52,10.52,0,0,0-2.1,3.24,10,10,0,0,0,0,7.74,10.8,10.8,0,0,0,2.1,3.22,10.11,10.11,0,0,0,3.1,2.22,8.85,8.85,0,0,0,3.82.84,9.63,9.63,0,0,0,3-.47,9.19,9.19,0,0,0,2.61-1.33,9.49,9.49,0,0,0,2.06-2,8.38,8.38,0,0,0,1.29-2.61h-11V99.21Z"/><path class="cls-1" d="M205.58,156.94l3.1-4.57a33.17,33.17,0,0,0,4.63,2.67,11.59,11.59,0,0,0,5,1.12,7.93,7.93,0,0,0,2.45-.34,6.06,6.06,0,0,0,1.8-.9,3.82,3.82,0,0,0,1.1-1.26,3.16,3.16,0,0,0,.37-1.41,2.24,2.24,0,0,0-.56-1.53,4,4,0,0,0-1.46-1,11.53,11.53,0,0,0-2.17-.7c-.83-.19-1.69-.37-2.59-.53l-2.08-.39a22.45,22.45,0,0,1-2.45-.61,15.53,15.53,0,0,1-2.49-1,9.08,9.08,0,0,1-2.2-1.59,7.29,7.29,0,0,1-1.57-2.29,7.49,7.49,0,0,1-.59-3.12,8.14,8.14,0,0,1,1.06-4.34,8,8,0,0,1,2.71-2.74,11.77,11.77,0,0,1,3.67-1.41,19.86,19.86,0,0,1,3.9-.4,21,21,0,0,1,3.35.24,14.73,14.73,0,0,1,2.73.71,15.54,15.54,0,0,1,2.47,1.19c.8.48,1.67,1,2.59,1.69l-3.18,4.49a20.39,20.39,0,0,0-4.08-2.24,11.05,11.05,0,0,0-4.12-.78,8.38,8.38,0,0,0-1.68.19,7.09,7.09,0,0,0-1.77.59,4.34,4.34,0,0,0-1.39,1,2.23,2.23,0,0,0-.55,1.53,2,2,0,0,0,.65,1.51,5.25,5.25,0,0,0,1.67,1,15.71,15.71,0,0,0,2.25.69l2.37.57c.57.14,1.24.28,2,.41a24.31,24.31,0,0,1,2.4.57,15.11,15.11,0,0,1,2.47,1,8.35,8.35,0,0,1,2.19,1.57,7.38,7.38,0,0,1,1.55,2.37,8.86,8.86,0,0,1,.59,3.41,9.22,9.22,0,0,1-.82,4,7.44,7.44,0,0,1-2.32,2.83,10.71,10.71,0,0,1-3.6,1.7,17.37,17.37,0,0,1-4.61.57,21.69,21.69,0,0,1-4.1-.35,17.35,17.35,0,0,1-3.24-.94,17.64,17.64,0,0,1-2.78-1.4C207.4,158.19,206.5,157.59,205.58,156.94Z"/><path class="cls-1" d="M240.23,136.05v7.46h14.44v5.19H240.23v7h16.28v5.14h-22V131h22v5.06Z"/><path class="cls-1" d="M268.1,160.86h-5.71V131H276a11.32,11.32,0,0,1,4.19.75,9.3,9.3,0,0,1,3.25,2.12,9.58,9.58,0,0,1,2.1,3.27,10.93,10.93,0,0,1,.76,4.14,10.32,10.32,0,0,1-1.7,5.92,9.52,9.52,0,0,1-4.51,3.63q3.76,5,7.44,10h-6.82q-1.79-2.33-3.5-4.7c-1.14-1.57-2.28-3.18-3.42-4.81H268.1Zm0-14.57H276a4.54,4.54,0,0,0,1.61-.31A4,4,0,0,0,279,145a4.87,4.87,0,0,0,1.08-1.57,5.33,5.33,0,0,0,.43-2.2,8.78,8.78,0,0,0-.17-1.55,4.88,4.88,0,0,0-.65-1.72,4.13,4.13,0,0,0-1.38-1.38,4.44,4.44,0,0,0-2.4-.57H268.1Z"/><path class="cls-1" d="M316.05,131l-14.2,29.83h-.33L287.36,131h6.29l8,17.3,8-17.3Z"/><path class="cls-1" d="M326.05,160.86h-5.71V131h5.71Z"/><path class="cls-1" d="M360.74,153.51a14.51,14.51,0,0,1-2.41,3.25,16.21,16.21,0,0,1-3.16,2.49,15.57,15.57,0,0,1-3.76,1.61,15.28,15.28,0,0,1-4.18.57,14.84,14.84,0,0,1-6-1.23A15.57,15.57,0,0,1,333,152a15.25,15.25,0,0,1,0-12,15.66,15.66,0,0,1,8.24-8.24,14.84,14.84,0,0,1,6-1.23,15.29,15.29,0,0,1,4.18.58,15.48,15.48,0,0,1,6.92,4.1,14.69,14.69,0,0,1,2.41,3.2l-5.35,2.16a10.93,10.93,0,0,0-1.53-1.83,10.62,10.62,0,0,0-1.94-1.51,9.25,9.25,0,0,0-2.24-1,8.08,8.08,0,0,0-2.45-.37,8.77,8.77,0,0,0-3.81.84,10.28,10.28,0,0,0-3.09,2.22,10.83,10.83,0,0,0-2.08,3.25,10.09,10.09,0,0,0,0,7.73,10.81,10.81,0,0,0,2.08,3.22,10.14,10.14,0,0,0,3.09,2.23,8.77,8.77,0,0,0,3.81.83,8.4,8.4,0,0,0,2.45-.36,10.08,10.08,0,0,0,2.24-1,10.72,10.72,0,0,0,1.94-1.53,12,12,0,0,0,1.53-1.86Z"/><path class="cls-1" d="M370.86,136.05v7.46h14.45v5.19H370.86v7h16.28v5.14h-22V131h22v5.06Z"/><path class="cls-1" d="M391.84,156.94l3.1-4.57a32.61,32.61,0,0,0,4.63,2.67,11.59,11.59,0,0,0,5,1.12,8,8,0,0,0,2.45-.34,6,6,0,0,0,1.79-.9,3.86,3.86,0,0,0,1.11-1.26,3.14,3.14,0,0,0,.36-1.41,2.23,2.23,0,0,0-.55-1.53,4,4,0,0,0-1.47-1,11.19,11.19,0,0,0-2.16-.7c-.83-.19-1.69-.37-2.59-.53l-2.08-.39a22.45,22.45,0,0,1-2.45-.61,15.53,15.53,0,0,1-2.49-1,8.89,8.89,0,0,1-2.2-1.59,7.31,7.31,0,0,1-1.58-2.29,7.65,7.65,0,0,1-.59-3.12,8.23,8.23,0,0,1,1.06-4.34,8.1,8.1,0,0,1,2.72-2.74,11.67,11.67,0,0,1,3.67-1.41,19.86,19.86,0,0,1,3.9-.4,20.76,20.76,0,0,1,3.34.24,14.83,14.83,0,0,1,2.74.71,16,16,0,0,1,2.47,1.19c.8.48,1.66,1,2.59,1.69l-3.18,4.49a20.18,20.18,0,0,0-4.09-2.24,11,11,0,0,0-4.12-.78,8.29,8.29,0,0,0-1.67.19,7.16,7.16,0,0,0-1.78.59,4.29,4.29,0,0,0-1.38,1,2.23,2.23,0,0,0-.55,1.53,2,2,0,0,0,.65,1.51,5.14,5.14,0,0,0,1.67,1,15.71,15.71,0,0,0,2.25.69l2.36.57c.58.14,1.25.28,2,.41a23.83,23.83,0,0,1,2.41.57,15.47,15.47,0,0,1,2.47,1,8.3,8.3,0,0,1,2.18,1.57,7.41,7.41,0,0,1,1.56,2.37,8.86,8.86,0,0,1,.59,3.41,9.36,9.36,0,0,1-.82,4,7.37,7.37,0,0,1-2.33,2.83,10.57,10.57,0,0,1-3.59,1.7,17.37,17.37,0,0,1-4.61.57,21.62,21.62,0,0,1-4.1-.35,17.35,17.35,0,0,1-3.24-.94,17.64,17.64,0,0,1-2.78-1.4C393.66,158.19,392.76,157.59,391.84,156.94Z"/><circle class="cls-2" cx="92.46" cy="92.46" r="92.46"/><circle class="cls-3" cx="92.46" cy="92.46" r="82.23"/><circle class="cls-4" cx="92.46" cy="92.46" r="72.01"/><path class="cls-3" d="M131.34,27.5l-28.8,55.85a4.58,4.58,0,0,1,.49.15,21,21,0,0,1,3.42,1.42,18.15,18.15,0,0,1,3.5,2.39l28.86-56a4.2,4.2,0,1,0-7.47-3.85Z"/><path class="cls-3" d="M36.18,131.07a65.33,65.33,0,0,0,16.71,10.7A86.89,86.89,0,0,0,74,148.32h0a2.56,2.56,0,0,0,.39,0h.09C86,148,95.06,144.12,101.27,136.9c8.17-9.49,11.12-23.77,10.55-36A15.08,15.08,0,0,0,108,91.2c-.19-.19-.37-.38-.57-.56a14,14,0,0,0-2.85-2,16.59,16.59,0,0,0-2.79-1.16,8.29,8.29,0,0,0-1.19-.3,9.21,9.21,0,0,0-1.65-.15C94.85,87.05,91,89.6,88,92.2a94.63,94.63,0,0,1-9.64,7.92c-3.8,2.51-8,3.78-12.31,5a106.23,106.23,0,0,1-17.16,3.26,139.13,139.13,0,0,1-15.56.92q-3.11,0-6.18-.17l-.36,0h-.2a2.87,2.87,0,0,0-2.7,3.79,43.41,43.41,0,0,0,12.3,18.16Zm-4-16.07h.9a148.71,148.71,0,0,0,16.63-.94c13.91-1.58,25.24-5,33.83-10.08a1.57,1.57,0,0,1,.79-.22,1.53,1.53,0,0,1,.75.2c5,2.74,12.74,6.8,18.27,8.77a1.56,1.56,0,0,1,1,1.65c-.66,5.77-2.53,13.11-7.45,18.81s-12.48,9-22.12,9.42h-.09a1.64,1.64,0,0,1-.38,0c-1-.17-3.37-.63-6.58-1.52.91-.4,1.86-.89,2.82-1.43s1.73-1,2.58-1.56c2.65-1.71,5.22-3.66,7.22-5.25a.51.51,0,0,0-.52-.87,68.84,68.84,0,0,1-14.93,3.87c-1.57.25-3.08.46-4.48.64-1.64.2-3.11.36-4.34.48l-1-.44a67.81,67.81,0,0,1-7.77-4.16,30.38,30.38,0,0,0,3.26-.5c1-.21,2-.46,3.05-.73a77.64,77.64,0,0,0,7.72-2.58.34.34,0,0,0-.16-.65c-3.51.34-8.39.37-12.55.31l-3.79-.08c-1.49,0-2.73-.09-3.55-.13-.47-.39-.94-.8-1.4-1.21s-1.15-1.07-1.7-1.62c.85-.09,1.73-.22,2.62-.39s1.67-.36,2.51-.57a75.81,75.81,0,0,0,8.69-2.82.34.34,0,0,0-.15-.66c-3.3.32-7.8.37-11.78.32L37.3,121l-2.74-.07a37.61,37.61,0,0,1-3.06-4.79.77.77,0,0,1,.68-1.13Z"/><path class="cls-3" d="M123.11,125a6.75,6.75,0,1,1-6.75-6.75,6.75,6.75,0,0,1,6.75,6.75Z"/><path class="cls-3" d="M105.22,140.4a3.41,3.41,0,1,1-3.41-3.4,3.41,3.41,0,0,1,3.41,3.4Z"/><path class="cls-3" d="M123.7,139.62a3.41,3.41,0,1,1-3.41-3.41,3.41,3.41,0,0,1,3.41,3.41Z"/><path class="cls-2" d="M58.18,45.68a1.1,1.1,0,0,0-.9.47c-.59.87-14.57,21.34-14.57,31.69a15.47,15.47,0,0,0,30.94,0c0-10.35-14-30.82-14.57-31.69a1.1,1.1,0,0,0-.9-.47Zm0,45.45A13.3,13.3,0,0,1,44.89,77.84c0-8.23,10.17-24.35,13.29-29.1,3.12,4.75,13.28,20.87,13.28,29.1A13.3,13.3,0,0,1,58.18,91.13Z"/><path class="cls-2" d="M57.09,87.13a1.09,1.09,0,0,0,1.09,1.09A10.4,10.4,0,0,0,68.56,77.84a1.1,1.1,0,0,0-2.19,0A8.2,8.2,0,0,1,58.18,86a1.09,1.09,0,0,0-1.09,1.09Z"/><path class="cls-2" d="M79.57,50.1H77.45V48a1.09,1.09,0,0,0-2.18,0V50.1H73.15a1.09,1.09,0,1,0,0,2.18h2.12V54.4a1.09,1.09,0,0,0,2.18,0V52.28h2.12a1.09,1.09,0,1,0,0-2.18Z"/><path class="cls-2" d="M40.17,83H38.05V80.83a1.09,1.09,0,1,0-2.18,0V83H33.75a1.09,1.09,0,1,0,0,2.18h2.12v2.12a1.09,1.09,0,0,0,2.18,0V85.13h2.12a1.09,1.09,0,1,0,0-2.18Z"/></g></g></svg>