<svg xmlns="http://www.w3.org/2000/svg" xmlns:xlink="http://www.w3.org/1999/xlink" viewBox="0 0 98.39 143.78"><defs><style>.cls-1{fill:#fff;}.cls-2{fill:#2e3191;}.cls-3{fill:#ec1c24;}.cls-4{fill:url(#linear-gradient);}.cls-5{fill:url(#radial-gradient);}.cls-6{fill:#2a276e;}</style><linearGradient id="linear-gradient" x1="55.82" y1="65.52" x2="58.98" y2="65.25" gradientUnits="userSpaceOnUse"><stop offset="0" stop-color="#fff"/><stop offset="0.58" stop-color="#403e92"/><stop offset="1" stop-color="#2e3191"/></linearGradient><radialGradient id="radial-gradient" cx="-43.29" cy="-43.36" r="3.58" gradientTransform="translate(101.34 59.55) scale(1.21 0.87)" gradientUnits="userSpaceOnUse"><stop offset="0" stop-color="#fff"/><stop offset="0.17" stop-color="#fcfcfd"/><stop offset="0.31" stop-color="#f2f2f8"/><stop offset="0.44" stop-color="#e0e1ef"/><stop offset="0.57" stop-color="#c8c9e2"/><stop offset="0.69" stop-color="#a9aad2"/><stop offset="0.8" stop-color="#8284bd"/><stop offset="0.91" stop-color="#5658a6"/><stop offset="1" stop-color="#2e3191"/></radialGradient></defs><title>Asset 3</title><g id="Layer_2" data-name="Layer 2"><g id="Layer_1-2" data-name="Layer 1"><path class="cls-1" d="M51.56,133.71A151,151,0,0,1,7.44,127l-.62-.22V38c0-.3,1.14-7.52,6.9-15.86C19,14.51,29.44,4.45,49,0l.2,0,.2,0c19.56,4.4,30,14.47,35.28,22.13,5.76,8.34,6.85,15.55,6.9,15.86v88.74L91,127A111.34,111.34,0,0,1,51.56,133.71Z"/><path class="cls-2" d="M51.56,133.71A151,151,0,0,1,7.44,127l-.62-.22V38c0-.3,1.14-7.52,6.9-15.86C19,14.51,29.44,4.45,49,0l.2,0,.2,0c19.56,4.4,30,14.47,35.28,22.13,5.76,8.34,6.85,15.55,6.9,15.86v88.74L91,127A111.34,111.34,0,0,1,51.56,133.71ZM8.67,125.47a150.77,150.77,0,0,0,42.89,6.4,109.87,109.87,0,0,0,38.18-6.37V38.24a40.27,40.27,0,0,0-6.63-15.09C78,15.81,68,6.18,49.21,1.9,30.41,6.18,20.4,15.81,15.3,23.15A40.26,40.26,0,0,0,8.67,38.24Z"/><path class="cls-2" d="M51.62,123.06a153.75,153.75,0,0,1-17.25-1,150.43,150.43,0,0,1-26.92-5.42L8,114.9c.43.14,43.81,14.06,82.32,0l.63,1.74C77.59,121.55,63.7,123.06,51.62,123.06Z"/><path class="cls-3" d="M11.06,119l.94.28a2.22,2.22,0,0,1,.83.41,1.15,1.15,0,0,1,.35.59,1.33,1.33,0,0,1,0,.71,1.29,1.29,0,0,1-.34.57,1.22,1.22,0,0,1-.59.31,1.84,1.84,0,0,1,.48.49,1.33,1.33,0,0,1,.19.53,1.53,1.53,0,0,1-.77,1.5,1.58,1.58,0,0,1-1.25.08l-1.31-.39Zm-.3,2.78-.57,2,.59.18a2.1,2.1,0,0,0,.8.12.92.92,0,0,0,.49-.22,1,1,0,0,0,.26-1.11,1.12,1.12,0,0,0-.47-.52,4.12,4.12,0,0,0-.83-.32Zm.62-2.14-.47,1.63.27.08a2.12,2.12,0,0,0,.76.12.82.82,0,0,0,.46-.2.88.88,0,0,0,.27-.43.72.72,0,0,0-.07-.62,1.16,1.16,0,0,0-.67-.42Z"/><path class="cls-3" d="M11.46,124.64a2,2,0,0,1-.58-.09l-1.37-.41,0-.06,1.5-5.15,1,.3a2.28,2.28,0,0,1,.85.42,1.21,1.21,0,0,1,.37.62,1.4,1.4,0,0,1,0,.74,1.35,1.35,0,0,1-.35.6,1.25,1.25,0,0,1-.5.3,1.76,1.76,0,0,1,.4.43,1.39,1.39,0,0,1,.19.56,1.59,1.59,0,0,1-.8,1.56A1.48,1.48,0,0,1,11.46,124.64Zm-1.81-.58,1.26.38a1.53,1.53,0,0,0,1.21-.08,1.41,1.41,0,0,0,.69-.88,1.39,1.39,0,0,0,0-.57,1.29,1.29,0,0,0-.18-.51,1.8,1.8,0,0,0-.47-.47l-.1-.07.12,0a1.17,1.17,0,0,0,.56-.3,1.24,1.24,0,0,0,.32-.55,1.28,1.28,0,0,0,0-.68,1.1,1.1,0,0,0-.34-.56,2.16,2.16,0,0,0-.81-.39l-.89-.27Zm1.83,0a2.62,2.62,0,0,1-.71-.13l-.65-.2,0-.06.58-2,.33.1a4.13,4.13,0,0,1,.85.32,1.18,1.18,0,0,1,.5.55,1,1,0,0,1-.27,1.18,1,1,0,0,1-.52.24Zm-1.21-.4.54.16a2,2,0,0,0,.78.12.86.86,0,0,0,.46-.21.9.9,0,0,0,.28-.43.89.89,0,0,0,0-.62,1.06,1.06,0,0,0-.45-.49,4.05,4.05,0,0,0-.82-.31l-.21-.06Zm1.59-2.16a2.56,2.56,0,0,1-.69-.13l-.33-.1.51-1.74.61.18a1.22,1.22,0,0,1,.71.44.78.78,0,0,1,.08.67.94.94,0,0,1-.29.46.88.88,0,0,1-.49.21Zm-.88-.31.22.07a2,2,0,0,0,.74.12.77.77,0,0,0,.43-.19.83.83,0,0,0,.26-.4.66.66,0,0,0-.06-.57,1.11,1.11,0,0,0-.64-.39l-.5-.15Z"/><path class="cls-3" d="M14.81,120.11l2.77.73-.13.5-2.29-.6-.41,1.61L17,123l-.13.5-2.27-.6-.51,2,2.27.6-.13.5-2.75-.72Z"/><path class="cls-3" d="M16.3,126l-2.86-.75L14.77,120l2.88.76-.16.62-2.29-.6-.38,1.5,2.27.6-.16.62-2.27-.6-.48,1.91,2.27.6Zm-2.72-.84,2.64.69.1-.39-2.27-.6.54-2.13,2.27.6L17,123l-2.27-.6.44-1.72,2.29.6.1-.39-2.66-.7Z"/><path class="cls-3" d="M20.25,121.47l1.14,5.7-.52-.12-.39-1.88-2.1-.48-1.13,1.53-.54-.12,3.43-4.66Zm-.3,1.09-1.24,1.69,1.66.38Z"/><path class="cls-3" d="M21.46,127.25l-.65-.15-.39-1.88-2-.46-1.13,1.53-.67-.15.05-.07,3.45-4.69.19,0v0Zm-.55-.24.4.09-1.11-5.58h0l-3.36,4.56.42.1,1.13-1.53h0l2.13.49Zm-.47-2.3-1.84-.42L20,122.42Zm-1.64-.49,1.49.34-.38-1.85Z"/><path class="cls-3" d="M27.43,123.92l-.44.24a2.22,2.22,0,0,0-.65-.82,2.19,2.19,0,0,0-.94-.42,2.13,2.13,0,0,0-2.06.75,2.36,2.36,0,0,0-.48,1.09,2.26,2.26,0,0,0,.33,1.71,2.12,2.12,0,0,0,1.44.93,2.15,2.15,0,0,0,1.88-.53l.33.39a2.51,2.51,0,0,1-1.05.6,2.76,2.76,0,0,1-1.27,0,2.55,2.55,0,0,1-1.87-1.3,2.93,2.93,0,0,1-.29-2,2.69,2.69,0,0,1,1.1-1.79,2.54,2.54,0,0,1,2-.43,2.71,2.71,0,0,1,1.19.52A2.54,2.54,0,0,1,27.43,123.92Z"/><path class="cls-3" d="M25.07,128a3.15,3.15,0,0,1-.58-.06,2.61,2.61,0,0,1-1.91-1.33,3,3,0,0,1-.3-2,2.75,2.75,0,0,1,1.12-1.82,2.6,2.6,0,0,1,2.08-.44,2.79,2.79,0,0,1,1.21.54,2.61,2.61,0,0,1,.78,1l0,0-.54.3,0-.06a2.18,2.18,0,0,0-.63-.8,2.14,2.14,0,0,0-.92-.4,2.08,2.08,0,0,0-2,.73,2.32,2.32,0,0,0-.47,1.06,2.21,2.21,0,0,0,.32,1.67,2.08,2.08,0,0,0,1.4.91,2.11,2.11,0,0,0,1.83-.52l0,0,.4.47,0,0a2.59,2.59,0,0,1-1.08.61A2.66,2.66,0,0,1,25.07,128Zm-.15-5.6a2.43,2.43,0,0,0-1.44.47,2.64,2.64,0,0,0-1.08,1.75,2.89,2.89,0,0,0,.28,1.94,2.51,2.51,0,0,0,1.83,1.27,2.73,2.73,0,0,0,1.25,0,2.46,2.46,0,0,0,1-.55l-.26-.3a2.27,2.27,0,0,1-3.36-.45,2.33,2.33,0,0,1-.34-1.75,2.43,2.43,0,0,1,.49-1.11,2.19,2.19,0,0,1,2.12-.77A2.21,2.21,0,0,1,27,124.09l.34-.19a2.48,2.48,0,0,0-.72-.91,2.66,2.66,0,0,0-1.16-.51A3,3,0,0,0,24.92,122.42Z"/><path class="cls-3" d="M30.69,123.29a2.54,2.54,0,0,1,1.77,1.08,2.8,2.8,0,0,1,.48,2.08,2.76,2.76,0,0,1-1,1.85,2.43,2.43,0,0,1-1.95.53,2.5,2.5,0,0,1-1.74-1.08,2.77,2.77,0,0,1-.49-2.05,3,3,0,0,1,.54-1.35,2.59,2.59,0,0,1,1.08-.87A2.42,2.42,0,0,1,30.69,123.29Zm0,.52a2,2,0,0,0-1.08.15,2.11,2.11,0,0,0-.88.71,2.39,2.39,0,0,0-.43,1.11,2.26,2.26,0,0,0,.39,1.67,2,2,0,0,0,1.38.86,2,2,0,0,0,1.1-.14,2.06,2.06,0,0,0,.88-.7,2.53,2.53,0,0,0,.32-2.28,2.17,2.17,0,0,0-.66-.93A2,2,0,0,0,30.64,123.81Z"/><path class="cls-3" d="M30.37,128.91a2.8,2.8,0,0,1-.41,0,2.57,2.57,0,0,1-1.78-1.1,2.84,2.84,0,0,1-.5-2.09,3,3,0,0,1,.55-1.38,2.66,2.66,0,0,1,1.1-.89,2.49,2.49,0,0,1,1.37-.18,2.6,2.6,0,0,1,1.8,1.1,2.86,2.86,0,0,1,.49,2.12,2.83,2.83,0,0,1-1,1.88A2.49,2.49,0,0,1,30.37,128.91Zm0-5.59a2.37,2.37,0,0,0-.94.2,2.55,2.55,0,0,0-1.05.85,2.92,2.92,0,0,0-.53,1.33,2.73,2.73,0,0,0,.48,2,2.45,2.45,0,0,0,1.7,1.05,2.37,2.37,0,0,0,1.91-.52,2.72,2.72,0,0,0,1-1.81,2.75,2.75,0,0,0-.47-2,2.49,2.49,0,0,0-1.73-1.05Zm0,5.07h0l-.32,0a2.06,2.06,0,0,1-1.42-.89,2.33,2.33,0,0,1-.4-1.72,2.46,2.46,0,0,1,.45-1.13,2.18,2.18,0,0,1,.9-.72,2,2,0,0,1,1.11-.15,2.09,2.09,0,0,1,1,.47,2.24,2.24,0,0,1,.68.95,2.59,2.59,0,0,1-.32,2.33,2.13,2.13,0,0,1-.9.72A2.08,2.08,0,0,1,30.33,128.39Zm0-4.55a1.94,1.94,0,0,0-.77.17,2.07,2.07,0,0,0-.86.69,2.35,2.35,0,0,0-.42,1.08,2.22,2.22,0,0,0,.38,1.63,1.94,1.94,0,0,0,1.34.84,2,2,0,0,0,1.07-.13,2,2,0,0,0,.85-.68,2.47,2.47,0,0,0,.31-2.22,2.12,2.12,0,0,0-.64-.9,2,2,0,0,0-1-.45Z"/><path class="cls-3" d="M33.53,129.19l.53-5.29h.11l2.89,4.42.41-4.05.49.05-.53,5.29h-.11l-2.87-4.37-.4,4Z"/><path class="cls-3" d="M37.48,129.68l-.2,0v0l-2.78-4.23-.39,3.9-.63-.07v-.06l.54-5.34.19,0v0l2.8,4.28.4-3.95.6.07v.06Zm-.13-.13h0l.52-5.17-.37,0-.42,4.16-3-4.53h0l-.52,5.17.4,0,.41-4.11.09.14Z"/><path class="cls-3" d="M40.77,124.56l.5,0-.34,5.3-.5,0Z"/><path class="cls-3" d="M41,130l-.61,0,.34-5.42.61,0Zm-.49-.15.38,0,.33-5.19-.38,0Z"/><path class="cls-3" d="M42,130l.21-5.31,1,.05a5,5,0,0,1,1.61.27A2.23,2.23,0,0,1,46,126a3,3,0,0,1,.34,1.61A2.92,2.92,0,0,1,46,129a2.11,2.11,0,0,1-.88.85,3,3,0,0,1-1.46.22Zm.5-.48.58,0a5,5,0,0,0,1.44-.06,1.64,1.64,0,0,0,.91-.66,2.25,2.25,0,0,0,.37-1.22,2.4,2.4,0,0,0-.3-1.33,1.8,1.8,0,0,0-.94-.8,5.52,5.52,0,0,0-1.53-.23l-.35,0Z"/><path class="cls-3" d="M43.91,130.14h-.28L42,130l.22-5.43,1.09.06a5.06,5.06,0,0,1,1.63.28,2.29,2.29,0,0,1,1.12,1,3.09,3.09,0,0,1,.35,1.64A3,3,0,0,1,46,129a2.18,2.18,0,0,1-.9.88A2.74,2.74,0,0,1,43.91,130.14Zm-1.8-.2,1.53.08a2.9,2.9,0,0,0,1.43-.21,2.07,2.07,0,0,0,.85-.83,2.88,2.88,0,0,0,.37-1.36A3,3,0,0,0,46,126a2.18,2.18,0,0,0-1.07-1,5,5,0,0,0-1.59-.27l-1,0Zm1.59-.32h0l-.58,0-.63,0,.18-4.41.41,0a5.59,5.59,0,0,1,1.55.23,1.86,1.86,0,0,1,1,.82,2.46,2.46,0,0,1,.3,1.36,2.32,2.32,0,0,1-.38,1.25,1.7,1.7,0,0,1-.94.68A3.43,3.43,0,0,1,43.7,129.62Zm-1.09-.16.52,0,.57,0h0a3.33,3.33,0,0,0,.84-.08,1.59,1.59,0,0,0,.88-.63,2.21,2.21,0,0,0,.36-1.19,2.35,2.35,0,0,0-.29-1.3,1.75,1.75,0,0,0-.91-.77,5.49,5.49,0,0,0-1.52-.23l-.29,0Z"/><path class="cls-3" d="M47.22,124.91l2.86.05v.52l-2.36,0v1.67l2.34,0v.52l-2.34,0,0,2.09,2.34,0v.52l-2.83-.05Z"/><path class="cls-3" d="M50.07,130.34H50l-2.89-.06,0-5.43h.06l2.91.06v.64h-.06l-2.3,0V127l2.34,0v.64H50l-2.28,0,0,2,2.34,0Zm-2.83-.17,2.72.05v-.4l-2.34,0,0-2.21h.06l2.28,0v-.4l-2.34,0,0-1.78h.06l2.3,0V125L47.28,125Z"/><path class="cls-3" d="M52.75,124.94l2.45,5.29h-.54l-.82-1.74-2.15,0L51,130.29H50.4l2.23-5.35Zm0,1.13L51.91,128l1.7,0Z"/><path class="cls-3" d="M50.31,130.35l2.27-5.47h.2l0,0,2.49,5.37h-.66l0,0-.81-1.71-2.07,0L51,130.34ZM52.67,125l-2.18,5.23h.43l.73-1.76,2.22,0,0,0,.81,1.71h.41L52.71,125Zm-.85,3.07.89-2.14,1,2.11Zm.9-1.85L52,128l1.53,0Z"/><path class="cls-3" d="M55.65,124.88l.5,0,.26,4.8,1.91-.08,0,.51-2.41.11Z"/><path class="cls-3" d="M55.89,130.25l-.3-5.43.61,0,.26,4.8,1.91-.08,0,.63Zm-.18-5.32.29,5.2,2.3-.1,0-.4-1.91.08-.26-4.8Z"/><path class="cls-3" d="M60.6,124.59l.5,0,.47,5.3-.5,0Z"/><path class="cls-3" d="M61,130v-.06l-.48-5.36.61,0v.06l.48,5.36Zm-.36-5.31.46,5.19.38,0L61,124.62Z"/><path class="cls-3" d="M62.8,129.77l-.62-5.29h.11l3.77,3.7-.47-4.05.49-.05.62,5.29h-.11l-3.73-3.66.47,4Z"/><path class="cls-3" d="M62.74,129.83v-.06l-.62-5.35.19,0,0,0L66,128l-.46-3.95.6-.06v.06l.62,5.35-.2,0,0,0-3.62-3.54.46,3.9Zm-.5-5.3.6,5.17.4,0-.48-4.11,3.83,3.75h0l-.6-5.17-.37,0,.49,4.16-3.87-3.8Z"/><path class="cls-3" d="M67.35,128.27l.38-.33q.58.81,1.16.72a.93.93,0,0,0,.45-.19.84.84,0,0,0,.28-.38.91.91,0,0,0,0-.46,1,1,0,0,0-.25-.49,4.27,4.27,0,0,0-1-.72,4.56,4.56,0,0,1-.88-.61,1.41,1.41,0,0,1-.38-.77,1.29,1.29,0,0,1,.06-.65,1.12,1.12,0,0,1,.36-.51,1.19,1.19,0,0,1,.58-.25,1.25,1.25,0,0,1,.68.09,2.39,2.39,0,0,1,.75.59l-.35.38a2.07,2.07,0,0,0-.55-.45.79.79,0,0,0-.45-.06.65.65,0,0,0-.57.77.87.87,0,0,0,.12.32,1.26,1.26,0,0,0,.3.32q.11.09.72.44a3.8,3.8,0,0,1,1,.77,1.55,1.55,0,0,1,.36.76,1.39,1.39,0,0,1-.25,1.05,1.32,1.32,0,0,1-.92.56,1.41,1.41,0,0,1-.85-.14A2.37,2.37,0,0,1,67.35,128.27Z"/><path class="cls-3" d="M68.79,129.24a1.46,1.46,0,0,1-.67-.16,2.43,2.43,0,0,1-.83-.78l0,0,.46-.4,0,.05c.37.52.74.76,1.1.7a.88.88,0,0,0,.42-.18.79.79,0,0,0,.26-.35.85.85,0,0,0,0-.43.9.9,0,0,0-.23-.47,4.25,4.25,0,0,0-1-.71,4.55,4.55,0,0,1-.89-.62,1.47,1.47,0,0,1-.4-.8,1.36,1.36,0,0,1,.06-.68,1.19,1.19,0,0,1,.38-.53,1.25,1.25,0,0,1,.61-.26,1.31,1.31,0,0,1,.71.1,2.46,2.46,0,0,1,.77.6l0,0-.43.47,0,0a2,2,0,0,0-.54-.44.73.73,0,0,0-.41-.06.6.6,0,0,0-.52.7.82.82,0,0,0,.11.3,1.22,1.22,0,0,0,.29.3c.07.05.3.2.71.43a3.88,3.88,0,0,1,1,.79,1.62,1.62,0,0,1,.37.79,1.45,1.45,0,0,1-.26,1.1,1.38,1.38,0,0,1-1,.59Zm-1.37-1a2.26,2.26,0,0,0,.75.7,1.35,1.35,0,0,0,.82.13,1.27,1.27,0,0,0,.89-.54,1.34,1.34,0,0,0,.24-1,1.5,1.5,0,0,0-.35-.73,3.75,3.75,0,0,0-1-.76c-.42-.24-.65-.38-.72-.44a1.31,1.31,0,0,1-.31-.33.93.93,0,0,1-.13-.34.71.71,0,0,1,.62-.83.85.85,0,0,1,.48.07,2,2,0,0,1,.53.42l.27-.3a2.27,2.27,0,0,0-.69-.53,1.2,1.2,0,0,0-.65-.09,1.13,1.13,0,0,0-.55.24,1.08,1.08,0,0,0-.35.48,1.24,1.24,0,0,0-.06.62,1.35,1.35,0,0,0,.37.74,4.55,4.55,0,0,0,.86.6,4.35,4.35,0,0,1,1,.74,1,1,0,0,1,.26.53,1,1,0,0,1,0,.49.9.9,0,0,1-.3.4,1,1,0,0,1-.47.2c-.39.06-.79-.18-1.17-.7Z"/><path class="cls-3" d="M70.17,124l-.09-.51,2.69-.46.09.51-1.09.19.86,4.73-.5.09-.86-4.73Z"/><path class="cls-3" d="M72.08,128.62v-.06l-.85-4.67-1.09.19-.11-.63,2.8-.48.11.63-1.09.19.86,4.73Zm-.77-4.86v.06l.85,4.67.39-.07-.86-4.73,1.09-.19-.07-.4-2.57.44.07.4Z"/><path class="cls-3" d="M73.34,122.92l.49-.09L74.89,128l-.49.09Z"/><path class="cls-3" d="M74.35,128.21l-1.08-5.34.6-.12v.06L75,128.09ZM73.41,123l1,5.11.37-.07-1-5.11Z"/><path class="cls-3" d="M74.55,123.22l-.11-.51,2.66-.57.11.51-1.08.23,1,4.69-.5.11-1-4.69Z"/><path class="cls-3" d="M76.63,127.76v-.06l-1-4.64-1.08.23-.14-.62,2.78-.59.14.62-1.08.23,1,4.69Zm-1-4.83V123l1,4.64.38-.08-1-4.69,1.08-.23-.09-.4-2.55.54.09.4Z"/><path class="cls-3" d="M77.75,122l.48-.12L79,125a7.07,7.07,0,0,0,.2.69,1.25,1.25,0,0,0,.3.47,1,1,0,0,0,.49.24,1.23,1.23,0,0,0,.58,0,1,1,0,0,0,.43-.22,1.05,1.05,0,0,0,.29-.39,1.29,1.29,0,0,0,.1-.52,4.21,4.21,0,0,0-.16-.82l-.81-3.12.48-.12.81,3.12a4.16,4.16,0,0,1,.16,1.15,1.55,1.55,0,0,1-.31.87,1.41,1.41,0,0,1-.83.54,1.73,1.73,0,0,1-1.08,0,1.5,1.5,0,0,1-.76-.65,4.62,4.62,0,0,1-.37-1.07Z"/><path class="cls-3" d="M80.29,127a1.67,1.67,0,0,1-.62-.12,1.56,1.56,0,0,1-.79-.68,4.61,4.61,0,0,1-.38-1.08L77.68,122l.59-.15L79.1,125a7,7,0,0,0,.2.68,1.2,1.2,0,0,0,.28.45,1,1,0,0,0,.47.23,1.17,1.17,0,0,0,.56,0,1,1,0,0,0,.41-.21,1,1,0,0,0,.27-.37,1.23,1.23,0,0,0,.09-.5,4.18,4.18,0,0,0-.16-.81l-.82-3.17.59-.15.82,3.17a4.24,4.24,0,0,1,.16,1.17,1.62,1.62,0,0,1-.32.9,1.47,1.47,0,0,1-.87.57A2,2,0,0,1,80.29,127Zm-2.46-5,.79,3.06a4.6,4.6,0,0,0,.36,1.05,1.45,1.45,0,0,0,.73.63,1.69,1.69,0,0,0,1,0,1.36,1.36,0,0,0,.8-.52,1.5,1.5,0,0,0,.3-.84,4.11,4.11,0,0,0-.16-1.13l-.79-3.06-.37.09.79,3.06a4.25,4.25,0,0,1,.16.83,1.34,1.34,0,0,1-.1.54,1.11,1.11,0,0,1-.3.41,1.1,1.1,0,0,1-.45.23,1.29,1.29,0,0,1-.61,0,1.11,1.11,0,0,1-.52-.26,1.31,1.31,0,0,1-.31-.49A7.09,7.09,0,0,1,79,125L78.19,122Z"/><path class="cls-3" d="M81.73,121.54l-.15-.5,2.62-.75.15.5-1.07.3,1.36,4.61-.49.14-1.36-4.61Z"/><path class="cls-3" d="M84.12,125.92l-1.36-4.61-1.07.3-.18-.61.06,0,2.67-.76.18.61-1.07.3,1.36,4.61Zm-1.29-4.76,1.36,4.61.38-.11-1.36-4.61,1.07-.3-.12-.39-2.51.72.12.39Z"/><path class="cls-3" d="M84.82,120.1l2.71-.87.16.5-2.24.72L86,122l2.22-.71.16.5-2.22.71.66,2,2.22-.71.16.5-2.69.86Z"/><path class="cls-3" d="M86.45,125.24l-1.71-5.18,2.82-.9.2.61-2.24.72L86,122l2.22-.71.2.61-2.22.71.62,1.88,2.22-.71.2.61Zm-1.56-5.1,1.64,5,2.58-.83-.13-.39-2.22.71-.69-2.1,2.22-.71-.13-.39-2.22.71-.56-1.7,2.24-.72-.13-.39Z"/><path class="cls-2" d="M65.24,110H31.9l.69-8.21,4.16-.12,6.16-68.82.38,0c1.06-.11,2.63-.16,4.66-.16,3.44,0,7.09.16,7.12.16l.4,0,0,.4,6,68.4,3.69.45Zm-32.33-.92h31.4v-6.18l-3.62-.44,0-.37-6-68.36c-1,0-3.92-.14-6.68-.14-1.77,0-3.17,0-4.19.12L37.61,102.6l-4.16.12Z"/><polygon class="cls-4" points="58.58 97.09 53.91 33.66 56.21 33.66 61.08 97.09 58.58 97.09"/><path class="cls-2" d="M53.06,50.92H48.28V40.26h4.78ZM49.21,50h2.93V41.19H49.21Z"/><path class="cls-2" d="M49.94,71.82H43.63l1.51-11.7h4.8Zm-5.25-.92H49V61H46Z"/><path class="cls-2" d="M46.24,102h-.92V86.9l.41,0c4.71-.56,7.58-.14,8.53,1.27a1.67,1.67,0,0,1,.19,1.62L54,89.52l-.42-.19a.82.82,0,0,0-.18-.75c-.45-.57-2-1.42-7.2-.85Z"/><polygon class="cls-2" points="42.19 76.46 46.47 76.46 42.19 89.68 42.19 76.46"/><path class="cls-2" d="M56.68,53.09a41.59,41.59,0,0,0-15,0l-.2-.9a42.55,42.55,0,0,1,15.33,0Z"/><path class="cls-2" d="M58.54,74.52c-8.52-2.15-18.62-.38-18.73-.36l-.16-.91c.1,0,10.41-1.82,19.11.38Z"/><path class="cls-2" d="M49.09,10.07c3.16.79,1.19,2.43,1.19,2.43,0,1.82,2.89,4.29,2.89,4.29,4.39,1.37,2.31,3.28,2.31,3.28-3.24,2.65,3.35,4.29,3.35,4.29v6.45c-9.09-2.49-19.31-.46-19.31-.46v-6s6.59-1.64,3.35-4.29c0,0-2.08-1.92,2.31-3.28,0,0,2.89-2.46,2.89-4.29,0,0-1.75-1.48.66-2.34Z"/><path class="cls-1" d="M41,24.85s9.79-1.46,16.26,0l-.08,4.38S46.35,28,41,29.11Z"/><path class="cls-1" d="M44,18.54a22.17,22.17,0,0,1,10.4-.16s1.08.63.4,1.3a34.18,34.18,0,0,0-10.84.15A.76.76,0,0,1,44,18.54Z"/><rect class="cls-2" x="56.12" y="18.38" width="15.61" height="0.92" transform="translate(-2.53 13.84) rotate(-12.12)"/><rect class="cls-2" x="56.3" y="21.03" width="17.92" height="0.92" transform="translate(-0.33 1.02) rotate(-0.89)"/><rect class="cls-2" x="64.56" y="16.64" width="0.93" height="16.12" transform="matrix(0.25, -0.97, 0.97, 0.25, 24.82, 81.46)"/><rect class="cls-2" x="22.83" y="24.23" width="17.8" height="0.92" transform="translate(-4.77 7.83) rotate(-13.09)"/><rect class="cls-2" x="24.1" y="21.03" width="17.4" height="0.92"/><rect class="cls-2" x="32.11" y="10.11" width="0.92" height="17.29" transform="translate(7.67 46.9) rotate(-78.43)"/><rect class="cls-2" x="41.21" y="29.16" width="0.92" height="4.82" transform="translate(-10.23 37.84) rotate(-44.04)"/><rect class="cls-2" x="44.83" y="29.22" width="0.92" height="4.06" transform="translate(-8.35 18.97) rotate(-21.71)"/><rect class="cls-2" x="49.67" y="30.81" width="4.17" height="0.92" transform="translate(0.65 63.6) rotate(-63.46)"/><rect class="cls-2" x="54.53" y="31.41" width="4.38" height="0.92" transform="translate(-7.05 44.79) rotate(-40.78)"/><polygon class="cls-2" points="56.17 33.66 53.91 33.66 57.22 29.23 58.84 30.81 56.17 33.66"/><path class="cls-2" d="M47.29,120.28l.89-1.75a12.5,12.5,0,0,1,11.2-6.18s.41,0,1,0c2.24,0,9.64-.24,10.63-3.39l.9-2.85v3c0,.06-.11,6.33-9.8,6.33-.46,0-.93,0-1.42,0,0,0-.34,0-.87,0a18.92,18.92,0,0,0-11,3.75Zm11.66-7a11.31,11.31,0,0,0-8.5,3.72,19.72,19.72,0,0,1,9.42-2.54c.59,0,.94,0,.95,0,.44,0,.9,0,1.34,0,5,0,7.16-1.72,8.12-3.22-2.64,1.76-7.5,2-9.86,2-.67,0-1.08,0-1.08,0Z"/><path class="cls-2" d="M23.26,119.57l1-1.58c.11-.18,2.81-4.44,9.72-5.43a24.57,24.57,0,0,1,6.34.43,35.89,35.89,0,0,0,6.65.79c3.08,0,4.65-.8,4.65-2.38h.92c0,1.48-.75,4.93-7.69,4.93a33.13,33.13,0,0,1-5.79-.59l-.15,0a22.82,22.82,0,0,0-3.94-.44,8.68,8.68,0,0,0-1.1.06,24.06,24.06,0,0,0-9,3.3Zm12.09-6.17a9.17,9.17,0,0,0-1.27.08,14.37,14.37,0,0,0-7.22,3.05,23.17,23.17,0,0,1,6.85-2.12,9.47,9.47,0,0,1,1.23-.07,23.62,23.62,0,0,1,4.11.46l.15,0c4.93.89,8.59.73,10.59-.43a11.55,11.55,0,0,1-2.85.3,36.73,36.73,0,0,1-6.82-.8A28.09,28.09,0,0,0,35.36,113.39Z"/><path class="cls-1" d="M96.46,143.78l.43-4c0-.2.46-4.8-4-5.78,0,1.47-.21,5.27-2.52,7.1l-1.08.86.34-1.33c.07-.28,1.61-6.84-7.52-9.35l-1.82-.5,1.85-.4c.06,0,5.64-1.23,8.83-3.69l.23-.17.26.13c.09,0,9.35,4.66,6.32,13.34Z"/><path class="cls-2" d="M96.46,143.78l.43-4c0-.2.46-4.8-4-5.78,0,1.47-.21,5.27-2.52,7.1l-1.08.86.34-1.33c.07-.28,1.61-6.84-7.52-9.35l-1.82-.5,1.85-.4c.06,0,5.64-1.23,8.83-3.69l.23-.17.26.13c.09,0,9.35,4.66,6.32,13.34ZM83.91,130.88c5.94,2.21,6.77,6.34,6.76,8.53,1.5-2.26,1.28-5.89,1.27-5.93l0-.57.57.08a5.66,5.66,0,0,1,5,4c.25-5.49-4.95-8.7-6.15-9.37A24.73,24.73,0,0,1,83.91,130.88Z"/><path class="cls-1" d="M1.93,143.52.61,139.73c-3-8.68,6.23-13.29,6.32-13.34l.26-.13.23.17c3.19,2.46,8.78,3.67,8.83,3.69l1.85.39-1.83.5c-9.17,2.53-7.59,9.07-7.52,9.35l.34,1.33L8,140.85c-2.31-1.84-2.53-5.64-2.52-7.1-4.45,1-4,5.58-4,5.78Z"/><path class="cls-2" d="M1.93,143.52.61,139.73c-3-8.68,6.23-13.29,6.32-13.34l.26-.13.23.17c3.19,2.46,8.78,3.67,8.83,3.69l1.85.39-1.83.5c-9.17,2.53-7.59,9.07-7.52,9.35l.34,1.33L8,140.85c-2.31-1.84-2.53-5.64-2.52-7.1-4.45,1-4,5.58-4,5.78Zm4.55-10.87,0,.57s-.22,3.67,1.27,5.93c0-2.19.83-6.32,6.76-8.52a24.74,24.74,0,0,1-7.39-3.28c-1.24.67-6.46,3.83-6.16,9.39a5.66,5.66,0,0,1,5-4Z"/><ellipse class="cls-5" cx="49.17" cy="21.68" rx="5.2" ry="2.32"/><path class="cls-6" d="M54.84,20.18l-.09,0a25.64,25.64,0,0,0-5.2-.48,38.43,38.43,0,0,0-5.92.46l-.11,0-.08-.08c-.51-.47-.7-.91-.58-1.32.26-.85,1.8-1.12,2-1.15a12,12,0,0,1,3.11-.27c2.74,0,6.11.32,6.14.32h.06c1,.36,1.47.78,1.52,1.29.06.67-.71,1.14-.74,1.16Zm-5.29-1a26.29,26.29,0,0,1,5.2.47c.18-.13.48-.4.45-.67s-.45-.62-1.19-.89c-.34,0-3.48-.32-6.07-.32a11.66,11.66,0,0,0-3,.26c-.4.07-1.5.34-1.64.83-.08.25.14.55.37.77A39.54,39.54,0,0,1,49.55,19.22Z"/><polygon class="cls-2" points="32.56 109.57 64.77 109.57 64.77 102.52 61.23 102.15 60.3 97.04 54.91 97.04 54.45 88.53 47.82 88.53 47.36 101.91 45.51 101.79 45.35 96.44 37.95 96.92 37.18 102.15 33.02 102.27 32.56 109.57"/></g></g></svg>