<svg xmlns="http://www.w3.org/2000/svg" xmlns:xlink="http://www.w3.org/1999/xlink" viewBox="0 0 146.75 144.69"><defs><style>.cls-1{fill:#fff;}.cls-2{fill:#132188;}.cls-3{fill:#fa041f;}.cls-4{fill:#bf9433;}.cls-5{fill:#0c9fc4;}.cls-6{fill:#231f20;}.cls-7{fill:#cccdca;}.cls-8{fill:#74be33;}.cls-9{fill:#fb001b;}.cls-10{fill:#fcfc3b;}.cls-11{fill:url(#linear-gradient);}.cls-12{fill:url(#linear-gradient-2);}.cls-13{fill:url(#linear-gradient-3);}.cls-14{fill:url(#linear-gradient-4);}.cls-15{fill:url(#linear-gradient-5);}.cls-16{fill:url(#linear-gradient-6);}.cls-17{fill:url(#linear-gradient-7);}.cls-18{fill:url(#linear-gradient-8);}.cls-19{fill:url(#linear-gradient-9);}.cls-20{fill:url(#linear-gradient-10);}.cls-21{fill:url(#linear-gradient-11);}.cls-22{fill:url(#linear-gradient-12);}.cls-23{fill:url(#linear-gradient-13);}.cls-24{fill:url(#linear-gradient-14);}.cls-25{fill:url(#linear-gradient-15);}.cls-26{fill:url(#linear-gradient-16);}.cls-27{fill:url(#linear-gradient-17);}.cls-28{fill:url(#linear-gradient-18);}.cls-29{fill:url(#linear-gradient-19);}.cls-30{fill:url(#linear-gradient-20);}.cls-31{fill:url(#linear-gradient-21);}.cls-32{fill:url(#linear-gradient-22);}.cls-33{fill:#a5000d;}</style><linearGradient id="linear-gradient" x1="73.7" y1="18.24" x2="74.29" y2="18.24" gradientTransform="translate(83.59 -57.36) rotate(83.39)" gradientUnits="userSpaceOnUse"><stop offset="0" stop-color="#fbd43b"/><stop offset="0.17" stop-color="#f9c13b"/><stop offset="0.5" stop-color="#f3903b"/><stop offset="0.98" stop-color="#e9423a"/><stop offset="1" stop-color="#e93e3a"/></linearGradient><linearGradient id="linear-gradient-2" x1="71.27" y1="18.27" x2="72.37" y2="18.27" gradientTransform="translate(5.95 -15.69) rotate(13)" xlink:href="#linear-gradient"/><linearGradient id="linear-gradient-3" x1="75.36" y1="32.69" x2="76.39" y2="32.69" gradientTransform="translate(16.73 -24.99) rotate(20.97)" xlink:href="#linear-gradient"/><linearGradient id="linear-gradient-4" x1="68.97" y1="19.2" x2="70.92" y2="19.2" gradientTransform="translate(19.04 -32.47) rotate(30.08)" xlink:href="#linear-gradient"/><linearGradient id="linear-gradient-5" x1="76.58" y1="32.24" x2="78.39" y2="32.24" gradientTransform="translate(36.09 -40.77) rotate(37.85)" xlink:href="#linear-gradient"/><linearGradient id="linear-gradient-6" x1="65.9" y1="19.92" x2="69.88" y2="19.92" gradientTransform="translate(34.73 -42.58) rotate(45.7)" xlink:href="#linear-gradient"/><linearGradient id="linear-gradient-7" x1="77.49" y1="31.52" x2="81.25" y2="31.52" gradientTransform="translate(57.9 -51.14) rotate(53.78)" xlink:href="#linear-gradient"/><linearGradient id="linear-gradient-8" x1="65.05" y1="21.86" x2="68.79" y2="21.86" gradientTransform="translate(47.07 -45.68) rotate(55.53)" xlink:href="#linear-gradient"/><linearGradient id="linear-gradient-9" x1="78.17" y1="29.52" x2="81.51" y2="29.52" gradientTransform="translate(71.45 -55.19) rotate(64.05)" xlink:href="#linear-gradient"/><linearGradient id="linear-gradient-10" x1="62.36" y1="23.49" x2="68.72" y2="23.49" gradientTransform="translate(59.36 -45.86) rotate(65.19)" xlink:href="#linear-gradient"/><linearGradient id="linear-gradient-11" x1="78.44" y1="27.96" x2="84.5" y2="27.96" gradientTransform="translate(96.13 -56.92) rotate(80.86)" xlink:href="#linear-gradient"/><linearGradient id="linear-gradient-12" x1="63.84" y1="25.85" x2="68.57" y2="25.85" gradientTransform="translate(81.96 -43.45) rotate(81.47)" xlink:href="#linear-gradient"/><linearGradient id="linear-gradient-13" x1="78.63" y1="25.75" x2="82.72" y2="25.75" gradientTransform="translate(1.47 -4.22) rotate(3.02)" xlink:href="#linear-gradient"/><linearGradient id="linear-gradient-14" x1="62.32" y1="27.93" x2="68.74" y2="27.93" gradientTransform="translate(4.58 -8.94) rotate(8.08)" xlink:href="#linear-gradient"/><linearGradient id="linear-gradient-15" x1="65.51" y1="29.59" x2="69.21" y2="29.59" gradientTransform="translate(20.79 -27.37) rotate(27.02)" xlink:href="#linear-gradient"/><linearGradient id="linear-gradient-16" x1="78.84" y1="23.15" x2="84.24" y2="23.15" gradientTransform="translate(12.83 -26.48) rotate(19.99)" xlink:href="#linear-gradient"/><linearGradient id="linear-gradient-17" x1="65.53" y1="31.36" x2="69.93" y2="31.36" gradientTransform="translate(32.9 -34.65) rotate(37.34)" xlink:href="#linear-gradient"/><linearGradient id="linear-gradient-18" x1="77.85" y1="21.53" x2="81.08" y2="21.53" gradientTransform="translate(32.44 -46.05) rotate(40.01)" xlink:href="#linear-gradient"/><linearGradient id="linear-gradient-19" x1="68.28" y1="32.23" x2="70.88" y2="32.23" gradientTransform="translate(53.47 -42.74) rotate(53.02)" xlink:href="#linear-gradient"/><linearGradient id="linear-gradient-20" x1="76.96" y1="19.61" x2="80.31" y2="19.61" gradientTransform="translate(42.39 -52.88) rotate(49.44)" xlink:href="#linear-gradient"/><linearGradient id="linear-gradient-21" x1="70.74" y1="32.45" x2="71.99" y2="32.45" gradientTransform="translate(72.04 -45.94) rotate(66.04)" xlink:href="#linear-gradient"/><linearGradient id="linear-gradient-22" x1="75.27" y1="19.14" x2="77.33" y2="19.14" gradientTransform="translate(54.9 -56.55) rotate(60.13)" xlink:href="#linear-gradient"/></defs><title>Asset 5</title><g id="Layer_2" data-name="Layer 2"><g id="Layer_1-2" data-name="Layer 1"><path class="cls-1" d="M129.61,71.42c-.05-.9-.13-1.8-.24-2.7-.68-8.76-6.23-16.25-8.24-24.47-.33-1.16-.59-2.27-.78-3.35-2.91-16.09,8.9-22.64,8.9-22.64L117.23,0h-88L17.48,18.27s11.81,6.55,8.9,22.64c-.19,1.07-.45,2.19-.78,3.35C23.59,52.48,18,60,17.36,68.73c-.11.89-.19,1.79-.24,2.7A56.85,56.85,0,0,0,18,85c.22.9.47,1.76.74,2.57,2.33,9.28,11.48,13.44,19.52,16.2l1.84.62c1.93.64,4.14,1.32,6.69,2.06l2.66.76c8.23,3.51,20.71,5.18,23.89,15,3.18-9.8,15.66-11.47,23.89-15l2.66-.76c2.54-.74,4.75-1.42,6.69-2.06l1.84-.62c8-2.75,17.2-6.91,19.52-16.2.27-.81.51-1.67.74-2.57A56.85,56.85,0,0,0,129.61,71.42Z"/><path class="cls-2" d="M73.77,7.73A17.75,17.75,0,0,1,90,18.27h37.59L115.93,0H29.21l-9.8,18.27H57.55A17.75,17.75,0,0,1,73.77,7.73Z"/><path class="cls-2" d="M73.37,144.69c13.91-14.86,28.44-17.5,43.79-22.49S138.43,103,138.43,103s8.32,1.11,8.32-4.3l-6-18.72s-1.8-5.69-7.21-3.74A8.08,8.08,0,0,0,129,81.88c-1.11,4.44-3.61,12.62-10.54,16.5s-25.24,8.31-32.59,11.85-12.59,6.59-12.47,8.12c0,0-5.56-6.39-12.64-8.12S28.15,99.63,25.37,96.3,18,82.57,18,82.57,14.41,72,7.2,77.3C7.06,77.58,0,99.08,0,99.08s1.52,4.3,8.31,3.88c0,0,5.92,14.24,21.27,19.23s29.88,7.63,43.79,22.49"/><path class="cls-3" d="M129.61,71.42c-.05-.9-.13-1.8-.24-2.7-.68-8.76-6.23-16.25-8.24-24.47-.33-1.16-.59-2.27-.78-3.35-2.91-16.09,8.9-22.64,8.9-22.64L117.23,0h-88L17.48,18.27s11.81,6.55,8.9,22.64c-.19,1.07-.45,2.19-.78,3.35C23.59,52.48,18,60,17.36,68.73c-.11.89-.19,1.79-.24,2.7A56.85,56.85,0,0,0,18,85c.22.9.47,1.76.74,2.57,2.33,9.28,11.48,13.44,19.52,16.2l1.84.62c1.93.64,4.14,1.32,6.69,2.06l2.66.76c8.23,3.51,20.71,5.18,23.89,15,3.18-9.8,15.66-11.47,23.89-15l2.66-.76c2.54-.74,4.75-1.42,6.69-2.06l1.84-.62c8-2.75,17.2-6.91,19.52-16.2.27-.81.51-1.67.74-2.57A56.85,56.85,0,0,0,129.61,71.42Zm-3.08,13.12c-.2.8-.43,1.58-.68,2.34l0,.08,0,.08c-2,8.14-10.29,12-18.09,14.64l-1.82.62c-2,.65-4.19,1.33-6.61,2l-2.64.75-.14,0-.13.06c-1.78.76-3.78,1.43-5.9,2.15-6.28,2.12-13.25,4.46-17.12,10-3.88-5.49-10.84-7.84-17.12-10-2.12-.71-4.12-1.39-5.9-2.15l-.13-.06-.14,0-2.64-.75c-2.42-.7-4.65-1.39-6.61-2L39,101.68C31.21,99,23,95.18,20.92,87l0-.08,0-.08c-.25-.76-.48-1.55-.68-2.34a54.49,54.49,0,0,1-.86-13c.05-.88.13-1.75.23-2.56V68.9c.37-4.75,2.29-9.12,4.33-13.75a64.19,64.19,0,0,0,3.85-10.32c.34-1.19.62-2.37.82-3.52,1.64-9.07-1.12-15.36-3.73-19a22.73,22.73,0,0,0-4.34-4.59L30.42,2.22H116l10.18,15.47a22.74,22.74,0,0,0-4.32,4.58c-2.61,3.68-5.37,10-3.73,19,.21,1.15.48,2.33.82,3.52a64.19,64.19,0,0,0,3.85,10.32c2,4.63,4,9,4.33,13.75V69c.1.81.17,1.68.23,2.56A54.5,54.5,0,0,1,126.54,84.54Z"/><path class="cls-1" d="M5.89,82.43s3.54,4.3,7.84,2.22c0,1.53-5.13,17.34-5.13,17.34s-7.42.69-7.77-3.61C1.31,96.3,5.89,82.43,5.89,82.43Z"/><path class="cls-1" d="M140.83,82.43s-3.54,4.3-7.84,2.22c0,1.53,5.13,17.34,5.13,17.34s7.42.69,7.77-3.61C145.41,96.3,140.83,82.43,140.83,82.43Z"/><path class="cls-4" d="M73.37,98.8a25.39,25.39,0,0,1,15.11,0c7.63,2.64,12.48,1.53,12.48,1.53A19.33,19.33,0,0,1,82.65,102C72,97.83,73.37,98.8,73.37,98.8Z"/><path class="cls-4" d="M72.76,98.8v1.43s4-1.29,11.42,6.75c0,.23,2.5,0,2.5,0s-5.89-6.29-13.09-8.25Z"/><path class="cls-4" d="M98.83,83.54s-6.29,5.92-8.14,10.17c-1.29,2.13-2,3-2.5,3S95.32,99.91,101,98a13.42,13.42,0,0,0,7.67-6.9S98.55,95.75,93,95.56C93,95.56,99.57,89.46,98.83,83.54Z"/><path class="cls-4" d="M104.65,74.48s.83,7.3-.46,9.89S101,90,101,90s12.67-8.78,13.59-11.65c0,0,1.11,11.55-15.72,13.87C98.83,92.23,99.94,81.14,104.65,74.48Z"/><path class="cls-4" d="M108.08,64.4a23.74,23.74,0,0,1,1,13.22s2.68-4.81,4.35-6.1,4.07-5.92,4.07-5.92,1.72,10.44-6.38,13.68c-.46.18-4.15,3-4.43,4.07C106.7,83.36,105.3,69.21,108.08,64.4Z"/><path class="cls-4" d="M108.17,56.36s3.79,3.7,4.25,11.19c0,0,3.54-13.13,5.24-14.79,0,0,1.79,6.1-.62,11.19a32.36,32.36,0,0,1-5,7.86S107.24,61.54,108.17,56.36Z"/><path class="cls-4" d="M104.75,46.93s6,5,6.84,7.4L112,41.47s3.93,3,3,13.31l-1.84,7.49S105.67,52,104.75,46.93Z"/><path class="cls-4" d="M99.48,38.61a74.3,74.3,0,0,1,9.15,7.21s-2.85-7.49-1.93-10.45c0,0,5.72,4.62,4.06,15.07C110.76,50.44,100.22,43.51,99.48,38.61Z"/><path class="cls-4" d="M97.54,31.67s9.08,3.24,9.16,10.54C106.7,42.21,97.63,37.68,97.54,31.67Z"/><path class="cls-4" d="M49.47,31.67s-9.08,3.24-9.16,10.54C40.31,42.21,49.38,37.68,49.47,31.67Z"/><path class="cls-4" d="M72.48,98.8a25.39,25.39,0,0,0-15.11,0c-7.63,2.64-12.48,1.53-12.48,1.53A19.33,19.33,0,0,0,63.19,102C73.87,97.83,72.48,98.8,72.48,98.8Z"/><path class="cls-4" d="M73.09,98.8v1.43s-4-1.29-11.42,6.75c0,.23-2.5,0-2.5,0s5.89-6.29,13.09-8.25Z"/><path class="cls-4" d="M48.12,83.54s6.29,5.92,8.14,10.17c1.29,2.13,2,3,2.5,3S51.64,99.91,46,98a13.42,13.42,0,0,1-7.67-6.9s10.08,4.68,15.63,4.5C53.95,95.56,47.38,89.46,48.12,83.54Z"/><path class="cls-4" d="M42.3,74.48s-.83,7.3.46,9.89S46,90,46,90,33.33,81.23,32.41,78.37c0,0-1.11,11.55,15.72,13.87C48.12,92.23,47,81.14,42.3,74.48Z"/><path class="cls-4" d="M38.88,64.4a23.74,23.74,0,0,0-1,13.22s-2.68-4.81-4.35-6.1-4.07-5.92-4.07-5.92-1.72,10.44,6.38,13.68c.46.18,4.15,3,4.43,4.07C40.26,83.36,41.65,69.21,38.88,64.4Z"/><path class="cls-4" d="M38.79,56.36S35,60.06,34.53,67.55c0,0-3.54-13.13-5.24-14.79,0,0-1.79,6.1.62,11.19a32.36,32.36,0,0,0,5,7.86S39.71,61.54,38.79,56.36Z"/><path class="cls-4" d="M42.21,46.93s-6,5-6.84,7.4L35,41.47s-3.93,3-3,13.31l1.84,7.49S41.28,52,42.21,46.93Z"/><path class="cls-4" d="M47.48,38.61a74.3,74.3,0,0,0-9.15,7.21s2.85-7.49,1.93-10.45c0,0-5.72,4.62-4.06,15.07C36.2,50.44,46.74,43.51,47.48,38.61Z"/><polygon class="cls-5" points="103.87 65.38 43.12 65.38 51.86 54.28 68.99 54.28 73.5 57.54 77.38 54.28 95.13 54.28 103.87 65.38"/><path class="cls-6" d="M104.08,65.48H42.92l8.89-11.29H69l4.47,3.23,3.85-3.23H95.18l0,0Zm-60.75-.2h60.33l-8.58-10.9H77.42L73.5,57.67,69,54.38h-17Z"/><polygon class="cls-1" points="100.96 63.57 80.15 60.66 66.08 61.1 46.59 63.57 52.69 55.81 73.5 57.12 94.02 55.81 100.96 63.57"/><path class="cls-6" d="M101.21,63.71l-21.07-3-14.06.44L46.36,63.7l6.29-8L73.5,57,94.06,55.7Zm-48.47-7.8-5.92,7.53L66.06,61l14.09-.44,20.55,2.88L94,55.91,73.5,57.22Z"/><path class="cls-5" d="M99.15,63.23a9.84,9.84,0,0,0-7.35-4.78,26.34,26.34,0,0,0-18.37,4.74,26.34,26.34,0,0,0-18.37-4.74,9.84,9.84,0,0,0-7.35,4.78s19.9-3.05,22.81,1.18l0,.49h-.8v1.53H77.1V64.89h-.8l0-.49C79.25,60.17,99.15,63.23,99.15,63.23Z"/><path class="cls-6" d="M77.2,66.52H69.67V64.79h.79l0-.35c-2.9-4.1-22.5-1.14-22.7-1.11l-.2,0,.1-.18a10,10,0,0,1,7.43-4.84,26.41,26.41,0,0,1,18.38,4.71,26.4,26.4,0,0,1,18.38-4.71,10,10,0,0,1,7.43,4.83l.1.18-.2,0c-.2,0-19.8-3-22.7,1.11l0,.35h.79Zm-7.34-.2H77V65h-.8l0-.62,0,0C79,60.3,96.73,62.77,99,63.1a9.83,9.83,0,0,0-7.17-4.56,26.15,26.15,0,0,0-18.3,4.72l-.06,0-.06,0a26.16,26.16,0,0,0-18.3-4.72,9.84,9.84,0,0,0-7.17,4.56c2.23-.33,19.92-2.8,22.71,1.25l0,0,0,.62h-.8Z"/><rect class="cls-7" x="72.59" y="31.67" width="1.59" height="5.27"/><path class="cls-8" d="M82.28,51.9a16.92,16.92,0,0,0-4.44,1.67,25.89,25.89,0,0,0-4.41,3.34,23.45,23.45,0,0,0-4.12-3.18,14,14,0,0,0-4-1.46V36.11a5.77,5.77,0,0,1,4-2.08c2.42,0,5.54,2.08,8.11,2.08A7.9,7.9,0,0,0,82.28,34Z"/><path class="cls-1" d="M89.23,51.28s-9.54-1-15.79,5.64c-6.26-6.66-15.79-5.64-15.79-5.64s-4.25,5.92-5.19,7.17c11.3-3.09,21,4.74,21,4.74s9.68-7.82,21-4.74C93.48,57.19,89.23,51.28,89.23,51.28Z"/><path class="cls-6" d="M73.43,63.31l-.06-.05c-.1-.08-9.77-7.75-20.9-4.72l-.28.08.17-.23c.92-1.23,5.15-7.1,5.19-7.16l0,0h0c.1,0,9.59-.94,15.81,5.59,6.22-6.53,15.71-5.6,15.81-5.59h0l0,0c0,.06,4.26,5.93,5.19,7.16l.17.23-.28-.08c-11.12-3-20.8,4.64-20.89,4.72ZM57.83,57.63c8.34,0,14.9,4.88,15.61,5.42.85-.65,10.1-7.52,20.73-4.78-1.13-1.53-4.65-6.42-5-6.9-.71-.06-9.73-.7-15.67,5.61l-.07.08L73.36,57c-5.94-6.32-15-5.68-15.67-5.61-.34.48-3.86,5.37-5,6.9A20.47,20.47,0,0,1,57.83,57.63Z"/><rect class="cls-6" x="73.33" y="56.92" width="0.2" height="9.5"/><path class="cls-9" d="M73.46,32.38l-1.94-1.71a5.84,5.84,0,0,1,0-8.26l1.94-1.94,1,1.94a5.84,5.84,0,0,1,0,8.26Z"/><path class="cls-10" d="M72.59,29.94c-.77-.78-.69-1.33-.69-2.43a8,8,0,0,1,.69-2.15c.21-.5-.29-1.38.1-1.77l.33-.33.08.15.18.18a3,3,0,0,1,.9,2.53c0,.63-.56,1.25-.82,1.8s.27,1.23-.08,1.57l-.15.15-.39.66Z"/><rect class="cls-11" x="72.3" y="18.14" width="3.39" height="0.2" transform="translate(47.36 89.64) rotate(-83.39)"/><rect class="cls-12" x="71.72" y="16.24" width="0.2" height="4.06" transform="translate(-2.27 16.62) rotate(-13)"/><rect class="cls-13" x="75.78" y="31.52" width="0.2" height="2.35" transform="translate(-6.68 29.32) rotate(-20.97)"/><rect class="cls-14" x="69.84" y="17.43" width="0.2" height="3.54" transform="translate(-0.2 37.64) rotate(-30.08)"/><rect class="cls-15" x="77.39" y="30.89" width="0.2" height="2.7" transform="translate(-3.48 54.33) rotate(-37.85)"/><rect class="cls-16" x="67.79" y="17.24" width="0.2" height="5.36" transform="translate(6.22 54.6) rotate(-45.7)"/><rect class="cls-17" x="79.27" y="29.26" width="0.2" height="4.52" transform="translate(7.04 76.93) rotate(-53.78)"/><rect class="cls-18" x="66.82" y="19.66" width="0.2" height="4.4" transform="translate(11.03 64.66) rotate(-55.53)"/><rect class="cls-19" x="79.74" y="27.71" width="0.2" height="3.62" transform="translate(18.36 88.4) rotate(-64.05)"/><rect class="cls-20" x="65.44" y="20.03" width="0.2" height="6.92" transform="translate(16.72 73.12) rotate(-65.19)"/><rect class="cls-21" x="81.37" y="24.91" width="0.2" height="6.11" transform="matrix(0.16, -0.99, 0.99, 0.16, 40.91, 103.96)"/><rect class="cls-22" x="66.11" y="23.48" width="0.2" height="4.75" transform="translate(30.82 87.5) rotate(-81.47)"/><rect class="cls-23" x="78.63" y="25.65" width="4.09" height="0.2" transform="translate(-1.25 4.29) rotate(-3.02)"/><rect class="cls-24" x="62.3" y="27.83" width="6.45" height="0.2" transform="translate(-3.28 9.49) rotate(-8.08)"/><rect class="cls-25" x="65.33" y="29.49" width="4.06" height="0.2" transform="translate(-6.09 33.83) rotate(-27.02)"/><rect class="cls-26" x="78.7" y="23.05" width="5.68" height="0.2" transform="translate(-3 29.27) rotate(-19.99)"/><rect class="cls-27" x="65.04" y="31.26" width="5.38" height="0.2" transform="translate(-5.14 47.51) rotate(-37.34)"/><rect class="cls-28" x="77.44" y="21.43" width="4.06" height="0.2" transform="translate(4.76 56.12) rotate(-40.01)"/><rect class="cls-29" x="67.55" y="32.13" width="4.06" height="0.2" transform="translate(1.98 68.42) rotate(-53.02)"/><rect class="cls-30" x="76.17" y="19.51" width="4.93" height="0.2" transform="translate(12.6 66.59) rotate(-49.44)"/><rect class="cls-31" x="70.05" y="32.35" width="2.62" height="0.2" transform="translate(12.72 84.49) rotate(-66.04)"/><rect class="cls-32" x="74.4" y="19.04" width="3.8" height="0.2" transform="translate(21.7 75.77) rotate(-60.13)"/><path class="cls-33" d="M48.85,79.12V69.56h8.91c3.11,0,4.6,1.23,4.6,2.43s-1.2,2-2.69,2.19c1.67.16,3,1.13,3,2.33,0,1.39-1.53,2.59-4.62,2.59Zm9.38-6.69c0-.46-.57-.79-1.39-.79H52.91v1.59h3.94C57.67,73.23,58.24,72.9,58.24,72.43Zm.31,3.75c0-.47-.57-.86-1.56-.86H52.91V77H57C58,77,58.54,76.7,58.54,76.18Z"/><path class="cls-33" d="M64.88,79.12V69.56h4.06v9.55Z"/><path class="cls-33" d="M75.28,79.12v-7.4H70.87V69.56H83.72v2.15H79.34v7.4Z"/><path class="cls-33" d="M85.65,79.12V69.56H97.18v2.15H89.71V73.2H97v2.15H89.71V77h7.47v2.15Z"/><path class="cls-2" d="M54.88,87.36V82.59H57a1.5,1.5,0,1,1,0,3H55.72v1.78Zm2.8-3.28a.75.75,0,0,0-.82-.76H55.72v1.52h1.14A.75.75,0,0,0,57.68,84.08Z"/><path class="cls-2" d="M58.89,85.63a1.78,1.78,0,1,1,1.77,1.82A1.73,1.73,0,0,1,58.89,85.63Zm2.78,0a1,1,0,1,0-1,1.15A1,1,0,0,0,61.66,85.63Z"/><path class="cls-2" d="M63.2,87.36V82.59H64v4.77Z"/><path class="cls-2" d="M64.89,88a.79.79,0,0,0,.29.06.47.47,0,0,0,.49-.3l.17-.39-1.42-3.5h.8l1,2.59,1-2.59H68L66.38,88a1.16,1.16,0,0,1-1.19.78,2.12,2.12,0,0,1-.42-.05Z"/><path class="cls-2" d="M68.67,86.56v-2H68.1V83.9h.57V83h.75v.94h.7v.66h-.7v1.81c0,.24.11.41.33.41a.48.48,0,0,0,.34-.12l.18.57a1,1,0,0,1-.71.22A.8.8,0,0,1,68.67,86.56Z"/><path class="cls-2" d="M70.59,85.63a1.75,1.75,0,0,1,1.75-1.81A1.71,1.71,0,0,1,74,85.7v.18H71.37a1,1,0,0,0,1.1,1,1.46,1.46,0,0,0,1-.38l.34.49a2,2,0,0,1-1.4.5A1.74,1.74,0,0,1,70.59,85.63Zm1.75-1.19a1,1,0,0,0-1,.92h1.95A.92.92,0,0,0,72.34,84.43Z"/><path class="cls-2" d="M74.57,85.63a1.73,1.73,0,0,1,1.79-1.81,1.55,1.55,0,0,1,1.32.62l-.49.46a.92.92,0,0,0-.79-.41,1.15,1.15,0,0,0,0,2.3.94.94,0,0,0,.79-.41l.49.46a1.55,1.55,0,0,1-1.32.62A1.74,1.74,0,0,1,74.57,85.63Z"/><path class="cls-2" d="M80.68,87.36V85.18c0-.54-.28-.7-.7-.7a1.16,1.16,0,0,0-.89.46v2.41h-.75V82.59h.75v1.79a1.65,1.65,0,0,1,1.22-.56,1,1,0,0,1,1.12,1.09v2.45Z"/><path class="cls-2" d="M84.74,87.36V85.2c0-.54-.27-.72-.69-.72a1.14,1.14,0,0,0-.89.46v2.41H82.4V83.9h.75v.47a1.63,1.63,0,0,1,1.22-.56,1,1,0,0,1,1.12,1.11v2.43Z"/><path class="cls-2" d="M86.37,83a.47.47,0,0,1,.46-.46.46.46,0,0,1,0,.93A.47.47,0,0,1,86.37,83Zm.09,4.34V83.9h.75v3.45Z"/><path class="cls-2" d="M88,85.63a1.73,1.73,0,0,1,1.79-1.81,1.55,1.55,0,0,1,1.32.62l-.49.46a.92.92,0,0,0-.79-.41,1.15,1.15,0,0,0,0,2.3.94.94,0,0,0,.79-.41l.49.46a1.55,1.55,0,0,1-1.32.62A1.74,1.74,0,0,1,88,85.63Z"/><path class="cls-1" d="M15.33,96.19l4.34-.62.3,2.13A1.12,1.12,0,0,1,19,99.1a1,1,0,0,1-1.1-.61,1.08,1.08,0,0,1-.95,1,1.15,1.15,0,0,1-1.35-1.09ZM17,98.68a.6.6,0,0,0,.5-.75l-.18-1.25-1.2.17.18,1.25A.59.59,0,0,0,17,98.68Zm1.82-.34a.56.56,0,0,0,.48-.69l-.17-1.22L18,96.59l.17,1.22A.55.55,0,0,0,18.81,98.34Z"/><path class="cls-1" d="M17.39,99.32a1.63,1.63,0,1,1-1.17,2A1.59,1.59,0,0,1,17.39,99.32Zm.69,2.45a.92.92,0,1,0-.5-1.76.93.93,0,1,0,.5,1.76Z"/><path class="cls-1" d="M16.09,103.49l.59.08a1.23,1.23,0,0,0,0,1.08.83.83,0,0,0,1.17.5l.35-.16a1.29,1.29,0,0,1-.9-.71,1.43,1.43,0,0,1,.9-2,1.43,1.43,0,0,1,2.07.6,1.26,1.26,0,0,1,0,1.14l.4-.18.29.63-2.73,1.25a1.41,1.41,0,0,1-2-.88A1.79,1.79,0,0,1,16.09,103.49Zm2.62,1.29,1.07-.49a1,1,0,0,0,0-.92.9.9,0,0,0-1.3-.39.9.9,0,0,0-.55,1.24A1,1,0,0,0,18.71,104.78Z"/><path class="cls-1" d="M18.36,106.27,21,104.51l.38.57-.39.26a1.35,1.35,0,0,1,1,.56l-.57.38a1,1,0,0,0-.1-.19,1.09,1.09,0,0,0-.8-.44l-1.8,1.2Z"/><path class="cls-1" d="M20.85,109.33l.24-.24a1.34,1.34,0,0,1-1-.43,1.05,1.05,0,0,1,0-1.52,1,1,0,0,1,1.51.05,1.31,1.31,0,0,1,.44,1l.33-.33c.26-.26.2-.63-.11-.94a1.3,1.3,0,0,0-.95-.38l.14-.54a1.89,1.89,0,0,1,1.31.58,1.13,1.13,0,0,1,.12,1.75l-1.48,1.49Zm.51-.51.34-.34a.93.93,0,0,0-.3-.77.58.58,0,1,0-.8.8A.93.93,0,0,0,21.36,108.82Z"/><path class="cls-1" d="M23.67,111.15l3.07-3.69.65.54-3.07,3.69Z"/><path class="cls-1" d="M26.59,113.36l1.25-1.78a.62.62,0,0,0-.15-1,1.14,1.14,0,0,0-1-.13l-1.4,2-.62-.44,2-2.84.62.44L27,110a1.64,1.64,0,0,1,1.32.25,1,1,0,0,1,.27,1.56l-1.41,2Z"/><path class="cls-1" d="M27.58,113.5l.57-.3a1.79,1.79,0,0,0,.77,1c.39.23.69.18.83-.06.34-.59-1.72-1.23-1-2.38.29-.49,1-.67,1.71-.22a2,2,0,0,1,.92,1.11l-.54.3a1.4,1.4,0,0,0-.68-.88c-.34-.2-.65-.17-.77,0-.31.53,1.73,1.2,1,2.39-.31.53-1,.67-1.79.2A2.11,2.11,0,0,1,27.58,113.5Z"/><path class="cls-1" d="M30.55,114.79l.91-1.79-.51-.26.3-.59.51.26.43-.85.67.34-.43.85.63.32-.3.59-.63-.32L31.31,115c-.11.21-.08.42.11.52a.49.49,0,0,0,.36,0l-.1.59a1,1,0,0,1-.74-.13A.8.8,0,0,1,30.55,114.79Z"/><path class="cls-1" d="M31.51,116.17,33,113l.68.32-1.48,3.15Zm1.77-4a.47.47,0,0,1,.62-.22.47.47,0,0,1-.4.85A.47.47,0,0,1,33.29,112.18Z"/><path class="cls-1" d="M32.94,115.95l.79-1.84-.53-.23.26-.61.53.23.38-.87.69.3-.38.87.65.28-.26.61-.65-.28-.72,1.67c-.09.22-.06.42.14.51a.49.49,0,0,0,.36,0l-.06.59a1,1,0,0,1-.74-.08A.8.8,0,0,1,32.94,115.95Z"/><path class="cls-1" d="M36.28,118.11l.15-.43a1.67,1.67,0,0,1-1.34.1,1,1,0,0,1-.68-1.41l.82-2.32.71.25-.73,2.06a.61.61,0,0,0,.42.9,1.16,1.16,0,0,0,1-.13l.82-2.3.71.25L37,118.36Z"/><path class="cls-1" d="M37.76,117.73l.55-1.93-.55-.16.18-.64.55.16.26-.91.73.21-.26.91.68.19-.18.64L39,116l-.5,1.75c-.07.23,0,.43.21.49a.49.49,0,0,0,.36,0l0,.6a1,1,0,0,1-.75,0A.8.8,0,0,1,37.76,117.73Z"/><path class="cls-1" d="M39.2,117.2a1.76,1.76,0,0,1,2.11-1.4A1.72,1.72,0,0,1,42.58,118l0,.18-2.62-.57a1.05,1.05,0,0,0,.88,1.17,1.47,1.47,0,0,0,1-.16l.23.56a2,2,0,0,1-1.49.19A1.75,1.75,0,0,1,39.2,117.2Zm2-.8a1,1,0,0,0-1.15.69l1.91.42A.93.93,0,0,0,41.18,116.4Z"/><path class="cls-1" d="M44.31,119.06A1.63,1.63,0,1,1,45.63,121,1.59,1.59,0,0,1,44.31,119.06Zm2.51.43a.93.93,0,1,0-1.09.89A1,1,0,0,0,46.82,119.5Z"/><path class="cls-1" d="M47.55,121.26l.5-2.52-.52-.1.12-.59.52.1,0-.17a1,1,0,0,1,1.2-.88,1,1,0,0,1,.69.42l-.35.37a.52.52,0,0,0-.33-.21c-.26-.05-.47.09-.54.44l0,.17.63.13-.12.59-.63-.13-.5,2.52Z"/><path class="cls-1" d="M52.1,122.27l.92-3.59-1.29-.33.17-.66,3.31.85-.17.66-1.29-.33-.92,3.59Z"/><path class="cls-1" d="M53.79,121.05a1.6,1.6,0,0,1,2-1.15,1.57,1.57,0,0,1,1,2.09l0,.16-2.35-.68a1,1,0,0,0,.73,1.12,1.34,1.34,0,0,0,1-.08l.18.52a1.85,1.85,0,0,1-1.36.08A1.59,1.59,0,0,1,53.79,121.05Zm1.85-.61a.87.87,0,0,0-1.09.56l1.72.5A.85.85,0,0,0,55.64,120.45Z"/><path class="cls-1" d="M56.82,121.93a1.59,1.59,0,0,1,2.09-1.05,1.42,1.42,0,0,1,1,.92l-.56.25a.85.85,0,0,0-.57-.59,1.06,1.06,0,0,0-.67,2,.86.86,0,0,0,.81-.12l.3.54a1.42,1.42,0,0,1-1.33.15A1.59,1.59,0,0,1,56.82,121.93Z"/><path class="cls-1" d="M61,125.14l.73-1.86a.56.56,0,0,0-.36-.83,1.07,1.07,0,0,0-.91.1l-.81,2.06-.64-.25,1.6-4.08.64.25-.6,1.53a1.52,1.52,0,0,1,1.23-.07.91.91,0,0,1,.59,1.31l-.82,2.09Z"/><path class="cls-1" d="M63.89,126.43l.85-1.79a.56.56,0,0,0-.29-.87,1,1,0,0,0-.92,0l-.95,2-.62-.3,1.36-2.87.62.3-.19.39a1.5,1.5,0,0,1,1.23,0,.91.91,0,0,1,.49,1.36l-1,2Z"/><path class="cls-1" d="M64.78,126.89l1.52-2.78.61.33-1.52,2.78Zm1.84-3.54a.43.43,0,1,1,.75.41.43.43,0,0,1-.58.17A.43.43,0,0,1,66.61,123.35Z"/><path class="cls-1" d="M66.34,125.9a1.59,1.59,0,0,1,2.27-.53,1.42,1.42,0,0,1,.73,1.12l-.61.11a.85.85,0,0,0-.42-.7,1.06,1.06,0,0,0-1.12,1.78.86.86,0,0,0,.82.07l.16.6a1.42,1.42,0,0,1-1.33-.17A1.59,1.59,0,0,1,66.34,125.9Z"/><path class="cls-1" d="M69.37,130l.22-.27a1.34,1.34,0,0,1-1.06-.32,1.05,1.05,0,0,1-.19-1.51,1,1,0,0,1,1.51-.11,1.31,1.31,0,0,1,.54,1l.3-.37c.23-.29.14-.65-.2-.93a1.3,1.3,0,0,0-1-.28l.08-.55a1.89,1.89,0,0,1,1.36.44,1.13,1.13,0,0,1,.3,1.72l-1.32,1.63Zm.46-.56.3-.37a.93.93,0,0,0-.38-.73.58.58,0,1,0-.72.88A.93.93,0,0,0,69.83,129.39Z"/><path class="cls-1" d="M70.06,130.6l3.12-3.07.48.49-3.12,3.07Z"/><path class="cls-1" d="M77.65,131.43l-3-3.74,2.56-2.07.47.58-1.91,1.54.78,1,1.87-1.51.47.58L77,129.28l.84,1,1.91-1.54.47.58Z"/><path class="cls-1" d="M82.63,127.89l-.25-.41a1.41,1.41,0,0,1-.66,1.06,1.85,1.85,0,0,1-1.91-3.12,1.4,1.4,0,0,1,1.25-.1l-.95-1.54.65-.4,2.52,4.1Zm-.55-.89-.72-1.18a1.14,1.14,0,0,0-1,.07,1.17,1.17,0,0,0,1.21,2A1.14,1.14,0,0,0,82.08,127Z"/><path class="cls-1" d="M85.86,126.17l-.21-.41a1.67,1.67,0,0,1-.85,1,1,1,0,0,1-1.49-.48l-1.11-2.2.68-.34,1,2a.61.61,0,0,0,.94.32,1.16,1.16,0,0,0,.59-.81l-1.1-2.18.68-.34,1.57,3.11Z"/><path class="cls-1" d="M86.18,124.07a1.75,1.75,0,0,1,.93-2.39,1.56,1.56,0,0,1,1.47,0l-.27.62a.93.93,0,0,0-.9-.06,1.16,1.16,0,0,0,.92,2.12,1,1,0,0,0,.57-.7l.64.23a1.56,1.56,0,0,1-1,1.1A1.75,1.75,0,0,1,86.18,124.07Z"/><path class="cls-1" d="M92,123.57l-.13-.35a1.47,1.47,0,0,1-.89.83,1.16,1.16,0,0,1-1.54-.65,1.12,1.12,0,0,1,.73-1.49,1.44,1.44,0,0,1,1.21,0l-.18-.49c-.14-.38-.54-.49-1-.32a1.43,1.43,0,0,0-.81.78l-.48-.38a2.07,2.07,0,0,1,1.17-1,1.24,1.24,0,0,1,1.8.67l.82,2.16Zm-.28-.74-.19-.49a1,1,0,0,0-.9,0,.63.63,0,1,0,.44,1.17A1,1,0,0,0,91.73,122.83Z"/><path class="cls-1" d="M93.19,122.3l-.65-1.9-.55.19-.21-.63.55-.19-.31-.9.72-.24.31.9.67-.23.21.63-.67.23.59,1.73c.08.23.24.35.45.28a.49.49,0,0,0,.28-.23l.35.48a1,1,0,0,1-.6.44A.8.8,0,0,1,93.19,122.3Z"/><path class="cls-1" d="M93.73,118.35a.47.47,0,1,1,.59.3A.47.47,0,0,1,93.73,118.35Zm1.43,4.14-1.06-3.32.72-.23,1.06,3.32Z"/><path class="cls-1" d="M95.77,120.45A1.79,1.79,0,1,1,98,121.7,1.74,1.74,0,0,1,95.77,120.45Zm2.69-.78a1,1,0,1,0-.64,1.4A1,1,0,0,0,98.46,119.66Z"/><path class="cls-1" d="M102.37,120.43l-.54-2.11a.62.62,0,0,0-.86-.53,1.15,1.15,0,0,0-.75.68l.6,2.35-.73.19-.86-3.37.73-.19.12.46a1.65,1.65,0,0,1,1-.85,1,1,0,0,1,1.37.8l.61,2.38Z"/><path class="cls-1" d="M107.07,119l-1.81-4.46,2-.79a1.51,1.51,0,1,1,1.13,2.79l-1.18.48.67,1.66Zm1.37-4.12a.76.76,0,0,0-1-.4l-1.07.43.57,1.42,1.07-.43A.76.76,0,0,0,108.45,114.84Z"/><path class="cls-1" d="M109.79,116a1.79,1.79,0,1,1,2.24,1.23A1.74,1.74,0,0,1,109.79,116Zm2.68-.81a1,1,0,1,0-.63,1.4A1,1,0,0,0,112.47,115.17Z"/><path class="cls-1" d="M114,116.6l-1.09-4.69.74-.17,1.09,4.69Z"/><path class="cls-1" d="M115.2,117a.8.8,0,0,0,.29,0,.47.47,0,0,0,.44-.38l.11-.42-2-3.25.8-.13,1.42,2.41.59-2.74.8-.13-1,4.33a1.17,1.17,0,0,1-1.06,1,2.16,2.16,0,0,1-.43,0Z"/><path class="cls-1" d="M118.61,115l-.52-1.94-.56.15-.17-.64.56-.15-.25-.92.73-.19.25.92.68-.18.17.64-.68.18.47,1.76c.06.23.22.37.43.31a.49.49,0,0,0,.3-.21l.32.5a1,1,0,0,1-.63.4A.8.8,0,0,1,118.61,115Z"/><path class="cls-1" d="M120.33,113.52a1.76,1.76,0,0,1,.27-2.52,1.73,1.73,0,0,1,2.52.44l.11.14-2.12,1.65a1.06,1.06,0,0,0,1.47.08,1.47,1.47,0,0,0,.55-.91l.58.18a2,2,0,0,1-.81,1.27A1.75,1.75,0,0,1,120.33,113.52Zm.66-2a1,1,0,0,0-.21,1.33l1.55-1.2A.93.93,0,0,0,121,111.49Z"/><path class="cls-1" d="M123.3,111.1a1.75,1.75,0,0,1-.2-2.56,1.56,1.56,0,0,1,1.34-.6l0,.68a.93.93,0,0,0-.83.34,1.16,1.16,0,0,0,1.75,1.52,1,1,0,0,0,.21-.87l.67-.07a1.56,1.56,0,0,1-.4,1.42A1.75,1.75,0,0,1,123.3,111.1Z"/><path class="cls-1" d="M128.33,107.43l-1.82-1.22a.61.61,0,0,0-1,.19,1.17,1.17,0,0,0-.11,1l2,1.35-.42.63-4-2.67.42-.63,1.5,1a1.67,1.67,0,0,1,.22-1.34,1,1,0,0,1,1.54-.32l2,1.37Z"/><path class="cls-1" d="M130.27,104l-1.94-1a.62.62,0,0,0-1,.29,1.15,1.15,0,0,0,0,1l2.16,1.11-.35.67-3.1-1.59.35-.67.42.22a1.65,1.65,0,0,1,.06-1.35,1,1,0,0,1,1.51-.49l2.18,1.12Z"/><path class="cls-1" d="M126.82,101a.47.47,0,0,1-.26-.61.47.47,0,1,1,.26.61Zm4.09,1.56-3.23-1.31.29-.7,3.23,1.31Z"/><path class="cls-1" d="M129.82,100.74a1.75,1.75,0,0,1-1.3-2.21,1.56,1.56,0,0,1,.94-1.13l.32.6a.93.93,0,0,0-.6.67,1.16,1.16,0,0,0,2.24.59,1,1,0,0,0-.19-.88l.57-.36a1.56,1.56,0,0,1,.26,1.45A1.75,1.75,0,0,1,129.82,100.74Z"/></g></g></svg>