<svg xmlns="http://www.w3.org/2000/svg" viewBox="0 0 68.95 68.96"><defs><style>.cls-1{fill:#ab1f2a;}</style></defs><title>Asset 5</title><g id="Layer_2" data-name="Layer 2"><g id="Layer_1-2" data-name="Layer 1"><path class="cls-1" d="M.48,28.87c.11-.6.25-1.19.34-1.79a.58.58,0,0,1,.64-.56c.84,0,1.68-.1,2.52-.12.41,0,.54-.19.64-.54.4-1.38.41-1.38-.73-2.23-.38-.29-.75-.6-1.15-.85a.66.66,0,0,1-.3-1c.65-1.64.63-1.64,2.37-1.38.18,0,.36,0,.54,0,1.26.18,1.22.16,1.86-.89a.83.83,0,0,0-.15-1.22c-.6-.58-1.16-1.2-1.71-1.83a.55.55,0,0,1,0-.5c.35-.55.74-1.08,1.17-1.69.91.31,1.84.61,2.74,1a.71.71,0,0,0,1-.24c.86-1.09.88-1.08.17-2.27-.32-.53-.65-1-1-1.58a.56.56,0,0,1,0-.49c.47-.49,1-.94,1.51-1.45l3,1.77A16.3,16.3,0,0,0,15.25,10a.78.78,0,0,0,.09-.64c-.25-.83-.56-1.64-.84-2.45-.06-.19-.12-.38-.15-.51l2-1.23c.74.66,1.49,1.31,2.2,2a.67.67,0,0,0,.95.09c1.2-.7,1.21-.68,1-2,0-.32-.08-.63-.13-1-.24-1.43-.3-1.07.95-1.65a4.34,4.34,0,0,0,.5-.2c.43-.26.68-.11.94.27.44.65.95,1.23,1.37,1.88a.72.72,0,0,0,1,.31c1.23-.4,1.24-.39,1.34-1.71,0-.54.1-1.09.09-1.64s.19-.63.61-.72C28.88.42,28.87.41,29.65,2l.24.5c.5,1,.5,1,1.66,1,.67,0,.91-.26,1-.87.18-.91.45-1.8.68-2.66.58,0,1.13,0,1.67,0a.73.73,0,0,1,.88.69c.14.78.39,1.54.57,2.32a.59.59,0,0,0,.65.52c1.45.09,1.45.11,2.07-1.2,1-2,1-2,3.21-1.34,0,1,.14,2,.16,3,0,.42.16.58.56.69,1.39.37,1.38.39,2.26-.79l.24-.33c.35-.41.68-1.15,1-1.17A4,4,0,0,1,48.4,3c.16.07.24.45.21.68-.08.79-.21,1.58-.35,2.36a.65.65,0,0,0,.4.81c1.29.67,1.28.69,2.37-.3l1.53-1.39,2,1.31c-.35,1-.65,1.95-1,2.88a.62.62,0,0,0,.23.81c1.11.94,1.1,1,2.33.22a12.56,12.56,0,0,0,1.17-.71c.5-.39.86-.29,1.25.17a11.71,11.71,0,0,0,1.15,1c-.55.93-1,1.78-1.54,2.6a.69.69,0,0,0,.07,1c.93,1.05.91,1.06,2.2.61.52-.19,1-.34,1.54-.56a.54.54,0,0,1,.79.26c.31.51.64,1,1,1.55L61.36,19l.34.63c.64,1.16.64,1.16,2,.92,2.28-.41,2.28-.41,3,1.81,0,0,0,0,0,.12-.75.56-1.51,1.17-2.32,1.73a.68.68,0,0,0-.28.91c.41,1.32.4,1.32,1.8,1.39l1.71.11c.11,0,.31,0,.32.05a17.17,17.17,0,0,1,.47,2.1c0,.16-.36.4-.59.53-.66.35-1.34.67-2,1a.59.59,0,0,0-.42.72c.17,1.46.15,1.46,1.56,1.82l.13,0c2.15.56,2.15.56,1.84,2.89-.92.23-1.86.5-2.81.7a.73.73,0,0,0-.65.79c-.11,1.33-.12,1.33,1.07,1.9.49.23,1,.5,1.47.7s.53.37.43.78c-.14.6-.25,1.2-.38,1.81-1,.06-2,.14-3,.16a.65.65,0,0,0-.71.55c-.39,1.39-.4,1.38.79,2.27.53.4,1,.8,1.64,1.23-.26.63-.49,1.27-.78,1.87a.63.63,0,0,1-.52.25c-.86-.09-1.72-.2-2.57-.36a.61.61,0,0,0-.76.35c-.71,1.32-.72,1.32.29,2.43a11.15,11.15,0,0,0,.92,1c.48.39.36.71.08,1.14-.91,1.37-.89,1.38-2.42.84L60.48,54c-1.47-.52-1.48-.53-2.39.71a.78.78,0,0,0,0,.7c.47.88,1,1.73,1.61,2.78-.49.43-1,.92-1.55,1.35a.66.66,0,0,1-.58,0c-.74-.4-1.47-.83-2.18-1.28a.62.62,0,0,0-.89.07c-1.08.94-1.1.93-.63,2.27.22.62.44,1.24.65,1.86a.54.54,0,0,1,0,.18c-.53.35-1.1.76-1.7,1.11-.13.07-.43,0-.57-.15-.64-.55-1.27-1.11-1.87-1.7a.64.64,0,0,0-.89-.11c-1.26.7-1.27.68-1.07,2.1,0,.27.1.54.12.81,0,.44.21,1.12,0,1.27a6.24,6.24,0,0,1-1.86.82c-.1,0-.34-.17-.45-.32-.51-.65-1-1.3-1.47-2a.67.67,0,0,0-.91-.29c-1.27.4-1.28.38-1.39,1.73,0,.71-.08,1.41-.13,2.2-.69.14-1.39.31-2.1.41-.12,0-.33-.19-.41-.34-.39-.77-.77-1.55-1.12-2.34a.62.62,0,0,0-.74-.41c-1.41.14-1.41.13-1.77,1.53a.14.14,0,0,0,0,.07c-.18.61-.17,1.47-.58,1.76s-1.26.08-1.91.12c-.39,0-.52-.12-.59-.47-.17-.78-.4-1.54-.58-2.32a.61.61,0,0,0-.67-.58c-1.44-.09-1.44-.11-2.06,1.21l-.9,1.86-2.31-.51c-.06-1-.13-2-.16-3a.6.6,0,0,0-.52-.66c-1.41-.4-1.41-.42-2.27.74-.14.19-.27.38-.42.55-.3.35-.64,1-.92,1A5.68,5.68,0,0,1,20.38,66c-.12,0-.15-.4-.13-.6.09-.83.24-1.67.31-2.5a.81.81,0,0,0-.31-.63c-1.3-.81-1.31-.8-2.43.21a6.47,6.47,0,0,0-.9.83c-.47.63-.89.49-1.45.09-1.15-.82-1.18-.79-.71-2.11.08-.24.16-.48.25-.71.47-1.35.46-1.34-.62-2.26a.64.64,0,0,0-.9-.09c-.73.47-1.49.88-2.22,1.34-.28.18-.45.2-.68-.08-.4-.49-1.14-.9-1.2-1.41s.53-1.1.84-1.66a1,1,0,0,1,.1-.17c.76-1.3.75-1.44-.39-2.48a.8.8,0,0,0-.65-.06c-.93.3-1.85.64-2.77,1a.4.4,0,0,1-.15,0L5.15,52.7l2.33-2.61c-.79-1.76-.79-1.76-2.63-1.5S3,48.84,2.37,47.13c-.06-.15-.11-.3-.18-.5C3,46,3.77,45.42,4.58,44.84A.65.65,0,0,0,4.86,44c-.42-1.33-.4-1.33-1.78-1.42l-1.63-.1c-.1,0-.26,0-.27,0a15.34,15.34,0,0,1-.6-1.85.78.78,0,0,1,.3-.68c.73-.41,1.5-.76,2.27-1.1a.62.62,0,0,0,.43-.72c-.11-1.46-.09-1.46-1.47-1.82L0,35.72c0-.61,0-1.2,0-1.79a.62.62,0,0,1,.56-.75c.78-.17,1.53-.45,2.31-.62a.73.73,0,0,0,.67-.77c.11-1.36.13-1.36-1.11-1.94L.59,29A.87.87,0,0,1,.48,28.87Zm60,6.08h-52c0,.25,0,.45,0,.65a27.24,27.24,0,0,0,1.68,8.26,1.12,1.12,0,0,0,1.28.86c9.63,0,19.27,0,28.91,0H57.74c.48,0,.76-.1.9-.59.28-.94.65-1.85.91-2.79A23.79,23.79,0,0,0,60.43,35ZM24.19,48c0,.73,0,1.41,0,2.09a.51.51,0,0,0,.32.32c.67,0,1.34,0,2.05,0V48Zm33.1-15.61c0,.55,0,1,0,1.49,0,.15.2.39.31.4.92,0,1.84,0,2.75,0V32.36ZM16.48,48c0,.73,0,1.38,0,2,0,.13.22.36.34.36.65,0,1.3,0,2,0V48ZM60,29.78H57.34v1.86h3ZM36.07,11V10c0-1.75,0-1.75-1.8-1.54,0,0,0,0-.1.08V11ZM31.6,8.58V11h1.84V8.44ZM26.55,47.25V45.38H24.23v1.87ZM57.33,29h2.56c-.14-.55-.24-1-.4-1.5-.05-.16-.23-.36-.37-.37-.58,0-1.16,0-1.79,0ZM36.75,8.53V11h1.89c0-.66,0-1.29,0-1.91a.5.5,0,0,0-.29-.37C37.82,8.63,37.31,8.59,36.75,8.53Zm-2.17,52h2V58.3h-2ZM16.52,47.24h2.3V45.37h-2.3Zm38.86,0c.46,0,.84,0,1.23,0,.2,0,.51-.05.59-.18.33-.52.59-1.1.9-1.71H55.38ZM30.85,11V8.66L29,9v2Zm5.77,44V53.16h-2V55Zm0-5.19V48h-2v1.86Zm-2,2.59h2V50.57h-2Zm2,3.31H34.54a15,15,0,0,0,0,1.51.55.55,0,0,0,.4.38c1.66.2,1.78.08,1.7-1.59A2.32,2.32,0,0,0,36.61,55.73Zm-2-8.49h2V45.39h-2Zm13.07,5.19h1.88V50.57H47.64Zm7.12-20.8h1.85V29.77H54.76Zm1.87-4.46H54.78v1.88h1.85Zm-35.36,0V29h1.85V27.18ZM49.5,49.84V48H47.66v1.87Zm-1.85-2.6h1.86V45.37H47.65Zm7.12-22.66v1.89H56.6V24.58Zm-33.48,0v1.87h1.84V24.59Zm35.32,9.68V32.36H54.76v1.86c.18,0,.31.05.44.05ZM23.17,23.89a14.8,14.8,0,0,0,0-1.5.62.62,0,0,0-.38-.41c-1.49-.21-1.59-.11-1.55,1.36a3.84,3.84,0,0,0,.06.55Zm-1.89-7.71h1.85V14.32H21.28ZM47.65,55h1.87V53.16H47.65ZM23.17,21.3a14.41,14.41,0,0,0,0-1.48.58.58,0,0,0-.38-.41,4,4,0,0,0-1.14,0,.52.52,0,0,0-.39.32c0,.51,0,1,0,1.57Zm-1.94-4.41c0,.55,0,1.05,0,1.54a.47.47,0,0,0,.32.32,6.84,6.84,0,0,0,1.28,0,.5.5,0,0,0,.31-.34c0-.49,0-1,0-1.52Zm33.52,7h1.87V22H54.75ZM39.22,58.33H37.34v2c1.73.16,1.95,0,1.9-1.65C39.24,58.58,39.23,58.47,39.22,58.33ZM23.14,11.74c-1.82-.2-2.19.19-1.82,1.84h1.82ZM41.2,11c0-.51,0-.94,0-1.36a.51.51,0,0,0-.26-.39c-.51-.15-1-.24-1.62-.37V11Zm3.87,46.52c.64.23,1.32.5,1.7-.09a4.47,4.47,0,0,0,.29-1.69h-2ZM23.85,11.72v1.85H25.7V11.72Zm2.52,0c0,.55,0,1,0,1.49,0,.14.15.39.24.39.55,0,1.11,0,1.64,0v-1.9ZM29,13.63c.56,0,1,0,1.51,0,.14,0,.37-.15.38-.25,0-.55,0-1.11,0-1.63H29Zm2.58-.05h1.87V11.73H31.57Zm4.44,0V11.72H34.17v1.87Zm2.59-1.85H36.76v1.84H38.6Zm.69,1.85h1.86V11.73H39.29Zm2.57,0h1.85V11.73H41.86Zm2.61-1.85v1.86H46.3v-1.9H44.9ZM18.7,16.15c2.28.14,1.91.31,1.88-1.68,0,0,0-.08-.08-.15H18.7ZM29,14.31v1.85h1.85V14.31Zm2.58,1.91c.53,0,1,0,1.51,0a.52.52,0,0,0,.37-.35c0-.51,0-1,0-1.52h-1.9Zm2.57,0c.55,0,1.05,0,1.54,0a.53.53,0,0,0,.35-.36c0-.49,0-1,0-1.52H34.16Zm7.67-1.91c0,.56,0,1,0,1.51,0,.14.21.37.34.38.51,0,1,0,1.54,0v-1.9Zm4.49,0H44.47v1.86h1.85Zm2.58,1.86V14.32H47.05v1.86ZM29,16.89v1.83h1.86V16.89ZM18,21.3c0-.56,0-1,0-1.5,0-.14-.2-.38-.33-.39-.51,0-1,0-1.55,0V21.3Zm11-1.86v1.84h1.87V19.44Zm12.88,1.84h1.89c0-.51,0-1,0-1.41a2.32,2.32,0,0,0-.05-.38c-1.71-.4-2-.19-1.89,1.47C41.84,21.05,41.86,21.13,41.88,21.28Zm2.57,0h1.87V19.49c-1.73-.41-2-.22-1.91,1.46C44.42,21,44.43,21.13,44.45,21.28Zm4.45-1.84H47.06v1.85H48.9Zm2.56,1.86c.13-2.28.33-1.91-1.7-1.88,0,0-.08,0-.13.08v1.8ZM18,23.89c0-.57,0-1.06,0-1.56a.51.51,0,0,0-.36-.34c-.49,0-1,0-1.52,0v1.92ZM18.71,22v1.9h1.9c0-.55,0-1.05,0-1.54a.51.51,0,0,0-.37-.34A15,15,0,0,0,18.71,22Zm7,1.92V22c-.54,0-1,0-1.48,0a.53.53,0,0,0-.38.34c-.05.51,0,1,0,1.57Zm10.38,0c0-.56,0-1.08,0-1.59,0-.1-.13-.29-.21-.29-.56,0-1.13,0-1.66,0v1.89Zm7.67,0V22c-.54,0-1,0-1.53,0a.5.5,0,0,0-.35.29c0,.54,0,1.07,0,1.61ZM46.32,22c-.55,0-1,0-1.49,0-.15,0-.39.19-.4.31,0,.53,0,1.06,0,1.57h1.9Zm2.57,1.92V22H47v1.87Zm2.63,0c0-.55,0-1.07,0-1.58a.43.43,0,0,0-.33-.31c-.51,0-1,0-1.53,0v1.91ZM18,26.5c.27-1.94.19-2-1.61-1.93a.79.79,0,0,0-.22.07v1.83l.65,0C17.16,26.51,17.54,26.5,18,26.5Zm2.58,0c.27-1.89.15-2-1.62-1.9a2.07,2.07,0,0,0-.21.08v1.82Zm5.16,0V24.56c-.56,0-1.07,0-1.58,0a.47.47,0,0,0-.31.34c0,.51,0,1,0,1.55Zm8.48-1.82v1.79H36c.1-2.27.33-1.87-1.73-1.85C34.27,24.59,34.25,24.61,34.18,24.65Zm7,0c-2.28-.14-1.92-.33-1.89,1.68,0,0,0,.08.08.15h1.81Zm2.57-.07c-.55,0-1.05,0-1.54,0a.49.49,0,0,0-.35.3c0,.53,0,1.06,0,1.59h1.91Zm.71,0v1.87h1.86V24.59Zm4.44,1.88V24.61H47.05v1.86Zm2.63,0c0-.54,0-1,0-1.53a.48.48,0,0,0-.29-.35c-.53,0-1.06,0-1.6,0v1.89Zm.68-1.83v1.82H54c.29-1.85.17-2-1.61-1.88A1,1,0,0,0,52.2,24.63ZM18,29.07V27.2H16.15v1.87Zm5.87-1.88V29h1.84V27.19Zm1.85-11v-1.9H23.8c0,.55,0,1,0,1.53a.54.54,0,0,0,.37.35C24.67,16.24,25.16,16.22,25.69,16.22ZM36.73,29h1.85V27.19H36.73Zm2.58-1.86v1.87h1.84V27.18Zm2.57,0V29h1.85V27.19Zm4.42,1.87V27.21H44.47v1.85Zm2.59,0V27.2H47.05v1.86Zm2.59,0V27.19H49.63v1.87Zm.72,0h1.85V27.18H52.2Zm-36.07.73v1.86H18V29.77Zm7.7,1.87H25.7V29.79H23.83Zm10.34,0H36V29.77H34.17Zm4.42-1.84H36.76v1.85h1.83Zm.71,1.84h1.86V29.78H39.3Zm2.57-1.86v1.87h1.84V29.77Zm2.57,1.86h1.87V29.79H44.44Zm4.46,0V29.78H47v1.87Zm.72,0h1.87V29.79H49.62Zm2.58,0H54V29.77H52.2ZM18,32.37H16.14v1.84c1.89.25,2,.16,1.88-1.63A1.33,1.33,0,0,0,18,32.37Zm5.82,0c0,.53,0,1,0,1.52,0,.13.17.35.28.36.53,0,1.07,0,1.59,0V32.37Zm10.38,1.9c.53,0,1,0,1.52,0,.12,0,.34-.14.34-.22,0-.57,0-1.13,0-1.65H34.17Zm5.16-1.91c-.28,1.88-.16,2,1.61,1.9a1.11,1.11,0,0,0,.21-.08V32.36Zm2.5,0c0,.55,0,1,0,1.54a.51.51,0,0,0,.35.35c.49,0,1,0,1.53,0V32.36Zm4.49,0H44.46v1.85h1.86Zm.74,0v1.86h1.83V32.36Zm2.56,1.91a14.68,14.68,0,0,0,1.5,0,.52.52,0,0,0,.38-.32c0-.51,0-1,0-1.55h-1.9Zm2.59-1.91V34.2c2.26.14,1.89.33,1.86-1.68,0,0,0-.08-.08-.16Zm-13,14.9V45.39H37.36v1.87ZM41.8,45.4H40v1.82H41.8Zm.73,0v1.87h1.84V45.37Zm2.57,1.87h1.84V45.37H45.1Zm7-1.86H50.23v1.85h1.85Zm.71,1.85h1.86V45.39H52.79ZM39.21,48H37.36v1.84h1.85Zm.71,1.85h1.87V48H39.92Zm2.58,0h1.88V48H42.5ZM45.11,48v1.87H47V48Zm5.11,1.87h1.85V48H50.22Zm2.57,0h1.87V48H52.79ZM36,27.18H34.17V29H36Zm5.76,25.25V50.56H39.93v1.87Zm2.58,0V50.56H42.52v1.87Zm.74-1.88v1.87H47V50.55Zm5.11,0v1.87h1.85V50.55ZM37.36,53.14V55H39.2V53.14Zm4.44,0H39.93V55H41.8Zm.73,0V55c1.89.26,2,.17,1.88-1.62,0-.06,0-.12-.08-.22Zm2.56,1.91a14.83,14.83,0,0,0,1.51,0A.5.5,0,0,0,47,54.7c.05-.51,0-1,0-1.54h-1.9Zm-7.75,2.52h1.87V55.74H37.34ZM40,55.72v1.85c1.88.25,2,.16,1.87-1.63a.59.59,0,0,0-.08-.22Zm2.57,0v1.9c.53,0,1,0,1.52,0,.13,0,.35-.18.35-.29,0-.53,0-1.06,0-1.6Zm-5.16-5.19v1.87H39.2V50.54Zm3.8-33.69c-.54,0-1,0-1.53,0a.55.55,0,0,0-.36.35,4.43,4.43,0,0,0,0,1.15.6.6,0,0,0,.41.38c1.45.2,1.55.11,1.52-1.37ZM36.78,32.37c-.31,1.85-.09,2.09,1.7,1.86,0,0,0,0,.11-.06v-1.8Zm6.93-13.63V16.85a8.55,8.55,0,0,1-1.14,0c-.62-.07-.78.18-.76.77.07,1.28-.19,1.15,1.17,1.16Zm-5.13,7.73V24.6H36.74v1.87ZM36.7,16.85c0,.58,0,1,0,1.48a.6.6,0,0,0,.37.42c1.39.24,1.71-.07,1.56-1.47,0,0,0-.05,0-.07s-.25-.33-.38-.34C37.77,16.83,37.27,16.85,36.7,16.85Zm-18,2.59v1.89c.48,0,.91,0,1.33,0,.16,0,.31,0,.46,0,.41-1.7.18-2-1.47-1.9Zm15.45-2.55v1.82H36V16.89Zm-10.37,0c0,.54,0,1,0,1.52a.53.53,0,0,0,.37.34c.49,0,1,0,1.5,0V16.89Zm-5.1,1.88h1c.94,0,.95,0,.94-.9,0-1.15.09-1-1-1H18.7Zm-2.59-.06H18v-1.8H16.11Zm9.57,2.59V19.46c-1.86-.27-2-.13-1.87,1.62a.93.93,0,0,0,.09.22Zm8.48,0c1.81.28,2,.13,1.91-1.38,0,0,0-.05,0-.06s-.25-.4-.4-.41a15,15,0,0,0-1.51,0Zm18.05.79v1.81H54c.28-1.86.14-2-1.62-1.88ZM41.15,23.88V22a15,15,0,0,0-1.51,0,.52.52,0,0,0-.37.35c0,.5,0,1,0,1.54ZM38.6,22c-1.9-.25-2-.15-1.89,1.64a.69.69,0,0,0,.07.2H38.6Zm15.5-.7c0-.57,0-1.08,0-1.59a.48.48,0,0,0-.32-.33c-.51,0-1,0-1.55,0V21.3l.44,0C53.08,21.34,53.51,21.33,54.1,21.33Zm-15.54,0c.3-1.8.15-2-1.36-1.9,0,0-.11,0-.13,0s-.34.24-.35.37c0,.49,0,1,0,1.52Zm2.63-7H39.31c0,.2-.05.35-.06.5,0,1.49,0,1.57,1.52,1.39a.61.61,0,0,0,.41-.37C41.23,15.35,41.19,14.85,41.19,14.31Zm-4.49,0c0,.55,0,1,0,1.49,0,.15.2.38.32.39a6.18,6.18,0,0,0,1.29,0,.51.51,0,0,0,.3-.34c0-.51,0-1,0-1.55Zm4.46,5.08c-.54,0-1,0-1.53,0a.52.52,0,0,0-.36.36c0,.49,0,1,0,1.51h1.91Zm8.47-2.51v1.83h1.84V16.88ZM47,18.7h1.85V16.89H47Zm-.72,0V16.9H44.45v1.83Zm5.87,0c.43,0,.79,0,1.15,0s.75.14.77-.47c0-.83-.19-1.37-.71-1.43a9.72,9.72,0,0,0-1.21,0Zm-2.55-2.55c.52,0,1,0,1.42,0a.56.56,0,0,0,.41-.15,1.29,1.29,0,0,0-.73-1.76,7.44,7.44,0,0,0-1.16,0v1.52C49.59,15.92,49.61,16,49.64,16.22ZM10.25,32.37c-2.12-.07-1.74-.3-1.8,1.58a.85.85,0,0,0,.05.26h1.75ZM12.83,22c-1.27-.16-1.72.25-2.06,1.83h2.06ZM28.28,9.23c-2.12.44-2,.29-1.81,1.77h1.81Zm29,17.23h1.91a12.43,12.43,0,0,1-.46-1.33c-.14-.67-.63-.61-1.1-.56s-.3.51-.34.8A9.67,9.67,0,0,0,57.28,26.46Zm-.71-5.16.2-.18c-.37-.54-.71-1.12-1.13-1.63-.11-.13-.5-.13-.7,0s-.2.36-.22.56c0,.42,0,.85,0,1.3ZM8.84,29.76l-.27,1.87h1.65V29.76ZM39.93,60l1.86-.49V58.31H39.93Zm15-9.46H52.76c0,.55,0,1,0,1.54a.46.46,0,0,0,.21.35.47.47,0,0,0,.41-.1C53.89,51.82,54.37,51.25,55,50.57Zm-4.75,4.71c.7-.61,1.3-1.11,1.86-1.64.06,0-.11-.5-.19-.5-.55,0-1.11,0-1.67,0Zm-3.17-43.7v2h1.89C49,12.26,47.73,12.35,47.05,11.58ZM43.91,11c-.17-.4-.21-.81-.42-.93a11.23,11.23,0,0,0-1.61-.58V11ZM16,16.07c1.75.47,2,.26,2-1.32,0-.1,0-.2-.06-.45Zm-5.8,13V27.21c-.57-.19-.85,0-.94.54s-.19.84-.3,1.3ZM55.38,49.74l.14.08L56.74,48H55.38ZM25.7,11V10a5.05,5.05,0,0,0-2,1ZM49.56,55.76h-1.9V57Zm-7.05,2.58v1l2-.77-.06-.23ZM18.91,13.58c1.76.15,1.85.08,1.59-1.08ZM58.2,23.88l-.74-1.53-.13,0v1.48ZM12,21.3h.84V20ZM9.69,26.44c.64,0,.77-.42.42-1.23Z"/><path class="cls-1" d="M24.73,36.1h13.6c.33,0,.69.09.81-.4,0-.1.34-.18.53-.18,2.43,0,4.87,0,7.31,0,.21,0,.41.24.63.33a1.91,1.91,0,0,0,.71.23h9c.91,0,.91,0,.91.9,0,2,0,4,0,6.08,0,.6-.19.77-.78.77-3.08,0-6.15,0-9.23,0-.31,0-.63-.06-.74.4,0,.11-.38.21-.58.22-2.41,0-4.83,0-7.24,0-.23,0-.45-.28-.69-.38a1.83,1.83,0,0,0-.71-.22H26c-4.94,0-9.88,0-14.83,0-.61,0-.83-.16-.82-.8,0-2.06,0-4.13,0-6.19,0-.6.2-.77.79-.77C15.66,36.11,20.2,36.1,24.73,36.1Zm-13.68,7h28v-1c0-.74-.24-.94-1-.74-.18.05-.34.27-.45.45-.3.46-.53.44-.78,0-.13-.26-.28-.51-.47-.85-.2.37-.35.65-.51.92s-.48.39-.71,0-.29-.55-.49-.92a5.76,5.76,0,0,1-.39.68,5.91,5.91,0,0,1-.48.52c-.16-.18-.33-.34-.47-.53a3.11,3.11,0,0,1-.27-.45,7.42,7.42,0,0,1-1.14.18c-2.23,0-4.46,0-6.7,0-.43,0-.78,0-1,.52s-.47.38-.7,0-.3-.53-.47-.84c-.91,1.25-.91,1.25-1.76,0-.11.16-.2.31-.31.44s-.36.44-.54.66c-.19-.23-.4-.46-.58-.69a1.91,1.91,0,0,1-.2-.29,6,6,0,0,1-1,.18H12.39c-1.57,0-1.57,0-1.41,1.58C11,43,11,43.05,11.05,43.15ZM39,38.4c.27-1.66.26-1.67-1.27-1.67H12.29c-1.46,0-1.52.07-1.28,1.54l.09.13c.65,0,1.35,0,2.05,0a.54.54,0,0,0,.34-.18c.64-.72.64-.72,1.11.12.07.13.16.25.28.44a6,6,0,0,1,.35-.57c.16-.2.35-.38.53-.57.15.18.33.35.47.54s.23.38.38.63c.19-.34.34-.62.5-.89s.48-.38.71,0l.39.7a5.36,5.36,0,0,1,1-.21h6.9c.42,0,.73,0,.93-.48s.5-.36.72,0,.3.52.48.85a6.15,6.15,0,0,1,.34-.56c.17-.22.37-.42.55-.63.17.2.34.4.5.61s.2.33.34.57c.16-.27.25-.48.38-.66a5.91,5.91,0,0,1,.48-.52c.15.18.33.35.47.54a3.51,3.51,0,0,1,.27.44,7.2,7.2,0,0,1,1-.2ZM11,39A8.7,8.7,0,0,1,11,40c-.08.63.16.82.8.8,2.18,0,4.37,0,6.56,0,.44,0,.77-.05,1-.51s.49-.33.69.05l.5.88c.2-.36.32-.6.46-.83.3-.5.51-.5.81,0l.45.8c.19-.34.31-.58.45-.82.28-.49.51-.49.81,0l.32.59a7,7,0,0,1,1.11-.19c2.28,0,4.56,0,6.83,0a1,1,0,0,0,.68-.17c.7-.69.68-.7,1.17.16l.26.4c.17-.3.31-.55.46-.8.29-.46.5-.47.78,0,.15.24.28.5.44.77,1-1.28,1-1.28,1.64-.15,0,0,.06.07,0,0,.53-.07,1-.1,1.39-.19.19,0,.48-.21.5-.36a8.09,8.09,0,0,0,0-1.31l-.69,0c-1.82,0-3.64,0-5.46,0a.8.8,0,0,0-.86.49c-.22.46-.49.43-.73,0l-.49-.87-.5.87c-.24.42-.48.45-.73,0-.15-.27-.3-.53-.5-.86-.16.26-.24.43-.34.57s-.34.4-.51.6c-.17-.19-.35-.38-.51-.58a2.31,2.31,0,0,1-.26-.4,7.71,7.71,0,0,1-1,.18h-6.9a.83.83,0,0,0-.93.5c-.21.47-.5.38-.72,0-.15-.26-.29-.53-.48-.87-.13.23-.2.35-.26.47s-.12.25-.19.36c-.31.53-.48.53-.8,0l-.46-.8-.27.41c-.08.14-.13.29-.22.43-.28.48-.46.48-.76,0-.15-.25-.29-.51-.33-.59-.61.06-1.08.12-1.54.14S11.59,39,11,39Zm46.64,4.12c0-.43,0-.81,0-1.19s-.15-.61-.6-.59c-.77,0-1.54,0-2.32,0a.79.79,0,0,0-.53.18c-.68.72-.67.73-1.15-.13L52.78,41c-.15.25-.24.44-.37.62s-.32.35-.48.53c-.16-.17-.34-.33-.48-.51a5.78,5.78,0,0,1-.39-.66c-.19.33-.33.58-.48.82-.29.48-.48.48-.77,0-.14-.23-.26-.47-.37-.67a4.57,4.57,0,0,1-.86.2c-1,0-1-.2-1,1,0,.24,0,.49,0,.76Zm-3.51-4.45c.15-.25.29-.5.43-.76.24-.42.49-.45.74,0,.15.25.28.51.35.63l1.94-.25V36.77H47.66V38.4c1,0,2,0,3,0a.51.51,0,0,0,.34-.17c.65-.7.64-.71,1.14.16l.23.33.86-1.07Zm-2.62.14c-1.24.44-2.55,0-3.85.26v1.6c.57.06,1.07.21,1.36-.47.16-.37.46-.33.67,0s.32.57.52.92a4.3,4.3,0,0,1,.26-.45L51,40l.6.68c.1.12.18.26.32.46l.4-.73c.31-.56.52-.57.84,0l.37.65c1.33-.59,2.72,0,4-.35V39.09c-.64-.07-1.21-.2-1.53.55-.16.37-.44.22-.61-.07l-.53-.93c-.19.36-.31.61-.45.84-.29.49-.46.5-.76,0-.16-.25-.31-.52-.48-.8l-.82,1.14ZM43,43.14a11.72,11.72,0,0,0,0-1.34c0-.15-.25-.39-.39-.39-.86,0-1.72,0-2.58,0a.5.5,0,0,0-.36.36,12.38,12.38,0,0,0,0,1.37Zm.71,0h3.17c.28-1.74.28-1.74-1.36-1.74h-.41c-1.64,0-1.64,0-1.46,1.63C43.69,43,43.71,43.06,43.75,43.13Zm-4-2.37c.91,0,1.77,0,2.63,0,.54,0,.76-.15.7-.69,0-.23,0-.47,0-.68a.51.51,0,0,0-.31-.34c-1,0-2,0-3,0Zm4,0h2.35c.94,0,.94,0,.94-1,0-.11,0-.25,0-.33s-.25-.39-.39-.4c-.94,0-1.89,0-2.88,0ZM43,38.36a8,8,0,0,1,0-.86c.06-.53-.14-.75-.69-.7s-1,0-1.43,0c-1.4,0-1.44,0-1.21,1.45,0,0,0,0,.06.1Zm.66,0H47a11.51,11.51,0,0,0,0-1.18c0-.13-.19-.34-.3-.35-1,0-2,0-3,0Z"/></g></g></svg>