<svg xmlns="http://www.w3.org/2000/svg" viewBox="0 0 215.54 86.25"><defs><style>.cls-1{fill:#261156;}.cls-2{fill:#38943e;}.cls-3{fill:#a80000;}</style></defs><title>Asset 3</title><g id="Layer_2" data-name="Layer 2"><g id="Layer_1-2" data-name="Layer 1"><path class="cls-1" d="M7.74,35.24l3.08-2.4,2.12-1.64,1-.75s0,.51.12,1.32c.05.61.13,1.4.22,2.26,0,.26.05.53.08.81.18,1.55.38,3.23.61,4.51a12.43,12.43,0,0,0,.34,1.54A130.16,130.16,0,0,1,18.13,53.8l.15,1c.19,1.3.36,2.62.49,3.92.11,1.12.18,2.22.19,3.29a18.72,18.72,0,0,1-.6,5.74c3.93-1.81,7.57-3.63,10.33-7a21.66,21.66,0,0,0,1.54-2c.29-.44.57-.89.83-1.35a16.79,16.79,0,0,0,1.7-3.71c.14-.44.26-.87.37-1.32,1.08-5.15-.45-10.35-1-15.52-.09-.47-.18-.94-.3-1.4a14.79,14.79,0,0,0-5-8.54,15.08,15.08,0,0,0-2.26-1.47,15.81,15.81,0,0,0-6.48-1.85,15.51,15.51,0,0,0-2.26,0c-5.61.59-11.06,4.22-12.72,9.93a12.57,12.57,0,0,0-.5,2.83,13.86,13.86,0,0,0,.2,3.22c1.63,3.8,2.64,8.56,9,8.43.34,0,.69,0,1.06-.07A8.3,8.3,0,0,0,21.46,39a2.28,2.28,0,0,0-.38-1,1.66,1.66,0,0,0-.79-.6,3.66,3.66,0,0,0-2.25,0c.92-1.23,2.44-1.84,3.34-3a10.47,10.47,0,0,1,2.43,2.74,7,7,0,0,1,.42,1,6.31,6.31,0,0,1,.25,1.1c.25,5.46-5.26,9.9-10.09,11.27a10.66,10.66,0,0,1-1.46.2,12.28,12.28,0,0,1-7.07-1.75C2.54,47-.18,41.68,0,36.36a15,15,0,0,1,.46-3.18c1.84-6.33,8.2-10.87,14.58-11.95A17.72,17.72,0,0,1,17.57,21a20.31,20.31,0,0,1,7.58,1.39A20.92,20.92,0,0,1,28,23.73c4.85,2.54,7.61,7,8.88,12,.12.5.23,1,.32,1.5a39.08,39.08,0,0,1-.43,13.89c-.13.51-.27,1-.43,1.52a24.54,24.54,0,0,1-2.66,5.71q-.41.69-.87,1.35a25.57,25.57,0,0,1-1.62,2.14c-4,5-10.4,7.75-16.46,9a26.94,26.94,0,0,0,1.06-9.18c0-.86-.06-1.74-.12-2.61a48.44,48.44,0,0,0-.82-6.18c-.08-.38-.16-.74-.25-1.1-.57-2.56-1.34-5.16-1.86-7.8-.07-.34-.15-.66-.23-1L11,36.44Z"/><path class="cls-1" d="M40.42,48.35l-1.2,9c.59-1.35,1-2.28,1.3-2.76a5.78,5.78,0,0,1,1.11-1.45,1.74,1.74,0,0,1,1-.44.84.84,0,0,1,.73.3,1.57,1.57,0,0,1,.39,1,5.78,5.78,0,0,1-.06,1.33l-.6,4.24a3.47,3.47,0,0,0-.06.74.26.26,0,0,0,.07.16.18.18,0,0,0,.13.06.27.27,0,0,0,.18-.12,3.2,3.2,0,0,0,.47-.83,3.87,3.87,0,0,1,.19-.43l.33.18a6.29,6.29,0,0,1-1.11,2,1.8,1.8,0,0,1-1.11.62,1,1,0,0,1-.8-.23,1.15,1.15,0,0,1-.35-.75,5.16,5.16,0,0,1,.07-1.23l.57-4.24a3.22,3.22,0,0,0,0-.63.34.34,0,0,0-.09-.19.17.17,0,0,0-.16-.06c-.19,0-.43.24-.73.66A13.77,13.77,0,0,0,39,59.19l-.42,3-2,.19L38.13,51.1a5.14,5.14,0,0,0,.06-1,.47.47,0,0,0-.2-.37.83.83,0,0,0-.65-.09l0-.39L40,48.4Z"/><path class="cls-1" d="M52.45,52l-1,6.59-.1.8a1.55,1.55,0,0,0,0,.22.3.3,0,0,0,.08.2.22.22,0,0,0,.15.08c.11,0,.25-.13.43-.35a7.05,7.05,0,0,0,.5-.94l.3.15a5.67,5.67,0,0,1-1.06,1.94,2,2,0,0,1-1.33.69.87.87,0,0,1-.72-.23,1.12,1.12,0,0,1-.29-.71A6.81,6.81,0,0,1,49.53,59l.12-.8a9.3,9.3,0,0,1-1.55,2.88,1.5,1.5,0,0,1-1,.55A1.09,1.09,0,0,1,46,61a4,4,0,0,1-.45-1.63,8.79,8.79,0,0,1,.43-3.2,7.82,7.82,0,0,1,1.57-3,2.59,2.59,0,0,1,1.64-1,.92.92,0,0,1,.74.26,2.4,2.4,0,0,1,.49,1.12l.19-1.22ZM50.06,54a2.38,2.38,0,0,0-.29-1.12.45.45,0,0,0-.41-.22.74.74,0,0,0-.48.34,7.49,7.49,0,0,0-1,2.54,10.43,10.43,0,0,0-.36,3.23,1.5,1.5,0,0,0,.2.74.38.38,0,0,0,.32.2c.24,0,.47-.21.69-.56a8.07,8.07,0,0,0,.8-1.84A8.71,8.71,0,0,0,50.06,54Z"/><path class="cls-1" d="M57.89,47,56.3,56.34,58,54.16l.56-.71a2.84,2.84,0,0,0,.33-.59.68.68,0,0,0,0-.27.4.4,0,0,0-.18-.33,1.5,1.5,0,0,0-.78-.14l.06-.37,3.24-.22-.06.38a4.19,4.19,0,0,0-.9.44,4,4,0,0,0-.65.59c-.38.41-.65.73-.81.94l-.32.43L59.18,57a9.65,9.65,0,0,0,.53,1.78.24.24,0,0,0,.22.13q.27,0,.6-.84c0-.07.08-.18.14-.31l.3.2a6.37,6.37,0,0,1-1.2,2.17,1.39,1.39,0,0,1-.88.53.81.81,0,0,1-.7-.31,5.15,5.15,0,0,1-.66-1.83L57,56.3l-.81,1L55.6,60.7l-2,.13,1.92-11.17a5.09,5.09,0,0,0,.1-1,.73.73,0,0,0-.1-.36.53.53,0,0,0-.23-.19,1.44,1.44,0,0,0-.56,0l0-.37L57.42,47Z"/><path class="cls-1" d="M68.93,51l-1.21,6.57-.12.8a1.87,1.87,0,0,0,0,.21.28.28,0,0,0,.08.2c0,.06.09.09.14.08s.26-.11.45-.33a8.35,8.35,0,0,0,.52-.93l.29.16A5.4,5.4,0,0,1,68,59.67a2,2,0,0,1-1.35.65.83.83,0,0,1-.71-.25,1.05,1.05,0,0,1-.27-.71,6.32,6.32,0,0,1,.18-1.43l.15-.8A9.5,9.5,0,0,1,64.32,60a1.51,1.51,0,0,1-1,.53,1.11,1.11,0,0,1-1.1-.69,4,4,0,0,1-.41-1.64A8.78,8.78,0,0,1,62.31,55,7.75,7.75,0,0,1,64,52a2.55,2.55,0,0,1,1.67-1,.87.87,0,0,1,.74.28,2.38,2.38,0,0,1,.45,1.13l.23-1.21Zm-2.45,2a2.49,2.49,0,0,0-.26-1.13.44.44,0,0,0-.4-.23.75.75,0,0,0-.5.32,8,8,0,0,0-1,2.51,10.21,10.21,0,0,0-.45,3.23,1.43,1.43,0,0,0,.17.74c.11.15.21.22.32.21s.47-.19.7-.54a8.34,8.34,0,0,0,.86-1.82A8.83,8.83,0,0,0,66.48,53Z"/><path class="cls-1" d="M78.37,52.42l3.95-.11.77-3.73a5.6,5.6,0,0,0,.14-1.16.75.75,0,0,0-.23-.59,1.82,1.82,0,0,0-1-.25l.08-.36,5.37-.15-.08.36a1.57,1.57,0,0,0-1.18.44,3.52,3.52,0,0,0-.65,1.64L83.73,57a6.36,6.36,0,0,0-.17,1.2.69.69,0,0,0,.24.54,1.55,1.55,0,0,0,1,.25l-.07.36-5.27.15.11-.37a1.49,1.49,0,0,0,1.11-.39,3.71,3.71,0,0,0,.62-1.67l.82-4-3.93.11-.82,4a5.94,5.94,0,0,0-.16,1.21.73.73,0,0,0,.26.56,1.5,1.5,0,0,0,1,.22l-.07.36-5.2.15.08-.37A1.49,1.49,0,0,0,74.38,59,4,4,0,0,0,75,57.29l1.77-8.53a5.32,5.32,0,0,0,.14-1.16.82.82,0,0,0-.23-.59,1.77,1.77,0,0,0-1-.25l.08-.36L81,46.25l-.11.36a1.48,1.48,0,0,0-1.1.42,3.85,3.85,0,0,0-.64,1.66Z"/><path class="cls-1" d="M88.87,55.67q-.06.64-.06,1a1.9,1.9,0,0,0,.36,1.17,1.11,1.11,0,0,0,.93.42A2.18,2.18,0,0,0,91.22,58a6.19,6.19,0,0,0,1.29-1.18l.24.26A7.08,7.08,0,0,1,91,59a3.4,3.4,0,0,1-1.91.6,2.07,2.07,0,0,1-1.86-.76,3.31,3.31,0,0,1-.53-1.8,7.43,7.43,0,0,1,.73-3.22,6.66,6.66,0,0,1,2-2.59,4.43,4.43,0,0,1,2.62-1,1.29,1.29,0,0,1,1,.38,1.43,1.43,0,0,1,.35,1A3,3,0,0,1,93.13,53,4.39,4.39,0,0,1,92,54.49a5.08,5.08,0,0,1-1.56.87A7,7,0,0,1,88.87,55.67Zm.06-.51A3.55,3.55,0,0,0,90,54.8a2.58,2.58,0,0,0,.75-.71,4.41,4.41,0,0,0,.62-1.23,4,4,0,0,0,.26-1.38.69.69,0,0,0-.13-.43.39.39,0,0,0-.32-.15c-.25,0-.54.22-.85.66A10.33,10.33,0,0,0,88.93,55.16Z"/><path class="cls-1" d="M101.39,50.37l-1.56,6.49-.16.79a1,1,0,0,0,0,.22.36.36,0,0,0,.06.2.21.21,0,0,0,.14.09c.12,0,.27-.1.47-.31a8.67,8.67,0,0,0,.57-.9l.28.18A5.63,5.63,0,0,1,100,59a2,2,0,0,1-1.38.57.86.86,0,0,1-.7-.28,1.13,1.13,0,0,1-.24-.73,7.33,7.33,0,0,1,.26-1.42l.19-.79a9.29,9.29,0,0,1-1.78,2.75,1.48,1.48,0,0,1-1,.47,1.1,1.1,0,0,1-1.06-.74,3.85,3.85,0,0,1-.32-1.66A9.1,9.1,0,0,1,94.56,54a7.89,7.89,0,0,1,1.81-2.87,2.62,2.62,0,0,1,1.72-.89.88.88,0,0,1,.72.32,2.43,2.43,0,0,1,.4,1.15l.29-1.2Zm-2.56,1.85a2.32,2.32,0,0,0-.2-1.14.44.44,0,0,0-.39-.25.73.73,0,0,0-.51.3,7.87,7.87,0,0,0-1.15,2.45,10.11,10.11,0,0,0-.62,3.2,1.47,1.47,0,0,0,.14.75c.09.15.19.23.3.23s.48-.17.73-.51a8.12,8.12,0,0,0,1-1.77A8.76,8.76,0,0,0,98.83,52.22Z"/><path class="cls-1" d="M107,45.81l-2.78,11A7.45,7.45,0,0,0,104,58a.32.32,0,0,0,.06.22.18.18,0,0,0,.15.09.38.38,0,0,0,.27-.13,5.32,5.32,0,0,0,.87-1.28l.31.18a7.29,7.29,0,0,1-1.52,2.1,1.67,1.67,0,0,1-1.07.42,1.13,1.13,0,0,1-.84-.36,1.25,1.25,0,0,1-.3-.84,5.86,5.86,0,0,1,.21-1.16l2.26-9a5.64,5.64,0,0,0,.19-1,.44.44,0,0,0-.16-.37.92.92,0,0,0-.68-.18l.09-.37,2.7-.54Z"/><path class="cls-1" d="M111.12,48l-.69,2.65,1,0-.3,1.11-1,0-1.45,5.64a3.52,3.52,0,0,0-.14.8.35.35,0,0,0,.06.22.21.21,0,0,0,.16.09.42.42,0,0,0,.28-.13,5.27,5.27,0,0,0,.88-1.17l.27.22A4.81,4.81,0,0,1,109,59.13a2,2,0,0,1-1.31.52,1.06,1.06,0,0,1-.84-.35,1.26,1.26,0,0,1-.28-.86,6.86,6.86,0,0,1,.24-1.45l1.37-5.26-1.09,0,.18-.72A7,7,0,0,0,109,50a12.2,12.2,0,0,0,1.73-2Z"/><path class="cls-1" d="M116.49,46.07l-2.36,8.72c.76-1.27,1.31-2.13,1.65-2.57a5.49,5.49,0,0,1,1.29-1.29,1.81,1.81,0,0,1,1-.32.87.87,0,0,1,.68.4,1.61,1.61,0,0,1,.26,1,6,6,0,0,1-.23,1.32l-1.15,4.12a3,3,0,0,0-.16.73.19.19,0,0,0,0,.16.14.14,0,0,0,.12.08.3.3,0,0,0,.2-.09,3.41,3.41,0,0,0,.56-.77c0-.09.14-.22.25-.4l.3.23a6.35,6.35,0,0,1-1.36,1.86,1.79,1.79,0,0,1-1.18.47,1,1,0,0,1-.76-.33,1.14,1.14,0,0,1-.26-.79,5.54,5.54,0,0,1,.24-1.22l1.12-4.12a3.33,3.33,0,0,0,.12-.62.34.34,0,0,0-.06-.2.23.23,0,0,0-.16-.08c-.19,0-.46.18-.8.56a13.63,13.63,0,0,0-2.2,3.69l-.81,2.88-2-.07,3-10.94a5.57,5.57,0,0,0,.19-1,.46.46,0,0,0-.15-.39.87.87,0,0,0-.63-.17l.07-.39,2.67-.49Z"/><path class="cls-1" d="M126,57.69l.23.27a6.37,6.37,0,0,1-1.6,1.58,3.49,3.49,0,0,1-2.1.6,2.21,2.21,0,0,1-1.25-.43,2.25,2.25,0,0,1-.77-1.1,4,4,0,0,1-.19-1.4,7.49,7.49,0,0,1,.86-3.11,6.49,6.49,0,0,1,2-2.36,3.8,3.8,0,0,1,2.33-.79,1.77,1.77,0,0,1,1.33.56,1.75,1.75,0,0,1,.39,1.23,1.78,1.78,0,0,1-.4,1.1,1,1,0,0,1-.78.42.77.77,0,0,1-.6-.33,1.06,1.06,0,0,1-.21-.7,1.23,1.23,0,0,1,.48-.9.76.76,0,0,0,.32-.46.38.38,0,0,0-.11-.29.58.58,0,0,0-.41-.18,1.7,1.7,0,0,0-1.29.61,5.82,5.82,0,0,0-1.3,2.16,8.7,8.7,0,0,0-.54,2.54,2.52,2.52,0,0,0,.34,1.54,1.23,1.23,0,0,0,1,.62,2.26,2.26,0,0,0,1.12-.27A3.84,3.84,0,0,0,126,57.69Z"/><path class="cls-1" d="M135.28,51.7l-2,6.38-.22.78a1,1,0,0,0,0,.21.3.3,0,0,0,.05.21.17.17,0,0,0,.13.09c.12,0,.28-.08.49-.28a8.68,8.68,0,0,0,.63-.86l.26.2a5.39,5.39,0,0,1-1.32,1.76,2,2,0,0,1-1.42.49.84.84,0,0,1-.67-.33,1.07,1.07,0,0,1-.19-.74,7,7,0,0,1,.34-1.4l.25-.77a9.59,9.59,0,0,1-2,2.63,1.54,1.54,0,0,1-1.08.4,1.11,1.11,0,0,1-1-.81,4.13,4.13,0,0,1-.22-1.68,9.05,9.05,0,0,1,.89-3.11,8,8,0,0,1,2-2.74,2.61,2.61,0,0,1,1.78-.79.9.9,0,0,1,.69.37,2.29,2.29,0,0,1,.32,1.18l.37-1.18Zm-2.66,1.68a2.44,2.44,0,0,0-.13-1.15.43.43,0,0,0-.37-.27.74.74,0,0,0-.53.26,7.83,7.83,0,0,0-1.31,2.37,10.53,10.53,0,0,0-.83,3.16,1.56,1.56,0,0,0,.09.75c.09.16.18.24.3.25a1,1,0,0,0,.75-.46,8.72,8.72,0,0,0,1.07-1.7A9.13,9.13,0,0,0,132.62,53.38Z"/><path class="cls-1" d="M139.58,51.91l-1.65,5.37a23.46,23.46,0,0,1,2.63-4.74,1.24,1.24,0,0,1,1-.47.66.66,0,0,1,.52.34,1.49,1.49,0,0,1,.13.86,3.17,3.17,0,0,1-.5,1.56q-.27.39-.57.36a.49.49,0,0,1-.44-.4,2.37,2.37,0,0,0-.19-.44.19.19,0,0,0-.13-.07.28.28,0,0,0-.17,0,2.14,2.14,0,0,0-.51.53,11.66,11.66,0,0,0-.82,1.46c-.33.69-.59,1.27-.79,1.74s-.48,1.4-.87,2.75l-1.92-.16,1.84-6.34a6.62,6.62,0,0,0,.22-.95,1,1,0,0,0,0-.41.55.55,0,0,0-.19-.23,1.48,1.48,0,0,0-.54-.11l.09-.28,2.46-.45Z"/><path class="cls-1" d="M144.16,57.73a10.43,10.43,0,0,0-.18,1,1.85,1.85,0,0,0,.23,1.2,1.11,1.11,0,0,0,.88.52,2.1,2.1,0,0,0,1.15-.22,5.47,5.47,0,0,0,1.41-1l.21.29a7,7,0,0,1-2,1.75,3.53,3.53,0,0,1-2,.39,2.06,2.06,0,0,1-1.76-1,3.36,3.36,0,0,1-.33-1.85,7.46,7.46,0,0,1,1.07-3.11,6.65,6.65,0,0,1,2.32-2.36,4.4,4.4,0,0,1,2.71-.7,1.23,1.23,0,0,1,1,.49,1.44,1.44,0,0,1,.25,1,3.26,3.26,0,0,1-.47,1.35,4.47,4.47,0,0,1-1.3,1.36,5.12,5.12,0,0,1-1.65.69A6.83,6.83,0,0,1,144.16,57.73Zm.12-.5a3.31,3.31,0,0,0,1.11-.23,2.64,2.64,0,0,0,.83-.63,4.67,4.67,0,0,0,.75-1.15,3.92,3.92,0,0,0,.41-1.35.67.67,0,0,0-.08-.44.43.43,0,0,0-.3-.19c-.25,0-.56.17-.92.57A10.12,10.12,0,0,0,144.28,57.23Z"/><path class="cls-1" d="M158.2,55.81l3.92.53,1.36-3.55a4.91,4.91,0,0,0,.33-1.13.78.78,0,0,0-.13-.62,2,2,0,0,0-1-.41l.13-.34,5.33.72-.14.34a1.6,1.6,0,0,0-1.24.25,3.64,3.64,0,0,0-.9,1.51l-3.13,8.13a5.5,5.5,0,0,0-.36,1.16.72.72,0,0,0,.14.57,1.57,1.57,0,0,0,1,.4l-.13.35L158.14,63l.17-.34a1.51,1.51,0,0,0,1.16-.21,3.65,3.65,0,0,0,.88-1.54l1.46-3.79-3.91-.52-1.44,3.78a5.77,5.77,0,0,0-.36,1.16.73.73,0,0,0,.16.6,1.59,1.59,0,0,0,.92.37l-.12.35-5.15-.7.13-.35a1.5,1.5,0,0,0,1.16-.21,3.77,3.77,0,0,0,.87-1.54l3.13-8.13a5.54,5.54,0,0,0,.33-1.12.81.81,0,0,0-.13-.63,1.81,1.81,0,0,0-1-.4l.13-.35,5.24.71-.16.34a1.5,1.5,0,0,0-1.15.23,3.8,3.8,0,0,0-.9,1.54Z"/><path class="cls-1" d="M171.7,55.92a2.1,2.1,0,0,1,1.1.55,2.18,2.18,0,0,1,.67,1.11,3.42,3.42,0,0,1,0,1.43,7.51,7.51,0,0,1-1.23,3A6.44,6.44,0,0,1,170,64.16a3.87,3.87,0,0,1-2.49.51A2,2,0,0,1,166,63.62a3.14,3.14,0,0,1-.26-2,7.37,7.37,0,0,1,.85-2.44A7.83,7.83,0,0,1,168,57.32a6,6,0,0,1,1.79-1.16A3.32,3.32,0,0,1,171.7,55.92Zm-.41.46a.88.88,0,0,0-.74.18,8.66,8.66,0,0,0-1.72,2.63,14,14,0,0,0-1.37,3.9,1.22,1.22,0,0,0,.1.77.67.67,0,0,0,.47.38.8.8,0,0,0,.58-.14,5.69,5.69,0,0,0,1.11-1.42A16.15,16.15,0,0,0,171,60.15a13.31,13.31,0,0,0,.77-2.62,1.35,1.35,0,0,0-.07-.8A.54.54,0,0,0,171.29,56.38Z"/><path class="cls-1" d="M180.55,57.56l-.91,2.9-.29-.06a3.18,3.18,0,0,0-.23-1.92,1.41,1.41,0,0,0-1-.87.77.77,0,0,0-.64.14.94.94,0,0,0-.36.58,1.68,1.68,0,0,0,0,.59,3.33,3.33,0,0,0,.32.82,14.91,14.91,0,0,1,1.07,2.53,3.33,3.33,0,0,1,0,1.37A3.29,3.29,0,0,1,178,65a2.62,2.62,0,0,1-1.14.91,2.34,2.34,0,0,1-1.37.15,3.45,3.45,0,0,1-1.08-.43,2.2,2.2,0,0,0-.63-.28.56.56,0,0,0-.32,0,1,1,0,0,0-.3.26l-.29-.06,1-3.12.25,0a9.23,9.23,0,0,0,.19,1.75,2.11,2.11,0,0,0,.49.91,1.35,1.35,0,0,0,.71.44.91.91,0,0,0,.78-.19,1.22,1.22,0,0,0,.43-.74,2.33,2.33,0,0,0,0-.91,8.28,8.28,0,0,0-.6-1.47,10.72,10.72,0,0,1-.85-2.12,2.87,2.87,0,0,1,0-1.13,2.53,2.53,0,0,1,.95-1.61,2.22,2.22,0,0,1,1.85-.36,4.76,4.76,0,0,1,1.16.44,2.1,2.1,0,0,0,.54.22.57.57,0,0,0,.55-.22Z"/><path class="cls-1" d="M181.82,58.37l2.69,0,.47.1L184.29,60a7.14,7.14,0,0,1,1.61-1A2.14,2.14,0,0,1,187,59a1.27,1.27,0,0,1,1,.94,3.43,3.43,0,0,1,0,1.78,8.17,8.17,0,0,1-2.62,4.52A3.88,3.88,0,0,1,182,67.4a1.6,1.6,0,0,1-.47-.17,3.41,3.41,0,0,1-.51-.42l-.78,1.62a6.92,6.92,0,0,0-.53,1.38.7.7,0,0,0,.07.52,1.69,1.69,0,0,0,.73.47l-.14.34-4.19-.92.15-.34a1.12,1.12,0,0,0,.92-.2,4.2,4.2,0,0,0,1-1.47l3.66-7.61a7,7,0,0,0,.49-1.22.52.52,0,0,0,0-.28.3.3,0,0,0-.15-.2,1.85,1.85,0,0,0-.55-.17Zm-.39,7.6a2,2,0,0,0,.28.71.64.64,0,0,0,.4.26,1,1,0,0,0,.52-.06,2.85,2.85,0,0,0,.74-.55,6.61,6.61,0,0,0,1-1.15,10.13,10.13,0,0,0,.91-1.68,10.59,10.59,0,0,0,.62-1.88,2.23,2.23,0,0,0,0-1.12.62.62,0,0,0-.45-.44.88.88,0,0,0-.55.06,4,4,0,0,0-1,.74Z"/><path class="cls-1" d="M193.11,60.42l-3.24,6.36a4.86,4.86,0,0,0-.32.72.31.31,0,0,0,0,.21.19.19,0,0,0,.13.13.38.38,0,0,0,.3-.08,5.84,5.84,0,0,0,1.14-1.06l.22.25c-1.19,1.47-2.22,2.1-3.1,1.88a1,1,0,0,1-.71-.54,1.33,1.33,0,0,1-.09-1,4.7,4.7,0,0,1,.35-.86L190,62.21a4,4,0,0,0,.4-1,.52.52,0,0,0-.05-.4.57.57,0,0,0-.37-.26l-.28-.06.2-.35,2.75.12Zm.6-4.48a1,1,0,0,1,.7.61,1.5,1.5,0,0,1,.09,1.07,1.58,1.58,0,0,1-.57.9,1,1,0,0,1-.91.21,1.06,1.06,0,0,1-.7-.6,1.7,1.7,0,0,1,.48-2A1.09,1.09,0,0,1,193.71,55.94Z"/><path class="cls-1" d="M198.72,59.44l-1.3,2.4,1,.27-.55,1-1-.27L194.13,68a3.69,3.69,0,0,0-.33.74.36.36,0,0,0,0,.23c0,.08.07.12.13.13a.37.37,0,0,0,.31-.06,5,5,0,0,0,1.13-.93l.21.28A4.87,4.87,0,0,1,194,69.73a2.05,2.05,0,0,1-1.4.19,1.07,1.07,0,0,1-.73-.54,1.25,1.25,0,0,1-.06-.9,5.81,5.81,0,0,1,.57-1.35l2.58-4.78-1.05-.28.34-.66a6.7,6.7,0,0,0,1.94-.6,11.43,11.43,0,0,0,2.14-1.48Z"/><path class="cls-1" d="M205.57,64.08l-3.33,5.79-.38.71-.09.2a.3.3,0,0,0,0,.21.21.21,0,0,0,.11.13c.11,0,.28,0,.53-.17a8,8,0,0,0,.81-.7l.22.25a5.55,5.55,0,0,1-1.69,1.43,2,2,0,0,1-1.49.16.81.81,0,0,1-.58-.47,1.12,1.12,0,0,1,0-.77,7.91,7.91,0,0,1,.65-1.28l.41-.7A9.71,9.71,0,0,1,198.23,71a1.56,1.56,0,0,1-1.14.15,1.11,1.11,0,0,1-.81-1,4.15,4.15,0,0,1,.17-1.69A8.77,8.77,0,0,1,198,65.62a7.77,7.77,0,0,1,2.54-2.24,2.6,2.6,0,0,1,1.91-.37.92.92,0,0,1,.59.51,2.43,2.43,0,0,1,.06,1.23l.61-1.07Zm-3,1a2.41,2.41,0,0,0,.13-1.15.41.41,0,0,0-.3-.34.68.68,0,0,0-.57.13,7.84,7.84,0,0,0-1.81,2,9.9,9.9,0,0,0-1.5,2.89,1.42,1.42,0,0,0-.08.75c0,.18.12.28.23.31a1,1,0,0,0,.84-.28,10,10,0,0,0,3.06-4.34Z"/><path class="cls-1" d="M212.43,61.51l-6,9.59a7.21,7.21,0,0,0-.6,1.09.28.28,0,0,0,0,.22.17.17,0,0,0,.11.13.37.37,0,0,0,.3,0,5.34,5.34,0,0,0,1.21-1l.24.26a7.06,7.06,0,0,1-2.08,1.54,1.6,1.6,0,0,1-1.15.07,1.06,1.06,0,0,1-.68-.59,1.14,1.14,0,0,1,0-.89,5.21,5.21,0,0,1,.54-1L209.2,63a4.92,4.92,0,0,0,.48-.88.43.43,0,0,0,0-.4.89.89,0,0,0-.59-.37l.2-.33,2.73.3Z"/><path class="cls-2" d="M15,80.5l14.42,5.75s81.83-48.83,186.17-7.5C215.54,78.75,134.29,35.83,15,80.5Z"/><path class="cls-2" d="M68.2,26.5c8.31-5.27,41.15-23,41.15-23L150.56,25,107.45,0S68.2,20.5,58,27c37.74,13.59,64.9,10.76,80.5,6.4C122.42,36.07,97.37,37,68.2,26.5Z"/><path class="cls-2" d="M91,34.25s2.11,9.27,13.3,11.63c0,0-9.8-4.19-8.86-10.63Z"/><path class="cls-3" d="M118,33.13a.25.25,0,0,1-.25-.24l-.57-8.75L116,14.67l-.54,9.59a.25.25,0,0,1-.25.24h-1.53l-2.3,3.76a.33.33,0,0,1-.23.12.26.26,0,0,1-.21-.14l-1.8-3.49h-4.93a.26.26,0,0,1-.2-.1l-1.32-1.82-1.44,2.42a.23.23,0,0,1-.21.13H99.55l-.85,6.4a.24.24,0,0,1-.25.22h0a.24.24,0,0,1-.24-.22l-.85-6.37-.56-8.82-1,12.68a.25.25,0,0,1-.22.23.26.26,0,0,1-.27-.18l-1.07-3.44H91.52a.25.25,0,0,1-.25-.25V23.42L88.88,25.8a.25.25,0,0,1-.18.08H80.45v-.5H88.6l2.74-2.74a.23.23,0,0,1,.27-.06.25.25,0,0,1,.16.23v2.57h2.68a.25.25,0,0,1,.24.17l.74,2.38L96.58,13a.25.25,0,0,1,.25-.23c.12,0,.24.1.25.23l.77,12.38.6,4.49.63-4.76a.25.25,0,0,1,.25-.21h1.61l1.55-2.63a.24.24,0,0,1,.2-.12.23.23,0,0,1,.22.1l1.47,2h5a.24.24,0,0,1,.22.14l1.67,3.23,2.15-3.5a.24.24,0,0,1,.21-.12H115l.69-12.14a.25.25,0,0,1,.25-.23.25.25,0,0,1,.25.21l1.5,12.25.29,4.46.21-4.19a.26.26,0,0,1,.23-.23l3.09-.24L123,19.55a.24.24,0,0,1,.23-.17.27.27,0,0,1,.24.15l1.56,4h11.33V24h-11.5a.24.24,0,0,1-.23-.16l-1.38-3.48-1.28,3.84a.23.23,0,0,1-.22.17l-3,.24-.42,8.28A.26.26,0,0,1,118,33.13Z"/><path class="cls-2" d="M107.19,15.07a1.19,1.19,0,0,0,.72,0,.68.68,0,0,0,.48-.61.43.43,0,0,0-.08-.24,1.33,1.33,0,0,0-.17-.16.89.89,0,0,1,.39-1.51,2.16,2.16,0,0,1,1.83.31L112,14.05a10.77,10.77,0,0,0,2.06,1.18l.23.12a.31.31,0,0,1-.25.18,1.56,1.56,0,0,1-.88-.09,8.7,8.7,0,0,1-2.26-1.37,3.6,3.6,0,0,1-.37-.41.75.75,0,0,0-.15-.09.83.83,0,0,0,0,.15,1.25,1.25,0,0,1-.74,1.27,1.16,1.16,0,0,1-.61.08.42.42,0,0,0-.15,0,.67.67,0,0,0,.06.15.28.28,0,0,1,0,.29,1.29,1.29,0,0,1-1,.75,1.2,1.2,0,0,1-.7-.08s-.09-.07-.09-.11C107.18,15.77,107.19,15.43,107.19,15.07Z"/><path class="cls-2" d="M106.08,15.08v1a.15.15,0,0,1-.07.11,1.3,1.3,0,0,1-1.68-.62.28.28,0,0,1,0-.37.16.16,0,0,0,0-.12s-.07,0-.11,0a1.32,1.32,0,0,1-.65-.08,1.25,1.25,0,0,1-.73-1.25.34.34,0,0,0,0-.1c0-.09-.06-.09-.12-.06l0,0a4.19,4.19,0,0,1-1.47,1.21,10.88,10.88,0,0,1-1.22.64,1.34,1.34,0,0,1-.86.07,1.09,1.09,0,0,1-.29-.14l.11-.07A15.11,15.11,0,0,0,102,13.54a10.27,10.27,0,0,1,1.28-.82,1.9,1.9,0,0,1,1.51-.13.89.89,0,0,1,.37,1.51l-.13.12a.31.31,0,0,0-.1.4.76.76,0,0,0,.83.52Z"/><path class="cls-2" d="M106.53,20.24c-.15.09-.32.17-.47.28a.93.93,0,0,0-.43.61A.88.88,0,0,0,106,22a5.67,5.67,0,0,0,.76.52c.32.2.67.38,1,.59a1.44,1.44,0,0,1,.73,1.15,1.81,1.81,0,0,1-.2.91,2.54,2.54,0,0,1-.71.85l-.81-.56.32-.23a.87.87,0,0,0,.31-1.14,1.67,1.67,0,0,0-.44-.44c-.34-.25-.7-.47-1-.71s-.43-.3-.63-.46a1.66,1.66,0,0,1-.49-1.89,2,2,0,0,1,.73-.83.12.12,0,0,1,.1,0Z"/><path class="cls-2" d="M106.69,22.49a3.17,3.17,0,0,0,.36-.23,2.56,2.56,0,0,0,.46-.47.83.83,0,0,0-.09-1.08,1.79,1.79,0,0,0-.64-.44c-.5-.22-1-.43-1.49-.67a2.63,2.63,0,0,1-.88-.71,1.09,1.09,0,0,1,.28-1.68,1.26,1.26,0,0,1,1.09-.08c.21.07.23.19.07.35a.85.85,0,0,1-.64.25.6.6,0,0,1-.39-.18.39.39,0,0,0-.11-.06.54.54,0,0,0,0,.11,1.15,1.15,0,0,0,.49,1.09,3.57,3.57,0,0,0,1.15.49,4.77,4.77,0,0,1,1.24.46,3.37,3.37,0,0,1,.58.41,1.57,1.57,0,0,1,.08,2.32,5.56,5.56,0,0,1-.65.53.15.15,0,0,1-.11,0Z"/><path class="cls-2" d="M106.58,23.51l-.43.36a.86.86,0,0,0,.1,1.4c.33.23.67.43,1,.66a1.52,1.52,0,0,1,.67.88,1.1,1.1,0,0,1-.28,1.1c-.15.16-.33.3-.51.46l-.42-.47.22-.25a.58.58,0,0,0-.17-1c-.31-.19-.63-.36-.92-.57a2.29,2.29,0,0,1-1-1.42,1.31,1.31,0,0,1,.33-1.21,5.4,5.4,0,0,1,.52-.43.11.11,0,0,1,.11,0Z"/><path class="cls-2" d="M106.2,14.07h.88v.15c0,1.6-.08,3.2-.11,4.8,0,.09,0,.13-.11.15s-.18.06-.26,0c-.3-.05-.29-.05-.3-.36,0-1.31-.07-2.63-.1-3.94Z"/><path class="cls-2" d="M107.37,30.06c0-.18,0-.38,0-.57a.72.72,0,0,0-.31-.53,6,6,0,0,0-.59-.39,4.07,4.07,0,0,1-.85-.63,1.19,1.19,0,0,1,.12-1.79l.78.49c-.06.05-.13.09-.19.15a.51.51,0,0,0-.11.73,4,4,0,0,0,.43.49c.21.22.44.42.65.64A1,1,0,0,1,107.37,30.06Z"/><path class="cls-2" d="M106.81,19.26c.35-.14.76-.28,1.13-.46a1.1,1.1,0,0,0,.65-.84,1.7,1.7,0,0,0,0-.39.14.14,0,0,0,0-.08.18.18,0,0,0-.09,0,.73.73,0,0,1-1.11-.14.13.13,0,0,1,.05-.21.64.64,0,0,1,.26-.1,1.16,1.16,0,0,1,1.43.79,1,1,0,0,1-.13.86,2.77,2.77,0,0,1-1,.87.36.36,0,0,1-.43,0C107.31,19.46,107,19.36,106.81,19.26Z"/><path class="cls-2" d="M106.63,12.46a.7.7,0,1,1-.7.7A.7.7,0,0,1,106.63,12.46Z"/><path class="cls-2" d="M102.64,14.13c.06.16.12.3.17.45a.17.17,0,0,1,0,.15,7.26,7.26,0,0,1-1.69,1.11,1.32,1.32,0,0,1-.71.05s-.1-.05-.15-.08.08-.08.12-.09a8,8,0,0,0,2-1.35l.24-.21Z"/><path class="cls-2" d="M110.63,14.12l.17.12a9.75,9.75,0,0,0,1.59,1.2c.18.1.37.18.56.28a.87.87,0,0,1,.1.08s-.08.08-.12.09a1.33,1.33,0,0,1-.79-.08,7.24,7.24,0,0,1-1.61-1.06c-.08-.07-.11-.13,0-.23A3.06,3.06,0,0,0,110.63,14.12Z"/><path class="cls-2" d="M106.89,21.35c0,.3,0,.59,0,.89,0,.12-.2.23-.32.19a.28.28,0,0,1-.18-.31c0-.52,0-1.05,0-1.57,0-.06,0-.15,0-.17a.56.56,0,0,1,.28-.1c.2,0,.27.11.26.32v.75Z"/><path class="cls-2" d="M101.26,16.14l.11-.08a5.76,5.76,0,0,0,1.46-1.14c.07-.07.12-.08.2,0a3.11,3.11,0,0,0,.28.23v0a5.59,5.59,0,0,1-1.14.86,1.18,1.18,0,0,1-.86.13Z"/><path class="cls-2" d="M112,16.16a1.29,1.29,0,0,1-.89-.1,5.89,5.89,0,0,1-1.17-.9l.36-.3s.07,0,.09,0a6.25,6.25,0,0,0,1.56,1.2Z"/><path class="cls-2" d="M106.63,23.56c.19.06.23.19.21.37q0,.63,0,1.26c0,.14,0,.23-.17.27a.23.23,0,0,1-.18-.27c0-.42,0-.84,0-1.27A.31.31,0,0,1,106.63,23.56Z"/><path class="cls-2" d="M102.42,16.26s.11,0,.14-.08l.89-.88a.24.24,0,0,1,.1-.05l.45.09a1.14,1.14,0,0,1-.12.22,2.52,2.52,0,0,1-.91.74A.5.5,0,0,1,102.42,16.26Z"/><path class="cls-2" d="M110.82,16.31a.54.54,0,0,1-.48,0,2.4,2.4,0,0,1-1-.78.84.84,0,0,1-.09-.19l.46-.09s.06,0,.08,0l.93.93S110.78,16.27,110.82,16.31Z"/><path class="cls-2" d="M106.59,28.67a1,1,0,0,0-.64,1.44,1,1,0,0,1-.11-1.37,1.66,1.66,0,0,1,.27-.26s.09,0,.12,0Z"/><path class="cls-2" d="M106.62,31.67c0-.13,0-.26,0-.38l-.06-2.43s0-.07,0-.09a.2.2,0,0,1,.09-.07s.06,0,.08.08,0,0,0,.07c0,.91,0,1.82-.07,2.73,0,0,0,.06,0,.09Z"/><path class="cls-2" d="M106.66,27.9a.27.27,0,0,1-.15-.26c0-.26,0-.52,0-.78a.16.16,0,0,1,.14-.19c.07,0,.15.09.14.2,0,.27,0,.55,0,.82A1,1,0,0,1,106.66,27.9Z"/></g></g></svg>