<svg xmlns="http://www.w3.org/2000/svg" viewBox="0 0 137.18 137.18"><defs><style>.cls-1{fill:#fff;}.cls-2{fill:#db5f43;}.cls-3{fill:none;}.cls-4{fill:#3baae0;}.cls-5{fill:#824e88;}.cls-6{fill:#56b747;}</style></defs><title>Asset 8</title><g id="Layer_2" data-name="Layer 2"><g id="Layer_1-2" data-name="Layer 1"><circle class="cls-1" cx="68.59" cy="68.59" r="67.68"/><path class="cls-2" d="M68.59,0a68.59,68.59,0,1,0,68.59,68.59A68.59,68.59,0,0,0,68.59,0Zm0,136.27a67.68,67.68,0,1,1,67.68-67.68A67.68,67.68,0,0,1,68.59,136.27Z"/><path class="cls-2" d="M68.59,21.44a47.15,47.15,0,1,0,47.15,47.15A47.15,47.15,0,0,0,68.59,21.44Zm0,93.68a46.53,46.53,0,1,1,46.53-46.53A46.53,46.53,0,0,1,68.59,115.12Z"/><path class="cls-1" d="M46,39.8"/><path class="cls-3" d="M46,39.8"/><path class="cls-4" d="M87,81.92l-.15,0c-.56-.06-13.12-1.32-15.23-1.62a6.62,6.62,0,0,1-6.16,1.38,9.45,9.45,0,0,1-2.87-1.29l-12.24.93-6.84-3v-39l4.82,0v.93l-3.89,0V77.7l6.08,2.66,12.36-.94.14.11c.18.13,4.44,3.26,8.16-.08l.17-.15.22,0c1.05.19,13.71,1.47,15.24,1.63L90.1,79V40.66l-2.77,0v-.93l3.69,0V79.57Z"/><path class="cls-4" d="M67.53,78.47a4.75,4.75,0,0,1-3.53-2c-2.12.3-12.58,1.15-17.28,1.53l-.5,0V42.59L49.58,36l.14-.07c.35-.16,8.56-4,13.95-1.48a7.09,7.09,0,0,1,3.6,3.87,7.77,7.77,0,0,1,3.3-3.61c3.4-1.92,8.36-1.62,14.74.89l.15.06.08.14c1.35,2.29,3,6,3,6.2l0,.09V78L70.88,76.53a4.58,4.58,0,0,1-3.17,1.94Zm-3.19-3.09.21.27c1,1.31,2.08,1.94,3.1,1.89a3.88,3.88,0,0,0,2.6-1.74l.15-.24L87.7,77V42.27c-.25-.57-1.68-3.81-2.88-5.87-6-2.35-10.66-2.65-13.78-.9a6.85,6.85,0,0,0-3.32,4.36L67.35,42l-.53-2.09a6.56,6.56,0,0,0-3.55-4.61c-4.63-2.17-11.91.92-13,1.41l-3.11,6.11V77c6.6-.53,16.17-1.33,16.89-1.5Zm-.32.13h0Z"/><path class="cls-4" d="M67.73,78.07l-.92-.1c0-.23,0-.51,0-.8s0-.82.07-1.27A5.9,5.9,0,0,0,65,71.48c-4.27-3.73-14.29-1-14.39-.93l-.58.16v-.6l-.58-33.76.93,0,.57,33.17c2.29-.56,10.59-2.28,14.67,1.27a6.19,6.19,0,0,1,1.8,2.67,6.29,6.29,0,0,1,2.08-2.92c2.78-2.18,7.72-2.55,15.09-1.12-.1-1.33-.2-5.15-.11-16.88.06-8.24.19-16.44.2-16.52h.93c-.21,12.93-.38,32.57,0,33.79l.33.8L85,70.45c-7.34-1.5-12.38-1.23-15,.81a6.23,6.23,0,0,0-2.22,4.64A12.56,12.56,0,0,1,67.73,78.07Z"/><line class="cls-1" x1="67.27" y1="39.78" x2="67.27" y2="73.96"/><rect class="cls-4" x="66.81" y="39.78" width="0.93" height="34.18"/><line class="cls-1" x1="50.5" y1="70.1" x2="46.69" y2="77.5"/><rect class="cls-4" x="44.43" y="73.34" width="8.32" height="0.93" transform="translate(-39.26 83.23) rotate(-62.77)"/><line class="cls-1" x1="85.14" y1="70" x2="88.16" y2="77.5"/><rect class="cls-4" x="86.19" y="69.71" width="0.93" height="8.09" transform="translate(-21.28 37.71) rotate(-21.94)"/><path class="cls-4" d="M64.36,38.09a5.34,5.34,0,0,1-1-.09l-.09,0,0-.08a3,3,0,0,0-3.37-1.64l-.15,0c-2.36,1.23-3.17.69-3.89.21l-.34-.22c-1.22-.22-3.15,1.39-3.17,1.4l-.26-.3c.09-.07,2.12-1.77,3.53-1.48h.06c.14.08.27.16.4.25.66.44,1.34.89,3.52-.25l0,0h0l.18,0a3.37,3.37,0,0,1,3.71,1.75,4.31,4.31,0,0,0,1.62,0l.1.38A3.87,3.87,0,0,1,64.36,38.09Z"/><path class="cls-4" d="M64.36,40a5.34,5.34,0,0,1-1-.09l-.09,0,0-.08a3,3,0,0,0-3.37-1.64l-.15,0c-2.36,1.23-3.17.69-3.89.21l-.34-.22c-1.22-.22-3.15,1.39-3.17,1.4l-.26-.3c.09-.07,2.12-1.77,3.53-1.48h.06c.14.08.27.16.4.25.66.44,1.34.89,3.52-.25l0,0h0l.18,0a3.37,3.37,0,0,1,3.71,1.75,4.31,4.31,0,0,0,1.62,0l.1.38A3.87,3.87,0,0,1,64.36,40Z"/><path class="cls-4" d="M64.36,41.84a5.34,5.34,0,0,1-1-.09l-.09,0,0-.08A3,3,0,0,0,59.88,40l-.15,0c-2.36,1.23-3.17.69-3.89.21L55.5,40c-1.22-.22-3.15,1.39-3.17,1.4l-.26-.3c.09-.07,2.12-1.77,3.53-1.48h.05c.14.08.27.16.4.25.66.44,1.34.89,3.52-.25l0,0h0l.18,0a3.37,3.37,0,0,1,3.71,1.75,4.31,4.31,0,0,0,1.62,0l.1.38A3.87,3.87,0,0,1,64.36,41.84Z"/><path class="cls-4" d="M64.36,43.71a5.34,5.34,0,0,1-1-.09l-.09,0,0-.08a3,3,0,0,0-3.37-1.64l-.15,0c-2.36,1.23-3.17.69-3.89.21l-.34-.22c-1.22-.22-3.15,1.39-3.17,1.4l-.26-.3c.09-.07,2.12-1.77,3.53-1.48h.05c.14.08.27.16.4.25.66.44,1.34.89,3.52-.25l0,0h0l.18,0a3.37,3.37,0,0,1,3.71,1.75,4.31,4.31,0,0,0,1.62,0l.1.38A3.87,3.87,0,0,1,64.36,43.71Z"/><path class="cls-4" d="M64.36,45.59a5.34,5.34,0,0,1-1-.09l-.09,0,0-.08a3,3,0,0,0-3.37-1.64l-.15,0c-2.36,1.23-3.17.69-3.89.21l-.34-.22c-1.22-.22-3.15,1.39-3.17,1.4l-.26-.3c.09-.07,2.12-1.77,3.53-1.48h.05c.14.08.27.16.4.25.66.44,1.34.89,3.52-.25l0,0h0l.18,0a3.37,3.37,0,0,1,3.71,1.75,4.31,4.31,0,0,0,1.62,0l.1.38A3.87,3.87,0,0,1,64.36,45.59Z"/><path class="cls-4" d="M64.36,47.47a5.35,5.35,0,0,1-1-.09l-.09,0,0-.08a3,3,0,0,0-3.37-1.64l-.15,0c-2.36,1.23-3.17.69-3.89.21l-.34-.22c-1.22-.22-3.15,1.39-3.17,1.4l-.26-.3c.09-.07,2.12-1.77,3.53-1.48h.05c.14.08.27.16.4.25.66.44,1.34.89,3.52-.25l0,0h0l.18,0A3.37,3.37,0,0,1,63.55,47a4.29,4.29,0,0,0,1.62,0l.1.38A3.87,3.87,0,0,1,64.36,47.47Z"/><path class="cls-4" d="M64.36,49.34a5.35,5.35,0,0,1-1-.09l-.09,0,0-.08a3,3,0,0,0-3.37-1.64l-.15,0c-2.36,1.23-3.17.69-3.89.21l-.34-.22c-1.22-.22-3.15,1.39-3.17,1.4l-.26-.3c.09-.07,2.12-1.77,3.53-1.48h.05c.14.08.27.16.4.25.66.44,1.34.89,3.52-.25l0,0h0l.18,0a3.37,3.37,0,0,1,3.71,1.75,4.29,4.29,0,0,0,1.62,0l.1.38A3.87,3.87,0,0,1,64.36,49.34Z"/><path class="cls-4" d="M64.36,51.22a5.35,5.35,0,0,1-1-.09l-.09,0,0-.08a3,3,0,0,0-3.37-1.64l-.15,0c-2.36,1.23-3.17.69-3.89.21l-.34-.22c-1.22-.22-3.15,1.39-3.17,1.4l-.26-.3c.09-.07,2.12-1.77,3.53-1.48h.05c.14.08.27.16.4.25.66.44,1.34.89,3.52-.25l0,0h0l.18,0a3.37,3.37,0,0,1,3.71,1.75,4.29,4.29,0,0,0,1.62,0l.1.38A3.87,3.87,0,0,1,64.36,51.22Z"/><path class="cls-4" d="M64.36,53.1a5.35,5.35,0,0,1-1-.09l-.09,0,0-.08a3,3,0,0,0-3.37-1.64l-.15,0c-2.36,1.23-3.17.69-3.89.21l-.34-.22c-1.22-.22-3.15,1.39-3.17,1.4l-.26-.3c.09-.07,2.12-1.77,3.53-1.48h.05c.14.08.27.16.4.25.66.44,1.34.89,3.52-.25l0,0h0l.18,0a3.37,3.37,0,0,1,3.71,1.75,4.28,4.28,0,0,0,1.62,0l.1.38A3.87,3.87,0,0,1,64.36,53.1Z"/><path class="cls-4" d="M64.36,55a5.35,5.35,0,0,1-1-.09l-.09,0,0-.08a3,3,0,0,0-3.37-1.64l-.15,0c-2.36,1.23-3.17.69-3.89.21l-.34-.22c-1.22-.22-3.15,1.39-3.17,1.4l-.26-.3c.09-.07,2.12-1.77,3.53-1.48h.05c.14.08.27.16.4.25.66.44,1.34.89,3.52-.25l0,0h0l.18,0a3.37,3.37,0,0,1,3.71,1.75,4.29,4.29,0,0,0,1.62,0l.1.38A3.87,3.87,0,0,1,64.36,55Z"/><path class="cls-4" d="M64.36,56.85a5.34,5.34,0,0,1-1-.09l-.09,0,0-.08A3,3,0,0,0,59.88,55l-.15,0c-2.36,1.23-3.17.69-3.89.21L55.5,55c-1.22-.22-3.15,1.39-3.17,1.4l-.26-.3c.09-.07,2.12-1.77,3.53-1.48h.05c.14.08.27.16.4.25.66.44,1.34.89,3.52-.25l0,0h0l.18,0a3.37,3.37,0,0,1,3.71,1.75,4.31,4.31,0,0,0,1.62,0l.1.38A3.87,3.87,0,0,1,64.36,56.85Z"/><path class="cls-4" d="M64.36,58.73a5.34,5.34,0,0,1-1-.09l-.09,0,0-.08a3,3,0,0,0-3.37-1.64l-.15,0c-2.36,1.23-3.17.69-3.89.21l-.34-.22c-1.22-.22-3.15,1.39-3.17,1.4l-.26-.3c.09-.07,2.12-1.77,3.53-1.48h.05c.14.08.27.16.4.25.66.44,1.34.89,3.52-.25l0,0h0l.18,0a3.37,3.37,0,0,1,3.71,1.75,4.31,4.31,0,0,0,1.62,0l.1.38A3.87,3.87,0,0,1,64.36,58.73Z"/><path class="cls-4" d="M64.36,60.6a5.34,5.34,0,0,1-1-.09l-.09,0,0-.08a3,3,0,0,0-3.37-1.64l-.15,0c-2.36,1.23-3.17.69-3.89.21l-.34-.22c-1.22-.22-3.15,1.39-3.17,1.4l-.26-.3c.09-.07,2.12-1.77,3.53-1.48h.06c.14.08.27.16.4.25.66.44,1.34.89,3.52-.25l0,0h0l.18,0a3.37,3.37,0,0,1,3.71,1.75,4.31,4.31,0,0,0,1.62,0l.1.38A3.87,3.87,0,0,1,64.36,60.6Z"/><path class="cls-4" d="M64.36,62.48a5.34,5.34,0,0,1-1-.09l-.09,0,0-.08a3,3,0,0,0-3.37-1.64l-.15,0c-2.36,1.23-3.17.69-3.89.21l-.34-.22c-1.22-.22-3.15,1.39-3.17,1.4l-.26-.3c.09-.07,2.12-1.77,3.53-1.48h.06c.14.08.27.16.4.25.66.44,1.34.89,3.52-.25l0,0h0l.18,0A3.37,3.37,0,0,1,63.55,62a4.31,4.31,0,0,0,1.62,0l.1.38A3.87,3.87,0,0,1,64.36,62.48Z"/><path class="cls-4" d="M64.36,64.36a5.34,5.34,0,0,1-1-.09l-.09,0,0-.08a3,3,0,0,0-3.37-1.64l-.15,0c-2.36,1.23-3.17.69-3.89.21l-.34-.22c-1.22-.22-3.15,1.39-3.17,1.4l-.26-.3c.09-.07,2.12-1.77,3.53-1.48h.06c.14.08.27.16.4.25.66.44,1.34.89,3.52-.25l0,0h0l.18,0a3.37,3.37,0,0,1,3.71,1.75,4.31,4.31,0,0,0,1.62,0l.1.38A3.87,3.87,0,0,1,64.36,64.36Z"/><path class="cls-4" d="M64.36,66.23a5.34,5.34,0,0,1-1-.09l-.09,0,0-.08a3,3,0,0,0-3.37-1.64l-.15,0c-2.36,1.23-3.17.69-3.89.21l-.34-.22c-1.22-.22-3.15,1.39-3.17,1.4l-.26-.3c.09-.07,2.12-1.77,3.53-1.48h.06c.14.08.27.16.4.25.66.44,1.34.89,3.52-.25l0,0h0l.18,0a3.37,3.37,0,0,1,3.71,1.75,4.31,4.31,0,0,0,1.62,0l.1.38A3.87,3.87,0,0,1,64.36,66.23Z"/><path class="cls-4" d="M64.36,68.11a5.34,5.34,0,0,1-1-.09l-.09,0,0-.08a3,3,0,0,0-3.37-1.64l-.15,0c-2.36,1.23-3.17.69-3.89.21l-.34-.22c-1.22-.22-3.15,1.39-3.17,1.4l-.26-.3c.09-.07,2.12-1.77,3.53-1.48h.06c.14.08.27.16.4.25.66.44,1.34.89,3.52-.25l0,0h0l.18,0a3.37,3.37,0,0,1,3.71,1.75,4.31,4.31,0,0,0,1.62,0l.1.38A3.87,3.87,0,0,1,64.36,68.11Z"/><path class="cls-4" d="M70.85,38.09a3.87,3.87,0,0,1-.91-.09l.1-.38a4.32,4.32,0,0,0,1.62,0,3.37,3.37,0,0,1,3.71-1.75l.18,0h0l0,0c2.18,1.14,2.86.69,3.52.25.13-.09.26-.17.4-.25h.06C81,35.61,83,37.3,83.13,37.37l-.26.3s-1.94-1.62-3.17-1.4l-.34.22c-.72.48-1.53,1-3.89-.21l-.15,0A3,3,0,0,0,72,37.9l0,.08-.09,0A5.34,5.34,0,0,1,70.85,38.09Z"/><path class="cls-4" d="M70.85,40a3.87,3.87,0,0,1-.91-.09l.1-.38a4.32,4.32,0,0,0,1.62,0,3.37,3.37,0,0,1,3.71-1.75l.18,0h0l0,0c2.18,1.14,2.86.69,3.52.25.13-.08.26-.17.4-.25h.06c1.41-.28,3.44,1.41,3.53,1.48l-.26.3s-1.94-1.62-3.17-1.4l-.34.22c-.72.48-1.53,1-3.89-.21l-.15,0A3,3,0,0,0,72,39.78l0,.08-.09,0A5.34,5.34,0,0,1,70.85,40Z"/><path class="cls-4" d="M70.85,41.84a3.87,3.87,0,0,1-.91-.09l.1-.38a4.32,4.32,0,0,0,1.62,0,3.37,3.37,0,0,1,3.71-1.75l.18,0h0l0,0c2.17,1.14,2.86.69,3.52.25.13-.09.26-.17.4-.25h.05c1.41-.28,3.44,1.41,3.53,1.48l-.26.3s-1.94-1.62-3.17-1.4l-.34.22c-.72.48-1.53,1-3.89-.21l-.15,0A3,3,0,0,0,72,41.65l0,.08-.09,0A5.34,5.34,0,0,1,70.85,41.84Z"/><path class="cls-4" d="M70.85,43.71a3.87,3.87,0,0,1-.91-.09l.1-.38a4.32,4.32,0,0,0,1.62,0,3.37,3.37,0,0,1,3.71-1.75l.18,0h0l0,0c2.17,1.14,2.86.69,3.52.25.13-.09.26-.17.4-.25h.05C81,41.24,83,42.93,83.13,43l-.26.3s-1.94-1.62-3.17-1.4l-.34.22c-.72.48-1.53,1-3.89-.21l-.15,0A3,3,0,0,0,72,43.53l0,.08-.09,0A5.34,5.34,0,0,1,70.85,43.71Z"/><path class="cls-4" d="M70.85,45.59a3.87,3.87,0,0,1-.91-.09l.1-.38a4.32,4.32,0,0,0,1.62,0,3.37,3.37,0,0,1,3.71-1.75l.18,0h0l0,0c2.17,1.14,2.86.69,3.52.25.13-.09.26-.17.4-.25h.05c1.41-.28,3.44,1.41,3.53,1.48l-.26.3s-1.94-1.62-3.17-1.4l-.34.22c-.72.48-1.53,1-3.89-.21l-.15,0A3,3,0,0,0,72,45.41l0,.08-.09,0A5.34,5.34,0,0,1,70.85,45.59Z"/><path class="cls-4" d="M70.85,47.47a3.87,3.87,0,0,1-.91-.09L70,47a4.33,4.33,0,0,0,1.62,0,3.37,3.37,0,0,1,3.71-1.75l.18,0h0l0,0c2.17,1.14,2.86.69,3.52.25.13-.09.26-.17.4-.25h.05C81,45,83,46.68,83.13,46.76l-.26.3s-1.94-1.62-3.17-1.4l-.34.22c-.72.48-1.53,1-3.89-.21l-.15,0A3,3,0,0,0,72,47.28l0,.08-.09,0A5.35,5.35,0,0,1,70.85,47.47Z"/><path class="cls-4" d="M70.85,49.34a3.87,3.87,0,0,1-.91-.09l.1-.38a4.33,4.33,0,0,0,1.62,0,3.37,3.37,0,0,1,3.71-1.75l.18,0h0l0,0c2.17,1.14,2.86.69,3.52.25.13-.09.26-.17.4-.25h.05c1.41-.28,3.44,1.41,3.53,1.48l-.26.3s-1.94-1.62-3.17-1.4l-.34.22c-.72.48-1.53,1-3.89-.21l-.15,0A3,3,0,0,0,72,49.16l0,.08-.09,0A5.35,5.35,0,0,1,70.85,49.34Z"/><path class="cls-4" d="M70.85,51.22a3.87,3.87,0,0,1-.91-.09l.1-.38a4.33,4.33,0,0,0,1.62,0A3.37,3.37,0,0,1,75.38,49l.18,0h0l0,0c2.17,1.14,2.86.69,3.52.25.13-.09.26-.17.4-.25h.05c1.41-.28,3.44,1.41,3.53,1.48l-.26.3s-1.94-1.62-3.17-1.4l-.34.22c-.72.48-1.53,1-3.89-.21l-.15,0A3,3,0,0,0,72,51l0,.08-.09,0A5.35,5.35,0,0,1,70.85,51.22Z"/><path class="cls-4" d="M70.85,53.1a3.87,3.87,0,0,1-.91-.09l.1-.38a4.33,4.33,0,0,0,1.62,0,3.37,3.37,0,0,1,3.71-1.75l.18,0h0l0,0c2.17,1.14,2.86.69,3.52.25.13-.09.26-.17.4-.25h.05c1.41-.28,3.44,1.41,3.53,1.48l-.26.3s-1.94-1.62-3.17-1.4l-.34.22c-.72.48-1.53,1-3.89-.21l-.15,0A3,3,0,0,0,72,52.91l0,.08-.09,0A5.35,5.35,0,0,1,70.85,53.1Z"/><path class="cls-4" d="M70.85,55a3.87,3.87,0,0,1-.91-.09l.1-.38a4.33,4.33,0,0,0,1.62,0,3.37,3.37,0,0,1,3.71-1.75l.18,0h0l0,0c2.17,1.14,2.86.69,3.52.25.13-.09.26-.17.4-.25h.05C81,52.5,83,54.19,83.13,54.26l-.26.3s-1.94-1.62-3.17-1.4l-.34.22c-.72.48-1.53,1-3.89-.21l-.15,0A3,3,0,0,0,72,54.79l0,.08-.09,0A5.35,5.35,0,0,1,70.85,55Z"/><path class="cls-4" d="M70.85,56.85a3.87,3.87,0,0,1-.91-.09l.1-.38a4.32,4.32,0,0,0,1.62,0,3.37,3.37,0,0,1,3.71-1.75l.18,0h0l0,0c2.17,1.14,2.86.69,3.52.25.13-.09.26-.17.4-.25h.05c1.41-.28,3.44,1.41,3.53,1.48l-.26.3s-1.94-1.62-3.17-1.4l-.34.22c-.72.48-1.53,1-3.89-.21l-.15,0A3,3,0,0,0,72,56.67l0,.08-.09,0A5.34,5.34,0,0,1,70.85,56.85Z"/><path class="cls-4" d="M70.85,58.73a3.87,3.87,0,0,1-.91-.09l.1-.38a4.32,4.32,0,0,0,1.62,0,3.37,3.37,0,0,1,3.71-1.75l.18,0h0l0,0c2.17,1.14,2.86.69,3.52.25.13-.09.26-.17.4-.25h.05C81,56.25,83,57.94,83.13,58l-.26.3s-1.94-1.62-3.17-1.4l-.34.22c-.72.48-1.53,1-3.89-.21l-.15,0A3,3,0,0,0,72,58.54l0,.08-.09,0A5.34,5.34,0,0,1,70.85,58.73Z"/><path class="cls-4" d="M70.85,60.6a3.87,3.87,0,0,1-.91-.09l.1-.38a4.32,4.32,0,0,0,1.62,0,3.37,3.37,0,0,1,3.71-1.75l.18,0h0l0,0c2.18,1.14,2.86.69,3.52.25.13-.08.26-.17.4-.25h.06c1.41-.28,3.44,1.41,3.53,1.48l-.26.3s-1.94-1.62-3.17-1.4l-.34.22c-.72.48-1.53,1-3.89-.21l-.15,0A3,3,0,0,0,72,60.42l0,.08-.09,0A5.34,5.34,0,0,1,70.85,60.6Z"/><path class="cls-4" d="M70.85,62.48a3.87,3.87,0,0,1-.91-.09L70,62a4.32,4.32,0,0,0,1.62,0,3.37,3.37,0,0,1,3.71-1.75l.18,0h0l0,0c2.18,1.14,2.86.69,3.52.25.13-.08.26-.17.4-.25h.06C81,60,83,61.7,83.13,61.77l-.26.3s-1.94-1.62-3.17-1.4l-.34.22c-.72.48-1.53,1-3.89-.21l-.15,0A3,3,0,0,0,72,62.3l0,.08-.09,0A5.34,5.34,0,0,1,70.85,62.48Z"/><path class="cls-4" d="M70.85,64.36a3.87,3.87,0,0,1-.91-.09l.1-.38a4.32,4.32,0,0,0,1.62,0,3.37,3.37,0,0,1,3.71-1.75l.18,0h0l0,0c2.18,1.14,2.86.69,3.52.25.13-.08.26-.17.4-.25h.06c1.41-.28,3.44,1.41,3.53,1.48l-.26.3s-1.94-1.62-3.17-1.4l-.34.22c-.72.48-1.53,1-3.89-.21l-.15,0A3,3,0,0,0,72,64.17l0,.08-.09,0A5.34,5.34,0,0,1,70.85,64.36Z"/><path class="cls-4" d="M70.85,66.23a3.87,3.87,0,0,1-.91-.09l.1-.38a4.32,4.32,0,0,0,1.62,0A3.37,3.37,0,0,1,75.38,64l.18,0h0l0,0c2.18,1.14,2.86.69,3.52.25.13-.08.26-.17.4-.25h.06c1.41-.28,3.44,1.41,3.53,1.48l-.26.3s-1.94-1.62-3.17-1.4l-.34.22c-.72.48-1.53,1-3.89-.21l-.15,0A3,3,0,0,0,72,66l0,.08-.09,0A5.34,5.34,0,0,1,70.85,66.23Z"/><path class="cls-4" d="M70.85,68.11a3.87,3.87,0,0,1-.91-.09l.1-.38a4.32,4.32,0,0,0,1.62,0,3.37,3.37,0,0,1,3.71-1.75l.18,0h0l0,0c2.18,1.14,2.86.69,3.52.25.13-.08.26-.17.4-.25h.06C81,65.63,83,67.33,83.13,67.4l-.26.3s-1.94-1.62-3.17-1.4l-.34.22c-.72.48-1.53,1-3.89-.21l-.15,0A3,3,0,0,0,72,67.93l0,.08-.09,0A5.34,5.34,0,0,1,70.85,68.11Z"/><path class="cls-4" d="M45,86.64l-.91-.19c.74-3.44-4.48-8-4.54-8.08l.61-.7C40.37,77.87,45.82,82.67,45,86.64Z"/><path class="cls-4" d="M63,110.14l-.28-.88s3.4-1.1,4.44-3.55a3.94,3.94,0,0,0,.24-2.21,1.3,1.3,0,0,0-.9-1C64.19,102,52,99,49.2,98.91H49c-7.08,0-11.46-5.6-13.07-10.43v0a14.25,14.25,0,0,0-7.44-9.58l-1.93-.81,2.1-.08c.09,0,8.64-.31,11.44-.43,3.24-.41,6.64.51,10.13,2.71A38.37,38.37,0,0,1,58.73,88a79.14,79.14,0,0,1,8.91,13.34,5.45,5.45,0,0,1,.36,4.71C66.79,108.92,63.15,110.09,63,110.14ZM49.21,98h0c3.15.13,17.35,3.63,17.5,3.66h0a78.16,78.16,0,0,0-8.72-13C51.75,81.17,45.75,77.76,40.2,78.46h0c-2,.09-7.15.28-9.81.38a15.31,15.31,0,0,1,6.48,9.37c1.53,4.57,5.68,9.87,12.36,9.77Z"/><path class="cls-4" d="M63,101.65C55.33,95,34.26,78,29.21,79.11L29,78.2c1.59-.34,4.33.65,8.37,3a128.06,128.06,0,0,1,11.5,7.88c7.68,5.77,14.66,11.79,14.73,11.85Z"/><path class="cls-4" d="M42.38,88.53c-2.25,0-5-.32-6.8-1.6l.53-.76c3.22,2.26,10,1.16,10,1.15l.15.91A25.65,25.65,0,0,1,42.38,88.53Z"/><path class="cls-4" d="M51.86,92.48a32.54,32.54,0,0,0-4.71-12.91l.76-.53a32.91,32.91,0,0,1,4.86,13.32Z"/><rect class="cls-4" x="42.82" y="94.16" width="12.27" height="0.93"/><path class="cls-4" d="M59.61,98l-.92-.07c.29-3.67-1.41-10.19-1.43-10.26l.9-.24C58.22,87.68,59.92,94.15,59.61,98Z"/><path class="cls-4" d="M92.94,86.64c-.85-4,4.6-8.77,4.83-9l.61.7c-.05,0-5.27,4.64-4.54,8.08Z"/><path class="cls-4" d="M74.92,110.14c-.15,0-3.8-1.22-5-4.07a5.45,5.45,0,0,1,.36-4.71A79.15,79.15,0,0,1,79.18,88a38.38,38.38,0,0,1,8.51-7.76c3.48-2.21,6.89-3.12,10.13-2.71,2.8.12,10.64.52,10.72.53l1.87.1-1.7.79s-5,2.42-6.73,9.5v0C100.34,93.35,95.9,99,88.71,98.91c-2.76.12-15,3.06-17.3,3.63a1.3,1.3,0,0,0-.9,1,3.94,3.94,0,0,0,.25,2.21c1,2.46,4.4,3.54,4.44,3.55ZM96.27,78.37c-5.15,0-10.65,3.44-16.39,10.24a78.17,78.17,0,0,0-8.72,13h0c.14,0,14.35-3.53,17.49-3.66h.2c6.58,0,10.67-5.24,12.19-9.77A15.7,15.7,0,0,1,107,78.92c-2.44-.12-7.2-.36-9.24-.45h0A11.41,11.41,0,0,0,96.27,78.37Z"/><path class="cls-4" d="M74.89,101.65l-.6-.7c.07-.06,7-5.95,14.59-11.67,10.29-7.75,16.91-11.51,19.68-11.21l-.1.92c-1.73-.19-6.44,1.56-19,11C81.86,95.72,75,101.59,74.89,101.65Z"/><path class="cls-4" d="M95.53,88.53a25.64,25.64,0,0,1-3.92-.3l.15-.91c.07,0,6.81,1.12,10-1.15l.53.76C100.51,88.21,97.78,88.53,95.53,88.53Z"/><path class="cls-4" d="M86,92.48l-.92-.12A32.91,32.91,0,0,1,90,79l.76.53A32.6,32.6,0,0,0,86,92.48Z"/><rect class="cls-4" x="82.82" y="94.16" width="12.27" height="0.93"/><path class="cls-4" d="M78.3,98c-.31-3.82,1.39-10.3,1.46-10.57l.9.24c0,.07-1.72,6.59-1.43,10.26Z"/><circle class="cls-2" cx="18.55" cy="97.45" r="2.96"/><circle class="cls-2" cx="116.4" cy="97.45" r="2.96"/><path class="cls-5" d="M31.32,110.57l-1.56-1.13-3.94,5.46q0-.82,0-1.25t0-.47a4.79,4.79,0,0,0-.14-.91,3,3,0,0,0-.31-.76q-.48-.83-.52-.86a2.42,2.42,0,0,0-.67-.65l-.07-1.54a18.31,18.31,0,0,1,2.54.29,12.51,12.51,0,0,1,2.21.63l.26-.37-3.93-2.83-.19-1,6.07,4.38Zm-5.09,2.5,2-2.84a19.06,19.06,0,0,0-3.09-.61,6.71,6.71,0,0,1,.8,1.7A5.75,5.75,0,0,1,26.23,113.07Z"/><path class="cls-5" d="M26.23,117.86l-.1,0a1.73,1.73,0,0,1-.08-.36,6.58,6.58,0,0,0-.72-2.15l-.51.05h-.26a1.34,1.34,0,0,1-.73-.2,1.83,1.83,0,0,1-.68-.71.82.82,0,0,1,.06-.87.64.64,0,0,1,.3-.25,1.23,1.23,0,0,1,.45-.08,1.68,1.68,0,0,1,.47.06,1.55,1.55,0,0,1,.43.2,2.37,2.37,0,0,1,.67.86l0,0a.08.08,0,0,0,.09,0l.11-.12.26-.4.16-.34a1.29,1.29,0,0,1,.17.84,3.19,3.19,0,0,1-.4.72s.07.24.22.71q.11.35.16.54a1.43,1.43,0,0,1,0,.23,2.21,2.21,0,0,1,0,.66Q26.32,117.8,26.23,117.86ZM25,114.63v0l-.09-.28-.16-.13-.23-.16q-.54-.35-.77,0t.37.56a1.1,1.1,0,0,0,.47.15A.37.37,0,0,0,25,114.63Zm7-3.77L30.69,110l-.17-.9,1.22.8Z"/><path class="cls-5" d="M35.16,112.84a9.65,9.65,0,0,0-2.24-.33,3,3,0,0,0-1.85,1,4.93,4.93,0,0,0-.35.39,4.39,4.39,0,0,0-.29.42,1.8,1.8,0,0,0,0,2.23,2,2,0,0,0,.38.26h.05a.76.76,0,0,1,0-.83.55.55,0,0,1,.46-.22,1,1,0,0,1,.57.13,1,1,0,0,1,.43.54.73.73,0,0,1-.06.65.85.85,0,0,1-.72.41,1.51,1.51,0,0,1-.92-.24,2.3,2.3,0,0,1-1-2.62,4.64,4.64,0,0,1,.66-1.57A4.08,4.08,0,0,1,33,111.52l-2-1.22-.27-.94,4.11,2.53.14.47.09.32A1,1,0,0,1,35.16,112.84Z"/><path class="cls-5" d="M34.83,119a.65.65,0,0,1-.43.33.81.81,0,0,1-.59-.08,1.07,1.07,0,0,1-.45-.46.56.56,0,0,1,0-.57.7.7,0,0,1,.44-.34.71.71,0,0,1,.59,0,1.08,1.08,0,0,1,.48.49.62.62,0,0,1,.07.3A.65.65,0,0,1,34.83,119Zm6.3-3-1.71-.91-3.17,5.94-.16-.54a4.57,4.57,0,0,0-1-3,3.86,3.86,0,0,0-1-.76l-.35-1.47a9.91,9.91,0,0,1,2.74-.45.93.93,0,0,1-.2-.31,1.94,1.94,0,0,0-.26-.38l-.87-.76a3.23,3.23,0,0,1-.33-.32s-.2-.51-.54-1.48l6.55,3.5Zm-4.76,3.22,2.39-4.48-2.39-1.28a7.77,7.77,0,0,1,.84,2.22l-1,.21-.69.16a5.87,5.87,0,0,0-.64.2,4.63,4.63,0,0,1,.48.51,3.28,3.28,0,0,1,.33.49q.07.14.19.43l.28.72q0,.14.07.35Z"/><path class="cls-5" d="M46.63,118.37l-4.78-2.1L40,120.47a.56.56,0,0,0,0,.34.31.31,0,0,0,.19.24,1.87,1.87,0,0,0,1.18,0,3.78,3.78,0,0,0,.59-.19,2.35,2.35,0,0,0,.47-.27.63.63,0,0,0,.16-.18.76.76,0,0,0,.09-.19l-.22-.07a1,1,0,0,1-.51-.45.68.68,0,0,1,0-.61,1.12,1.12,0,0,1,.19-.3.73.73,0,0,1,.28-.19.86.86,0,0,1,.7,0,1.2,1.2,0,0,1,.74.77,1.54,1.54,0,0,1-.1,1.06,2.47,2.47,0,0,1-.28.5,3.19,3.19,0,0,1-.39.42,2,2,0,0,1-.27.2,3.17,3.17,0,0,1-.52.26,3.31,3.31,0,0,1-1.21.26,2.68,2.68,0,0,1-1.12-.23,1.15,1.15,0,0,1-.57-.82,1.47,1.47,0,0,1,0-1L41.18,116l-.85-.38-.39-.9,4.39,1.93.35.14.26.06a.67.67,0,0,0,.54-.2q.1-.23-.55-.65a6.86,6.86,0,0,0-.94-.51,5.61,5.61,0,0,0-.66-.22l-.38-.12-.26-.1a3.12,3.12,0,0,1-1.22-.9,1.18,1.18,0,0,1,.26-1.86l.21.08.26.13a.63.63,0,0,0-.57.35.28.28,0,0,0,0,.17,1.82,1.82,0,0,0,.08.25.82.82,0,0,0,.23.39l.24.16.23.11,2.22.81a1.05,1.05,0,0,1,.22.13l.36.26a2,2,0,0,1,.73,1,1.4,1.4,0,0,1-.13,1.14l.45.2Z"/><path class="cls-5" d="M58.87,122l-4.3-1.16-.15.55h.12a2.55,2.55,0,0,1,1.35,1,2.48,2.48,0,0,1,.47,2.27,1.33,1.33,0,0,1-.19.41,1.11,1.11,0,0,1-.34.32,1.1,1.1,0,0,1-.92.14,1.05,1.05,0,0,1-.57-.41.69.69,0,0,1-.15-.63.9.9,0,0,1,.58-.54l.44.06a1,1,0,0,1,.6.51l.09-.1a1.5,1.5,0,0,0-.32-1.31,2.23,2.23,0,0,0-1.23-.85H54.2l-1.38,5.12a2.15,2.15,0,0,1-.29-1,2.91,2.91,0,0,0-.37-1,4.44,4.44,0,0,0-2.29-2L49.21,122a11,11,0,0,1,2.1-.58,16.05,16.05,0,0,1,2.41-.23l.14-.52-4.28-1.15-.55-.83,9.32,2.51Zm-6.28,3.36.9-3.34a8.07,8.07,0,0,0-2.92.58,5.23,5.23,0,0,1,.71.57,4.27,4.27,0,0,1,.56.66A8,8,0,0,1,52.59,125.34Z"/><path class="cls-5" d="M62.26,122.34,61,122.14a1.15,1.15,0,0,0-.54.14,1.53,1.53,0,0,0-.44.36,3.08,3.08,0,0,0-.1.38q0,.21-.09.45a5.26,5.26,0,0,0,0,.56q0,.45,0,1.24,0,.27,0,.49t0,.43a3.68,3.68,0,0,1-.06.4q0,.2-.11.4l0,.07,0,.08a2.24,2.24,0,0,1-1,.88,2,2,0,0,1-1.3.3q-.32-.05-.28-.26t.28-.18l.24,0,.19,0a2.33,2.33,0,0,0,.55-.28l.24-.2a1.29,1.29,0,0,0,.18-.29,1.23,1.23,0,0,0,.11-.49l-.14-1.35a4.89,4.89,0,0,1,0-.62,3.74,3.74,0,0,1,0-.54,2.38,2.38,0,0,1,.51-1.13,9.88,9.88,0,0,1,.94-.92L58,121.62l-.58-.77,4.28.73Z"/><path class="cls-5" d="M65.07,122.63l-1.93-.23-.79,6.68-.67-.62.55-4.64a1.69,1.69,0,0,0,0-.57,1.35,1.35,0,0,0-.14-.38l0-.09-.07-.14a1.42,1.42,0,0,0-.15-.19l-.26-.25-.14,0-.65-.74.73.09a.6.6,0,0,1,.41.21,2.79,2.79,0,0,1,.33.55,4.6,4.6,0,0,1,.36,1.08l-.09-1.73.16-1.32.25.24q0,.24,0,.39a1.41,1.41,0,0,0,0,.22,1.12,1.12,0,0,0,.29.55l1.21.14Z"/><path class="cls-5" d="M70.66,122.89l-1.81-.09a1.25,1.25,0,0,1,.46,1,1.77,1.77,0,0,1-.42,1.1,1.33,1.33,0,0,1-1.13.45H67.3q-.35,0-1.35-1v.07a.7.7,0,0,1-.31.57,1.07,1.07,0,0,1-.69.18.84.84,0,0,1-.56-.23.69.69,0,0,1-.21-.52.71.71,0,0,1,.52-.73l.24-.06.34-.07a.44.44,0,0,0,0-.19.6.6,0,0,0-.25-.5,1.05,1.05,0,0,0-.59-.22H63.9l-.63-.69,6.7.32Zm-2.1.76a1.14,1.14,0,0,0-.1-.53q-.14-.34-.4-.35l-2.4-.11.1.25.16.36a1.33,1.33,0,0,0,.44.51,4.86,4.86,0,0,0,.7.4,3.12,3.12,0,0,0,.72.23.7.7,0,0,0,.21,0,.67.67,0,0,0,.45-.26.6.6,0,0,0,.07-.17A1.33,1.33,0,0,0,68.56,123.65Z"/><path class="cls-5" d="M76.73,122.47l-1.8.1.39,6.72-.77-.5-.19-3.35,0-.11,0-.11q-.1-.23-.19-.42a2.31,2.31,0,0,0-.21-.34,2,2,0,0,0-.27-.29,2.94,2.94,0,0,0-.39-.29L71,126.4l-1.06-.28.57-.64a.52.52,0,0,0,.11-.38q0-.65-.51-.63a1.43,1.43,0,0,0-.45.14,1.42,1.42,0,0,1-.44.15.81.81,0,0,1-.23,0,.71.71,0,0,1-.22-.09.45.45,0,0,1-.22-.35.5.5,0,0,1,0-.18,2.08,2.08,0,0,1,.09-.22,2.91,2.91,0,0,1,2.6-1.66,2.87,2.87,0,0,1,1.27.2,3,3,0,0,1,1.07.78,3,3,0,0,1,.29.35,2,2,0,0,1,.15.25q.2.45.43.87L74.21,123l-.14-2.41.36.31q.25.81.45.9a1.2,1.2,0,0,0,.36,0l.83,0Zm-4,.88a1.4,1.4,0,0,0-1.15-.42,2.21,2.21,0,0,0-1,.24,1.43,1.43,0,0,0-.33.28,3,3,0,0,0-.31.42q.87-.05,1.13,1l0,.14Z"/><path class="cls-5" d="M79.54,121.95l-1.92.27.93,6.67-.8-.43-.65-4.63a1.69,1.69,0,0,0-.16-.55,1.35,1.35,0,0,0-.23-.33l-.06-.07-.11-.11-.19-.14-.32-.17-.14,0-.82-.55.73-.1a.6.6,0,0,1,.45.1,2.79,2.79,0,0,1,.46.45,4.6,4.6,0,0,1,.62,1l-.53-1.65-.18-1.32.3.17.11.38a1.41,1.41,0,0,0,.07.21,1.12,1.12,0,0,0,.42.46l1.21-.17Z"/><path class="cls-5" d="M86.7,120.29l-1.86.44,1.55,6.55-.84-.36L84.86,124a2.1,2.1,0,0,0-.18-.27,1.5,1.5,0,0,0-.26-.25.8.8,0,0,0-.66-.2,1,1,0,0,0-.65.62l-.71,1.49a1.05,1.05,0,0,1-.28.42,1.86,1.86,0,0,1-.53.18q-.75.18-1.82-1.06l.39-.53a1,1,0,0,0,.37.49.63.63,0,0,0,.53.2.57.57,0,0,0,.34-.28l.09-.17.12-.23.43-.91a2.94,2.94,0,0,0-.29-.63,1.45,1.45,0,0,0-.57-.46l-.3,0h-.41l-.28.06-.29.05a1.33,1.33,0,0,1-.55,0l-.14-.06-.15-.11a1.39,1.39,0,0,0-.27-.21l-.34-.19-.55-.28,7.92-1.87Zm-2.05,2.83-.52-2.22-3.1.73.48.27.32.23a1.61,1.61,0,0,1,.31.34,1.29,1.29,0,0,1,.17.41.51.51,0,0,1,0,.26l.42-.44a1,1,0,0,1,.51-.28.71.71,0,0,1,.6.14Z"/><path class="cls-5" d="M91,125.35a1.72,1.72,0,0,1-.14,1.25,3.61,3.61,0,0,1-.35.62,2.65,2.65,0,0,1-.44.48l-.23-.2a1.8,1.8,0,0,0,.54-.76,1.23,1.23,0,0,0,.14-.86q-.08-.22-.23-.17l-.09,0-.13.06-.12.07-.09,0q-.75.26-1-.32-.27-.76.59-1.06a1,1,0,0,1,1,.11A1.33,1.33,0,0,1,91,125.35Z"/><path class="cls-5" d="M99.47,114.29l-4.57,2.43,2.15,4.05a.54.54,0,0,0,.24.22.31.31,0,0,0,.31,0,1.87,1.87,0,0,0,.73-.93,3.27,3.27,0,0,0,.29-1.11l-.14-.43-.19.13a1,1,0,0,1-.67.12.68.68,0,0,1-.49-.37,1.12,1.12,0,0,1-.12-.34.73.73,0,0,1,0-.34.86.86,0,0,1,.47-.52,1.2,1.2,0,0,1,1.06-.1,1.54,1.54,0,0,1,.77.74,3,3,0,0,1,.35,1.16,1.19,1.19,0,0,1,0,.32,5.06,5.06,0,0,1-.14.54,2.94,2.94,0,0,1-1.42,1.85,1.16,1.16,0,0,1-1-.06,1.43,1.43,0,0,1-.75-.59l-2.13-4-.89.47-.95-.25,6.1-3.24Z"/><path class="cls-5" d="M101.71,112.78l-1.65,1,3.54,5.72-.91-.07-2.46-4a1.69,1.69,0,0,0-.37-.44,1.35,1.35,0,0,0-.34-.21l-.09,0-.14-.06-.23-.05-.36,0-.12.08-1-.17.63-.39a.6.6,0,0,1,.45-.09,2.8,2.8,0,0,1,.6.23,4.61,4.61,0,0,1,1,.62l-1.15-1.3-.7-1.13.35,0,.26.3.15.16a1.12,1.12,0,0,0,.57.25l1-.64Z"/><path class="cls-5" d="M109,107.49l-3.58,2.65.34.46.08-.09a2.55,2.55,0,0,1,1.6-.45,2.48,2.48,0,0,1,2.07,1,1.34,1.34,0,0,1,.21.41,1.11,1.11,0,0,1,0,.46,1.1,1.1,0,0,1-.47.81,1.05,1.05,0,0,1-.68.19.68.68,0,0,1-.58-.27.9.9,0,0,1-.07-.79l.32-.31a1,1,0,0,1,.77-.16l0-.13a1.5,1.5,0,0,0-1.22-.57,2.23,2.23,0,0,0-1.43.43l-.1.11,3.15,4.27a2.16,2.16,0,0,1-.93-.38,2.92,2.92,0,0,0-1-.33,4.44,4.44,0,0,0-3,.53l-1.48-.32a11,11,0,0,1,.85-2,16.07,16.07,0,0,1,1.32-2l-.32-.43-3.57,2.64-1-.08,7.76-5.74Zm-1.27,7-2.05-2.78a8.07,8.07,0,0,0-1.36,2.65,5.23,5.23,0,0,1,.89-.2,4.26,4.26,0,0,1,.86,0A7.94,7.94,0,0,1,107.68,114.5Z"/><path class="cls-5" d="M110.93,105.55l-1.47,1.26,4.39,5.1-.91.07-3-3.54a1.69,1.69,0,0,0-.43-.37,1.35,1.35,0,0,0-.37-.16l-.09,0-.15,0-.24,0-.36,0-.11.09-1,0,.56-.48a.6.6,0,0,1,.43-.15,2.78,2.78,0,0,1,.63.13,4.6,4.6,0,0,1,1,.47l-1.34-1.1-.87-1,.35,0,.3.25.18.14a1.12,1.12,0,0,0,.6.16l.92-.79Z"/><path class="cls-6" d="M10.43,80.26l1,3.72.15-.07a.72.72,0,0,0,.1-.29,4.74,4.74,0,0,0,.05-.5A1.81,1.81,0,0,1,12.2,82a2,2,0,0,1,1-.71q1.41-.38,2.55,1.3l.07-.12.08-.16q.06-.16.13-.4t.2-.57l.2-.33a5,5,0,0,0,.28-.54l.38-.84.81-.43a7.68,7.68,0,0,0-.82,1.69,12.49,12.49,0,0,0-.53,2.2,12.07,12.07,0,0,0-.06,1.47L15,85.8a3.55,3.55,0,0,0,.06-2,2,2,0,0,0-.26-.65q-1-1.16-1.53-1a1,1,0,0,0-.36.17,1.21,1.21,0,0,0-.27.29.85.85,0,0,0-.14.74.58.58,0,0,0,.14.26,1.15,1.15,0,0,1,.92.17,1.26,1.26,0,0,1,.6.76q.2.74-.45.91a1,1,0,0,1-.55-.06,1.49,1.49,0,0,1-.79-.42l-.3-.41a1.32,1.32,0,0,0-.14-.18h0q-.16,0-.24.42l.54,2-.49.82-1.24-4.61q-.2-.73-.71-.77-.26.07-.18.79,0,.27.06.5t.1.46.08.26l.14.35a5,5,0,0,1,.23.6,2.65,2.65,0,0,1,0,1.41,1.29,1.29,0,0,1-.94,1,1.46,1.46,0,0,1-.73,0l-.07-.2-.06-.27a.66.66,0,0,0,.65.21q.13,0,.3-.3a.71.71,0,0,0,.17-.42,1.91,1.91,0,0,0-.07-.49L8.73,84a3,3,0,0,1,0-.64,1.81,1.81,0,0,1,.39-1.14,1.59,1.59,0,0,1,1-.6L10,81.11Z"/><path class="cls-6" d="M11.67,88l-1.32-4.9c-.11-.42-.3-.64-.58-.68-.06,0-.12.23-.08.65,0,.18,0,.35.06.49s.06.29.1.45,0,.15.08.25l.13.34a4.89,4.89,0,0,1,.23.62,2.79,2.79,0,0,1,0,1.48,1.41,1.41,0,0,1-1,1.06,1.61,1.61,0,0,1-.8,0l-.07,0-.09-.27-.15-.68L8.5,87a.53.53,0,0,0,.53.18s.09,0,.23-.25.15-.31.15-.34a1.88,1.88,0,0,0-.06-.47l-.74-2.08a2.44,2.44,0,0,1,0-.68A1.94,1.94,0,0,1,9,82.19a1.69,1.69,0,0,1,1-.62l-.13-.49.66-1.15,1,3.86a.86.86,0,0,0,0-.19,4.53,4.53,0,0,0,0-.49,1.94,1.94,0,0,1,.5-1.17,2.16,2.16,0,0,1,1.05-.75,2.36,2.36,0,0,1,2.57,1.18l.05-.1.12-.38c0-.16.12-.36.2-.58l.21-.35a4.59,4.59,0,0,0,.27-.52l.4-.88,1.28-.69-.27.41a7.51,7.51,0,0,0-.81,1.67,12.41,12.41,0,0,0-.53,2.18,12.11,12.11,0,0,0-.06,1.45v.06l0,0-1.77,1.5.13-.41A3.44,3.44,0,0,0,15,83.84a1.85,1.85,0,0,0-.24-.61c-.76-.9-1.18-1-1.4-1a.92.92,0,0,0-.32.15,1.09,1.09,0,0,0-.25.26.73.73,0,0,0-.12.64.5.5,0,0,0,.07.15,1.29,1.29,0,0,1,.94.2,1.39,1.39,0,0,1,.66.83.94.94,0,0,1,0,.72.77.77,0,0,1-.49.34,1.15,1.15,0,0,1-.62-.06,1.57,1.57,0,0,1-.86-.47l-.3-.41-.08-.11a.6.6,0,0,0-.12.28l.55,2Zm-3-.48a1.27,1.27,0,0,0,.61,0,1.16,1.16,0,0,0,.85-.89,2.55,2.55,0,0,0,0-1.35,4.69,4.69,0,0,0-.22-.58l-.14-.35a2.72,2.72,0,0,1-.09-.27c0-.16-.08-.31-.1-.47s0-.33-.06-.51c0-.35,0-.84.28-.92h0c.4,0,.68.33.82.87l1.16,4.32.31-.52-.54-2v0c.06-.3.17-.47.33-.51l.11,0,0,0a1.17,1.17,0,0,1,.16.2l.29.41a1.33,1.33,0,0,0,.73.38.92.92,0,0,0,.48.06.52.52,0,0,0,.34-.23.7.7,0,0,0,0-.53,1.13,1.13,0,0,0-.54-.68,1,1,0,0,0-.82-.16l-.07,0-.05-.05a.7.7,0,0,1-.17-.31,1,1,0,0,1,.16-.85,1.34,1.34,0,0,1,.3-.32,1.18,1.18,0,0,1,.41-.19c.44-.11,1,.23,1.66,1a2.11,2.11,0,0,1,.29.7,3.59,3.59,0,0,1,0,1.68l1.1-.94a11.44,11.44,0,0,1,.06-1.43,12.69,12.69,0,0,1,.54-2.22,8.38,8.38,0,0,1,.59-1.32l-.36.2-.36.81a5.3,5.3,0,0,1-.29.55l-.2.32c-.07.2-.14.38-.19.55s-.1.3-.13.41l-.09.18-.07.12-.1.17-.11-.17c-.74-1.08-1.52-1.49-2.41-1.25a1.91,1.91,0,0,0-.93.67,1.7,1.7,0,0,0-.44,1,4.82,4.82,0,0,1-.05.52.83.83,0,0,1-.12.34l0,0-.32.15,0-.14-.92-3.43-.3.54.17.65-.13,0a1.48,1.48,0,0,0-.95.55,1.68,1.68,0,0,0-.37,1.06,2.68,2.68,0,0,0,0,.6l.74,2.08a2,2,0,0,1,.07.53.8.8,0,0,1-.19.49.75.75,0,0,1-.37.35.69.69,0,0,1-.48,0Z"/><path class="cls-6" d="M9.46,73.35l.27,1.81,6.87-1-.35.44-.59.16L15,75q-.32.13-.67.3l-.75.4a2.41,2.41,0,0,0-.46.37,2.32,2.32,0,0,0-.41.56,1.81,1.81,0,0,0-.27,1.1l.13,0a1.54,1.54,0,0,1,.79-.48.82.82,0,0,1,1.07.77q.19,1.28-1.22,1.49a1.49,1.49,0,0,1-1.06-.23,1.21,1.21,0,0,1-.56-.88l-.07-.45a1.5,1.5,0,0,1,.08-.71,2.8,2.8,0,0,1,.45-.79,6.33,6.33,0,0,1,1.34-1.15l-3.63.54.7,4.74-.58.78L8.89,74.16Z"/><path class="cls-6" d="M9.87,81.66l0-.3L8.76,74.13,9.54,73l.29,2,7.06-1-.58.72h0l-.58.16-.61.22c-.21.08-.43.19-.66.3l-.75.4a2.24,2.24,0,0,0-.43.35,2.18,2.18,0,0,0-.39.53,1.88,1.88,0,0,0-.26.9,1.57,1.57,0,0,1,.79-.45.94.94,0,0,1,1.21.88,1.38,1.38,0,0,1-.24,1.11,1.67,1.67,0,0,1-1.09.52,1.63,1.63,0,0,1-1.14-.25,1.34,1.34,0,0,1-.62-1L11.46,78a1.62,1.62,0,0,1,.08-.77,2.93,2.93,0,0,1,.47-.82,5.36,5.36,0,0,1,1-.87l-3,.44.69,4.66ZM9,74.19,10,81l.37-.49-.71-4.81L14,75.1l-.45.31a6.23,6.23,0,0,0-1.32,1.12,2.69,2.69,0,0,0-.43.75,1.37,1.37,0,0,0-.07.65l.07.45a1.08,1.08,0,0,0,.5.79,1.35,1.35,0,0,0,1,.21,1.44,1.44,0,0,0,.93-.43,1.14,1.14,0,0,0,.18-.92.7.7,0,0,0-.92-.67,1.43,1.43,0,0,0-.73.45l0,0-.28,0v-.09a1.94,1.94,0,0,1,.28-1.17,2.54,2.54,0,0,1,.91-1l.76-.41c.23-.12.46-.22.68-.31l.63-.22.55-.16.13-.16-6.68,1-.24-1.62Z"/><path class="cls-6" d="M7.75,66.92l-.51.75L7,68a6.21,6.21,0,0,0-.31.6,4.26,4.26,0,0,0-.2.54,7.88,7.88,0,0,0-.17.84,3.43,3.43,0,0,0,0,.69,2.29,2.29,0,0,0,.42,1.24l.1.12.15.17a2.33,2.33,0,0,0,1.3.7l.55-.29-.09-1.33.64-.63.11,1.68,6.93-.46-.51.72L9.57,73l.06.93L9,74.62,8.88,73l-.59.63a.4.4,0,0,1-.12.08.61.61,0,0,1-.2,0H7.72a2,2,0,0,1-.33-.08l-.29-.16a3.32,3.32,0,0,1-.47-.32A2.47,2.47,0,0,1,6,72.38a3.23,3.23,0,0,1-.26-.57,2.26,2.26,0,0,1-.11-.58,4.62,4.62,0,0,1,.21-1.56,6.7,6.7,0,0,1,.28-.77q.16-.36.34-.69t.36-.51q.21-.28.52-.61Z"/><path class="cls-6" d="M8.89,74.93l-.11-1.68-.4.42a.5.5,0,0,1-.17.11.71.71,0,0,1-.24.05H7.7a2,2,0,0,1-.35-.08L7,73.56a3.52,3.52,0,0,1-.49-.33,2.59,2.59,0,0,1-.67-.78,3.32,3.32,0,0,1-.27-.59,2.42,2.42,0,0,1-.12-.61,4.77,4.77,0,0,1,.22-1.6A7,7,0,0,1,6,68.86c.11-.24.22-.48.34-.7s.22-.33.37-.53.32-.4.53-.62l0,0,.81-.33L7.85,67l-.51.75L7.15,68a6.25,6.25,0,0,0-.31.59,4.08,4.08,0,0,0-.2.53,7.65,7.65,0,0,0-.16.82,3.3,3.3,0,0,0,0,.67,2.17,2.17,0,0,0,.39,1.17l.09.11.16.18a2.3,2.3,0,0,0,1.17.65l.45-.23-.09-1.3.88-.86.12,1.83,7.07-.47-.7,1L9.7,73.1l.06.86ZM9,72.66l.11,1.66.4-.45-.07-1h.13l6.32-.42L16.2,72l-6.79.45-.1-1.54-.41.4L9,72.64,8.33,73h0a2.43,2.43,0,0,1-1.37-.73l-.16-.18-.11-.13a2.43,2.43,0,0,1-.44-1.3,3.58,3.58,0,0,1,0-.71,8.25,8.25,0,0,1,.17-.85,4.31,4.31,0,0,1,.21-.56,6.37,6.37,0,0,1,.32-.61l.2-.3.28-.41h0c-.19.21-.36.41-.49.58s-.26.35-.35.5-.23.44-.33.67a6.76,6.76,0,0,0-.27.75,4.49,4.49,0,0,0-.21,1.51,2.13,2.13,0,0,0,.11.54,3.15,3.15,0,0,0,.25.55,2.4,2.4,0,0,0,.6.71,3.4,3.4,0,0,0,.45.31l.3.17.28.06H8l.16,0,.08-.05Z"/><path class="cls-6" d="M9.59,61.83l-.15,4.72.15.25a.41.41,0,0,0,.19,0,.74.74,0,0,0,.7-.46,1.92,1.92,0,0,0,.21-.86,2.79,2.79,0,0,0-.3-1.44l1.07-.89a3.79,3.79,0,0,0,.63.47,4.12,4.12,0,0,0,.81.37,5.47,5.47,0,0,0,1.64.31,2.71,2.71,0,0,0,.87-.14,7,7,0,0,0,1.07-.44,1,1,0,0,1-.2.73L14,65l-.59,0a2.33,2.33,0,0,1-.44-.06,4.86,4.86,0,0,1-.57-.17,4.47,4.47,0,0,1-.55-.23,2.15,2.15,0,0,1-.38-.24q0,.38,0,.61t0,.32a2.74,2.74,0,0,1-.53,1.55,2.91,2.91,0,0,1-.85.67c-.06,0-.09.07-.09.12s.22.38.68.66a2.48,2.48,0,0,0,1,.44q.43,0,.45-.5a2.26,2.26,0,0,0-.27-.82,3.32,3.32,0,0,1-.27-.65.43.43,0,0,1,.18-.32,2.87,2.87,0,0,1,1.85-.74,3.2,3.2,0,0,1,.77.25.93.93,0,0,1,.38.25,2.27,2.27,0,0,1,.42.67,1.88,1.88,0,0,1,.12.75q-.06,1.83-2.7,2.68a5.23,5.23,0,0,1-.65.16,3.19,3.19,0,0,1-.6.05H11.1l-.41,0H10l-.07,0A.88.88,0,0,1,10.7,70h.77l.78-.19a3.13,3.13,0,0,0,1.52-1.15,1.56,1.56,0,0,0,.37-1,2.09,2.09,0,0,0,0-.5,2.51,2.51,0,0,0-.16-.49q-.26-.59-.69-.61a.56.56,0,0,0-.34.11.25.25,0,0,0-.23.26,2.06,2.06,0,0,0,.14.59,1.93,1.93,0,0,1,.14.66,1.42,1.42,0,0,1-.58,1.1,1.81,1.81,0,0,1-1.21.42,1.72,1.72,0,0,1-1-.36l-.29-.24-.51-.48-.09,2.79-.7.66.28-9.09Z"/><path class="cls-6" d="M8.47,71.88l.29-9.44,1-.91-.15,5,.11.18.12,0a.62.62,0,0,0,.56-.39,1.79,1.79,0,0,0,.2-.81,2.69,2.69,0,0,0-.28-1.37l0-.09,1.23-1,.08.08a3.72,3.72,0,0,0,.61.45,4.07,4.07,0,0,0,.79.36,5.36,5.36,0,0,0,1.6.3,2.44,2.44,0,0,0,.83-.13,6.85,6.85,0,0,0,1.05-.44l.19-.09v.21a1.14,1.14,0,0,1-.25.82l0,0h0L14,65.12l-.58,0a2.54,2.54,0,0,1-.46-.06,5.24,5.24,0,0,1-.58-.18,4.73,4.73,0,0,1-.57-.24l-.2-.11v.37q0,.24,0,.33A2.87,2.87,0,0,1,11,66.83a3,3,0,0,1-.89.71l0,0s0,.17.62.54a2.29,2.29,0,0,0,.92.42c.16,0,.31,0,.32-.38a2.06,2.06,0,0,0-.26-.76c-.28-.6-.28-.66-.28-.71a.55.55,0,0,1,.23-.41,3.06,3.06,0,0,1,1.87-.77h.06a2.78,2.78,0,0,1,.82.26,1,1,0,0,1,.43.28,2.39,2.39,0,0,1,.44.71,2,2,0,0,1,.13.79c0,1.27-1,2.21-2.78,2.8a5.5,5.5,0,0,1-.66.17,2.88,2.88,0,0,1-.62.06h-.26l-.41,0H10l-.28-.06.11-.15a1,1,0,0,1,.81-.47h.8l.75-.19a3,3,0,0,0,1.45-1.11,1.44,1.44,0,0,0,.34-.88,1.86,1.86,0,0,0,0-.47,2.38,2.38,0,0,0-.15-.46c-.15-.35-.34-.52-.58-.53a.45.45,0,0,0-.26.08l-.05,0c-.09,0-.12.05-.13.15a1.92,1.92,0,0,0,.13.55,2,2,0,0,1,.15.7,1.55,1.55,0,0,1-.62,1.19,2,2,0,0,1-1.29.44A1.86,1.86,0,0,1,10.11,69l-.29-.25-.31-.29L9.43,71ZM9,62.55l-.27,8.74.45-.42.09-3,.2.2.5.48.28.24a1.59,1.59,0,0,0,.92.33h.05a1.71,1.71,0,0,0,1.08-.39,1.3,1.3,0,0,0,.53-1,1.8,1.8,0,0,0-.13-.61,2.2,2.2,0,0,1-.14-.63.37.37,0,0,1,.31-.38.71.71,0,0,1,.39-.11c.34,0,.61.24.8.68a2.54,2.54,0,0,1,.16.51,2.15,2.15,0,0,1,0,.53,1.68,1.68,0,0,1-.4,1,3.26,3.26,0,0,1-1.58,1.19l-.78.19-.46,0H10.7a.66.66,0,0,0-.48.19h.47l.41,0h.27a3.05,3.05,0,0,0,.56-.05,5,5,0,0,0,.63-.16c1.7-.55,2.57-1.41,2.61-2.57a1.77,1.77,0,0,0-.11-.7,2.17,2.17,0,0,0-.4-.63.83.83,0,0,0-.33-.21,2.93,2.93,0,0,0-.73-.25h-.05a2.82,2.82,0,0,0-1.71.71.31.31,0,0,0-.14.22,4.35,4.35,0,0,0,.25.59,2.27,2.27,0,0,1,.29.87c0,.56-.37.62-.58.62a2.51,2.51,0,0,1-1-.46c-.51-.32-.74-.56-.74-.77a.27.27,0,0,1,.14-.22,2.81,2.81,0,0,0,.82-.64,2.62,2.62,0,0,0,.51-1.48c0-.06,0-.17,0-.32V64l.21.17a2,2,0,0,0,.36.23,4.37,4.37,0,0,0,.54.23,4.79,4.79,0,0,0,.55.17,2.27,2.27,0,0,0,.41.06l.57,0,2.24-.5a.75.75,0,0,0,.13-.41,6.51,6.51,0,0,1-.9.36,2.57,2.57,0,0,1-.91.14,5.62,5.62,0,0,1-1.67-.32,4.33,4.33,0,0,1-.84-.38,4,4,0,0,1-.57-.41l-.91.76a3,3,0,0,1,.26,1.41,2,2,0,0,1-.23.92A.86.86,0,0,1,9.8,67h0a.54.54,0,0,1-.24-.06l0,0-.18-.31v0l.14-4.42Z"/><path class="cls-6" d="M9.23,55.09l-.65.64L8.33,56a6.22,6.22,0,0,0-.42.53,4.27,4.27,0,0,0-.3.49,7.89,7.89,0,0,0-.33.79,3.43,3.43,0,0,0-.16.67,2.29,2.29,0,0,0,.17,1.29l.08.14.12.2A2.33,2.33,0,0,0,8.62,61l.6-.18.17-1.32.75-.49-.22,1.67,6.89.89-.64.61-6.34-.82-.12.93L9,62.89l.21-1.66-.7.5-.14.05a.61.61,0,0,1-.2,0l-.24-.06a2,2,0,0,1-.31-.14l-.25-.22a3.33,3.33,0,0,1-.4-.4,2.47,2.47,0,0,1-.48-.86,3.24,3.24,0,0,1-.15-.61,2.26,2.26,0,0,1,0-.59,4.63,4.63,0,0,1,.51-1.49,6.66,6.66,0,0,1,.42-.7q.22-.33.47-.61t.45-.43q.26-.23.63-.5Z"/><path class="cls-6" d="M8.8,63.17,9,61.5l-.47.33a.5.5,0,0,1-.18.07.64.64,0,0,1-.24,0l-.26-.06a2.31,2.31,0,0,1-.33-.15l-.27-.23a3.45,3.45,0,0,1-.41-.42,2.59,2.59,0,0,1-.5-.9,3.44,3.44,0,0,1-.15-.64,2.4,2.4,0,0,1,0-.62,4.77,4.77,0,0,1,.52-1.53,6.72,6.72,0,0,1,.43-.71c.15-.22.31-.42.47-.62s.29-.29.46-.45.4-.33.64-.51l0,0,.86-.17-.29.29-.65.64-.23.23a6.06,6.06,0,0,0-.42.52,4.15,4.15,0,0,0-.29.48,8.2,8.2,0,0,0-.32.77,3.26,3.26,0,0,0-.16.65A2.16,2.16,0,0,0,7.4,59.7l.07.13L7.6,60a2.29,2.29,0,0,0,1,.87l.49-.14.17-1.3,1-.67-.24,1.82,7,.91-.87.83h-.06l-6.21-.8-.11.85ZM9.33,61l-.21,1.65.48-.37.13-1,.12,0,6.28.81.41-.38-6.75-.87.2-1.53-.48.31L9.34,61l-.71.21h0a2.42,2.42,0,0,1-1.21-1L7.26,60l-.08-.15A2.42,2.42,0,0,1,7,58.45a3.53,3.53,0,0,1,.17-.7,8.25,8.25,0,0,1,.33-.8,4.57,4.57,0,0,1,.31-.51,6.15,6.15,0,0,1,.43-.54l.25-.25.35-.34h0c-.23.17-.43.33-.6.48s-.32.29-.44.42-.31.39-.46.6a6.29,6.29,0,0,0-.41.69,4.5,4.5,0,0,0-.5,1.45,2.16,2.16,0,0,0,0,.56,3.25,3.25,0,0,0,.14.59,2.36,2.36,0,0,0,.46.81,3.17,3.17,0,0,0,.38.39l.26.22.26.11.22.05h.16l.09,0Z"/><path class="cls-6" d="M11.54,52.29l-.38,1.79L18,55.53l-.48.29-.61-.05h-.65q-.34,0-.73.05l-.84.12a2.41,2.41,0,0,0-.56.18,2.32,2.32,0,0,0-.58.38,1.81,1.81,0,0,0-.63.93l.11.07a1.54,1.54,0,0,1,.91-.18.82.82,0,0,1,.73,1.1q-.27,1.27-1.67,1a1.49,1.49,0,0,1-.91-.59,1.21,1.21,0,0,1-.22-1l.09-.44a1.49,1.49,0,0,1,.32-.63,2.8,2.8,0,0,1,.69-.58,6.34,6.34,0,0,1,1.66-.61L11,54.75l-1,4.68L9.21,60l1.51-7.11Z"/><path class="cls-6" d="M9,60.22l1.59-7.45L11.73,52l-.42,2,7,1.49-.79.47h0l-.6,0h-.64c-.22,0-.46,0-.72.05l-.84.12a2.29,2.29,0,0,0-.52.17,2.23,2.23,0,0,0-.54.36,1.86,1.86,0,0,0-.56.75,1.56,1.56,0,0,1,.9-.14,1.09,1.09,0,0,1,.72.43,1,1,0,0,1,.1.81,1.37,1.37,0,0,1-.61,1,1.68,1.68,0,0,1-1.21.11,1.62,1.62,0,0,1-1-.63,1.34,1.34,0,0,1-.24-1.12l.09-.44a1.62,1.62,0,0,1,.35-.69,3,3,0,0,1,.72-.61,5.47,5.47,0,0,1,1.2-.49l-3-.63-1,4.61Zm1.81-7.3L9.4,59.69l.51-.33,1-4.75,4.24.9-.53.13a6.29,6.29,0,0,0-1.63.59,2.7,2.7,0,0,0-.66.55,1.38,1.38,0,0,0-.29.58L12,57.8a1.09,1.09,0,0,0,.2.92,1.36,1.36,0,0,0,.83.54,1.45,1.45,0,0,0,1-.08,1.13,1.13,0,0,0,.49-.79.81.81,0,0,0-.07-.62.85.85,0,0,0-.57-.32,1.41,1.41,0,0,0-.83.17l-.06,0-.25-.15,0-.09a1.93,1.93,0,0,1,.67-1A2.47,2.47,0,0,1,14,56a2.52,2.52,0,0,1,.58-.19l.85-.12c.26,0,.51,0,.74-.05h.66l.57,0,.17-.1L11,54.18l.34-1.6Z"/><path class="cls-6" d="M13.71,46.08l-.57,1.7L19.72,50l-.51.22a4.17,4.17,0,0,0-1.54.41,3.72,3.72,0,0,0-1.26.9,3.24,3.24,0,0,0-.55,1.06l-1.4.51a9.36,9.36,0,0,1-1-2.49s-.1.11-.27.22a1.74,1.74,0,0,0-.32.29l-.59.9a2.74,2.74,0,0,1-.25.34s-.47.25-1.37.69l2.2-6.52Zm4.18,4-5-1.67-.8,2.38a7.48,7.48,0,0,1,2.05-1.06l.41.89.3.62a5.8,5.8,0,0,0,.33.57,4,4,0,0,1,.41-.51A3,3,0,0,1,16,51l.39-.23.67-.35.34-.11Zm.1,1.47a.73.73,0,0,1,.46.92.92.92,0,0,1-.37.48.59.59,0,0,1-.56.1.76.76,0,0,1-.43-.37.63.63,0,0,1-.09-.55.93.93,0,0,1,.4-.51.62.62,0,0,1,.29-.1A.73.73,0,0,1,18,51.57Z"/><path class="cls-6" d="M10.43,53.29l2.31-6.86,1.19-.61-.63,1.88L20.06,50l-.85.36a4.06,4.06,0,0,0-1.5.4,3.61,3.61,0,0,0-1.22.87,3.13,3.13,0,0,0-.53,1l0,.06-.06,0-1.51.54-.05-.1a10.25,10.25,0,0,1-1-2.31l-.13.09a1.57,1.57,0,0,0-.29.26l-.58.89a1.83,1.83,0,0,1-.28.37s0,0-1.39.7Zm3.07-3.13.07.43a9,9,0,0,0,.94,2.36l1.25-.45a3.3,3.3,0,0,1,.55-1,3.85,3.85,0,0,1,1.31-.93,4.35,4.35,0,0,1,1.57-.43l.19-.08L13,47.87l.52-1.53-.55.28-2.08,6.19,1.08-.54s.06-.07.22-.31l.58-.9a1.74,1.74,0,0,1,.36-.32,1,1,0,0,0,.24-.18l.13-.38a6.22,6.22,0,0,0-1.28.74l-.33.26,1-2.9,5.43,1.83-.81.28-.34.11-.64.34-.38.22a2.79,2.79,0,0,0-.4.35,3.74,3.74,0,0,0-.4.49l-.11.15-.1-.16a6.23,6.23,0,0,1-.34-.58l-.3-.62-.36-.78Zm.73-.56,0,.1c.06.12.2.42.41.89l.3.61c.07.14.15.27.22.4a4,4,0,0,1,.31-.37,3,3,0,0,1,.44-.38l.4-.24.67-.35.35-.12.12,0L13,48.59l-.64,1.9a8.39,8.39,0,0,1,1.77-.85Zm3.47,3.62a.73.73,0,0,1-.23,0,.88.88,0,0,1-.5-.43.76.76,0,0,1-.09-.65,1.05,1.05,0,0,1,.45-.57.74.74,0,0,1,.34-.12.78.78,0,0,1,.35,0h0a.85.85,0,0,1,.54,1.08,1.05,1.05,0,0,1-.42.54A.75.75,0,0,1,17.7,53.23Zm0-1.57h-.05a.52.52,0,0,0-.23.09.8.8,0,0,0-.35.44.52.52,0,0,0,.07.45.65.65,0,0,0,.36.32.48.48,0,0,0,.45-.08.8.8,0,0,0,.33-.42.6.6,0,0,0-.38-.76h0A.63.63,0,0,0,17.74,51.66Z"/><path class="cls-6" d="M14.95,43.48l-.71,1.65,6.39,2.73-.78.41-4.43-1.89a1.93,1.93,0,0,0-.57-.16,1.46,1.46,0,0,0-.41,0h-.1l-.15,0-.22.08-.31.16-.05.12-.9.36.27-.63a.52.52,0,0,1,.31-.3,2.86,2.86,0,0,1,.63-.13,5,5,0,0,1,1.16,0l-1.73-.44L12.08,45l.3-.15.39.11L13,45a1.17,1.17,0,0,0,.62-.09l.44-1Z"/><path class="cls-6" d="M19.85,48.41l-4.49-1.92a1.86,1.86,0,0,0-.53-.15,1.37,1.37,0,0,0-.37,0h-.12l-.13,0-.2.07-.26.13-.06.13-1.22.49.39-.91a.64.64,0,0,1,.38-.37,2.92,2.92,0,0,1,.65-.13H14l-.69-.18L11.79,45l.58-.29.44.12.21,0a1.05,1.05,0,0,0,.51-.06l.44-1,1.22-.47-.77,1.81,6.52,2.78Zm-5.2-2.33h.21a2.12,2.12,0,0,1,.6.17l4.38,1.87.5-.26L14.08,45.2l.64-1.49-.56.22-.44,1,0,0a1.31,1.31,0,0,1-.68.1L12.74,45l-.34-.09h0l1,.43,1.71.44,0,.25a4.86,4.86,0,0,0-1.13,0,2.8,2.8,0,0,0-.6.12.4.4,0,0,0-.24.23l-.15.35.57-.23,0-.11,0,0,.32-.17.24-.08.17,0h.07Z"/><path class="cls-6" d="M16.48,37.13l-.82.4-.31.16a6.18,6.18,0,0,0-.57.37,4.26,4.26,0,0,0-.44.37,7.88,7.88,0,0,0-.56.65,3.44,3.44,0,0,0-.37.58,2.29,2.29,0,0,0-.25,1.28,1.35,1.35,0,0,0,0,.16l0,.23A2.33,2.33,0,0,0,14,42.57l.62,0,.58-1.2.87-.23-.73,1.52,6.26,3-.8.37L15.07,43.3l-.41.84-.91.31.73-1.51-.83.25h-.15a.61.61,0,0,1-.19-.06L13.11,43a2,2,0,0,1-.25-.23l-.17-.28a3.32,3.32,0,0,1-.25-.51,2.47,2.47,0,0,1-.19-1,3.23,3.23,0,0,1,.06-.63,2.26,2.26,0,0,1,.18-.56,4.63,4.63,0,0,1,1-1.25,6.7,6.7,0,0,1,.62-.53q.32-.24.63-.43t.56-.27q.32-.14.75-.28Z"/><path class="cls-6" d="M20.82,46.21l-.05,0-5.64-2.72-.37.77-1.24.42.73-1.52-.55.17a.49.49,0,0,1-.2,0,.73.73,0,0,1-.23-.07A1.41,1.41,0,0,1,13,43.1a2.05,2.05,0,0,1-.26-.24l0,0-.17-.28a3.42,3.42,0,0,1-.26-.53,2.62,2.62,0,0,1-.19-1,3.48,3.48,0,0,1,.06-.65,2.46,2.46,0,0,1,.19-.59,4.77,4.77,0,0,1,1-1.29A6.78,6.78,0,0,1,14,38c.22-.16.43-.31.64-.44s.36-.18.58-.28S15.69,37,16,37h0l.9.12-.37.18-.82.4-.3.15a6.15,6.15,0,0,0-.56.37,4.14,4.14,0,0,0-.43.36,7.48,7.48,0,0,0-.55.63,3.31,3.31,0,0,0-.36.56,2.17,2.17,0,0,0-.23,1.21,1.34,1.34,0,0,0,0,.14c0,.06,0,.14,0,.23a2.29,2.29,0,0,0,.7,1.15l.51,0,.57-1.18L16.33,41l-.8,1.65,6.38,3.08ZM15,43.13l5.81,2.8.51-.24-6.13-3,.67-1.39-.55.15-.59,1.22-.74,0,0,0a2.42,2.42,0,0,1-.83-1.31l-.05-.24A1.34,1.34,0,0,1,13,41a2.42,2.42,0,0,1,.26-1.35,3.6,3.6,0,0,1,.38-.61,8.19,8.19,0,0,1,.57-.66,4.54,4.54,0,0,1,.46-.39,6.15,6.15,0,0,1,.58-.38l.32-.16L16,37.2h0c-.27.09-.51.18-.72.27l-.55.26c-.2.12-.41.27-.62.42a6.56,6.56,0,0,0-.61.52,4.54,4.54,0,0,0-.93,1.21,2.19,2.19,0,0,0-.17.53,3.13,3.13,0,0,0-.05.6,2.38,2.38,0,0,0,.17.92,3.37,3.37,0,0,0,.24.49l.17.28a1.8,1.8,0,0,0,.22.2l.19.12.15,0h.1l1.09-.33L14,44.23l.57-.19Z"/><path class="cls-6" d="M19.31,35.6l-.88,1.5,6,3.5a3.24,3.24,0,0,1-.56,0H22.78a4.17,4.17,0,0,0-2.29.82,2.61,2.61,0,0,0-.43.36,2.48,2.48,0,0,0-.35.47l-1.49.17a17.18,17.18,0,0,1,.26-4.56l-.39-.23-2.21,3.79-.92.22,3.44-5.9Zm3.31,4.74-3.26-1.9a8,8,0,0,0-.14,3,5.69,5.69,0,0,1,1.61-.83A6,6,0,0,1,22.62,40.34Zm-.17,1.46a.71.71,0,0,1,.33.4.61.61,0,0,1-.05.52.87.87,0,0,1-.46.39.67.67,0,0,1-.59-.07.62.62,0,0,1-.31-.43.76.76,0,0,1,.54-.88A.66.66,0,0,1,22.45,41.79Z"/><path class="cls-6" d="M22.05,43.27a.86.86,0,0,1-.44-.13.74.74,0,0,1-.37-.51.88.88,0,0,1,.63-1,.78.78,0,0,1,.63.08h0a.84.84,0,0,1,.39.47.74.74,0,0,1-.06.62,1,1,0,0,1-.53.45A.76.76,0,0,1,22.05,43.27Zm.05-1.44-.16,0a.63.63,0,0,0-.45.73.5.5,0,0,0,.25.34.54.54,0,0,0,.48.07.73.73,0,0,0,.39-.34.49.49,0,0,0,0-.42.58.58,0,0,0-.28-.33A.55.55,0,0,0,22.11,41.82Zm-4,.8v-.13a17.44,17.44,0,0,1,.25-4.5l-.21-.12L16,41.6l-1.26.3,3.61-6.2,1.25-.29-1,1.65,6.17,3.59-.31.07a3.34,3.34,0,0,1-.59,0H22.75a4.1,4.1,0,0,0-2.19.8,2.55,2.55,0,0,0-.41.35,2.32,2.32,0,0,0-.33.45l0,.05ZM18,37.52l.58.33,0,.09a17.08,17.08,0,0,0-.27,4.39l1.3-.15a2.55,2.55,0,0,1,.34-.44,2.74,2.74,0,0,1,.45-.38,4.34,4.34,0,0,1,2.33-.85H24l-5.78-3.37.79-1.36-.58.13-3.26,5.6.58-.14Zm1.08,4.11,0-.21a8.16,8.16,0,0,1,.14-3l0-.16,3.8,2.22h-.46a5.91,5.91,0,0,0-1.75.24,5.58,5.58,0,0,0-1.58.81Zm.32-3a7.89,7.89,0,0,0-.12,2.56,5.6,5.6,0,0,1,1.47-.73,5.67,5.67,0,0,1,1.38-.24Z"/><path class="cls-6" d="M22.19,33.63a1.58,1.58,0,0,1,.59.88,1.17,1.17,0,0,1-.14,1,1.33,1.33,0,0,1-1.08.54,1.94,1.94,0,0,1-1.24-.35,1.29,1.29,0,0,1-.54-.87,1.33,1.33,0,0,1,.25-1,1.35,1.35,0,0,1,1-.56A1.62,1.62,0,0,1,22.19,33.63ZM21.7,34q-.36-.26-.82.37a.86.86,0,0,0,.28,1.35q.4.29.63,0a1.46,1.46,0,0,0,.19-.89A1,1,0,0,0,21.7,34Zm6.38,2.41q-1.54.3-2.69.62a14.24,14.24,0,0,0-2,.68l-1.26-.91q.78-.2,1.45-.33t1.26-.21q.54-.07,1.22-.11l1.51-.06Z"/><path class="cls-6" d="M23.42,37.84l-1.54-1.11.26-.07c.52-.13,1-.24,1.46-.33s.87-.16,1.27-.22.78-.09,1.23-.12l1.51-.06h0l.73.52-.28.06c-1,.2-1.92.41-2.68.62a14.36,14.36,0,0,0-1.94.68Zm-1-1,1,.71a14.77,14.77,0,0,1,1.9-.66c.7-.2,1.51-.39,2.42-.57l-.19-.14-1.46.06c-.45,0-.86.07-1.21.11s-.82.12-1.25.21Zm-1-.62a2,2,0,0,1-1.23-.38,1.41,1.41,0,0,1-.59-.95,1.46,1.46,0,0,1,.27-1.09A1.48,1.48,0,0,1,21,33.2a1.73,1.73,0,0,1,1.88,1.28,1.3,1.3,0,0,1-.16,1.15,1.46,1.46,0,0,1-1.18.59Zm-.25-2.79H21a1.22,1.22,0,0,0-.92.51,1.2,1.2,0,0,0-.23.91,1.15,1.15,0,0,0,.49.78,1.81,1.81,0,0,0,1.16.33,1.2,1.2,0,0,0,1-.49,1,1,0,0,0,.12-.94,1.46,1.46,0,0,0-.54-.81h0A1.49,1.49,0,0,0,21.22,33.44ZM21.51,36a.72.72,0,0,1-.42-.16,1,1,0,0,1-.31-1.52c.44-.6.78-.55,1-.4h0a1.07,1.07,0,0,1,.33.9,1.55,1.55,0,0,1-.21,1A.49.49,0,0,1,21.51,36Zm0-1.93c-.11,0-.27.08-.5.4s-.24.82.25,1.17c.26.19.38.11.46,0a1.35,1.35,0,0,0,.16-.81.87.87,0,0,0-.23-.7A.24.24,0,0,0,21.48,34Z"/><path class="cls-6" d="M29.6,23.9l-2.73,2.72.14.1a.72.72,0,0,0,.3-.06l.46-.21A1.81,1.81,0,0,1,29,26.32a2,2,0,0,1,1.11.51q1,1,.14,2.86h.32l.42-.08.59-.11h.38a4.92,4.92,0,0,0,.6,0l.92-.09.78.49a7.68,7.68,0,0,0-1.88.13,12.52,12.52,0,0,0-2.17.63,12.13,12.13,0,0,0-1.3.68l-1.78-.65a3.54,3.54,0,0,0,1.76-.94,2,2,0,0,0,.44-.55q.52-1.42.11-1.83a1.05,1.05,0,0,0-.33-.23,1.21,1.21,0,0,0-.39-.09.85.85,0,0,0-.72.25.58.58,0,0,0-.15.25,1.15,1.15,0,0,1,.31.88,1.26,1.26,0,0,1-.36.9q-.54.54-1,.07a1,1,0,0,1-.22-.51,1.49,1.49,0,0,1,0-.9l.21-.46a1.33,1.33,0,0,0,.09-.21l0,0q-.12-.12-.48,0L24.77,28.7h-1l3.38-3.36q.53-.53.32-1-.19-.19-.78.23l-.4.3-.35.31-.18.2-.23.29a5,5,0,0,1-.41.5,2.65,2.65,0,0,1-1.21.73,1.29,1.29,0,0,1-1.31-.33,1.46,1.46,0,0,1-.35-.65l.14-.16.2-.18a.66.66,0,0,0,.14.67.67.67,0,0,0,.41.11.71.71,0,0,0,.45-.06A1.9,1.9,0,0,0,24,26l1.44-1.68A3,3,0,0,1,26,24a1.81,1.81,0,0,1,1.18-.22,1.59,1.59,0,0,1,1,.59l.42-.41Z"/><path class="cls-6" d="M28.87,31.42l-2.24-.81.42-.09a3.43,3.43,0,0,0,1.7-.91,1.86,1.86,0,0,0,.41-.51c.41-1.11.3-1.53.14-1.7a.93.93,0,0,0-.29-.2,1.08,1.08,0,0,0-.35-.08.71.71,0,0,0-.62.21.5.5,0,0,0-.1.13,1.3,1.3,0,0,1,.29.92,1.39,1.39,0,0,1-.39,1,1,1,0,0,1-.61.32.76.76,0,0,1-.59-.26,1.13,1.13,0,0,1-.25-.57,1.58,1.58,0,0,1,0-1l.21-.46.05-.12a.56.56,0,0,0-.3,0l-1.5,1.49-1.3,0,3.6-3.58c.31-.3.41-.58.3-.84,0,0-.19,0-.6.26l-.4.3-.34.31-.17.19-.23.29a5.37,5.37,0,0,1-.42.51A2.8,2.8,0,0,1,24,27a1.41,1.41,0,0,1-1.43-.36,1.58,1.58,0,0,1-.38-.7l0-.07.19-.21.52-.46-.1.4a.53.53,0,0,0,.11.55s.08.06.33.08.34,0,.37,0a1.9,1.9,0,0,0,.38-.29l1.43-1.67a2.54,2.54,0,0,1,.57-.38,2,2,0,0,1,1.27-.24,1.68,1.68,0,0,1,1,.53l.36-.36H29.9l-2.83,2.81.19,0,.45-.2A2,2,0,0,1,29,26.19a2.15,2.15,0,0,1,1.18.54,2.35,2.35,0,0,1,.25,2.82h.11l.39-.08.6-.12h.41a5,5,0,0,0,.59,0l1-.1L34.7,30l-.5,0a7.55,7.55,0,0,0-1.85.13,12.41,12.41,0,0,0-2.15.62,12.15,12.15,0,0,0-1.29.67Zm-1.38-.77,1.36.49a11.72,11.72,0,0,1,1.27-.66,12.71,12.71,0,0,1,2.2-.63,8.28,8.28,0,0,1,1.44-.14l-.35-.22-.88.09a4.92,4.92,0,0,1-.62,0h-.38l-.57.11-.42.09H30l.09-.18c.57-1.17.53-2.06-.12-2.71a1.9,1.9,0,0,0-1-.47,1.68,1.68,0,0,0-1.11.13l-.48.21a.77.77,0,0,1-.35.06h0l-.29-.2L29.29,24h-.62l-.48.47-.09-.1a1.47,1.47,0,0,0-.95-.54,1.68,1.68,0,0,0-1.11.21,2.72,2.72,0,0,0-.5.33l-1.44,1.67a2,2,0,0,1-.43.33.79.79,0,0,1-.52.08.76.76,0,0,1-.49-.15.7.7,0,0,1-.21-.44l-.05.06a1.3,1.3,0,0,0,.3.53,1.17,1.17,0,0,0,1.19.3,2.54,2.54,0,0,0,1.16-.69,5,5,0,0,0,.4-.48l.24-.3.19-.21.35-.32.42-.31c.29-.21.7-.45.94-.22l0,0a1,1,0,0,1-.34,1.14l-3.17,3.16h.61l1.5-1.47c.19-.06.45-.12.61,0l.08.08v.07a1.21,1.21,0,0,1-.1.24l-.21.46a1.35,1.35,0,0,0,0,.82.89.89,0,0,0,.19.45.57.57,0,0,0,.39.19.74.74,0,0,0,.45-.25,1.13,1.13,0,0,0,.32-.81,1,1,0,0,0-.27-.79l-.05-.05,0-.07a.7.7,0,0,1,.19-.31,1,1,0,0,1,.81-.28,1.34,1.34,0,0,1,.43.1,1.21,1.21,0,0,1,.37.26c.31.32.28,1-.09,2a2.07,2.07,0,0,1-.46.6A3.61,3.61,0,0,1,27.49,30.65Z"/><path class="cls-6" d="M36.15,18.87l-3.83,2.95,1.51,2q.13.17.28.11a1.57,1.57,0,0,0,.27-.64A5.08,5.08,0,0,0,34.52,22q0-.44.08-.5a1.22,1.22,0,0,1,.56,0,3.38,3.38,0,0,1,.71.27,5.13,5.13,0,0,1,.67.4,2.14,2.14,0,0,1,.45.42,2.51,2.51,0,0,1-.52,4,2.38,2.38,0,0,1-2.3.27,5.75,5.75,0,0,1-1-.41q-.54-.28-1.22-.72a6.27,6.27,0,0,1-.68-.58q-.47-.44-1.19-1.18l.47-.09a4.38,4.38,0,0,0,.37.42,3.57,3.57,0,0,0,.42.36l.32.21.63.4.44.24a3.19,3.19,0,0,0,.46.19,5.73,5.73,0,0,0,.77.22,2.88,2.88,0,0,0,.58.06,2.17,2.17,0,0,0,1.25-.5,2.37,2.37,0,0,0,.68-.85,1.67,1.67,0,0,0,.17-1l-.07-.4a.8.8,0,0,0-.16-.36,1.49,1.49,0,0,0-.83-.52,1.29,1.29,0,0,1,0,.48q-.06.39-.23,1.08a1.38,1.38,0,0,1-.43.65q-.6.46-1.45-.17l-.06,0-.08-.07-1.56-2L29.63,23.9l-.94-.14,3.75-2.89q.61-.47.46-1-.16-.2-.78.14l-.45.25a4.21,4.21,0,0,0-.39.27l-.2.17-.27.26-.26.27-.19.18a2.91,2.91,0,0,1-.64.38A2.57,2.57,0,0,1,29,22a1.29,1.29,0,0,1-1.26-.49,1.38,1.38,0,0,1-.25-.68l.16-.14.22-.15a.65.65,0,0,0,.06.66.63.63,0,0,0,.39.17.74.74,0,0,0,.45,0,1.65,1.65,0,0,0,.45-.26l1.63-1.46.19-.12.37-.17a1.81,1.81,0,0,1,1.2-.07,1.57,1.57,0,0,1,.95.71l1.61-1.24Z"/><path class="cls-6" d="M35.15,27.17a3.38,3.38,0,0,1-1-.17,5.92,5.92,0,0,1-1-.42c-.36-.19-.78-.44-1.23-.73a6.37,6.37,0,0,1-.7-.59c-.31-.29-.72-.69-1.2-1.19l-.16-.17.77-.15,0,.06a4.23,4.23,0,0,0,.36.41,3.79,3.79,0,0,0,.4.34l.31.2.63.4.43.24a3.07,3.07,0,0,0,.44.18,5.58,5.58,0,0,0,.76.21,3.3,3.3,0,0,0,.55.06,2.06,2.06,0,0,0,1.18-.47,2.26,2.26,0,0,0,.65-.81,1.56,1.56,0,0,0,.16-1l-.07-.4a.67.67,0,0,0-.13-.31,1.3,1.3,0,0,0-.59-.42c0,.08,0,.18,0,.33s-.12.62-.24,1.1a1.51,1.51,0,0,1-.48.72c-.44.35-1,.29-1.6-.17l-.06,0-.08-.06,0,0-1.48-1.92L29.66,24l-1.29-.19,4-3.06c.35-.27.49-.54.42-.81-.06,0-.25,0-.61.18l-.45.25a4.19,4.19,0,0,0-.38.26l-.2.17-.26.26-.26.27-.21.19a3.1,3.1,0,0,1-.67.4,2.71,2.71,0,0,1-.71.19,1.43,1.43,0,0,1-1.37-.54,1.5,1.5,0,0,1-.27-.74v-.07l.21-.18.56-.39-.14.37a.53.53,0,0,0,0,.54s.08.08.31.12a.64.64,0,0,0,.37,0,1.57,1.57,0,0,0,.42-.25l1.63-1.46a1.1,1.1,0,0,1,.21-.14l.39-.18a1.94,1.94,0,0,1,1.28-.08,1.68,1.68,0,0,1,.94.65l1.54-1.19,1.32.17-4,3.05,1.44,1.87c.05.07.09.08.12.07a1.8,1.8,0,0,0,.21-.56,5,5,0,0,0,.13-1.2c0-.41.06-.54.13-.59l0,0a1.33,1.33,0,0,1,.62,0,3.56,3.56,0,0,1,.74.28,5.33,5.33,0,0,1,.69.41,2.3,2.3,0,0,1,.47.45,2.62,2.62,0,0,1-.54,4.15A2.22,2.22,0,0,1,35.15,27.17Zm-4.78-3.11c.41.42.75.76,1,1a6.2,6.2,0,0,0,.67.57c.45.29.85.53,1.21.71a5.72,5.72,0,0,0,.93.4,2.25,2.25,0,0,0,2.18-.25,2.38,2.38,0,0,0,.5-3.8,2,2,0,0,0-.42-.4,4.94,4.94,0,0,0-.65-.39,3.27,3.27,0,0,0-.68-.26,1.14,1.14,0,0,0-.46,0,1.82,1.82,0,0,0,0,.38,5.16,5.16,0,0,1-.14,1.27c-.14.51-.24.64-.31.7l0,0a.35.35,0,0,1-.43-.15L32.15,21.8,35.83,19l-.61-.08-1.68,1.29-.07-.12a1.44,1.44,0,0,0-.87-.66,1.69,1.69,0,0,0-1.12.07l-.36.16-.17.11-1.63,1.46a1.74,1.74,0,0,1-.48.29.87.87,0,0,1-.52,0,.71.71,0,0,1-.46-.21.69.69,0,0,1-.15-.45l-.06.06a1.21,1.21,0,0,0,.21.55,1.17,1.17,0,0,0,1.14.44,2.45,2.45,0,0,0,.64-.17,2.79,2.79,0,0,0,.62-.37l.18-.17.25-.26.28-.27.21-.18a4.39,4.39,0,0,1,.41-.28l.46-.25c.31-.17.74-.36.94-.1l0,0c.12.39,0,.76-.5,1.1L29,23.68l.6.09,2.22-1.71,1.62,2.11.07.06.06,0c.52.39.95.44,1.3.17a1.27,1.27,0,0,0,.39-.59c.11-.46.19-.81.23-1.06a1.2,1.2,0,0,0,0-.42l-.08-.22.23.06a1.61,1.61,0,0,1,.89.56.91.91,0,0,1,.18.42l.07.39a1.8,1.8,0,0,1-.18,1.11,2.5,2.5,0,0,1-.72.89,2.3,2.3,0,0,1-1.32.52A3.52,3.52,0,0,1,34,26a5.92,5.92,0,0,1-.79-.22,3.35,3.35,0,0,1-.47-.19l-.45-.25-.63-.4-.33-.21a3.92,3.92,0,0,1-.43-.37,4.66,4.66,0,0,1-.33-.37Z"/><path class="cls-6" d="M41.13,14.26l-.9-.09-.35,0a6.18,6.18,0,0,0-.67,0,4.24,4.24,0,0,0-.57.08,7.9,7.9,0,0,0-.82.25,3.43,3.43,0,0,0-.62.3,2.29,2.29,0,0,0-.89,1l-.06.15-.08.22a2.33,2.33,0,0,0,0,1.47l.52.35,1.13-.71.86.27-1.43.9L41,24.26l-.87-.11-3.41-5.4-.79.5L34.95,19l1.41-.89-.83-.22a.4.4,0,0,1-.13-.07.61.61,0,0,1-.13-.15,1.31,1.31,0,0,1-.11-.22,2,2,0,0,1-.09-.33q0-.12,0-.33a3.33,3.33,0,0,1,.06-.56,2.47,2.47,0,0,1,.35-.92,3.23,3.23,0,0,1,.38-.5,2.27,2.27,0,0,1,.45-.38,4.63,4.63,0,0,1,1.47-.56,6.66,6.66,0,0,1,.81-.12q.39,0,.77,0l.62.07q.35.05.79.16Z"/><path class="cls-6" d="M41.2,24.41,40,24.27l0-.05-3.34-5.3-.73.46-1.27-.3,1.42-.9L35.5,18a.53.53,0,0,1-.17-.1.72.72,0,0,1-.16-.18,1.4,1.4,0,0,1-.12-.25,2.17,2.17,0,0,1-.1-.35v0c0-.08,0-.18,0-.32a3.37,3.37,0,0,1,.06-.59,2.62,2.62,0,0,1,.37-1,3.44,3.44,0,0,1,.39-.52,2.39,2.39,0,0,1,.48-.4,4.74,4.74,0,0,1,1.51-.57,6.93,6.93,0,0,1,.83-.12c.27,0,.53,0,.78,0s.41,0,.64.07.5.09.8.16l0,0,.68.55-.41,0-.91-.09-.33,0a5.61,5.61,0,0,0-.67,0,4,4,0,0,0-.56.08,7.66,7.66,0,0,0-.8.25,3.32,3.32,0,0,0-.6.29,2.18,2.18,0,0,0-.84.9l-.05.14-.08.22a2.29,2.29,0,0,0,0,1.34l.42.28,1.1-.7,1.17.36-1.55,1Zm-1-.38.55.07-3.63-5.76,1.3-.82-.54-.17-1.15.72-.61-.41,0,0a2.43,2.43,0,0,1,0-1.55l.08-.23.06-.16a2.42,2.42,0,0,1,.94-1,3.62,3.62,0,0,1,.64-.31,8.25,8.25,0,0,1,.83-.26,4.48,4.48,0,0,1,.6-.09,6.81,6.81,0,0,1,.69,0h0l.36,0,.49.05h0c-.28-.07-.53-.12-.75-.15l-.61-.07a7.09,7.09,0,0,0-.75,0,6.76,6.76,0,0,0-.79.12,4.51,4.51,0,0,0-1.43.54,2.2,2.2,0,0,0-.43.35,3.11,3.11,0,0,0-.36.48,2.36,2.36,0,0,0-.34.87,3.25,3.25,0,0,0-.05.54c0,.14,0,.24,0,.33a1.79,1.79,0,0,0,.08.29,1.23,1.23,0,0,0,.1.2.46.46,0,0,0,.1.12l.09.05,1.1.3-1.4.89.59.14.85-.54.07.11Z"/><path class="cls-6" d="M44.76,14.26l-1.62.85,3.22,6.16-.53-.19q-.16-.25-.35-.5t-.41-.51q-.23-.26-.51-.53L43.94,19a2.41,2.41,0,0,0-.5-.31,2.33,2.33,0,0,0-.66-.2,1.81,1.81,0,0,0-1.12.11l0,.13a1.54,1.54,0,0,1,.72.59A.82.82,0,0,1,42,20.53q-1.15.6-1.81-.67a1.49,1.49,0,0,1-.13-1.07,1.21,1.21,0,0,1,.64-.82l.4-.21a1.49,1.49,0,0,1,.69-.16,2.8,2.8,0,0,1,.89.16,6.33,6.33,0,0,1,1.53.89l-1.7-3.25-4.24,2.22-.92-.29L43.81,14Z"/><path class="cls-6" d="M46.62,21.48l-.87-.31,0,0c-.11-.17-.22-.33-.34-.5s-.26-.33-.41-.5-.32-.35-.5-.52-.4-.37-.62-.57a2.37,2.37,0,0,0-.47-.29,2.23,2.23,0,0,0-.62-.19,1.89,1.89,0,0,0-.94,0,1.54,1.54,0,0,1,.69.6,1.09,1.09,0,0,1,.13.83,1,1,0,0,1-.56.6,1.33,1.33,0,0,1-2-.72A1.61,1.61,0,0,1,40,18.76a1.33,1.33,0,0,1,.71-.9l.4-.21a1.61,1.61,0,0,1,.75-.17h0a2.92,2.92,0,0,1,.92.17,5.33,5.33,0,0,1,1.14.61l-1.4-2.68L38.3,17.77,37,17.38l6.75-3.53,1.29.38-1.78.93ZM45.91,21l.19.07-3.13-6,1.45-.76-.6-.18-6.13,3.2.58.18,4.31-2.25,2,3.84-.44-.32a6.23,6.23,0,0,0-1.5-.87,2.68,2.68,0,0,0-.84-.16h0a1.39,1.39,0,0,0-.63.14l-.4.21a1.09,1.09,0,0,0-.58.74,1.36,1.36,0,0,0,.12,1c.41.79.94,1,1.64.61A.81.81,0,0,0,42.4,20a.86.86,0,0,0-.11-.64,1.44,1.44,0,0,0-.66-.54l-.06,0,0-.28.08,0a1.92,1.92,0,0,1,1.2-.12,2.44,2.44,0,0,1,.7.21,2.56,2.56,0,0,1,.52.33c.23.2.44.4.63.58s.36.36.51.54.29.35.42.51Z"/><path class="cls-6" d="M52.58,11.41l-8.1,3L43.62,14l8.19-3Zm-.37,3.46a3.15,3.15,0,0,1,0,2.66,5.48,5.48,0,0,1-.29.47,2.71,2.71,0,0,1-.27.33,2.41,2.41,0,0,1-.83.47,3,3,0,0,1-1.15.13l-.29,0a.9.9,0,0,1-.23-.06,2.08,2.08,0,0,1-.33-.17l-.57-.37a9.62,9.62,0,0,1-.93-.73,7.81,7.81,0,0,1-.84-.88L46,16.14l-1-1.36h.43q.46.6.86,1.06a7.42,7.42,0,0,0,.78.78,5.72,5.72,0,0,0,1,.7,5.46,5.46,0,0,0,1.12.46h.21l.4,0,.41-.06.24-.06a1.76,1.76,0,0,0,1-1,2,2,0,0,0,0-1.49,2.3,2.3,0,0,0-.27-.5,3.43,3.43,0,0,0-.48-.54,2.64,2.64,0,0,1-1.53,2.08,1.44,1.44,0,0,1-1.18-.06,1.5,1.5,0,0,1-.79-.88,1.24,1.24,0,0,1-.08-.49,1.09,1.09,0,0,1,.11-.43,1.19,1.19,0,0,1,.71-.59.68.68,0,0,1,.6.11,1,1,0,0,1,.44.48,1.19,1.19,0,0,1-.1.82l.27.06A2.06,2.06,0,0,0,50.1,13,4.19,4.19,0,0,1,52.21,14.87Z"/><path class="cls-6" d="M49.86,19.06h-.23l-.3,0a1,1,0,0,1-.27-.07,2.15,2.15,0,0,1-.34-.18l-.58-.38a10.22,10.22,0,0,1-.94-.74,8.19,8.19,0,0,1-.86-.89l-.41-.57-1-1.35-.14-.19h.73l0,0c.3.39.59.75.86,1.05a7.28,7.28,0,0,0,.77.76,5.55,5.55,0,0,0,1,.68,5.35,5.35,0,0,0,1.09.45.55.55,0,0,0,.17,0l.39,0,.41-.06.22-.05a1.62,1.62,0,0,0,1-1,1.87,1.87,0,0,0,0-1.39,2.14,2.14,0,0,0-.26-.48,3,3,0,0,0-.31-.37,2.66,2.66,0,0,1-1.55,2A1.57,1.57,0,0,1,48,16.18a1.69,1.69,0,0,1-.51-.38,1.66,1.66,0,0,1-.34-.57,1.37,1.37,0,0,1-.09-.54,1.22,1.22,0,0,1,.12-.48,1.32,1.32,0,0,1,.78-.66.79.79,0,0,1,.71.12,1.09,1.09,0,0,1,.49.54,1.16,1.16,0,0,1,0,.78l.07,0A1.93,1.93,0,0,0,50,13l0-.24.21.11a4.24,4.24,0,0,1,2.16,1.91h0a3.29,3.29,0,0,1,0,2.76,5.66,5.66,0,0,1-.3.48,2.81,2.81,0,0,1-.28.34,2.52,2.52,0,0,1-.88.5A2.86,2.86,0,0,1,49.86,19.06ZM45.29,14.9l.85,1.16.4.55a7.78,7.78,0,0,0,.83.86,9.71,9.71,0,0,0,.92.72l.57.37a1.8,1.8,0,0,0,.3.16.78.78,0,0,0,.21.05l.28,0a2.89,2.89,0,0,0,1.1-.12,2.32,2.32,0,0,0,.79-.44,2.57,2.57,0,0,0,.25-.31c.09-.13.19-.29.29-.46a3,3,0,0,0,0-2.55h0a3.82,3.82,0,0,0-1.84-1.66,2.14,2.14,0,0,1-.92,2l0,0-.46-.1.05-.14a1.08,1.08,0,0,0,.1-.73.85.85,0,0,0-.38-.42.56.56,0,0,0-.5-.1,1.09,1.09,0,0,0-.64.53,1,1,0,0,0-.1.38,1.13,1.13,0,0,0,.08.44,1.41,1.41,0,0,0,.29.49,1.44,1.44,0,0,0,.44.32,1.31,1.31,0,0,0,1.08.05,2.54,2.54,0,0,0,1.45-2l0-.21.16.15a3.57,3.57,0,0,1,.5.57,2.4,2.4,0,0,1,.28.53,2.11,2.11,0,0,1,0,1.58,1.88,1.88,0,0,1-1.12,1.09l-.26.06-.42.06-.41,0a.78.78,0,0,1-.25,0A5.55,5.55,0,0,1,48,17.41a5.71,5.71,0,0,1-1-.71,7.54,7.54,0,0,1-.79-.79c-.26-.29-.54-.64-.83-1Zm-.81-.39L43.3,14l8.53-3.12,1.05.61ZM43.94,14l.55.26,7.8-2.85-.49-.28Z"/><path class="cls-6" d="M55.59,10.81l-1.74.45L55.6,18l-.8-.37-1.22-4.67a1.93,1.93,0,0,0-.22-.54,1.46,1.46,0,0,0-.26-.32L53,12l-.11-.11-.2-.13-.32-.15-.13,0-.83-.49.66-.17a.52.52,0,0,1,.43.06,2.85,2.85,0,0,1,.48.42,5,5,0,0,1,.7.92L53,10.77l-.35-1.33.3.14.16.37a1.63,1.63,0,0,0,.1.21,1.17,1.17,0,0,0,.45.43l1.09-.29Z"/><path class="cls-6" d="M55.79,18.21l-1.1-.5v-.06L53.46,13a1.8,1.8,0,0,0-.21-.51,1.35,1.35,0,0,0-.23-.29l-.08-.08-.1-.09-.18-.12-.26-.13-.14,0-1.14-.67,1-.25a.65.65,0,0,1,.53.08,2.92,2.92,0,0,1,.51.44l.07.08-.28-.66-.42-1.61.59.28,0,0,.16.38a1.56,1.56,0,0,0,.09.19,1,1,0,0,0,.36.36l1.09-.29,1.12.67-1.91.5Zm-.88-.68.51.23-1.72-6.59,1.57-.41-.52-.31-1.09.29,0,0a1.29,1.29,0,0,1-.5-.47A1.72,1.72,0,0,1,53,10l-.14-.33h0l.28,1.07.7,1.62-.22.11a4.89,4.89,0,0,0-.68-.9,2.62,2.62,0,0,0-.46-.4.38.38,0,0,0-.33-.05l-.37.1.53.31.12,0,0,0,.33.15.21.14.13.12.05.06a1.57,1.57,0,0,1,.28.35,2.08,2.08,0,0,1,.24.58Z"/><path class="cls-6" d="M61.8,9.67,60.08,10l1.22,6.84a3.27,3.27,0,0,1-.4-.4l-.7-.83a4.17,4.17,0,0,0-2.11-1.21,2.63,2.63,0,0,0-.56-.09,2.49,2.49,0,0,0-.58,0l-1.1-1a17.18,17.18,0,0,1,3.64-2.75l-.08-.45-4.32.77-.76-.56L61,9.12Zm-1.46,5.59-.66-3.72a8,8,0,0,0-2.36,1.82,5.68,5.68,0,0,1,1.67.69A6,6,0,0,1,60.33,15.27Zm-1.22.81a.7.7,0,0,1-.09.51.61.61,0,0,1-.43.3.87.87,0,0,1-.6-.1.67.67,0,0,1-.32-.49.62.62,0,0,1,.13-.51.76.76,0,0,1,1-.15A.66.66,0,0,1,59.11,16.08Z"/><path class="cls-6" d="M61.48,17.11l-.25-.19a3.26,3.26,0,0,1-.42-.42c-.18-.2-.42-.48-.71-.83a4.08,4.08,0,0,0-2.05-1.17,2.51,2.51,0,0,0-.53-.09,2.23,2.23,0,0,0-.55,0h-.06L55.67,13.3l.09-.09a17.48,17.48,0,0,1,3.59-2.73l0-.23L55.06,11l-1-.76L61.08,9l1,.76-1.87.33Zm-4.09-3h.14a2.84,2.84,0,0,1,.59.1,4.31,4.31,0,0,1,2.18,1.26c.29.35.52.62.7.82l.12.13L59.94,9.88l1.55-.28L61,9.25l-6.38,1.14.48.35L59.51,10l.12.66-.08,0A17,17,0,0,0,56,13.3l1,.89A2.66,2.66,0,0,1,57.39,14.16Zm1,2.87a1,1,0,0,1-.49-.13.8.8,0,0,1-.38-.58.74.74,0,0,1,.15-.61.88.88,0,0,1,.55-.32.86.86,0,0,1,.63.14.79.79,0,0,1,.35.53.82.82,0,0,1-.11.6.74.74,0,0,1-.51.35Zm0-1.41h-.1a.63.63,0,0,0-.4.23.49.49,0,0,0-.1.41.55.55,0,0,0,.26.41.74.74,0,0,0,.51.08.49.49,0,0,0,.34-.24A.57.57,0,0,0,59,16.1h0a.54.54,0,0,0-.24-.37A.66.66,0,0,0,58.4,15.62Zm2.14.08-.3-.35a6,6,0,0,0-1.32-1.18,5.59,5.59,0,0,0-1.64-.68l-.2-.05.14-.15a8.14,8.14,0,0,1,2.39-1.85l.15-.07Zm-3-2.39a5.62,5.62,0,0,1,1.51.65,5.72,5.72,0,0,1,1.08.9l-.56-3.12A7.88,7.88,0,0,0,57.55,13.3Z"/><path class="cls-6" d="M68.24,7.73l-.77-.49-.29-.18a6.18,6.18,0,0,0-.61-.29A4.29,4.29,0,0,0,66,6.58a7.94,7.94,0,0,0-.84-.14,3.44,3.44,0,0,0-.69,0,2.29,2.29,0,0,0-1.22.46L63.14,7,63,7.16a2.33,2.33,0,0,0-.65,1.32l.31.54,1.32-.13.65.62-1.68.17.69,6.91-.73-.49-.63-6.36-.93.09-.73-.61,1.66-.17-.64-.57a.39.39,0,0,1-.08-.12.61.61,0,0,1,0-.19,1.34,1.34,0,0,1,0-.25,2,2,0,0,1,.07-.33l.15-.3a3.34,3.34,0,0,1,.3-.48,2.48,2.48,0,0,1,.73-.66,3.22,3.22,0,0,1,.56-.28,2.26,2.26,0,0,1,.57-.13,4.63,4.63,0,0,1,1.56.16,6.67,6.67,0,0,1,.78.25q.37.15.7.32t.52.34q.29.2.63.5Z"/><path class="cls-6" d="M63.76,16.84l-1-.67-.62-6.29-.86.08-1-.84L61.95,9l-.43-.38a.5.5,0,0,1-.11-.16.7.7,0,0,1-.06-.24,1.44,1.44,0,0,1,0-.27,2,2,0,0,1,.07-.35v0l.15-.29a3.24,3.24,0,0,1,.31-.5A2.61,2.61,0,0,1,62.65,6a3.3,3.3,0,0,1,.59-.29,2.3,2.3,0,0,1,.6-.14,4.71,4.71,0,0,1,1.61.16,7,7,0,0,1,.79.26c.26.1.49.21.71.32s.35.21.54.35.4.3.64.5l0,0,.36.8-.35-.22-.77-.49-.28-.18a6,6,0,0,0-.6-.29A4.24,4.24,0,0,0,66,6.7a7.83,7.83,0,0,0-.83-.14,3.73,3.73,0,0,0-.67,0A2.19,2.19,0,0,0,63.34,7l-.11.1-.17.16a2.31,2.31,0,0,0-.61,1.2l.25.44L64,8.76l.89.85-1.82.18ZM63,16l.47.31-.67-6.77,1.53-.15L63.9,9l-1.35.13-.36-.65v0a2.43,2.43,0,0,1,.68-1.4l.18-.17.13-.12a2.42,2.42,0,0,1,1.29-.48,3.47,3.47,0,0,1,.72,0,8.09,8.09,0,0,1,.86.14,4.39,4.39,0,0,1,.57.19,6.66,6.66,0,0,1,.62.3l.3.19L68,7.4v0c-.22-.19-.42-.34-.6-.47a6,6,0,0,0-.51-.33c-.21-.11-.43-.21-.68-.31A6.84,6.84,0,0,0,65.39,6a4.53,4.53,0,0,0-1.52-.16,2.12,2.12,0,0,0-.54.13,3,3,0,0,0-.54.27,2.37,2.37,0,0,0-.69.63,3.18,3.18,0,0,0-.29.46l-.15.29a1.94,1.94,0,0,0-.06.3,1.24,1.24,0,0,0,0,.22.47.47,0,0,0,0,.15.25.25,0,0,0,.05.08l.85.76-1.65.16.46.39,1-.1v.12Z"/><path class="cls-6" d="M71.91,9.35l-1.77,0,.1,6.95-.69-.55,0-3.05a2.35,2.35,0,0,0-.11-.32,1.57,1.57,0,0,0-.18-.31.72.72,0,0,0-.56-.35.94.94,0,0,0-.71.48L67,13.58a1,1,0,0,1-.34.36,1.55,1.55,0,0,1-.51.06q-.71,0-1.44-1.48l.45-.45a1.14,1.14,0,0,0,.24.58q.22.32.44.32a.51.51,0,0,0,.37-.21l.12-.15.15-.21.57-.82a3.34,3.34,0,0,0-.14-.69,1.49,1.49,0,0,0-.42-.59l-.26-.09-.37-.1h-.54a1.13,1.13,0,0,1-.5-.12l-.12-.09a.8.8,0,0,1-.12-.15,1.41,1.41,0,0,0-.21-.27l-.27-.26-.44-.41,7.54-.11Zm-2.42,2.39,0-2.35-3,0q.23.21.38.37a3.3,3.3,0,0,1,.24.3,1.73,1.73,0,0,1,.21.42,1.47,1.47,0,0,1,.08.45.58.58,0,0,1,0,.26l.47-.35a.86.86,0,0,1,.51-.17.64.64,0,0,1,.51.28Z"/><path class="cls-6" d="M70.36,16.59l-.94-.75,0-3.09a2.11,2.11,0,0,0-.1-.28,1.42,1.42,0,0,0-.17-.28.61.61,0,0,0-.46-.3h0a.84.84,0,0,0-.61.42l-.93,1.34a1.07,1.07,0,0,1-.39.41,1.63,1.63,0,0,1-.56.07h0c-.53,0-1-.51-1.54-1.55l0-.08.73-.71v.29a1,1,0,0,0,.22.51c.08.12.21.27.34.27h0a.39.39,0,0,0,.27-.16l.11-.15.15-.2.55-.78A2.88,2.88,0,0,0,66.8,11a1.38,1.38,0,0,0-.38-.54l-.23-.08-.37-.1h-.52a1.22,1.22,0,0,1-.55-.13L64.62,10a.94.94,0,0,1-.14-.17,1.47,1.47,0,0,0-.17-.23L64,9.29l-.44-.41-.24-.21,7.91-.11,1,.92-1.95,0Zm-.7-.87.44.35L70,9.26l1.59,0-.44-.43L64,8.91l.21.2.27.26a1.21,1.21,0,0,1,.22.29l.1.13.09.07a1,1,0,0,0,.45.1c.19,0,.36,0,.54,0l.41.1.28.1,0,0a1.63,1.63,0,0,1,.45.64,2.18,2.18,0,0,1,.11.53l.1-.21a.45.45,0,0,0,0-.2,1.35,1.35,0,0,0-.07-.41,1.56,1.56,0,0,0-.19-.38,3,3,0,0,0-.23-.29c-.1-.11-.22-.23-.37-.37l-.23-.21,3.4,0,0,2.83-.86-1a.52.52,0,0,0-.42-.23.74.74,0,0,0-.44.14l-.73.54v.09l-.6.86-.15.21-.12.15a.64.64,0,0,1-.46.26h0a.7.7,0,0,1-.54-.38,1.74,1.74,0,0,1-.21-.4l-.22.22c.44.88.87,1.33,1.27,1.33h0a1.4,1.4,0,0,0,.47-.05s.11-.06.28-.32l.94-1.35a1.07,1.07,0,0,1,.81-.53h0a.85.85,0,0,1,.65.4,1.69,1.69,0,0,1,.2.33,2.35,2.35,0,0,1,.12.33v0Zm-1.32-5.13a.76.76,0,0,1,.6.33l.4.48,0-1.88-2.52,0,.16.17a3.3,3.3,0,0,1,.25.31,1.83,1.83,0,0,1,.22.45,1.58,1.58,0,0,1,.08.47l.22-.17a1,1,0,0,1,.59-.19Z"/><path class="cls-6" d="M78.58,8.54l-.67-.61-.26-.23a6.16,6.16,0,0,0-.55-.39A4.31,4.31,0,0,0,76.58,7a7.92,7.92,0,0,0-.81-.28,3.44,3.44,0,0,0-.68-.12,2.29,2.29,0,0,0-1.28.25L73.67,7l-.19.13a2.33,2.33,0,0,0-.87,1.19l.21.59L74.15,9l.54.72L73,9.57l-.48,6.93-.64-.6.45-6.37-.93-.07-.62-.73,1.67.12-.54-.67A.4.4,0,0,1,71.84,8a.61.61,0,0,1,0-.2,1.32,1.32,0,0,1,0-.24A2,2,0,0,1,72,7.28l.2-.27a3.31,3.31,0,0,1,.38-.42,2.47,2.47,0,0,1,.83-.53,3.23,3.23,0,0,1,.6-.18,2.27,2.27,0,0,1,.59,0,4.63,4.63,0,0,1,1.51.42,6.69,6.69,0,0,1,.72.38q.34.21.64.43t.46.42q.25.25.54.6Z"/><path class="cls-6" d="M72.63,16.77l-.88-.82v-.06l.44-6.25-.86-.06-.85-1,1.68.12-.36-.45a.53.53,0,0,1-.08-.18.71.71,0,0,1,0-.24,1.49,1.49,0,0,1,0-.27,2,2,0,0,1,.13-.34l.21-.28a3.3,3.3,0,0,1,.39-.44,2.61,2.61,0,0,1,.87-.56A3.52,3.52,0,0,1,74,5.76a2.45,2.45,0,0,1,.62,0,4.78,4.78,0,0,1,1.56.43,6.67,6.67,0,0,1,.74.39c.23.14.45.29.65.44s.31.27.47.43.35.37.54.61l0,0,.22.85-.31-.28L77.82,8l-.25-.22A6.27,6.27,0,0,0,77,7.42a4.3,4.3,0,0,0-.5-.27,8,8,0,0,0-.79-.27,3.37,3.37,0,0,0-.65-.12A2.17,2.17,0,0,0,73.87,7l-.12.08-.2.13a2.3,2.3,0,0,0-.8,1.08l.17.48,1.3.09.73,1L73.12,9.7ZM72,15.85l.41.38.47-6.79,1.54.11-.34-.46L72.74,9l-.25-.7v0A2.44,2.44,0,0,1,73.4,7l.21-.14.15-.09a2.48,2.48,0,0,1,1.35-.26,3.67,3.67,0,0,1,.7.13,8.16,8.16,0,0,1,.82.28,4.4,4.4,0,0,1,.53.28,6.55,6.55,0,0,1,.56.4l.27.24.36.33v0c-.18-.22-.36-.41-.51-.57s-.31-.3-.45-.42-.4-.28-.62-.42a6.6,6.6,0,0,0-.71-.37A4.53,4.53,0,0,0,74.58,6,2.12,2.12,0,0,0,74,6a3.13,3.13,0,0,0-.58.17,2.36,2.36,0,0,0-.79.5,3.24,3.24,0,0,0-.36.4l-.21.27a2,2,0,0,0-.1.27,1.11,1.11,0,0,0,0,.22A.47.47,0,0,0,72,8a.26.26,0,0,0,0,.09l.71.89-1.66-.12.39.46,1,.07Z"/><path class="cls-6" d="M80.6,10.52l-4.79-.69-.68,4.69a.62.62,0,0,0,.06.34.28.28,0,0,0,.23.19,1.65,1.65,0,0,0,1.06-.35,3.69,3.69,0,0,0,.48-.36,2.42,2.42,0,0,0,.36-.4.7.7,0,0,0,.1-.23.86.86,0,0,0,0-.22h-.21a.87.87,0,0,1-.56-.29.74.74,0,0,1-.16-.6,1.27,1.27,0,0,1,.1-.36.77.77,0,0,1,.21-.27.75.75,0,0,1,.64-.16,1.06,1.06,0,0,1,.84.55,1.71,1.71,0,0,1,.16,1.08,2.83,2.83,0,0,1-.14.57,3.55,3.55,0,0,1-.25.53,2.16,2.16,0,0,1-.2.28,3.2,3.2,0,0,1-.41.41,3.09,3.09,0,0,1-1,.61,2.28,2.28,0,0,1-1.06.1q-.39-.06-.7-.64a1.62,1.62,0,0,1-.22-.94l.67-4.63-.86-.12-.56-.77,4.4.63.34,0h.24a.65.65,0,0,0,.44-.35q0-.26-.65-.48a5.72,5.72,0,0,0-1-.23,4.66,4.66,0,0,0-.64,0h-.37l-.26,0a2.65,2.65,0,0,1-1.31-.53,1.3,1.3,0,0,1-.52-1.24,1.4,1.4,0,0,1,.31-.67h.2l.27.05a.66.66,0,0,0-.43.51.31.31,0,0,0,0,.17,1.82,1.82,0,0,0,.13.22.76.76,0,0,0,.3.32l.26.08.23,0,2.18.15a.87.87,0,0,1,.23.06l.39.15a1.81,1.81,0,0,1,.9.81,1.56,1.56,0,0,1,.15,1.16l.45.06Z"/><path class="cls-6" d="M75.72,16.1l-.34,0a1.17,1.17,0,0,1-.8-.71,1.76,1.76,0,0,1-.24-1L75,9.84l-.78-.11-.77-1.05,4.69.67.33,0h.21A.52.52,0,0,0,79,9.11c0-.07-.16-.2-.56-.33a5.58,5.58,0,0,0-.95-.23,4.33,4.33,0,0,0-.62,0h-.38l-.27,0a2.79,2.79,0,0,1-1.37-.56,1.43,1.43,0,0,1-.56-1.36,1.53,1.53,0,0,1,.34-.73l0-.05.27,0,.67.13-.36.16a.54.54,0,0,0-.36.42.19.19,0,0,0,0,.1,1.64,1.64,0,0,0,.12.21c.14.22.22.26.24.27l.24.08.22,0,2.18.15a1,1,0,0,1,.27.07l.39.16a1.94,1.94,0,0,1,1,.87,1.68,1.68,0,0,1,.19,1.12l.37.05.79,1.06-5-.71-.66,4.57a.5.5,0,0,0,0,.27.16.16,0,0,0,.13.11,1.53,1.53,0,0,0,1-.33,3.37,3.37,0,0,0,.46-.35,2.28,2.28,0,0,0,.34-.38.6.6,0,0,0,.08-.19v-.06h-.07a1,1,0,0,1-.66-.34.87.87,0,0,1-.19-.7,1.41,1.41,0,0,1,.11-.39.89.89,0,0,1,.24-.31.87.87,0,0,1,.74-.19,1.19,1.19,0,0,1,.93.62,1.86,1.86,0,0,1,.17,1.16,3,3,0,0,1-.15.6,3.75,3.75,0,0,1-.26.55,2.21,2.21,0,0,1-.21.3,3.27,3.27,0,0,1-.42.43,3.22,3.22,0,0,1-1.07.63A2.43,2.43,0,0,1,75.72,16.1ZM74.35,9.49l.93.13-.69,4.76a1.51,1.51,0,0,0,.21.87c.19.35.39.54.61.58a2.21,2.21,0,0,0,1-.09,3,3,0,0,0,1-.58,3.14,3.14,0,0,0,.39-.4,2.09,2.09,0,0,0,.19-.26,3.59,3.59,0,0,0,.25-.52,2.68,2.68,0,0,0,.13-.55,1.6,1.6,0,0,0-.15-1,.94.94,0,0,0-.75-.49.61.61,0,0,0-.54.13.65.65,0,0,0-.18.23,1.17,1.17,0,0,0-.09.32.61.61,0,0,0,.13.5.74.74,0,0,0,.48.25h.32v.12a1.05,1.05,0,0,1,0,.25.83.83,0,0,1-.12.27,2.52,2.52,0,0,1-.38.42,3.78,3.78,0,0,1-.5.37,1.78,1.78,0,0,1-1.15.37.41.41,0,0,1-.32-.26A.75.75,0,0,1,75,14.5l.69-4.81,4.61.66-.37-.49-.53-.08,0-.13a1.42,1.42,0,0,0-.14-1.07,1.69,1.69,0,0,0-.84-.76l-.38-.15a.72.72,0,0,0-.19-.05l-2.18-.15-.25,0-.28-.09A.84.84,0,0,1,74.83,7a1.94,1.94,0,0,1-.13-.24.43.43,0,0,1,0-.24.71.71,0,0,1,.22-.43H74.8a1.24,1.24,0,0,0-.25.55A1.17,1.17,0,0,0,75,7.74a2.54,2.54,0,0,0,1.25.5l.25,0H77a4.35,4.35,0,0,1,.59,0,5.93,5.93,0,0,1,1,.24c.19.06.79.25.73.62l0,0a.77.77,0,0,1-.52.41,1.09,1.09,0,0,1-.28,0l-.35,0L74,9Z"/><path class="cls-6" d="M91.19,13.72l-1.69-.56-2.19,6.59L86.82,19,88,15.33s0-.07,0-.14,0-.18,0-.31a3.13,3.13,0,0,0-.06-.68,1.79,1.79,0,0,0-.21-.55l-.14-.23L87.42,13a1.7,1.7,0,0,0-.79-.61q-1.32-.44-1.85.48l.51.05.34.08a1.54,1.54,0,0,1,.77.53.93.93,0,0,1,.16.88,2.41,2.41,0,0,1-.83,1l-.37.3-.67.52-.51-1.14a2.67,2.67,0,0,0,.41-.17l.59-.31q.81-.43.89-.67a.25.25,0,0,0-.06-.23.42.42,0,0,0-.22-.17,1.89,1.89,0,0,0-.7.07l-.45.07a.75.75,0,0,1-.27,0,.68.68,0,0,1-.43-.47,1.43,1.43,0,0,1-.07-.36.86.86,0,0,1,0-.33,1.61,1.61,0,0,1,.55-.74,2.27,2.27,0,0,1,.41-.27,2,2,0,0,1,.41-.16,2,2,0,0,1,1.13.08,2.86,2.86,0,0,1,1.24.79,3.27,3.27,0,0,1,.72,1.39,5.07,5.07,0,0,1,.09,1.21q.13-.76.23-1.26a6.71,6.71,0,0,1,.18-.73l.63-1.9.24.57,0,.06,0,.07,0,.13a.62.62,0,0,0,.08.68l1.06.35Z"/><path class="cls-6" d="M87.35,20l-.67-1,0-.06,1.23-3.69s0-.06,0-.11,0-.18,0-.32a3.06,3.06,0,0,0-.05-.65,1.69,1.69,0,0,0-.19-.52l-.14-.23-.23-.38a1.57,1.57,0,0,0-.72-.55c-.73-.24-1.25-.16-1.58.25l.3,0,.36.08a1.68,1.68,0,0,1,.83.58,1.05,1.05,0,0,1,.18,1,2.55,2.55,0,0,1-.87,1.09l-.37.3-.67.52-.13.1L84,15.09l.14,0a2.75,2.75,0,0,0,.39-.17l.58-.31c.69-.37.81-.54.83-.6s0-.07,0-.11a.3.3,0,0,0-.16-.12,1.8,1.8,0,0,0-.63.07,3.78,3.78,0,0,1-.47.07.88.88,0,0,1-.32,0,.79.79,0,0,1-.51-.55,1.56,1.56,0,0,1-.08-.39,1,1,0,0,1,0-.37,1.73,1.73,0,0,1,.59-.79,2.32,2.32,0,0,1,.43-.29,2.19,2.19,0,0,1,.44-.17,2.1,2.1,0,0,1,1.21.08,3,3,0,0,1,1.29.82,3.42,3.42,0,0,1,.74,1.45s0,.1,0,.16l0-.21a7.07,7.07,0,0,1,.18-.75l.74-2.22.38.92v0l0,.08,0,.08,0,.12a.53.53,0,0,0,0,.53l1.08.36.58,1.18-1.86-.62ZM87,19l.31.45L89.42,13l1.53.51L90.68,13l-1.06-.37a.74.74,0,0,1-.11-.81l.08-.22h0l-.09-.21L89,12.93a6.9,6.9,0,0,0-.17.72q-.1.5-.23,1.26l-.25,0a5,5,0,0,0-.08-1.18,3.16,3.16,0,0,0-.69-1.34,2.73,2.73,0,0,0-1.19-.75,1.83,1.83,0,0,0-1.06-.07,1.86,1.86,0,0,0-.39.15,2,2,0,0,0-.38.26,1.51,1.51,0,0,0-.51.68.74.74,0,0,0,0,.28,1.27,1.27,0,0,0,.07.33.55.55,0,0,0,.35.39.59.59,0,0,0,.22,0l.44-.06a1.68,1.68,0,0,1,.76-.07.55.55,0,0,1,.28.22.36.36,0,0,1,.08.34c0,.12-.18.33-.95.74l-.59.31-.3.13.39.88.54-.42.36-.29a2.3,2.3,0,0,0,.79-1,.81.81,0,0,0-.14-.77,1.41,1.41,0,0,0-.71-.49l-.32-.07L84.77,13h-.2l.1-.17c.39-.67,1.06-.85,2-.54a1.83,1.83,0,0,1,.85.65l.24.39.14.23a1.91,1.91,0,0,1,.23.6,3.26,3.26,0,0,1,.06.71c0,.13,0,.23,0,.3s0,.13,0,.15v0Z"/><path class="cls-6" d="M93.83,15l-1.65-.71-2.74,6.38L89,19.9l1.9-4.43a1.93,1.93,0,0,0,.16-.56,1.46,1.46,0,0,0,0-.41.54.54,0,0,1,0-.1,1,1,0,0,0,0-.15A1.41,1.41,0,0,0,91,14a2.88,2.88,0,0,0-.16-.31l-.12-.05-.36-.9L91,13a.52.52,0,0,1,.3.31,2.85,2.85,0,0,1,.13.63,5,5,0,0,1,0,1.16l.45-1.73.54-1.26.15.3-.11.39a1.6,1.6,0,0,0-.05.22,1.17,1.17,0,0,0,.09.62l1,.45Z"/><path class="cls-6" d="M89.44,21l-.56-1.07,1.93-4.48a1.81,1.81,0,0,0,.15-.53,1.36,1.36,0,0,0,0-.37.68.68,0,0,1,0-.11.94.94,0,0,0,0-.13,1.33,1.33,0,0,0-.07-.2,2.7,2.7,0,0,0-.13-.26l-.13-.06-.49-1.23.9.39a.65.65,0,0,1,.37.39,3,3,0,0,1,.13.66v.1l.18-.69.65-1.52.29.58v0l-.11.39a1.55,1.55,0,0,0,0,.2,1,1,0,0,0,.06.51l1,.45.47,1.22-1.81-.78Zm-.28-1.08.26.5,2.69-6.25,1.49.64-.22-.57-1-.44,0,0a1.29,1.29,0,0,1-.1-.68,1.56,1.56,0,0,1,.05-.24l.09-.34v0l-.44,1-.44,1.71-.25,0a4.91,4.91,0,0,0,0-1.13,2.81,2.81,0,0,0-.12-.6.4.4,0,0,0-.23-.24L90.56,13l.23.57.11,0,0,0a3.21,3.21,0,0,1,.17.32,1.77,1.77,0,0,1,.08.24,1.35,1.35,0,0,1,0,.17.4.4,0,0,0,0,.07,1.55,1.55,0,0,1,0,.45,2.07,2.07,0,0,1-.17.6Z"/><path class="cls-6" d="M100.46,18.52l-1.55-.83-3.3,6.11L95.28,23l1.82-3.37a.33.33,0,0,0,0-.11q0-.09,0-.24a.9.9,0,0,0-.48-.89.41.41,0,0,0-.44.09,1.14,1.14,0,0,0-.32.36l-.1.33-.32,0a2.51,2.51,0,0,0,0-1,1.35,1.35,0,0,0-.69-.77,1.17,1.17,0,0,0-.94-.09,1.2,1.2,0,0,0-.73.61.88.88,0,0,0,.37,1.24,2.36,2.36,0,0,1,0-.32.56.56,0,0,1,.06-.23.69.69,0,0,1,.46-.34.73.73,0,0,1,.58,0,.77.77,0,0,1,.38.65,1.25,1.25,0,0,1-.14.75.7.7,0,0,1-.62.36,1.26,1.26,0,0,1-.72-.16,2,2,0,0,1-.6-.48,1.9,1.9,0,0,1-.35-.65,1.86,1.86,0,0,1,.19-1.46,2.2,2.2,0,0,1,.93-.94,1.3,1.3,0,0,1,1.29,0,1.65,1.65,0,0,1,.92,1.44v0a.72.72,0,0,1,.52-.27.92.92,0,0,1,.58,0,.93.93,0,0,1,.44.48,1.47,1.47,0,0,1,.06.27,3.9,3.9,0,0,1,0,.4v.13q0,.12,0,.34l.9-1.67-4.87-2.63-.28-.93,7,3.8Z"/><path class="cls-6" d="M95.6,24.1,95.14,23,97,19.57h0s0,0,0-.06,0-.14,0-.24a.77.77,0,0,0-.41-.78c-.07,0-.17,0-.3.08a1,1,0,0,0-.29.32l-.12.41-.55-.07v-.12a2.41,2.41,0,0,0,0-1,1.23,1.23,0,0,0-.63-.7,1,1,0,0,0-.84-.08,1.07,1.07,0,0,0-.66.55.69.69,0,0,0,.13.9v-.06a.68.68,0,0,1,.07-.29.82.82,0,0,1,.54-.4.86.86,0,0,1,.67.06.89.89,0,0,1,.44.75,1.39,1.39,0,0,1-.16.82.83.83,0,0,1-.73.43,1.4,1.4,0,0,1-.79-.17,2.12,2.12,0,0,1-.64-.51,2,2,0,0,1-.37-.69,2,2,0,0,1,.2-1.55,2.34,2.34,0,0,1,1-1,1.42,1.42,0,0,1,1.4,0,1.77,1.77,0,0,1,1,1.28,1.25,1.25,0,0,1,.42-.15,1,1,0,0,1,.66,0,1.06,1.06,0,0,1,.5.55,1.64,1.64,0,0,1,.07.3c0,.1,0,.21,0,.35l.58-1.08-4.8-2.59,0,0L93,13.56l7.35,4,.34,1.25L99,17.86ZM95.42,23l.21.52,3.23-6,1.4.75-.16-.58-6.73-3.63.18.59,4.93,2.66-1.21,2.25,0-.53c0-.15,0-.26,0-.34s0-.13,0-.14,0-.26,0-.37a1.35,1.35,0,0,0-.05-.25.8.8,0,0,0-.38-.41s-.17-.06-.49,0-.39.12-.44.21l-.21.39,0-.42a1.52,1.52,0,0,0-.86-1.34,1.17,1.17,0,0,0-1.17,0,2.09,2.09,0,0,0-.87.89,1.72,1.72,0,0,0-.18,1.36,1.77,1.77,0,0,0,.32.6,1.86,1.86,0,0,0,.56.45,1.13,1.13,0,0,0,.65.15.58.58,0,0,0,.52-.3,1.13,1.13,0,0,0,.13-.67.64.64,0,0,0-.31-.55.6.6,0,0,0-.48,0,.57.57,0,0,0-.39.28.45.45,0,0,0,0,.18,2.18,2.18,0,0,0,0,.31l0,.27-.22-.16a1,1,0,0,1-.41-1.4,1.33,1.33,0,0,1,.81-.67,1.3,1.3,0,0,1,1,.1,1.48,1.48,0,0,1,.75.84,2.41,2.41,0,0,1,.06,1h.09l.07-.23a1.25,1.25,0,0,1,.37-.43.53.53,0,0,1,.57-.1,1,1,0,0,1,.54,1q0,.16,0,.25a.39.39,0,0,1,0,.17Z"/><path class="cls-6" d="M103.09,15.56l-3.93.84-1.38-.88,4.85-.36Zm-2,3.52-1.12-.71-.19-.93,1.12.71Z"/><path class="cls-6" d="M101.22,19.34l-1.42-.9-.26-1.27,1.42.9ZM100,18.29l.83.53-.12-.59-.83-.53Zm-.89-1.75-1.75-1.11,5.28-.39.69.59Zm-1-.91,1,.65,3.63-.78-.23-.19Z"/><path class="cls-6" d="M106.9,23.29l-1.43-1-4.1,5.6-.22-.85,1.8-2.46a2.33,2.33,0,0,0,.1-.32,1.56,1.56,0,0,0,0-.36.72.72,0,0,0-.24-.62.94.94,0,0,0-.85,0l-1.56.51a1,1,0,0,1-.49.09,1.55,1.55,0,0,1-.45-.26q-.57-.42-.26-2l.63-.08a1.14,1.14,0,0,0-.16.61.58.58,0,0,0,.16.52.51.51,0,0,0,.42.06l.18-.05.25-.08,1-.31a3.34,3.34,0,0,0,.31-.64,1.5,1.5,0,0,0,0-.73,2.12,2.12,0,0,0-.15-.23l-.24-.3-.21-.17-.21-.17a1.13,1.13,0,0,1-.33-.4.65.65,0,0,1,0-.14.81.81,0,0,1,0-.19,1.42,1.42,0,0,0,0-.34l-.06-.37q0-.24-.11-.59l6.08,4.45Zm-3.37.45,1.39-1.9-2.38-1.75q.06.3.08.53a3.31,3.31,0,0,1,0,.39,1.74,1.74,0,0,1-.08.46,1.47,1.47,0,0,1-.21.41.58.58,0,0,1-.19.18h.58a.86.86,0,0,1,.51.18.64.64,0,0,1,.24.53Z"/><path class="cls-6" d="M101.32,28.13,101,27l1.83-2.5a2.61,2.61,0,0,0,.09-.29,1.52,1.52,0,0,0,0-.33.61.61,0,0,0-.19-.51.84.84,0,0,0-.75,0l-1.55.51a1.09,1.09,0,0,1-.56.09,1.64,1.64,0,0,1-.49-.28c-.43-.31-.53-1-.3-2.17l0-.09,1-.13-.17.24a1,1,0,0,0-.14.54c0,.22,0,.36.11.42a.4.4,0,0,0,.32,0l.18,0,.24-.07.91-.3a2.76,2.76,0,0,0,.27-.56,1.39,1.39,0,0,0,0-.66l-.13-.2-.24-.3-.19-.15-.21-.18a1.24,1.24,0,0,1-.36-.44.89.89,0,0,1,0-.17,1,1,0,0,1,0-.22,1.51,1.51,0,0,0,0-.29l-.06-.39q0-.24-.11-.59l-.06-.32,6.38,4.67.21,1.31-1.57-1.15Zm0-1.11.14.54,4-5.49,1.28.94-.1-.61-5.78-4.24,0,.29.06.37a1.29,1.29,0,0,1,0,.37.75.75,0,0,0,0,.16.55.55,0,0,0,0,.12,1,1,0,0,0,.29.35l.2.17.21.17.26.33a2.14,2.14,0,0,1,.16.25v0a1.63,1.63,0,0,1,0,.79,2.11,2.11,0,0,1-.23.49l.2-.1a.46.46,0,0,0,.15-.14,1.35,1.35,0,0,0,.2-.37,1.68,1.68,0,0,0,.08-.42,3.29,3.29,0,0,0,0-.37,5,5,0,0,0-.08-.51l-.06-.31,2.74,2-1.67,2.28-.07-1.33a.52.52,0,0,0-.19-.44.75.75,0,0,0-.44-.15h-.91l0,0,0,0-1,.33-.25.08-.18,0a.64.64,0,0,1-.53-.08A.69.69,0,0,1,99.6,22a1.73,1.73,0,0,1,.07-.45l-.31,0c-.18,1-.1,1.59.22,1.83a1.38,1.38,0,0,0,.4.24s.12,0,.42-.08l1.56-.51a1.07,1.07,0,0,1,1,.07.84.84,0,0,1,.29.72,1.68,1.68,0,0,1,0,.38,2.63,2.63,0,0,1-.1.34l0,0Zm1.17-5.09h.28a1,1,0,0,1,.58.2.76.76,0,0,1,.29.63l0,.63,1.11-1.52-2-1.49c0,.08,0,.16,0,.23a3.62,3.62,0,0,1,0,.4,2,2,0,0,1-.09.49A1.62,1.62,0,0,1,102.45,21.93Z"/><path class="cls-6" d="M114.45,31l-1.05-1.12a2.11,2.11,0,0,1-.29.63,3,3,0,0,1-.43.52.8.8,0,0,1-.19.13,1.17,1.17,0,0,1-.24.09l-.27,0a1,1,0,0,1-.28,0,.71.71,0,0,1-.21-.07l-.21-.12-.19-.15-.15-.15a2.1,2.1,0,0,1-.31-1.95,1.4,1.4,0,0,1,.34-.52l-.54.22a4.52,4.52,0,0,1-.53.16q-.87.19-1.17-.13a1.5,1.5,0,0,1,0-1.54l.34-.12a2.25,2.25,0,0,0,.14.73q.21.22.8.12a1.42,1.42,0,0,0,.78-.31q.19-.18.08-.29l-1.34-1.43.14-.85,4.95,5.27Zm-1.83-.85a1.07,1.07,0,0,0,.25-.44.43.43,0,0,0,0-.44l-1.11-1.18a1.85,1.85,0,0,0-.36.48,1.42,1.42,0,0,0-.17.58,1.22,1.22,0,0,0,.41,1l.31.14.16.06a.48.48,0,0,0,.29,0A.8.8,0,0,0,112.62,30.12Z"/><path class="cls-6" d="M111.93,31.37a1.11,1.11,0,0,1-.28,0,.78.78,0,0,1-.23-.08l-.22-.13L111,31l-.16-.15a2.22,2.22,0,0,1-.33-2.08,1.7,1.7,0,0,1,.08-.19l-.13,0a4.77,4.77,0,0,1-.55.16c-.64.14-1.06.08-1.29-.17a1.61,1.61,0,0,1-.05-1.71l0,0,.52-.18,0,.16a2.65,2.65,0,0,0,.11.67c.1.11.34.14.69.08a1.33,1.33,0,0,0,.72-.27c.08-.07.08-.11.08-.11l-1.39-1.48.19-1.17,5.16,5.5-.15,1.2-1.09-1.16a2.25,2.25,0,0,1-.24.46,3.11,3.11,0,0,1-.45.54.93.93,0,0,1-.22.15,1.35,1.35,0,0,1-.27.1,1.52,1.52,0,0,1-.3,0Zm-.32-3.56-.56.53a1.31,1.31,0,0,0-.31.48,2,2,0,0,0,.28,1.82l.14.14.18.14.19.12a.57.57,0,0,0,.17.06,1,1,0,0,0,.25,0l.25,0,.21-.08a.67.67,0,0,0,.16-.11,2.9,2.9,0,0,0,.42-.5,2,2,0,0,0,.27-.59l.06-.22,1,1.09.07-.56-4.73-5-.09.54,1.3,1.39c.06.06.16.23-.09.46a1.56,1.56,0,0,1-.85.34,1,1,0,0,1-.91-.16s-.09-.14-.16-.65l-.16.05a1.11,1.11,0,0,0-.14.67,1,1,0,0,0,.2.69c.17.18.53.21,1.06.09a4.73,4.73,0,0,0,.52-.15l.53-.22Zm.55,2.63-.13,0-.18-.06-.31-.13,0,0a1.34,1.34,0,0,1-.45-1.09,1.55,1.55,0,0,1,.18-.64,2,2,0,0,1,.39-.51l.09-.09,1.2,1.27a.54.54,0,0,1,.07.56,1.18,1.18,0,0,1-.28.5h0a.91.91,0,0,1-.3.18A.66.66,0,0,1,112.17,30.44Zm-.51-.44.29.13.14,0a.36.36,0,0,0,.23,0,.66.66,0,0,0,.22-.13h0a1,1,0,0,0,.21-.39c0-.15,0-.25,0-.31l-1-1.09a1.76,1.76,0,0,0-.25.36,1.29,1.29,0,0,0-.15.53A1.08,1.08,0,0,0,111.66,30Z"/><path class="cls-6" d="M111.06,34a1.21,1.21,0,0,1-.77.24.83.83,0,0,1-.69-.29.56.56,0,0,1-.12-.44.63.63,0,0,1,.23-.4.88.88,0,0,1,.62-.14l.28.21a.66.66,0,0,1,.11.19.23.23,0,0,1,0,.17l.14,0a1,1,0,0,0,.35-.86,2,2,0,0,0-.07-.36q-.06-.24-.17-.59l-.16-.15L108,33.81l0-.43a2.53,2.53,0,0,0,.22-1.67,2.76,2.76,0,0,0-.28-.69,5.71,5.71,0,0,0-.56-.8l.36-1.12q1.43.43,3.44,1.23a1.43,1.43,0,0,1,.33.63A2.13,2.13,0,0,1,111.06,34Zm-2.46-1.54,1.82-1.48a7,7,0,0,0-2-.65q.13.35.21.61a2.11,2.11,0,0,1,.09.43A2.75,2.75,0,0,1,108.6,32.42Zm6.8-.08L113.48,30l.12-.94,1.93,2.37Z"/><path class="cls-6" d="M110.28,34.33a1,1,0,0,1-.78-.33.68.68,0,0,1-.15-.53.75.75,0,0,1,.27-.48,1,1,0,0,1,.71-.17h0l.31.23a.77.77,0,0,1,.16.25v0a.83.83,0,0,0,.25-.7,1.83,1.83,0,0,0-.07-.33q-.06-.23-.16-.55l-.05-.05-3,2.4,0-.71v0a2.42,2.42,0,0,0,.21-1.59,2.69,2.69,0,0,0-.27-.65,5.71,5.71,0,0,0-.55-.78l0-.05.42-1.3.12,0c1,.29,2.11.7,3.45,1.24h0l0,0a1.57,1.57,0,0,1,.35.66,2.24,2.24,0,0,1-.45,3.13,1.33,1.33,0,0,1-.85.27Zm-.07-1.27a.67.67,0,0,0-.43.11.5.5,0,0,0-.19.33.43.43,0,0,0,.1.34.71.71,0,0,0,.59.24h0a1.09,1.09,0,0,0,.69-.21h0a2,2,0,0,0,.38-2.83v0a1.23,1.23,0,0,0-.28-.54c-1.27-.5-2.37-.9-3.29-1.18l-.3.94A6,6,0,0,1,108,31a2.94,2.94,0,0,1,.29.72,2.64,2.64,0,0,1-.22,1.73v.15l2.73-2.22.26.25v0c.07.24.13.44.17.59a2.19,2.19,0,0,1,.07.38,1.08,1.08,0,0,1-.4,1l0,0-.39.12.1-.25a.11.11,0,0,0,0-.08.55.55,0,0,0-.09-.15l-.23-.17Zm-1.85-.28.12-.39a2.64,2.64,0,0,0,.15-1,2,2,0,0,0-.09-.41c-.05-.18-.12-.38-.21-.6l-.07-.19.2,0a7.08,7.08,0,0,1,2,.66l.18.08Zm.28-2.32c.05.15.1.29.14.42a2.27,2.27,0,0,1,.09.46,2.29,2.29,0,0,1-.06.75L110.18,31A7.33,7.33,0,0,0,108.64,30.45Zm6.84,2.19L113.35,30l.16-1.28,2.15,2.64Zm-1.88-2.7,1.71,2.1.08-.59-1.71-2.1Z"/><path class="cls-6" d="M106.2,36.62a4.28,4.28,0,0,0,.34-2.89,1.57,1.57,0,0,1-1.52-.57,1.36,1.36,0,0,1-.15-.24,1.61,1.61,0,0,1-.11-.31.63.63,0,0,1,0-.55.7.7,0,0,1,.28-.39l.16-.1a.48.48,0,0,1,.18,0,1.41,1.41,0,0,1,.72.06,1.47,1.47,0,0,1,.57.48,1.21,1.21,0,0,1,.15.3,5.89,5.89,0,0,1,.17.57.21.21,0,0,0,.11.05l.15-.12a1.64,1.64,0,0,0,.2-.19l.11-.11.09-.08.22-.1a1.84,1.84,0,0,1-.54.95l-.11.08-.13.09q0,.16,0,.31c0,.1,0,.2,0,.29s0,.44,0,.63a3.26,3.26,0,0,1-.06.49,2.42,2.42,0,0,1-.11.34l-.23.6-.26.23Zm.25-3.6,0,0a1.44,1.44,0,0,0-.07-.33.78.78,0,0,0-.11-.22,1.13,1.13,0,0,0-.39-.28q-.31-.14-.45,0t0,.49a1.47,1.47,0,0,0,.47.39A.46.46,0,0,0,106.45,33Zm9.24-.28-.82-1,.13-.94.83,1.06Z"/><path class="cls-6" d="M105.89,37l.2-.43a4.21,4.21,0,0,0,.36-2.7,1.67,1.67,0,0,1-1.52-.62,1.45,1.45,0,0,1-.16-.26,1.74,1.74,0,0,1-.12-.33.76.76,0,0,1,0-.64.84.84,0,0,1,.32-.44l.18-.12a.59.59,0,0,1,.22-.06,1.52,1.52,0,0,1,.78.07,1.59,1.59,0,0,1,.62.52,1.25,1.25,0,0,1,.17.34c0,.13.1.3.16.51l.08-.06.18-.18.11-.12.1-.09.5-.23-.08.26a2,2,0,0,1-.58,1l-.11.08-.07.05c0,.08,0,.16,0,.23s0,.2,0,.3,0,.45,0,.64a3.38,3.38,0,0,1-.06.51,2.51,2.51,0,0,1-.12.36l-.24.6,0,0-.27.24-.28.22Zm.75-3.41,0,.11a4.3,4.3,0,0,1-.16,2.52l.13-.12.22-.57a2.32,2.32,0,0,0,.1-.32,3.05,3.05,0,0,0,.06-.47c0-.18,0-.39,0-.63s0-.18,0-.28,0-.2,0-.3v-.09l.08,0,.11-.07.11-.08a1.38,1.38,0,0,0,.39-.57l-.1.1a1.87,1.87,0,0,1-.21.2l-.19.15h-.05a.34.34,0,0,1-.18-.08l0,0v0a5.47,5.47,0,0,0-.17-.55,1,1,0,0,0-.13-.27,1.38,1.38,0,0,0-.52-.45,1.32,1.32,0,0,0-.66-.05.35.35,0,0,0-.14,0l-.14.09a.59.59,0,0,0-.24.32l0,0a.54.54,0,0,0,0,.44,1.52,1.52,0,0,0,.1.29,1.3,1.3,0,0,0,.13.21,1.45,1.45,0,0,0,1.41.52Zm-.41-.37a.77.77,0,0,1-.37-.11,1.57,1.57,0,0,1-.51-.42.43.43,0,0,1,0-.66c.13-.1.32-.1.58,0a1.26,1.26,0,0,1,.44.32.88.88,0,0,1,.13.25,1.57,1.57,0,0,1,.08.36v0l-.08.1A.49.49,0,0,1,106.23,33.22Zm-.61-1-.08,0c-.07.06-.14.13,0,.31a1.33,1.33,0,0,0,.44.36c.2.11.3.09.37,0a1.33,1.33,0,0,0-.06-.25.65.65,0,0,0-.09-.18,1,1,0,0,0-.35-.24A.62.62,0,0,0,105.61,32.2Zm10.16.84-1-1.31.18-1.28,1,1.33ZM115,31.66l.61.78.09-.59-.62-.78Z"/><path class="cls-6" d="M119.94,38.84l-1-1.45-5.74,3.91.08-.88,3.16-2.16a.33.33,0,0,0,.07-.09l.12-.21a.9.9,0,0,0,0-1q-.11-.17-.43-.12a1.13,1.13,0,0,0-.45.17l-.24.25-.27-.18a2.51,2.51,0,0,0,.43-.94,1.35,1.35,0,0,0-.26-1,1.17,1.17,0,0,0-.79-.52,1.2,1.2,0,0,0-.93.21.88.88,0,0,0-.24,1.27,2.38,2.38,0,0,1,.14-.29.57.57,0,0,1,.16-.18.69.69,0,0,1,.56-.09.73.73,0,0,1,.49.31.77.77,0,0,1,0,.75,1.25,1.25,0,0,1-.47.6.71.71,0,0,1-.72,0,1.26,1.26,0,0,1-.57-.47,2,2,0,0,1-.31-.71,1.9,1.9,0,0,1,0-.73,1.86,1.86,0,0,1,.84-1.21,2.2,2.2,0,0,1,1.26-.41,1.3,1.3,0,0,1,1.16.56,1.65,1.65,0,0,1,.16,1.7l0,0a.72.72,0,0,1,.59,0,.92.92,0,0,1,.51.27.94.94,0,0,1,.17.63,1.48,1.48,0,0,1-.07.27,3.94,3.94,0,0,1-.15.37l-.07.11-.17.29,1.57-1.07-3.12-4.57.18-.95,4.51,6.61Z"/><path class="cls-6" d="M113.07,41.56l.1-1.2,3.21-2.19h0l0-.05.12-.21a.78.78,0,0,0,0-.88c0-.07-.15-.09-.31-.07a1,1,0,0,0-.4.15l-.3.31-.46-.31.07-.1a2.4,2.4,0,0,0,.41-.89,1.21,1.21,0,0,0-.24-.91,1,1,0,0,0-.71-.46,1.08,1.08,0,0,0-.84.19.69.69,0,0,0-.3.86l0,0a.7.7,0,0,1,.2-.22.82.82,0,0,1,.66-.11.85.85,0,0,1,.57.36.88.88,0,0,1,.05.87,1.38,1.38,0,0,1-.51.66.83.83,0,0,1-.84,0,1.41,1.41,0,0,1-.62-.52,2.13,2.13,0,0,1-.33-.75,2,2,0,0,1,0-.78,2,2,0,0,1,.89-1.29,2.33,2.33,0,0,1,1.33-.43h0a1.42,1.42,0,0,1,1.25.61,1.77,1.77,0,0,1,.26,1.58,1.17,1.17,0,0,1,.44.06,1,1,0,0,1,.58.32,1.06,1.06,0,0,1,.19.72,1.5,1.5,0,0,1-.08.3c0,.09-.08.2-.13.32l1-.69-3.08-4.51.25-1.3,4.71,6.9L120,39.15l-1.09-1.59Zm.34-1.06,0,.56L119,37.22l.89,1.31.12-.59-4.31-6.31-.11.6,3.16,4.63-2.1,1.44.25-.46.17-.3.07-.11c.06-.13.11-.25.15-.35a1.31,1.31,0,0,0,.06-.24.79.79,0,0,0-.15-.55s-.13-.13-.44-.22a.64.64,0,0,0-.48,0l-.36.25.16-.39a1.52,1.52,0,0,0-.15-1.58,1.17,1.17,0,0,0-1-.5h0a2.08,2.08,0,0,0-1.19.39,1.74,1.74,0,0,0-.79,1.13,1.77,1.77,0,0,0,0,.68,1.89,1.89,0,0,0,.29.66,1.14,1.14,0,0,0,.51.43.59.59,0,0,0,.6,0,1.12,1.12,0,0,0,.42-.54.64.64,0,0,0,0-.63.6.6,0,0,0-.41-.25.58.58,0,0,0-.47.07.45.45,0,0,0-.12.14,2.15,2.15,0,0,0-.14.27l-.11.25-.12-.24a1,1,0,0,1,.28-1.43,1.34,1.34,0,0,1,1-.22,1.3,1.3,0,0,1,.87.57,1.47,1.47,0,0,1,.28,1.09,2.39,2.39,0,0,1-.38.88l.08.05.17-.17a1.24,1.24,0,0,1,.52-.21.52.52,0,0,1,.55.17,1,1,0,0,1,0,1.14l-.12.21a.4.4,0,0,1-.11.13Z"/><path class="cls-6" d="M117.76,50.69l0-.08.09-.15.13-.23a.78.78,0,0,1,.22-.24,1.17,1.17,0,0,0,.56-.94,1.44,1.44,0,0,0-.08-.43q-.09-.27-.26-.67l-.12-.25a2.32,2.32,0,0,0-.2-.3l-.23-.32a1.08,1.08,0,0,1-.13-.21l-.24-.55a1.88,1.88,0,0,1,.09-1.73A2.72,2.72,0,0,1,119,43.43l.45-.19a3.56,3.56,0,0,1,1.43,0l-.17.37a2.36,2.36,0,0,0-1.32.16,1.43,1.43,0,0,0-1,1.65,3.4,3.4,0,0,0,.09.43,1.41,1.41,0,0,0,.12.29q.23.4.38.7t.24.5a2.31,2.31,0,0,1,.22,1,4.78,4.78,0,0,1-.21,1l4.5-1.93q.09,0,0-.25a2.15,2.15,0,0,0-.67-.66,3.82,3.82,0,0,0-.88-.5,2.09,2.09,0,0,0-.93,0l.18.32a.54.54,0,0,1-.07.53.94.94,0,0,1-.42.32q-.72.31-1.11-.62t.81-1.44a2,2,0,0,1,.84-.14,4.39,4.39,0,0,1,1.07.18,2.18,2.18,0,0,1,.79.39,2.45,2.45,0,0,1,.27.24l.39.4a1.77,1.77,0,0,1,.19.23,1.47,1.47,0,0,1,.14.25,1.13,1.13,0,0,1-.1.78,2.88,2.88,0,0,1-.21.44.54.54,0,0,1-.23.22Z"/><path class="cls-6" d="M117.7,50.85l-.05-.11c0-.06,0-.11,0-.19l.09-.16.13-.23a.92.92,0,0,1,.25-.27,1,1,0,0,0,.51-.84,1.32,1.32,0,0,0-.08-.39c-.06-.18-.14-.41-.25-.66l-.12-.24a2.09,2.09,0,0,0-.19-.28l-.23-.32a1.12,1.12,0,0,1-.15-.23l-.24-.55a2,2,0,0,1,.1-1.84,2.85,2.85,0,0,1,1.41-1.22l.45-.19a3.58,3.58,0,0,1,1.5,0l.16,0-.28.6-.09,0a2.25,2.25,0,0,0-1.26.16,1.31,1.31,0,0,0-.94,1.52,3.31,3.31,0,0,0,.09.42,1.26,1.26,0,0,0,.1.26q.23.41.38.71t.24.51a2.43,2.43,0,0,1,.23,1,3.68,3.68,0,0,1-.15.76l4.25-1.82s0,0,0-.11a2.18,2.18,0,0,0-.62-.58,3.74,3.74,0,0,0-.85-.48,1.82,1.82,0,0,0-.7,0l.09.17a.66.66,0,0,1-.07.66,1.08,1.08,0,0,1-.48.37c-.38.16-.91.18-1.28-.69-.2-.47-.21-1.14.88-1.6a2.07,2.07,0,0,1,.89-.15,4.48,4.48,0,0,1,1.1.19,2.32,2.32,0,0,1,.83.41,2.65,2.65,0,0,1,.28.25l.39.41a1.75,1.75,0,0,1,.2.25,1.56,1.56,0,0,1,.15.27,1.23,1.23,0,0,1-.09.88,3.07,3.07,0,0,1-.22.46.66.66,0,0,1-.29.27ZM120,43.3a1.88,1.88,0,0,0-.51.06l-.43.19a2.61,2.61,0,0,0-1.29,1.12,1.75,1.75,0,0,0-.09,1.62l.24.55A.89.89,0,0,0,118,47l.23.32a2.41,2.41,0,0,1,.2.31l.13.26c.11.26.2.49.26.68a1.56,1.56,0,0,1,.09.47,1.28,1.28,0,0,1-.61,1,.65.65,0,0,0-.19.2l-.09.15L123.75,48a.42.42,0,0,0,.18-.17,2.72,2.72,0,0,0,.2-.42c.15-.4.14-.6.1-.69a1.25,1.25,0,0,0-.12-.23,1.53,1.53,0,0,0-.18-.22l-.39-.4a2.2,2.2,0,0,0-.26-.23,2.06,2.06,0,0,0-.75-.37,4.26,4.26,0,0,0-1-.18,1.74,1.74,0,0,0-.79.13c-1,.42-.89.93-.74,1.27.31.73.69.67,1,.56a.82.82,0,0,0,.37-.27.41.41,0,0,0,.06-.41l-.26-.47.17,0a2.18,2.18,0,0,1,1,0,3.85,3.85,0,0,1,.91.51,2.22,2.22,0,0,1,.71.71c.05.23,0,.36-.11.42l-4.74,2,.07-.25a4.72,4.72,0,0,0,.21-1,2.19,2.19,0,0,0-.21-.92c-.06-.13-.14-.3-.24-.5s-.22-.43-.37-.7a1.54,1.54,0,0,1-.13-.31,3.43,3.43,0,0,1-.1-.45,1.54,1.54,0,0,1,1.09-1.79,2.45,2.45,0,0,1,1.3-.19l.06-.13A5.07,5.07,0,0,0,120,43.3Z"/><path class="cls-6" d="M127,57.65l-1.12-4.12-2.45.67q-.29.08-.23.31t1,.58l.58.24.43.15-.17.24a4,4,0,0,1-.83.83,2.79,2.79,0,0,1-.92.45,3.31,3.31,0,0,1-.7.11,3.26,3.26,0,0,1-.73,0,2.84,2.84,0,0,1-1.29-.57,2.41,2.41,0,0,1-.74-1.31,2.94,2.94,0,0,1,.13-1.75,2.59,2.59,0,0,1,.44-.75,9,9,0,0,1,.84-.9l.2-.2.32-.3a11,11,0,0,1,1.44-.9l.53-.25q.28-.14.6-.33l-.31.63a7.38,7.38,0,0,0-1.06.6,6.14,6.14,0,0,0-.83.68,5.22,5.22,0,0,0-.47.55q-.23.31-.46.68a3.08,3.08,0,0,0-.44,1,2.8,2.8,0,0,0,.12,1.09,2.19,2.19,0,0,0,.46.81,1.8,1.8,0,0,0,.38.36,1,1,0,0,0,.36.16l.58.08.38,0h.17A1.82,1.82,0,0,0,124,56a2.05,2.05,0,0,1-1-.5,1.84,1.84,0,0,1-.7-.84.76.76,0,0,1,.28-.79l.36-.26.37-.27a1.36,1.36,0,0,0,.59-.87l-.34.21q-.11.07-.07.06a.35.35,0,0,1-.25,0,1.33,1.33,0,0,1-.3-.22l-.1-.2a.79.79,0,0,1,0-.55.63.63,0,0,1,.42-.35,1.13,1.13,0,0,1,.74,0,.76.76,0,0,1,.43.55,1.3,1.3,0,0,1,0,.6,1.84,1.84,0,0,1-.78.85l1.94-.53-1-3.77.49-.8,2.31,8.5Z"/><path class="cls-6" d="M126.92,58l-1.17-4.29-2.33.63c-.17,0-.15.11-.14.16s.1.16.9.5l.57.24.42.15.13,0-.05.13a1.38,1.38,0,0,1-.19.27,4.2,4.2,0,0,1-.85.86,2.92,2.92,0,0,1-1,.47,3.53,3.53,0,0,1-.73.12,3.59,3.59,0,0,1-.76,0,3,3,0,0,1-1.35-.59,2.54,2.54,0,0,1-.78-1.37,3.09,3.09,0,0,1,.13-1.82,2.73,2.73,0,0,1,.46-.78,9.16,9.16,0,0,1,.85-.91l.2-.2.32-.3a10.92,10.92,0,0,1,1.46-.92l.53-.25c.18-.09.38-.2.59-.32l.36-.21-.52,1,0,0a7.16,7.16,0,0,0-1,.59,6,6,0,0,0-.82.67,5.12,5.12,0,0,0-.46.53c-.15.2-.3.43-.46.67a3,3,0,0,0-.42,1,2.69,2.69,0,0,0,.11,1,2.08,2.08,0,0,0,.43.76,1.71,1.71,0,0,0,.36.34.89.89,0,0,0,.32.14l.58.08.37,0h.13a1.78,1.78,0,0,0,.68-.35,2.83,2.83,0,0,1-.82-.48,1.94,1.94,0,0,1-.74-.91.88.88,0,0,1,.32-.91l.37-.27.37-.27a1.36,1.36,0,0,0,.44-.49l-.05,0-.06,0-.08-.09h0l0,.12-.1,0v0a.52.52,0,0,1-.23-.06,1.46,1.46,0,0,1-.33-.24l0,0-.1-.2a.93.93,0,0,1,0-.65.75.75,0,0,1,.51-.42,1.26,1.26,0,0,1,.82,0,.88.88,0,0,1,.5.63,1.41,1.41,0,0,1,0,.65v0a2.68,2.68,0,0,1-.34.51l1.24-.34-1-3.7.67-1.09.08.28,2.32,8.55Zm-1-4.6,0,.12,1,3.83.3-.54-2.22-8.17-.31.51,1,3.83-2.06.56-.09-.23a1.72,1.72,0,0,0,.72-.78,1.16,1.16,0,0,0,0-.52.64.64,0,0,0-.36-.46,1,1,0,0,0-.66,0,.5.5,0,0,0-.34.29.66.66,0,0,0,0,.46l.08.16a1.18,1.18,0,0,0,.25.18.31.31,0,0,0,.13,0l.07,0,.35-.21.24-.14-.05.27a1.49,1.49,0,0,1-.64.95l-.37.27-.36.26a.63.63,0,0,0-.24.65,1.74,1.74,0,0,0,.66.78,2,2,0,0,0,.93.48l.25,0-.17.19a1.94,1.94,0,0,1-1,.58.64.64,0,0,1-.22,0l-.38,0-.59-.08a1.13,1.13,0,0,1-.41-.18,1.92,1.92,0,0,1-.41-.39,2.33,2.33,0,0,1-.48-.85,2.89,2.89,0,0,1-.12-1.14,3.15,3.15,0,0,1,.46-1.08c.16-.25.32-.49.47-.69a5.5,5.5,0,0,1,.48-.56,6.27,6.27,0,0,1,.85-.7,7.42,7.42,0,0,1,1-.59l.11-.23-.26.13-.53.25a11.05,11.05,0,0,0-1.41.88l-.31.29-.2.2a9.08,9.08,0,0,0-.83.89,2.49,2.49,0,0,0-.42.71,2.84,2.84,0,0,0-.13,1.67,2.3,2.3,0,0,0,.69,1.24,2.73,2.73,0,0,0,1.24.54,3.07,3.07,0,0,0,.7,0,3.23,3.23,0,0,0,.68-.11,2.69,2.69,0,0,0,.88-.43,4,4,0,0,0,.8-.81l.07-.1-.28-.1-.58-.24c-.85-.37-1-.54-1-.66s-.06-.37.31-.47Z"/><path class="cls-6" d="M127.95,70.38l-.22-4.12-.58,0,0,.11a2.23,2.23,0,0,1-.54,1.47A2.66,2.66,0,0,1,124.56,69a1.53,1.53,0,0,1-.47,0,1.17,1.17,0,0,1-.42-.21,1,1,0,0,1-.42-.77.92.92,0,0,1,.23-.63A.73.73,0,0,1,124,67a1,1,0,0,1,.72.35l.08.41a.87.87,0,0,1-.31.68l.13,0a1.6,1.6,0,0,0,1.19-.66,1.94,1.94,0,0,0,.45-1.33l0-.14-5.47.29a2.28,2.28,0,0,1,.86-.53,3,3,0,0,0,.87-.62,4,4,0,0,0,1.28-2.61l1.12-1a10,10,0,0,1,1.24,1.68,13.94,13.94,0,0,1,1,2l.56,0-.21-4.11.65-.73.47,8.93Zm-5.28-4.54,3.56-.19a7.18,7.18,0,0,0-1.49-2.4,4.61,4.61,0,0,1-.34.79,4,4,0,0,1-.47.68A8,8,0,0,1,122.67,65.84Z"/><path class="cls-6" d="M127.84,70.68l-.22-4.29-.31,0a2.37,2.37,0,0,1-.56,1.54,2.79,2.79,0,0,1-2.18,1.13,1.74,1.74,0,0,1-.5,0,1.3,1.3,0,0,1-.46-.23,1.1,1.1,0,0,1-.47-.87,1.05,1.05,0,0,1,.25-.71.85.85,0,0,1,.66-.36,1,1,0,0,1,.81.38l0,0,.08.44a.93.93,0,0,1-.19.62,1.51,1.51,0,0,0,1-.6,1.81,1.81,0,0,0,.43-1.24h0l-5.66.3.19-.22a2.35,2.35,0,0,1,.91-.57,3,3,0,0,0,.83-.59,3.88,3.88,0,0,0,1.24-2.53v0l1.25-1.1.08.09a10.07,10.07,0,0,1,1.25,1.7,14.11,14.11,0,0,1,1,2l.34,0-.21-4,.88-1,0,.31.47,9Zm0-4.55.21,3.95.41-.45L128,61.05l-.41.46.22,4.18-.77,0,0-.08a14,14,0,0,0-1-2,10,10,0,0,0-1.14-1.57l-1,.87a4.11,4.11,0,0,1-1.31,2.64,3.12,3.12,0,0,1-.91.64,3.37,3.37,0,0,0-.54.27l5.2-.27.06.24a2.08,2.08,0,0,1-.48,1.44,1.74,1.74,0,0,1-1.28.71h0l-.34-.13.14-.14a.74.74,0,0,0,.27-.58l-.07-.35a.79.79,0,0,0-.59-.28.61.61,0,0,0-.48.27.8.8,0,0,0-.2.54.85.85,0,0,0,.37.68,1,1,0,0,0,.38.19,1.42,1.42,0,0,0,.43,0,2.55,2.55,0,0,0,2-1,2.12,2.12,0,0,0,.51-1.39l0-.07-.06-.16ZM122.26,66l.33-.25a7.88,7.88,0,0,0,1.24-1.09,3.92,3.92,0,0,0,.46-.66,4.5,4.5,0,0,0,.33-.77l.07-.21.14.17a7.33,7.33,0,0,1,1.52,2.44l0,.15Zm2.52-2.48a4.52,4.52,0,0,1-.27.6,4.07,4.07,0,0,1-.49.7,7,7,0,0,1-1,.89l3-.16A7.25,7.25,0,0,0,124.78,63.5Z"/><path class="cls-6" d="M127.53,74.49a8.51,8.51,0,0,0-.81-2,3.17,3.17,0,0,0-1.84-1.08l-.53-.11-.52-.06a1.87,1.87,0,0,0-2,1,1.64,1.64,0,0,0-.05.42l0,0a.8.8,0,0,1,.76-.35.58.58,0,0,1,.43.28.84.84,0,0,1,.17.52.83.83,0,0,1-.28.58.79.79,0,0,1-.61.24.91.91,0,0,1-.73-.41,1.3,1.3,0,0,1-.24-.86q.08-1.45,1.87-2a5.3,5.3,0,0,1,1.75-.14,4.38,4.38,0,0,1,2.74,1.55l.12-2.14.72-.63-.26,4.47-.35.31-.25.22Z"/><path class="cls-6" d="M127.53,74.62h-.09l0-.09a8.43,8.43,0,0,0-.8-1.94,3.07,3.07,0,0,0-1.77-1l-.52-.11-.51-.06a1.74,1.74,0,0,0-1.88.93.64.64,0,0,0,0,.11,1,1,0,0,1,.65-.17.7.7,0,0,1,.53.33,1,1,0,0,1,.19.6,1,1,0,0,1-.32.67.89.89,0,0,1-.7.27,1,1,0,0,1-.83-.47,1.43,1.43,0,0,1-.26-.93c.06-1,.72-1.72,2-2.08a5.49,5.49,0,0,1,1.79-.15,4.3,4.3,0,0,1,2.62,1.39l.11-1.92,1-.86-.27,4.81-.39.35-.25.22C127.61,74.6,127.59,74.62,127.53,74.62Zm-3.91-3.48h.21l.54.06.54.12a3.31,3.31,0,0,1,1.91,1.12,7.8,7.8,0,0,1,.78,1.84l.22-.19.31-.28.24-4.12-.46.4-.14,2.37-.2-.2a4.28,4.28,0,0,0-2.66-1.51,5.14,5.14,0,0,0-1.71.14c-1.15.33-1.73.93-1.78,1.85a1.19,1.19,0,0,0,.21.78.78.78,0,0,0,.64.36.65.65,0,0,0,.52-.2.7.7,0,0,0,.24-.5.73.73,0,0,0-.14-.44.46.46,0,0,0-.33-.23.68.68,0,0,0-.65.3l-.11.16-.15-.25v0a1.22,1.22,0,0,1,.07-.48A1.92,1.92,0,0,1,123.62,71.14Z"/><path class="cls-6" d="M126.37,82.16l.27-1.73-6.86-1.08.66-.59,3.78.6.11,0,.23-.07a.9.9,0,0,0,.68-.75q0-.2-.23-.38a1.14,1.14,0,0,0-.45-.18l-.35,0-.07-.31a2.51,2.51,0,0,0,1-.39,1.35,1.35,0,0,0,.5-.9,1.17,1.17,0,0,0-.22-.92,1.2,1.2,0,0,0-.82-.49q-.78-.12-1,.76l.3-.11a.57.57,0,0,1,.24,0,.69.69,0,0,1,.47.32.73.73,0,0,1,.14.56.77.77,0,0,1-.49.57,1.25,1.25,0,0,1-.75.11.7.7,0,0,1-.55-.47,1.26,1.26,0,0,1-.09-.73,2,2,0,0,1,.26-.73,1.9,1.9,0,0,1,.49-.54,1.86,1.86,0,0,1,1.44-.3,2.2,2.2,0,0,1,1.19.56,1.3,1.3,0,0,1,.46,1.2,1.65,1.65,0,0,1-1.05,1.35h0q.21,0,.43.4a.92.92,0,0,1,.19.54.93.93,0,0,1-.31.58,1.48,1.48,0,0,1-.23.15l-.36.16-.13,0-.32.1,1.87.3.86-5.46.78-.57-1.25,7.9Z"/><path class="cls-6" d="M126.2,82.43l.3-1.9-7-1.11.9-.8h.06l3.78.6.06,0,.23-.07a.78.78,0,0,0,.6-.65c0-.08,0-.17-.18-.26a1,1,0,0,0-.4-.16l-.43,0-.12-.54.12,0a2.42,2.42,0,0,0,.91-.36,1.23,1.23,0,0,0,.45-.82,1,1,0,0,0-.2-.82,1.07,1.07,0,0,0-.74-.44.7.7,0,0,0-.81.42l.05,0a.65.65,0,0,1,.29,0,.82.82,0,0,1,.55.37.85.85,0,0,1,.16.65.89.89,0,0,1-.55.67,1.39,1.39,0,0,1-.83.12.82.82,0,0,1-.64-.54,1.39,1.39,0,0,1-.1-.8,2.12,2.12,0,0,1,.27-.77,2,2,0,0,1,.53-.58,2,2,0,0,1,1.53-.33,2.33,2.33,0,0,1,1.26.59,1.42,1.42,0,0,1,.5,1.31,1.76,1.76,0,0,1-.89,1.33,1.24,1.24,0,0,1,.28.34,1,1,0,0,1,.21.63,1.05,1.05,0,0,1-.35.65,1.55,1.55,0,0,1-.26.16l-.32.14,1.21.19.85-5.39,1.07-.78,0,.3-1.26,8Zm-6.14-3.17,6.72,1.06-.25,1.57.49-.34L128.23,74l-.5.36-.87,5.54-2.52-.4.5-.16.33-.1.13,0,.34-.15.21-.13a.81.81,0,0,0,.27-.5c0-.05,0-.18-.17-.46s-.27-.33-.34-.34l-.44-.07.38-.17a1.52,1.52,0,0,0,1-1.25A1.17,1.17,0,0,0,126.1,75a2.09,2.09,0,0,0-1.13-.53,1.73,1.73,0,0,0-1.34.28,1.79,1.79,0,0,0-.46.51,1.88,1.88,0,0,0-.24.68,1.15,1.15,0,0,0,.08.66.58.58,0,0,0,.45.4,1.15,1.15,0,0,0,.68-.1.65.65,0,0,0,.42-.48.61.61,0,0,0-.12-.47.58.58,0,0,0-.39-.27.46.46,0,0,0-.19,0l-.29.11-.25.11.08-.26a1,1,0,0,1,1.18-.85,1.33,1.33,0,0,1,.9.54,1.29,1.29,0,0,1,.24,1,1.48,1.48,0,0,1-.54,1,2.39,2.39,0,0,1-.88.38l0,.09h.24a1.25,1.25,0,0,1,.53.2.53.53,0,0,1,.28.51,1,1,0,0,1-.77.85l-.24.07a.39.39,0,0,1-.17,0l-3.72-.59Z"/><path class="cls-6" d="M123.72,90.7l1.39-4.52-.07-.28a.41.41,0,0,0-.17-.1.74.74,0,0,0-.79.26,1.92,1.92,0,0,0-.44.78,2.79,2.79,0,0,0-.09,1.47l-1.26.58a3.8,3.8,0,0,0-.48-.62,4.12,4.12,0,0,0-.69-.57,5.47,5.47,0,0,0-1.5-.73,2.71,2.71,0,0,0-.87-.1,7,7,0,0,0-1.15.15,1,1,0,0,1,.39-.65l2.34.11.56.17a2.33,2.33,0,0,1,.41.18,4.83,4.83,0,0,1,.5.31,4.46,4.46,0,0,1,.47.37,2.14,2.14,0,0,1,.3.33l.16-.59.09-.31a2.74,2.74,0,0,1,.92-1.36,2.91,2.91,0,0,1,1-.42c.06,0,.1,0,.11-.09s-.11-.42-.48-.82a2.47,2.47,0,0,0-.83-.69q-.41-.13-.56.37a2.26,2.26,0,0,0,0,.86,3.31,3.31,0,0,1,.08.7.43.43,0,0,1-.26.26,2.87,2.87,0,0,1-2,.22,3.19,3.19,0,0,1-.68-.45.93.93,0,0,1-.3-.34,2.27,2.27,0,0,1-.23-.76,1.88,1.88,0,0,1,.08-.75q.54-1.75,3.31-1.88a5.22,5.22,0,0,1,.67,0,3.2,3.2,0,0,1,.59.11l.24.07.39.12.15,0,.21.06.16,0,.11,0,.06,0a.88.88,0,0,1-.82.21l-.32-.08-.43-.1-.8,0a3.13,3.13,0,0,0-1.77.71,1.56,1.56,0,0,0-.61.83,2.08,2.08,0,0,0-.09.49,2.52,2.52,0,0,0,0,.51q.09.64.51.77a.55.55,0,0,0,.35,0,.25.25,0,0,0,.29-.19,2.05,2.05,0,0,0,0-.6,1.93,1.93,0,0,1,0-.67,1.42,1.42,0,0,1,.85-.91,1.81,1.81,0,0,1,1.28-.08,1.72,1.72,0,0,1,.86.61l.21.31.36.6L126.4,82l.85-.45-2.67,8.69Z"/><path class="cls-6" d="M123.52,91,125,86.18l-.06-.21-.09,0a.62.62,0,0,0-.67.23,1.82,1.82,0,0,0-.41.73,2.67,2.67,0,0,0-.09,1.4l0,.1-1.46.67-.06-.09a3.73,3.73,0,0,0-.47-.6,4.06,4.06,0,0,0-.67-.55,5.39,5.39,0,0,0-1.46-.71,2.73,2.73,0,0,0-.83-.09,6.94,6.94,0,0,0-1.13.14l-.21,0,.06-.2a1.14,1.14,0,0,1,.45-.72H118l2.38.11.56.17a2.42,2.42,0,0,1,.43.18,5,5,0,0,1,.51.32,4.78,4.78,0,0,1,.49.38l.16.16.08-.31v0l.09-.31a2.87,2.87,0,0,1,1-1.42,3,3,0,0,1,1-.44l0,0s0-.17-.46-.69a2.26,2.26,0,0,0-.78-.65.3.3,0,0,0-.23,0,.45.45,0,0,0-.18.28,2.1,2.1,0,0,0,.05.8c.11.65.09.71.08.75a.56.56,0,0,1-.33.33,3,3,0,0,1-2.07.23,2.76,2.76,0,0,1-.72-.47,1,1,0,0,1-.34-.39,2.4,2.4,0,0,1-.24-.8,2,2,0,0,1,.08-.8c.37-1.22,1.53-1.88,3.42-2a6,6,0,0,1,.68,0,3.37,3.37,0,0,1,.62.11l.25.07L125,82l.14,0,.21.06.17,0,.19.08.17.09-.15.12a1,1,0,0,1-.94.23l-.32-.08-.43-.1-.78,0h0a3.07,3.07,0,0,0-1.67.69,1.45,1.45,0,0,0-.56.76,1.91,1.91,0,0,0-.08.46,2.38,2.38,0,0,0,0,.49c.06.38.19.6.42.67a.43.43,0,0,0,.28,0h.05c.09,0,.13,0,.16-.11a1.92,1.92,0,0,0,0-.56,2,2,0,0,1,0-.72,1.55,1.55,0,0,1,.92-1,1.94,1.94,0,0,1,1.37-.09,1.85,1.85,0,0,1,.92.65l.22.32.22.36.75-2.44,1.17-.62-2.77,9Zm1.14-5.3a.83.83,0,0,1,.25,0,.52.52,0,0,1,.22.13l0,0,.09.35-1.31,4.26.54-.29L127,81.8l-.54.29L125.62,85l-.14-.24-.36-.59-.2-.3a1.61,1.61,0,0,0-.79-.57,1.71,1.71,0,0,0-1.19.08,1.29,1.29,0,0,0-.78.83,1.85,1.85,0,0,0,0,.63,2.19,2.19,0,0,1,0,.65.39.39,0,0,1-.4.29.68.68,0,0,1-.41,0,.94.94,0,0,1-.59-.87,2.74,2.74,0,0,1,0-.54,2.16,2.16,0,0,1,.09-.52,1.68,1.68,0,0,1,.66-.89,3.29,3.29,0,0,1,1.82-.73h0l.8,0,.45.11.33.09a.66.66,0,0,0,.51-.06l-.09,0-.21-.06-.16,0-.39-.12-.23-.07a3.18,3.18,0,0,0-.58-.1,5.09,5.09,0,0,0-.65,0c-1.8.08-2.85.67-3.2,1.79a1.77,1.77,0,0,0-.07.7,2.21,2.21,0,0,0,.21.72.82.82,0,0,0,.27.29,3,3,0,0,0,.64.43,2.78,2.78,0,0,0,1.89-.22.31.31,0,0,0,.19-.18,4.81,4.81,0,0,0-.09-.64,2.27,2.27,0,0,1,0-.92.68.68,0,0,1,.3-.43.53.53,0,0,1,.42,0,2.49,2.49,0,0,1,.89.72c.41.45.57.73.5.94a.26.26,0,0,1-.2.17,2.83,2.83,0,0,0-1,.4,2.65,2.65,0,0,0-.88,1.3l-.09.31v0l-.15.55-.07.26-.15-.22a2,2,0,0,0-.28-.31,4.65,4.65,0,0,0-.46-.36,4.78,4.78,0,0,0-.49-.31,2.27,2.27,0,0,0-.38-.17l-.54-.17L118,86.5a.75.75,0,0,0-.23.36,6.63,6.63,0,0,1,1-.11,2.94,2.94,0,0,1,.91.1,5.61,5.61,0,0,1,1.53.75,4.29,4.29,0,0,1,.71.59,4.15,4.15,0,0,1,.44.55l1.08-.49a3,3,0,0,1,.12-1.43A2,2,0,0,1,124,86,.92.92,0,0,1,124.66,85.65Z"/></g></g></svg>