<svg xmlns="http://www.w3.org/2000/svg" viewBox="0 0 302.66 345.39"><defs><style>.cls-1{fill:#008261;}.cls-2{fill:#99cb34;}.cls-3{fill:#0a6939;}</style></defs><title>Asset 17</title><g id="Layer_2" data-name="Layer 2"><g id="Layer_1-2" data-name="Layer 1"><path class="cls-1" d="M84.49,253.05V198.23H98.32a15.86,15.86,0,0,1,5.17.72,6.88,6.88,0,0,1,3.34,2.46,11.48,11.48,0,0,1,1.81,4.57,38.21,38.21,0,0,1,.54,7c0,2.13-.06,3.84-.18,5.14a13.43,13.43,0,0,1-.62,3.19,5.44,5.44,0,0,1-1.08,1.92,7.69,7.69,0,0,1-1.6,1.26V225a21.26,21.26,0,0,1,1.89,1.27,4.1,4.1,0,0,1,1.26,1.88,14.31,14.31,0,0,1,.69,3.62q.22,2.36.22,6.48a40.53,40.53,0,0,1-.51,7,11.33,11.33,0,0,1-1.74,4.56,6.57,6.57,0,0,1-3.26,2.46,15,15,0,0,1-5.06.73ZM97,221.62a3.28,3.28,0,0,0,1.56-.33,2.25,2.25,0,0,0,1-1.16,7.61,7.61,0,0,0,.5-2.28c.1-1,.15-2.22.15-3.76A35.84,35.84,0,0,0,100,210a6.34,6.34,0,0,0-.58-2.17,1.59,1.59,0,0,0-1-.87,6.46,6.46,0,0,0-1.49-.15H93.39v14.85Zm.44,22.81a3.7,3.7,0,0,0,1.55-.29,2,2,0,0,0,1-1.09,8.21,8.21,0,0,0,.55-2.21,30,30,0,0,0,.18-3.65,41.11,41.11,0,0,0-.18-4.27,11.34,11.34,0,0,0-.55-2.61A2.28,2.28,0,0,0,99,229a3.27,3.27,0,0,0-1.55-.32H93.39v15.71Z"/><path class="cls-1" d="M128.3,253.05l-1.09-13.76h-5.65l-1.08,13.76h-8.91l5.65-54.82h15l5.28,54.82Zm-3.55-45.84h-.65l-2.18,23.39h4.93Z"/><path class="cls-1" d="M140.17,253.05V242.84l14-34.91-.22-.58H140.68v-9.12h25v4.92l-16,39.9.29.51H165.3v9.49Z"/><path class="cls-1" d="M184.78,253.05l-1.09-13.76H178L177,253.05h-8.91l5.65-54.82h15L194,253.05Zm-3.55-45.84h-.65l-2.17,23.39h4.92Z"/><path class="cls-1" d="M212.73,253.05l-1.09-13.76H206l-1.09,13.76H196l5.65-54.82h15l5.29,54.82Zm-3.55-45.84h-.65l-2.17,23.39h4.92Z"/><path class="cls-1" d="M241.55,253.05c-.1-.29-.19-.58-.29-.87a8,8,0,0,1-.25-1.12c-.07-.46-.15-1.08-.22-1.85s-.18-1.76-.32-3c-.15-1.4-.28-3-.4-4.85s-.33-3.82-.62-5.94a10.68,10.68,0,0,0-1-3.8,2,2,0,0,0-1.81-.84h-2.39v22.24h-8.91V198.23h14.12a14.55,14.55,0,0,1,5.18.79,6.55,6.55,0,0,1,3.22,2.58,11.9,11.9,0,0,1,1.63,4.59A42.74,42.74,0,0,1,250,213a61.86,61.86,0,0,1-.32,7.13,15.63,15.63,0,0,1-.91,4,4.25,4.25,0,0,1-1.37,1.92,15.52,15.52,0,0,1-1.67,1v.43a5.16,5.16,0,0,1,1.67,2.17,19.46,19.46,0,0,1,1,3.55q.57,3.12.83,6.16c.17,2,.4,4.39.69,7.09.1,1.07.19,1.94.29,2.61s.18,1.25.25,1.7.15.85.22,1.16.16.62.25.91v.29Zm-4.27-30.27a7.37,7.37,0,0,0,1.56-.15,1.8,1.8,0,0,0,1.16-1,7.86,7.86,0,0,0,.72-2.6,38,38,0,0,0,.25-5,23.58,23.58,0,0,0-.25-3.94A5.76,5.76,0,0,0,240,208a1.73,1.73,0,0,0-1.05-.79,5.32,5.32,0,0,0-1.27-.15h-3.47v15.72Z"/><path class="cls-2" d="M90.16,177.44v-5.31h8.3c0,.57.05,1.36.06,2.39s0,2.25,0,3.68c0,1.78,0,3.27-.09,4.48s-.15,2.21-.27,3a15.15,15.15,0,0,1-.42,2,12.53,12.53,0,0,1-.56,1.47A4.26,4.26,0,0,1,95,191.37a11.11,11.11,0,0,1-4.14.6,11.26,11.26,0,0,1-4.19-.6,4.26,4.26,0,0,1-2.19-2.16,11.76,11.76,0,0,1-.62-1.68,15,15,0,0,1-.45-2.51c-.12-1.07-.2-2.46-.24-4.15s-.07-3.91-.07-6.64,0-4.74.07-6.38.12-3,.24-4a13.32,13.32,0,0,1,.45-2.38,12.8,12.8,0,0,1,.62-1.61,5,5,0,0,1,.94-1.33,4.19,4.19,0,0,1,1.29-.87,6.28,6.28,0,0,1,1.76-.47,18.2,18.2,0,0,1,2.39-.14,19,19,0,0,1,2.45.14,6.89,6.89,0,0,1,1.74.44,3.53,3.53,0,0,1,1.18.83,6.94,6.94,0,0,1,.87,1.22,10.08,10.08,0,0,1,.91,2.84,22.19,22.19,0,0,1,.29,3.94v.78a6.24,6.24,0,0,1,0,.69H93.11a3.15,3.15,0,0,0,0-.53v-.94a13,13,0,0,0-.11-1.56,9.88,9.88,0,0,0-.25-1.34c-.2-.71-.86-1.07-2-1.07a2.38,2.38,0,0,0-1.29.27,1.72,1.72,0,0,0-.62,1c-.06.27-.12.58-.18.94s-.11.9-.16,1.65-.08,1.73-.11,3,0,2.86,0,4.88,0,3.85,0,5.13,0,2.29.09,3a16.37,16.37,0,0,0,.15,1.65,6.16,6.16,0,0,0,.23.94,1.66,1.66,0,0,0,.66,1,2.79,2.79,0,0,0,1.39.26,2.76,2.76,0,0,0,1.45-.28,1.91,1.91,0,0,0,.64-1c.06-.27.12-.61.18-1s.1-.86.13-1.33.06-1,.07-1.43,0-.92,0-1.34v-1.38a7.41,7.41,0,0,0,0-.89Z"/><path class="cls-2" d="M110.94,191.39l-.18-.53a5,5,0,0,1-.16-.7c0-.28-.09-.66-.13-1.13s-.11-1.09-.2-1.83-.17-1.86-.25-3-.2-2.34-.37-3.65a6.43,6.43,0,0,0-.63-2.34,1.27,1.27,0,0,0-1.11-.52h-1.47v13.69H101V157.64h8.7a9,9,0,0,1,3.18.49,4.08,4.08,0,0,1,2,1.59,7.41,7.41,0,0,1,1,2.83,26.26,26.26,0,0,1,.29,4.19,37.92,37.92,0,0,1-.2,4.39,9.51,9.51,0,0,1-.56,2.43,2.61,2.61,0,0,1-.85,1.18,8.53,8.53,0,0,1-1,.6v.27a3,3,0,0,1,1,1.34,11.41,11.41,0,0,1,.63,2.18,36.2,36.2,0,0,1,.51,3.79c.11,1.25.25,2.71.43,4.37.05.65.11,1.19.17,1.6s.11.77.16,1.05.09.52.13.72.1.37.16.55v.18Zm-2.63-18.63a4.68,4.68,0,0,0,1-.09,1.1,1.1,0,0,0,.71-.6,5.11,5.11,0,0,0,.45-1.61,24.32,24.32,0,0,0,.15-3.1,15.14,15.14,0,0,0-.15-2.43,3.57,3.57,0,0,0-.43-1.27,1.11,1.11,0,0,0-.64-.49,3.46,3.46,0,0,0-.78-.09h-2.14v9.68Z"/><path class="cls-2" d="M118.83,191.39V157.64h12.7v5.58h-7.22v8.29h7.09v5.3h-7.09v8.74h7.18v5.84Z"/><path class="cls-2" d="M144.51,191.39V176.81h-4.73v14.58h-5.62V157.64h5.62v13.87h4.73V157.64h5.57v33.75Z"/><path class="cls-2" d="M153,191.39V157.64h12.7v5.58h-7.22v8.29h7.09v5.3h-7.09v8.74h7.18v5.84Z"/><path class="cls-2" d="M181.06,191.39l-7.49-20.77h-.22v20.77h-5V157.64h5.7l4.59,14.4h.23v-14.4h5v33.75Z"/><path class="cls-2" d="M186.86,191.39V157.64h5.61v33.75Z"/><path class="cls-2" d="M96.45,53.21c-1.07.43-2.14.87-3.2,1.32q-3.63,1.53-7.17,3.2l9.63.29C95.94,56.4,96.19,54.8,96.45,53.21Z"/><path class="cls-2" d="M182.41,42.73c-7.12,0-45.26.49-52.21,1.46a85.23,85.23,0,0,0-3.59,14.07l55.8.74Z"/><line class="cls-3" x1="89.77" y1="81.55" x2="92.55" y2="81.63"/><path class="cls-2" d="M57.22,118.69l-.11-1c0,.34.07.68.1,1Z"/><path class="cls-2" d="M290.76,135.16l-10,4.22-82.4,30.21,8.4,21.47,69.71-25.25A128.25,128.25,0,0,1,72.67,295.33q-3.6-2.82-7-5.87a129,129,0,0,1-14.93-15.89q-3.56-4.49-6.71-9.28a128,128,0,0,1,5.24-147.85C47.82,102,45.63,93.15,43.62,87.77a151.21,151.21,0,0,0-3.5,208.93q2.06,2.22,4.2,4.37c.65.65,1.31,1.29,2,1.93A151.36,151.36,0,0,0,290.76,135.16Z"/><path class="cls-1" d="M92.55,81.63l7.68.23c0,2.71,0,5.29.06,7.69.26,10.54,1.19,17.81,1.25,18.25a8.35,8.35,0,0,0,16.56-2.15c0-.1-.8-6.38-1.08-15.59-.07-2.39-.11-5-.09-7.69l7.69.23L198,84.81l7.8.24c.38,2.7.68,5.29.92,7.71a174,174,0,0,1,.92,17.79,8.35,8.35,0,0,0,8.17,8.53H216a8.35,8.35,0,0,0,8.35-8.17c0-.54.13-7.48-.76-17.64-.22-2.41-.49-5-.83-7.71l7.76.23,14.63.44c.7,12.2,2.08,35.37,3.72,57.4l16.28-6.37c-1.18-16.26-2.39-35.39-3.56-56.25A12,12,0,0,0,249.9,69.66L227.77,69l-7.9-.24c-.55-2.55-1.18-5.14-1.88-7.75l-.54-2C207.15,22.65,186.55,2.3,157.87.17c-15.34-1.14-28,3.46-37.69,13.68-8.11,8.57-13.78,20.87-17,36.69q-.68,3.38-1.2,7c-.37,2.47-.68,5-.93,7.66l-7.69-.24-20.05-.6-13-.39A12,12,0,0,0,49.18,81.22l.39.83c2.39,5.26,4.77,13.45,6.49,26.21.39,2.9.74,6,1,9.42l.11,1h0c1.71,19.34,2,46.79-.33,85.76-1.32,21.44-3.21,41.83-4.91,57.87,1.52,2.2,3.13,4.37,4.79,6.47A120.88,120.88,0,0,0,66.81,280c2-17.14,4.92-44.79,6.73-74.41,3-49.44,2-86.66-2.91-111.15A107.87,107.87,0,0,0,67,80.86l22.74.69M194.59,68l-55.12-1.67-13.93-.42-7.71-.23q.42-4,1-7.66a102.18,102.18,0,0,1,2.78-12.38c2.57-8.68,6.17-15.54,10.7-20.33,6.13-6.46,14.08-9.24,24.31-8.48,24.44,1.81,37.17,22.3,43.8,43.65q1.2,3.89,2.14,7.76Z"/></g></g></svg>