<svg xmlns="http://www.w3.org/2000/svg" viewBox="0 0 209.26 245.28"><defs><style>.cls-1{fill:#098c29;}.cls-2{fill:#c7290e;}.cls-3{fill:#ffafa9;}</style></defs><title>Asset 2</title><g id="Layer_2" data-name="Layer 2"><g id="Layer_1-2" data-name="Layer 1"><path class="cls-1" d="M72.41,109.63v55.91h30.75V124.21a192.16,192.16,0,0,1-26.88-12.37C75,111.12,73.69,110.38,72.41,109.63Z"/><path class="cls-1" d="M95.55,104.29q3.76,2.44,7.61,4.61V29.51H72.41V85.65A140.68,140.68,0,0,0,95.55,104.29Z"/><path class="cls-1" d="M163.49,125.32V29.51H132.74v92.94a88.3,88.3,0,0,0,23.06,3.36A59.28,59.28,0,0,0,163.49,125.32Z"/><path class="cls-1" d="M150.5,133.49A115.82,115.82,0,0,1,132.74,132v33.48h30.75v-33a84.57,84.57,0,0,1-13,1Z"/><path class="cls-2" d="M185.42,70.29c9.22,16.13,11.28,32,3.92,43.34-14,21.64-56.87,18.8-95.71-6.36s-59-63.1-44.94-84.75C60,5.11,89.9,3.56,121.39,16.72,75.12-6.07,28.79-5.68,15.28,18.63.93,44.44,29,87.43,78,114.66S178.34,143,192.68,117.22C199.78,104.45,196.48,87.48,185.42,70.29Z"/><path class="cls-3" d="M42.77,22.52c6.46-10,19-14.73,34.53-14.52C59.85,6.22,45.39,10.53,38.46,21.23c-10.82,16.7.08,43.76,24.59,66C41.15,64.71,32.14,38.94,42.77,22.52Z"/><path d="M8.43,174.9v12.9h12.5V174.9h7.57v33.56H20.93v-14H8.43v14H.81V174.9Z"/><path d="M58.77,196c0,8.91-6.32,13-12.85,13-7.12,0-12.6-4.68-12.6-12.55s5.18-12.9,13-12.9C53.79,183.56,58.77,188.69,58.77,196Zm-17.63.25c0,4.18,1.74,7.32,5,7.32,2.94,0,4.83-2.94,4.83-7.32,0-3.63-1.39-7.32-4.83-7.32C42.49,188.94,41.14,192.67,41.14,196.26Z"/><path d="M63.45,173.11H71v35.35H63.45Z"/><path d="M82.82,184.11l3.63,11.95c.4,1.44.9,3.24,1.2,4.53h.15c.35-1.29.75-3.14,1.1-4.53l3-11.95H100l-5.68,16c-3.49,9.66-5.83,13.54-8.56,16a14,14,0,0,1-7.32,3.34L76.84,213a9.54,9.54,0,0,0,3.29-1.29,8.7,8.7,0,0,0,3.14-3,2,2,0,0,0,.4-1.1,2.75,2.75,0,0,0-.35-1.25L74.4,184.11Z"/><path d="M138.13,207.51a21.63,21.63,0,0,1-8.61,1.44c-11.6,0-17.58-7.22-17.58-16.78,0-11.45,8.17-17.82,18.32-17.82a19.79,19.79,0,0,1,8.26,1.49l-1.54,6a16.38,16.38,0,0,0-6.37-1.25c-6,0-10.71,3.63-10.71,11.1,0,6.72,4,11,10.75,11a19,19,0,0,0,6.32-1.1Z"/><path d="M156.21,208.46l-.45-2.44h-.15a8.78,8.78,0,0,1-7,3,7.46,7.46,0,0,1-7.87-7.47c0-6.32,5.68-9.36,14.29-9.31v-.35c0-1.29-.7-3.14-4.43-3.14a13.7,13.7,0,0,0-6.72,1.84l-1.39-4.88a20.11,20.11,0,0,1,9.46-2.14c8.12,0,10.7,4.78,10.7,10.51v8.46a37.71,37.71,0,0,0,.35,5.92Zm-.9-11.5c-4,0-7.07.9-7.07,3.83a2.72,2.72,0,0,0,3,2.89,4.13,4.13,0,0,0,3.93-2.79,5.43,5.43,0,0,0,.15-1.29Z"/><path d="M168.66,192.13c0-3.58-.1-5.92-.2-8H175l.25,4.48h.2a7.15,7.15,0,0,1,6.57-5,7.8,7.8,0,0,1,1.59.1v7.12a10.85,10.85,0,0,0-2-.2c-2.79,0-4.68,1.49-5.18,3.83a8.92,8.92,0,0,0-.15,1.69v12.35h-7.57Z"/><path d="M193,198.7c.25,3.14,3.34,4.63,6.87,4.63a21.46,21.46,0,0,0,6.72-1l1,5.13a24,24,0,0,1-8.81,1.49c-8.26,0-13-4.78-13-12.4,0-6.17,3.83-13,12.3-13,7.87,0,10.85,6.12,10.85,12.15a18,18,0,0,1-.25,3Zm8.91-5.18c0-1.84-.8-4.93-4.28-4.93-3.19,0-4.48,2.89-4.68,4.93Z"/><path d="M14.95,239.09a11.43,11.43,0,0,1-5.82,1.44,8.73,8.73,0,0,1-6.68-2.6,11.7,11.7,0,0,1-.09-14.19,8.55,8.55,0,0,1,6.59-2.53,23.65,23.65,0,0,1,5.68.92v3.52H13.09l0-.25,0-.73a2.16,2.16,0,0,0-1.13-1.92,5.81,5.81,0,0,0-3.08-.7,5.18,5.18,0,0,0-4.46,2.39,11,11,0,0,0-1.66,6.38,9.21,9.21,0,0,0,2,6.25,6.82,6.82,0,0,0,5.43,2.24,10.18,10.18,0,0,0,4.85-1.4Z"/><path d="M26,238.23a6.31,6.31,0,0,1-4.33,2.16,4,4,0,0,1-2.86-1.09,3.61,3.61,0,0,1-1.15-2.73,3.8,3.8,0,0,1,1.49-3.11q1.7-1.37,5.77-1.37h.51V230.4q0-3.2-2.42-3.2a3.11,3.11,0,0,0-2,.7,2.58,2.58,0,0,0-.65,1.73v.24H18.68v-2.47a12,12,0,0,1,4.8-1.13q4.4,0,4.4,4v6a6.46,6.46,0,0,0,.28,2.28,1,1,0,0,0,1,.66,2.61,2.61,0,0,0,.66-.11l.07.92a4.82,4.82,0,0,1-1.58.31Q26.48,240.39,26,238.23Zm-.57-.28v-5.11h-.57a5.6,5.6,0,0,0-3.38.9,2.9,2.9,0,0,0-1.22,2.47,2.67,2.67,0,0,0,.76,1.95,2.54,2.54,0,0,0,1.89.77A4.75,4.75,0,0,0,25.43,237.95Z"/><path d="M35.45,230.25v6.6a3.94,3.94,0,0,0,.29,2q.29.34,1.78.42h.53v.77H30.7v-.77h.24q1.5-.1,1.78-.43a4.05,4.05,0,0,0,.28-2v-7.06a4,4,0,0,0-.28-2,3.15,3.15,0,0,0-1.78-.44H30.7v-.77h4.75v2.54a5,5,0,0,1,4.39-2.85,3,3,0,0,1,.83.14v3.69H39.29v-.22a6.58,6.58,0,0,0-.24-1.37q-.11-.22-.57-.22A3.47,3.47,0,0,0,35.45,230.25Z"/><path d="M46.65,226.57v10.28a4.15,4.15,0,0,0,.27,2q.27.32,1.79.42H49v.77h-7v-.77h.24q1.5-.1,1.78-.43a4.05,4.05,0,0,0,.28-2v-7.06a4,4,0,0,0-.28-2,3.15,3.15,0,0,0-1.78-.44H41.9v-.77Zm-2.45-2.45v-2.45h2.45v2.45Z"/><path d="M54.47,229.1A6.56,6.56,0,0,1,56.62,227a5.31,5.31,0,0,1,2.72-.71,3.43,3.43,0,0,1,2.74,1.15,4.69,4.69,0,0,1,1,3.15v6.3a5.84,5.84,0,0,0,.29,2.09,3.77,3.77,0,0,0,1.79.35h.22v.77H58.31v-.77h.22a3.78,3.78,0,0,0,1.79-.35,5.86,5.86,0,0,0,.29-2.09v-5.91a4.63,4.63,0,0,0-.45-2.42,1.81,1.81,0,0,0-1.62-.68,4.15,4.15,0,0,0-1.84.52,11.33,11.33,0,0,0-2.23,1.56v6.94a4.16,4.16,0,0,0,.27,2q.27.32,1.79.42h.24v.77H49.72v-.77H50q1.5-.1,1.78-.43a4.05,4.05,0,0,0,.28-2v-7.06a4,4,0,0,0-.28-2,3.15,3.15,0,0,0-1.78-.44h-.24v-.77h4.75Z"/><path d="M68.88,239.55q-1.4-.65-1.4-1.76a1.82,1.82,0,0,1,.59-1.25,6.39,6.39,0,0,1,1.77-1.2,4.55,4.55,0,0,1-2.06-1.69,4.8,4.8,0,0,1-.69-2.63,4.51,4.51,0,0,1,1.39-3.46,5.21,5.21,0,0,1,3.71-1.3,6.1,6.1,0,0,1,2.56.52l4.74-.37-.62,1.49-3.24-.52A4.85,4.85,0,0,1,77.21,231a4.58,4.58,0,0,1-1.4,3.44,4.9,4.9,0,0,1-3.56,1.36,6.48,6.48,0,0,1-1.74-.26,2.57,2.57,0,0,0-.66.71,1.55,1.55,0,0,0-.22.8q0,.88,1.55.88h2.15a9.56,9.56,0,0,1,4.27.66,2.51,2.51,0,0,1,1.17,2.4A3.6,3.6,0,0,1,77,244.11a8.31,8.31,0,0,1-4.67,1.17,10.65,10.65,0,0,1-4.46-.79q-1.69-.79-1.69-2.09a2.21,2.21,0,0,1,.68-1.55A6.2,6.2,0,0,1,68.88,239.55Zm.65.21a3,3,0,0,0-.69,1,3.16,3.16,0,0,0-.23,1.22,2.16,2.16,0,0,0,1,1.92,5.15,5.15,0,0,0,2.85.64,4.75,4.75,0,0,0,2.89-.8,2.54,2.54,0,0,0,1.08-2.15,1.58,1.58,0,0,0-.65-1.38,3.38,3.38,0,0,0-2-.46Zm0-8.84A5.77,5.77,0,0,0,70.2,234a2.18,2.18,0,0,0,2,1,2.15,2.15,0,0,0,2-1,5.83,5.83,0,0,0,.65-3.07q0-3.92-2.59-3.92a2.23,2.23,0,0,0-2,1A5.27,5.27,0,0,0,69.54,230.92Z"/><path d="M93.09,231v5.81a4.14,4.14,0,0,0,.27,2q.27.33,1.79.43h.24v.77H88.18v-.77h.24q1.5-.1,1.78-.43a4.05,4.05,0,0,0,.28-2v-12a4,4,0,0,0-.28-2q-.28-.32-1.78-.42l-.24,0v-.77h7.21v.77l-.24,0q-1.52.1-1.79.42a4.1,4.1,0,0,0-.27,2V230h8.75v-5.09a4,4,0,0,0-.28-2q-.28-.32-1.8-.42l-.22,0v-.77h7.21v.77l-.24,0q-1.52.1-1.79.42a4.09,4.09,0,0,0-.27,2v12a4.13,4.13,0,0,0,.27,2q.27.33,1.79.43h.24v.77H99.54v-.77h.22q1.53-.1,1.8-.42a4.14,4.14,0,0,0,.27-2V231Z"/><path d="M118.18,240.07v-2.54a6.65,6.65,0,0,1-2.14,2.13,5.25,5.25,0,0,1-2.72.72,3.42,3.42,0,0,1-2.74-1.16,4.63,4.63,0,0,1-1-3.15v-6.29a4,4,0,0,0-.28-2,3.15,3.15,0,0,0-1.78-.44h-.24v-.77H112v9.13a4,4,0,0,0,.55,2.33,1.9,1.9,0,0,0,1.66.78,4.22,4.22,0,0,0,2-.52,7.23,7.23,0,0,0,1.93-1.57v-6.93a5.82,5.82,0,0,0-.29-2.09,3.77,3.77,0,0,0-1.79-.35h-.22v-.77h4.75v10.28a5.87,5.87,0,0,0,.28,2.09,3.75,3.75,0,0,0,1.78.35h.24v.77Z"/><path d="M128.6,229.09a8.27,8.27,0,0,1,2.23-2.12,4.61,4.61,0,0,1,2.43-.71,3.61,3.61,0,0,1,2.35.71,3.36,3.36,0,0,1,1.12,2.12,9.36,9.36,0,0,1,2.39-2.12,4.75,4.75,0,0,1,2.42-.71q3.63,0,3.63,4v6.61a4.16,4.16,0,0,0,.27,2q.27.32,1.8.43h.24v.77h-7v-.77h.24q1.53-.11,1.8-.43a4.18,4.18,0,0,0,.27-2v-6.17a4.23,4.23,0,0,0-.42-2.23,1.67,1.67,0,0,0-1.49-.62,4,4,0,0,0-1.88.52,9.32,9.32,0,0,0-2,1.57v6.92a4.14,4.14,0,0,0,.27,2q.27.33,1.79.43h.24v.77h-7.05v-.77h.24q1.53-.1,1.8-.42a4.22,4.22,0,0,0,.27-2v-6.17a4.31,4.31,0,0,0-.41-2.21,1.59,1.59,0,0,0-1.44-.63,4.19,4.19,0,0,0-2,.52,8.21,8.21,0,0,0-2,1.57v6.92a4.16,4.16,0,0,0,.27,2q.27.32,1.79.42h.23v.77h-7v-.77h.24q1.5-.1,1.78-.43a4.05,4.05,0,0,0,.28-2v-7.06a4,4,0,0,0-.28-2,3.15,3.15,0,0,0-1.78-.44h-.24v-.77h4.75Z"/><path d="M157.06,238.23a6.31,6.31,0,0,1-4.33,2.16,4,4,0,0,1-2.86-1.09,3.62,3.62,0,0,1-1.15-2.73,3.8,3.8,0,0,1,1.49-3.11q1.71-1.37,5.77-1.37h.51V230.4q0-3.2-2.42-3.2a3.11,3.11,0,0,0-2,.7,2.58,2.58,0,0,0-.65,1.73v.24h-1.67v-2.47a12.05,12.05,0,0,1,4.8-1.13q4.4,0,4.4,4v6a6.45,6.45,0,0,0,.28,2.28,1,1,0,0,0,1,.66,2.61,2.61,0,0,0,.66-.11l.08.92a4.82,4.82,0,0,1-1.58.31Q157.54,240.39,157.06,238.23Zm-.57-.28v-5.11h-.57a5.6,5.6,0,0,0-3.38.9,2.9,2.9,0,0,0-1.22,2.47,2.67,2.67,0,0,0,.76,1.95,2.54,2.54,0,0,0,1.89.77A4.74,4.74,0,0,0,156.49,237.95Z"/><path d="M166.51,229.1a6.56,6.56,0,0,1,2.15-2.13,5.31,5.31,0,0,1,2.72-.71,3.43,3.43,0,0,1,2.74,1.15,4.69,4.69,0,0,1,1,3.15v6.3a5.84,5.84,0,0,0,.29,2.09,3.77,3.77,0,0,0,1.79.35h.22v.77h-7.05v-.77h.22a3.78,3.78,0,0,0,1.79-.35,5.86,5.86,0,0,0,.29-2.09v-5.91a4.63,4.63,0,0,0-.45-2.42,1.81,1.81,0,0,0-1.62-.68,4.15,4.15,0,0,0-1.84.52,11.33,11.33,0,0,0-2.23,1.56v6.94a4.16,4.16,0,0,0,.27,2q.27.32,1.79.42h.24v.77h-7.05v-.77H162c1-.07,1.6-.21,1.79-.43a4.06,4.06,0,0,0,.28-2v-7.06a4,4,0,0,0-.28-2,3.15,3.15,0,0,0-1.79-.44h-.24v-.77h4.75Z"/><path d="M182.61,226.57v10.28a4.16,4.16,0,0,0,.27,2q.27.32,1.79.42h.24v.77h-7.05v-.77h.24c1-.07,1.6-.21,1.79-.43a4.06,4.06,0,0,0,.28-2v-7.06a4,4,0,0,0-.28-2,3.15,3.15,0,0,0-1.79-.44h-.24v-.77Zm-2.45-2.45v-2.45h2.45v2.45Z"/><path d="M194.19,240a4.66,4.66,0,0,1-1.78.39,4.06,4.06,0,0,1-3.14-1.08,5,5,0,0,1-1-3.44v-8.28h-2v-1h2v-2.45l2.45-.61v3.06h3.77v1h-3.77v8.6a4.88,4.88,0,0,0,.46,2.47,1.71,1.71,0,0,0,1.57.73,3.53,3.53,0,0,0,1.42-.39Z"/><path d="M197.26,245l4.43-4.91-4.26-10.23a10.52,10.52,0,0,0-1-2,1.29,1.29,0,0,0-1-.44h-.25v-.77h6.18v.77h-.26q-1.69,0-1.69.45a13.49,13.49,0,0,0,.71,2l3,7.25,3.24-7.29a8.33,8.33,0,0,0,.71-1.93q0-.53-1.5-.53h-.33v-.77h4v.77H209q-.77,0-1.32,1.41l-.47,1.07L200.35,245Z"/></g></g></svg>