<svg xmlns="http://www.w3.org/2000/svg" viewBox="0 0 195.17 178.2"><defs><style>.cls-1{fill:red;}.cls-2{fill:#fff;}.cls-3{fill:#296f20;}</style></defs><title>Asset 3</title><g id="Layer_2" data-name="Layer 2"><g id="Layer_1-2" data-name="Layer 1"><g id="Layer_1-3" data-name="Layer 1"><path id="svg_1" data-name="svg 1" d="M94,156.93h.66L98,18.09H90.55Z"/><g id="svg_2" data-name="svg 2"><path id="svg_3" data-name="svg 3" d="M86.12,36.14c-6.71.85-12.79-7-9.69-8.85.3-.7.21-1.06-.5-.92-7.29,1-11.9-5.06-11.1-11.38.05-.42-.24-.51-.47-.53s-.49.31-.62.53c-2.27,3.65-6.1,5.88-9.61,8.22-4,2.69-10.24,6.14-12.92,6.61-2.37.41-6.1.84-7.46-1.09-.28-.46,0-.51.33-.7,4.45-2.23,4.92-1.74,13.07-6.9C54.3,16.6,61.2,10.64,67.85,7.28,70.77,5.8,79.82,4.45,83,8.8c5.38,7.4-2.17,10.62-2.39,11.93-.42,2.52,2.07,7.22,8.53,5.5L90,26l.2,9-.29.16A9.88,9.88,0,0,1,86.12,36.14Z"/><path id="svg_4" data-name="svg 4" d="M62,19.09c.22-.24,1.18-.71,1.24-.31a12.47,12.47,0,0,0,1.33,3.64c.21.39-.25.89-.54,1.24a59.85,59.85,0,0,1-13.25,8.7,10.7,10.7,0,0,1-4.31.62c-1-.08-2.33,0-2.8-.88-.11-.2,0-.47.18-.66C50.35,28.74,55.38,24.94,62,19.09Z"/><path id="svg_5" data-name="svg 5" d="M64.6,24.58a.82.82,0,0,1,.91-.29,6.13,6.13,0,0,0,2.43,2c.33.15.76.61.2,1.08-5.85,5-10.28,9.18-16.08,7.59-.19,0-.14-.63,0-.73A46.87,46.87,0,0,0,64.6,24.58Z"/><path id="svg_6" data-name="svg 6" d="M69.35,27.58c.91-.62.15.14,4.11.43.51,0-.06,1.12-.24,1.61a20.75,20.75,0,0,1-7.51,6.31,5,5,0,0,1-4.22.29c-.12-.06-.15-.28-.22-.35C61,35.61,63,34.2,64.77,32.56A38.16,38.16,0,0,0,69.35,27.58Z"/><path id="svg_7" data-name="svg 7" d="M102.45,36.14c6.71.85,12.79-7,9.69-8.85-.3-.7-.21-1.06.5-.92,7.29,1,11.9-5.06,11.1-11.38-.05-.42.24-.51.47-.53s.49.31.62.53c2.27,3.65,6.1,5.88,9.61,8.22,4,2.69,10.24,6.14,12.92,6.61,2.37.41,6.1.84,7.46-1.09.28-.46,0-.51-.33-.7-4.45-2.23-4.92-1.74-13.07-6.9-7.16-4.53-14.07-10.48-20.71-13.85-2.92-1.48-12-2.83-15.13,1.51-5.38,7.4,2.17,10.62,2.39,11.93.42,2.52-2.07,7.22-8.53,5.5L98.6,26l-.2,9,.29.16A9.88,9.88,0,0,0,102.45,36.14Z"/><path id="svg_8" data-name="svg 8" d="M126.61,19.09c-.22-.24-1.18-.71-1.24-.31A12.47,12.47,0,0,1,124,22.42c-.21.39.25.89.54,1.24a59.86,59.86,0,0,0,13.25,8.7,10.7,10.7,0,0,0,4.31.62c1-.08,2.33,0,2.8-.88.11-.2,0-.47-.18-.66C138.21,28.74,133.19,24.94,126.61,19.09Z"/><path id="svg_9" data-name="svg 9" d="M124,24.58a.82.82,0,0,0-.91-.29,6.12,6.12,0,0,1-2.43,2c-.33.15-.76.61-.2,1.08,5.85,5,10.28,9.18,16.08,7.59.19,0,.14-.63,0-.73A46.87,46.87,0,0,1,124,24.58Z"/><path id="svg_10" data-name="svg 10" d="M119.21,27.58c-.91-.62-.15.14-4.11.43-.51,0,.06,1.12.24,1.61a20.75,20.75,0,0,0,7.51,6.31,5,5,0,0,0,4.22.29c.12-.06.15-.28.22-.35.26-.26-1.69-1.68-3.49-3.31A38.23,38.23,0,0,1,119.21,27.58Z"/></g><path id="svg_11" data-name="svg 11" d="M94.28,5.49a5.69,5.69,0,1,1-5.69,5.69A5.69,5.69,0,0,1,94.28,5.49Z"/><path id="svg_12" data-name="svg 12" d="M95.79,8.78a.74.74,0,0,1,1-1c3.29,1.5,1.67,7.25-2,7.09-.56,0-.74-.53-.32-.82C96.06,13,97.4,11.38,95.79,8.78Z"/><path id="svg_13" data-name="svg 13" d="M114.08,50.87a8.88,8.88,0,0,0-8.18-9.24c-1.83-.16-4.57-.17-6.16,1.26s2.43,4.19,4.49,4.39c2.77.27,4.22-1.06,4.72-1.83.17-.26.48-.15.58.11,1.25,9.37-8.29,11.5-15.26,13.47a36.37,36.37,0,0,1,3.88,1.27,31.87,31.87,0,0,1,5,2.6C108.67,60.08,113.6,56.27,114.08,50.87Z"/><path id="svg_14" data-name="svg 14" d="M88.42,132.9c-3.3,3.37-3,8.38.56,12-.56-3.69-1.92-6.46,2.22-9.84a20.65,20.65,0,0,1,3.09-2c-1.17-.66-2.38-1.28-3.7-2.15C89.76,131.6,89,132.31,88.42,132.9Z"/><path id="svg_15" data-name="svg 15" d="M101,88.32c-2.16-1.37-4.52-2.59-6.7-3.81-1.27-.71-2.49-1.43-3.57-2.18C84.55,78,84.5,70.71,93.49,67.12l.8-.32c-2.69-1.07-5.88-2.33-8.92-3.9-10.9,7-7.25,16.58-3.95,20.37a30.18,30.18,0,0,0,6.17,5c2.23,1.47,4.59,2.86,6.7,4.28a27.08,27.08,0,0,1,4.2,3.35c4,4.14.71,8.79-1,10-1,.78-2.13,1.48-3.24,2.16a40.65,40.65,0,0,1,6.74,4.72,19.28,19.28,0,0,0,6.5-8.35C110.64,96.29,106.44,91.79,101,88.32Z"/><path id="svg_16" data-name="svg 16" d="M103.2,62.9a31.91,31.91,0,0,0-5-2.6A36.44,36.44,0,0,0,94.28,59c-7-2-16.51-4.11-15.26-13.47.11-.27.41-.37.58-.11.49.77,2,2.1,4.72,1.83,2.06-.2,6-3,4.49-4.39s-4.33-1.42-6.16-1.26a8.89,8.89,0,0,0-8.18,9.24c.48,5.41,5.42,9.21,10.88,12,3,1.57,6.23,2.83,8.92,3.9l.8.32c9,3.58,8.94,10.91,2.77,15.21-1.08.75-2.29,1.47-3.57,2.18,2.18,1.22,4.54,2.43,6.7,3.81a30.15,30.15,0,0,0,6.17-5C110.45,79.48,114.11,69.92,103.2,62.9Z"/><path id="svg_17" data-name="svg 17" d="M100.15,132.9c-.58-.59-1.34-1.3-2.17-2.08-1.16-1.08-2.47-2.31-3.7-3.57a31.56,31.56,0,0,1-2.37-2.7c-2.87-3.76-.08-6.18,2.12-7.35l.24-.13a46.3,46.3,0,0,1-6.74-4.19,16.67,16.67,0,0,0-1.33,1.39,9.48,9.48,0,0,0,0,12.87,26,26,0,0,0,4.37,3.68c1.32.88,2.53,1.5,3.7,2.15a20.63,20.63,0,0,1,3.09,2c4.14,3.38,2.78,6.16,2.22,9.84C103.2,141.28,103.46,136.27,100.15,132.9Z"/><path id="svg_18" data-name="svg 18" d="M102.35,114.28a16.71,16.71,0,0,0-1.33-1.39,40.65,40.65,0,0,0-6.74-4.72c-1.11-.68-2.2-1.38-3.24-2.16-1.67-1.25-5-5.9-1-10a27.09,27.09,0,0,1,4.2-3.35c-2.11-1.42-4.47-2.81-6.7-4.28-5.46,3.47-9.66,8-6.54,16.22a19.27,19.27,0,0,0,6.5,8.35,46.29,46.29,0,0,0,6.74,4.19l.24.13c2.2,1.17,5,3.58,2.12,7.35a31.56,31.56,0,0,1-2.37,2.7c1.22,1.27,2.54,2.49,3.7,3.57a26,26,0,0,0,4.37-3.68A9.48,9.48,0,0,0,102.35,114.28Z"/></g><path class="cls-1" d="M149.45,0A89.28,89.28,0,1,1,1.9,67.64c0-2,.09-4,.22-6A95.78,95.78,0,0,0,0,81.72C0,135,43.69,178.2,97.59,178.2s97.59-43.2,97.59-96.49A96.16,96.16,0,0,0,149.45,0Z"/><path class="cls-2" d="M50,148.89l6.88,3.91L56,154.46,53.49,153l-4.31,7.57-1.9-1.08L51.59,152l-2.5-1.42Z"/><path class="cls-2" d="M53.29,162.82l4.51-9.94,1.93.88-1.44,3.18a5.31,5.31,0,0,1,2,.3c2,.91,2,2.4,1,4.57l-1.74,3.85-1.93-.87L59.34,161c.48-1.07.65-1.83-.28-2.25a5.29,5.29,0,0,0-1.42-.37l-2.42,5.34Z"/><path class="cls-2" d="M68.32,167l-.49,1.46a17,17,0,0,1-3.25-.69c-2.25-.8-2.81-2.24-1.87-4.89s2.53-3.55,4.7-2.78,2.86,2.26,2.07,4.48l-.64,1.31-4.38-1.56c-.3.89,0,1.43,1.05,1.81S68.32,167,68.32,167Zm-.76-3.25c.42-1.19.22-1.69-.72-2s-1.44,0-1.86,1.11Z"/><path class="cls-2" d="M78.23,167.07l-1.46-.16-.88,4-2.13-.47,2.28-10.36,2.13.47-1,4.55,1.46.16,2.7-4,2.43.53-3.43,4.69,1.21,5.68-2.46-.54Z"/><path class="cls-2" d="M83.43,172.4l1.26-10.85,2.11.25-.4,3.47a5.31,5.31,0,0,1,2-.33c2.2.26,2.61,1.69,2.33,4.06l-.49,4.2-2.11-.25.48-4.16c.14-1.16.07-1.94-1-2.06a5.31,5.31,0,0,0-1.46.08l-.68,5.83Z"/><path class="cls-2" d="M93,165.49l2.12.08-.31,7.8-2.12-.08Zm.13-3.12,2.12.08-.09,2.12L93,164.49Z"/><path class="cls-2" d="M104,173.2l-2.1.08V173a5.76,5.76,0,0,1-1.89.59c-2.39.09-3.14-1.25-3.25-4s1-4.1,3.12-4.18a12.47,12.47,0,0,1,1.72.15l-.12-3.15,2.12-.08Zm-2.2-1.83-.16-4.1a10.58,10.58,0,0,0-1.56-.09c-.79,0-1.26.72-1.19,2.3s.39,2.23,1.39,2.19A6.31,6.31,0,0,0,101.77,171.37Z"/><path class="cls-2" d="M106.89,173.05l-1.4-7.68,2.07-.38.08.43a4.91,4.91,0,0,1,1.73-1,2.54,2.54,0,0,1,2.08.37,7.22,7.22,0,0,1,2.49-1.2c2.12-.39,3,.73,3.42,3.2l.76,4.16-2.09.38-.75-4.1c-.21-1.17-.51-1.89-1.44-1.72a5.47,5.47,0,0,0-1.4.56s.27,1.14.38,1.74l.73,4-2.09.38-.72-3.95c-.25-1.38-.5-2-1.47-1.87a4.44,4.44,0,0,0-1.34.53l1.05,5.74Z"/><path class="cls-2" d="M125.87,166.2c.18.43.3.59.73.53l.44,1.51a3.57,3.57,0,0,1-2.32.2,6.16,6.16,0,0,1-2,1.25c-1.58.52-2.61-.08-3.14-1.65s.26-2.47,1.88-3.14l1.57-.65-.15-.46c-.21-.64-.55-.7-1.15-.5-1,.33-2.79,1.06-2.79,1.06l-.52-1.36a14.65,14.65,0,0,1,2.91-1.44c2-.65,3-.15,3.56,1.58Zm-3.75,0a.82.82,0,0,0-.57,1.11c.17.52.49.81,1,.63a6.86,6.86,0,0,0,1.39-.73l-.53-1.58Z"/><path class="cls-2" d="M129.08,167.23l-4.53-9.94,1.93-.88,1.45,3.18a5.31,5.31,0,0,1,1.55-1.33c2-.92,3.1.1,4.09,2.27l1.75,3.85-1.93.88-1.73-3.81c-.49-1.07-.95-1.7-1.88-1.27a5.28,5.28,0,0,0-1.21.83l2.43,5.34Z"/><path class="cls-2" d="M142.11,158.43c1.22,2,.64,3-1.39,4.23l-1-1.6c.67-.41.91-.81.45-1.57L135.65,152l1.85-1.13Z"/><path class="cls-2" d="M148.9,153.36c.3.36.46.48.85.29l.86,1.32a3.56,3.56,0,0,1-2.16.87,6.16,6.16,0,0,1-1.58,1.79c-1.35,1-2.52.69-3.48-.66s-.47-2.44.87-3.55l1.31-1.08-.28-.39c-.39-.55-.73-.51-1.25-.14-.85.61-2.35,1.83-2.35,1.83l-.89-1.15a14.62,14.62,0,0,1,2.35-2.23c1.68-1.19,2.81-1,3.87.46Zm-3.59,1.1a.83.83,0,0,0-.22,1.23c.32.44.7.63,1.17.3a6.88,6.88,0,0,0,1.12-1.1l-1-1.36Z"/><path class="cls-2" d="M152.13,153.53l-5-6,1.62-1.35.28.33a4.84,4.84,0,0,1,1.12-1.75c1.7-1.42,3-.74,4.55,1.09l2.71,3.24-1.63,1.36-2.67-3.19c-.76-.91-1.37-1.39-2.16-.73a4.38,4.38,0,0,0-.93,1.14l3.74,4.47Z"/><path class="cls-2" d="M162,141.88c.35.32.52.41.88.17l1,1.19a3.56,3.56,0,0,1-2,1.16,6.16,6.16,0,0,1-1.31,2c-1.2,1.14-2.4,1-3.54-.17s-.81-2.35.36-3.64l1.14-1.26-.33-.35c-.46-.49-.8-.4-1.26,0-.76.72-2.07,2.14-2.07,2.14l-1-1a14.62,14.62,0,0,1,2-2.54c1.49-1.42,2.64-1.41,3.89-.08Zm-3.4,1.59a.82.82,0,0,0,0,1.24c.38.4.78.53,1.2.13a6.85,6.85,0,0,0,1-1.25l-1.15-1.21Z"/><path class="cls-2" d="M162.46,135.78l2.33,2.19c.57.53.83.78,1.29.29.3-.32.8-.9.8-.9l1.28,1.07a10.47,10.47,0,0,1-.93,1.34c-1.31,1.4-2.21,1.31-3.85-.23L161,137.33l-.64.68-1.3-1.22.64-.68-1.58-1.48,1.45-1.55,1.58,1.48,1.33-1.42,1.3,1.22Z"/><path class="cls-2" d="M171.6,131.15c.38.27.57.34.9.06l1.17,1.05a3.57,3.57,0,0,1-1.86,1.4,6.17,6.17,0,0,1-1.06,2.14c-1.06,1.28-2.26,1.32-3.54.26s-1.09-2.23-.07-3.66l1-1.39-.37-.31c-.52-.43-.84-.3-1.24.18-.67.81-1.8,2.37-1.8,2.37l-1.16-.87a14.64,14.64,0,0,1,1.7-2.77c1.31-1.59,2.45-1.71,3.86-.55Zm-3.18,2a.82.82,0,0,0,.11,1.24c.42.35.84.43,1.2,0a6.87,6.87,0,0,0,.8-1.36L169.24,132Z"/><path class="cls-2" d="M176.72,119.63,174.6,123l3.73,2.33-1.16,1.85-9-5.62,1.16-1.85L173,122l2.12-3.4-3.68-2.3,1.16-1.85,9,5.62L180.46,122Z"/><path class="cls-2" d="M182.37,109.75c2.16,1,3.31,2.58,2.12,5.06s-3.11,2.54-5.28,1.5-3.28-2.56-2.09-5S180.21,108.71,182.37,109.75Zm-.93,1.94c-1.36-.66-2.2-.71-2.71.35s.06,1.68,1.42,2.33,2.23.72,2.74-.33S182.8,112.35,181.44,111.69Z"/><path class="cls-2" d="M183.15,102.08s-.91,1.76-1.22,2.62-.19,1.11.21,1.25.51-.13,1.26-1.41c.94-1.61,1.66-2,3.14-1.5,1.72.63,2,2,1.29,3.86a20.05,20.05,0,0,1-1.39,2.73l-1.62-.66s.91-1.76,1.18-2.52c.35-1,.25-1.27-.13-1.41s-.53,0-1.25,1.28c-.85,1.51-1.54,2.22-3.15,1.63s-1.91-2.18-1.34-3.74a20.58,20.58,0,0,1,1.42-2.75Z"/><path class="cls-2" d="M181.84,99.83l.51-2,.41.1a4.53,4.53,0,0,1-.16-1.9c.5-2,1.84-2.76,4.66-2.06,3.22.8,3.74,2.14,3.16,4.49a9.33,9.33,0,0,1-.44,1.25l3.12.77-.51,2.06Zm2.45-1.58,4,1a11.54,11.54,0,0,0,.37-1.1c.31-1.23-.28-1.72-1.89-2.12s-2.22,0-2.42.82A4.15,4.15,0,0,0,184.29,98.25Z"/><path class="cls-2" d="M180.63,91l.33-2.1,2.1.33-.33,2.1Zm3.08.49.33-2.1,7.71,1.21-.33,2.1Z"/><path class="cls-2" d="M186.28,85.28l3.19.28c.78.07,1.13.1,1.19-.56,0-.44.07-1.2.07-1.2l1.67.05a10.45,10.45,0,0,1,.09,1.63c-.17,1.91-.93,2.4-3.17,2.2l-3.23-.28-.08.93-1.77-.16.08-.93-2.16-.19.18-2.11,2.16.19.17-1.94,1.77.15Z"/><path class="cls-2" d="M190.35,75.79c.47,0,.65-.1.73-.53l1.58,0a3.56,3.56,0,0,1-.51,2.27,6.16,6.16,0,0,1,.58,2.32c0,1.66-.87,2.47-2.52,2.49s-2.28-1-2.43-2.73l-.15-1.69h-.48c-.67,0-.84.31-.83.95,0,1,.17,3,.17,3L185,82a14.61,14.61,0,0,1-.5-3.21c0-2.06.75-2.89,2.58-2.92Zm-1.13,3.58c.05.55.32.88.89.87s.92-.22.91-.79a6.85,6.85,0,0,0-.27-1.55l-1.67,0Z"/><path class="cls-2" d="M181.36,74.22l-.24-2.11L192,70.9l.24,2.11Z"/><path class="cls-3" d="M16.84,98.94V63.3H24V79.13L38.58,63.3h9.68L34.84,77.18,49,98.94H39.67l-9.8-16.73-5.84,6V98.94Z"/><path class="cls-3" d="M64,63.3h7.17V85.86a23,23,0,0,1-.78,6.81,9.64,9.64,0,0,1-3.79,5,12.59,12.59,0,0,1-7.25,1.88q-5.28,0-8.12-3t-2.87-8.67l6.78-.78a9.49,9.49,0,0,0,.9,4.33,3.87,3.87,0,0,0,3.55,1.92A3.93,3.93,0,0,0,63,92q1-1.37,1-5.7Z"/><path class="cls-3" d="M114.15,98.94V63.3h7.2v14h14.1v-14h7.2V98.94h-7.2V83.36h-14.1V98.94Z"/><path class="cls-3" d="M147,98.94V63.59h7.2V92.94h17.9v6Z"/></g></g></svg>