<svg xmlns="http://www.w3.org/2000/svg" viewBox="0 0 199.69 59.75"><defs><style>.cls-1{fill:#0972b9;}.cls-2{fill:#86888b;}.cls-3{fill:#f69432;}.cls-4{fill:#fff;}.cls-5{fill:#757679;}</style></defs><title>Asset 18</title><g id="Layer_2" data-name="Layer 2"><g id="Layer_1-2" data-name="Layer 1"><rect class="cls-1" width="199.69" height="59.75"/><rect class="cls-2" x="5.45" y="7.9" width="37.03" height="43.96"/><rect class="cls-3" x="6.05" y="8.61" width="35.83" height="42.53"/><polygon class="cls-4" points="35.35 27.2 35.35 49.45 18.5 49.45 18.5 27.2 17.44 27.2 17.44 50.59 36.41 50.59 36.41 27.2 35.35 27.2"/><path class="cls-4" d="M36.58,27.58a1.17,1.17,0,0,1-1.39,1.14A43.61,43.61,0,0,0,27,27.83a47,47,0,0,0-9,1,.59.59,0,0,1-.72-.58v-.34a1.6,1.6,0,0,1,1.28-1.57,45,45,0,0,1,8.36-.9,45.66,45.66,0,0,1,8.75,1,1.17,1.17,0,0,1,.93,1.14Z"/><path class="cls-4" d="M34.56,24a.91.91,0,0,1-1.08.89A36.57,36.57,0,0,0,27,24.2a35.58,35.58,0,0,0-7.08.82.4.4,0,0,1-.48-.39v-.35a1.25,1.25,0,0,1,1-1.22,35.22,35.22,0,0,1,6.5-.7c2.76,0,5.37.12,6.89.71a1,1,0,0,1,.72.88Z"/><path class="cls-4" d="M31.13,22A14.62,14.62,0,0,0,27,21.3a16.17,16.17,0,0,0-4.31.7h0a3.21,3.21,0,0,1,3.13-2.51h2.29a3.07,3.07,0,0,1,3,2.51Z"/><polygon class="cls-4" points="26.91 9.22 25.96 19.5 27.86 19.5 26.91 9.22"/><path class="cls-4" d="M28.2,18.89c-.61-.88-1.29-2.15-1.29-2.15a14.3,14.3,0,0,1-1.12,2.12,3.6,3.6,0,0,1-1.25,1h4.75A3.26,3.26,0,0,1,28.2,18.89Z"/><path class="cls-4" d="M10.38,34.31A16.44,16.44,0,0,1,22.47,18.45a17.28,17.28,0,0,0-5,32.14V47.81A16.41,16.41,0,0,1,10.38,34.31Z"/><rect class="cls-4" x="21.89" y="30.5" width="9.86" height="13.31"/><rect class="cls-4" x="32.05" y="30.65" width="1.82" height="9.31"/><rect class="cls-4" x="19.86" y="30.65" width="1.82" height="9.31"/><polygon class="cls-4" points="26.83 28.64 19.86 30.65 33.87 30.65 26.83 28.64"/><polygon class="cls-4" points="21.39 34.01 22.47 33.01 22.47 30.37 21.39 30.5 21.39 34.01"/><polygon class="cls-4" points="32.3 34.01 31.22 33.01 31.22 30.37 32.3 30.5 32.3 34.01"/><path class="cls-5" d="M28.76,29.2c0,.48-1.43,1-2,1s-2-.46-2-.94.83-.71,2-.71S28.76,28.71,28.76,29.2Z"/><polygon class="cls-5" points="26.7 34.92 25.28 33.5 26.7 28.87 28.21 33.53 26.7 34.92"/><polygon class="cls-4" points="26.74 33.25 26.93 30.06 26.56 30.06 26.74 33.25"/><path d="M22.68,45.85h-.35a.22.22,0,0,0-.17.09.85.85,0,0,0-.12.27,1.38,1.38,0,0,0-.06.26,2.28,2.28,0,0,0,0,.26A1.5,1.5,0,0,0,22,47a1.88,1.88,0,0,0,.06.31c.08.29.18.45.31.5h.19V48H22.3a.7.7,0,0,1-.38-.1.78.78,0,0,1-.28-.29,1.44,1.44,0,0,1-.19-.77,1.61,1.61,0,0,1,0-.39,1.21,1.21,0,0,1,.11-.32.61.61,0,0,1,.57-.39h.51Z"/><path d="M25.7,45.85h-.34V48h-.58V46.77a.17.17,0,0,0,0-.11.1.1,0,0,0-.09-.06c-.09,0-.17.16-.26.49l-.53-.27.1-.28c-.07-.13-.14-.19-.21-.19s-.15.1-.19.29l0,.2a1.34,1.34,0,0,0,0,.21,1.18,1.18,0,0,0,.07.43c.06.17.16.26.29.26h.27v.14h-.38a.72.72,0,0,1-.35-.09.78.78,0,0,1-.36-.36,1,1,0,0,1-.13-.5.87.87,0,0,1,.17-.56.59.59,0,0,1,.5-.26c.1,0,.24.1.42.29q.16-.27.27-.27a1.67,1.67,0,0,1,.49.29v-.56H22.63v-.13H25.7Z"/><path d="M28.26,45.85h-.37V48h-.67a1,1,0,0,1-.92-.45,1.37,1.37,0,0,1-.2-.46,2.52,2.52,0,0,1-.06-.58l.62-.21.23-.08.21-.07.15-.05.08,0v-.25H25.64v-.13h2.62Zm-1,2.06V46.25l-.71.27s0,.1,0,.14v.14a1.08,1.08,0,0,0,.57,1.11Z"/><path d="M29.41,45.85h-.29V48h-.58V45.85h-.35v-.13h1.22Z"/><path d="M32.3,45.85H32V48h-.58V47c-.08-.22-.17-.33-.26-.33s-.13.08-.23.23l-.28.42c-.11.15-.22.23-.32.23-.3,0-.53-.25-.7-.74l.11-.11c.08.28.18.42.28.42s.16-.1.27-.3.08-.18.1-.25a.45.45,0,0,0,0-.17.17.17,0,0,0-.17-.17c-.11,0-.21.09-.29.25L29.63,46a.32.32,0,0,1,.26-.12h-.48v-.13H32.3Zm-.93.92v-.92H30.14a.49.49,0,0,1,.23.18l.08.14a.78.78,0,0,1,0,.14v0l0,0a.48.48,0,0,1,.34-.2C31,46.2,31.2,46.39,31.37,46.77Z"/><path class="cls-4" d="M68,14.14H62.62a3.24,3.24,0,0,0-2.56,1.43,12,12,0,0,0-1.89,4.14,25.34,25.34,0,0,0-.85,3.95A27.61,27.61,0,0,0,57,27.61a31.35,31.35,0,0,0,.33,4.49,38.1,38.1,0,0,0,1,4.8q1.82,6.47,4.68,7.55a2.53,2.53,0,0,0,.56.12c.25,0,.56,0,1,0A5.89,5.89,0,0,0,66,44.45v2.36H62.19A11,11,0,0,1,56.4,45.3a12.79,12.79,0,0,1-4.27-4.45,22.62,22.62,0,0,1-3-11.89,30.13,30.13,0,0,1,.55-5.88,18.94,18.94,0,0,1,1.74-5q3.06-6,8.71-6H68Z"/><path class="cls-4" d="M108.89,14.14h-5.31V47.43H94.72V28.19a3.13,3.13,0,0,0-.54-1.67,1.71,1.71,0,0,0-1.44-.89q-2,0-4,7.48L80.67,29l1.51-4.33c-1-1.91-2.12-2.87-3.26-2.87-1.31,0-2.28,1.49-2.9,4.45a27.69,27.69,0,0,0-.48,3,28.09,28.09,0,0,0-.18,3.28,18.35,18.35,0,0,0,1.13,6.58q1.42,4,4.45,4H85V45.3c-.83,0-1.72,0-2.69,0s-2-.06-3.08-.11a12.61,12.61,0,0,1-5.42-1.36,13.77,13.77,0,0,1-5.53-5.61,15.92,15.92,0,0,1-2-7.71,14.23,14.23,0,0,1,2.6-8.55,9.18,9.18,0,0,1,7.78-4q2.25,0,6.42,4.41c1.58-2.78,3-4.18,4.11-4.18q1.13,0,7.47,4.49V14.14h-33V12.09h47.19Z"/><path class="cls-4" d="M142.23,14.14h-5.61V47.43h-10.3q-9.43,0-14.21-7a20.69,20.69,0,0,1-3-7,37,37,0,0,1-1-8.86q5.34-1.81,9.6-3.25c1.21-.42,2.4-.81,3.58-1.2s2.23-.74,3.18-1.07l2.35-.79c.64-.21,1-.33,1.11-.35V14.14H102.09V12.09h40.14ZM127.72,45.69V20.33l-10.92,4a21.87,21.87,0,0,0-.13,2.26c0,.74,0,1.44,0,2.11q0,13.1,8.71,17Z"/><path class="cls-4" d="M154.57,14.14H150V47.43h-8.9V14.14h-5.35V12.09h18.82Z"/><path class="cls-4" d="M194.24,14.14h-5.31V47.43H180V32.14c-1.29-3.38-2.6-5.07-3.95-5.07q-1.28,0-3.56,3.48l-4.29,6.5c-1.79,2.27-3.45,3.41-5,3.41q-6.73,0-10.72-11.34l1.66-1.67c1.35,4.34,2.8,6.51,4.38,6.51q1.66,0,4.06-4.69a30,30,0,0,0,1.67-3.83,8.79,8.79,0,0,0,.54-2.63,2.42,2.42,0,0,0-.74-1.78,2.47,2.47,0,0,0-1.82-.7c-1.7,0-3.2,1.26-4.49,3.8L153.32,16a4.88,4.88,0,0,1,4-1.9H150V12.09h44.29ZM180,28.19v-14H161.18a7.31,7.31,0,0,1,3.49,2.78,10,10,0,0,1,1.17,2.15,5.82,5.82,0,0,1,.41,2.15,2.37,2.37,0,0,1-.1.72c-.06.22-.13.44-.21.68,1.7-2.1,3.45-3.14,5.23-3.14Q176,19.48,180,28.19Z"/></g></g></svg>