<svg xmlns="http://www.w3.org/2000/svg" viewBox="0 0 254.66 118.11"><defs><style>.cls-1{fill:#8e0000;}.cls-2{fill:#131e4c;}</style></defs><title>Asset 2</title><g id="Layer_2" data-name="Layer 2"><g id="Layer_1-2" data-name="Layer 1"><path class="cls-1" d="M67.94,1.82a15.19,15.19,0,0,1,11.3,4.95A17.1,17.1,0,0,1,84,19.14,17.57,17.57,0,0,1,79.2,31.81a16.09,16.09,0,0,1-23.28.12Q51.21,27,51.21,19.21a17,17,0,0,1,5.44-13A16,16,0,0,1,67.94,1.82Zm-.47,1.8A8.81,8.81,0,0,0,60.26,7C58,9.72,56.87,13.78,56.87,19.11S58,28.79,60.38,31.74a8.66,8.66,0,0,0,7.11,3.36,9.74,9.74,0,0,0,7.8-3.68q3.08-3.69,3.07-11.62Q78.36,11.21,75,7A9.13,9.13,0,0,0,67.47,3.62Z"/><path class="cls-1" d="M96.94,2.58H106l20.48,25.13V8.39c0-2.06-.23-3.34-.69-3.85a3.63,3.63,0,0,0-2.89-1h-1.16V2.58h11.66V3.5h-1.18a3.42,3.42,0,0,0-3,1.28,7.56,7.56,0,0,0-.54,3.61V36.63h-.89l-22.09-27V30.28c0,2.06.23,3.34.67,3.85a3.72,3.72,0,0,0,2.89,1h1.19v.91H98.8v-.91H100a3.44,3.44,0,0,0,3-1.29,7.48,7.48,0,0,0,.54-3.6V7a16.13,16.13,0,0,0-2.21-2.25,8.09,8.09,0,0,0-2.21-1,7.89,7.89,0,0,0-2.18-.22Z"/><path class="cls-1" d="M165.9,24.87h-13l-2.28,5.28a8.45,8.45,0,0,0-.84,2.92,1.72,1.72,0,0,0,.73,1.35,6.54,6.54,0,0,0,3.15.75v.91H143.14v-.91a5.79,5.79,0,0,0,2.72-1,15.14,15.14,0,0,0,2.79-4.82L160.44,1.82h.86L173,29.69a12.78,12.78,0,0,0,2.56,4.36,5.22,5.22,0,0,0,3.2,1.12v.91H165.5v-.91a5,5,0,0,0,2.71-.67,1.71,1.71,0,0,0,.7-1.38,10.15,10.15,0,0,0-1-3.43ZM165.2,23,159.52,9.5,153.69,23Z"/><path class="cls-1" d="M198.24,4.41V17.58h6.1a4.35,4.35,0,0,0,3.08-.93c.65-.61,1.08-1.84,1.29-3.66h.92V24.32h-.92a6.53,6.53,0,0,0-.5-2.86,3.17,3.17,0,0,0-1.34-1.37,5.41,5.41,0,0,0-2.53-.46h-6.1V30.15a11.21,11.21,0,0,0,.32,3.36,2.22,2.22,0,0,0,1,1.07,4.72,4.72,0,0,0,2.27.59h1.21v.91H188.7v-.91h1.19a3.56,3.56,0,0,0,3-1.21q.6-.8.6-3.81V8.51a11.31,11.31,0,0,0-.32-3.36,2.29,2.29,0,0,0-1-1.06,4.63,4.63,0,0,0-2.27-.59H188.7V2.58h24.93L214,10h-.86a10.07,10.07,0,0,0-1.5-3.45,5,5,0,0,0-2.1-1.59,11.15,11.15,0,0,0-3.86-.5Z"/><path class="cls-2" d="M21.27,54.23,7.41,10.57V45.24c0,3.19.23,5.18.71,6a3.36,3.36,0,0,0,3.1,1.61h1.26v1.41H0V52.82H1.27a3.32,3.32,0,0,0,3.23-2c.38-.82.58-2.68.58-5.59V11.33a16.76,16.76,0,0,0-.53-5A3.83,3.83,0,0,0,3.19,4.5,5.36,5.36,0,0,0,0,3.76V2.34H10.16l13,40.6L36,2.34H46.13V3.76H44.89a3.33,3.33,0,0,0-3.26,2c-.38.81-.58,2.67-.58,5.58V45.24q0,4.78.74,6a3.37,3.37,0,0,0,3.1,1.61h1.24v1.41H30.9V52.82h1.26a3.29,3.29,0,0,0,3.23-2Q36,49.6,36,45.24V10.57L22.14,54.23Z"/><path class="cls-2" d="M251.43,0V18.22h-1.32a24.06,24.06,0,0,0-2.32-8.35A12.46,12.46,0,0,0,243,4.93a12.4,12.4,0,0,0-6.38-1.82,8.3,8.3,0,0,0-6.16,2.46,7.78,7.78,0,0,0-2.44,5.62,7,7,0,0,0,1.54,4.39q2.22,2.91,10.58,7.76a72.16,72.16,0,0,1,9.3,6.08,14.58,14.58,0,0,1,3.83,5,14.4,14.4,0,0,1-2.94,16.34,14.85,14.85,0,0,1-11,4.33,21.84,21.84,0,0,1-4-.35,37.66,37.66,0,0,1-4.61-1.42,19,19,0,0,0-4.42-1.22,1.8,1.8,0,0,0-1.42.58,5.36,5.36,0,0,0-1.44,2.41h-.66V37h1.33a26.93,26.93,0,0,0,2.51,8.48,12.42,12.42,0,0,0,4.82,4.68,14,14,0,0,0,7.12,1.87,9.65,9.65,0,0,0,7.08-2.57,8.24,8.24,0,0,0,2.6-6.06,8.72,8.72,0,0,0-1-3.92,11.54,11.54,0,0,0-3.06-3.69,89.08,89.08,0,0,0-7.64-5,73.64,73.64,0,0,1-8.87-6,16,16,0,0,1-4-5,13.14,13.14,0,0,1-1.36-6,13.46,13.46,0,0,1,4-9.77A13.71,13.71,0,0,1,236.59,0a19.23,19.23,0,0,1,8.21,2.06,7.91,7.91,0,0,0,2.83,1,2.07,2.07,0,0,0,1.53-.6,5.05,5.05,0,0,0,1-2.43Z"/><path class="cls-1" d="M60.47,47.28a2.4,2.4,0,0,1,1.19.54,1.71,1.71,0,0,1,.55,1.27,1.91,1.91,0,0,1-.36,1.08,2.09,2.09,0,0,1-1,.76,5.74,5.74,0,0,1-1.92.24h-3.6V51h.29a.78.78,0,0,0,.69-.3,1.83,1.83,0,0,0,.13-.84V44.9a1.54,1.54,0,0,0-.17-.9.82.82,0,0,0-.65-.24h-.29v-.21h3.3a6.58,6.58,0,0,1,1.48.13,2.46,2.46,0,0,1,1.29.72,1.78,1.78,0,0,1,.44,1.18,1.64,1.64,0,0,1-.35,1A2,2,0,0,1,60.47,47.28ZM57.53,47,58,47l.59,0a3.19,3.19,0,0,0,1.23-.18,1.36,1.36,0,0,0,.64-.54,1.6,1.6,0,0,0,.22-.8,1.46,1.46,0,0,0-.55-1.14,2.32,2.32,0,0,0-1.59-.48,3.87,3.87,0,0,0-1,.13Zm0,3.64a5.66,5.66,0,0,0,1.28.15,2.38,2.38,0,0,0,1.56-.45,1.47,1.47,0,0,0,.53-1.14,1.66,1.66,0,0,0-.24-.85,1.62,1.62,0,0,0-.79-.65,3.34,3.34,0,0,0-1.35-.23h-.59a2,2,0,0,0-.4,0Z"/><path class="cls-1" d="M69.31,48.62h-3l-.51,1.2a1.94,1.94,0,0,0-.2.67.38.38,0,0,0,.17.3,1.37,1.37,0,0,0,.72.17v.21h-2.4V51a1.23,1.23,0,0,0,.61-.21,3.27,3.27,0,0,0,.64-1.1l2.68-6.28h.2l2.65,6.35a2.85,2.85,0,0,0,.59,1,1.11,1.11,0,0,0,.72.25v.21h-3V51a1.05,1.05,0,0,0,.61-.15A.37.37,0,0,0,70,50.5a2.22,2.22,0,0,0-.22-.78Zm-.15-.42-1.3-3.08L66.54,48.2Z"/><path class="cls-1" d="M73.42,43.55h2.07l4.66,5.72v-4.4A1.59,1.59,0,0,0,80,44a.83.83,0,0,0-.66-.23h-.27v-.21h2.66v.21h-.27a.78.78,0,0,0-.69.29,1.74,1.74,0,0,0-.12.82V51.3h-.2l-5-6.14v4.69a1.59,1.59,0,0,0,.15.88.83.83,0,0,0,.66.23h.27v.21H73.84V51h.27a.78.78,0,0,0,.69-.29,1.74,1.74,0,0,0,.12-.82v-5.3a3.43,3.43,0,0,0-.5-.51,1.81,1.81,0,0,0-.5-.23,1.63,1.63,0,0,0-.5-.05Z"/><path class="cls-1" d="M90.17,43.37l.2,2.41h-.2a3.43,3.43,0,0,0-.77-1.36,2.69,2.69,0,0,0-4,.5,4.1,4.1,0,0,0-.64,2.32,4.67,4.67,0,0,0,.42,2,2.94,2.94,0,0,0,1.11,1.32,2.61,2.61,0,0,0,1.4.41,3.1,3.1,0,0,0,.81-.1,3,3,0,0,0,.76-.32v-2.2a2.31,2.31,0,0,0-.08-.75.59.59,0,0,0-.27-.27,1.63,1.63,0,0,0-.65-.09V47h3v.22h-.15a.62.62,0,0,0-.6.29,2.07,2.07,0,0,0-.11.82v2.33a5,5,0,0,1-1.28.51,5.48,5.48,0,0,1-1.4.17,4,4,0,0,1-3.35-1.42,3.76,3.76,0,0,1-.86-2.45A4.15,4.15,0,0,1,84,45.55a4.21,4.21,0,0,1,1.57-1.69,3.93,3.93,0,0,1,2-.49,4.37,4.37,0,0,1,.76.07,6.43,6.43,0,0,1,1,.3,1.58,1.58,0,0,0,.43.12.24.24,0,0,0,.18-.1.79.79,0,0,0,.09-.39Z"/><path class="cls-1" d="M99.23,49.06l.19,0-.66,2.07h-5.9V51h.29a.76.76,0,0,0,.69-.31,1.79,1.79,0,0,0,.12-.83V44.9a1.63,1.63,0,0,0-.16-.9.84.84,0,0,0-.65-.24h-.29v-.21h3.45v.21a2,2,0,0,0-.85.11.7.7,0,0,0-.33.3A2.43,2.43,0,0,0,95,45v4.79a1.57,1.57,0,0,0,.09.64.34.34,0,0,0,.2.17,3.5,3.5,0,0,0,.88.06h.56A3.94,3.94,0,0,0,98,50.56a1.66,1.66,0,0,0,.65-.46A3.68,3.68,0,0,0,99.23,49.06Z"/><path class="cls-1" d="M106.14,48.62h-3l-.52,1.2a2.11,2.11,0,0,0-.19.67.38.38,0,0,0,.17.3,1.37,1.37,0,0,0,.72.17v.21H101V51a1.23,1.23,0,0,0,.61-.21,3.27,3.27,0,0,0,.64-1.1l2.68-6.28h.2l2.65,6.35a3,3,0,0,0,.58,1,1.16,1.16,0,0,0,.73.25v.21h-3V51a1.07,1.07,0,0,0,.62-.15.37.37,0,0,0,.16-.31,2.22,2.22,0,0,0-.22-.78ZM106,48.2l-1.3-3.08-1.32,3.08Z"/><path class="cls-1" d="M110.6,51.17V51h.29a.75.75,0,0,0,.68-.3,1.7,1.7,0,0,0,.13-.84V44.9a1.63,1.63,0,0,0-.16-.9.84.84,0,0,0-.65-.24h-.29v-.21h3.1a6.82,6.82,0,0,1,2.61.39,3.06,3.06,0,0,1,1.43,1.29,4,4,0,0,1,.54,2.09,3.79,3.79,0,0,1-1,2.66,4.22,4.22,0,0,1-3.3,1.19Zm2.18-.55a5.36,5.36,0,0,0,1.19.16,2.86,2.86,0,0,0,2.17-.92,4,4,0,0,0,0-5,2.89,2.89,0,0,0-2.21-.91,4.65,4.65,0,0,0-1.15.16Z"/><path class="cls-1" d="M122.34,44v3H124a1.4,1.4,0,0,0,.88-.2,1.26,1.26,0,0,0,.32-.91h.21v2.65h-.21a2.48,2.48,0,0,0-.16-.71.67.67,0,0,0-.33-.31,1.78,1.78,0,0,0-.71-.11h-1.67V49.9a2.45,2.45,0,0,0,0,.62.37.37,0,0,0,.16.17.88.88,0,0,0,.43.07h1.29a3.49,3.49,0,0,0,.94-.09,1.34,1.34,0,0,0,.56-.36,4.2,4.2,0,0,0,.72-1.05h.22L126,51.17h-5.87V51h.27a1.13,1.13,0,0,0,.51-.12.46.46,0,0,0,.24-.27,2.37,2.37,0,0,0,.07-.74V44.88a1.61,1.61,0,0,0-.15-.9.86.86,0,0,0-.67-.22h-.27v-.21H126l.09,1.67h-.22a2.89,2.89,0,0,0-.26-.83.92.92,0,0,0-.43-.34,2.37,2.37,0,0,0-.79-.09Z"/><path class="cls-1" d="M133.46,43.37V46h-.21a3.41,3.41,0,0,0-.36-1.21,1.9,1.9,0,0,0-.75-.71,2,2,0,0,0-1-.27,1.37,1.37,0,0,0-1,.36,1.11,1.11,0,0,0-.38.81,1,1,0,0,0,.24.64,6.52,6.52,0,0,0,1.66,1.12,13.31,13.31,0,0,1,1.46.88,2.2,2.2,0,0,1,.6.73,1.86,1.86,0,0,1,.21.87,2,2,0,0,1-.67,1.49,2.42,2.42,0,0,1-1.73.63,4,4,0,0,1-.62-.05,6.08,6.08,0,0,1-.72-.21,3.24,3.24,0,0,0-.7-.18.28.28,0,0,0-.22.09.56.56,0,0,0-.12.35H129V48.73h.21a3.86,3.86,0,0,0,.39,1.23,2,2,0,0,0,.76.68,2.34,2.34,0,0,0,1.11.27,1.61,1.61,0,0,0,1.12-.37,1.15,1.15,0,0,0,.4-.88,1.21,1.21,0,0,0-.15-.57,1.82,1.82,0,0,0-.48-.53q-.22-.16-1.2-.72a11.65,11.65,0,0,1-1.39-.87,2.34,2.34,0,0,1-.63-.72,1.83,1.83,0,0,1-.21-.87,1.86,1.86,0,0,1,.63-1.41,2.22,2.22,0,0,1,1.6-.6,3.25,3.25,0,0,1,1.29.3,1.15,1.15,0,0,0,.44.14.32.32,0,0,0,.24-.09.68.68,0,0,0,.15-.35Z"/><path class="cls-1" d="M138.16,47.08h3.54V44.9a2.57,2.57,0,0,0-.07-.77.55.55,0,0,0-.24-.24,1,1,0,0,0-.51-.13h-.27v-.21h3.26v.21h-.27a1,1,0,0,0-.51.13.46.46,0,0,0-.24.27,2.74,2.74,0,0,0-.07.74v4.92a2.47,2.47,0,0,0,.08.77.48.48,0,0,0,.23.24,1,1,0,0,0,.51.13h.27v.21h-3.26V51h.27a.81.81,0,0,0,.68-.27,1.6,1.6,0,0,0,.14-.87V47.5h-3.54v2.32a3,3,0,0,0,.07.77.55.55,0,0,0,.24.24A1,1,0,0,0,139,51h.28v.21H136V51h.27a.85.85,0,0,0,.69-.27,1.74,1.74,0,0,0,.13-.87V44.9a2.57,2.57,0,0,0-.07-.77.58.58,0,0,0-.23-.24,1.08,1.08,0,0,0-.52-.13H136v-.21h3.27v.21H139a1,1,0,0,0-.51.13.46.46,0,0,0-.24.27,2.37,2.37,0,0,0-.07.74Z"/><path class="cls-1" d="M148.87,51v.21h-3.26V51h.27a.81.81,0,0,0,.68-.27,1.71,1.71,0,0,0,.14-.87V44.9a3,3,0,0,0-.07-.77.58.58,0,0,0-.23-.24,1.08,1.08,0,0,0-.52-.13h-.27v-.21h3.26v.21h-.27a.81.81,0,0,0-.68.27,1.6,1.6,0,0,0-.14.87v4.92a2.57,2.57,0,0,0,.07.77.55.55,0,0,0,.24.24,1,1,0,0,0,.51.13Z"/><path class="cls-1" d="M161,43.37l.17,2.6H161a3.32,3.32,0,0,0-1-1.68,2.43,2.43,0,0,0-1.55-.51,2.57,2.57,0,0,0-1.37.38,2.61,2.61,0,0,0-1,1.23,5.59,5.59,0,0,0-.35,2.1,4.43,4.43,0,0,0,.33,1.79,2.5,2.5,0,0,0,1,1.17,2.85,2.85,0,0,0,1.52.4,2.64,2.64,0,0,0,1.31-.31,4.41,4.41,0,0,0,1.25-1.27l.17.11a4,4,0,0,1-1.33,1.5,3.77,3.77,0,0,1-4.76-.94,4.07,4.07,0,0,1-.77-2.46,4.41,4.41,0,0,1,.51-2.1,3.66,3.66,0,0,1,1.41-1.48,3.82,3.82,0,0,1,2-.53,3.61,3.61,0,0,1,1.63.41.91.91,0,0,0,.34.12.33.33,0,0,0,.26-.11.83.83,0,0,0,.21-.42Z"/><path class="cls-1" d="M168.44,43.76v-.21h2.7v.21h-.29a.77.77,0,0,0-.69.37,1.72,1.72,0,0,0-.12.81V48a5.29,5.29,0,0,1-.23,1.78,2.23,2.23,0,0,1-.89,1.08,3.19,3.19,0,0,1-1.81.45,3.4,3.4,0,0,1-1.9-.43,2.39,2.39,0,0,1-.92-1.16,6.5,6.5,0,0,1-.18-1.88v-3a1.47,1.47,0,0,0-.19-.92.79.79,0,0,0-.63-.22H163v-.21h3.29v.21H166a.78.78,0,0,0-.68.29,1.75,1.75,0,0,0-.14.85v3.32a6.61,6.61,0,0,0,.09,1,2.12,2.12,0,0,0,.29.89,1.55,1.55,0,0,0,.62.53,2.06,2.06,0,0,0,1,.21,2.69,2.69,0,0,0,1.34-.33,1.71,1.71,0,0,0,.81-.83,5,5,0,0,0,.22-1.73V44.9a1.63,1.63,0,0,0-.16-.9.85.85,0,0,0-.65-.24Z"/><path class="cls-1" d="M176,51v.21h-3.27V51H173a.83.83,0,0,0,.69-.27,1.74,1.74,0,0,0,.13-.87V44.9a2.57,2.57,0,0,0-.07-.77.58.58,0,0,0-.23-.24,1.08,1.08,0,0,0-.52-.13h-.27v-.21H176v.21h-.28a.81.81,0,0,0-.68.27,1.71,1.71,0,0,0-.14.87v4.92a2.57,2.57,0,0,0,.07.77.55.55,0,0,0,.24.24,1,1,0,0,0,.51.13Z"/><path class="cls-1" d="M182.8,43.37V46h-.21a3.41,3.41,0,0,0-.36-1.21,1.84,1.84,0,0,0-.75-.71,2,2,0,0,0-1-.27,1.33,1.33,0,0,0-1,.36,1.08,1.08,0,0,0-.39.81,1,1,0,0,0,.24.64A6.52,6.52,0,0,0,181,46.75a12.37,12.37,0,0,1,1.46.88,2.2,2.2,0,0,1,.6.73,1.87,1.87,0,0,1,.22.87,2,2,0,0,1-.68,1.49,2.41,2.41,0,0,1-1.73.63,4.1,4.1,0,0,1-.62-.05,6.08,6.08,0,0,1-.72-.21,3.24,3.24,0,0,0-.7-.18.28.28,0,0,0-.22.09.72.72,0,0,0-.12.35h-.21V48.73h.21a3.86,3.86,0,0,0,.39,1.23,2,2,0,0,0,.76.68,2.35,2.35,0,0,0,1.12.27,1.6,1.6,0,0,0,1.11-.37,1.15,1.15,0,0,0,.4-.88,1.21,1.21,0,0,0-.15-.57,1.58,1.58,0,0,0-.48-.53q-.22-.16-1.2-.72a11.65,11.65,0,0,1-1.39-.87,2.48,2.48,0,0,1-.63-.72,1.83,1.83,0,0,1-.21-.87,1.86,1.86,0,0,1,.63-1.41,2.22,2.22,0,0,1,1.6-.6,3.18,3.18,0,0,1,1.29.3,1.2,1.2,0,0,0,.44.14.32.32,0,0,0,.24-.09.68.68,0,0,0,.15-.35Z"/><path class="cls-1" d="M188.69,51v.21h-3.27V51h.27a.82.82,0,0,0,.69-.27,1.74,1.74,0,0,0,.13-.87V44.9a2.57,2.57,0,0,0-.07-.77.52.52,0,0,0-.23-.24,1.08,1.08,0,0,0-.52-.13h-.27v-.21h3.27v.21h-.28a.83.83,0,0,0-.68.27,1.71,1.71,0,0,0-.14.87v4.92a2.47,2.47,0,0,0,.08.77.48.48,0,0,0,.23.24,1,1,0,0,0,.51.13Z"/><path class="cls-1" d="M190,43.55h2.07l4.66,5.72v-4.4a1.48,1.48,0,0,0-.16-.88.83.83,0,0,0-.66-.23h-.26v-.21h2.66v.21h-.28a.75.75,0,0,0-.68.29,1.74,1.74,0,0,0-.12.82V51.3h-.21l-5-6.14v4.69a1.59,1.59,0,0,0,.15.88.83.83,0,0,0,.66.23h.26v.21h-2.65V51h.27a.78.78,0,0,0,.69-.29,1.74,1.74,0,0,0,.12-.82v-5.3A3.43,3.43,0,0,0,191,44a1.9,1.9,0,0,0-.51-.23,1.52,1.52,0,0,0-.49-.05Z"/><path class="cls-1" d="M202.12,44v3h1.67a1.34,1.34,0,0,0,.87-.2,1.22,1.22,0,0,0,.33-.91h.21v2.65H205a2.89,2.89,0,0,0-.16-.71.77.77,0,0,0-.33-.31,1.78,1.78,0,0,0-.71-.11h-1.67V49.9a2.45,2.45,0,0,0,0,.62.33.33,0,0,0,.16.17.81.81,0,0,0,.42.07H204a3.54,3.54,0,0,0,.94-.09,1.4,1.4,0,0,0,.56-.36,4.21,4.21,0,0,0,.71-1.05h.23l-.66,1.91h-5.88V51h.27a1.17,1.17,0,0,0,.52-.12.46.46,0,0,0,.24-.27,2.74,2.74,0,0,0,.07-.74V44.88a1.61,1.61,0,0,0-.15-.9.88.88,0,0,0-.68-.22h-.27v-.21h5.88l.09,1.67h-.22a2.55,2.55,0,0,0-.27-.83.85.85,0,0,0-.42-.34,2.37,2.37,0,0,0-.79-.09Z"/><rect class="cls-1" x="50.93" y="39.18" width="163.33" height="0.5"/><path class="cls-2" d="M158.75,89.59c5.55,2,11.36,3.17,16.22,2.64,13.64-1.06,18.68-9.49,18.8-17.72-.22-8.23-5.36-16.26-19.92-16.56a34.93,34.93,0,0,0-12.51,2.46,15.82,15.82,0,0,0-6.21-4.63,14.68,14.68,0,0,0-7.37-.82,26.4,26.4,0,0,0-7.34,2.18,44.09,44.09,0,0,0-6.23,3.18A42.78,42.78,0,0,0,128,57.18,26.53,26.53,0,0,0,120.62,55a14.84,14.84,0,0,0-7.37.87,15.91,15.91,0,0,0-6.18,4.59,34.74,34.74,0,0,0-12.34-2.32c-14.57.39-19.75,8.27-20,16.34C74.89,82.59,80,90.86,93.61,92c4.84.55,10.57-.62,16-2.52a17,17,0,0,0,1.76-.64,89.59,89.59,0,0,0,13.76-6.75c3.29,2.18,6,4.11,7.59,5.28l-.26.15a9,9,0,0,1,1.55.86l.15-.08.1,0a3.79,3.79,0,0,1,1.4-1c1.6-1.16,4.21-3,7.41-5.14A94.25,94.25,0,0,0,157,88.94M141.35,58.41a24,24,0,0,1,6.63-2,12.22,12.22,0,0,1,6.16.69,14.27,14.27,0,0,1,5.4,4,120.43,120.43,0,0,0-14.72,7.26l-2.34-1.86c-2.4-1.93-4.63-3.69-6.63-5.07A52.48,52.48,0,0,1,141.35,58.41Zm0,9.44,1.84,1.47c-2.38,1.35-4.76,2.76-7.17,4.18l-1.66,1,0,0h0l-1.66-1c-2.45-1.44-4.88-2.87-7.29-4.25l1.77-1.4c2.63-2.11,5.06-4,7.12-5.42C136.25,63.83,138.67,65.74,141.3,67.85ZM114.24,57.22a12.46,12.46,0,0,1,6.16-.72,23.83,23.83,0,0,1,6.63,2,49.34,49.34,0,0,1,5.49,3c-2,1.38-4.23,3.15-6.63,5.08l-2.27,1.81a117.53,117.53,0,0,0-14.75-7.17A14.64,14.64,0,0,1,114.24,57.22Zm-20.14,33C83.15,89.71,78.76,82.32,78.54,75c0-7.35,4.26-14.66,16.49-15,8.71-.29,18.94,4.6,27.24,9.45-2.09,1.64-4.28,3.31-6.54,4.86-7.86-4.34-16.43-7.7-21.37-6-6.43,1.3-10.3,8.55-2.65,13.33,7.33,4.28,15.73.3,24.11-5.28,2.74,1.55,5.35,3.17,7.72,4.7C115.58,85.76,103.34,91.29,94.1,90.25Zm20-14.9c-6,3.92-12.78,6.07-18.36,5.45-6.49-.73-6-8.14-.6-10.17C99.3,69.07,106.84,71.43,114.08,75.35Zm3.37-.14c2.24-1.56,4.41-3.22,6.47-4.85,2.8,1.66,5.4,3.28,7.72,4.65l.55.32c-1.31,1-3.79,2.73-7,4.71C122.78,78.44,120.16,76.77,117.45,75.21Zm16.74,11.22c-1.63-1.2-4.27-3.15-7.43-5.31,3.66-2.28,6.28-4.21,7.21-4.91.83.62,3.58,2.62,7.51,5C138.38,83.35,135.79,85.25,134.19,86.43Zm2.18-11.11.55-.32c2.29-1.36,4.85-3,7.59-4.59,2.05,1.61,4.19,3.25,6.4,4.81-2.66,1.54-5.25,3.19-7.61,4.77C140.11,78,137.67,76.27,136.37,75.32Zm38.1,15.13c-9.26,1-21.57-4.69-29.54-9.47,2.34-1.51,4.91-3.11,7.61-4.65,8.38,5.62,16.79,9.7,24.11,5.38,7.64-4.84,3.77-12.23-2.65-13.52-4.93-1.74-13.51,1.7-21.37,6.06-2.23-1.55-4.39-3.2-6.46-4.82,8.33-4.9,18.62-10,27.37-9.69C185.77,60,190,67.49,190,75,189.78,82.46,185.42,90,174.47,90.45ZM154.29,75.36c7.23-4,14.74-6.27,18.94-4.78,5.34,2,5.87,9.53-.59,10.3C167.07,81.54,160.3,79.31,154.29,75.36Z"/><path class="cls-2" d="M134,102.58c1.08,1.28,4.53,6.23,3.87,10a4.13,4.13,0,0,1-4.6,3.72,3.89,3.89,0,0,1-3.6-4c-.11-3.38,2.38-7,4.33-9.67Zm5.27,10.09c.76-4.4-4.73-10.68-5-11a.3.3,0,0,0-.08-.08.32.32,0,0,0-.4.08c-.12.15-.23.31-.34.46-2.73,3.73-5.34,7.29-5.24,10.15h0A5.9,5.9,0,0,0,131,117.4a5.3,5.3,0,0,0,4.81.24A6.37,6.37,0,0,0,139.3,112.67Z"/><path class="cls-2" d="M109.23,98.54c4.31,2.19,9.42.21,14.15-2.64a103.24,103.24,0,0,1,10.1,6,.54.54,0,0,0,.52,0,.58.58,0,0,0,.63,0,103.24,103.24,0,0,1,10.1-6c4.72,2.85,9.84,4.83,14.14,2.64,4.56-2.42,1.6-6-2.1-6.71-2.82-.89-7.53.8-12,3C141.19,92.66,134.23,87,134,87.28c-.25-.16-7.22,5.42-10.68,7.56-4.45-2.21-9.16-3.9-12-3C107.64,92.51,104.68,96.12,109.23,98.54ZM156,93c2.12.82,4.23,3,1.41,4.81-3.71,1.31-7.35,0-11.69-2.33C149.82,93.45,153.6,92.23,156,93Zm-26.25-1.4c1.57-1.13,3-2.15,4.17-2.86h0l.08,0,.18.1h0c1.18.71,2.6,1.74,4.17,2.86s3.53,2.54,5.45,3.76a104.55,104.55,0,0,0-9.72,5.8,106.12,106.12,0,0,0-9.79-5.86C126.22,94.12,128.07,92.79,129.75,91.58Zm-20.33,3.74a4.45,4.45,0,0,1,2.69-2.39c2.4-.75,6.18.47,10.28,2.48a28.83,28.83,0,0,1-5,2.24,10.2,10.2,0,0,1-6.7.09C109.47,97,109.17,96.11,109.42,95.32Z"/><path class="cls-2" d="M136.16,53.38a3.87,3.87,0,0,0-3.49-.17,4.8,4.8,0,0,0-2.47,5.36c.39.2.74.5,1.12.7a5.63,5.63,0,0,1-.19-2.39,3,3,0,0,1,3.33-2.69,2.8,2.8,0,0,1,2.6,2.92,6.28,6.28,0,0,1-.37,2.2,4.53,4.53,0,0,0,1-.26,5,5,0,0,0,.42-1.95h0A4.3,4.3,0,0,0,136.16,53.38Z"/><path class="cls-2" d="M79,64.58s-17.34,11.28-20.42.58,13.08-8.48,9.75-1c3.67-1.85,2.77-7-1.75-7.73-5-.84-16.67,1-10.17,11.74C61,74.49,70.14,74,79,64.58Z"/><path class="cls-2" d="M51.87,58.41a3.67,3.67,0,1,1,3.67,3.67A3.67,3.67,0,0,1,51.87,58.41Zm1,0a2.67,2.67,0,1,0,2.67-2.66A2.68,2.68,0,0,0,52.87,58.41Z"/><path class="cls-2" d="M45.37,52.68s.45,6,7.22,4.57c-.11,2-.29,1.56-.08,2.08S44.62,60,45.37,52.68Z"/><path class="cls-2" d="M190,64.58s17.33,11.28,20.42.58-13.09-8.48-9.75-1c-3.67-1.85-2.77-7,1.75-7.73,5-.84,16.66,1,10.16,11.74C208,74.49,198.83,74,190,64.58Z"/><path class="cls-2" d="M213.44,62.08a3.67,3.67,0,1,1,3.66-3.67A3.67,3.67,0,0,1,213.44,62.08Zm0-6.33a2.67,2.67,0,1,0,2.66,2.66A2.67,2.67,0,0,0,213.44,55.75Z"/><path class="cls-2" d="M223.6,52.68s-.44,6-7.22,4.57c.12,2,.3,1.56.09,2.08S224.35,60,223.6,52.68Z"/></g></g></svg>