<svg xmlns="http://www.w3.org/2000/svg" viewBox="0 0 71.69 79.56"><defs><style>.cls-1{fill:#ce0100;}.cls-2{fill:#008530;}.cls-3{fill:#fff;}.cls-4{fill:#bb0200;}.cls-5{fill:#008631;}.cls-6{fill:#fbf600;}.cls-7{fill:#009128;}.cls-8{opacity:0.43;}.cls-9{fill:#c79f8e;}.cls-10{fill:#0c879e;}.cls-11{fill:#054ea8;}</style></defs><title>logo</title><g id="Layer_2" data-name="Layer 2"><g id="Layer_1-2" data-name="Layer 1"><ellipse class="cls-1" cx="35.84" cy="34.89" rx="35.84" ry="34.89"/><ellipse class="cls-2" cx="35.84" cy="34.89" rx="26.11" ry="25.41"/><ellipse class="cls-3" cx="35.86" cy="34.93" rx="24.3" ry="23.65"/><rect class="cls-4" x="35.31" y="10.93" width="1.05" height="20.95"/><rect class="cls-4" x="46.92" y="24.33" width="0.88" height="25.51" transform="translate(101.22 10.29) rotate(115.49)"/><polygon class="cls-4" points="36.36 31.99 35.98 31.2 12.47 41.06 12.85 41.86 36.36 31.99"/><path class="cls-5" d="M57.71,79c-4,0-5.88-.66-9.56-2.38-3.08-1.44-4.35-4.48-10.84-4.42A13.31,13.31,0,0,0,29,74.79c-4.57,3.21-7.8,4.77-11.83,4.77-4.47,0-9.28-4-10.35-4.36L7,71.27,7.42,65h0l-.1,0a41.18,41.18,0,0,0,8.4,1.47c1.23,0,4,.37,6.33-.64,4.18-1.86,9.39-5.79,15-5.79,5.31,0,6.7.69,10.88,2.65,1.92.9,4.32,3.76,6.73,4.19,5.38,1,12-3.3,12-2.44h0L66.92,75C66.46,75.14,64.36,79,57.71,79Z"/><path class="cls-5" d="M66.47,61.6c-1.16-2.1-4.62-2.11-5.6.1s1.35,2.87,2.58,4.18l2.7-.2A4,4,0,0,0,66.47,61.6Zm-1.56,3.09c-.16.13-2.6-1-2.6-1.94a1.25,1.25,0,0,1,1.84-1C65,62.13,66.13,63.67,64.91,64.69Z"/><path class="cls-5" d="M10.47,60.45A3.47,3.47,0,0,0,6.85,62.2c-.62,1.32.72,3,.72,3a4.24,4.24,0,0,0,3.17,1c1.75-.27,1.77-1.94,2.16-3.13S12,60.62,10.47,60.45Zm-.74,4.79c-.13,0-1.79-1.66-1.44-2.4s1.73-.91,2.43-.72S11.46,64.91,9.73,65.24Z"/><path class="cls-6" d="M25.13,72.36l-2.88-5a8.12,8.12,0,0,1,1.36-.62c.12,0,.43.23.52.42.88,1.77,1.73,3.55,2.59,5.33a2.76,2.76,0,0,1,.18.39c.08.27.25.76.18.8-.38.2-.87.5-1.23.4-1.69-.47-3.38-1-5-1.63a22.46,22.46,0,0,1-2.53-1.3,1.67,1.67,0,0,0,0,.42c.28,1.51.56,3,.88,4.54.11.51,0,.69-.54.77-1.37.2-1.34.21-1.41-1.19-.1-1.91-.25-3.81-.35-5.72,0-.25.08-.66.23-.72a.87.87,0,0,1,1.11.14,4.92,4.92,0,0,0,1.56,1.17c1.71.74,3.46,1.37,5.19,2Z"/><path class="cls-6" d="M50.25,67.38l1.44.64c-.24.51-.45,1-.67,1.42l-.7,1.45a13.71,13.71,0,0,0,5,1.23.58.58,0,0,0,.38-.41c.11-.87.16-1.76.24-2.67l.38,0c1,0,1,0,.95,1,0,2.06-.06,4.12-.09,6.17,0,.18,0,.37,0,.61a11.9,11.9,0,0,1-1.47,0c-.12,0-.3-.34-.29-.51.05-1,.14-2,.21-3.07A9.7,9.7,0,0,1,54.23,73C53,72.71,51.7,72.36,50.45,72c-.44-.14-.67-.1-.87.34-.41.91-.87,1.8-1.31,2.68-1.44-.31-1.47-.36-.89-1.6.83-1.77,1.66-3.53,2.5-5.3C50,67.86,50.11,67.65,50.25,67.38Z"/><path class="cls-6" d="M46.27,71.45a4.52,4.52,0,0,1-4.52,1.13l-1.38-.34a4.64,4.64,0,0,1-3.31-5,2.81,2.81,0,0,1,2.21-2.39,7.2,7.2,0,0,1,6.87,1.26,3.09,3.09,0,0,1,1.24,2.42c-.53-.11-1-.2-1.42-.32-.1,0-.19-.21-.22-.34a3.17,3.17,0,0,0-2.59-2.28,5.78,5.78,0,0,0-2.27,0,2.81,2.81,0,0,0-2.16,3.79,2.86,2.86,0,0,0,2.17,2.07,8,8,0,0,0,2.12.29,2.29,2.29,0,0,0,1.39-.54.93.93,0,0,1,1.35,0C45.89,71.21,46.05,71.3,46.27,71.45Z"/><path class="cls-6" d="M35.8,64c.21,1,.18,1-.7,1s-1.89.12-2.83.15c-.46,0-.55.18-.48.61.31,1.78.58,3.57.88,5.36.14.88.14.88-.74,1.06l-.41,0c-.34-1.48-.67-2.94-1-4.4-.13-.58-.29-1.15-.38-1.74-.07-.39-.23-.47-.59-.38-1.17.31-2.35.59-3.58.9l-.33-.82A32.22,32.22,0,0,1,35.8,64Z"/><path d="M18.08,14.21c-.7-.81-1.4-1.59-2.06-2.4a1.29,1.29,0,0,1,.34-2c.64-.49,1.17-.4,1.73.33s1.12,1.48,1.62,2.25c.28.43.5.33.85.12s.2-.45,0-.7c-.5-.75-1-1.49-1.47-2.27a1.34,1.34,0,0,1,.64-1.92c.66-.38,1.16-.22,1.61.57s.94,1.64,1.36,2.48c.22.45.47.35.79.2s.29-.43.15-.71c-.46-.91-.94-1.82-1.39-2.75a1.8,1.8,0,0,0-2.72-.8,2.8,2.8,0,0,0-1.22,1.91c-1.41-.66-3.11.34-3.26,2.32a1.52,1.52,0,0,1-.18-.17c-.26-.35-.49-.5-.89-.12s-.19.57.07.85c.92,1,1.82,1.95,2.72,2.93C17.41,15,17.43,15,18.08,14.21Z"/><path d="M17.42,56.35c-.2,1.49-.34,2.88-.58,4.26-.19,1-.06,1.85,1,2.28L18,63c.29.24.48.18.68-.15.61-1,1.25-2,1.87-3.05l1.21-2c-.81-.68-.85-.67-1.35.1L18.2,61.19a2.68,2.68,0,0,1-.37.29c.24-1.74.4-3.31.69-4.87a1.43,1.43,0,0,0-.6-1.62c-.37-.28-.55-.24-.85.08Q15.33,57,13.52,58.93c-.34.36-.31.58.05.89s.59.38.93,0C15.43,58.63,16.41,57.53,17.42,56.35Z"/><path d="M63.3,32.73a1.1,1.1,0,0,0,.19.08c2-.13,4-.24,6-.39.54-.05.26-.5.28-.78s-.14-.48-.49-.44c-.61.08-1.22.17-1.84.19-.16,0-.45-.17-.47-.3-.19-1-.32-1.94-.48-3l1.26-.29L69,27.54c0-1.14-.1-1.25-1.12-1-1.62.41-3.23.83-4.85,1.23-.36.09-.6.16-.47.65s.35.47.73.38c.69-.17,1.39-.3,2.18-.47L66,31.56l-2.72.29Z"/><path d="M43.29,9c.12-.38.25-.76.37-1.15s.2-.8.33-1.19a4,4,0,0,1,.4-.89,1.53,1.53,0,0,1,2.13-.45c.59.32.68.74.33,1.66-.11.29-.22.57-.34.86-.25.67-.51,1.33-.8,2.07.44,0,.82.6,1.12,0,.5-1,1-2.1,1.37-3.17a1.58,1.58,0,0,0-1-2.17,2.37,2.37,0,0,0-2.14,0l-.49.21a1.21,1.21,0,0,1,0-.25c.21-.46,0-.65-.44-.77s-.64,0-.75.46c-.28,1.31-.64,2.6-1,3.9C42.27,8.89,42.34,9,43.29,9Z"/><path d="M36.22,3.45c.23-1.18.19-1.3-1-1.69a1.49,1.49,0,0,0-.42-.08c-1.16-.06-2.33-.12-3.24.8a3.55,3.55,0,0,0-.26,4.09,3.07,3.07,0,0,0,4.52,1.15,1,1,0,0,0,.39-1.27,10.41,10.41,0,0,1-1.82.87,1.64,1.64,0,0,1-1.82-.75,2.94,2.94,0,0,1-.05-3.4C33.28,2.36,34.88,2.47,36.22,3.45Z"/><path d="M16.51,15.72a4.83,4.83,0,0,0-.31-.4C15.12,14.25,14,13.19,13,12.11c-.24-.25-.43-.28-.65,0s-.32.36-.51.57c.32.29.6.54.86.8a24,24,0,0,1,1.82,1.82,1.29,1.29,0,0,1-.3,1.82c-.51.46-.92.46-1.59-.06S11,15.84,10.2,15.21c-.32-.25-.54-.24-.75.11-.11.18-.24.35-.4.57,1.16.81,2.23,1.61,3.36,2.32a1.67,1.67,0,0,0,2.18-.3,2.39,2.39,0,0,0,.64-2.15l.71.51Z"/><path d="M3.3,28.75l5.42,1,.18-1L3.59,27.56c.06-.29.09-.51.15-.73s.14-.47.19-.71c.2-.82.18-.85-.8-.93A29.27,29.27,0,0,0,2,30.83l1,.1Z"/><path d="M10.76,48.13l0,.18.49.34c.79.59.83,1.06,0,1.65a22.28,22.28,0,0,1-2.18,1.38.51.51,0,0,1-.47-.14c-.38-.49-.71-1-1.09-1.55l-.74.41L8,52.29a5.07,5.07,0,0,0-.64.43,2.43,2.43,0,0,0-.32.51,3.39,3.39,0,0,0,.53.2c.44.07.88.11,1.32.17l.9.15-.14-1L12.14,51a1.44,1.44,0,0,0,.75-1.45A2.1,2.1,0,0,0,11.55,48C11.35,47.91,11,48.08,10.76,48.13Z"/><path d="M51.12,7.23l1.64.95c.28.17.47.17.65-.16s.07-.44-.19-.59l-1.57-.92A5.13,5.13,0,0,0,52,5.82a2,2,0,0,0,.08-.55,2.11,2.11,0,0,0-.62.06c-.46.14-.92.32-1.37.49l-.77.32.58.54s0,.07.08.14-.22.41-.32.63A27.13,27.13,0,0,0,48.54,10a1.41,1.41,0,0,0,.19,1.13A2,2,0,0,0,50.5,12a.63.63,0,0,0,.7-.63c-.21,0-.42,0-.61-.06-.93-.14-1.25-.69-.83-1.52S50.63,8.12,51.12,7.23Z"/><path d="M64.1,39.63c-.83-.31-1.12-.24-1.33.5a4.12,4.12,0,0,0-.16,1.74,1.52,1.52,0,0,0,2.58.77,5.23,5.23,0,0,0,.69-1.08c.2-.35.36-.74.87-.6a.7.7,0,0,1,.47,1,14.55,14.55,0,0,1-.7,1.65c.63.36.94.35,1.25-.33a5.09,5.09,0,0,0,.42-1.88,1.54,1.54,0,0,0-2.93-.74,8.93,8.93,0,0,1-.55,1c-.16.2-.5.41-.69.36a.92.92,0,0,1-.6-.6,2.58,2.58,0,0,1,.19-1.11A3.41,3.41,0,0,1,64.1,39.63Z"/><path d="M6.78,21.75l0-.26c-.36,0-.84-.17-1.07,0-.86.67-.75,1.54-.22,2.47l-.79-.18a1.93,1.93,0,0,0-.22.6c0,.17.1.46.22.5,1.5.5,3,1,4.52,1.45.41.13.5-.12.62-.4s0-.47-.32-.57c-.79-.27-1.59-.55-2.37-.87-1.4-.56-1.59-1.55-.53-2.59A1.37,1.37,0,0,1,6.78,21.75Z"/><path d="M4,43.51l4.5-1.22c.87-.23.89-.27.47-1.14l-.77.15a25.76,25.76,0,0,1-2.59.51A1.36,1.36,0,0,1,4.13,40.1c0-.16.07-.31.1-.46l-.12-.16c-.31.17-.82.28-.88.51a1.72,1.72,0,0,0,1.31,2.22C3.56,42.51,3.54,42.57,4,43.51Z"/><path d="M59.34,13.35a2.38,2.38,0,0,1,.28-.36c.41-.33.05-.52-.13-.74s-.39-.32-.66-.05q-1.66,1.65-3.34,3.27c-.24.23-.2.39,0,.62s.53.33.87,0A22.59,22.59,0,0,1,58.6,14.2a1.12,1.12,0,0,1,1.66.15A9.26,9.26,0,0,1,61,15.51c.2-.3.59-.62.54-.84C61.34,13.56,60.47,13.26,59.34,13.35Z"/><path d="M52,56.28c-.25.41-1,.42-.5,1.07,1.11,1.57,2.22,3.15,3.3,4.74.3.44.53.21.81,0s.53-.39.21-.78-.74-1-1.11-1.47Z"/><path d="M58.91,49.43l4.57,2.89.63-1-4-2.36C59.36,48.51,59.36,48.51,58.91,49.43Z"/><path d="M65.27,52c-.07-.06-.2-.25-.35-.28-.37-.08-.86.4-.85.86a.65.65,0,0,0,.35.47C64.73,53.13,65.21,52.59,65.27,52Z"/><path class="cls-3" d="M61.07,54.16c-.85-.65-1.64-1.27-2.46-1.84a.8.8,0,0,0-1.17.08,1.16,1.16,0,0,0-.26,1.42,1.5,1.5,0,0,1,0,1.67c-.26.51-.57,1-.83,1.51s-.42.86,0,1.1a1.16,1.16,0,0,0,1.09-.18,17.19,17.19,0,0,0,1.47-2c.09.14.36.37.38.62.09,1-1.52,3.08-3,2.85a1.23,1.23,0,0,1-.72-.29c-.94-1.08-1.84-2.19-2.76-3.31.36-.36.65-.75,1.16-.32.27-1.3,1-2.18,2.39-2.07a2.07,2.07,0,0,1,.91-2.07,1.55,1.55,0,0,1,1.85.13c.87.57,1.72,1.17,2.52,1.72l.85-.46c.06.33.13.67.19,1s.16.75.21,1.13a2.72,2.72,0,0,1,0,.57,1.54,1.54,0,0,1-.55-.1c-.73-.47-.72-.48-1.27.16-.21.24-.41.47-.6.71s-.34.33-.61.1a.42.42,0,0,1-.06-.68Zm-5.58,3c.31-.57.61-1.09.88-1.61a.75.75,0,0,0-.21-1.09c-.46-.3-.81,0-1.11.31C54.48,55.44,54.62,56.29,55.49,57.11Z"/><path class="cls-3" d="M18.08,14.21c-.65.81-.67.81-1.28.14-.9-1-1.8-2-2.72-2.93-.26-.28-.46-.49-.07-.85s.63-.23.89.12a1.52,1.52,0,0,0,.18.17c.15-2,1.85-3,3.26-2.32a2.8,2.8,0,0,1,1.22-1.91,1.8,1.8,0,0,1,2.72.8c.45.93.93,1.84,1.39,2.75.14.28.25.53-.15.71s-.57.25-.79-.2c-.42-.84-.89-1.67-1.36-2.48s-.95-1-1.61-.57a1.34,1.34,0,0,0-.64,1.92c.45.78,1,1.52,1.47,2.27.17.25.37.45,0,.7s-.57.31-.85-.12c-.5-.77-1.06-1.51-1.62-2.25S17,9.34,16.36,9.83a1.29,1.29,0,0,0-.34,2C16.68,12.62,17.38,13.4,18.08,14.21Z"/><path class="cls-3" d="M17.42,56.35c-1,1.18-2,2.28-2.92,3.42-.34.43-.57.37-.93,0s-.39-.53-.05-.89q1.82-1.91,3.55-3.86c.3-.32.48-.36.85-.08a1.43,1.43,0,0,1,.6,1.62c-.29,1.56-.45,3.13-.69,4.87a2.68,2.68,0,0,0,.37-.29l2.18-3.29c.5-.77.54-.78,1.35-.1l-1.21,2c-.62,1-1.26,2-1.87,3.05-.2.33-.39.39-.68.15l-.1-.07c-1.09-.43-1.22-1.24-1-2.28C17.08,59.23,17.22,57.84,17.42,56.35Z"/><path class="cls-3" d="M63.46,21.53l-.67,1.66,1.89.34,0,.17a5,5,0,0,1-1.6.32c-.57-.08-.84,0-1,.53a5.16,5.16,0,0,1-.4.68,1.25,1.25,0,0,1-.18-1.6,2.83,2.83,0,0,1-1.59-1.71,1.69,1.69,0,0,1,.28-1.84A1.65,1.65,0,0,1,62,19.65l.9.3c.11-.27.21-.51.32-.75a1.47,1.47,0,0,1,2.26-.63,2.6,2.6,0,0,1,1.09,2.3,1,1,0,0,1-1.07,1A13,13,0,0,1,63.46,21.53Zm-.82-.62a1.29,1.29,0,0,0-1.52-.12,1,1,0,0,0-.34.77,1.4,1.4,0,0,0,1.1,1.23Zm2.16.16c.59-.12.84-.31.85-.72a.93.93,0,0,0-.79-.93c-.41,0-1,.58-.91,1S64.5,20.84,64.8,21.07Z"/><path class="cls-3" d="M63.3,32.73v-.88L66,31.56l-.52-3.22c-.79.17-1.49.3-2.18.47-.38.09-.61.07-.73-.38s.11-.56.47-.65c1.62-.4,3.23-.82,4.85-1.23,1-.26,1.14-.15,1.12,1l-1.24.29-1.26.29c.16,1,.29,2,.48,3,0,.13.31.31.47.3.62,0,1.23-.11,1.84-.19.35,0,.52.09.49.44s.26.73-.28.78c-2,.15-4,.26-6,.39A1.1,1.1,0,0,1,63.3,32.73Z"/><path class="cls-3" d="M67.13,45.07c-.16,1-.19,1.08-1,.84a8,8,0,0,1,0,2.08,2,2,0,0,1-2.62,1.48,4.13,4.13,0,0,1-2.36-1.59,2.1,2.1,0,0,1,.83-3.24,1.82,1.82,0,0,0,.25-.19,11.7,11.7,0,0,1-1.46-.57.63.63,0,0,1-.15-.58c0-.14.33-.34.44-.3,2,.64,4,1.31,6,2C67.08,45,67.1,45,67.13,45.07ZM65.5,46.49a1.85,1.85,0,0,0-.33-.69,3,3,0,0,0-2.12-.86,1.45,1.45,0,0,0-1.44,1.13,1.4,1.4,0,0,0,.66,1.58,5.58,5.58,0,0,0,1.08.57C64.47,48.62,65.48,47.89,65.5,46.49Z"/><path class="cls-3" d="M53.11,11.06c-.88,1.52-.16,2.38,2.31,2.78a.77.77,0,0,1-.91.68,3,3,0,0,1-2.63-1.83,3.3,3.3,0,0,1,1.29-3.43,2.73,2.73,0,0,1,3.12.09c1.54,1,1.68,2.43.41,3.79-.26.27-.44.31-.76,0-.84-.7-1.71-1.34-2.58-2A2.22,2.22,0,0,0,53.11,11.06Zm3.13,1.19c.55-.84.38-1.48-.52-2.08s-1.51-.48-2,.2Z"/><path class="cls-3" d="M41.43,6.9a1,1,0,0,1-.65,1.28,3,3,0,0,1-3.08-.4,2.9,2.9,0,0,1-.8-3.11,2.37,2.37,0,0,1,2-1.87,3.35,3.35,0,0,1,2.32.4A2.25,2.25,0,0,1,42,6c-.07.13-.37.19-.56.17-1-.1-1.91-.25-2.87-.38l-.6,0a1.26,1.26,0,0,0,.45,1.38C39.44,7.94,40.43,7.61,41.43,6.9Zm-3.34-2,3.12.38c0-.93-.49-1.45-1.5-1.55A1.3,1.3,0,0,0,38.09,4.9Z"/><path class="cls-3" d="M6,37.9c1.85-.29,2.05-1.46.67-3.52a.87.87,0,0,1,1.21.29,2.65,2.65,0,0,1,.42,2.78,3,3,0,0,1-2.65,1.64,2.4,2.4,0,0,1-2.48-1A3.18,3.18,0,0,1,2.88,35a2.56,2.56,0,0,1,2.69-1c.12.06.19.33.21.51C5.85,35.6,5.9,36.73,6,37.9Zm-1-3.07A1.36,1.36,0,0,0,3.63,36.5c.09,1,.56,1.44,1.49,1.42Z"/><path class="cls-3" d="M8.08,43.51a2.75,2.75,0,0,1,2.79,2.89,3.26,3.26,0,0,1-3.2,2.82A3.1,3.1,0,0,1,4.89,46C4.9,44.48,6.17,43.51,8.08,43.51ZM5.91,46.18A1.9,1.9,0,0,0,7.62,48.1c1.08,0,2.36-1,2.36-1.85a1.76,1.76,0,0,0-1.71-1.74C7,44.5,5.92,45.25,5.91,46.18Z"/><path class="cls-3" d="M66.55,39.3A12.93,12.93,0,0,1,65,39a2.52,2.52,0,0,1-1.77-3,2.65,2.65,0,0,1,2.46-2.28,6.32,6.32,0,0,1,1.23,0A2.22,2.22,0,0,1,69,35.75a6.75,6.75,0,0,1,0,1.42A2.23,2.23,0,0,1,66.55,39.3Zm-.21-1.08c.94-.08,1.41-.39,1.6-1.14.25-1,0-1.79-.65-2.12a2.46,2.46,0,0,0-2.63.18,1.52,1.52,0,0,0,.17,2.61A8.29,8.29,0,0,0,66.34,38.22Z"/><path class="cls-3" d="M23.22,6.71a.87.87,0,0,1,0-1.38,4.11,4.11,0,0,1,2.69-1.21,1.43,1.43,0,0,1,1.61,1.2c.26.95.53,1.9.8,2.85.07.25.12.51.2.87h-1.3a2.25,2.25,0,0,1-2.16,1,1.3,1.3,0,0,1-1.19-.92,1.13,1.13,0,0,1,.35-1.34c.32-.29.66-.55,1-.82a3.11,3.11,0,0,0,.64-.47c.21-.29.53-.71.45-1-.16-.48-.68-.43-1.12-.32A3.21,3.21,0,0,0,23.22,6.71Zm3.52,0c-.52.4-1,.76-1.5,1.15A.75.75,0,0,0,26,9.17C27,8.77,27.26,7.91,26.74,6.75Z"/><path class="cls-3" d="M14.43,52.3a2.48,2.48,0,0,1,1.82,1.13,1.34,1.34,0,0,1,0,1.61,1.18,1.18,0,0,1-1.46.51c-.62-.24-1.2-.6-1.8-.9-.45-.22-1-.68-1.37-.11s0,1.05.43,1.38A18.83,18.83,0,0,0,13.88,57a.68.68,0,0,1-.77.42,3.45,3.45,0,0,1-2.77-2.62,2.28,2.28,0,0,1,.31-1c0-.12.21-.19.32-.28l3-2.28C14.69,51.73,14.71,51.77,14.43,52.3ZM12.7,53.68c.62.34,1.19.66,1.76,1a.63.63,0,0,0,.94-.28,1.1,1.1,0,0,0-.15-.93C14.62,52.65,13.59,52.75,12.7,53.68Z"/><path class="cls-3" d="M12.9,19.71c-.15.49-.24.95-.73.81a15.92,15.92,0,0,1-.67,1.84A1.32,1.32,0,0,1,9.86,23a1.15,1.15,0,0,1-.93-1.39,13.88,13.88,0,0,1,.29-1.69,1.94,1.94,0,0,0,.11-.66A1,1,0,0,0,9,18.59a.77.77,0,0,0-.67.08,2.33,2.33,0,0,0-1,2.14c0,.19,0,.39.05.62-.63-.07-.87-.33-.88-.93a3.46,3.46,0,0,1,1.33-2.84,1.28,1.28,0,0,1,1.55-.22C10.59,18.16,11.73,19,12.9,19.71Zm-2.82-.44c-.13.67-.28,1.29-.38,1.91a.71.71,0,0,0,.52.81.72.72,0,0,0,.88-.38C11.66,20.74,11.28,19.76,10.08,19.27Z"/><path class="cls-3" d="M43.29,9c-.95,0-1-.07-.81-.91.32-1.3.68-2.59,1-3.9.11-.5.29-.57.75-.46s.65.31.44.77a1.21,1.21,0,0,0,0,.25l.49-.21a2.37,2.37,0,0,1,2.14,0,1.58,1.58,0,0,1,1,2.17c-.41,1.07-.87,2.13-1.37,3.17-.3.62-.68,0-1.12,0,.29-.74.55-1.4.8-2.07.12-.29.23-.57.34-.86.35-.92.26-1.34-.33-1.66a1.53,1.53,0,0,0-2.13.45,4,4,0,0,0-.4.89c-.13.39-.21.8-.33,1.19S43.41,8.58,43.29,9Z"/><path class="cls-3" d="M36.22,3.45c-1.34-1-2.94-1.09-3.71-.28a2.94,2.94,0,0,0,.05,3.4,1.64,1.64,0,0,0,1.82.75,10.41,10.41,0,0,0,1.82-.87,1,1,0,0,1-.39,1.27,3.07,3.07,0,0,1-4.52-1.15,3.55,3.55,0,0,1,.26-4.09c.91-.92,2.08-.86,3.24-.8a1.49,1.49,0,0,1,.42.08C36.41,2.15,36.45,2.27,36.22,3.45Z"/><path class="cls-3" d="M16.51,15.72l-.57.55-.71-.51a2.39,2.39,0,0,1-.64,2.15,1.67,1.67,0,0,1-2.18.3c-1.13-.71-2.2-1.51-3.36-2.32.16-.22.29-.39.4-.57.21-.35.43-.36.75-.11.78.63,1.59,1.24,2.39,1.84s1.08.52,1.59.06a1.29,1.29,0,0,0,.3-1.82,24,24,0,0,0-1.82-1.82c-.26-.26-.54-.51-.86-.8.19-.21.36-.38.51-.57s.41-.24.65,0c1.07,1.08,2.16,2.14,3.24,3.21A4.83,4.83,0,0,1,16.51,15.72Z"/><path class="cls-3" d="M3.3,28.75l-.38,2.18-1-.1a29.27,29.27,0,0,1,1.18-5.64c1,.08,1,.11.8.93-.05.24-.13.47-.19.71s-.09.44-.15.73L8.9,28.75l-.18,1Z"/><path class="cls-3" d="M10.76,48.13c.27-.05.59-.22.79-.13a2.1,2.1,0,0,1,1.34,1.57A1.44,1.44,0,0,1,12.14,51L9.69,52.79l.14,1-.9-.15c-.44-.06-.88-.1-1.32-.17a3.39,3.39,0,0,1-.53-.2,2.43,2.43,0,0,1,.32-.51A5.07,5.07,0,0,1,8,52.29L6.83,50.4,7.57,50c.38.55.71,1.06,1.09,1.55a.51.51,0,0,0,.47.14,22.28,22.28,0,0,0,2.18-1.38c.79-.59.75-1.06,0-1.65l-.49-.34Z"/><path class="cls-3" d="M51.12,7.23c-.49.89-1,1.68-1.36,2.51s-.1,1.38.83,1.52c.19,0,.4,0,.61.06a.63.63,0,0,1-.7.63,2,2,0,0,1-1.77-.84A1.41,1.41,0,0,1,48.54,10a27.13,27.13,0,0,1,1.13-2.53c.1-.22.22-.43.32-.63s-.05-.12-.08-.14l-.58-.54.77-.32c.45-.17.91-.35,1.37-.49a2.11,2.11,0,0,1,.62-.06,2,2,0,0,1-.08.55,5.13,5.13,0,0,1-.36.69l1.57.92c.26.15.35.29.19.59s-.37.33-.65.16Z"/><path class="cls-3" d="M64.1,39.63a3.41,3.41,0,0,0-.49.69,2.58,2.58,0,0,0-.19,1.11.92.92,0,0,0,.6.6c.19,0,.53-.16.69-.36a8.93,8.93,0,0,0,.55-1,1.54,1.54,0,0,1,2.93.74,5.09,5.09,0,0,1-.42,1.88c-.31.68-.62.69-1.25.33a14.55,14.55,0,0,0,.7-1.65.7.7,0,0,0-.47-1c-.51-.14-.67.25-.87.6a5.23,5.23,0,0,1-.69,1.08,1.52,1.52,0,0,1-2.58-.77,4.12,4.12,0,0,1,.16-1.74C63,39.39,63.27,39.32,64.1,39.63Z"/><path class="cls-3" d="M6.78,21.75a1.37,1.37,0,0,0-.18.16c-1.06,1-.87,2,.53,2.59.78.32,1.58.6,2.37.87.31.1.47.23.32.57s-.21.53-.62.4c-1.5-.49-3-.95-4.52-1.45-.12,0-.22-.33-.22-.5a1.93,1.93,0,0,1,.22-.6l.79.18c-.53-.93-.64-1.8.22-2.47.23-.18.71,0,1.07,0Z"/><path class="cls-3" d="M4,43.51c-.45-.94-.43-1,.55-1.3A1.72,1.72,0,0,1,3.23,40c.06-.23.57-.34.88-.51l.12.16c0,.15-.07.3-.1.46A1.36,1.36,0,0,0,5.6,41.81a25.76,25.76,0,0,0,2.59-.51L9,41.15c.42.87.4.91-.47,1.14Z"/><path class="cls-3" d="M59.34,13.35c1.13-.09,2,.21,2.24,1.32.05.22-.34.54-.54.84a9.26,9.26,0,0,0-.78-1.16,1.12,1.12,0,0,0-1.66-.15,22.59,22.59,0,0,0-2.24,1.91c-.34.31-.57.3-.87,0s-.24-.39,0-.62q1.68-1.62,3.34-3.27c.27-.27.46-.19.66.05s.54.41.13.74A2.38,2.38,0,0,0,59.34,13.35Z"/><path class="cls-3" d="M52,56.28l2.71,3.58c.37.49.72,1,1.11,1.47s.07.58-.21.78-.51.42-.81,0c-1.08-1.59-2.19-3.17-3.3-4.74C51,56.7,51.75,56.69,52,56.28Z"/><path class="cls-3" d="M58.91,49.43c.45-.92.45-.92,1.19-.49l4,2.36-.63,1Z"/><path class="cls-3" d="M65.27,52c-.06.62-.54,1.16-.85,1.05a.65.65,0,0,1-.35-.47c0-.46.48-.94.85-.86C65.07,51.72,65.2,51.91,65.27,52Z"/><path class="cls-7" d="M31.5,21.25a4.84,4.84,0,0,0-4-3.34v-.83a1.63,1.63,0,1,0-1.36,0V18A7.78,7.78,0,0,0,22,20.41c-.65,1.27,1.48,3.4,1.48,3.4l.09,1.05h.85V21.4H25a6.52,6.52,0,0,1,.47,1.42c1,1.12,3.37.23,3.37.23s.09-1.68,0-2.42c.52,0,.68.88.68.88l.55,3.63h.34S31.69,22.39,31.5,21.25Zm-7.91.89s-1.08.12-1-.63.44-1.37,1.23-.82Zm7.54.19c-.4.71-.47.86-.47.86h-.55v-2.1S31.5,21,31.13,22.33Z"/><path class="cls-7" d="M23.2,31.86l-.57-.46a3.09,3.09,0,0,0,.59-1.65v-4H24v4A3.67,3.67,0,0,1,23.2,31.86Z"/><rect class="cls-7" x="25.32" y="24.62" width="0.74" height="2.87"/><path class="cls-7" d="M28.17,32.31a3.22,3.22,0,0,1-.78-2V24.62h.75V30.3a2.41,2.41,0,0,0,.58,1.51Z"/><path class="cls-7" d="M30.74,31.84A4.4,4.4,0,0,1,30,29.56V25.88h.74v3.68a3.69,3.69,0,0,0,.59,1.86Z"/><path class="cls-7" d="M50.23,28.29l-.77-1.62-1-.23V26.3s0-2.1-.08-3.21-.55-1.1-.55-1.1-2.11,0-3-.09c-1-1.52-.74-4.19-.76-4.72a2.4,2.4,0,0,0,.58-1.35.45.45,0,0,0-.07-.34,1.51,1.51,0,0,0-2.07-.13.77.77,0,0,0-.36.74,9.21,9.21,0,0,1,0,1.58,10.53,10.53,0,0,0-1.77,1,.68.68,0,0,0-.3.57c0,.27,0,.73,0,1.45C40,24,41.21,24,40.79,24.58a8.92,8.92,0,0,0-.53,2.82h0v.07a3.47,3.47,0,0,0,3.56,3.36,3.54,3.54,0,0,0,3.46-2.55h2.95ZM47.94,24.4l-.2,1.32-.24-.1a2.92,2.92,0,0,0-.44-1.22Zm-3.7-2.6L44.38,23s-1.59,0-1.63-1.22A7.42,7.42,0,0,1,44.24,21.8Zm-.42,8.78a3.21,3.21,0,0,1-3.31-3.11v0l6.52.82A3.28,3.28,0,0,1,43.82,30.58Z"/><ellipse class="cls-3" cx="43.82" cy="27.47" rx="3.44" ry="3.23"/><g class="cls-8"><path class="cls-4" d="M43.82,30.22a2.75,2.75,0,1,1,2.92-2.75A2.84,2.84,0,0,1,43.82,30.22Zm0-5.4a2.66,2.66,0,1,0,2.83,2.65A2.74,2.74,0,0,0,43.82,24.82Z"/></g><path class="cls-7" d="M42.73,26.4l-.18-.07-.18-.08c-.06,0-.13,0-.17-.09a.37.37,0,0,1-.09-.21l0,0a.4.4,0,0,1,.22,0c.06,0,.09.08.14.13l.13.14.12.15Z"/><path class="cls-7" d="M43.1,26.15A.86.86,0,0,1,43,26l-.13-.14c0-.05-.1-.09-.12-.16a.33.33,0,0,1,0-.22h0a.39.39,0,0,1,.2.11.48.48,0,0,1,.07.18l.06.18a1.33,1.33,0,0,1,0,.19Z"/><path class="cls-7" d="M43.68,26a1.63,1.63,0,0,1-.11-.17,1,1,0,0,1-.1-.17.34.34,0,0,1-.08-.17.28.28,0,0,1,0-.21h0a.41.41,0,0,1,.17.14.43.43,0,0,1,0,.19,1.23,1.23,0,0,1,0,.19,1.36,1.36,0,0,1,0,.2Z"/><path class="cls-7" d="M44.13,26a1.42,1.42,0,0,1,0-.2c0-.06,0-.12,0-.19s0-.13,0-.19a.38.38,0,0,1,.12-.18h0a.39.39,0,0,1,.09.2.41.41,0,0,1,0,.19c0,.06,0,.12-.05.19s0,.12-.07.18Z"/><path class="cls-7" d="M44.68,26.09l0-.2c0-.06,0-.12,0-.19a.37.37,0,0,1,.05-.18.49.49,0,0,1,.18-.13h0a.44.44,0,0,1,0,.22c0,.07-.07.11-.1.17l-.12.15a1.67,1.67,0,0,1-.12.16Z"/><path class="cls-7" d="M45,26.4l.11-.16.12-.15c0-.05.06-.12.12-.15a.38.38,0,0,1,.22,0l0,0a.58.58,0,0,1-.07.21.54.54,0,0,1-.16.1l-.17.1-.18.09Z"/><path class="cls-7" d="M45.27,26.93l.14-.14.15-.13s.09-.1.15-.11a.33.33,0,0,1,.22,0v0a.43.43,0,0,1-.1.19.4.4,0,0,1-.18.07l-.18.07-.19.05Z"/><path class="cls-7" d="M45.35,27.37l.19-.07.18-.05a.41.41,0,0,1,.19-.05.39.39,0,0,1,.2.09v0a.37.37,0,0,1-.17.14.46.46,0,0,1-.2,0h-.19l-.19,0Z"/><path class="cls-7" d="M44.7,28.55l.16.12.14.12c0,.05.12.07.14.14a.35.35,0,0,1,0,.21l0,0a.4.4,0,0,1-.21-.08.54.54,0,0,1-.1-.16l-.09-.17a1.42,1.42,0,0,1-.08-.18Z"/><path class="cls-7" d="M44.27,28.7a1,1,0,0,1,.1.17.89.89,0,0,1,.08.17c0,.06.08.11.08.18a.36.36,0,0,1-.06.21h0a.33.33,0,0,1-.15-.16c0-.05,0-.12,0-.19s0-.13,0-.19a1.34,1.34,0,0,1,0-.2Z"/><path class="cls-7" d="M45.37,27.94h.2l.19,0c.07,0,.14,0,.19,0a.39.39,0,0,1,.15.16v0a.46.46,0,0,1-.21.05.61.61,0,0,1-.18-.09l-.17-.09L45.37,28Z"/><path class="cls-7" d="M45.24,28.34a1.4,1.4,0,0,1,.17.09l.17.1a.42.42,0,0,1,.16.11.47.47,0,0,1,.07.21h0a.38.38,0,0,1-.22,0c-.06,0-.08-.1-.12-.15l-.12-.15a1.63,1.63,0,0,1-.11-.17Z"/><path class="cls-7" d="M43.67,28.71a1.34,1.34,0,0,1,.07.18c0,.07,0,.13,0,.19s.05.13,0,.19a.36.36,0,0,1-.09.2h0a.38.38,0,0,1-.12-.18.41.41,0,0,1,0-.19c0-.07,0-.13,0-.2s0-.13,0-.19Z"/><path class="cls-7" d="M43.24,28.58a1.36,1.36,0,0,1,0,.2.68.68,0,0,1,0,.19.43.43,0,0,1,0,.19.41.41,0,0,1-.17.14h0a.31.31,0,0,1,0-.22c0-.07.06-.11.09-.17l.1-.17.11-.16Z"/><path class="cls-7" d="M42.73,28.35a1.42,1.42,0,0,1-.08.18l-.09.17c0,.06-.05.13-.11.16a.31.31,0,0,1-.2.08h0a.47.47,0,0,1,0-.22c0-.06.1-.09.14-.13l.15-.13.16-.11Z"/><path class="cls-7" d="M42.51,28l-.15.13-.16.12c-.05,0-.09.1-.16.11a.35.35,0,0,1-.22,0v0a.36.36,0,0,1,.12-.18.4.4,0,0,1,.18-.07L42.3,28l.19,0Z"/><path class="cls-7" d="M42.38,27.38l-.18.1-.17.09c-.06,0-.11.07-.18.07a.38.38,0,0,1-.21-.06v0a.49.49,0,0,1,.16-.16.39.39,0,0,1,.19,0l.19,0h.2Z"/><path class="cls-7" d="M42.41,26.93l-.19,0H42a.61.61,0,0,1-.19,0,.37.37,0,0,1-.17-.14v0a.5.5,0,0,1,.21-.08c.06,0,.12,0,.18.06l.19.06.18.08Z"/><polygon class="cls-9" points="36.16 38.72 36.06 57.92 35.77 57.92 35.67 38.72 36.16 38.72"/><circle class="cls-10" cx="35.95" cy="37.89" r="0.63"/><path class="cls-10" d="M28.79,39a4.13,4.13,0,0,1-.54,0,1,1,0,0,1-1-1v-.86h7.27v.24a1.68,1.68,0,0,0,.27,1.17.92.92,0,0,0,.68.23V39a1.17,1.17,0,0,1-.86-.3,1.88,1.88,0,0,1-.34-1.33H27.49v.61a.77.77,0,0,0,.77.78h0a5.26,5.26,0,0,0,.93,0,6.35,6.35,0,0,0,1.13-.3l.09.23a6.2,6.2,0,0,1-1.18.31A3.29,3.29,0,0,1,28.79,39Z"/><path class="cls-10" d="M29.52,40a1.26,1.26,0,0,1-.62-.14,1.08,1.08,0,0,1-.47-1h.25a.82.82,0,0,0,.34.75c.6.35,1.89-.2,2.33-.45l.12.22A5,5,0,0,1,29.52,40Z"/><path class="cls-10" d="M31.43,41.08a1.82,1.82,0,0,1-.82-.21c-.37-.13-.64-.9-.65-1l.25,0c0,.11.27.72.49.79h0a1.36,1.36,0,0,0,1.08.13,1.79,1.79,0,0,0,.91-.85l.22.11a2,2,0,0,1-1.05,1A1.41,1.41,0,0,1,31.43,41.08Z"/><path class="cls-10" d="M32.69,41.6h0a1.21,1.21,0,0,1-1-.62l.21-.14a.94.94,0,0,0,.76.51c.83,0,1.74-1.16,1.75-1.17l.2.15C34.57,40.38,33.63,41.6,32.69,41.6Z"/><path class="cls-10" d="M34.65,41.54a1.21,1.21,0,0,1-.87-.5l.19-.16a.91.91,0,0,0,.76.41c.38-.07.61-.6.62-.6l.22.09s-.28.66-.8.75Z"/><polygon class="cls-10" points="35.57 40.78 35.34 40.74 35.34 38.72 35.58 38.72 35.57 40.78"/><path class="cls-10" d="M43,39a3.29,3.29,0,0,1-.45,0,5.73,5.73,0,0,1-1.18-.31l.09-.23a6.35,6.35,0,0,0,1.13.3,5.11,5.11,0,0,0,.92,0h0a.78.78,0,0,0,.77-.78v-.61H37.55a1.78,1.78,0,0,1-.34,1.33,1.14,1.14,0,0,1-.85.3v-.24a1,1,0,0,0,.68-.23,1.74,1.74,0,0,0,.27-1.17v-.24h7.27v.86a1,1,0,0,1-1,1A3.79,3.79,0,0,1,43,39Z"/><path class="cls-10" d="M42.29,40a5,5,0,0,1-1.95-.59l.12-.22s1.62.87,2.33.45a.78.78,0,0,0,.34-.75h.25a1,1,0,0,1-.46,1A1.3,1.3,0,0,1,42.29,40Z"/><path class="cls-10" d="M40.39,41.08a1.33,1.33,0,0,1-.45-.07,2,2,0,0,1-1.06-1l.22-.11a1.84,1.84,0,0,0,.92.85,1.36,1.36,0,0,0,1.08-.13h0c.22-.07.47-.68.49-.79l.25,0c0,.1-.29.87-.66,1A1.81,1.81,0,0,1,40.39,41.08Z"/><path class="cls-10" d="M39.13,41.6c-1,0-1.88-1.22-1.92-1.27l.19-.15s.9,1.17,1.73,1.17h0a.94.94,0,0,0,.76-.51l.21.14a1.22,1.22,0,0,1-1,.62Z"/><path class="cls-10" d="M37.17,41.54h-.12c-.52-.09-.8-.72-.81-.75l.23-.09s.23.53.62.6a.92.92,0,0,0,.76-.41L38,41A1.21,1.21,0,0,1,37.17,41.54Z"/><polygon class="cls-10" points="36.48 40.74 36.24 40.78 36.23 38.72 36.48 38.72 36.48 40.74"/><path class="cls-11" d="M36,45.9a1.76,1.76,0,0,1-1.59-1.65A1.73,1.73,0,0,1,36,42.65a1.8,1.8,0,0,1,1.6,1.6A1.71,1.71,0,0,1,36,45.9Zm0-2.64a1,1,0,0,0,0,2,1.09,1.09,0,0,0,1-1C36.93,43.71,36.22,43.26,36,43.26Z"/><path class="cls-11" d="M36,43.28c-1.27,0-3.15-1-3.15-2.48h.62c0,1,1.43,1.86,2.53,1.86s2.54-.83,2.54-1.86h.62C39.11,42.19,37.41,43.28,36,43.28Z"/><path class="cls-11" d="M36,48.73A1.82,1.82,0,0,1,34.36,47,1.78,1.78,0,0,1,36,45.27a1.85,1.85,0,0,1,1.6,1.7A1.78,1.78,0,0,1,36,48.73Zm0-2.84A1.2,1.2,0,0,0,35,47a1.21,1.21,0,0,0,1,1.14,1.16,1.16,0,0,0,1-1.14A1.27,1.27,0,0,0,36,45.89Z"/><path class="cls-11" d="M36,51.37a1.65,1.65,0,0,1,0-3.26,1.7,1.7,0,0,1,1.43,1.6A1.61,1.61,0,0,1,36,51.37Zm0-2.64a1,1,0,0,0-.8,1,1.07,1.07,0,0,0,.8,1,1,1,0,0,0,.81-1A1.14,1.14,0,0,0,36,48.73Z"/><path class="cls-11" d="M36,53.59a1.45,1.45,0,0,1,0-2.87,1.51,1.51,0,0,1,1.28,1.41A1.42,1.42,0,0,1,36,53.59Zm0-2.25a.85.85,0,0,0-.66.79A.88.88,0,0,0,36,53a.84.84,0,0,0,.66-.84A.93.93,0,0,0,36,51.34Z"/><path class="cls-11" d="M36,55.3a1.24,1.24,0,0,1-1.13-1.19A1.22,1.22,0,0,1,36,53a1.28,1.28,0,0,1,1.14,1.16A1.21,1.21,0,0,1,36,55.3Zm0-1.73a.62.62,0,0,0-.51.54.64.64,0,0,0,.51.57.6.6,0,0,0,.52-.57C36.47,53.81,36.06,53.57,36,53.57Z"/><path class="cls-11" d="M36.86,55.83a1.69,1.69,0,0,1-.31-.13l-.15-.07-.14-.08-.15-.06a.2.2,0,0,1-.11-.11.69.69,0,0,1,0-.17A1.06,1.06,0,0,1,36,55l.05,0a.52.52,0,0,1,.24,0,.43.43,0,0,1,.17,0,.2.2,0,0,1,.11.11.69.69,0,0,0,.07.15l.08.14.08.14c0,.1.09.2.13.31Z"/><path class="cls-11" d="M35.11,55.79c0-.11.09-.21.13-.31l.08-.14.08-.14a.69.69,0,0,0,.07-.15.2.2,0,0,1,.11-.11.43.43,0,0,1,.17,0,.52.52,0,0,1,.24,0l0,0a1.06,1.06,0,0,1,0,.24.69.69,0,0,1-.05.17.2.2,0,0,1-.11.11l-.15.06-.14.08-.15.07a1.69,1.69,0,0,1-.31.13Z"/><path class="cls-11" d="M38.88,39.91a1.45,1.45,0,0,0-.71-.67,1,1,0,0,0-.54-.07,1.23,1.23,0,0,0-.49.16,1.53,1.53,0,0,0-.63.77h0a.35.35,0,0,0,.23.45.35.35,0,0,0,.44-.23.81.81,0,0,1,.31-.41.63.63,0,0,1,.23-.08.37.37,0,0,1,.21,0,.81.81,0,0,1,.39.37,1.3,1.3,0,0,1,.17.58h0a.31.31,0,0,0,.62,0A1.82,1.82,0,0,0,38.88,39.91Zm-1.76.25a.22.22,0,1,1-.38-.22.24.24,0,0,1,.32-.11A.23.23,0,0,1,37.12,40.16Z"/><path class="cls-11" d="M34.77,39.33a1.23,1.23,0,0,0-.49-.16,1,1,0,0,0-.54.07,1.45,1.45,0,0,0-.71.67,1.82,1.82,0,0,0-.23.89.31.31,0,0,0,.62,0h0a1.3,1.3,0,0,1,.17-.58.81.81,0,0,1,.39-.37.37.37,0,0,1,.21,0,.63.63,0,0,1,.23.08.74.74,0,0,1,.3.41h0a.36.36,0,0,0,.45.22.36.36,0,0,0,.22-.46A1.53,1.53,0,0,0,34.77,39.33Zm.34,1a.24.24,0,0,1-.32-.12.24.24,0,0,1,.06-.33.25.25,0,0,1,.33.11A.25.25,0,0,1,35.11,40.28Z"/></g></g></svg>