<svg xmlns="http://www.w3.org/2000/svg" viewBox="0 0 960.54 351.97"><defs><style>.cls-1{fill:#be1e2d;}.cls-2{fill:none;stroke:#000;stroke-miterlimit:10;stroke-width:3px;}</style></defs><title>Asset 2</title><g id="Layer_2" data-name="Layer 2"><g id="Layer_1-2" data-name="Layer 1"><path class="cls-1" d="M5.26,25.25h86.5l62.53,124.42V73.55q0-9.78-1.07-12.23a10,10,0,0,0-4.13-5.12c-1.73-1-5.1-1.45-10.09-1.45H128.61V25.25H216.5v29.5h-9.73q-7.29,0-10.4,1.68A9.2,9.2,0,0,0,192,61q-1.22,2.9-1.22,12.53V238.48H147L67.78,81.35v109.9q0,9.48,1.14,12.07A8.48,8.48,0,0,0,73,207.45Q76,209,83.27,209H93.45v29.5H5.26V209h9.11q7.61,0,10.41-1.3a9.56,9.56,0,0,0,4.48-4.51c1.12-2.14,1.67-5.35,1.67-9.63V71.26q0-7-1.51-10.32a10,10,0,0,0-4.1-4.74c-1.73-1-4.61-1.45-8.67-1.45H5.26Z"/><path class="cls-1" d="M350.86,21.58q50.75,0,82.15,30.88t31.42,79.33q0,32.57-14.37,57.78a99.15,99.15,0,0,1-39.66,38.9q-25.31,13.68-61.07,13.68-47.24,0-77.34-26-36.39-31.33-36.38-83.77,0-48.77,31.87-79.78T350.86,21.58Zm.61,33.93q-24.3,0-38.67,18.2-18,22.92-18,59.15t16.81,57.32q14.54,18,38.37,18,24,0,38.37-18,17-21.56,17-57.62,0-25.38-7.27-42.65T378.37,64.08A46.32,46.32,0,0,0,351.47,55.51Z"/><path class="cls-1" d="M486.13,25.25H590.22v29.5h-9.57q-7.9,0-10.79,1.6a9,9,0,0,0-4.1,4.59q-1.21,3-1.22,12.92V111H642.2V71.11c0-4.89-.31-8.21-.92-9.94a8,8,0,0,0-4.13-5q-2.91-1.38-12.84-1.38h-8.1V25.25h104.4v29.5h-8.72c-5.9,0-9.83.48-11.76,1.45a8.14,8.14,0,0,0-4.06,4.28q-1.14,2.84-1.14,13.38V189.41q0,10.71,1.45,13.84a8.55,8.55,0,0,0,4.43,4.43q3,1.31,13.68,1.3h6.12v29.5H616.21V209h6.88q9.63,0,13.07-1.53A8.84,8.84,0,0,0,640.9,203q1.29-2.9,1.3-13.61V144.32H564.54v45.09q0,10.71.92,13.3a8.31,8.31,0,0,0,4.71,5q3.18,1.23,12.91,1.22h7.14v29.5H486.13V209h7.08q8.91,0,12.45-1.53a9,9,0,0,0,4.84-4.28q1.31-2.74,1.31-12.07V75.23q0-10.85-1.31-14.14a9.12,9.12,0,0,0-4.07-4.81q-2.78-1.53-10.76-1.53h-9.54Z"/><path class="cls-1" d="M820.87,25.25h47.9l64,164.62Q938,203,942,206.08t14.91,2.9v29.5H856V209l6.11-.15q8.42,0,11.78-2.22c2.24-1.47,3.36-3.29,3.36-5.42q0-2.76-2.9-11.32L868,170.46H803.19l-8,21.55q-2.44,6.88-2.45,9a6.52,6.52,0,0,0,1.76,4.43,10.6,10.6,0,0,0,5.73,2.91q2.6.62,14.37.61v29.5H732.07V209q7.95,0,11.61-1.37a14.59,14.59,0,0,0,6-4.13q2.37-2.74,5.27-10.25ZM814.47,140h42.35L836.19,81.49Z"/><path d="M56.71,348.9a3.29,3.29,0,0,1,.06,1.3,1.2,1.2,0,0,1-.51.76,2.44,2.44,0,0,1-1.14.34,16.62,16.62,0,0,1-1.9.08,9.25,9.25,0,0,1-1.35-.08,3.55,3.55,0,0,1-1-.23,1.13,1.13,0,0,1-.5-.43,1.47,1.47,0,0,1-.21-.63l-2.91-18.27H17.22L7.21,350a1.88,1.88,0,0,1-.42.63,1.94,1.94,0,0,1-.72.43,5.64,5.64,0,0,1-1.16.23,13.73,13.73,0,0,1-1.67.08,13.6,13.6,0,0,1-1.85-.1,2.42,2.42,0,0,1-1.09-.37.76.76,0,0,1-.29-.74,3.65,3.65,0,0,1,.48-1.27l37-65.18A2.64,2.64,0,0,1,39,282.56a6.5,6.5,0,0,1,1.24-.24,15.66,15.66,0,0,1,1.62-.08,15.36,15.36,0,0,1,1.64.08,5.8,5.8,0,0,1,1.19.24,1.49,1.49,0,0,1,.74.45,1.3,1.3,0,0,1,.29.71Zm-16.2-59.41h0L20.18,326.34H46.39Z"/><path d="M142.17,295.58a22.59,22.59,0,0,1-.85,6.23,20.62,20.62,0,0,1-2.44,5.42,19.22,19.22,0,0,1-3.89,4.42,21,21,0,0,1-5.21,3.2,12.76,12.76,0,0,1,4.13,1.57,12.21,12.21,0,0,1,3.28,2.83,12.51,12.51,0,0,1,2.14,4,15.57,15.57,0,0,1,.77,5,22.1,22.1,0,0,1-6.8,16,23.29,23.29,0,0,1-5,3.65,26.1,26.1,0,0,1-6.2,2.39,33.08,33.08,0,0,1-7.79.84H96.58a3.19,3.19,0,0,1-2.33-.79,2.58,2.58,0,0,1-.37-2.54l12.34-61.84a3.6,3.6,0,0,1,1.59-2.63,4.81,4.81,0,0,1,2.43-.71H124a33.32,33.32,0,0,1,8.48.9,15.36,15.36,0,0,1,5.5,2.59,10.28,10.28,0,0,1,3.2,4.11A13.57,13.57,0,0,1,142.17,295.58Zm-9.06,33.2a9,9,0,0,0-3.44-7.57q-3.43-2.65-10.54-2.65h-13l-5.29,26.74h14.4a20.27,20.27,0,0,0,7.83-1.35,16.54,16.54,0,0,0,5.46-3.6,15.57,15.57,0,0,0,3.41-5.24A16.88,16.88,0,0,0,133.11,328.78Zm2-32.08a9.06,9.06,0,0,0-.63-3.45,6.35,6.35,0,0,0-2-2.62,10.38,10.38,0,0,0-3.6-1.69,22.52,22.52,0,0,0-5.85-.61H112.2l-4.87,24.56H119a16.25,16.25,0,0,0,7.54-1.53,14.84,14.84,0,0,0,4.82-3.91,16.19,16.19,0,0,0,2.78-5.25A18.27,18.27,0,0,0,135.07,296.7Z"/><path d="M185.37,302.57c0,.11,0,.3-.05.59s-.08.6-.14.95a10.48,10.48,0,0,1-.23,1.11,6,6,0,0,1-.4,1.06,4.82,4.82,0,0,1-.5.8.81.81,0,0,1-.64.31,2.28,2.28,0,0,1-.87-.21l-1.17-.47a10.78,10.78,0,0,0-1.51-.48,7.08,7.08,0,0,0-6.32,1.48,23.87,23.87,0,0,0-5,4.71,37.55,37.55,0,0,0-7.71,16.36L156.62,350a2.25,2.25,0,0,1-.29.58,1.19,1.19,0,0,1-.58.42,4.73,4.73,0,0,1-1,.27,9.77,9.77,0,0,1-1.54.1,9,9,0,0,1-1.53-.1,3.23,3.23,0,0,1-.9-.27.77.77,0,0,1-.43-.42.83.83,0,0,1,0-.58l9.53-47.91a1.18,1.18,0,0,1,.26-.58,1.62,1.62,0,0,1,.61-.45,3.17,3.17,0,0,1,1-.27,10.93,10.93,0,0,1,1.38-.08,9.5,9.5,0,0,1,1.32.08,1.92,1.92,0,0,1,.82.27.82.82,0,0,1,.38.45,1.24,1.24,0,0,1,0,.58l-1.85,9.31a24.38,24.38,0,0,1,2.86-4.2,24,24,0,0,1,3.68-3.6,19.22,19.22,0,0,1,4.18-2.52,11,11,0,0,1,4.37-.95,14.12,14.12,0,0,1,1.93.13c.65.09,1.26.2,1.83.32a8.12,8.12,0,0,1,1.48.45,3,3,0,0,1,1,.58A1.21,1.21,0,0,1,185.37,302.57Z"/><path d="M224.18,350a1.48,1.48,0,0,1-.85,1.06,6.12,6.12,0,0,1-2.33.31,7.62,7.62,0,0,1-1.29-.08,2.89,2.89,0,0,1-.82-.23.86.86,0,0,1-.43-.43,1,1,0,0,1,0-.63l2-9.85a13.69,13.69,0,0,1-2.49,3.82,24.54,24.54,0,0,1-4.31,3.84,25.39,25.39,0,0,1-5.59,2.95,17,17,0,0,1-6.25,1.2,14.76,14.76,0,0,1-7-1.49,11.67,11.67,0,0,1-4.34-3.88,14.93,14.93,0,0,1-2.17-5.4,31.3,31.3,0,0,1-.58-6,45,45,0,0,1,.53-6.44,47.49,47.49,0,0,1,1.75-7.57,50,50,0,0,1,3.12-7.65,29,29,0,0,1,4.69-6.75,22,22,0,0,1,6.45-4.81,18.63,18.63,0,0,1,8.4-1.83,16.19,16.19,0,0,1,8.25,1.93,22.25,22.25,0,0,1,6,5.22L228,302.1a1.44,1.44,0,0,1,.93-1.06,6.36,6.36,0,0,1,2.3-.32,9.77,9.77,0,0,1,1.33.08,2,2,0,0,1,.82.27.84.84,0,0,1,.37.45,1.24,1.24,0,0,1,0,.58Zm1.06-36.32a22.12,22.12,0,0,0-6.06-6.11,13.1,13.1,0,0,0-7.18-2,11.09,11.09,0,0,0-5.74,1.51,16.19,16.19,0,0,0-4.53,4,26,26,0,0,0-3.36,5.59,45,45,0,0,0-2.3,6.38,49.7,49.7,0,0,0-1.33,6.38,41.91,41.91,0,0,0-.42,5.51,27.11,27.11,0,0,0,.32,4.08,11.33,11.33,0,0,0,1.24,3.76,7.86,7.86,0,0,0,2.57,2.78,7.66,7.66,0,0,0,4.29,1.08,13.49,13.49,0,0,0,6.4-1.72,21.85,21.85,0,0,0,6-4.82,32.8,32.8,0,0,0,4.92-7.36,37.86,37.86,0,0,0,3.21-9.4Z"/><path d="M286.18,312.68a30.79,30.79,0,0,1-.21,3.63c-.15,1.18-.34,2.39-.59,3.63l-6,30.07a2,2,0,0,1-.29.58,1.19,1.19,0,0,1-.58.42,4.85,4.85,0,0,1-1,.27,9.45,9.45,0,0,1-1.56.1,8.65,8.65,0,0,1-1.48-.1,3.23,3.23,0,0,1-.9-.27.8.8,0,0,1-.43-.42,1.11,1.11,0,0,1,0-.58l6-30.07c.25-1.24.42-2.4.53-3.5s.16-2.05.16-2.86a9.94,9.94,0,0,0-1.59-5.92c-1.06-1.48-2.83-2.23-5.3-2.23a13.46,13.46,0,0,0-6.41,1.75,22.24,22.24,0,0,0-6,4.84,33.9,33.9,0,0,0-4.95,7.39,36.06,36.06,0,0,0-3.18,9.37L248.22,350a2.25,2.25,0,0,1-.29.58,1.22,1.22,0,0,1-.59.42,4.73,4.73,0,0,1-1,.27,9.68,9.68,0,0,1-1.54.1,9.06,9.06,0,0,1-1.53-.1,3.23,3.23,0,0,1-.9-.27.8.8,0,0,1-.43-.42.83.83,0,0,1,0-.58l9.64-47.91a1.49,1.49,0,0,1,.24-.58,1.36,1.36,0,0,1,.56-.45,2.75,2.75,0,0,1,1-.27,10.93,10.93,0,0,1,1.38-.08,9.5,9.5,0,0,1,1.32.08,2,2,0,0,1,.82.27.76.76,0,0,1,.37.45,1.24,1.24,0,0,1,0,.58l-2,9.79a14,14,0,0,1,2.46-3.82,24,24,0,0,1,4.29-3.83,25.28,25.28,0,0,1,5.58-2.94,18.1,18.1,0,0,1,6.41-1.16,13.83,13.83,0,0,1,5.77,1.06,10.12,10.12,0,0,1,3.76,2.8,10.77,10.77,0,0,1,2,4A18.09,18.09,0,0,1,286.18,312.68Z"/><path d="M334.15,350a1.33,1.33,0,0,1-.8,1.06,6.12,6.12,0,0,1-2.33.31,7.83,7.83,0,0,1-1.3-.08,3.1,3.1,0,0,1-.82-.23.83.83,0,0,1-.42-.43,1,1,0,0,1,0-.63l1.85-9.63a13.42,13.42,0,0,1-2.49,3.78,24,24,0,0,1-4.31,3.79,24.71,24.71,0,0,1-5.58,2.88A17.84,17.84,0,0,1,311.7,352a15.48,15.48,0,0,1-5.54-.88,12,12,0,0,1-3.86-2.27,11,11,0,0,1-2.49-3.23,19.75,19.75,0,0,1-1.43-3.73,23.23,23.23,0,0,1-.66-3.73c-.1-1.22-.16-2.31-.16-3.26a45.29,45.29,0,0,1,.56-6.62,47.39,47.39,0,0,1,1.8-7.55,49.15,49.15,0,0,1,3.18-7.54,28.06,28.06,0,0,1,4.71-6.59,22.6,22.6,0,0,1,6.43-4.66,18.72,18.72,0,0,1,8.26-1.77,18.21,18.21,0,0,1,4.5.53,16.51,16.51,0,0,1,3.76,1.45,16.71,16.71,0,0,1,3.12,2.2,27,27,0,0,1,2.65,2.7l5.61-28.12a1.55,1.55,0,0,1,.24-.58,1.24,1.24,0,0,1,.56-.42,4.08,4.08,0,0,1,1-.27,9.45,9.45,0,0,1,1.56-.1,9.2,9.2,0,0,1,1.51.1,3.79,3.79,0,0,1,.95.27.69.69,0,0,1,.42.42,1.39,1.39,0,0,1,0,.58Zm1-36.16a23.1,23.1,0,0,0-6.06-6.19,12.73,12.73,0,0,0-7.17-2.12A10.93,10.93,0,0,0,316.3,307a16.79,16.79,0,0,0-4.47,3.83,25.45,25.45,0,0,0-3.42,5.45,42.22,42.22,0,0,0-2.35,6.33,46.77,46.77,0,0,0-1.37,6.38,40,40,0,0,0-.45,5.67c0,3.81.65,6.75,2,8.81s3.47,3.1,6.43,3.1a13.72,13.72,0,0,0,6.41-1.69,22,22,0,0,0,6-4.74,32.67,32.67,0,0,0,4.92-7.28,37.22,37.22,0,0,0,3.2-9.37Z"/><path d="M401.39,324.07,396.2,350a1.83,1.83,0,0,1-.32.58,1.35,1.35,0,0,1-.63.42,5.61,5.61,0,0,1-1.06.27,9.77,9.77,0,0,1-1.54.1,9.2,9.2,0,0,1-1.51-.1,3.67,3.67,0,0,1-.95-.27.78.78,0,0,1-.45-.42,1.11,1.11,0,0,1-.06-.58l5.19-25.94-11.8-39.34a7,7,0,0,1-.24-1.27.85.85,0,0,1,.27-.74,1.79,1.79,0,0,1,.95-.37,12.67,12.67,0,0,1,1.88-.11,15.14,15.14,0,0,1,1.67.08,2.81,2.81,0,0,1,1.08.32,1.8,1.8,0,0,1,.67.61,3.73,3.73,0,0,1,.39.95l5.93,20.07c.7,2.33,1.33,4.57,1.88,6.74s1.07,4.43,1.56,6.76h.11c1.44-2.26,2.89-4.5,4.34-6.7s2.95-4.45,4.5-6.75l14.08-20.38a4.2,4.2,0,0,1,.66-.8,3,3,0,0,1,.85-.53,4.37,4.37,0,0,1,1.22-.29,18.05,18.05,0,0,1,1.83-.08,7.53,7.53,0,0,1,2,.19,1.36,1.36,0,0,1,.85.5.85.85,0,0,1,0,.79,5.62,5.62,0,0,1-.58,1Z"/><path d="M466.3,317.87a45.32,45.32,0,0,1-.74,8.05,41.69,41.69,0,0,1-2.25,7.86,36.06,36.06,0,0,1-3.79,7.1,27.11,27.11,0,0,1-5.32,5.77,24.44,24.44,0,0,1-6.85,3.89,23.94,23.94,0,0,1-8.43,1.43,25.39,25.39,0,0,1-8.38-1.22,14.33,14.33,0,0,1-5.7-3.52,13.75,13.75,0,0,1-3.25-5.61,24.91,24.91,0,0,1-1-7.44,45.32,45.32,0,0,1,.74-8.05,40.28,40.28,0,0,1,2.26-7.83,36.34,36.34,0,0,1,3.78-7.1,26.41,26.41,0,0,1,5.32-5.77,24.92,24.92,0,0,1,6.86-3.86,23.66,23.66,0,0,1,8.42-1.43,25.27,25.27,0,0,1,8.39,1.22,14.29,14.29,0,0,1,5.69,3.52,13.9,13.9,0,0,1,3.26,5.58A24.94,24.94,0,0,1,466.3,317.87Zm-6.67.32A20.05,20.05,0,0,0,459,313,9.49,9.49,0,0,0,456.9,309a9.38,9.38,0,0,0-3.78-2.48,16.29,16.29,0,0,0-5.67-.87,16.09,16.09,0,0,0-6.33,1.19,17.6,17.6,0,0,0-5.08,3.22,21.41,21.41,0,0,0-3.92,4.79,30.66,30.66,0,0,0-2.75,5.91,38.24,38.24,0,0,0-1.61,6.51,41.86,41.86,0,0,0-.53,6.65,20.07,20.07,0,0,0,.63,5.24A9.57,9.57,0,0,0,430,343.1a9.37,9.37,0,0,0,3.79,2.49,17.9,17.9,0,0,0,12-.32,17.48,17.48,0,0,0,5.08-3.25,22,22,0,0,0,3.92-4.82,30.66,30.66,0,0,0,2.75-5.91,39.38,39.38,0,0,0,1.62-6.48A42.59,42.59,0,0,0,459.63,318.19Z"/><path d="M512.2,350a1.34,1.34,0,0,1-.23.58,1.22,1.22,0,0,1-.56.42,4.37,4.37,0,0,1-1,.27,8,8,0,0,1-1.38.1,7,7,0,0,1-1.32-.1,2.88,2.88,0,0,1-.83-.27.8.8,0,0,1-.39-.42.83.83,0,0,1,0-.58l1.85-9.63a13.42,13.42,0,0,1-2.49,3.78,24.79,24.79,0,0,1-9.79,6.67A17.1,17.1,0,0,1,490,352a16.18,16.18,0,0,1-6-1,9.77,9.77,0,0,1-3.86-2.61,10,10,0,0,1-2.1-4,19.16,19.16,0,0,1-.63-5.06,30.38,30.38,0,0,1,.21-3.5c.14-1.19.34-2.41.58-3.65l6-30.12a1.18,1.18,0,0,1,.26-.58,1.62,1.62,0,0,1,.61-.45,3.27,3.27,0,0,1,1-.27,13.41,13.41,0,0,1,1.54-.08,11.83,11.83,0,0,1,1.48.08,2.29,2.29,0,0,1,.9.27.93.93,0,0,1,.43.45,1.11,1.11,0,0,1,.05.58l-6,30.12c-.22,1-.38,2.08-.51,3.15a29.91,29.91,0,0,0-.18,3.31,14,14,0,0,0,.34,3.21,6.74,6.74,0,0,0,1.17,2.54,5.36,5.36,0,0,0,2.11,1.67,8,8,0,0,0,3.21.58,13.58,13.58,0,0,0,6.4-1.72,22.29,22.29,0,0,0,6-4.8,32.49,32.49,0,0,0,4.93-7.33,38.09,38.09,0,0,0,3.2-9.34l4.29-21.39a1.19,1.19,0,0,1,.27-.58,1.58,1.58,0,0,1,.6-.45,3.27,3.27,0,0,1,1-.27,13.41,13.41,0,0,1,1.54-.08,12.37,12.37,0,0,1,1.53.08,2.29,2.29,0,0,1,.9.27.75.75,0,0,1,.4.45,1.38,1.38,0,0,1,0,.58Z"/><path d="M610.89,289.71a8.38,8.38,0,0,1-.32,2.17,5,5,0,0,1-.82,1.8,1.4,1.4,0,0,1-1.08.63,2.81,2.81,0,0,1-1.78-1,20,20,0,0,0-2.8-2.25,22.47,22.47,0,0,0-20.36-1.54,25.21,25.21,0,0,0-7.07,4.72,32.8,32.8,0,0,0-5.53,6.86,46.3,46.3,0,0,0-4,8.2,51.65,51.65,0,0,0-2.39,8.73,47.83,47.83,0,0,0-.79,8.45,26.93,26.93,0,0,0,1.14,8.15,17,17,0,0,0,3.28,6.09,13.84,13.84,0,0,0,5.27,3.79,18.25,18.25,0,0,0,7.09,1.3,24.86,24.86,0,0,0,7.47-1,33.47,33.47,0,0,0,5.48-2.22,42.43,42.43,0,0,0,3.81-2.23,4.84,4.84,0,0,1,2.41-1,.91.91,0,0,1,.8.37,2.07,2.07,0,0,1,.26,1.16,5.58,5.58,0,0,1,0,.64c0,.25-.08.5-.13.77l-.19.84a8.16,8.16,0,0,1-.26.88,5.75,5.75,0,0,1-.37.79,4.33,4.33,0,0,1-.75.88,15.53,15.53,0,0,1-2.35,1.58,28.69,28.69,0,0,1-4.45,2.1,41.37,41.37,0,0,1-5.91,1.71,32.24,32.24,0,0,1-6.93.71,25.55,25.55,0,0,1-9.37-1.63,18.94,18.94,0,0,1-7.12-4.82,21.84,21.84,0,0,1-4.55-7.84,32.28,32.28,0,0,1-1.62-10.64,52.82,52.82,0,0,1,1.06-10.4,53.51,53.51,0,0,1,3.15-10.32,49.55,49.55,0,0,1,5.16-9.4,38.38,38.38,0,0,1,7.1-7.71,32.08,32.08,0,0,1,9-5.21,30.15,30.15,0,0,1,10.86-1.91,27.56,27.56,0,0,1,7.31.93,24.87,24.87,0,0,1,5.74,2.27,20.12,20.12,0,0,1,3.47,2.38A3.05,3.05,0,0,1,610.89,289.71Z"/><path d="M648.53,350a1.46,1.46,0,0,1-.84,1.06,6.15,6.15,0,0,1-2.33.31,7.75,7.75,0,0,1-1.3-.08,3,3,0,0,1-.82-.23.83.83,0,0,1-.42-.43,1,1,0,0,1,0-.63l1.95-9.85a13.63,13.63,0,0,1-2.48,3.82,24.62,24.62,0,0,1-4.32,3.84,25.31,25.31,0,0,1-5.58,2.95,17,17,0,0,1-6.25,1.2,14.73,14.73,0,0,1-7-1.49,11.6,11.6,0,0,1-4.34-3.88,14.75,14.75,0,0,1-2.17-5.4,31.31,31.31,0,0,1-.59-6,46.5,46.5,0,0,1,.53-6.44,48.61,48.61,0,0,1,1.75-7.57,50,50,0,0,1,3.12-7.65,29.59,29.59,0,0,1,4.69-6.75,22,22,0,0,1,6.46-4.81,18.58,18.58,0,0,1,8.39-1.83,16.23,16.23,0,0,1,8.26,1.93,22.36,22.36,0,0,1,6,5.22l1.12-5.19a1.41,1.41,0,0,1,.92-1.06,6.39,6.39,0,0,1,2.31-.32,9.5,9.5,0,0,1,1.32.08,2,2,0,0,1,.82.27.76.76,0,0,1,.37.45,1.24,1.24,0,0,1,0,.58Zm1.06-36.32a22,22,0,0,0-6.06-6.11,13,13,0,0,0-7.17-2,11.1,11.1,0,0,0-5.75,1.51,16.33,16.33,0,0,0-4.53,4,26.38,26.38,0,0,0-3.35,5.59,43.87,43.87,0,0,0-2.31,6.38,48,48,0,0,0-1.32,6.38,41.91,41.91,0,0,0-.42,5.51A27.08,27.08,0,0,0,619,339a11.58,11.58,0,0,0,1.25,3.76,7.77,7.77,0,0,0,2.57,2.78,7.65,7.65,0,0,0,4.28,1.08,13.53,13.53,0,0,0,6.41-1.72,22,22,0,0,0,6-4.82,33.49,33.49,0,0,0,4.92-7.36,37.44,37.44,0,0,0,3.2-9.4Z"/><path d="M710.53,312.68a30.79,30.79,0,0,1-.21,3.63c-.14,1.18-.34,2.39-.58,3.63l-6,30.07a2.25,2.25,0,0,1-.29.58,1.22,1.22,0,0,1-.59.42,4.74,4.74,0,0,1-1,.27,9.62,9.62,0,0,1-1.56.1,8.78,8.78,0,0,1-1.49-.1,3.34,3.34,0,0,1-.9-.27.78.78,0,0,1-.42-.42,1,1,0,0,1,0-.58l6-30.07a32.79,32.79,0,0,0,.53-3.5c.11-1.09.16-2.05.16-2.86a9.94,9.94,0,0,0-1.59-5.92c-1.06-1.48-2.82-2.23-5.29-2.23a13.43,13.43,0,0,0-6.41,1.75,22.27,22.27,0,0,0-6,4.84,34.26,34.26,0,0,0-5,7.39,36,36,0,0,0-3.17,9.37L672.57,350a2.25,2.25,0,0,1-.29.58,1.19,1.19,0,0,1-.58.42,4.84,4.84,0,0,1-1,.27,9.55,9.55,0,0,1-1.53.1,9.11,9.11,0,0,1-1.54-.1,3.23,3.23,0,0,1-.9-.27.78.78,0,0,1-.42-.42.83.83,0,0,1,0-.58l9.64-47.91a1.24,1.24,0,0,1,.24-.58,1.33,1.33,0,0,1,.55-.45,2.89,2.89,0,0,1,1-.27,10.64,10.64,0,0,1,1.37-.08,9.77,9.77,0,0,1,1.33.08,2,2,0,0,1,.82.27.84.84,0,0,1,.37.45,1.24,1.24,0,0,1,0,.58l-2,9.79a13.8,13.8,0,0,1,2.47-3.82,24,24,0,0,1,4.29-3.83A25.06,25.06,0,0,1,692,301.3a18.06,18.06,0,0,1,6.41-1.16,13.87,13.87,0,0,1,5.77,1.06,10.08,10.08,0,0,1,3.75,2.8,10.48,10.48,0,0,1,2,4A17.67,17.67,0,0,1,710.53,312.68Z"/><path d="M801.49,284.2c0,.18,0,.41,0,.69a5.55,5.55,0,0,1-.13.87c-.08.3-.16.61-.27.93a3.16,3.16,0,0,1-.42.82,2.36,2.36,0,0,1-.67.58,1.63,1.63,0,0,1-.87.24H778.73L766.34,350a1.83,1.83,0,0,1-.32.58,1.33,1.33,0,0,1-.61.42,4.73,4.73,0,0,1-1,.27,10,10,0,0,1-1.59.1,9.2,9.2,0,0,1-1.51-.1,3.79,3.79,0,0,1-.95-.27.78.78,0,0,1-.45-.42.83.83,0,0,1,0-.58l12.33-61.68H751.83a1,1,0,0,1-.93-.45,2.54,2.54,0,0,1-.24-1.19,5.35,5.35,0,0,1,.06-.74,8.6,8.6,0,0,1,.16-.9,4.31,4.31,0,0,1,.29-.9,4.2,4.2,0,0,1,.45-.8,2.1,2.1,0,0,1,.61-.58,1.43,1.43,0,0,1,.76-.21h47.34a1,1,0,0,1,.9.45A2.31,2.31,0,0,1,801.49,284.2Z"/><path d="M827.12,302.57c0,.11,0,.3,0,.59s-.08.6-.14.95a10.48,10.48,0,0,1-.23,1.11,6,6,0,0,1-.4,1.06,4.82,4.82,0,0,1-.5.8.81.81,0,0,1-.64.31,2.28,2.28,0,0,1-.87-.21l-1.17-.47a10.78,10.78,0,0,0-1.51-.48,7.1,7.1,0,0,0-6.33,1.48,24.08,24.08,0,0,0-5,4.71,37.55,37.55,0,0,0-7.71,16.36L798.37,350a2.25,2.25,0,0,1-.29.58,1.23,1.23,0,0,1-.58.42,4.84,4.84,0,0,1-1,.27,9.55,9.55,0,0,1-1.53.1,9.11,9.11,0,0,1-1.54-.1,3,3,0,0,1-.89-.27.77.77,0,0,1-.43-.42.83.83,0,0,1,0-.58l9.53-47.91a1.18,1.18,0,0,1,.26-.58,1.62,1.62,0,0,1,.61-.45,3.17,3.17,0,0,1,1-.27,10.93,10.93,0,0,1,1.38-.08,9.5,9.5,0,0,1,1.32.08,1.92,1.92,0,0,1,.82.27.82.82,0,0,1,.38.45,1.24,1.24,0,0,1,0,.58l-1.85,9.31a24.38,24.38,0,0,1,2.86-4.2,24,24,0,0,1,3.68-3.6,19,19,0,0,1,4.18-2.52,11,11,0,0,1,4.37-.95,14.12,14.12,0,0,1,1.93.13c.65.09,1.26.2,1.83.32a8.12,8.12,0,0,1,1.48.45,3,3,0,0,1,.95.58A1.21,1.21,0,0,1,827.12,302.57Z"/><path d="M866,350a1.24,1.24,0,0,1-.24.58,1.19,1.19,0,0,1-.55.42,4.32,4.32,0,0,1-1,.27,7.76,7.76,0,0,1-1.37.1,7.14,7.14,0,0,1-1.33-.1,2.91,2.91,0,0,1-.82-.27.8.8,0,0,1-.39-.42.73.73,0,0,1,0-.58l1.85-9.63a13.42,13.42,0,0,1-2.49,3.78,24.6,24.6,0,0,1-9.79,6.67A17.14,17.14,0,0,1,843.8,352a16.18,16.18,0,0,1-6-1A9.7,9.7,0,0,1,834,348.4a10,10,0,0,1-2.09-4,18.74,18.74,0,0,1-.64-5.06,30.38,30.38,0,0,1,.21-3.5c.14-1.19.34-2.41.59-3.65l6-30.12a1.18,1.18,0,0,1,.26-.58,1.54,1.54,0,0,1,.61-.45,3.2,3.2,0,0,1,1-.27,13.41,13.41,0,0,1,1.54-.08,11.83,11.83,0,0,1,1.48.08,2.29,2.29,0,0,1,.9.27.91.91,0,0,1,.42.45,1.11,1.11,0,0,1,.06.58l-6,30.12c-.21,1-.38,2.08-.5,3.15a29.89,29.89,0,0,0-.19,3.31,14,14,0,0,0,.35,3.21,6.88,6.88,0,0,0,1.16,2.54,5.47,5.47,0,0,0,2.12,1.67,8,8,0,0,0,3.21.58,13.61,13.61,0,0,0,6.4-1.72,22.14,22.14,0,0,0,6-4.8,32.8,32.8,0,0,0,4.92-7.33,38.11,38.11,0,0,0,3.21-9.34l4.29-21.39a1.18,1.18,0,0,1,.26-.58,1.62,1.62,0,0,1,.61-.45,3.27,3.27,0,0,1,1-.27,13.41,13.41,0,0,1,1.54-.08,12.43,12.43,0,0,1,1.54.08,2.4,2.4,0,0,1,.9.27.76.76,0,0,1,.39.45,1.24,1.24,0,0,1,0,.58Z"/><path d="M918.29,305a5.76,5.76,0,0,1-.13,1.14,6.25,6.25,0,0,1-.4,1.27,4.58,4.58,0,0,1-.6,1,1,1,0,0,1-.72.42,2.84,2.84,0,0,1-1.46-.53c-.54-.35-1.23-.74-2.06-1.18a16.5,16.5,0,0,0-3-1.2,15.1,15.1,0,0,0-4.26-.53,12.91,12.91,0,0,0-4.61.77,9.89,9.89,0,0,0-3.36,2.06,8.68,8.68,0,0,0-2,3,8.84,8.84,0,0,0-.69,3.41,5.54,5.54,0,0,0,1.43,3.89,14.06,14.06,0,0,0,3.6,2.76q2.17,1.18,4.69,2.3a27.07,27.07,0,0,1,4.68,2.65,14,14,0,0,1,3.61,3.68,9.62,9.62,0,0,1,1.42,5.43A15.59,15.59,0,0,1,913,342a15.16,15.16,0,0,1-4,5.27,18.92,18.92,0,0,1-6.31,3.46,27,27,0,0,1-12.75.85,30,30,0,0,1-3.9-1,15.1,15.1,0,0,1-3-1.32,9.21,9.21,0,0,1-2-1.43,2.62,2.62,0,0,1-.61-.84,2.43,2.43,0,0,1-.19-1,7.28,7.28,0,0,1,.06-.9,5.14,5.14,0,0,1,.18-.95c.09-.32.19-.62.29-.9a4.59,4.59,0,0,1,.37-.77,1.87,1.87,0,0,1,.45-.53.85.85,0,0,1,.51-.19,2.65,2.65,0,0,1,1.53.74,18.91,18.91,0,0,0,2.36,1.62,19.26,19.26,0,0,0,3.68,1.62,20.4,20.4,0,0,0,11.17-.08,11.56,11.56,0,0,0,3.94-2.2,8.67,8.67,0,0,0,2.31-3.18,10,10,0,0,0,.74-3.81,5.59,5.59,0,0,0-1.43-4,14.57,14.57,0,0,0-3.6-2.76c-1.45-.81-3-1.58-4.68-2.33a27.72,27.72,0,0,1-4.69-2.62,13.44,13.44,0,0,1-3.6-3.65,9.64,9.64,0,0,1-1.43-5.48,14.71,14.71,0,0,1,1.32-6.25,14.55,14.55,0,0,1,3.71-4.92,17,17,0,0,1,5.69-3.2,22,22,0,0,1,7.23-1.14,23.34,23.34,0,0,1,3.65.29,22.69,22.69,0,0,1,3.31.77,16.83,16.83,0,0,1,2.67,1.08,7.6,7.6,0,0,1,1.75,1.19A2,2,0,0,1,918.29,305Z"/><path d="M956.79,302.68a6.07,6.07,0,0,1-.06.85,4.62,4.62,0,0,1-.18.82,4.81,4.81,0,0,1-.35.77,3.51,3.51,0,0,1-.45.63,1.91,1.91,0,0,1-.55.43,1.65,1.65,0,0,1-.69.15H941.27l-5.82,29c-.14.81-.28,1.74-.4,2.78a23.31,23.31,0,0,0-.18,2.57,6.71,6.71,0,0,0,1.19,4.42c.79.94,2.12,1.41,4,1.41a11.38,11.38,0,0,0,2.61-.27,15.6,15.6,0,0,0,2-.58c.56-.21,1.05-.41,1.45-.58a2.66,2.66,0,0,1,1-.27.84.84,0,0,1,.66.27,1.41,1.41,0,0,1,.24.95,6.32,6.32,0,0,1-.11,1.11c-.07.39-.16.77-.26,1.14a5.45,5.45,0,0,1-.4,1,2.94,2.94,0,0,1-.56.76,3.46,3.46,0,0,1-1.16.69,15.93,15.93,0,0,1-1.83.58,20.25,20.25,0,0,1-2.14.42,14.44,14.44,0,0,1-2.12.16,17.4,17.4,0,0,1-4.92-.61,8.17,8.17,0,0,1-3.44-1.9,7.78,7.78,0,0,1-2-3.25,14.67,14.67,0,0,1-.66-4.66c0-.43,0-.9.05-1.41a15.49,15.49,0,0,1,.18-1.59c.09-.54.18-1.1.27-1.66s.18-1.1.29-1.59L935,306.33h-7.15A1.1,1.1,0,0,1,927,306a1.75,1.75,0,0,1-.29-1.19,9.17,9.17,0,0,1,.11-1.38,4.37,4.37,0,0,1,.37-1.24,2.41,2.41,0,0,1,.69-.9,1.52,1.52,0,0,1,1-.34H936l2.38-11.76a1.29,1.29,0,0,1,.27-.58,1.54,1.54,0,0,1,.61-.45,3.14,3.14,0,0,1,1-.27,13.16,13.16,0,0,1,1.56-.08,11.72,11.72,0,0,1,1.48.08,2.29,2.29,0,0,1,.9.27.75.75,0,0,1,.4.45,1.38,1.38,0,0,1,0,.58L942.33,301h13.24a1,1,0,0,1,1,.58A2.93,2.93,0,0,1,956.79,302.68Z"/><circle class="cls-2" cx="932.96" cy="27.58" r="26.08"/><path d="M945.53,41.28a.74.74,0,0,1-.07.34.62.62,0,0,1-.31.24,2.85,2.85,0,0,1-.68.14,9.21,9.21,0,0,1-1.16,0,7.43,7.43,0,0,1-1,0,2.32,2.32,0,0,1-.64-.15.88.88,0,0,1-.37-.31,2.15,2.15,0,0,1-.23-.48l-2.88-7.38c-.34-.83-.69-1.6-1-2.3a7.19,7.19,0,0,0-1.29-1.81,5.26,5.26,0,0,0-1.77-1.19,6.38,6.38,0,0,0-2.44-.42h-2.78V41.28a.58.58,0,0,1-.11.34.81.81,0,0,1-.34.23,3.82,3.82,0,0,1-.63.14,6.86,6.86,0,0,1-1,.06,7.11,7.11,0,0,1-1-.06,4.55,4.55,0,0,1-.64-.14.67.67,0,0,1-.33-.23.57.57,0,0,1-.1-.34v-29a1.56,1.56,0,0,1,.49-1.32,1.8,1.8,0,0,1,1.06-.37h6.65c.79,0,1.44,0,2,.06s1,.09,1.41.14a11.74,11.74,0,0,1,3.21,1,7.72,7.72,0,0,1,2.33,1.72,7,7,0,0,1,1.41,2.38,8.75,8.75,0,0,1,.47,3,8.8,8.8,0,0,1-.42,2.82,6.74,6.74,0,0,1-1.22,2.2,8.07,8.07,0,0,1-1.91,1.66,11.93,11.93,0,0,1-2.49,1.18,6.19,6.19,0,0,1,1.4.86,7.45,7.45,0,0,1,1.18,1.25,11.37,11.37,0,0,1,1,1.67c.32.63.64,1.33,1,2.12l2.8,6.89c.23.58.37,1,.44,1.22A2.44,2.44,0,0,1,945.53,41.28Zm-6.25-22a5.59,5.59,0,0,0-.83-3.11,4.58,4.58,0,0,0-2.75-1.82,7.45,7.45,0,0,0-1.37-.25c-.51,0-1.17-.07-2-.07h-3.5V24.6h4.06a9.17,9.17,0,0,0,2.84-.4,5.61,5.61,0,0,0,2-1.12,4.26,4.26,0,0,0,1.17-1.68A5.72,5.72,0,0,0,939.28,19.3Z"/></g></g></svg>