<svg xmlns="http://www.w3.org/2000/svg" viewBox="0 0 139.61 142.28"><defs><style>.cls-1{fill:none;stroke:#231f20;stroke-miterlimit:10;}.cls-2{fill:#231f20;}</style></defs><title>Asset 1</title><g id="Layer_2" data-name="Layer 2"><g id="Layer_1-2" data-name="Layer 1"><polygon class="cls-1" points="107 11.3 46.34 3.3 9.08 51.85 32.49 108.38 93.16 116.37 130.41 67.83 107 11.3"/><polygon class="cls-1" points="84.92 0.56 26 17.06 10.82 76.34 54.57 119.12 113.5 102.62 128.67 43.34 84.92 0.56"/><path d="M66.78,43.39a13.6,13.6,0,0,0-9-3.42C50.4,40,45.6,44.16,45.6,52.6c0,5.51,3,12.41,12.13,12.41A12.4,12.4,0,0,0,66,62.31V56.13H56.74V49H73.4V65.78C70.09,70.53,64.79,73,57.68,73,42.79,73,37.16,62.64,37.16,52.6c0-10.86,6.4-20.52,20.57-20.52a18.8,18.8,0,0,1,14.39,6Z"/><path d="M102.33,87.59H72.94V49h28.62v7.89H81.38v7.45h19v7.56h-19v7.78h21Z"/><path class="cls-2" d="M8.92,138.69q-.65-1.09-1.45-2.34T5.8,133.84q-.86-1.27-1.75-2.46t-1.69-2.15v9.47H0V125.46H2q.76.8,1.64,1.9t1.77,2.28q.89,1.19,1.72,2.38t1.48,2.22v-8.78H11v13.23Z"/><path class="cls-2" d="M23,133.69a6.44,6.44,0,0,1-.34,2.16,4.76,4.76,0,0,1-1,1.66,4.39,4.39,0,0,1-1.52,1.07,4.91,4.91,0,0,1-2,.38,4.84,4.84,0,0,1-1.95-.38,4.4,4.4,0,0,1-1.51-1.07,4.91,4.91,0,0,1-1-1.66,6.32,6.32,0,0,1-.35-2.16,6.23,6.23,0,0,1,.35-2.15,4.82,4.82,0,0,1,1-1.65,4.38,4.38,0,0,1,1.52-1.06,4.89,4.89,0,0,1,1.93-.37,5,5,0,0,1,1.94.37,4.28,4.28,0,0,1,1.52,1.06,4.91,4.91,0,0,1,1,1.65A6.18,6.18,0,0,1,23,133.69Zm-2.37,0a3.89,3.89,0,0,0-.64-2.36,2.27,2.27,0,0,0-3.57,0,3.9,3.9,0,0,0-.64,2.36,4,4,0,0,0,.64,2.39,2.25,2.25,0,0,0,3.57,0A4,4,0,0,0,20.68,133.69Z"/><path class="cls-2" d="M25.43,138.69V124.26l2.31-.38v4.95a6.16,6.16,0,0,1,.89-.23,5.41,5.41,0,0,1,1-.1,5.18,5.18,0,0,1,2,.33,3.15,3.15,0,0,1,1.27.94,3.66,3.66,0,0,1,.68,1.44,8.06,8.06,0,0,1,.2,1.87v5.61H31.46v-5.25a7.66,7.66,0,0,0-.1-1.37,2.42,2.42,0,0,0-.34-.92,1.38,1.38,0,0,0-.64-.52,2.65,2.65,0,0,0-1-.16,4.78,4.78,0,0,0-.94.09,6.58,6.58,0,0,0-.71.17v7.94Z"/><path class="cls-2" d="M39.87,128.46a5.67,5.67,0,0,1,1.93.29,3.08,3.08,0,0,1,1.25.8,3,3,0,0,1,.67,1.25,6.12,6.12,0,0,1,.2,1.61v6.05q-.53.12-1.61.28a16.59,16.59,0,0,1-2.43.16,7.32,7.32,0,0,1-1.64-.17,3.43,3.43,0,0,1-1.27-.55,2.59,2.59,0,0,1-.82-1,3.44,3.44,0,0,1-.29-1.51,2.91,2.91,0,0,1,.33-1.45,2.76,2.76,0,0,1,.91-1,3.94,3.94,0,0,1,1.33-.53,7.44,7.44,0,0,1,1.57-.16,7,7,0,0,1,.8,0,7.42,7.42,0,0,1,.9.16v-.38a3,3,0,0,0-.1-.76,1.53,1.53,0,0,0-1-1.07,2.74,2.74,0,0,0-1-.15,8.74,8.74,0,0,0-1.47.12,6.47,6.47,0,0,0-1.09.27l-.29-1.87a9.14,9.14,0,0,1,1.28-.3A10,10,0,0,1,39.87,128.46Zm.19,8.61a8.62,8.62,0,0,0,1.62-.11V134.4a4.49,4.49,0,0,0-.55-.11,5.07,5.07,0,0,0-.8-.06,5.23,5.23,0,0,0-.77.06,2.38,2.38,0,0,0-.71.21,1.28,1.28,0,0,0-.51.43,1.2,1.2,0,0,0-.19.7,1.22,1.22,0,0,0,.52,1.14A2.65,2.65,0,0,0,40.06,137.07Z"/><path class="cls-2" d="M54.2,125.46q.42.73.94,1.78t1.05,2.21q.53,1.16,1.06,2.35l1,2.21,1-2.21q.52-1.19,1.05-2.35t1-2.21q.52-1.05.94-1.78h2.17q.18,1.45.33,3.08t.28,3.34q.13,1.71.23,3.44t.19,3.37H63q-.08-2.31-.18-4.75t-.32-4.74l-.5,1-.61,1.33-.66,1.48-.65,1.48-.58,1.34-.46,1.06H57.27l-.46-1.07-.58-1.35L55.58,133q-.33-.76-.66-1.47l-.61-1.33q-.29-.62-.5-1-.22,2.29-.32,4.74t-.18,4.75H50.94q.08-1.64.18-3.4t.23-3.48q.13-1.73.28-3.35t.33-3Z"/><path class="cls-2" d="M71.39,128.46a5.66,5.66,0,0,1,1.93.29,3.09,3.09,0,0,1,1.25.8,3,3,0,0,1,.67,1.25,6.12,6.12,0,0,1,.2,1.61v6.05q-.54.12-1.61.28a16.58,16.58,0,0,1-2.43.16,7.33,7.33,0,0,1-1.64-.17,3.43,3.43,0,0,1-1.27-.55,2.6,2.6,0,0,1-.82-1,3.44,3.44,0,0,1-.3-1.51,2.91,2.91,0,0,1,.33-1.45,2.75,2.75,0,0,1,.91-1,3.93,3.93,0,0,1,1.33-.53,7.46,7.46,0,0,1,1.58-.16,7,7,0,0,1,.8,0,7.4,7.4,0,0,1,.9.16v-.38a3,3,0,0,0-.1-.76,1.53,1.53,0,0,0-1-1.07,2.73,2.73,0,0,0-1-.15,8.74,8.74,0,0,0-1.47.12,6.46,6.46,0,0,0-1.09.27l-.29-1.87a9.14,9.14,0,0,1,1.28-.3A10,10,0,0,1,71.39,128.46Zm.19,8.61A8.62,8.62,0,0,0,73.2,137V134.4a4.52,4.52,0,0,0-.55-.11,5.06,5.06,0,0,0-.8-.06,5.21,5.21,0,0,0-.77.06,2.39,2.39,0,0,0-.71.21,1.29,1.29,0,0,0-.51.43,1.21,1.21,0,0,0-.19.7,1.22,1.22,0,0,0,.52,1.14A2.65,2.65,0,0,0,71.58,137.07Z"/><path class="cls-2" d="M84,130.79a7.54,7.54,0,0,0-.79-.2,5.89,5.89,0,0,0-1.17-.1,4.65,4.65,0,0,0-.81.08,4.91,4.91,0,0,0-.6.13v8H78.26v-9.51a12.84,12.84,0,0,1,1.67-.47,10.42,10.42,0,0,1,2.22-.22l.54,0,.61.08.59.11.46.12Z"/><path class="cls-2" d="M88.27,132.6l.94-1,1-1,.91-1,.74-.85h2.73q-1,1.07-2,2.21t-2.12,2.23a13.19,13.19,0,0,1,1.2,1.16q.63.68,1.22,1.44t1.11,1.53a15.75,15.75,0,0,1,.86,1.41H92.13q-.34-.59-.79-1.24t-1-1.26q-.52-.61-1-1.16a8.87,8.87,0,0,0-1.05-.93v4.58H86V124.26l2.31-.38Z"/><path class="cls-2" d="M95.49,133.75a6.28,6.28,0,0,1,.39-2.31,4.86,4.86,0,0,1,1-1.65,4.31,4.31,0,0,1,1.49-1,4.61,4.61,0,0,1,1.72-.33,4.12,4.12,0,0,1,3.22,1.28,5.54,5.54,0,0,1,1.16,3.82c0,.13,0,.27,0,.43s0,.3,0,.43H97.87a2.63,2.63,0,0,0,.85,1.86,3.23,3.23,0,0,0,2.19.66,7.21,7.21,0,0,0,1.54-.15,6.21,6.21,0,0,0,1.1-.33l.31,1.89a3.66,3.66,0,0,1-.52.2,7.45,7.45,0,0,1-.76.19c-.29.06-.59.1-.93.14a8.84,8.84,0,0,1-1,.06,6.12,6.12,0,0,1-2.29-.39,4.27,4.27,0,0,1-1.6-1.09,4.47,4.47,0,0,1-.94-1.64A6.72,6.72,0,0,1,95.49,133.75Zm6.7-1a3,3,0,0,0-.13-.91,2.18,2.18,0,0,0-.39-.75,1.85,1.85,0,0,0-.63-.5,2,2,0,0,0-.89-.18,2.07,2.07,0,0,0-.94.2,2.13,2.13,0,0,0-.68.53,2.41,2.41,0,0,0-.43.74,4.06,4.06,0,0,0-.21.86Z"/><path class="cls-2" d="M106.83,126.07l2.31-.38v3h3.55v1.93h-3.55v4.07a3,3,0,0,0,.38,1.72,1.51,1.51,0,0,0,1.3.52,4.19,4.19,0,0,0,1.12-.13,7.46,7.46,0,0,0,.77-.25l.38,1.83a8.76,8.76,0,0,1-1,.35,5.71,5.71,0,0,1-1.53.18,4.82,4.82,0,0,1-1.79-.29,2.63,2.63,0,0,1-1.14-.83,3.29,3.29,0,0,1-.59-1.32,8.21,8.21,0,0,1-.17-1.77Z"/><path class="cls-2" d="M117.5,125.79a1.33,1.33,0,0,1-.42,1,1.43,1.43,0,0,1-1,.38,1.45,1.45,0,0,1-1-.38,1.32,1.32,0,0,1-.42-1,1.35,1.35,0,0,1,.42-1,1.45,1.45,0,0,1,1-.38,1.43,1.43,0,0,1,1,.38A1.35,1.35,0,0,1,117.5,125.79Zm-.25,12.91h-2.31v-10h2.31Z"/><path class="cls-2" d="M120.19,129a15.75,15.75,0,0,1,1.74-.36,15,15,0,0,1,2.37-.17,5.47,5.47,0,0,1,2,.33,3.2,3.2,0,0,1,1.31.94,3.57,3.57,0,0,1,.69,1.45,8.11,8.11,0,0,1,.2,1.86v5.61h-2.31v-5.25a7.56,7.56,0,0,0-.11-1.37,2.41,2.41,0,0,0-.34-.92,1.37,1.37,0,0,0-.65-.52,2.74,2.74,0,0,0-1-.16,7.69,7.69,0,0,0-.92.06l-.71.1v8.06h-2.31Z"/><path class="cls-2" d="M139.61,137.68a4.52,4.52,0,0,1-1.21,3.49,5.36,5.36,0,0,1-3.71,1.11,10.23,10.23,0,0,1-1.79-.15,10,10,0,0,1-1.58-.4l.42-2a7.14,7.14,0,0,0,1.35.4,8.17,8.17,0,0,0,1.63.15,2.8,2.8,0,0,0,2-.57,2.26,2.26,0,0,0,.59-1.7v-.38a5.85,5.85,0,0,1-.91.34,4.42,4.42,0,0,1-1.29.17,4.81,4.81,0,0,1-1.75-.31A3.65,3.65,0,0,1,132,137a4.11,4.11,0,0,1-.88-1.48,6.13,6.13,0,0,1-.32-2.05,5.79,5.79,0,0,1,.33-2,4.29,4.29,0,0,1,1-1.57,4.46,4.46,0,0,1,1.56-1,5.61,5.61,0,0,1,2.08-.36,12.8,12.8,0,0,1,2.14.17q1,.17,1.72.36Zm-6.43-4.24a3.05,3.05,0,0,0,.64,2.15,2.17,2.17,0,0,0,1.65.68,3.44,3.44,0,0,0,1-.15,3,3,0,0,0,.79-.36v-5.17l-.61-.1a7.33,7.33,0,0,0-.92,0,2.33,2.33,0,0,0-1.93.83A3.38,3.38,0,0,0,133.18,133.44Z"/></g></g></svg>