<svg xmlns="http://www.w3.org/2000/svg" viewBox="0 0 151.56 126.13"><defs><style>.cls-1{fill:#ec1c24;}.cls-2{fill:#3c2416;}.cls-3{fill:#d12136;}.cls-4{fill:#f5f0c6;}.cls-5{fill:#fff;}</style></defs><title>Asset 1</title><g id="Layer_2" data-name="Layer 2"><g id="Layer_1-2" data-name="Layer 1"><polygon class="cls-1" points="40.16 124.91 1.97 124.91 10.29 108.01 1.97 91.12 40.16 91.12 40.16 124.91"/><path class="cls-2" d="M41.39,126.13H0L8.93,108,0,89.9H41.39ZM3.94,123.68h35V92.34h-35L11.66,108Z"/><polygon class="cls-2" points="40.16 124.91 16.17 117.56 35.27 116.58 40.16 124.91"/><polygon class="cls-2" points="8.82 93.81 17.64 92.93 17.64 94.7 8.82 93.81"/><polygon class="cls-2" points="8.76 96 17.57 95.11 17.57 96.89 8.76 96"/><polygon class="cls-2" points="9.5 115.68 18.31 114.8 18.31 116.57 9.5 115.68"/><polygon class="cls-2" points="10.41 117.84 23.15 117.01 23.14 118.79 10.41 117.84"/><polygon class="cls-2" points="14.7 120.03 29.09 119.2 29.08 120.97 14.7 120.03"/><polygon class="cls-2" points="18.19 122.21 35.33 121.39 35.32 123.16 18.19 122.21"/><polygon class="cls-2" points="9.01 98.19 17.82 97.3 17.82 99.07 9.01 98.19"/><polygon class="cls-2" points="9.56 113.5 18.37 112.61 18.37 114.38 9.56 113.5"/><polygon class="cls-2" points="9.44 100.37 18.25 99.49 18.25 101.26 9.44 100.37"/><polygon class="cls-2" points="11.33 102.56 17.82 101.67 17.82 103.45 11.33 102.56"/><polygon class="cls-2" points="11.82 111.31 18.31 110.42 18.31 112.19 11.82 111.31"/><polygon class="cls-2" points="11.76 104.75 18.25 103.86 18.25 105.64 11.76 104.75"/><polygon class="cls-2" points="11.95 109.12 18.43 108.23 18.43 110.01 11.95 109.12"/><polygon class="cls-2" points="13.23 106.94 18.62 106.05 18.62 107.82 13.23 106.94"/><polygon class="cls-1" points="111.4 124.91 149.59 124.91 141.27 108.01 149.59 91.12 111.4 91.12 111.4 124.91"/><path class="cls-2" d="M110.17,89.9h41.39L142.63,108l8.93,18.12H110.17ZM139.9,108l7.72-15.67h-35v31.34h35Z"/><polygon class="cls-2" points="111.4 124.91 135.39 117.56 116.29 116.58 111.4 124.91"/><polygon class="cls-2" points="142.73 93.81 133.92 94.7 133.92 92.93 142.73 93.81"/><polygon class="cls-2" points="142.8 96 133.98 96.89 133.98 95.11 142.8 96"/><polygon class="cls-2" points="142.06 115.68 133.25 116.57 133.25 114.8 142.06 115.68"/><polygon class="cls-2" points="141.14 117.84 128.42 118.79 128.41 117.01 141.14 117.84"/><polygon class="cls-2" points="136.86 120.03 122.48 120.97 122.47 119.2 136.86 120.03"/><polygon class="cls-2" points="133.37 122.21 116.24 123.16 116.23 121.39 133.37 122.21"/><polygon class="cls-2" points="142.55 98.19 133.74 99.07 133.74 97.3 142.55 98.19"/><polygon class="cls-2" points="142 113.5 133.19 114.38 133.19 112.61 142 113.5"/><polygon class="cls-2" points="142.12 100.37 133.31 101.26 133.31 99.49 142.12 100.37"/><polygon class="cls-2" points="140.23 102.56 133.74 103.45 133.74 101.67 140.23 102.56"/><polygon class="cls-2" points="139.74 111.31 133.25 112.19 133.25 110.42 139.74 111.31"/><polygon class="cls-2" points="139.8 104.75 133.31 105.64 133.31 103.86 139.8 104.75"/><polygon class="cls-2" points="139.61 109.12 133.13 110.01 133.13 108.23 139.61 109.12"/><polygon class="cls-2" points="138.33 106.94 132.94 107.82 132.94 106.05 138.33 106.94"/><path class="cls-3" d="M134.63,59A57.92,57.92,0,1,1,76.71,1.06,57.92,57.92,0,0,1,134.63,59Z"/><path class="cls-2" d="M76.71,118a59,59,0,1,1,59-59A59,59,0,0,1,76.71,118Zm0-115.84A56.87,56.87,0,1,0,133.57,59,56.92,56.92,0,0,0,76.71,2.11Z"/><circle class="cls-2" cx="76.71" cy="58.97" r="53.95" transform="translate(-19.23 71.51) rotate(-45)"/><path class="cls-4" d="M128.29,59A51.58,51.58,0,1,1,76.71,7.39,51.58,51.58,0,0,1,128.29,59Z"/><path class="cls-1" d="M56.64,72.46l-2-.1c-5.1-.18-11-.55-16,.76-.38.1-.42.74,0,.81,4.66.82,9.81.37,14.54.44,3.5,0,7,.21,10.51.49A40.25,40.25,0,0,1,56.64,72.46Z"/><path class="cls-1" d="M110,73.87c-5.34-.41-10.66,0-16,.12-1.71,0-3.4,0-5.08-.09a18.31,18.31,0,0,1-5.54,1.26l-1.62,0a123.92,123.92,0,0,0,28.29-1C110.27,74.16,110.21,73.89,110,73.87Z"/><path class="cls-1" d="M120.16,67.55a127.18,127.18,0,0,0-14.08.06,7.45,7.45,0,0,1-2.45,1.63h0a150,150,0,0,0,16.62-1.39C120.39,67.84,120.33,67.56,120.16,67.55Z"/><path class="cls-1" d="M116.49,62.36c-2.42-.19-4.84-.2-7.26-.15a2.79,2.79,0,0,1-.31,1.14l-.11.2c2.6-.24,5.18-.53,7.72-.88C116.72,62.65,116.66,62.37,116.49,62.36Z"/><path class="cls-1" d="M51,69.18a107.71,107.71,0,0,0-15.61.75.32.32,0,0,0,0,.62c5.73.85,11.82.25,17.64,0C52.36,70.13,51.68,69.67,51,69.18Z"/><path class="cls-1" d="M120.09,71.56c-2.48-1-5.55-.91-8.21-1.06-3.24-.18-6.48-.38-9.71-.57-.55.26-1.12.51-1.72.73a16,16,0,0,1-2,.57c7.19.44,14.38.83,21.58.73C120.28,72,120.29,71.64,120.09,71.56Z"/><path class="cls-1" d="M122.06,64.93c-4.5-.34-9-.56-13.58-.69a11.43,11.43,0,0,1-1.22,1.83c4.95-.09,9.88-.27,14.8-.65A.25.25,0,0,0,122.06,64.93Z"/><path class="cls-1" d="M46.83,65.12c-5.16-.3-10.51-.7-15.28.75A.6.6,0,0,0,31.71,67c5.7.33,11.44.4,17.18.34A22,22,0,0,1,46.83,65.12Z"/><path class="cls-1" d="M44.71,61.73l-10.47.45a.47.47,0,0,0,0,.93c3.79.31,7.6.39,11.43.34A18,18,0,0,1,44.71,61.73Z"/><path class="cls-1" d="M118,60.61a69.73,69.73,0,0,0-8.31-.33,10.52,10.52,0,0,1-.22,1.27c2.88,0,5.73-.14,8.53-.41A.27.27,0,0,0,118,60.61Z"/><path class="cls-1" d="M116.93,44.51c-1-2.62-4.36-4.11-6.45-4.79a11.81,11.81,0,0,0,.38-4.94,17.72,17.72,0,0,0-6.7-11,48.11,48.11,0,0,0-16.77-6.63,53,53,0,0,0-7.17-.88A54.36,54.36,0,0,0,74.55,16a70.33,70.33,0,0,0-7.65.43h-.1l-.08,0h-.08a1,1,0,0,0-.41.1l-1.85.24a34.69,34.69,0,0,0-11.92,3.88c-3.33,1.75-8,4.63-10.28,9.45-1.53,3.24-3.15,9.65.47,13.13a5.6,5.6,0,0,0,.57.49,12.74,12.74,0,0,1-1.4,1.17l-.51.35A6.66,6.66,0,0,0,39,47.41a1.43,1.43,0,0,0,0,1.36,6,6,0,0,0-.63.77,2,2,0,0,0-.26,2.08,1.9,1.9,0,0,0,.7.71,2.26,2.26,0,0,0-.31,1,1.46,1.46,0,0,0,.08.69,2.85,2.85,0,0,0-1.16.65,2.17,2.17,0,0,0-.11,3.1,2.72,2.72,0,0,0,1.91.5h.51a3.19,3.19,0,0,0,.78,1.91,2,2,0,0,0,1.43.58H42a10.64,10.64,0,0,0,0,1.78,1.37,1.37,0,0,0-.06.75,4.45,4.45,0,0,0,.34,1,4.19,4.19,0,0,0,2,2.9A36.06,36.06,0,0,0,62.43,75.9a67.4,67.4,0,0,0,11.7,1,96.07,96.07,0,0,0,10.52-.61,39.09,39.09,0,0,0,6.75-1.56c1.16-.34,2.35-.69,3.54-1a57.29,57.29,0,0,0,9.1-3.16c2.09-.88,4.61-2.2,5.48-4.57a14.73,14.73,0,0,0,.81-5.82,1.68,1.68,0,0,0,.56-.26A2.76,2.76,0,0,0,112,58.17a1.88,1.88,0,0,0-.3-1.34l.09-.12a2.93,2.93,0,0,0,.65-1.24c.15-.76,0-1.82-1.62-2.6a.68.68,0,0,1-.24-.16,2.11,2.11,0,0,1,0-.41,2.68,2.68,0,0,0-.19-1.57,2,2,0,0,0-.65-.78c0-.18,0-.36,0-.55a8.94,8.94,0,0,0-.55-2.29h0l.2-.09a4.66,4.66,0,0,1,1.13-.16h.14c.48,0,1,0,1.48,0a11.17,11.17,0,0,0,3.91-.48A1.44,1.44,0,0,0,116.93,44.51Zm-7.09,11.43c-.7.37-.42,1.05-.07,1.51.57.74-.1.67-.78.48a.49.49,0,0,0-.56-.19l-.43-.16a2.73,2.73,0,0,0-1.43-.27c-.24,0-.51.2-.48.49.14,1.61-1.16.94-2.23,1a.42.42,0,0,0-.4.53,8.63,8.63,0,0,1,.4,1.34,6.13,6.13,0,0,0-1.27,0c-.4.06-.46.6-.22.85-.54.41-1,.47-1.3.19l.26-.36c.23-.35-.32-.77-.58-.45a1.15,1.15,0,0,1-.14.17.29.29,0,0,0-.43.38s0,0,0,0c-1.48,1.21-2.07-1.26-3.49-1.26-.89,0-1.45.91-1.56,1.66-.3,2.07-2.73-.25-3.61-.18-1,.09-2,3.24-3,2.71s-2-1.23-3.19-.88a1.74,1.74,0,0,0-.36.13c-.28-.23-.57-.43-.75-.57a18.48,18.48,0,0,1-1.78-1.39A17.34,17.34,0,0,0,80.59,60a.15.15,0,0,0-.21.21,12.9,12.9,0,0,0,2.68,3c.49.36,1,.72,1.44,1.13a.83.83,0,0,0,0,.27,4.62,4.62,0,0,0,1.34,1.82,1.13,1.13,0,0,1-1.5.56,1.1,1.1,0,0,1-1-.79.47.47,0,0,0,.06-.33c-.28-1.9-2.77-2.91-4-4.14,0,0-.08,0-.06,0,.79,1.07,2.08,2,2.8,3.18l0,.07a1.4,1.4,0,0,0-1.07,1.35c-.12,1.18-1.25.6-1.83.22a1.51,1.51,0,0,0-1.23.09A3,3,0,0,0,77,67.8c-.88,1.41-1.72-.52-2.42-.65-.54-.1-2.91.24-2.78-.74a4.47,4.47,0,0,0,.09-1.89.4.4,0,0,0-.22-.27l.43-.42a25.56,25.56,0,0,1,3-2.74.09.09,0,0,0-.09-.16,12.38,12.38,0,0,0-2.94,1.86,23,23,0,0,0-2.26,1.95,2.91,2.91,0,0,0-1.47,1.57c-.3.74-.4,2-1.49,1.21a2.11,2.11,0,0,0-1.6-.65C64,67,64,65.08,62.37,65.63c-.27.1-1.35.56-1.85.35a.49.49,0,0,0-.11-.37c-.25-.28-.16-.62.11-1a.76.76,0,0,0,.08-.11c.92-1.1,3.43-2.37,3.94-2.75a.14.14,0,0,0-.11-.26,10.78,10.78,0,0,0-4.14,2.17.58.58,0,0,0-.45,0l-.06-.1c-.09-.13-.22-.38-.39-.45a4.4,4.4,0,0,0-1.63-.53c-.87-.07-2.4.84-2.65-.54A1.28,1.28,0,0,0,54,61.19c-1.08.12-1.46.44-1.29-.92a2.11,2.11,0,0,0-.6-1.46c-.64-.81-2,.28-2.84.79,0,0,0-.06,0-.1a.55.55,0,0,0-.68-.38c-1,.25-2.34.94-3-.34-.19-.37-.68-.91-1.14-.88a3.42,3.42,0,0,0-1.54.47c-1.17.64-1-1.27-1.45-1.67a1.59,1.59,0,0,0-1.1-.52,7.58,7.58,0,0,0-.82.08c-1.27.18-.25-.44.18-.58.87-.28,2.17-.67,2.2-1.8a.49.49,0,0,0-.25-.43c-.28-.14-1.61-.1-.7-.79a2.42,2.42,0,0,0,.92-1.16c.14-.35-.26-.61-.56-.56-2.54.5-.84-2,.55-2,0,0,.06,0,.07,0q1.26.19,2.58.27c-.86,1.14-.45,3.35.09,4.41a6.27,6.27,0,0,0,6.72,3.2c.67-.16,1.48,3,2.76,1.37a2.2,2.2,0,0,0,.5-.94c.3-1,.87-.59,1.69-.56a1.13,1.13,0,0,0,.66-.31c1.21-1,.76.33.72,1a.48.48,0,0,0,.47.47c1.5.2.5,1.64.49,2.52a.51.51,0,0,0,.51.52c1.18,0,2-1.07,3-.48.59.34,1.34,0,1.9-.46.34.75.92,1.13,1.8.34.25-.22,1.65-1.74,1.84-.21a3.13,3.13,0,0,0,.18.9,1.36,1.36,0,0,0,1.4.87.42.42,0,0,0,.45-.42,2.91,2.91,0,0,0,.46-.24c.79-.47,1.69-.24,2.55-.37a1.58,1.58,0,0,0,1.08-.93,9.36,9.36,0,0,1,.41-1.07,13.74,13.74,0,0,0,2.44,1,.62.62,0,0,0,.18,0,.56.56,0,0,0,.55,0,28.87,28.87,0,0,0,2.92-2l.36-.22c.84.41,1.2,2.22,2.3,2.38a.49.49,0,0,0,.59-.33c.52-1.56,1.81.48,2.7.73,1.15.34,1.74-1.53,3,0a.78.78,0,0,0,1.16.14,4,4,0,0,0,.76-.89c.89-1.15.84-1,2-.27a.44.44,0,0,0,.64-.26c.09-.27.48-2.93,1.56-1.38a3.59,3.59,0,0,0,1,1,1.62,1.62,0,0,0,2-.3c.87-.75.91-1.71,2.42-1.9.71-.08,1.43.33,2.11.33a1.52,1.52,0,0,0,1.08-.45,4.87,4.87,0,0,1,1.93-1.21.51.51,0,0,0,.37-.49c.1-.94.81-.73,1.24-1.25a3,3,0,0,0,.67-1s0-.29.08-.56a.89.89,0,0,0,.22-.16c.33.36,0,1.11.16,1.87S111.51,55.06,109.84,55.94Zm-8,9.43a13.19,13.19,0,0,0,2.94-.06c-1.33.46-2.66.94-3.94,1.52-.07,0,0,.14,0,.14A22.42,22.42,0,0,0,107,65.73l0,0A28.47,28.47,0,0,1,101.44,68c-1.69.48-3.63.53-5.22,1.26,0,0,0,.07,0,.07,1.74.3,3.71-.32,5.39-.71a30.41,30.41,0,0,0,3.35-1,39.63,39.63,0,0,1-4.82,2.13c-2.8,1.24-5.7,1.78-8.59,2.74a39.91,39.91,0,0,1-10,2,81.74,81.74,0,0,1-19.4-.63,33.31,33.31,0,0,1-9.28-3.07,34.6,34.6,0,0,1-4.05-2.45c1,.5,2,1,2.93,1.48,1.38.7,2.89,1.6,4.47,1.51.08,0,.15-.11.07-.17a18.76,18.76,0,0,0-3.36-1.82c-1.24-.65-2.34-1.51-3.53-2.24a26.56,26.56,0,0,1-4.67-3.4A40,40,0,0,0,48.63,66c1.47.86,2.79,2,4.6,1.88.09,0,.15-.15.05-.19A27.87,27.87,0,0,1,48,64.08a19.54,19.54,0,0,0,3,.72.17.17,0,0,0,.13-.3c-1.71-1-3.61-1.77-5.25-2.9a9.25,9.25,0,0,0,3.78,1,.2.2,0,0,0,.14-.33,15.23,15.23,0,0,0-2.44-1.34l-.14-.08c.37-.12.73-.3,1.1-.46,0,0,0,.09,0,.13a.58.58,0,0,0,.68.39,3.55,3.55,0,0,0,1.63-.73c1.21-.88.91.53.86,1.43-.11,1.75,2.39.49,2.62,1.39.48,1.82,2.55.85,3.69.86.87,0,1.05.65,1.42,1,.12.79,0,1.85.82,2a4,4,0,0,0,2.21-.09c1.49-.49,1,1,2,1.23s1.32-.18,2.13.38a2.18,2.18,0,0,0,1.7.57c.31,0,.53-.49.62-.73.52-1.43.94-2.56,2.41-3,0,1.43-.76,2.41,1.13,3.06,1.08.38,2-.25,3.06.69A1.83,1.83,0,0,0,77,69.1c.5-.13.83-.81,1.07-1.19.66-1.08,1.65.49,2.36.46,1.8-.07,1.11-2.1,2-2.54A2.76,2.76,0,0,0,84,67.92c.82.37,2.35.35,2.87-.54s0-1.55-.61-2.17a2.88,2.88,0,0,1-.29-.35.88.88,0,0,0-.05-.15c0-.39,1.69.3,2.19.62a2.08,2.08,0,0,0,1.56.45c.38-.14,1-.32,1.13-.74s.54-2.51,1.5-1.91c1.37.87,2.24,1.2,3.53.08.3-.26.3-.79.31-1.14.07-1.77,2.2.37,2.65.65a1.43,1.43,0,0,0,1.91-.44c.68.91,1.85,1.9,2.84,1.26.79-.51.66-1.22.26-1.85h.55a.65.65,0,0,0,.38-.07,4.17,4.17,0,0,0,2.19,0,9.4,9.4,0,0,0,1.42-.42.76.76,0,0,0,0,.15,9.79,9.79,0,0,0-1.12.37c-.84.27-1.71.42-2.54.71a.2.2,0,0,0,0,.38,4.51,4.51,0,0,0,2.49-.18c.22-.06.49-.11.76-.17a10.2,10.2,0,0,1-2.18.6,5.78,5.78,0,0,0-2.56.76c-.08.06-.06.18,0,.18a11.12,11.12,0,0,0,2.69-.27,10,10,0,0,0,2.17-.53l0,.2a27.53,27.53,0,0,1-6.2,1.81A.09.09,0,1,0,101.8,65.37Zm6.33-6c-.81.39-1.68.61-2.52,1a.16.16,0,0,0,0,.31,6.21,6.21,0,0,0,2.63-.58v.07c-.46.15-.92.38-1.35.54a17.19,17.19,0,0,1-2,.55,5.75,5.75,0,0,0-.38-1.56c.72.11,1.64.38,2.12,0,0,0,0,0,0,0a.24.24,0,0,0,.16,0A6.68,6.68,0,0,0,108.13,59.36Zm-.94-.69c.11-.24.25-.28.44-.22l-.09.06ZM52.48,23.08A32,32,0,0,1,63.63,19a81.4,81.4,0,0,1,11.65-.83,72.77,72.77,0,0,1,7.36.5c7.55.89,21.23,5.5,24.78,13a11.86,11.86,0,0,1,1.15,5.74c-.15,2.49-1.81,3.64-3.45,5.19a13.58,13.58,0,0,1-3.33.67,51.58,51.58,0,0,0-8.16,1.58c-3.62.95-7.2,1.84-10.84,2.53a.61.61,0,0,0-.89.16c-2.09.37-4.21.68-6.35.87a59.24,59.24,0,0,1-23.94-3.22,50.05,50.05,0,0,1-6.5-3c-3.38-1.72-2.4-5.57-1.76-8.52C44.46,28.7,48.18,25.56,52.48,23.08Zm54.73,28.15A1.74,1.74,0,0,1,106.06,53a1.38,1.38,0,0,0-.53.29,1.23,1.23,0,0,0-.27.52c-.21.76,0,.18-.73.47s-1.34,1.6-2,1.56a7.41,7.41,0,0,0-2.74.08,3.43,3.43,0,0,0-1.52,1.22c-1.21,1.62-2.2-.09-3.27-.74s-1.56.51-1.84,1.46c-.21-.14-.42-.26-.62-.42a8,8,0,0,1-1-1,6.49,6.49,0,0,0-2-1.78s-.06,0,0,0c.62.79,1.14,1.67,1.76,2.47.16.21.33.43.53.65-.5.07-.87.61-1.69,1.65-.19.24-1.23-.67-1.59-.8-.76-.26-2.3,1-2.78.38-.77-1-2.14-1.74-2.94-.35a8.22,8.22,0,0,0-1.46-1.57c.68-.4,1.36-.79,2.06-1.16,2.22-1.19,4.14-2.81,6.39-3.92a.28.28,0,0,0,.12-.12,65.7,65.7,0,0,0,7.8-.7,18.58,18.58,0,0,0,7.76-2.44s0,0,.06,0a1.41,1.41,0,0,1,.78,1.67c-.16.92-1.25.93-1.9,1.07a1.92,1.92,0,0,0-1.29,1c-.14.25-.22.56-.34.81-.41.84-1.46,0-1.93-.16a2,2,0,0,0-1.94.41.06.06,0,0,0,0,.11,3.38,3.38,0,0,1,2.22.46,1.83,1.83,0,0,0,1.3.3c1.37-.46,1.21-2.19,2.72-2.44a2,2,0,0,0,.81-3.67,1.49,1.49,0,0,0,.2-.15,7.9,7.9,0,0,0,1.18-1.14c.15.68.32,1.37.41,2.06a4.23,4.23,0,0,1,0,1.23l-.16,0-.06,0h-.07A.46.46,0,0,0,107.21,51.23ZM67.53,57a11.42,11.42,0,0,0-.8.9,6.15,6.15,0,0,1-.88,1,.28.28,0,0,0-.09.2c-.52.48-.89,1-1.08-.12-.06-.39-.56-.41-.81-.21-1.48,1.21-1,.09-2.22.09h-.1c.12-.2.23-.39.32-.52.48-.65,1-1.28,1.42-2,.07-.11-.07-.22-.17-.17a6.15,6.15,0,0,0-1.68,1.54c-.26.3-.5.63-.75,1a.92.92,0,0,0-.29.64,5.13,5.13,0,0,1-.77.4c.16-1.41.67-2.39-1.05-2.74.07-.86.15-2.46-1-2.07a7.25,7.25,0,0,1-2.7.59h-.16c1.28-1,3.14-1.52,4.58-2.13a.08.08,0,0,0,0-.12c1.05.08,2.13.12,3.2.17l2.68.11a.35.35,0,0,0,.23.46c3,.82,5.35,2.86,8,4.38a4.37,4.37,0,0,0-.27.64c-.35,1.14-1.28.8-2.2,1-.75.15-1.43.43-2.15.64-.47-.63-.24-2.25-1.42-2.28a1.22,1.22,0,0,0-.27,0,13.13,13.13,0,0,0,.53-1.3C67.64,57,67.57,57,67.53,57Zm-14.12-.95a.75.75,0,0,0-.06.13,4.65,4.65,0,0,0-.3.89c-.19-.25-.48-.45-.58-.73a1.24,1.24,0,0,0-1.24-.65,5.29,5.29,0,0,1-4.74-1.3c-1-.79-2.85-3.84-1.32-5.09a.27.27,0,0,0,.07-.08l1.31,0A3.27,3.27,0,0,0,46,50.33c-.29,1.08.85,1.61,1.66,1.89a1.22,1.22,0,0,0,.6,0c.48-.12.27.45.17.68a.82.82,0,0,0,.3,1,1.14,1.14,0,0,0,1,.14,6.49,6.49,0,0,0,.74-.26c.29-.1.58,0,.86-.09a.21.21,0,0,0,.13-.23l0-.13a.34.34,0,0,0-.23-.22,3.08,3.08,0,0,0-1.66.26c-.79.21-.14-.66-.11-.8a1.08,1.08,0,0,0-.19-.89c-.43-.65-1-.17-1.59-.36s-1-.4-.85-1,.6-.76,1-1h2a20,20,0,0,0,2.51,1.92,13.12,13.12,0,0,0,6.09,2,7.43,7.43,0,0,0-2.25.69,7.53,7.53,0,0,0-2.79,1.69A.38.38,0,0,0,53.41,56.06Zm-3.1-9.93c.42.21.84.42,1.27.61-.36-.15-.73-.31-1.08-.49A1.22,1.22,0,0,1,50.31,46.13Zm8,3.68a6,6,0,0,0-1.12-.46l1.08.09c.19,0,.28-.29.1-.37a7.72,7.72,0,0,0-1.72-.52l.27,0a.13.13,0,0,0,.06-.22,4.09,4.09,0,0,0-.82-.5l.45.11a75.54,75.54,0,0,0,10.15,1.63A27.77,27.77,0,0,1,58,50l.33,0C58.35,50,58.36,49.85,58.3,49.81Zm9.47.7a.28.28,0,0,0,.22.16,4.63,4.63,0,0,0-.65.36s0,.06,0,.06a12,12,0,0,0,2.16-.16l-1.67.49a.18.18,0,0,0,0,.35,21.57,21.57,0,0,0,3-.3,9.2,9.2,0,0,0-1,.41,0,0,0,0,0,0,.07,15.85,15.85,0,0,0,4.44-.6c-.6.22-1.22.4-1.8.55a32,32,0,0,1-8.46.6c-2.93,0-6.14.1-8.95-.89a6.3,6.3,0,0,1,1.33.31c.15.07.28-.14.13-.22-.54-.31-1-.76-1.52-1.13A23.94,23.94,0,0,0,67.77,50.51Zm.53,0a5.15,5.15,0,0,1,1.18-.41C69.08,50.25,68.68,50.38,68.3,50.53Zm1.87-.65.15-.1h.1Zm4,.7a9.36,9.36,0,0,0,1.72-.9.34.34,0,0,0,.12-.12l.24,0A6.77,6.77,0,0,1,74.17,50.58Zm-7.22,3c4.51,0,9.57-.64,11.89-4.35l.36-.06c1.3,1.86,4.37,2.38,6.41,2.61.73.08,1.47.12,2.21.15a45.74,45.74,0,0,0-4.47,2.6A26.68,26.68,0,0,0,77,58.66l0,0C73.33,57.61,70.55,54.54,67,53.57Zm10.24-4a.39.39,0,0,0,0-.15l.13,0ZM80.05,49l.16,0a.67.67,0,0,0,.27.29,11.35,11.35,0,0,0,2.65,1.09A7,7,0,0,1,80.05,49Zm20.37-3.93c.49-.09,1,0,1.47-.08l.39-.07,0,0c-1.09.34-2.29.37-3.35.76,0,0-.09.11,0,.14,1.53.66,3.7,0,5.41-.75a6.61,6.61,0,0,1-2.63,1.06c-1.17.28-2.34.54-3.5.87,0,0,0,.09,0,.08.9-.1,2-.1,3.15-.2-1.16.28-2.35.44-3.51.62A68.17,68.17,0,0,1,86,48c5.09-1.12,10.11-2.68,15.28-3.32a5.33,5.33,0,0,1-.84.39A0,0,0,0,0,100.42,45.11Zm3.32,2.39a8.76,8.76,0,0,0,2.1-.68,7.24,7.24,0,0,1-1.61.83c-.83.33-1.72.71-2.56,1a.09.09,0,1,0,0,.17c.78-.13,1.47-.15,2.17-.27a5.54,5.54,0,0,1-.67.3,32.73,32.73,0,0,1-7.07,1.5c-2,.25-3.92.42-5.89.48.54-.07,1.06-.16,1.55-.27a.23.23,0,0,0,0-.44,24.71,24.71,0,0,0-3.61-.44,5.29,5.29,0,0,0,.52-.29.14.14,0,0,0-.07-.26,11,11,0,0,1-2-.2,43.79,43.79,0,0,0,12.82-.48A20.52,20.52,0,0,0,104.3,47l-.62.39A.08.08,0,0,0,103.74,47.5Zm2.13-3.8.12-.05a.61.61,0,0,0,0,.12A.23.23,0,0,0,105.87,43.7Zm1.3-.64,0,0a1.1,1.1,0,0,0,0,.18h0C107.19,43.16,107.17,43.11,107.17,43.06ZM43.25,46.24a13.34,13.34,0,0,0,2-2.26c.73.36,1.51.68,2.25,1h0a.69.69,0,0,0,0,.13c-.36,1,.29,2,1.08,2.84l.28.36A49.12,49.12,0,0,0,41.47,48C42.11,47.44,42.7,46.77,43.25,46.24Zm65.35-1.19a3.64,3.64,0,0,0-.14-3.06,6.53,6.53,0,0,0,.8-1c1.69,1.13,4.39,1.78,5.47,3.58C112.8,45,110.39,44.3,108.6,45.05Z"/><path class="cls-1" d="M72.57,20.9c1.3.85,2.82-.77,2.87-2a.41.41,0,0,0-.28-.37,2.1,2.1,0,0,0-2.47.62C72.05,19.6,71.73,20.35,72.57,20.9Zm.23-1.15a.39.39,0,0,0,.36-.07,2,2,0,0,1,.77-.53,1.55,1.55,0,0,1,.77,0,1.71,1.71,0,0,1-1.52,1.35C72.68,20.49,72.62,20.07,72.8,19.75Z"/><path class="cls-1" d="M68,22a2.18,2.18,0,0,0,1.39.32.91.91,0,0,0,.83-.5c.24-.61-.51-1.13-1-1.26a1.58,1.58,0,0,0-1.09.12h0a.74.74,0,0,0-.44.35A.78.78,0,0,0,68,22Zm1.57-.4Zm-1-.35a.88.88,0,0,1,.85.15l0,0,.06.07,0,.06s0,0,0,0h0a1.07,1.07,0,0,1-.47.08,1.4,1.4,0,0,1-.8-.19.34.34,0,0,1-.12-.12A1.43,1.43,0,0,0,68.54,21.27Z"/><path class="cls-1" d="M79.19,22.62a1,1,0,0,0,.82-.44.72.72,0,0,0-.22-.8,1.85,1.85,0,0,0-.84-.47h0a.19.19,0,0,0-.11-.08,1.18,1.18,0,0,0-1,.09.84.84,0,0,0-.36.81C77.51,22.51,78.56,22.68,79.19,22.62ZM78.1,21.41h0a2.48,2.48,0,0,1,.47,0,1.75,1.75,0,0,1,.57.23.7.7,0,0,1,.16.14l0,0h0l-.12,0c-.33.08-1,.18-1.2-.22C78,21.57,78,21.51,78.1,21.41Z"/><path class="cls-1" d="M75.32,25.06a1.09,1.09,0,0,0-1.08.52c-.38.81.63,1.22,1.26,1.25a1.32,1.32,0,0,0,1.42-1.17.79.79,0,0,0-.52-.79,1.11,1.11,0,0,0-1,.08A.24.24,0,0,0,75.32,25.06Zm.47.35a.65.65,0,0,1,.21.06h0l0,.09h0v0c0-.09,0,0,0,.08l0,.05,0,0,0,0a.72.72,0,0,1-.38.19,1.13,1.13,0,0,1-.68-.08.29.29,0,0,1-.1-.08c.14-.31.6-.21.89-.27A.16.16,0,0,0,75.79,25.41Z"/><path class="cls-1" d="M71.63,23.79a3.06,3.06,0,0,0,.61,0A1.8,1.8,0,0,0,74.37,23a.36.36,0,0,0-.06-.44c-1-1-3-.78-3,.82A.37.37,0,0,0,71.63,23.79Zm1.9-.86a1.76,1.76,0,0,1-.86.4l0,0a.74.74,0,0,0-.53-.22C72.37,22.64,73.06,22.69,73.53,22.93Z"/><path class="cls-1" d="M61.84,24.32c1.1.33,2.67.58,2.92-.93a.42.42,0,0,0-.4-.53,1.09,1.09,0,0,1-.24-.07.2.2,0,0,0-.13-.14A1.72,1.72,0,0,0,61.6,24,.33.33,0,0,0,61.84,24.32Zm1.26-1.2a.35.35,0,0,0,.29.28,2.51,2.51,0,0,1,.46.16c-.25.47-1,.33-1.53.19A1.14,1.14,0,0,1,63.1,23.12Z"/><path class="cls-1" d="M58.5,23.64a1.26,1.26,0,0,0,1-.07,1.59,1.59,0,0,0,1-1.35c0-.63-.67-.75-1.17-.56-.74-.08-1.89.24-1.65,1.15A1.39,1.39,0,0,0,58.5,23.64Zm.28-1.49a.29.29,0,0,0,.3.31,3.77,3.77,0,0,0,.53-.12v0a.46.46,0,0,1-.07.16,1.1,1.1,0,0,1-.29.34.73.73,0,0,1-.41.16.91.91,0,0,1-.54-.24C58,22.49,58.37,22.28,58.78,22.15Z"/><path class="cls-1" d="M82.93,24a.42.42,0,0,0,.19.47c.92.54,2.34.64,2.93-.45a.87.87,0,0,0-.21-1.16,1.32,1.32,0,0,0-1-.15,1.27,1.27,0,0,0-.77,0A1.78,1.78,0,0,0,82.93,24Zm2.25-.51a.19.19,0,0,0,.16-.08h0s0,.08,0,.09a.37.37,0,0,1-.08.22c-.3.46-.9.4-1.39.2A1.49,1.49,0,0,1,85.18,23.52Z"/><path class="cls-1" d="M81.92,21.61c.7.11,1.52-.07,1.58-.91a1.46,1.46,0,0,0-1.2-1.39c-.42-.09-.75.5-.39.73a1.63,1.63,0,0,0-.56.41C80.94,21,81.32,21.51,81.92,21.61Zm0-.9a1.22,1.22,0,0,1,.53-.33.67.67,0,0,1,.16.25.17.17,0,0,1,0,.15.78.78,0,0,1-.47.16C81.81,21,81.7,20.93,81.89,20.71Z"/><path class="cls-1" d="M94.17,25.19a.35.35,0,0,0,.32-.25,1.53,1.53,0,0,0-.21-1.45c-.23-.27-.83-.64-1.18-.47a.13.13,0,0,0-.06.07l-.08,0a1.13,1.13,0,0,0-.51.84C92.32,25,93.38,25.28,94.17,25.19Zm-.91-1.46a.33.33,0,0,1,.2-.08h.15l0,0h0a.67.67,0,0,1,.09.14,1.11,1.11,0,0,1,.11.76c-.38,0-.8-.06-.79-.48A.51.51,0,0,1,93.26,23.73Z"/><path class="cls-1" d="M91.21,27.38a1.13,1.13,0,0,0,.32-1.53,1.21,1.21,0,0,0-.68-.47,1.1,1.1,0,0,0-1,.21.33.33,0,0,0,0,.42.72.72,0,0,0-.65.35.69.69,0,0,0,0,.81A1.61,1.61,0,0,0,91.21,27.38ZM90,26.19a.13.13,0,0,0,0-.06l.1,0c.19,0,.35-.09.53-.09a.41.41,0,0,1,.22.11.53.53,0,0,1,0,.53,1,1,0,0,1-1.07.16C89.37,26.66,89.87,26.4,90,26.19Z"/><path class="cls-1" d="M85.73,27.61a1.5,1.5,0,0,0-.21.46.24.24,0,0,0,.23.3,6.85,6.85,0,0,1,1.2.07.34.34,0,0,0,.37-.14,1,1,0,0,0-.15-1.37,1.4,1.4,0,0,0-1.46,0A.39.39,0,0,0,85.73,27.61Zm.75-.13a.49.49,0,0,1,.24,0c.09.05.08.19,0,.33a5,5,0,0,1-.67,0A1,1,0,0,1,86.48,27.48Z"/><path class="cls-1" d="M81.45,27.2a2.11,2.11,0,0,0,1.57.52l.15,0,.14,0a1.11,1.11,0,0,0,.42-.28,1.9,1.9,0,0,0,.38-1.1.5.5,0,0,0-.25-.43,2.61,2.61,0,0,0-1.21-.41,1.76,1.76,0,0,0-.38,0A1.19,1.19,0,0,0,80.9,26C80.71,26.45,81.12,26.94,81.45,27.2Zm.24-.95a.44.44,0,0,0,.28.16c.21,0,.38-.11.59-.1a1.07,1.07,0,0,1,.53.19.69.69,0,0,1-.1.25c-.07.12-.11.14-.17.16a1,1,0,0,0-.18,0l-.21,0a1.7,1.7,0,0,1-.44-.23,2.44,2.44,0,0,1-.28-.27.67.67,0,0,0-.07-.11Zm0,0h0Z"/><path class="cls-1" d="M67.84,27a.43.43,0,0,0-.1.37l0,.05a.84.84,0,0,0,.17,1A1.67,1.67,0,0,0,69,28.9a1.22,1.22,0,0,0,1-.28,1.1,1.1,0,0,0-.11-1.6A1.55,1.55,0,0,0,67.84,27Zm1.45,1a0,0,0,0,0,0,0l-.08,0a.91.91,0,0,1-.63,0,.62.62,0,0,1-.21-.15.22.22,0,0,1-.07-.09.11.11,0,0,1,0,0h0a.1.1,0,0,1,0-.05l.21,0,.09,0h.25l.14,0h0l0,0,.07.05.09.09,0,.05,0,.08v0Z"/><path class="cls-1" d="M59.41,29.2A.94.94,0,0,0,59.48,28,1.31,1.31,0,0,0,58,27.79a1.57,1.57,0,0,0-1.38.63.41.41,0,0,0,0,.57A1.82,1.82,0,0,0,59.41,29.2Zm-1.88-.52a.74.74,0,0,1,.8-.1.38.38,0,0,0,.39-.06l.09,0s0,0,0,0a.4.4,0,0,1-.07.13.77.77,0,0,1-.58.24A1.07,1.07,0,0,1,57.53,28.68Z"/><path class="cls-1" d="M55.65,26.41a1.3,1.3,0,0,0,.77-.32,1.65,1.65,0,0,0,.64-.84.43.43,0,0,0-.19-.47,2,2,0,0,0-1-.24.4.4,0,0,0-.27.08l0,0a.51.51,0,0,0-.29-.08.55.55,0,0,0-.47.16,1.09,1.09,0,0,0-.11,1A1,1,0,0,0,55.65,26.41Zm-.3-1.58s0,0,0,0Zm-.16.3v0h0a.24.24,0,0,0,0-.08s0,0,0,0h0a.21.21,0,0,0,0-.06h0l0-.05a1,1,0,0,1,.17,0,.44.44,0,0,0,.42.58H56l-.18.17-.07.05-.11.07s0,0,0,0h-.21l0,0-.07-.07a1.4,1.4,0,0,1-.1-.16s0-.05,0-.06,0-.06,0-.09,0-.06,0-.09,0,0,0,0Z"/><path class="cls-1" d="M100,28a1.55,1.55,0,0,0,1.21-1.39A1.07,1.07,0,0,0,100,25.56a.29.29,0,0,0-.28.21.34.34,0,0,0,0,.22.29.29,0,0,0,.25.14c.26,0,.71,0,.65.4a1.17,1.17,0,0,1-.6.71,1.08,1.08,0,0,1-1.11,0,.38.38,0,0,1-.16-.38c.09-.19.42-.18.6-.23a.18.18,0,0,0,0-.34c-.59-.11-1.27.29-1,.95A1.46,1.46,0,0,0,100,28Z"/><path class="cls-1" d="M87,30.48a1.19,1.19,0,0,0-1.21,1.07,1.13,1.13,0,0,0,1.36,1.16,2.16,2.16,0,0,0,1.72-1c.44-1-.6-1.52-1.41-1.6A.41.41,0,0,0,87,30.48Zm.68,1a1.56,1.56,0,0,1-.52.25.88.88,0,0,1-.43,0l-.06,0,0,0a.34.34,0,0,1-.07-.15c-.08-.36.33-.51.76-.58h0a4,4,0,0,1,.61.22A.81.81,0,0,1,87.68,31.51Z"/><path class="cls-1" d="M67.14,33.5a1.31,1.31,0,0,0,1-.43A1.18,1.18,0,0,0,68.47,32c-.1-.65-1.19-1.45-1.77-.89a.41.41,0,0,0-.07.11H66.5c-.4.09-.53.53-.56.9A1.35,1.35,0,0,0,67.14,33.5Zm-.37-1.67h.07c.11.05.23.07.31.11a.6.6,0,0,1,.25.22c0,.07.06.1,0,.18a.75.75,0,0,1-.27.29.43.43,0,0,1-.35-.24A.63.63,0,0,1,66.77,31.83Z"/><path class="cls-1" d="M76.63,33.75a1.6,1.6,0,0,0,1.26-1.55,1.11,1.11,0,0,0-1.68-.87.21.21,0,0,0-.09.1,1.21,1.21,0,0,0-1.37,1.08C74.66,33.49,75.85,33.87,76.63,33.75Zm-.63-1a.62.62,0,0,1-.22-.1.12.12,0,0,1,0-.06.23.23,0,0,1,.11-.18.89.89,0,0,1,.46-.14.36.36,0,0,0,.36-.38.36.36,0,0,1,.17.07s.07.15.07.19a.62.62,0,0,1-.37.6A.8.8,0,0,1,76,32.75Z"/><path class="cls-1" d="M81.66,33.13A1.29,1.29,0,0,0,83,31.94c.08-.78-.93-1.21-1.56-1a.38.38,0,0,0-.19.16,1,1,0,0,0-.8,1.19A1.35,1.35,0,0,0,81.66,33.13Zm-.32-1.22.31-.19a.38.38,0,0,0,.11-.11.68.68,0,0,1,.21.1l.07.08s0,.08,0,0a.22.22,0,0,1,0,.11.42.42,0,0,1-.09.19l-.11.1-.07,0h-.21c.09,0-.09,0-.11,0h0l-.1-.06h0l-.07-.06h0l0,0h0l0-.05C81.23,32,81.33,31.92,81.34,31.91Zm-.1.11h0Zm0,0Z"/><path class="cls-1" d="M51.24,32.33c.21-.1.52-.27.59-.51a1.38,1.38,0,0,0-.16-.91,1.16,1.16,0,0,0-.76-.59.2.2,0,0,0-.11-.13,1.47,1.47,0,0,0-.94-.18.77.77,0,0,0-.32.14s-.15.11-.06.05l-.11.09a.5.5,0,0,0-.13.19,1.53,1.53,0,0,0,.23,1.6A1.38,1.38,0,0,0,51.24,32.33Zm-1.39-1.39h0l0-.11h0l0-.12h0s0,0,0,0v0h0a.31.31,0,0,1,.12-.05.47.47,0,0,0,.28.67l.1,0h.15a.12.12,0,0,1,.09.05s0,.09.05.12l0,.08-.19.12-.12,0h-.23l0,0-.09,0h0a.34.34,0,0,1-.09-.08h0L50,31.43a.35.35,0,0,1-.06-.14A.68.68,0,0,1,49.85,30.94Z"/><polygon class="cls-1" points="49.95 30.67 49.95 30.67 49.94 30.67 49.95 30.67 49.95 30.67"/><path class="cls-1" d="M50,30.67l0,0Z"/><path class="cls-1" d="M59.5,35.13s0,0,0,.06a.33.33,0,0,0-.43,0,.87.87,0,0,0-.22,1.39A1.68,1.68,0,0,0,60.4,37a1,1,0,0,0,.7-1.45C60.84,35.17,59.83,34.53,59.5,35.13Zm-.18.78h0Zm.87.34a.94.94,0,0,1-.75-.19.23.23,0,0,1-.11-.15h0s0,0,0,0a.36.36,0,0,1,.1-.11.38.38,0,0,0,.17-.33.73.73,0,0,0,.36.15.69.69,0,0,1,.38.23C60.48,36,60.43,36.19,60.19,36.25Z"/><path class="cls-1" d="M89,35.87a1,1,0,0,0-1.19-.1.27.27,0,0,0-.07.26l-.07,0a1.29,1.29,0,0,0-.68.66,1.07,1.07,0,0,0,1,1.55,1.38,1.38,0,0,0,1.59-1.41A1.26,1.26,0,0,0,89,35.87Zm-1,1.54c-.31,0-.31-.21-.19-.43s.64-.22.69-.52a.67.67,0,0,1,.18.4C88.67,37.21,88.24,37.41,87.92,37.41Z"/><path class="cls-1" d="M94.64,33a1.09,1.09,0,0,0-.73,1c.06,1,1.54,1.2,2.24.81a1.49,1.49,0,0,0,.53-1.91,1.25,1.25,0,0,0-.8-.67,1.18,1.18,0,0,0-1.26.34A.36.36,0,0,0,94.64,33Zm.24.73a1.28,1.28,0,0,1,.71-.23.25.25,0,0,0,.21-.14.81.81,0,0,1,0,.3v0a.5.5,0,0,1,0,.13v0l0,0,0,.08a.47.47,0,0,1-.33.16,1,1,0,0,1-.69-.17S94.78,33.83,94.88,33.74Z"/><path class="cls-1" d="M72.9,72.87c-4.08-.55-8.23-.28-12.29-.76,0,0,0,0,0,0a19.61,19.61,0,0,0,4.8.87c2.48.18,4.91.77,7.4.51C73.16,73.51,73.31,72.93,72.9,72.87Z"/><path class="cls-1" d="M75.82,73a3.63,3.63,0,0,0-1.59.4.15.15,0,0,0,.08.27l1.51,0c.42,0,.9.11,1.18-.26a.15.15,0,0,0,0-.16C76.72,72.86,76.23,73,75.82,73Z"/><path class="cls-1" d="M92.32,43.18c2.58-.35,5.18-.46,7.75-.85,1.73-.25,4-.46,5.32-1.71,1.84-1.7,3.19-5.52,1.2-7.62a.28.28,0,0,0-.47.19c0,.57.09,1.1.13,1.63a3.93,3.93,0,0,1-.56,2.18,7,7,0,0,1-2.93,2.23c-2.26,1.17-4.83,1.51-7.29,2-.07,0,0,.11,0,.12a16.21,16.21,0,0,0,9-1.75,6.11,6.11,0,0,0,.75-.5,5,5,0,0,1-2.38,1.63c-3.4,1.19-7.1,1.45-10.62,2.12C92,42.93,92.13,43.21,92.32,43.18Z"/><path class="cls-1" d="M87.89,44.51A22.56,22.56,0,0,0,82,45a67.09,67.09,0,0,1-7.47,1,29.32,29.32,0,0,1-7.66-.38c-1.59-.35-3-1-4.67-.63a.12.12,0,0,0,0,.23c1.89.48,3.76,1.16,5.69,1.48a30.69,30.69,0,0,0,6.64.22,39.52,39.52,0,0,0,6.22-.81c2.39-.48,4.87-.46,7.21-1.2A.24.24,0,0,0,87.89,44.51Z"/><path class="cls-1" d="M59.91,45.1c-.36-.1-.73-.12-1.09-.2a2.59,2.59,0,0,0-1.1-.2,0,0,0,0,0,0,.08,6,6,0,0,0,1,.69,1.53,1.53,0,0,0,1.19.24A.32.32,0,0,0,59.91,45.1Z"/><path class="cls-1" d="M48.54,42.84a.36.36,0,0,0,.4-.52c-1.06-1.63-3.12-2.2-4.15-3.93-1.57-2.64.43-6.7,1.54-9.12a.06.06,0,0,0-.09-.08,10.11,10.11,0,0,0-2.76,8.08C43.84,39.75,46.25,42,48.54,42.84Z"/><path class="cls-1" d="M45.13,35.66a6.79,6.79,0,0,0,1.77,4.16c.67.84,2.6,2.94,3.83,2.49a.25.25,0,0,0,.14-.36c-.19-.4-.46-.49-.86-.7a8.54,8.54,0,0,1-1.94-1.5,11.9,11.9,0,0,1-2.79-4.11C45.25,35.56,45.13,35.56,45.13,35.66Z"/><path class="cls-1" d="M97.28,53.8a1.17,1.17,0,0,0-1.2.18c-.17.14-.31.34-.54.36a3,3,0,0,1-1.2-.35c-1.11-.42-1.77.34-1.9,1.35,0,.18.28.22.31,0,.16-.87.54-1.19,1.31-.72a3.49,3.49,0,0,0,1.29.45,1.15,1.15,0,0,0,1-.24c.33-.3.65-.53,1-.81A.17.17,0,0,0,97.28,53.8Z"/><rect class="cls-1" x="17.39" y="82.55" width="117.03" height="33.79"/><path class="cls-2" d="M135.64,117.56H16.17V81.33H135.64Zm-117-2.45H133.2V83.77H18.62Z"/><path class="cls-5" d="M27.84,93c0-3.75,2.5-6.33,6.09-6.33,4.25,0,6.23,2.55,6.23,6.45S38,99.39,34.05,99.39C30.43,99.39,27.84,97.29,27.84,93Zm8,.12c0-2.1-.57-3.78-1.9-3.78-1.06,0-1.79,1.51-1.79,3.66s.81,3.71,1.92,3.71S35.82,95.22,35.82,93.07Z"/><path class="cls-5" d="M47.36,87c4,0,4.8,1.6,4.8,3.57A2.64,2.64,0,0,1,49.65,93a2.63,2.63,0,0,1,2.27,2.46c0,.75.1,1.18.42,1.18s.4-.21.4-.56v-.57H53.9v1c0,1.44-.61,2.77-2.53,2.77-2.28,0-3.37-1.2-3.37-3.22,0-1.58-.19-2-1.73-2v2.68h1v2.29h-5.6V96.78h1V89.22h-1V87Zm-1.09,5.2h.78c1,0,1.66-.48,1.66-1.4a1.41,1.41,0,0,0-1.58-1.55h-.86Z"/><path class="cls-5" d="M61.13,87v2.29H60.06v7.53h1.07v2.3H55.37v-2.3h1.1V89.24h-1.1V87Z"/><path class="cls-5" d="M70.93,98a3.31,3.31,0,0,1-2.79,1.25c-3,0-5.45-2.36-5.45-6.11s2.62-6.38,5.33-6.38c2.51,0,3.1,1.18,3.38,1.46L71.76,87h2.59v5.12H71.24a2.06,2.06,0,0,0-2-2.21c-1.41,0-2.38,1.53-2.38,3.26s.87,3.2,2.38,3.2a1.68,1.68,0,0,0,1.66-.85v-.73H69.87V92.88h5.76v1.86h-.69v4.33H71.47Z"/><path class="cls-5" d="M83,87v2.29H81.88v7.53H83v2.3H77.2v-2.3h1.09V89.24H77.2V87Z"/><path class="cls-5" d="M96.83,89.19v9.88H93.1l-4.42-6.6v4.37H90v2.23H84.69V96.84h1V89.19h-1V87h5l4.25,6.37V89.19H92.75V87H98v2.24Z"/><path class="cls-5" d="M106.34,99.07V96.8H108l-.36-1.18h-3.56l-.36,1.18h1.35v2.27H99.54V96.8h1.18l2.34-7.61h-.71V87H109l3.07,9.85h1.21v2.27Zm.64-5.53-1.15-3.75-1.12,3.75Z"/><path class="cls-5" d="M120.33,87v2.29h-.91v7.53h2.23V94.56h2.92v4.51h-9.72v-2.3h1V89.24h-1V87Z"/><path class="cls-5" d="M59.72,104v7.31h-2V104H54.91v-1.86h7.6V104Z"/><path class="cls-5" d="M70.88,111.31,70,109.25H66.16l-.83,2.06H63.27l3.93-9.24h1.86L73,111.31ZM68.1,104.5l-1.21,3h2.43Z"/><path class="cls-5" d="M80.78,109.81a2.41,2.41,0,0,1-.69.89,3.08,3.08,0,0,1-1,.55,4.47,4.47,0,0,1-1.36.19,6.08,6.08,0,0,1-2.06-.36A5.42,5.42,0,0,1,73.79,110L75,108.54a5.69,5.69,0,0,0,1.29.82,3.45,3.45,0,0,0,1.45.3,1.76,1.76,0,0,0,1-.23.73.73,0,0,0,.35-.64v0a.78.78,0,0,0-.07-.35.74.74,0,0,0-.28-.28,2.27,2.27,0,0,0-.56-.26c-.24-.09-.56-.18-.94-.28a10,10,0,0,1-1.26-.38,3.36,3.36,0,0,1-1-.52,2.06,2.06,0,0,1-.61-.76,2.61,2.61,0,0,1-.22-1.14v0a2.6,2.6,0,0,1,.24-1.13,2.43,2.43,0,0,1,.65-.87,2.93,2.93,0,0,1,1-.56,3.85,3.85,0,0,1,1.3-.2,5.3,5.3,0,0,1,3.4,1.16l-1,1.52a7,7,0,0,0-1.21-.66,3.11,3.11,0,0,0-1.18-.24,1.42,1.42,0,0,0-.88.23.69.69,0,0,0-.3.57v0a.79.79,0,0,0,.09.38.81.81,0,0,0,.31.3,3.43,3.43,0,0,0,.61.25c.26.07.58.17,1,.27a10,10,0,0,1,1.24.41,3.86,3.86,0,0,1,.92.55,2.18,2.18,0,0,1,.56.76,2.46,2.46,0,0,1,.19,1v0A2.79,2.79,0,0,1,80.78,109.81Z"/><path class="cls-5" d="M86.94,104v7.31h-2V104H82.13v-1.86h7.6V104Z"/><path class="cls-5" d="M91.27,111.31v-9.17h6.91v1.79H93.26v1.86h4.33v1.8H93.26v1.92h5v1.8Z"/></g></g></svg>