<svg xmlns="http://www.w3.org/2000/svg" viewBox="0 0 282.01 338.91"><defs><style>.cls-1{fill:#f641a2;}.cls-2{fill:#185395;}</style></defs><title>Asset 1</title><g id="Layer_2" data-name="Layer 2"><g id="Layer_1-2" data-name="Layer 1"><path class="cls-1" d="M186,156.84c-.3,2.43-1.54,4.55-2.25,6.85-.83,2.66-1.67,5.28-1.25,8.14.68,4.73,3.29,7.44,8,8.25,5.45.92,10.88.43,16.3-.18,8-.9,16-1.8,24-.75,6.53.86,12.75,2.53,17.38,7.68,3.12,3.47,4.87,7.72,6.55,12a61.2,61.2,0,0,1,3,10v11.13a22.52,22.52,0,0,0-.78,4.63c-1,5.73-3.24,11-5.47,16.34-4.76,11.34-10.28,22.27-18.26,31.71-17.56,20.75-37.66,38.53-61.22,52.27-11.3,6.59-23.09,11.74-36.22,13.29-1.6.19-3.26,0-4.78.75H115.91c-.18-.35-.52-.27-.81-.29A54.74,54.74,0,0,1,97,333.77c-17.11-7.66-30.83-19.47-41.7-34.59C46,286.23,39.11,272,33.07,257.25c-3.5-8.52-6.75-17.13-8.53-26.23a53.54,53.54,0,0,0-1.05-6.16v-9.58c.81-2.52,1.12-5.17,2.09-7.66,1.78-4.56,4.37-8.34,8.75-10.79A33,33,0,0,0,43.56,189c.1-.12.2-.24.29-.37,1.94-2.58,1.92-3-.76-4.69-4.14-2.57-6.27-6.71-8.6-10.71-4-6.93-5.66-14.51-6-22.44s2.81-14.24,8.54-19.54A52.31,52.31,0,0,1,69,116.92a70.88,70.88,0,0,1,19.52.51c6.81,1.3,12.71,4.66,18.4,8.44,1.88,1.26,3.68,2.64,5.51,4a19.26,19.26,0,0,1,6.91,9.07c1.5,4,3,8,3.49,12.28a20.25,20.25,0,0,1-1.47,9.5c-.62,1.58-1.21,3.18-1.9,4.72a3.78,3.78,0,0,0,.42,4.21c3.76,4.63,3.19,9.87,2.26,15.17a6.68,6.68,0,0,1-3.23,4.69,31.67,31.67,0,0,1-8.16,4c-.79.21-1.86.26-2,1.4s.84,1.49,1.6,1.84c7.58,3.45,15.31,5.18,23.82,4.05,11.61-1.55,21.25-6.72,29.9-14.25,5.61-4.88,11-9.91,14.63-16.56,2.11-3.9,4-7.89,5.82-11.93.23-.52.21-1.24.95-1.44l0,0c.1.26-.17.6.14.79,0,0,.31-.31.48-.48ZM91.75,223.62l.07-.32c1.87.27,3.74.51,5.6.82,10,1.68,20,2.69,30.1,1.14,12.24-1.88,23.32-6.13,32.87-14.17a36.32,36.32,0,0,0,11.06-15.35,5.25,5.25,0,0,0-.21-4.9,2.5,2.5,0,0,0-4.14-.47A66.61,66.61,0,0,1,153,201.3c-13.39,7.69-27.2,9.3-41.53,2.83-3.41-1.54-7-2.81-9.93-5.24a12.26,12.26,0,0,0-5-2.56c-1.68-.41-3.35-.84-5-1.26,7-.15,13-3,18.79-6.5a9.66,9.66,0,0,0,4.74-8.16,31.79,31.79,0,0,0-2-12.86,3.51,3.51,0,0,1-.2-2.69c2-4.54,1.55-9.28,1-14a13.4,13.4,0,0,0-2.8-7.11c-4.94-6-10.87-10.85-18.5-12.8-12.16-3.12-24-1.62-35.35,3.67C52,137,47.88,140.57,45.65,145.83c-3.8,8.91-2.69,17.79,1.6,26.08a48.86,48.86,0,0,0,12.83,16.26,5.36,5.36,0,0,1,1.06,1.12c.56.83.61,1.76-.3,2.31-3,1.82-4.07,4.92-5.5,7.82-5,10.23-4.5,20.28.85,30.2,1.69,3.12,3.49,6.18,5.22,9.28a3,3,0,0,1,.65,1.86,30.7,30.7,0,0,1-4.19-4.29c-4.67-5.41-9-11-10.76-18.15C45.5,211.67,44.2,205,46,198.2c.78-2.93,1.42-6,4.31-7.74.72-.44.67-1.1.23-1.74a8.73,8.73,0,0,0-3.45-2.52c-.6-.31-.68.21-.79.6a14.7,14.7,0,0,1-3.4,5.47c-2.73,3.14-5.4,6.34-8,9.64-5.8,7.45-6.93,15.78-5.05,24.69A104.1,104.1,0,0,0,42.61,258c11.62,19.67,26.63,36.47,44.2,51a92.39,92.39,0,0,0,28.13,16.44c7.78,2.74,15.54,3,23.4.1a118.62,118.62,0,0,0,19.76-9.77,218.82,218.82,0,0,0,57.69-49.61c7.66-9.41,14.87-19.09,20.19-30.06,3.47-7.17,5.35-14.69,4.47-22.72-.51-4.66-1.91-9-5.48-12.27-5.08-4.66-10.7-8.07-18-7.18a25.4,25.4,0,0,1-2.62.05c-6.75.06-13.49.21-20.23-.32-3.8-.31-7.42-1-10.73-3-3.15-2-4.91-4.54-4.72-8.38.12-2.62-.19-5.26,0-7.92-1.35,2.24-2.42,4.57-3.92,6.64-.53.73-.43,1.12.13,1.82,2.72,3.37,3.9,7,2.77,11.5a39.19,39.19,0,0,1-10.19,17.41c-10.84,11.28-24.61,16.56-40,17.79a65.51,65.51,0,0,1-26.05-3.18C98.23,225.22,95,224.49,91.75,223.62Zm87.05-49.81,0-.12h-.08Z"/><path class="cls-1" d="M139.09,42.19A20.45,20.45,0,0,0,144,43a90.82,90.82,0,0,1,14.12,3.23c4.55,1.45,8.27,4.32,12,7.11a28.62,28.62,0,0,0,6.39,4,5.43,5.43,0,0,0,5.31-.34,11,11,0,0,1,7.8-1.64c6,.75,12,1.38,17.68,3.45,12.6,4.59,20.56,13.43,23.49,26.62a32.21,32.21,0,0,1,.52,11.2c-.6,4.65-3.23,8.28-6,11.81a92.6,92.6,0,0,1-7.11,7.72,9.63,9.63,0,0,1-5.12,2.67c-.57.11-1.16.12-.6,1,.17.27,0,.8-.1,1.19a36.62,36.62,0,0,1-5.92,14.13,141.7,141.7,0,0,1-12.29,15.26l-.26-.25c1.33-2.15,2.6-4.33,4-6.42,3.13-4.66,4.45-9.89,5.16-15.36a91.8,91.8,0,0,0,.29-19.11c-.07-.93,0-1.86,0-2.78,0-.51-.08-1.14.47-1.38s.95.3,1.27.67c1.33,1.56,2.44,3.22,2,5.43a4.79,4.79,0,0,0-.05.93c0,.75-.48,1.82.19,2.17.87.44,1.52-.6,2.15-1.14,3.4-2.94,4.8-7,6-11.11,3.12-10.66-1.33-23.94-14.58-30.5-5.88-2.91-12-3.27-18.36-2.24-2.06.33-2.36,1-1.36,2.87.89,1.61,2,3.12,3,4.83-1.39.12-2.13-.75-2.92-1.36a92.18,92.18,0,0,0-10.51-7.32c-8.8-5-18.18-8.64-28.26-9.11A73.47,73.47,0,0,0,90.7,76.58,43.55,43.55,0,0,0,78.31,92.19a22.59,22.59,0,0,0-2,9.58c0,3.12,0,6.25,0,9.39-.49-.08-.52-.5-.63-.8a48.93,48.93,0,0,1-3.19-16.14c0-5.55,1.53-10.86,3.27-16.11C79.12,68,86,60.78,94.56,54.9a73.52,73.52,0,0,1,32-12.33c.79-.11,1.65.16,2.37-.38Z"/><path class="cls-1" d="M99.7,94.17c.74,0,.86.69,1.19,1.09,4.66,5.76,8.88,11.88,14.34,17a67.94,67.94,0,0,0,15.28,10.37c6.43,3.35,13.11,6.21,19.22,10.19,4.62,3,8.83,6.56,13.41,9.63,2.79,1.87,3.54,5,3.66,8.16A140.38,140.38,0,0,1,165,176.71c0,.29,0,.65-.53.77-.48-3.16-.38-6.35-.62-9.5a100.75,100.75,0,0,0-1.22-11.5,10.21,10.21,0,0,0-5.69-7.62c-4.92-2.46-10-4.63-15-6.94a71.18,71.18,0,0,1-29.19-24A140.56,140.56,0,0,1,99.7,94.17Z"/><path class="cls-1" d="M146.87,147.6a16,16,0,0,1-3.15,5.81,13.25,13.25,0,0,1-13.69,4.4,3.61,3.61,0,0,1-2.53-2.07c-.58-1.39,0-2.28,1.41-1.87,3.61,1,6.87-.06,10.18-1.25A15.07,15.07,0,0,0,145,148.9,3.26,3.26,0,0,1,146.87,147.6Z"/><path class="cls-1" d="M98.3,91.33a1.57,1.57,0,0,1,.8,1.56,1.55,1.55,0,0,1-.82-1.55Z"/><path class="cls-1" d="M99.47,93.2l.26.3c-.08,0-.19.11-.25.09a2.78,2.78,0,0,1-.33-.27Z"/><path class="cls-1" d="M193.5,151a1.06,1.06,0,0,1,.42-.79,3.07,3.07,0,0,1,.26.25c-.14.3-.28.6-.71.52Z"/><path class="cls-1" d="M185.47,156.57a.58.58,0,0,1,.13-.76c.23.33.09.55-.16.74Z"/><path class="cls-1" d="M98,90.72l-.24-.33.12-.08.12.41Z"/><path class="cls-1" d="M98.28,91.34a.63.63,0,0,1-.3-.62h0a.61.61,0,0,1,.32.61Z"/><path class="cls-1" d="M193.47,151l0,.14.06-.12Z"/><path class="cls-1" d="M186.06,156.86l.09-.11-.11.09Z"/><polygon class="cls-1" points="178.8 173.81 178.77 173.69 178.85 173.69 178.8 173.81"/><path class="cls-1" d="M125.17,291.61c-3.7-5.43-9.15-8.59-14.18-12.19-7.62-5.45-14.91-11.31-22.1-17.32.73-.46,1.41,0,2.06.27,7.62,2.57,14.47,6.67,21.33,10.74a65.77,65.77,0,0,1,9.39,6.21c1,.83,1.4-.07,1.88-.54,4.45-4.28,8.9-8.57,13.29-12.91,17-16.8,35-32.51,53-48.24a21.23,21.23,0,0,1,2.05-1.63c.44-.3,1-1,1.44-.61s-.09,1.14-.36,1.64a59.82,59.82,0,0,1-5.74,8.39c-10,12.74-22,23.53-33.38,34.92-8.66,8.66-17.61,17.05-25.54,26.41C127.07,288.18,125.68,289.52,125.17,291.61Z"/><path class="cls-1" d="M84.46,193.56,90,194.67A6.85,6.85,0,0,1,84.46,193.56Z"/><path class="cls-2" d="M0,148.59.11,141a19.34,19.34,0,0,1,.28-3.38,4.54,4.54,0,0,1,1-2,5.82,5.82,0,0,1,2-1.44,6.18,6.18,0,0,1,2.75-.54,6.36,6.36,0,0,1,3,.76,4.89,4.89,0,0,1,2,2,5.06,5.06,0,0,1,2.16-2.66,6.52,6.52,0,0,1,3.54-.88,8.11,8.11,0,0,1,3.09.65,6.07,6.07,0,0,1,2.38,1.69,4.87,4.87,0,0,1,1.07,2.6c.08.65.11,2.2.09,4.66l-.1,6.5Zm4-3.8,5.4.08,0-2.53a27.73,27.73,0,0,0,0-2.81A2.38,2.38,0,0,0,8.54,138a2.82,2.82,0,0,0-1.82-.59,3,3,0,0,0-1.77.46,2.08,2.08,0,0,0-.84,1.44c-.06.39-.1,1.48-.13,3.3Zm9.29.13,6.25.1.06-3.57a14.17,14.17,0,0,0-.11-2.65,2.31,2.31,0,0,0-.91-1.42,3.28,3.28,0,0,0-2-.57,3.56,3.56,0,0,0-1.79.39,2.52,2.52,0,0,0-1.09,1.19,11,11,0,0,0-.38,3.42Z"/><path class="cls-2" d="M12.38,127.35l-1.14,3.21a6.64,6.64,0,0,1-3.37-2.37A6.15,6.15,0,0,1,7.21,124a7.36,7.36,0,0,1,1.16-3.54,4.09,4.09,0,0,1,2-1.45,11.26,11.26,0,0,1,4,0l5.18.69a21.53,21.53,0,0,0,3.29.24,11.08,11.08,0,0,0,2.34-.37l-.45,3.59c-.31.06-.76.12-1.36.19l-.54.06a6.82,6.82,0,0,1,1.41,2.2,4.9,4.9,0,0,1,.27,2.34,4.24,4.24,0,0,1-1.83,3.16,5.26,5.26,0,0,1-3.71.78,5.74,5.74,0,0,1-2.47-.88A4,4,0,0,1,15,129.27a10.51,10.51,0,0,1-.68-3,17.15,17.15,0,0,0-.64-3.67l-.45-.06a2.62,2.62,0,0,0-1.89.29,2.69,2.69,0,0,0-.79,1.88,2.24,2.24,0,0,0,.28,1.57A3.26,3.26,0,0,0,12.38,127.35Zm4.22-4.41a18.71,18.71,0,0,1,.4,2.3,6,6,0,0,0,.53,2.07,2,2,0,0,0,1.48.91,2.44,2.44,0,0,0,1.68-.36,1.81,1.81,0,0,0,.86-1.37,2.78,2.78,0,0,0-.55-2,2.88,2.88,0,0,0-1.36-1,11.47,11.47,0,0,0-2.15-.42Z"/><path class="cls-2" d="M28.44,106.45,27.56,110l-8.39-2.08a16.57,16.57,0,0,0-3.5-.63,2.56,2.56,0,0,0-1.4.44,1.94,1.94,0,0,0-.74,1.13,2.59,2.59,0,0,0,.21,1.81,3.2,3.2,0,0,0,1.39,1.41,17.25,17.25,0,0,0,3.71,1.21l7.44,1.85-.88,3.55L9,114.63l.82-3.31,2.42.6a5.3,5.3,0,0,1-1.69-5.12,4.61,4.61,0,0,1,1.05-2,3.91,3.91,0,0,1,1.69-1.14,5.67,5.67,0,0,1,2-.25,17.75,17.75,0,0,1,3,.53Z"/><path class="cls-2" d="M29.91,105.44,32,101.76a1.88,1.88,0,0,0,1.32,0,2.34,2.34,0,0,0,1-1.36,3.55,3.55,0,0,0,.28-2.2,2.15,2.15,0,0,0-.79-1.08,8.39,8.39,0,0,0-1.86-.9l-2.31-.89c1.32,1.68,1.67,3.3,1.08,4.86a5,5,0,0,1-4.28,3.09,11.5,11.5,0,0,1-5.76-.84q-4-1.53-5.47-3.9a5,5,0,0,1-.61-4.69q.92-2.4,4.1-3L16.5,90l1.23-3.2,14.18,5.45a17.93,17.93,0,0,1,4,2,5.84,5.84,0,0,1,1.77,1.89,4.82,4.82,0,0,1,.53,2.3,8.54,8.54,0,0,1-.65,3c-.85,2.19-1.9,3.56-3.17,4.13a5.1,5.1,0,0,1-4,0C30.27,105.6,30.1,105.53,29.91,105.44Zm-8.1-6.61a7.18,7.18,0,0,0,4,.62,2.5,2.5,0,0,0,1.92-1.52,2.76,2.76,0,0,0-.38-2.58,6.49,6.49,0,0,0-3.22-2.22,7,7,0,0,0-4-.58,2.64,2.64,0,0,0-2,1.64,2.51,2.51,0,0,0,.39,2.47A6.79,6.79,0,0,0,21.81,98.83Z"/><path class="cls-2" d="M34.48,91.22,13.47,81l1.6-3.29,21,10.24Z"/><path class="cls-2" d="M28.2,77.69l-2.32,2.49a6.59,6.59,0,0,1-2.15-3.51,6,6,0,0,1,1.05-4.1,7.21,7.21,0,0,1,2.47-2.78,4,4,0,0,1,2.41-.54,11.17,11.17,0,0,1,3.7,1.62l4.48,2.69a22,22,0,0,0,2.93,1.53,12.11,12.11,0,0,0,2.29.59l-1.84,3.11a13.49,13.49,0,0,1-1.32-.37l-.52-.15a6.82,6.82,0,0,1,.42,2.58,4.88,4.88,0,0,1-.68,2.25,4.28,4.28,0,0,1-2.94,2.18,5.27,5.27,0,0,1-3.71-.77,5.61,5.61,0,0,1-1.92-1.78,4,4,0,0,1-.69-2.23,10.71,10.71,0,0,1,.59-3,17.08,17.08,0,0,0,.86-3.62l-.38-.23a2.67,2.67,0,0,0-1.86-.49q-.74.16-1.47,1.41a2.27,2.27,0,0,0-.37,1.56A3.35,3.35,0,0,0,28.2,77.69Zm5.62-2.37a18.34,18.34,0,0,1-.54,2.27,5.85,5.85,0,0,0-.34,2.11,2,2,0,0,0,1,1.42,2.49,2.49,0,0,0,1.69.34A1.84,1.84,0,0,0,37,80.55,3,3,0,0,0,36.4,77a10.51,10.51,0,0,0-1.81-1.24Z"/><path class="cls-2" d="M51.28,64.78l-2.06,2.71-2-1.5a6,6,0,0,1,.51,2.9,4.33,4.33,0,0,1-.84,2.28A4.93,4.93,0,0,1,42.57,73a11,11,0,0,1-6.26-2.61C34,68.65,32.62,66.9,32.1,65.11a5,5,0,0,1,.75-4.68,4.83,4.83,0,0,1,4.3-1.77l-6.7-5.1,2.21-2.91Zm-13,2.45a9.24,9.24,0,0,0,3.5,1.88,2.72,2.72,0,0,0,2.89-.91A2.57,2.57,0,0,0,45,65.69a7.13,7.13,0,0,0-2.6-3.08,7.77,7.77,0,0,0-3.87-1.86,2.53,2.53,0,0,0-2.66,3.49A6.77,6.77,0,0,0,38.33,67.23Z"/><path class="cls-2" d="M54.12,54l3.07-2.11a7.39,7.39,0,0,1,1.16,4.19,5.69,5.69,0,0,1-1.7,3.63,5.83,5.83,0,0,1-5.79,1.86,11.36,11.36,0,0,1-5.16-3.06,10.74,10.74,0,0,1-3.51-5.86,5.49,5.49,0,0,1,1.43-4.93A5.68,5.68,0,0,1,48.8,45.9q3,.43,6.7,4.06l-6.36,6.62A5.25,5.25,0,0,0,52,58.09a2.59,2.59,0,0,0,2.27-.76,2,2,0,0,0,.58-1.44A3.65,3.65,0,0,0,54.12,54ZM51,50.68a5,5,0,0,0-2.7-1.45,2.33,2.33,0,0,0-2.65,2.84,4.73,4.73,0,0,0,1.56,2.57Z"/><path class="cls-2" d="M57.45,51.3l2.38-2.88a3.56,3.56,0,0,0,2,.91,2.82,2.82,0,0,0,2-.77A3.2,3.2,0,0,0,65,46.7a1.57,1.57,0,0,0-.4-1.23A1.36,1.36,0,0,0,63.9,45a2.69,2.69,0,0,0-1.32.33c-2.78,1.29-4.68,1.93-5.71,1.94a4.73,4.73,0,0,1-3.71-1.87,5.17,5.17,0,0,1-1.28-3.75,5.82,5.82,0,0,1,2.41-4,6.63,6.63,0,0,1,4-1.84,6,6,0,0,1,3.61,1.34L59.72,40a2.37,2.37,0,0,0-3.31.11,3.39,3.39,0,0,0-1.27,1.71,1.12,1.12,0,0,0,.26,1,1.05,1.05,0,0,0,.81.39,11.88,11.88,0,0,0,3.43-1.23,9.28,9.28,0,0,1,4.41-1.09,4.6,4.6,0,0,1,3,1.82,5.57,5.57,0,0,1,1.35,4.09A6.21,6.21,0,0,1,65.89,51a6.73,6.73,0,0,1-4.34,1.8A6.58,6.58,0,0,1,57.45,51.3Z"/><path class="cls-2" d="M61.75,24.36l4.72,7.18a5.11,5.11,0,0,1,2.15-4.44,4.58,4.58,0,0,1,2.22-.78,4,4,0,0,1,2.09.39A6.08,6.08,0,0,1,74.6,28a22.77,22.77,0,0,1,2,2.71L82.06,39,79,41l-4.91-7.47a16.36,16.36,0,0,0-2-2.71,2.21,2.21,0,0,0-1.24-.55,2.07,2.07,0,0,0-1.34.37A2.66,2.66,0,0,0,68.42,32a3,3,0,0,0,0,1.94,11.69,11.69,0,0,0,1.49,2.89l4.66,7.08-3.06,2L58.69,26.37Z"/><path class="cls-2" d="M88.84,35.28l-9.17-21.5,5.7-2.43a18.11,18.11,0,0,1,4.36-1.47,5.11,5.11,0,0,1,3.43,1A8.47,8.47,0,0,1,96,14.66a9.07,9.07,0,0,1,.83,3.58A6.16,6.16,0,0,1,96.2,21a5.24,5.24,0,0,1-1.4,1.81,18.45,18.45,0,0,1-3.55,1.87l-2.32,1,3.46,8.11ZM84.77,15.9,87.37,22l1.95-.83A8.47,8.47,0,0,0,92,19.65a2.79,2.79,0,0,0,.66-1.53,3.73,3.73,0,0,0-.31-1.85,3.5,3.5,0,0,0-1.39-1.69,2.58,2.58,0,0,0-1.84-.35,16.56,16.56,0,0,0-2.61.94Z"/><path class="cls-2" d="M107,28.28l-3.5,1.07-5-16.19,3.26-1,.7,2.3a7.43,7.43,0,0,1,.84-2.61,2.54,2.54,0,0,1,1.36-1,4.08,4.08,0,0,1,2.55.1l.06,4.07a2.87,2.87,0,0,0-1.86-.2,1.82,1.82,0,0,0-1.09.88,3.82,3.82,0,0,0-.25,2,31.13,31.13,0,0,0,1.37,5.52Z"/><path class="cls-2" d="M118.65,19.86h3.73A7.47,7.47,0,0,1,121,24a5.71,5.71,0,0,1-3.46,2,5.8,5.8,0,0,1-5.82-1.75,11.17,11.17,0,0,1-2.52-5.43,10.76,10.76,0,0,1,.42-6.83,5.49,5.49,0,0,1,4-3.25,5.69,5.69,0,0,1,5.28,1.45c1.5,1.39,2.58,3.77,3.22,7.15l-9,1.86a5.16,5.16,0,0,0,1.49,2.85,2.58,2.58,0,0,0,2.3.66,2,2,0,0,0,1.3-.85A3.81,3.81,0,0,0,118.65,19.86Zm-.71-4.47a4.9,4.9,0,0,0-1.41-2.73,2.32,2.32,0,0,0-2.07-.61,2.38,2.38,0,0,0-1.72,1.45,4.71,4.71,0,0,0-.16,3Z"/><path class="cls-2" d="M123.19,7.09l3.37-.19.13,2.3c1.11-1.86,2.49-2.84,4.16-2.93a4,4,0,0,1,2.34.54,4.82,4.82,0,0,1,1.72,1.93,6.68,6.68,0,0,1,1.85-2.13,4.11,4.11,0,0,1,2.21-.8,4.31,4.31,0,0,1,2.62.61,4.54,4.54,0,0,1,1.7,2.13,12,12,0,0,1,.58,3.49l.61,10.81-3.66.2-.55-9.66a8.59,8.59,0,0,0-.56-3.23,1.64,1.64,0,0,0-1.61-.86,2.14,2.14,0,0,0-1.42.65,3.35,3.35,0,0,0-.88,1.73,15.2,15.2,0,0,0-.1,3.52l.46,8.12-3.66.2L132,14.26a16.18,16.18,0,0,0-.37-3.18,2.08,2.08,0,0,0-.67-1,1.68,1.68,0,0,0-1.13-.29,2.35,2.35,0,0,0-1.49.65,3,3,0,0,0-.88,1.66,14.31,14.31,0,0,0-.1,3.5l.47,8.22-3.66.2Z"/><path class="cls-2" d="M146.25,23.33l1-16.9,3.65.22-1,16.9ZM147.4,4.14,147.65,0l3.66.22-.25,4.14Z"/><path class="cls-2" d="M161,24.91l.37-2.51a5.79,5.79,0,0,1-2.28,1.82,4.66,4.66,0,0,1-2.68.39,4.35,4.35,0,0,1-2.37-1.1,4.23,4.23,0,0,1-1.28-2.32,11.51,11.51,0,0,1,.06-3.78l1.57-10.6,3.62.54L156.84,15a26.71,26.71,0,0,0-.44,4.36,2.52,2.52,0,0,0,.54,1.37,2,2,0,0,0,1.28.67,2.55,2.55,0,0,0,1.75-.38,3.24,3.24,0,0,0,1.24-1.4,22.09,22.09,0,0,0,.93-4.48l1.05-7.06,3.62.53L164.34,25.4Z"/><path class="cls-2" d="M170.85,9.26l3.22,1-.68,2.21a5.19,5.19,0,0,1,4.92-1.3,4.05,4.05,0,0,1,2,1.33,4.81,4.81,0,0,1,.93,2.41,6.72,6.72,0,0,1,2.48-1.35,4.17,4.17,0,0,1,2.35,0,4.36,4.36,0,0,1,2.24,1.49,4.44,4.44,0,0,1,.85,2.6,11.57,11.57,0,0,1-.68,3.46l-3.21,10.34-3.5-1.09,2.87-9.24a8.83,8.83,0,0,0,.61-3.22A1.68,1.68,0,0,0,184,16.54a2.25,2.25,0,0,0-1.56.12A3.24,3.24,0,0,0,181.05,18a14.46,14.46,0,0,0-1.32,3.25L177.32,29l-3.5-1.09,2.75-8.86a15.81,15.81,0,0,0,.76-3.1,2.06,2.06,0,0,0-.26-1.2,1.63,1.63,0,0,0-1-.67,2.32,2.32,0,0,0-1.62.08,3,3,0,0,0-1.41,1.25,15.17,15.17,0,0,0-1.32,3.25l-2.43,7.86-3.5-1.09Z"/><path class="cls-2" d="M192,34.69l11.55-20.33,3.35,1.91-4.54,8L209,28l4.55-8,3.35,1.91L205.3,42.23,202,40.33,207,31.44l-6.57-3.73-5.05,8.88Z"/><path class="cls-2" d="M211.53,36a10.93,10.93,0,0,1,3.34-2.89,7.05,7.05,0,0,1,4-1,6.5,6.5,0,0,1,3.59,1.36,6.3,6.3,0,0,1,2.59,5.1,9.75,9.75,0,0,1-2.22,6.23,10,10,0,0,1-5.47,3.85,6.31,6.31,0,0,1-5.6-1.08,6.85,6.85,0,0,1-2.25-3,6.66,6.66,0,0,1-.22-4A12.24,12.24,0,0,1,211.53,36Zm2.85,2.46a6.46,6.46,0,0,0-1.56,3.67A2.83,2.83,0,0,0,216.65,45a6.51,6.51,0,0,0,3.13-2.5,6.43,6.43,0,0,0,1.54-3.64A2.83,2.83,0,0,0,217.49,36,6.42,6.42,0,0,0,214.38,38.44Z"/><path class="cls-2" d="M220.74,47.9,223.86,50a3.53,3.53,0,0,0-.69,2.09,2.79,2.79,0,0,0,1,1.88,3.14,3.14,0,0,0,2,1,1.59,1.59,0,0,0,1.18-.53,1.39,1.39,0,0,0,.4-.79,2.79,2.79,0,0,0-.48-1.28c-1.58-2.62-2.42-4.44-2.54-5.47A4.7,4.7,0,0,1,226.15,43a5.15,5.15,0,0,1,3.59-1.68,5.77,5.77,0,0,1,4.21,2A6.54,6.54,0,0,1,236.21,47a5.85,5.85,0,0,1-.94,3.73l-3-1.83a2.35,2.35,0,0,0-.46-3.27,3.38,3.38,0,0,0-1.84-1.08,1.11,1.11,0,0,0-.93.36,1.07,1.07,0,0,0-.3.84,11.65,11.65,0,0,0,1.6,3.28,9.24,9.24,0,0,1,1.56,4.27,4.62,4.62,0,0,1-1.48,3.2,5.6,5.6,0,0,1-3.92,1.78,6.16,6.16,0,0,1-4.55-2.05,6.17,6.17,0,0,1-1.17-8.36Z"/><path class="cls-2" d="M240.62,50.46l2.18,2.64-1.92,1.58a5.64,5.64,0,0,1,2.74.07,4.27,4.27,0,0,1,2.22,1.43,5,5,0,0,1,.82,4.63,10.75,10.75,0,0,1-3.9,5.4,11.13,11.13,0,0,1-6.16,2.89,5,5,0,0,1-4.43-1.67,3.94,3.94,0,0,1-.89-2,7.38,7.38,0,0,1,.22-2.73l-6.57,5.43-2.34-2.82Zm-4,8a7.5,7.5,0,0,0-2.66,3.4,2.68,2.68,0,0,0,.38,2.6,2.49,2.49,0,0,0,2.32.84,7.49,7.49,0,0,0,3.7-2,7.19,7.19,0,0,0,2.5-3.19,2.59,2.59,0,0,0-.38-2.49,2.65,2.65,0,0,0-2.4-.91A6.51,6.51,0,0,0,236.62,58.47Z"/><path class="cls-2" d="M236.71,72.77l13.93-9.63,2.08,3-13.93,9.62Zm15.82-10.93,3.41-2.36,2.08,3-3.41,2.36Z"/><path class="cls-2" d="M257.76,74.2l-3,1.86-1.31-2.14-5.82,3.56a22.33,22.33,0,0,0-2,1.33,1,1,0,0,0-.31.57.91.91,0,0,0,.13.64,4.12,4.12,0,0,0,1.14,1l-2.8,2.08A6.13,6.13,0,0,1,241.64,81a3.92,3.92,0,0,1-.59-1.74,2.74,2.74,0,0,1,.29-1.54,4.77,4.77,0,0,1,1.22-1.35,26.92,26.92,0,0,1,2.64-1.75l6.29-3.85-.87-1.44,3-1.86.88,1.44,2.87-1.76,4.15,1.77-5.1,3.12Z"/><path class="cls-2" d="M255.54,80.93l-.83-3.3a6.6,6.6,0,0,1,4.12.1,6.11,6.11,0,0,1,2.87,3.12,7.27,7.27,0,0,1,1,3.58,4,4,0,0,1-.86,2.31A11,11,0,0,1,258.46,89l-4.7,2.3a22,22,0,0,0-2.87,1.62,11.1,11.1,0,0,0-1.74,1.61l-1.61-3.25c.22-.21.56-.52,1-.9.22-.17.35-.29.42-.35a6.77,6.77,0,0,1-2.4-1,4.8,4.8,0,0,1-1.51-1.8,4.2,4.2,0,0,1-.24-3.64,5.31,5.31,0,0,1,2.66-2.71,5.79,5.79,0,0,1,2.55-.64,4.1,4.1,0,0,1,2.24.64,11,11,0,0,1,2.23,2.14,17.26,17.26,0,0,0,2.57,2.7l.4-.2a2.68,2.68,0,0,0,1.42-1.29,2.72,2.72,0,0,0-.39-2,2.21,2.21,0,0,0-1.1-1.15A3.32,3.32,0,0,0,255.54,80.93Zm-1.07,6a22.38,22.38,0,0,1-1.61-1.69,6.16,6.16,0,0,0-1.58-1.44,2,2,0,0,0-1.74.06,2.49,2.49,0,0,0-1.2,1.24,1.84,1.84,0,0,0,0,1.62,2.82,2.82,0,0,0,1.56,1.33,2.78,2.78,0,0,0,1.71.12,10.06,10.06,0,0,0,2-.84Z"/><path class="cls-2" d="M249.45,95.62l21.69-8.71,1.37,3.4L250.81,99Z"/><path class="cls-2" d="M253.57,106.61l22.5-5.6.93,3.75-18.67,4.64,2.31,9.31-3.82,1Z"/><path class="cls-2" d="M274.48,124.39l-3.53.53-.37-2.47-6.75,1a22.23,22.23,0,0,0-2.38.43,1,1,0,0,0-.51.41,1,1,0,0,0-.13.65,4.06,4.06,0,0,0,.65,1.39l-3.39.83a6.16,6.16,0,0,1-1.1-2.76,3.86,3.86,0,0,1,.14-1.83,2.74,2.74,0,0,1,.86-1.31,4.7,4.7,0,0,1,1.65-.77,26.34,26.34,0,0,1,3.11-.59l7.3-1.11-.26-1.66,3.53-.54.26,1.67,3.32-.51L280,121l-5.91.9Z"/><path class="cls-2" d="M258.68,140.41l-.2-3.4,2.48-.14a6.08,6.08,0,0,1-2.28-1.87,4.41,4.41,0,0,1-.84-2.28,5,5,0,0,1,2.1-4.22,11,11,0,0,1,6.45-2.09q4.31-.25,6.64,1.27a5,5,0,0,1,2.48,4,4.9,4.9,0,0,1-2.12,4.15l8.41-.5L282,139Zm8.24-10.28A9.2,9.2,0,0,0,263,131a2.74,2.74,0,0,0-1.61,2.58,2.57,2.57,0,0,0,1.44,2.07,7.19,7.19,0,0,0,4,.65,7.86,7.86,0,0,0,4.14-1.11,2.55,2.55,0,0,0,1.15-2.27,2.59,2.59,0,0,0-1.39-2.11A6.71,6.71,0,0,0,266.92,130.13Z"/><path class="cls-2" d="M258.48,142.48l4.48,0,0,3.66-4.48,0Z"/></g></g></svg>