<svg xmlns="http://www.w3.org/2000/svg" viewBox="0 0 73.57 18.56"><defs><style>.cls-1{fill:#0d67b2;}.cls-2{fill:#7ec242;}.cls-3{fill:#fff;}.cls-4{fill:#1068b2;}</style></defs><title>Asset 4</title><g id="Layer_2" data-name="Layer 2"><g id="Layer_1-2" data-name="Layer 1"><path class="cls-1" d="M30,17.21l.79-5.65h1.05l-.33,2.33H34.3l.32-2.33h1.05l-.79,5.65H33.83l.34-2.41H31.39l-.34,2.41Z"/><path class="cls-1" d="M38.29,13.06c1.26,0,1.8.65,1.62,1.93a4.64,4.64,0,0,1-.11.51H37.05c-.08.59.31.88,1.16.88a6.83,6.83,0,0,0,1.27-.12l-.11.83a6.63,6.63,0,0,1-1.35.12c-1.5,0-2.16-.71-2-2.12A2.06,2.06,0,0,1,38.29,13.06Zm-1.14,1.72h1.77v0c.08-.58-.16-.86-.74-.86A1,1,0,0,0,37.15,14.78Z"/><path class="cls-1" d="M40.37,15.92c.11-.83.77-1.24,2-1.24a4.58,4.58,0,0,1,.83.08l0-.31c.05-.37-.19-.56-.73-.56a7,7,0,0,0-1.53.2l.11-.83a7.15,7.15,0,0,1,1.54-.2c1.23,0,1.78.46,1.65,1.37l-.39,2.78h-.6L43,16.84a2.39,2.39,0,0,1-1.25.37C40.69,17.21,40.24,16.78,40.37,15.92Zm1.87-.53c-.5,0-.78.17-.83.52s.14.55.56.55a1.81,1.81,0,0,0,1-.33l.09-.66A4.25,4.25,0,0,0,42.24,15.39Z"/><path class="cls-1" d="M46.7,11.56l-.79,5.65h-1l.79-5.65Z"/><path class="cls-1" d="M47.51,12.39h.77l.07.67h1l-.12.83h-.92l-.27,1.91c-.06.39.08.58.42.58h.42l-.11.83h-.93c-.7,0-1-.37-.89-1.12Z"/><path class="cls-1" d="M49.52,17.21l.79-5.65h1l-.29,2a1.9,1.9,0,0,1,1.33-.53c1,0,1.4.51,1.25,1.54l-.36,2.61h-1l.37-2.61c.06-.46-.13-.69-.59-.69a1.71,1.71,0,0,0-1.05.41l-.41,2.89Z"/><path class="cls-1" d="M60.68,17a4.85,4.85,0,0,1-1.7.28c-2,0-2.9-1-2.62-2.94s1.4-2.78,3.43-2.78a4.43,4.43,0,0,1,1.62.27l-.14.95a3.58,3.58,0,0,0-1.53-.32,2,2,0,0,0-2.3,1.88c-.19,1.35.4,2,1.75,2A4.22,4.22,0,0,0,60.81,16Z"/><path class="cls-1" d="M61.52,15.92c.12-.83.77-1.24,2-1.24a4.78,4.78,0,0,1,.84.08l0-.31c0-.37-.19-.56-.72-.56a7,7,0,0,0-1.54.2l.12-.83a7,7,0,0,1,1.53-.2c1.23,0,1.79.46,1.66,1.37L65,17.21h-.61l-.32-.37a2.36,2.36,0,0,1-1.24.37C61.84,17.21,61.4,16.78,61.52,15.92Zm1.87-.53c-.5,0-.77.17-.82.52s.13.55.55.55a1.76,1.76,0,0,0,1-.33l.1-.66A4.44,4.44,0,0,0,63.39,15.39Z"/><path class="cls-1" d="M66,17.21l.58-4.15h.81l0,.53a1.93,1.93,0,0,1,1.23-.53l-.12.85a1.63,1.63,0,0,0-1.11.48l-.4,2.82Z"/><path class="cls-1" d="M71,13.06c1.26,0,1.8.65,1.62,1.93a4.64,4.64,0,0,1-.11.51H69.79c-.09.59.3.88,1.16.88a6.91,6.91,0,0,0,1.27-.12l-.11.83a6.63,6.63,0,0,1-1.35.12c-1.51,0-2.16-.71-2-2.12A2.06,2.06,0,0,1,71,13.06Zm-1.14,1.72h1.77v0c.08-.58-.17-.86-.75-.86A1,1,0,0,0,69.89,14.78Z"/><path class="cls-1" d="M30.13,9.91l.23-1.61a8.43,8.43,0,0,0,3.14.54c1.45,0,2.25-.49,2.39-1.47.1-.72-.3-1.07-1.19-1.07H33.22c-1.94,0-2.78-.89-2.53-2.68Q31.1.68,35.24.68a9,9,0,0,1,2.94.47L38,2.75A8,8,0,0,0,35,2.22c-1.59,0-2.45.47-2.58,1.4-.1.72.23,1.07,1,1.07h1.49q3.09,0,2.71,2.68c-.28,2-1.73,3-4.35,3A9.77,9.77,0,0,1,30.13,9.91Z"/><path class="cls-1" d="M40.22,10.31h-1.8L43.78.75h1.89l2.76,9.56H46.54L45.83,7.7h0l-.42-1.54h0l-1-3.59Z"/><path class="cls-1" d="M64.25.75,62.9,10.31H61.15L62.49.75Z"/><path class="cls-1" d="M67.9.75l-1.34,9.56H64.8L66.15.75Zm5.67,0L68.9,5.21l3.75,5.1H70.22l-3-4.47.17-1.15L71.42.75Z"/><path class="cls-1" d="M56.27.78H56.1l-5.8.5-.11.77,1.35-.18-1.21,8.56h4.5a5.69,5.69,0,0,0,5.42-4.83h0A4.06,4.06,0,0,0,56.27.78ZM58.2,6.07a4.11,4.11,0,0,1-4,3.47h-.87a1,1,0,0,1-1-1.14l1-6.7,2-.07a2.94,2.94,0,0,1,3,3.47Z"/><path class="cls-1" d="M42.81,6a5.64,5.64,0,0,1,3.64,3.68L48,9.2a6.55,6.55,0,0,0-4.71-4.06Z"/><path class="cls-1" d="M56.27.78a36.43,36.43,0,0,0-6,.51s.72.28.8.34S56.27.78,56.27.78Z"/><path class="cls-2" d="M18.05,9.39c0-1.22-.73-1.84-2.17-1.84H14.41c-2.39,0-3.59-1-3.59-3.11a3.49,3.49,0,0,1,.09-.82h0A2.61,2.61,0,0,0,8.29,6.23v4.12h3.44v.72a11.54,11.54,0,0,0,3.37.48C17.06,11.55,18.05,10.83,18.05,9.39Z"/><path class="cls-2" d="M11.73,12.39v1.37h4.84a1.89,1.89,0,0,0,1.89-1.89h0a5.38,5.38,0,0,1-3.36.87A15.15,15.15,0,0,1,11.73,12.39Z"/><path class="cls-2" d="M18.45,1.33V0H13.74a2,2,0,0,0-2,2h0A5.42,5.42,0,0,1,15.4,1,14.21,14.21,0,0,1,18.45,1.33Z"/><path class="cls-2" d="M21.9,3.62H18.46V2.78a11.13,11.13,0,0,0-3.05-.42c-2.07,0-3.11.7-3.11,2.08,0,1.22.7,1.84,2.11,1.84h1.47c2.43,0,3.64,1,3.64,3.11a4.15,4.15,0,0,1-.11,1h0A2.49,2.49,0,0,0,21.9,7.86Z"/><path class="cls-3" d="M15.88,6.28H14.41c-1.41,0-2.11-.62-2.11-1.84,0-1.38,1-2.08,3.11-2.08a11.13,11.13,0,0,1,3.05.42V1.48a14.14,14.14,0,0,0-3.05-.31,5.42,5.42,0,0,0-3.68,1V3.62h-.82a3.49,3.49,0,0,0-.09.82c0,2.08,1.2,3.11,3.59,3.11h1.47c1.44,0,2.17.62,2.17,1.84,0,1.44-1,2.16-3,2.16a11.54,11.54,0,0,1-3.37-.48v1.32a15.15,15.15,0,0,0,3.37.35,5.38,5.38,0,0,0,3.36-.87V10.35h.95a4.15,4.15,0,0,0,.11-1C19.52,7.31,18.31,6.28,15.88,6.28Z"/><path class="cls-4" d="M11.23,10.87a13.3,13.3,0,0,0,3.49.3,5.61,5.61,0,0,0,1.62-.24,1.51,1.51,0,0,0,1-.81,1.66,1.66,0,0,0,.1-.64,1.56,1.56,0,0,0-.11-.64A.77.77,0,0,0,17,8.46a1.42,1.42,0,0,0-.57-.18l-.36,0H13.86a7.07,7.07,0,0,1-1-.14,4.29,4.29,0,0,1-1-.38A3.53,3.53,0,0,1,11,7a3.57,3.57,0,0,1-.58-1,4,4,0,0,1-.22-1,5.78,5.78,0,0,1,0-1,4.1,4.1,0,0,1,.26-1A3.22,3.22,0,0,1,11,2a3.33,3.33,0,0,1,.4-.36l.22-.16.23-.13A4.92,4.92,0,0,1,13.76.81a11.56,11.56,0,0,1,1.86,0,11.79,11.79,0,0,1,3.52.81l0,.07a13.78,13.78,0,0,0-3.5-.46,10.35,10.35,0,0,0-1.76.12,4.38,4.38,0,0,0-1.65.57L12,2l-.17.13c-.11.09-.2.2-.31.3a2.44,2.44,0,0,0-.43.75,3.58,3.58,0,0,0-.18,1.72,3.41,3.41,0,0,0,.19.84,2.64,2.64,0,0,0,.44.74,2.62,2.62,0,0,0,.68.52,3.36,3.36,0,0,0,.82.3,7.27,7.27,0,0,0,1.75.15h.89a5.33,5.33,0,0,1,.89.06,2,2,0,0,1,.85.34A1.41,1.41,0,0,1,18,8.6a2.14,2.14,0,0,1,.12.9,2.14,2.14,0,0,1-.2.89,2.07,2.07,0,0,1-1.42,1,5.91,5.91,0,0,1-1.78.15,11.23,11.23,0,0,1-3.49-.65Z"/><path class="cls-3" d="M14,5.56V3.13h.45v1h1.2v-1h.45V5.56h-.45v-1h-1.2v1Z"/><path class="cls-3" d="M16.1,10.8a2,2,0,0,1-.72.12,1.14,1.14,0,0,1-1.31-1.27c0-.8.44-1.2,1.31-1.2a2,2,0,0,1,.72.12V9a1.73,1.73,0,0,0-.69-.13c-.58,0-.87.27-.87.8a.77.77,0,0,0,.87.88,1.73,1.73,0,0,0,.69-.13Z"/><path class="cls-1" d="M7.1,3.29s-9.94.93-.22,8.25a31.55,31.55,0,0,0,14.42,4.9A30.91,30.91,0,0,1,4.41,12.33C3.55,11.8-6.57,4.6,7.1,3.29Z"/><path class="cls-2" d="M19.84,11.84s.3.09.77.26l.51.19c1.71.78,3.62,1.51,4.95,2.92a3,3,0,0,1,.21.33,1.12,1.12,0,0,1,.12.35,1,1,0,0,1,0,.49c-1,1.57-3.09,1.29-4.68,1.4h-.43c-2.78,0-7-.6-13.52-2.43a46.16,46.16,0,0,0,13.75,3.11h.42a11.66,11.66,0,0,0,5.43-.5,1.45,1.45,0,0,0,.41-.33,1.72,1.72,0,0,0,.3-.47c.38-1-.51-1.77-1.41-2.33l-.45-.27a39.51,39.51,0,0,0-5.27-2.35l-.35-.13Z"/></g></g></svg>