<svg xmlns="http://www.w3.org/2000/svg" viewBox="0 0 746.94 250.11"><defs><style>.cls-1{fill:#e02117;}</style></defs><title>Asset 2</title><g id="Layer_2" data-name="Layer 2"><g id="Layer_1-2" data-name="Layer 1"><path class="cls-1" d="M115.79,102.53a28.91,28.91,0,0,0-8.42-9.32,49.05,49.05,0,0,0-12.63-6.68,81.8,81.8,0,0,0-14.66-3.76A118.83,118.83,0,0,1,37.73,68.06a11.11,11.11,0,0,1-3.59-3.82,10.29,10.29,0,0,1-1.91-5.62A62.35,62.35,0,0,1,35.54,38.8Q38.86,28.86,44,23.25,52.33,13.93,74,7t48.68-7q16.17,0,25,2.47t8.82,7.64q0,8.42-2.3,13t-4.94,6.12a77.3,77.3,0,0,1-9.27,4.1,96.07,96.07,0,0,0-12.3,5.17,94,94,0,0,0-8.93,5.17q-3.71,2.47-4.6,2.47c-.75,0-1.12-.3-1.12-.9q0-1.91,4-5.78a39,39,0,0,1,9.83-6.79Q133,29.43,133,28.53q0-1.46-6.85-1.46a186.78,186.78,0,0,0-38.41,3.71q-17.63,3.71-27.8,9.77T49.75,52.9q0,3.93,4.21,5.56T72.55,63.9a181,181,0,0,1,25.72,8.76q16.28,7,24.15,14.49T130.27,104a29.61,29.61,0,0,1-3.09,12.86,38.34,38.34,0,0,1-9,11.85,52,52,0,0,1-13.7,8.87,112.5,112.5,0,0,1-16.68,5.28A182.68,182.68,0,0,1,66,146.73a189.17,189.17,0,0,1-22.4,1.4q-19.65,0-31.61-3.71T0,133.19q0-3.37,4-10.5t9.55-9.6a30.58,30.58,0,0,1,9.32-2.19q4.49-.28,4.49,1.07a1,1,0,0,1-.34.67,3,3,0,0,1-.79.56l-.9.45q-2.25.9-3.65,1.4a13,13,0,0,0-2.25,1,1.57,1.57,0,0,0-.84,1.4q0,2.36,23.25,2.36A305.41,305.41,0,0,0,75,118.37a91.89,91.89,0,0,0,22.8-5.28A63.76,63.76,0,0,0,115.79,102.53Z"/><path class="cls-1" d="M201.81,99.61v8.2q-10.89,14-20.33,21.17t-16.06,7.13q-9.21,0-13.7-9.66a49.44,49.44,0,0,1-4.49-21.11,37.88,37.88,0,0,1,.9-8.37,31.43,31.43,0,0,1,2.13-6.57q1.23-2.58,4.6-8.09,15.94-24.82,29.2-24.82,6.85,0,6.85,5.28,0,3.6-4.44,11.23T178.56,84.9A177.57,177.57,0,0,0,165.82,98a13.09,13.09,0,0,0-3,8.42,8.64,8.64,0,0,0,3,6.74,11.39,11.39,0,0,0,7.86,2.7q5.28,0,11.62-3.87A143.08,143.08,0,0,0,201.81,99.61Zm-7.64-50.2a8.15,8.15,0,0,1-5.33-2.13,6.75,6.75,0,0,1-2.53-5.39q0-4.94,4.72-11t9.77-6.06a8,8,0,0,1,5.62,2.08,7.78,7.78,0,0,1,2.25,6q0,4.83-4.6,10.67T194.18,49.41Z"/><path class="cls-1" d="M290.08,107.14,252.8,137.8Q237.07,165,224.16,178.4T205,191.82q-3.37,0-3.37-4.16,0-8.09,8.2-20.66a83.31,83.31,0,0,1,7.47-9.66,110.59,110.59,0,0,1,8-8.14q3.76-3.43,9.94-8.54t8.42-7q11.23-22.91,16.17-35Q249.2,109.83,241.34,117a89.37,89.37,0,0,1-14.43,11.06Q220.34,132,215.06,132q-5.73,0-10.56-9.15A39.84,39.84,0,0,1,199.68,104a24.32,24.32,0,0,1,2.08-9.43A46.43,46.43,0,0,1,208.27,84a84.92,84.92,0,0,1,11.29-11.51A121.78,121.78,0,0,1,235.61,61Q253,50.09,262.68,50.09q7.19,0,7.19,5.28,0,7.3-15.61,14.26a99.54,99.54,0,0,0-18.92,11,71.53,71.53,0,0,0-15.16,14.54q-5.79,7.69-5.78,13.87a7.43,7.43,0,0,0,1.46,4.83,4.68,4.68,0,0,0,3.82,1.8q3.93,0,9-3.59a174,174,0,0,0,14.94-12.69,133.81,133.81,0,0,0,12-13.42A185.68,185.68,0,0,1,267.9,71.82q4.89-4.89,8.82-4.89a4.94,4.94,0,0,1,3.65,1.4,5.56,5.56,0,0,1,1.4,4.1q0,5.17-4.1,15T262.9,119.6l27.18-19.77Z"/><path class="cls-1" d="M365,79.29q-19.77,22-19.77,30.66,0,4.83,3.93,4.83,3.26,0,8.48-3.43T374,99.17v7.75Q358,122.64,349.49,129.6t-13.93,7q-9.21,0-9.21-12.13a22.91,22.91,0,0,1,1.12-7.08,46.56,46.56,0,0,1,3.09-7.24q2-3.76,6-10.78t9.32-15.89q-6.4,3.26-16.06,12.92a125.18,125.18,0,0,0-10.67,11.51q-4.38,5.45-9.38,12.13a95.39,95.39,0,0,1-7.3,9,6.67,6.67,0,0,1-4.66,2.3q-3.6,0-6.63-7.52a46.65,46.65,0,0,1-3-17.52,26.57,26.57,0,0,1,1.4-9.66,64.6,64.6,0,0,1,5.56-9.88q7.75-11.9,13.36-17.46t10.78-5.56a11.75,11.75,0,0,1,5.78,1.24,4.09,4.09,0,0,1,2.19,3.82,4.93,4.93,0,0,1-.67,2.36,13.88,13.88,0,0,1-1.52,2.25q-.84,1-3.54,3.93-17.75,19.65-17.74,25.49,0,3.26,2.13,3.26,1.35,0,5.22-4.32t10-11.34a182.39,182.39,0,0,1,14.49-14.66,156.16,156.16,0,0,1,19-14.71q6-4.15,9.88-4.16,1.79,0,3.54,4.94a29.91,29.91,0,0,1,1.74,10Q369.82,74.23,365,79.29Z"/><path class="cls-1" d="M386.44,79.51q17.07-15.5,33.13-23T444.39,49a6.2,6.2,0,0,1,4.38,2,15,15,0,0,1,3.2,4.55,10.62,10.62,0,0,1,1.18,3.82,3.23,3.23,0,0,1-1.57,3,31.33,31.33,0,0,1-5.5,2.3l2,4.6Q449.33,72,450,73.73a8.71,8.71,0,0,1,.67,3.09q0,2.7-5.45,10.05T437.6,97.71a15.72,15.72,0,0,0-2.19,8.54q0,8.31,7.64,8.31,7.86,0,24.59-14.71v6.85Q439.22,138.25,427,138.25q-4.38,0-6.23-2.86t-1.85-8.48q0-8.87,6.4-25.72-16.4,18.19-24.37,25.89t-13.14,7.69q-2.47,0-6.18-4.27A41.15,41.15,0,0,1,375,119.44a35.94,35.94,0,0,1-2.86-14.09,32.64,32.64,0,0,1,1-8.82,21.35,21.35,0,0,1,3.93-7.24A100,100,0,0,1,386.44,79.51Zm53.79-12.35Q411,80.52,398.62,89.84T386.22,109a12.38,12.38,0,0,0,1.24,5.9,3.74,3.74,0,0,0,3.37,2.3,12.25,12.25,0,0,0,4.38-1.57,88.25,88.25,0,0,0,21.56-18.14Q426.53,86.36,440.23,67.16Z"/><path class="cls-1" d="M506,41.33h4.83q6-10.67,10.78-15.1a15.82,15.82,0,0,1,11-4.44q6.17,0,6.18,2.81,0,1.35-4.83,7.3a96.93,96.93,0,0,0-7.3,10l6.79.79q3,.34,4.66.56A176.71,176.71,0,0,1,522.1,67.61l-5.28-.39-4.32-.34-5.33-.39Q501.1,76.25,497,83.95A97.36,97.36,0,0,0,490.72,98a37.48,37.48,0,0,0-2.19,12.13q0,7.75,6.18,7.75,4.27,0,11.17-4.55t18.47-14v7.52Q494,139.82,479.54,139.82a9.85,9.85,0,0,1-8.14-3.93,15.86,15.86,0,0,1-3.09-10.11,34.77,34.77,0,0,1,1.74-9.88q1.74-5.73,6.23-17.29-1.57,1.35-3,2.64l-2.58,2.36q-1.18,1.07-2.53,2.25t-2.7,2.41v-7.75Q477.3,90.63,494,65.81q-1.68-.11-3.14-.17t-3.48-.06a40.11,40.11,0,0,0-9.88.9q-1.35.34-2.53.73a6.28,6.28,0,0,1-1.63.39q-.45,0-.45-.67,0-3.71,4.6-11.12a41,41,0,0,1,7-9.32,17.33,17.33,0,0,1,8.09-4.1A65,65,0,0,1,506,41.33Z"/><path class="cls-1" d="M577,92q-16.28,21.56-24.76,30.66t-13.87,9.1a11,11,0,0,1-7.86-3.54,23.23,23.23,0,0,1-5.56-9.54,41.1,41.1,0,0,1-2-12.86,35.61,35.61,0,0,1,.84-8.09,32.24,32.24,0,0,1,3.2-7.92,73.82,73.82,0,0,1,6.23-9.38q3.88-5.05,9.49-11.46l5.67-6.63a13.1,13.1,0,0,1,4.49-3.65,19.28,19.28,0,0,1,7.13-1,24.28,24.28,0,0,1,6.85,1q3.26,1,3.26,2,0,2-3.31,7.3A83.89,83.89,0,0,1,556.19,80.8a147.93,147.93,0,0,1-17,14.88Q537,102.31,537,105.79q0,4.83,3.71,4.83,1.35,0,4.49-2.3t10.61-8.87q7.47-6.57,13.42-11.62a79.11,79.11,0,0,0,10.16-11.4q5.78-7.58,9.38-11.4,8.31-8.76,11.34-11.4A9.09,9.09,0,0,1,606,51q2.7,0,3.65,1.68t1,6.85a13.37,13.37,0,0,1-.45,3.82,17.86,17.86,0,0,1-1.85,3.76q-1.4,2.3-5.67,8.48l-10.11,14.6A57.93,57.93,0,0,0,587,100q-2.36,5.33-2.36,8,0,5.84,4.6,5.84,3.82,0,8.87-3.14t15.5-11.34v7.52Q600.49,119,594.2,124.55a82.84,82.84,0,0,1-10.89,8.31,16.92,16.92,0,0,1-8.76,2.81q-9.43,0-9.43-11.23,0-4.27,2.81-11.51T577,92Z"/><path class="cls-1" d="M611.5,108.26V101a110.28,110.28,0,0,0,9.21-12.24,12.37,12.37,0,0,1-5.22-3,7.8,7.8,0,0,1-1.63-5.39q0-4,3.37-10.22a58.62,58.62,0,0,1,8.31-11.57q4.94-5.39,9-7a6.78,6.78,0,0,1,3-.79q2.25,0,2.25,2.13,0,1.91-3.48,7.75,23.13-3.59,29.2-3.59a8.13,8.13,0,0,1,3.26.45q1.91,1,3.14,4.72a23.33,23.33,0,0,1,1.24,7.41,8.7,8.7,0,0,1-2.08,5.11,102,102,0,0,1-7.13,8,66.85,66.85,0,0,0-10,13.93q-4,7.52-4,11.34,0,5.28,6.51,5.28,6.85,0,23.81-13.93v7.52q-9.32,9.77-15.39,15.39a82.42,82.42,0,0,1-11.23,8.93q-5.17,3.31-9.21,3.31a9.4,9.4,0,0,1-7.86-4.32q-3.15-4.32-3.14-12.52a30.14,30.14,0,0,1,2.47-11,76.26,76.26,0,0,1,7.24-13.42,164.69,164.69,0,0,1,10.73-14.43q-3.15.67-7.08,1.4l-8.31,1.52q-4.38.79-6.74,1.24A81,81,0,0,1,611.5,108.26Z"/><path class="cls-1" d="M697.75,103.66v2.81q0,6.63,3.26,10.33a10.82,10.82,0,0,0,8.54,3.71,28.32,28.32,0,0,0,11.4-2.58,62.32,62.32,0,0,0,11.74-6.85q5.84-4.27,14.26-11.46v6.85q-12.69,15.27-23.81,23.42T700.56,138a18.78,18.78,0,0,1-15.83-7.75q-5.84-7.75-5.84-21.23a42.25,42.25,0,0,1,5.5-21.39q5.5-9.6,18-20.27a69.38,69.38,0,0,1,17-11q8.42-3.71,15-3.71,5.28,0,8.37,2.41t3.09,7.24q0,7.08-5.28,14.09T724.42,90.35A165.12,165.12,0,0,1,697.75,103.66Zm1.12-7.3a63.93,63.93,0,0,0,17.29-9.77,49.78,49.78,0,0,0,10.61-11.17q3.42-5.33,3.42-7.81T727.85,65q-2,0-6.57,2.58a54.32,54.32,0,0,0-9.21,6.74,49.63,49.63,0,0,0-8.37,9.77A31.55,31.55,0,0,0,698.87,96.36Z"/><path class="cls-1" d="M36.92,214.32l-2.84,3.61a17.42,17.42,0,0,0-12.26-5.21,16.36,16.36,0,1,0,0,32.71,18.09,18.09,0,0,0,12.26-5l2.9,3.26a22.91,22.91,0,0,1-15.41,6.4,21.09,21.09,0,0,1-21.45-21c0-11.61,9.6-20.8,21.63-20.8A22.42,22.42,0,0,1,36.92,214.32Z"/><path class="cls-1" d="M126.09,229.13c0,11.67-9.6,21-21.69,21s-21.74-9.3-21.74-21,9.6-20.86,21.74-20.86S126.09,217.46,126.09,229.13Zm-38.63,0c0,9.12,7.7,16.41,16.95,16.41a16.39,16.39,0,1,0,0-32.77C95.16,212.78,87.46,220,87.46,229.13Z"/><path class="cls-1" d="M199.74,245.37v4.5H176.81V208.4h4.74v37Z"/><path class="cls-1" d="M272.44,245.37v4.5H249.51V208.4h4.74v37Z"/><path class="cls-1" d="M326.95,213v13.63h20.92v4.56H326.95v14.22h24.17v4.5H322.21V208.4h28.14V213Z"/><path class="cls-1" d="M435.73,214.32l-2.84,3.61a17.42,17.42,0,0,0-12.26-5.21,16.36,16.36,0,1,0,0,32.71,18.08,18.08,0,0,0,12.26-5l2.9,3.26a22.9,22.9,0,0,1-15.4,6.4,21.09,21.09,0,0,1-21.45-21c0-11.61,9.6-20.8,21.63-20.8A22.43,22.43,0,0,1,435.73,214.32Z"/><path class="cls-1" d="M499,213v36.91h-4.74V213H480.76V208.4h31.82V213Z"/><path class="cls-1" d="M561.52,249.87V208.4h4.74v41.47Z"/><path class="cls-1" d="M660.4,229.13c0,11.67-9.6,21-21.69,21s-21.74-9.3-21.74-21,9.6-20.86,21.74-20.86S660.4,217.46,660.4,229.13Zm-38.63,0c0,9.12,7.7,16.41,16.95,16.41a16.39,16.39,0,1,0,0-32.77C629.48,212.78,621.77,220,621.77,229.13Z"/><path class="cls-1" d="M740.75,249.87l-24.88-33.3v33.3h-4.74V208.4H716l24.88,33.36V208.4h4.68v41.47Z"/></g></g></svg>