<svg xmlns="http://www.w3.org/2000/svg" xmlns:xlink="http://www.w3.org/1999/xlink" viewBox="0 0 89.19 89.19"><defs><style>.cls-1{fill:#ddc32f;}.cls-2{fill:#84264f;}.cls-3{fill:#be2941;}.cls-4{fill:#391b0c;}.cls-5{fill:#774129;}.cls-6{fill:#f1dcc4;}.cls-7{fill:url(#linear-gradient);}.cls-8{fill:url(#radial-gradient);}.cls-9{fill:#fff;}</style><linearGradient id="linear-gradient" x1="38.99" y1="34.39" x2="55.82" y2="34.39" gradientUnits="userSpaceOnUse"><stop offset="0" stop-color="#ddc32f"/><stop offset="0.06" stop-color="#dec434"/><stop offset="0.12" stop-color="#e0c841"/><stop offset="0.18" stop-color="#e4cf58"/><stop offset="0.25" stop-color="#e9d878"/><stop offset="0.32" stop-color="#f0e4a0"/><stop offset="0.39" stop-color="#f8f2d2"/><stop offset="0.45" stop-color="#fff"/><stop offset="0.51" stop-color="#f7f1cf"/><stop offset="0.56" stop-color="#f0e5a5"/><stop offset="0.62" stop-color="#eada80"/><stop offset="0.68" stop-color="#e5d263"/><stop offset="0.75" stop-color="#e2cb4c"/><stop offset="0.82" stop-color="#dfc73c"/><stop offset="0.9" stop-color="#ddc432"/><stop offset="1" stop-color="#ddc32f"/></linearGradient><radialGradient id="radial-gradient" cx="34.08" cy="30.77" r="8.01" gradientUnits="userSpaceOnUse"><stop offset="0" stop-color="#f7d591"/><stop offset="0.45" stop-color="#fff"/><stop offset="1" stop-color="#f4d8af"/></radialGradient></defs><title>logo_2</title><g id="Layer_2" data-name="Layer 2"><g id="Layer_1-2" data-name="Layer 1"><circle class="cls-1" cx="44.6" cy="44.6" r="44.6"/><circle class="cls-2" cx="44.6" cy="44.6" r="43.54"/><circle class="cls-1" cx="44.6" cy="44.6" r="32.13"/><circle class="cls-3" cx="44.6" cy="44.6" r="30.86"/><path class="cls-4" d="M26.65,57.19S23.47,51.35,28,48l36-3.35V47a5.34,5.34,0,0,0,0,2.54,17.12,17.12,0,0,1,.68,2.87L52.39,60.06Z"/><rect class="cls-5" x="28.79" y="48.52" width="16.53" height="1.36" transform="translate(5.72 -3.83) rotate(6.4)"/><rect class="cls-5" x="46.47" y="49.99" width="4.95" height="1.36" transform="translate(5.96 -5.14) rotate(6.4)"/><rect class="cls-5" x="50.68" y="49.1" width="4.95" height="1.36" transform="translate(-17.77 33.25) rotate(-30)"/><rect class="cls-5" x="29.35" y="54.16" width="11.1" height="1.36" transform="translate(6.34 -3.55) rotate(6.4)"/><rect class="cls-5" x="30.24" y="51.53" width="11.1" height="1.36" transform="translate(6.05 -3.67) rotate(6.4)"/><rect class="cls-5" x="49.77" y="53.35" width="1.75" height="1.36" rx="0.68" ry="0.68" transform="translate(6.34 -5.31) rotate(6.4)"/><rect class="cls-5" x="58.68" y="51.53" width="1.75" height="1.36" rx="0.68" ry="0.68" transform="translate(-15.08 25.72) rotate(-21.7)"/><rect class="cls-5" x="49.77" y="55.93" width="1.75" height="1.36" rx="0.68" ry="0.68" transform="translate(6.63 -5.3) rotate(6.4)"/><polygon class="cls-6" points="28.02 48 41.08 42.68 63.99 44.65 51.61 51.2 28.02 48"/><path class="cls-7" d="M37.73,32.6s9.73,2.93,16.68.13c.13.28-3.22,4-8.67,3.38S36.84,33.68,37.73,32.6Z"/><ellipse class="cls-4" cx="46.36" cy="31.82" rx="8.05" ry="1.58"/><path class="cls-4" d="M58.07,32.92s-9.22,3.95-11.34,4C45.07,37,36,34.07,36,34.07c1.47,2.28,5,3.67,7.39,4.39a2,2,0,0,0-1.14,1.83,2.07,2.07,0,0,0,2.06,2.07,2,2,0,0,0,.82-.17v2.37l-1.71,2.25h7.24l-1.71-2.25V42.24a4.65,4.65,0,0,0,2.29,1.68l.48-.52c-.89-.08-2.07-1.42-2.77-2.31V38.88C55.68,37.22,58.07,32.92,58.07,32.92ZM44.3,41.79a1.51,1.51,0,0,1,0-3,1.21,1.21,0,0,1,.82.34v2.31A1.21,1.21,0,0,1,44.3,41.79Z"/><path class="cls-8" d="M37.24,27.63c.57,1.22.08,5.28-2.33,6.4s-5.83-1.12-6.4-2.34c-1.12-2.41-.3-6.1,2.11-7.22S36.12,25.22,37.24,27.63Z"/><circle class="cls-6" cx="42.06" cy="41.82" r="0.75"/><path class="cls-6" d="M51.23,43.92l.48-.52.83.07A.88.88,0,0,1,51.23,43.92Z"/><path class="cls-6" d="M58.07,32.92s3.78-.48,3.78-1.1V33.4S56.87,34.55,58.07,32.92Z"/><path class="cls-9" d="M25.77,76.58l-1.18-.67a1.61,1.61,0,0,0,.17-1.1,1.47,1.47,0,0,0-.64-.83,1.52,1.52,0,0,0-1-.34.82.82,0,0,0-.65.34.57.57,0,0,0-.12.42,1.06,1.06,0,0,0,.24.53c.1.14.34.43.73.88a3.8,3.8,0,0,1,.89,1.45A1.77,1.77,0,0,1,24,78.75a1.72,1.72,0,0,1-.8.63,1.78,1.78,0,0,1-1.1.08,3.33,3.33,0,0,1-1.24-.57,2.86,2.86,0,0,1-1.27-1.58,2,2,0,0,1,.3-1.63l1.17.75a1.19,1.19,0,0,0-.12.84,1.49,1.49,0,0,0,.58.69,1.55,1.55,0,0,0,.92.33.47.47,0,0,0,.42-.22.49.49,0,0,0,.07-.46,3.72,3.72,0,0,0-.78-1.1,7.14,7.14,0,0,1-.94-1.26,1.88,1.88,0,0,1-.22-1,2,2,0,0,1,.4-1,1.89,1.89,0,0,1,.9-.72,2,2,0,0,1,1.2-.1A3.89,3.89,0,0,1,24.8,73a3,3,0,0,1,1.29,1.64A2.59,2.59,0,0,1,25.77,76.58Z"/><path class="cls-9" d="M18.3,71.19a2.68,2.68,0,0,1-1.16.6,2.17,2.17,0,0,1-1.31-.07A2.69,2.69,0,0,1,14.72,71a2.63,2.63,0,0,1,2.11-4.32,2.45,2.45,0,0,1,1.77.88,2.87,2.87,0,0,1,.63,1.18,2.06,2.06,0,0,1-.06,1.3A2.84,2.84,0,0,1,18.3,71.19Zm-.84-1a1.65,1.65,0,0,0,.62-1,1.15,1.15,0,0,0-1.15-1.3,1.66,1.66,0,0,0-1.08.5,1.58,1.58,0,0,0-.61,1,1.12,1.12,0,0,0,.28.91,1.1,1.1,0,0,0,.86.38A1.63,1.63,0,0,0,17.46,70.14Z"/><path class="cls-9" d="M14.35,61.76,11,65.89l-.66-1.21,1.78-2,.61-.64-.44.08-.43.08-2.68.38-.65-1.18,5.3-.65Z"/><path class="cls-9" d="M9.42,53.83l-.15-1.32a2.13,2.13,0,0,1,1.27.46,2.28,2.28,0,0,1,.74,1.21A2.2,2.2,0,0,1,11,56.25a2.81,2.81,0,0,1-1.5,1,2.71,2.71,0,0,1-2-.09,2.09,2.09,0,0,1-1.12-1.37,2.18,2.18,0,0,1,.21-1.88,3.24,3.24,0,0,1,2-1.21l.91,3.16a1.31,1.31,0,0,0,.78-.56,1,1,0,0,0,.11-.82A.85.85,0,0,0,10,54,1.06,1.06,0,0,0,9.42,53.83Zm-1.29.29a1.22,1.22,0,0,0-.75.53A.93.93,0,0,0,7.78,56a1.22,1.22,0,0,0,.89,0Z"/><path class="cls-9" d="M10,47.51l.11,1.3-4.94.43L5,48,5.72,48A2.12,2.12,0,0,1,5,47.45a.94.94,0,0,1-.2-.55A1.62,1.62,0,0,1,5,46l1.17.31A1.23,1.23,0,0,0,6,47a.74.74,0,0,0,.19.45,1,1,0,0,0,.58.26,7.84,7.84,0,0,0,1.66,0Z"/><path class="cls-9" d="M8.56,39.74l.36-1.27a2.12,2.12,0,0,1,1,.91,2.31,2.31,0,0,1,.23,1.39A2.19,2.19,0,0,1,9.1,42.58a2.84,2.84,0,0,1-1.75.31A2.73,2.73,0,0,1,5.5,42,2.12,2.12,0,0,1,5,40.34a2.23,2.23,0,0,1,.91-1.66,3.26,3.26,0,0,1,2.3-.36l-.36,3.27a1.34,1.34,0,0,0,.94-.22,1,1,0,0,0,.41-.72.79.79,0,0,0-.12-.53A1,1,0,0,0,8.56,39.74Zm-1.31-.21a1.18,1.18,0,0,0-.89.2.89.89,0,0,0-.37.64.9.9,0,0,0,.23.74,1.24,1.24,0,0,0,.82.37Z"/><path class="cls-9" d="M5.69,33.66l-1.17-.35.38-1.25,1.16.34Zm5.4,1.61L6.33,33.85l.38-1.26L11.46,34Z"/><path class="cls-9" d="M12.92,30.85l.85-1.25a.51.51,0,0,0,.4,0,.93.93,0,0,0,.4-.46,1.51,1.51,0,0,0,.22-.75.69.69,0,0,0-.18-.39,2.08,2.08,0,0,0-.5-.33l-.65-.33a1.75,1.75,0,0,1,0,1.69,1.8,1.8,0,0,1-1.48,1,2.83,2.83,0,0,1-1.69-.36,2.71,2.71,0,0,1-1.41-1.41A1.92,1.92,0,0,1,9,26.66a1.82,1.82,0,0,1,1.42-1l-.62-.32.57-1.09,3.95,2.05a4.38,4.38,0,0,1,1.1.73,1.73,1.73,0,0,1,.42.68,1.92,1.92,0,0,1,0,.8,3.47,3.47,0,0,1-.39,1A2.84,2.84,0,0,1,14.28,31a1.38,1.38,0,0,1-1.22,0Zm-2-2.38a1.8,1.8,0,0,0,1.17.26,1,1,0,0,0,.67-.5,1.05,1.05,0,0,0,0-.9,1.66,1.66,0,0,0-.84-.81,1.72,1.72,0,0,0-1.16-.24,1,1,0,0,0-.7.54.93.93,0,0,0,0,.86A1.74,1.74,0,0,0,10.88,28.47Z"/><path class="cls-9" d="M19.7,20.22l-.86,1-1.92-1.65a3.82,3.82,0,0,0-.84-.61.73.73,0,0,0-.46,0,.66.66,0,0,0-.39.26,1,1,0,0,0-.13,1.19,4.66,4.66,0,0,0,.8.82l1.71,1.46-.86,1L13,20.42l.79-.92.55.47a2,2,0,0,1,.43-1.79,2,2,0,0,1,.64-.5,1.37,1.37,0,0,1,.66-.15,1.53,1.53,0,0,1,.58.16,4.26,4.26,0,0,1,.72.53Z"/><path class="cls-9" d="M25,13.06l1.13-.74a1.7,1.7,0,0,0,.9.66,1.55,1.55,0,0,0,1-.18,1.57,1.57,0,0,0,.76-.72.87.87,0,0,0,0-.74.66.66,0,0,0-.32-.3A1.16,1.16,0,0,0,28,11c-.17,0-.54.11-1.12.25a3.75,3.75,0,0,1-1.7.12A1.77,1.77,0,0,1,24,10.43a1.7,1.7,0,0,1-.19-1,1.79,1.79,0,0,1,.44-1,3.39,3.39,0,0,1,1.08-.83,2.93,2.93,0,0,1,2-.4,2,2,0,0,1,1.3,1l-1.2.69a1.14,1.14,0,0,0-.69-.5,1.37,1.37,0,0,0-.88.2,1.5,1.5,0,0,0-.72.65.53.53,0,0,0,.37.76,3.62,3.62,0,0,0,1.34-.18,6.26,6.26,0,0,1,1.55-.25,1.9,1.9,0,0,1,1,.27,2,2,0,0,1,.74.84,2.07,2.07,0,0,1,.22,1.13,2,2,0,0,1-.47,1.1,3.87,3.87,0,0,1-1.21.91,3,3,0,0,1-2,.39A2.59,2.59,0,0,1,25,13.06Z"/><path class="cls-9" d="M37.53,6.91l-1.2.54A.88.88,0,0,0,35.9,7a.89.89,0,0,0-.63,0,1,1,0,0,0-.67.51,1.69,1.69,0,0,0,0,1.17,2,2,0,0,0,.59,1.14A1,1,0,0,0,36,9.9a.9.9,0,0,0,.55-.35,1.37,1.37,0,0,0,.14-.79L38,8.65a2.33,2.33,0,0,1-.42,1.49,2.38,2.38,0,0,1-1.37.81,2.27,2.27,0,0,1-1.86-.24A2.67,2.67,0,0,1,33.3,9a2.65,2.65,0,0,1,.17-2A2.3,2.3,0,0,1,35,5.92a2.36,2.36,0,0,1,1.5,0A2.1,2.1,0,0,1,37.53,6.91Z"/><path class="cls-9" d="M42.75,3l0,2.52a2,2,0,0,1,1.5-.78,2.1,2.1,0,0,1,.82.15,1.31,1.31,0,0,1,.56.42,1.5,1.5,0,0,1,.27.57,5.29,5.29,0,0,1,.09,1l.06,2.91-1.31,0L44.73,7.2a3.48,3.48,0,0,0-.1-1,.63.63,0,0,0-.27-.33.77.77,0,0,0-.47-.11,1,1,0,0,0-.58.17,1,1,0,0,0-.37.48,3,3,0,0,0-.1,1l.06,2.49-1.32,0L41.43,3Z"/><path class="cls-9" d="M49.87,7.56a2.58,2.58,0,0,1,.58-1.17,2.14,2.14,0,0,1,1.09-.73,2.79,2.79,0,0,1,1.35,0,2.49,2.49,0,0,1,1.66,1.1,2.55,2.55,0,0,1,.32,2,2.55,2.55,0,0,1-1.1,1.67,2.43,2.43,0,0,1-1.94.35,3,3,0,0,1-1.21-.57,2.09,2.09,0,0,1-.73-1.08A3,3,0,0,1,49.87,7.56Zm1.3.35a1.69,1.69,0,0,0,.11,1.18,1.13,1.13,0,0,0,.77.56A1.1,1.1,0,0,0,53,9.44a1.67,1.67,0,0,0,.58-1,1.66,1.66,0,0,0-.11-1.17,1.11,1.11,0,0,0-.76-.56,1.14,1.14,0,0,0-.93.2A1.68,1.68,0,0,0,51.17,7.91Z"/><path class="cls-9" d="M58.24,9.76a2.6,2.6,0,0,1,.83-1,2.15,2.15,0,0,1,1.22-.45,2.67,2.67,0,0,1,1.34.27A2.46,2.46,0,0,1,63,10a2.5,2.5,0,0,1-.14,2,2.55,2.55,0,0,1-1.45,1.38,2.47,2.47,0,0,1-2-.12,2.91,2.91,0,0,1-1.05-.83,2.11,2.11,0,0,1-.46-1.22A2.88,2.88,0,0,1,58.24,9.76Zm1.18.64a1.63,1.63,0,0,0-.16,1.17,1.08,1.08,0,0,0,.61.72,1.13,1.13,0,0,0,1,0,1.67,1.67,0,0,0,.8-.88,1.63,1.63,0,0,0,.16-1.17,1.1,1.1,0,0,0-.61-.72,1.13,1.13,0,0,0-1,0A1.67,1.67,0,0,0,59.42,10.4Z"/><path class="cls-9" d="M64.53,16.1l4-5.53,1.07.77-4,5.54Z"/><path class="cls-9" d="M75.93,27.37l-1.28-.09a4.52,4.52,0,0,1,0-1.37,2.89,2.89,0,0,1-1-.42,3.22,3.22,0,0,1-.77-.82,2.43,2.43,0,0,1-.48-2,1.86,1.86,0,0,1,.78-1.13,1.89,1.89,0,0,1,1.2-.34,3.15,3.15,0,0,1,1.41.46,3.92,3.92,0,0,1,.36-.89,1.62,1.62,0,0,1,.49-.54,1.3,1.3,0,0,1,1.15-.18A2.09,2.09,0,0,1,79,21a2,2,0,0,1,.4,1.4A1.42,1.42,0,0,1,78,23.65a3.17,3.17,0,0,1-1.26-.35l-.5,1.5a3.44,3.44,0,0,0,.8-.2l.45,1.13a8.11,8.11,0,0,1-.94.27A2.88,2.88,0,0,1,76,26a6.51,6.51,0,0,0-.06.72A4.74,4.74,0,0,0,75.93,27.37Zm-.39-4.68a1.82,1.82,0,0,0-.84-.25,1.15,1.15,0,0,0-.67.19.93.93,0,0,0-.42.61,1,1,0,0,0,.2.77,1.6,1.6,0,0,0,.43.43,2.73,2.73,0,0,0,.68.28ZM77,22.32l.42.14a.84.84,0,0,0,.72,0,.59.59,0,0,0,.25-.4.73.73,0,0,0-.14-.53.71.71,0,0,0-.41-.31.5.5,0,0,0-.4.05,1,1,0,0,0-.31.58Z"/><path class="cls-9" d="M81.52,39.13l-.17,1.4a3,3,0,0,1-1.83-.69,2.89,2.89,0,0,1-.87-1.69,2.93,2.93,0,0,1,.49-2.38,3.6,3.6,0,0,1,2.34-1.34,3.75,3.75,0,0,1,2.77.37,3,3,0,0,1,1.37,2.1,2.84,2.84,0,0,1-.35,2.15,2.63,2.63,0,0,1-1.1.92l-.58-1.28a1.47,1.47,0,0,0,.73-.66,1.44,1.44,0,0,0,.12-1A1.54,1.54,0,0,0,83.68,36a2.65,2.65,0,0,0-1.83-.14,2.88,2.88,0,0,0-1.73.81,1.52,1.52,0,0,0-.32,1.3,1.37,1.37,0,0,0,.53.86A1.94,1.94,0,0,0,81.52,39.13Z"/><path class="cls-9" d="M82,44.14a2.82,2.82,0,0,1,1.25.39,2.17,2.17,0,0,1,.88,1,2.58,2.58,0,0,1,.25,1.33,2.47,2.47,0,0,1-2.71,2.42,2.58,2.58,0,0,1-1.83-.83,2.47,2.47,0,0,1-.64-1.86,3.06,3.06,0,0,1,.38-1.29,2.17,2.17,0,0,1,1-.89A3.06,3.06,0,0,1,82,44.14Zm-.14,1.34a1.64,1.64,0,0,0-1.15.29,1.13,1.13,0,0,0-.44.84,1.09,1.09,0,0,0,.35.88,1.61,1.61,0,0,0,1.12.41,1.68,1.68,0,0,0,1.14-.28,1.09,1.09,0,0,0,.43-.84,1.12,1.12,0,0,0-.34-.89A1.7,1.7,0,0,0,81.85,45.48Z"/><path class="cls-9" d="M78.49,52.37,85.14,54l-.31,1.28-6.65-1.65Z"/><path class="cls-9" d="M77,57.15l6.34,2.6L82.87,61l-6.34-2.59Z"/><path class="cls-9" d="M74.74,64.92l-.89,1a2.19,2.19,0,0,1-.49-1.26,2.27,2.27,0,0,1,.42-1.35,2.23,2.23,0,0,1,1.74-1.16,2.87,2.87,0,0,1,1.71.51,2.76,2.76,0,0,1,1.28,1.59A2.15,2.15,0,0,1,78.22,66a2.23,2.23,0,0,1-1.56,1.08,3.28,3.28,0,0,1-2.22-.7l1.77-2.77a1.34,1.34,0,0,0-.93-.22,1,1,0,0,0-.68.46.82.82,0,0,0-.14.53A1,1,0,0,0,74.74,64.92Zm1.08.78a1.26,1.26,0,0,0,.89.22.9.9,0,0,0,.62-.42.93.93,0,0,0,.12-.76,1.25,1.25,0,0,0-.57-.69Z"/><path class="cls-9" d="M70.44,67.47l-1.19.93a.5.5,0,0,0-.38-.14,1,1,0,0,0-.52.32,1.52,1.52,0,0,0-.44.65.63.63,0,0,0,0,.42,2.1,2.1,0,0,0,.38.47l.51.51A1.75,1.75,0,0,1,69.34,69a1.82,1.82,0,0,1,1.72-.51,2.9,2.9,0,0,1,1.5.86,2.81,2.81,0,0,1,.91,1.78,2,2,0,0,1-.6,1.52,1.84,1.84,0,0,1-1.65.49l.49.5-.88.86L67.7,71.35a4.4,4.4,0,0,1-.81-1,1.56,1.56,0,0,1-.19-.77,1.85,1.85,0,0,1,.22-.77,3.53,3.53,0,0,1,.69-.87,2.87,2.87,0,0,1,1.58-1,1.34,1.34,0,0,1,1.14.41A1.14,1.14,0,0,1,70.44,67.47Zm1.21,2.9a1.81,1.81,0,0,0-1-.61.93.93,0,0,0-.79.27,1,1,0,0,0-.32.84,1.67,1.67,0,0,0,.55,1,1.76,1.76,0,0,0,1,.59,1,1,0,0,0,.83-.3,1,1,0,0,0,.3-.81A1.78,1.78,0,0,0,71.65,70.37Z"/><path class="cls-9" d="M62.93,76l-1.22.5a2.12,2.12,0,0,1,.1-1.35,2.24,2.24,0,0,1,1-1,2.2,2.2,0,0,1,2.07-.29A2.82,2.82,0,0,1,66.16,75a2.77,2.77,0,0,1,.47,2,2.13,2.13,0,0,1-1,1.45,2.2,2.2,0,0,1-1.87.3A3.22,3.22,0,0,1,62,77.16l2.8-1.73a1.36,1.36,0,0,0-.75-.6,1,1,0,0,0-.82.12.85.85,0,0,0-.35.41A1,1,0,0,0,62.93,76Zm.64,1.17a1.24,1.24,0,0,0,.71.58.89.89,0,0,0,.73-.1.91.91,0,0,0,.44-.64,1.21,1.21,0,0,0-.21-.87Z"/><polygon class="cls-9" points="46.02 77.7 47.44 80.57 50.6 81.03 48.31 83.26 48.85 86.41 46.02 84.92 43.19 86.41 43.73 83.26 41.45 81.03 44.61 80.57 46.02 77.7"/><polygon class="cls-9" points="57.04 76.18 58.05 78.22 60.3 78.54 58.67 80.13 59.06 82.37 57.04 81.31 55.03 82.37 55.41 80.13 53.78 78.54 56.03 78.22 57.04 76.18"/><polygon class="cls-9" points="33.86 76.18 34.87 78.22 37.12 78.54 35.49 80.13 35.88 82.37 33.86 81.31 31.85 82.37 32.23 80.13 30.6 78.54 32.85 78.22 33.86 76.18"/><path class="cls-9" d="M37.35,65.37l.57-.05a1.28,1.28,0,0,0,.18.56,1.06,1.06,0,0,0,.46.35,1.75,1.75,0,0,0,.7.14,1.66,1.66,0,0,0,.61-.11.82.82,0,0,0,.39-.28.7.7,0,0,0,.13-.39.62.62,0,0,0-.13-.37.94.94,0,0,0-.41-.27c-.12,0-.39-.12-.81-.22a4,4,0,0,1-.87-.28,1.37,1.37,0,0,1-.49-.42,1.11,1.11,0,0,1-.16-.57,1.15,1.15,0,0,1,.2-.64,1.26,1.26,0,0,1,.57-.46,2.46,2.46,0,0,1,1.72,0,1.31,1.31,0,0,1,.6.48,1.45,1.45,0,0,1,.22.71l-.58,0a.9.9,0,0,0-.31-.65,1.2,1.2,0,0,0-.79-.22,1.24,1.24,0,0,0-.8.2.61.61,0,0,0-.25.48.5.5,0,0,0,.18.4,2.25,2.25,0,0,0,.91.33,5.38,5.38,0,0,1,1,.29,1.4,1.4,0,0,1,.59.46,1.17,1.17,0,0,1,.18.64,1.23,1.23,0,0,1-.2.69,1.42,1.42,0,0,1-.6.5,2.05,2.05,0,0,1-.87.18,2.62,2.62,0,0,1-1-.18,1.4,1.4,0,0,1-.65-.55A1.52,1.52,0,0,1,37.35,65.37Z"/><path class="cls-9" d="M41.58,65.37l.57-.05a1.28,1.28,0,0,0,.19.56,1,1,0,0,0,.45.35,1.75,1.75,0,0,0,.7.14,1.66,1.66,0,0,0,.61-.11.82.82,0,0,0,.39-.28.63.63,0,0,0,.13-.39.56.56,0,0,0-.13-.37.9.9,0,0,0-.4-.27c-.13,0-.4-.12-.81-.22a4.14,4.14,0,0,1-.88-.28,1.37,1.37,0,0,1-.49-.42,1.1,1.1,0,0,1-.15-.57,1.14,1.14,0,0,1,.19-.64,1.26,1.26,0,0,1,.57-.46,2.46,2.46,0,0,1,1.72,0,1.31,1.31,0,0,1,.6.48,1.35,1.35,0,0,1,.22.71l-.58,0a.9.9,0,0,0-.31-.65,1.2,1.2,0,0,0-.79-.22,1.26,1.26,0,0,0-.8.2.61.61,0,0,0-.25.48.5.5,0,0,0,.18.4,2.32,2.32,0,0,0,.91.33,5.14,5.14,0,0,1,1,.29,1.34,1.34,0,0,1,.59.46,1.17,1.17,0,0,1,.19.64,1.24,1.24,0,0,1-.21.69,1.42,1.42,0,0,1-.6.5,2.05,2.05,0,0,1-.87.18,2.66,2.66,0,0,1-1-.18,1.45,1.45,0,0,1-.65-.55A1.52,1.52,0,0,1,41.58,65.37Z"/><path class="cls-9" d="M49.26,65.23l.6.16a2,2,0,0,1-.68,1.13,1.88,1.88,0,0,1-1.2.39,2.12,2.12,0,0,1-1.19-.3,1.85,1.85,0,0,1-.7-.87,3.09,3.09,0,0,1-.24-1.22,2.73,2.73,0,0,1,.27-1.24,1.81,1.81,0,0,1,.77-.8,2.27,2.27,0,0,1,1.1-.27,1.89,1.89,0,0,1,1.15.34,1.82,1.82,0,0,1,.64,1l-.59.14a1.37,1.37,0,0,0-.46-.72,1.22,1.22,0,0,0-.75-.23,1.55,1.55,0,0,0-.88.25,1.35,1.35,0,0,0-.49.68,2.57,2.57,0,0,0-.15.87,2.81,2.81,0,0,0,.17,1,1.32,1.32,0,0,0,.53.65,1.49,1.49,0,0,0,.77.21,1.33,1.33,0,0,0,.86-.29A1.47,1.47,0,0,0,49.26,65.23Z"/><path class="cls-9" d="M50.42,64.62A2.47,2.47,0,0,1,51,62.84a2.06,2.06,0,0,1,1.56-.64,2.12,2.12,0,0,1,1.14.31,2,2,0,0,1,.77.83,2.84,2.84,0,0,1,.26,1.22,2.63,2.63,0,0,1-.28,1.24,1.84,1.84,0,0,1-.79.82,2.26,2.26,0,0,1-2.25,0,2,2,0,0,1-.76-.85A2.63,2.63,0,0,1,50.42,64.62Zm.62,0a1.86,1.86,0,0,0,.44,1.3,1.46,1.46,0,0,0,1.11.47,1.43,1.43,0,0,0,1.11-.48,1.88,1.88,0,0,0,.44-1.35,2.43,2.43,0,0,0-.18-1,1.46,1.46,0,0,0-1.36-.87,1.55,1.55,0,0,0-1.1.44A1.94,1.94,0,0,0,51,64.62Z"/><path class="cls-9" d="M40.26,71.75v.53h-3a.82.82,0,0,1,.06-.38,2.08,2.08,0,0,1,.37-.61,5.63,5.63,0,0,1,.73-.68,6.21,6.21,0,0,0,1-1,1.16,1.16,0,0,0,.26-.67.74.74,0,0,0-.24-.56.86.86,0,0,0-.62-.22.88.88,0,0,0-.64.24,1,1,0,0,0-.25.67L37.36,69a1.43,1.43,0,0,1,.44-1,1.55,1.55,0,0,1,1-.34,1.4,1.4,0,0,1,1,.37,1.16,1.16,0,0,1,.38.89,1.24,1.24,0,0,1-.11.54,2.07,2.07,0,0,1-.37.56,8.42,8.42,0,0,1-.86.79c-.33.29-.55.48-.64.58a1.58,1.58,0,0,0-.24.3Z"/><path class="cls-9" d="M41.62,70a4.19,4.19,0,0,1,.16-1.29,1.61,1.61,0,0,1,.5-.76,1.23,1.23,0,0,1,.82-.27,1.32,1.32,0,0,1,.64.15,1.26,1.26,0,0,1,.46.43,2.29,2.29,0,0,1,.28.67,4.41,4.41,0,0,1,.1,1.07,4.1,4.1,0,0,1-.16,1.29,1.56,1.56,0,0,1-.5.76,1.37,1.37,0,0,1-1.85-.2A3,3,0,0,1,41.62,70Zm.57,0a2.88,2.88,0,0,0,.26,1.49.76.76,0,0,0,1.3,0,4.4,4.4,0,0,0,0-3,.8.8,0,0,0-.66-.36.7.7,0,0,0-.61.32A2.9,2.9,0,0,0,42.19,70Z"/><path class="cls-9" d="M45.91,70a4.19,4.19,0,0,1,.16-1.29,1.69,1.69,0,0,1,.5-.76,1.25,1.25,0,0,1,.82-.27,1.32,1.32,0,0,1,.64.15,1.19,1.19,0,0,1,.46.43,2.29,2.29,0,0,1,.28.67,4.41,4.41,0,0,1,.1,1.07,4.1,4.1,0,0,1-.16,1.29,1.62,1.62,0,0,1-.49.76,1.27,1.27,0,0,1-.83.27,1.22,1.22,0,0,1-1-.47A3,3,0,0,1,45.91,70Zm.57,0a2.88,2.88,0,0,0,.26,1.49.76.76,0,0,0,1.3,0,4.4,4.4,0,0,0,0-3,.8.8,0,0,0-.66-.36.7.7,0,0,0-.61.32A2.9,2.9,0,0,0,46.48,70Z"/><path class="cls-9" d="M52.3,72.28h-.56V68.73a2.34,2.34,0,0,1-.53.38,3.12,3.12,0,0,1-.58.29v-.54a3.3,3.3,0,0,0,.82-.53,2.15,2.15,0,0,0,.49-.61h.36Z"/></g></g></svg>