<svg xmlns="http://www.w3.org/2000/svg" viewBox="0 0 323.34 68.71"><defs><style>.cls-1{fill:#db0011;}.cls-2{fill:none;}</style></defs><title>Asset 5</title><g id="Layer_2" data-name="Layer 2"><g id="Layer_1-2" data-name="Layer 1"><path class="cls-1" d="M142.15,34.14c-.05-.79-.1-1.58-.14-2.37l-3.61-.07.42,6Q140.47,35.92,142.15,34.14Z"/><path class="cls-1" d="M215.77,30.76l-3.6.15c-.31,2.06-.62,4.13-.92,6.19l4.13-3.88Z"/><path class="cls-1" d="M92,34.29,91.12,30l-3.61-.21c.58,2.76,1.15,5.52,1.73,8.28C90.14,36.77,91.06,35.52,92,34.29Z"/><path class="cls-1" d="M239.36,29.53l-3.61.21Q233.33,41.37,230.91,53l3.37,0Q236.82,41.23,239.36,29.53Z"/><path class="cls-2" d="M30,62.1l10.07,2q121.6,3.82,243.26,0l10.07-2Q161.7,66.24,30,62.1Z"/><path class="cls-2" d="M76.06,23.17l3.63,3.42q3.63,16.1,7.25,32.2h6.63L91,46.23Q94.9,40.52,99.19,35h0L97.29,24.64,90,24.18l-3.66-.25-5.1-.37h0Z"/><path class="cls-2" d="M127.76,26l3.18,3q1.38,14.86,2.74,29.74h6.63l-.84-11.91c1.22,1.1,2.44,2.2,3.64,3.3l.51,8.61h6.63q-.13-3.78-.29-7.55v-.36h0l-.17-4.38q-2.57-1.85-5.2-3.71,2.41-2.22,4.9-4.42l-.15-3.76h0v-.44l-.18-4.63-2.46-3.08-5-.08L138,26.29l-5.1-.13h0C131.19,26.12,129.48,26.07,127.76,26Z"/><path class="cls-2" d="M101.71,24.89l3.42,3.2h0q2.5,15.35,5,30.7h16.57q-.78-6.94-1.58-13.9Q122,47.69,119,50.55l.36,2.7-3.37,0-1.17-8.06,4.32.09h0c1-1.13,2.06-2.25,3.11-3.38l-3.91-2.72-4.4-.12c-.39-2.69-.77-5.37-1.16-8.06l3.61.14.36,2.69,7.82,6L123,25.86l-7.33-.29L112,25.41l-5.11-.25h0Z"/><path class="cls-2" d="M152.9,26.51c1,1,2,1.95,3,2.93l.18,10.46.1,5.52q.12,6.67.23,13.37H163l.06-13.37h3.47l-.21,13.37H173q.24-6.7.5-13.4l.21-5.52q.24-6.7.5-13.4c-2.45,0-4.89.05-7.34.06l-.21,13.37H163.1l.06-13.37c-1.7,0-3.41,0-5.11,0h0Z"/><path class="cls-2" d="M252.78,11q35.4-4,69.82-11c-26.91,5.34-53.16,9-78.34,11.48Q248.31,11.31,252.78,11Z"/><path class="cls-2" d="M32.5,32h0q7.44,7.24,14.55,14l1.86,6.24-3.37-.07c-.32-1.07-.65-2.14-1-3.21q-4.77-4.57-9.67-9.34,3,9.57,6,19.15H55.31c.36-1.25.72-2.48,1.1-3.71h0c-.89-3.08-1.77-6.17-2.66-9.25h0q-7-6.65-14.33-13.71L37.51,25.8l3.6.35c.31,1.06.63,2.12,1,3.18q4.88,4.7,9.61,9.19L46.46,20.43c-2.43-.26-4.87-.53-7.3-.81q-1.83-.2-3.66-.42-2.53-.28-5.07-.6l-2.23-.27L25.3,18l4.05,4L32.5,32Z"/><path class="cls-2" d="M41.48,7.49l1.27.15L39.56,7.2Z"/><polygon class="cls-2" points="27.35 40.51 26.5 38.79 25.65 40.51 23.75 40.79 25.12 42.13 24.8 44.03 26.5 43.13 28.21 44.03 27.88 42.13 29.26 40.79 27.35 40.51"/><path class="cls-2" d="M50.87,20.89l3.84,3.68q4.22,15.3,8.41,30.58h0l3.16,3.64h12.2c.44-1.17.88-2.33,1.33-3.48h0Q76,39.08,72.07,22.85q-3.66-.3-7.32-.63l7.77,30.47-3.38,0q-4-15.37-8-30.75L56,21.4h0Z"/><path class="cls-2" d="M12.84,10.64l11.24,2a1254.59,1254.59,0,0,0,275.18,0l11.24-2A1356.38,1356.38,0,0,1,12.84,10.64Z"/><path class="cls-2" d="M178,26.42c.93,1,1.84,1.92,2.75,2.88h0l-1.71,29.5h16.58q.77-6.94,1.54-13.88-3.78,2.91-7.44,5.78l-.24,2.65-3.38,0,.63-7.86,4.32,0h0L195,42c-1.09-.85-2.2-1.7-3.32-2.55l-4.4.07.63-7.86,3.61-.08-.24,2.65q3.33,2.76,6.53,5.55l1.53-13.88c-2.44.09-4.89.16-7.33.23l-3.67.1-5.11.11h0Z"/><path class="cls-2" d="M290.74,18.86l-3.65.43-5.08.58-2.23.24-2.9.32c.63,1.05,1.26,2.11,1.88,3.18q-1.39,4.79-2.8,9.57h0q3.42,6.1,6.48,12.59c-.65,2.12-1.31,4.24-2,6.36l-3.37.07,1-3.2q-2.06-4.35-4.25-8.52-2.67,9.17-5.35,18.31h14.39l3.42-3.95h0q1.56-4.92,3.13-9.85h0q-3-6.61-6.26-12.81,1-3.15,1.91-6.3l3.6-.35c-.34,1.08-.67,2.16-1,3.24q2.19,4.14,4.23,8.46L298,18C295.61,18.27,293.17,18.57,290.74,18.86Z"/><polygon class="cls-2" points="298.89 40.51 298.04 38.79 297.19 40.51 295.29 40.79 296.67 42.13 296.34 44.03 298.04 43.13 299.75 44.03 299.42 42.13 300.8 40.79 298.89 40.51"/><path class="cls-2" d="M208,58.79q.9-6.13,1.82-12.26,1.47,1.65,2.9,3.33l-1.41,8.93H218l1.41-7.95.06-.38h0l.81-4.61c-1.44-1.25-2.89-2.49-4.37-3.73l5.89-4.83c.23-1.32.46-2.64.7-4h0c0-.15.06-.3.08-.45l.87-4.88-1.77-3.08-5,.26c-1.22.07-2.44.13-3.67.18l-5.1.23h0l-5.15.21c.85.95,1.7,1.91,2.53,2.87L201.4,58.79Z"/><path class="cls-2" d="M229.7,58.79h9.94L248,23.12l-7.32.56-3.67.26-5.09.34h0l-5.15.32c.78,1,1.56,1.94,2.32,2.92l-6,31.27Z"/><path class="cls-2" d="M252.19,58.79h9.94l4.5-16q-4.39,3.47-8.66,6.79l-.81,3-3.37,0q1.17-4.44,2.32-8.9l4.32-.17h0c1.53-1.34,3.06-2.7,4.61-4.07q-1.36-1.39-2.76-2.79l-4.39.26c.78-3,1.55-5.93,2.32-8.9l3.61-.29-.81,3q2.7,3,5.29,6.06,2.25-8,4.49-16c-2.44.25-4.87.49-7.31.72l-3.66.35-5.1.46h0l-5.14.44c.71,1,1.41,2,2.11,3h0q-4.05,16.47-8.12,33Z"/><path class="cls-1" d="M322.6,0q-34.39,7-69.82,11-4.47.29-8.52.45A881.9,881.9,0,0,1,42.75,7.64l-1.27-.15L39.56,7.2C14.41,3.63,0,.27,0,.27L28.17,68.71H295.05L323.34,0ZM28.21,44l-1.71-.89L24.8,44l.32-1.9-1.37-1.34,1.9-.28.85-1.72.85,1.72,1.91.28-1.38,1.34ZM25.3,18l2.9.37,2.23.27q2.53.31,5.07.6,1.83.23,3.66.42c2.43.28,4.87.55,7.3.81l5.21,18.09q-4.72-4.5-9.61-9.19c-.32-1.06-.64-2.12-1-3.18l-3.6-.35,1.92,6.31q7.34,7.08,14.33,13.71h0c.89,3.08,1.77,6.17,2.66,9.25h0c-.38,1.23-.74,2.46-1.1,3.71H40.92q-3-9.59-6-19.15,4.91,4.77,9.67,9.34c.32,1.07.65,2.14,1,3.21l3.37.07L47.05,46q-7.11-6.8-14.55-14h0L29.35,22Zm35.79,3.93q4,15.38,8,30.75l3.38,0L64.75,22.22q3.66.33,7.32.63Q76,39.08,79.86,55.31h0c-.45,1.15-.89,2.31-1.33,3.48H66.31l-3.16-3.64h0q-4.2-15.28-8.41-30.58l-3.84-3.68L56,21.4h0Zm25.21,2,3.66.25,7.33.46L99.18,35h0Q94.9,40.52,91,46.23l2.62,12.56H86.94q-3.63-16.11-7.25-32.2l-3.63-3.42,5.14.39h0Zm197,40.16Q161.7,67.91,40,64.09L30,62.1q131.67,4.14,263.4,0ZM112,25.41l3.67.16,7.33.29,1.59,13.89-7.82-6-.36-2.69L112.77,31c.39,2.69.77,5.37,1.16,8.06l4.4.12,3.91,2.72c-1,1.13-2.08,2.25-3.11,3.38h0l-4.32-.09L116,53.22l3.37,0-.36-2.7q3-2.85,6.15-5.66.8,6.95,1.58,13.9H110.15q-2.5-15.36-5-30.7h0l-3.42-3.2,5.15.27h0Zm26,.88,3.67.07,5,.08,2.46,3.08.18,4.63v.44h0l.15,3.76q-2.49,2.2-4.9,4.42,2.64,1.86,5.2,3.71l.17,4.38h0v.36q.15,3.76.29,7.55h-6.63l-.51-8.61c-1.2-1.1-2.42-2.2-3.64-3.3l.84,11.91h-6.63q-1.37-14.86-2.74-29.74l-3.18-3c1.72.06,3.43.11,5.15.15h0Zm25.15.25-.06,13.37h3.52l.21-13.37c2.45,0,4.89,0,7.34-.06q-.25,6.71-.5,13.4l-.21,5.52q-.26,6.7-.5,13.4h-6.63l.21-13.37h-3.47L163,58.79h-6.63q-.1-6.69-.23-13.37l-.1-5.52-.18-10.46c-1-1-2-2-3-2.93l5.15,0h0C159.75,26.54,161.46,26.55,163.16,26.54Zm25.15-.32,3.67-.1c2.44-.07,4.89-.14,7.33-.23l-1.53,13.88q-3.21-2.79-6.53-5.55l.24-2.65-3.61.08-.63,7.86,4.4-.07c1.12.85,2.23,1.7,3.32,2.55l-3.88,3.46h0l-4.32,0-.63,7.86,3.38,0,.24-2.65q3.66-2.86,7.44-5.78-.78,6.93-1.54,13.88H179.09l1.71-29.5h0c-.91-1-1.82-1.92-2.75-2.88l5.16-.09h0Zm14.43-.45,5.15-.21h0l5.1-.23c1.23,0,2.45-.11,3.67-.18l5-.26L223.43,28l-.87,4.88c0,.15-.05.3-.08.45h0c-.24,1.32-.47,2.64-.7,4l-5.89,4.83c1.48,1.24,2.93,2.48,4.37,3.73l-.81,4.61h0l-.06.38L218,58.79h-6.63l1.41-8.93q-1.42-1.68-2.9-3.33-.91,6.12-1.82,12.26H201.4l3.87-30.15C204.44,27.68,203.59,26.72,202.74,25.77Zm24-1.17,5.15-.32h0l5.09-.34,3.67-.26,7.32-.56-8.31,35.67H223.07l6-31.27C228.28,26.54,227.5,25.57,226.72,24.6Zm27,1.25c-.7-1-1.4-2-2.11-3l5.14-.44h0l5.1-.46,3.66-.35c2.44-.23,4.87-.47,7.31-.72q-2.25,8-4.49,16-2.6-3.07-5.29-6.06l.81-3-3.61.29c-.77,3-1.54,5.93-2.32,8.9l4.39-.26q1.39,1.4,2.76,2.79c-1.55,1.37-3.08,2.73-4.61,4.07h0l-4.32.17q-1.16,4.45-2.32,8.9l3.37,0,.81-3q4.27-3.33,8.66-6.79l-4.5,16H245.56q4.06-16.49,8.12-32.95Zm38.24,11.37q-2-4.32-4.23-8.46c.33-1.08.66-2.16,1-3.24l-3.6.35q-.94,3.15-1.91,6.3,3.3,6.21,6.26,12.81h0q-1.56,4.93-3.13,9.85h0l-3.42,3.95H268.48q2.67-9.15,5.35-18.31Q276,44.65,278.08,49l-1,3.2,3.37-.07c.65-2.12,1.31-4.24,2-6.36q-3.06-6.5-6.48-12.59h0q1.41-4.79,2.8-9.57c-.62-1.07-1.25-2.13-1.88-3.18l2.9-.32,2.23-.24,5.08-.58,3.65-.43c2.43-.29,4.87-.59,7.3-.9ZM299.75,44,298,43.14l-1.7.89.32-1.9-1.37-1.34,1.9-.28.85-1.72.86,1.72,1.9.28-1.38,1.34Zm-.49-31.41a1254.59,1254.59,0,0,1-275.18,0l-11.24-2a1356.38,1356.38,0,0,0,297.66,0Z"/><path class="cls-1" d="M0,.27S14.41,3.63,39.56,7.2Q19.61,4.2,0,.27Z"/></g></g></svg>