<svg xmlns="http://www.w3.org/2000/svg" viewBox="0 0 78.69 73.45"><defs><style>.cls-1,.cls-4{fill:#8cc540;}.cls-1,.cls-7{stroke:#1b2f1b;}.cls-1,.cls-5,.cls-7,.cls-8,.cls-9{stroke-miterlimit:10;}.cls-1,.cls-7,.cls-8{stroke-width:0.5px;}.cls-2{fill:#1e441f;}.cls-3{fill:#f2f2f2;}.cls-5{fill:none;stroke-width:0.25px;}.cls-5,.cls-8{stroke:#fff;}.cls-6,.cls-8{fill:#fff;}.cls-7{fill:#8bc53f;}.cls-9{fill:#eb2026;stroke:#eb2026;stroke-width:0.15px;}</style></defs><title>Asset 2</title><g id="Layer_2" data-name="Layer 2"><g id="Layer_1-2" data-name="Layer 1"><polygon class="cls-1" points="19.45 51 0.41 51 3.73 44.46 0.41 37.93 19.45 37.93 19.45 51"/><polygon class="cls-1" points="59.95 51 78.28 51 74.97 44.46 78.28 37.93 59.95 37.93 59.95 51"/><path class="cls-2" d="M70,11.23a1.3,1.3,0,0,0-1.13-.17,23,23,0,0,1-7.35,1.2c-10.1,0-17.56-4.1-21-11.54a1.25,1.25,0,0,0-2.27,0c-3.46,7.44-10.93,11.54-21,11.54a23,23,0,0,1-7.35-1.2,1.25,1.25,0,0,0-1.64,1.19v6.07c0,22.26,8.31,36,15.28,43.66,7.59,8.3,15.11,11.27,15.43,11.39a1.12,1.12,0,0,0,.45.08,1.11,1.11,0,0,0,.44-.08c.32-.12,7.84-3,15.43-11.32,7-7.6,15.28-21.36,15.28-43.73V12.25A1.28,1.28,0,0,0,70,11.23Z"/><path class="cls-3" d="M28.17,17.16v2.11a1.49,1.49,0,0,1-.22.9,2,2,0,0,1-1.64.54,2.73,2.73,0,0,1-1.38-.29.91.91,0,0,1-.39-.46,2,2,0,0,1-.1-.69V17.16a.22.22,0,0,0,0-.13.23.23,0,0,0-.14-.07v-.09h1.18V17a.23.23,0,0,0-.14.07.17.17,0,0,0,0,.13V19a1.88,1.88,0,0,0,0,.48.46.46,0,0,0,.13.26,1.62,1.62,0,0,0,1.82,0,.53.53,0,0,0,.13-.26,2.51,2.51,0,0,0,0-.48V17.16a.22.22,0,0,0,0-.13.26.26,0,0,0-.14-.07v-.09h1.11V17a.23.23,0,0,0-.14.07A.22.22,0,0,0,28.17,17.16Z"/><path class="cls-3" d="M31.78,17.49v2.86a.17.17,0,0,0,0,.13.3.3,0,0,0,.14.07v.09H30.78v-.09a.3.3,0,0,0,.14-.07.17.17,0,0,0,0-.13V17.49H29.79a.17.17,0,0,0-.13,0,.26.26,0,0,0-.07.14H29.5v-1h.09a.3.3,0,0,0,.07.14.22.22,0,0,0,.13,0H33a.22.22,0,0,0,.13,0,.3.3,0,0,0,.07-.14h.09v1h-.09a.26.26,0,0,0-.07-.14.17.17,0,0,0-.13,0Z"/><path class="cls-3" d="M36.45,17.49v2.86a.17.17,0,0,0,0,.13.26.26,0,0,0,.13.07v.09H35.45v-.09a.37.37,0,0,0,.14-.07.23.23,0,0,0,0-.13V17.49H34.45a.18.18,0,0,0-.13,0,.35.35,0,0,0-.07.14h-.09v-1h.09a.3.3,0,0,0,.08.14.19.19,0,0,0,.12,0h3.17a.25.25,0,0,0,.13,0,.3.3,0,0,0,.07-.14h.09v1h-.09a.26.26,0,0,0-.07-.14.18.18,0,0,0-.13,0Z"/><path class="cls-3" d="M41.47,19.68H39.76l-.26.53a.51.51,0,0,0,0,.17c0,.08.06.14.19.17v.09H38.39v-.09a.3.3,0,0,0,.17-.08.7.7,0,0,0,.13-.21l1.39-2.9a.61.61,0,0,0,.06-.22c0-.09,0-.15-.16-.18v-.09h1.34V17c-.11,0-.16.08-.16.16a.35.35,0,0,0,.05.18l1.44,2.91a.82.82,0,0,0,.16.25.26.26,0,0,0,.18.09v.09H41.6v-.09c.12,0,.19-.08.19-.17a.38.38,0,0,0-.06-.17Zm-.24-.52-.61-1.34L40,19.16Z"/><path class="cls-3" d="M45.16,19.1v1.25a.17.17,0,0,0,0,.13.3.3,0,0,0,.14.07v.09H44.16v-.09a.3.3,0,0,0,.14-.07.22.22,0,0,0,0-.13V17.16a.22.22,0,0,0,0-.13.23.23,0,0,0-.14-.07v-.09h2.36a3.08,3.08,0,0,1,.68.05,1.28,1.28,0,0,1,.45.17.94.94,0,0,1,.32.39,1.25,1.25,0,0,1,.1.51q0,.92-1,1.08l.73,1a2.38,2.38,0,0,0,.28.35.31.31,0,0,0,.22.09v.09H46.92v-.09c.09,0,.14-.05.14-.1a.69.69,0,0,0-.13-.24l-.76-1.11Zm0-.62h1.27l.4,0a.48.48,0,0,0,.21-.07.42.42,0,0,0,.21-.41.44.44,0,0,0-.21-.41.65.65,0,0,0-.21-.07H45.16Z"/><path class="cls-3" d="M52.35,19.68H50.63l-.25.53a.51.51,0,0,0-.05.17c0,.08.06.14.18.17v.09H49.27v-.09a.24.24,0,0,0,.16-.08.68.68,0,0,0,.14-.21L51,17.36a.49.49,0,0,0,.07-.22c0-.09-.05-.15-.16-.18v-.09H52.2V17c-.11,0-.17.08-.17.16a.38.38,0,0,0,.06.18l1.43,2.91a1.08,1.08,0,0,0,.16.25.31.31,0,0,0,.19.09v.09H52.48v-.09c.12,0,.18-.08.18-.17a.35.35,0,0,0,0-.17Zm-.24-.52-.61-1.34-.62,1.34Z"/><path class="cls-3" d="M12.2,26.1v1.25a.25.25,0,0,0,0,.13.37.37,0,0,0,.14.07v.09H11.2v-.09a.26.26,0,0,0,.14-.08.15.15,0,0,0,0-.12v-3.2a.18.18,0,0,0,0-.13A.26.26,0,0,0,11.2,24v-.09h2.36a2.81,2.81,0,0,1,.65.06,1.28,1.28,0,0,1,.43.19,1,1,0,0,1,.3.37,1.24,1.24,0,0,1,.1.5,1.09,1.09,0,0,1-.2.67.92.92,0,0,1-.47.35,2.46,2.46,0,0,1-.81.1Zm0-.62h1.26A1.14,1.14,0,0,0,14,25.4a.41.41,0,0,0,.16-.16.75.75,0,0,0,0-.26.7.7,0,0,0,0-.25.52.52,0,0,0-.16-.17,1.3,1.3,0,0,0-.53-.08H12.2Z"/><path class="cls-3" d="M17.38,26.1v1.25a.25.25,0,0,0,0,.13.37.37,0,0,0,.14.07v.09H16.38v-.09a.3.3,0,0,0,.14-.08.15.15,0,0,0,0-.12v-3.2a.18.18,0,0,0,0-.13.3.3,0,0,0-.14-.07v-.09h2.36a4.07,4.07,0,0,1,.69.05,1.32,1.32,0,0,1,.44.18.83.83,0,0,1,.32.39,1.18,1.18,0,0,1,.11.5c0,.62-.35,1-1,1.09l.73,1a2.24,2.24,0,0,0,.29.35.4.4,0,0,0,.22.09v.09H19.14v-.09c.1,0,.14-.05.14-.1a.56.56,0,0,0-.13-.24l-.76-1.11Zm0-.63h1.67a.65.65,0,0,0,.21-.07.51.51,0,0,0,0-.82.48.48,0,0,0-.21-.07,3.06,3.06,0,0,0-.4,0H17.38Z"/><path class="cls-3" d="M22.81,26v1h2.42a.17.17,0,0,0,.13,0,.26.26,0,0,0,.07-.13h.09v1h-.09a.37.37,0,0,0-.07-.14.23.23,0,0,0-.13,0H21.81v-.09a.37.37,0,0,0,.14-.08.19.19,0,0,0,0-.12v-3.2A.25.25,0,0,0,22,24a.37.37,0,0,0-.14-.07v-.09h3.36a.18.18,0,0,0,.13,0,.37.37,0,0,0,.07-.13h.09v1h-.09a.6.6,0,0,0-.07-.14.25.25,0,0,0-.13,0H22.81v.9h1.53a.18.18,0,0,0,.13,0,.26.26,0,0,0,.07-.14h.09v1h-.09a.3.3,0,0,0-.07-.14.18.18,0,0,0-.13,0Z"/><path class="cls-3" d="M28,26.1v1.25a.18.18,0,0,0,0,.13.26.26,0,0,0,.13.07v.09H27v-.09a.26.26,0,0,0,.13-.08.15.15,0,0,0,0-.12v-3.2a.18.18,0,0,0,0-.13A.26.26,0,0,0,27,24v-.09h2.35a2.75,2.75,0,0,1,.65.06,1.13,1.13,0,0,1,.43.19.91.91,0,0,1,.3.37,1.25,1.25,0,0,1,.11.5,1.09,1.09,0,0,1-.21.67.88.88,0,0,1-.47.35,2.46,2.46,0,0,1-.81.1Zm0-.62h1.25a1.14,1.14,0,0,0,.53-.08.35.35,0,0,0,.16-.16A.58.58,0,0,0,30,25a.54.54,0,0,0-.06-.25.44.44,0,0,0-.16-.17,1.26,1.26,0,0,0-.53-.08H28Z"/><path class="cls-3" d="M34.5,26.67H32.79l-.26.53a.62.62,0,0,0-.05.18c0,.08.06.14.19.17v.09H31.42v-.09a.38.38,0,0,0,.17-.08,1.14,1.14,0,0,0,.13-.22l1.39-2.9a.56.56,0,0,0,.06-.22c0-.08-.05-.14-.16-.18v-.09h1.34V24c-.11,0-.16.09-.16.16a.36.36,0,0,0,.05.19l1.44,2.9a.91.91,0,0,0,.16.26.38.38,0,0,0,.18.09v.09H34.63v-.09c.12,0,.19-.08.19-.17a.46.46,0,0,0-.06-.18Zm-.24-.51-.61-1.35L33,26.16Z"/><path class="cls-3" d="M38.19,26.1v1.25a.18.18,0,0,0,0,.13.3.3,0,0,0,.14.07v.09H37.19v-.09a.3.3,0,0,0,.14-.08.19.19,0,0,0,0-.12v-3.2a.25.25,0,0,0,0-.13.3.3,0,0,0-.14-.07v-.09h2.36a3.86,3.86,0,0,1,.68.05,1.29,1.29,0,0,1,.45.18.83.83,0,0,1,.32.39,1.18,1.18,0,0,1,.1.5,1,1,0,0,1-1,1.09l.73,1a2.38,2.38,0,0,0,.28.35.43.43,0,0,0,.22.09v.09H40v-.09c.09,0,.14-.05.14-.1a.56.56,0,0,0-.13-.24L39.2,26.1Zm0-.63h1.67a.65.65,0,0,0,.21-.07.51.51,0,0,0,0-.82.48.48,0,0,0-.21-.07l-.4,0H38.19Z"/><path class="cls-3" d="M45.38,26.67H43.66l-.25.53a.62.62,0,0,0,0,.18c0,.08.06.14.18.17v.09H42.3v-.09a.34.34,0,0,0,.16-.08.76.76,0,0,0,.14-.22L44,24.35a.46.46,0,0,0,.07-.22c0-.08,0-.14-.16-.18v-.09h1.34V24c-.11,0-.17.09-.17.16a.38.38,0,0,0,.06.19l1.43,2.9a1.21,1.21,0,0,0,.16.26.48.48,0,0,0,.19.09v.09H45.51v-.09c.12,0,.18-.08.18-.17a.62.62,0,0,0,0-.18Zm-.24-.51-.61-1.35-.62,1.35Z"/><path class="cls-3" d="M49.64,24.48v2.87a.15.15,0,0,0,0,.12.3.3,0,0,0,.14.08v.09H48.64v-.09a.3.3,0,0,0,.14-.08.19.19,0,0,0,0-.12V24.48H47.65a.22.22,0,0,0-.13,0,.23.23,0,0,0-.07.14h-.09v-1h.09a.37.37,0,0,0,.07.14.23.23,0,0,0,.13,0h3.16a.23.23,0,0,0,.13,0,.37.37,0,0,0,.07-.14h.09v1H51a.3.3,0,0,0-.07-.14.22.22,0,0,0-.13,0Z"/><path class="cls-3" d="M54.36,23.8a2.21,2.21,0,0,1,1.57.53,1.88,1.88,0,0,1,.61,1.44,1.84,1.84,0,0,1-.3,1,2,2,0,0,1-1.87.92,2.22,2.22,0,0,1-1.56-.53,2,2,0,0,1-.32-2.46A2,2,0,0,1,54.36,23.8Zm0,.64a1.33,1.33,0,0,0-.9,2.3,1.34,1.34,0,0,0,2.14-.47,1.44,1.44,0,0,0,.1-.5,1.27,1.27,0,0,0-.43-1A1.33,1.33,0,0,0,54.36,24.44Z"/><path class="cls-3" d="M59,26.1v1.25a.18.18,0,0,0,0,.13.26.26,0,0,0,.13.07v.09H58v-.09a.26.26,0,0,0,.13-.08.15.15,0,0,0,0-.12v-3.2a.18.18,0,0,0,0-.13A.26.26,0,0,0,58,24v-.09h2.36a4,4,0,0,1,.68.05,1.17,1.17,0,0,1,.44.18.79.79,0,0,1,.33.39,1.18,1.18,0,0,1,.1.5c0,.62-.34,1-1,1.09l.74,1a2.38,2.38,0,0,0,.28.35.4.4,0,0,0,.22.09v.09H60.74v-.09c.09,0,.14-.05.14-.1a.71.71,0,0,0-.13-.24L60,26.1Zm0-.63h1.67a.86.86,0,0,0,.21-.07.51.51,0,0,0,0-.82.58.58,0,0,0-.21-.07l-.4,0H59Z"/><path class="cls-3" d="M65.37,26.06v1.28a.2.2,0,0,0,0,.13.37.37,0,0,0,.14.08v.09H64.37v-.09a.3.3,0,0,0,.14-.08s0-.07,0-.13V26.06l-1.22-1.72a1.52,1.52,0,0,0-.24-.3.43.43,0,0,0-.22-.09v-.09h1.49V24c-.12,0-.18.08-.18.17a.46.46,0,0,0,.11.22l.68,1,.7-1a.6.6,0,0,0,.11-.22.16.16,0,0,0,0-.11A.26.26,0,0,0,65.6,24v-.09h1.45V24a.4.4,0,0,0-.21.09,1.9,1.9,0,0,0-.25.3Z"/><path class="cls-3" d="M39.35,64h0a.44.44,0,0,1,.43.44v1a.44.44,0,0,1-.43.44h0a.44.44,0,0,1-.44-.44v-1A.44.44,0,0,1,39.35,64Z"/><path class="cls-3" d="M36.61,63.57h0a.44.44,0,0,1,.34.52l-.2.92a.45.45,0,0,1-.53.34h0a.44.44,0,0,1-.33-.52l.2-.93A.43.43,0,0,1,36.61,63.57Z"/><path class="cls-3" d="M34.14,62.66h0a.44.44,0,0,1,0,.62L33.5,64a.44.44,0,0,1-.62,0h0a.45.45,0,0,1,0-.62l.66-.69A.44.44,0,0,1,34.14,62.66Z"/><path class="cls-3" d="M42.08,63.57h0a.44.44,0,0,0-.34.52L42,65a.44.44,0,0,0,.52.34h0a.43.43,0,0,0,.33-.52l-.2-.93A.43.43,0,0,0,42.08,63.57Z"/><path class="cls-3" d="M44.55,62.66h0a.44.44,0,0,0,0,.62l.65.69a.44.44,0,0,0,.62,0h0a.44.44,0,0,0,0-.62l-.66-.69A.44.44,0,0,0,44.55,62.66Z"/><path class="cls-4" d="M47.94,46.67h.62V58.85c-3,0-5.93.07-8.62,1.68V49.59c0-1.33.17-1.72,1.41-2.06a30.17,30.17,0,0,1,3.91-.69C46.15,46.73,47.05,46.73,47.94,46.67Z"/><path class="cls-4" d="M49.47,59.72V48h1.64V60.89H41.53C44,59.52,46.75,59.85,49.47,59.72Z"/><rect class="cls-5" x="43.17" y="50.62" width="2.69" height="2.64"/><path class="cls-6" d="M45.37,51.24v1a.67.67,0,0,1-.1.41.91.91,0,0,1-.75.24,1.23,1.23,0,0,1-.63-.13.39.39,0,0,1-.17-.21,1,1,0,0,1,0-.31v-1a.08.08,0,0,0,0-.05.09.09,0,0,0-.06,0v0h.53v0l-.06,0a.14.14,0,0,0,0,.06v.86a1.09,1.09,0,0,0,0,.22.23.23,0,0,0,.06.12.54.54,0,0,0,.42.13.53.53,0,0,0,.41-.13.23.23,0,0,0,.06-.12,1.09,1.09,0,0,0,0-.22v-.86a.08.08,0,0,0,0-.05.09.09,0,0,0-.06,0v0h.5v0a.09.09,0,0,0-.06,0A.08.08,0,0,0,45.37,51.24Z"/><rect class="cls-5" x="41.18" y="54.4" width="2.69" height="2.64"/><path class="cls-6" d="M42.14,56v.56a.08.08,0,0,0,0,.06.09.09,0,0,0,.06,0v0h-.53v0l.06,0a.08.08,0,0,0,0-.06V55.08a.08.08,0,0,0,0-.06.09.09,0,0,0-.06,0v0h1.07a1.26,1.26,0,0,1,.3,0,.56.56,0,0,1,.19.09.39.39,0,0,1,.14.17.54.54,0,0,1,0,.22.48.48,0,0,1-.1.31.42.42,0,0,1-.21.16,1.18,1.18,0,0,1-.37,0Zm0-.29h.58a.7.7,0,0,0,.24,0,.27.27,0,0,0,.07-.08.23.23,0,0,0,0-.12.22.22,0,0,0,0-.11.27.27,0,0,0-.07-.08.7.7,0,0,0-.24,0h-.58Z"/><rect class="cls-5" x="44.83" y="54.4" width="2.69" height="2.64"/><path class="cls-6" d="M47,55.09l-.2.4,0,0v0s0-.05-.07-.09a.94.94,0,0,0-.53-.15.75.75,0,0,0-.23,0,.35.35,0,0,0-.12.07.18.18,0,0,0-.05.11c0,.07,0,.11.12.14l.26,0,.19,0a1.45,1.45,0,0,1,.29.06.56.56,0,0,1,.19.09.36.36,0,0,1,.14.16.54.54,0,0,1,.05.21.5.5,0,0,1-.12.33.66.66,0,0,1-.33.19,1.34,1.34,0,0,1-.35,0,1.51,1.51,0,0,1-.68-.16l-.08,0,0,0h0l.19-.43,0,0v0a.12.12,0,0,0,.06.1.72.72,0,0,0,.25.13,1.25,1.25,0,0,0,.32,0,.62.62,0,0,0,.29-.06.28.28,0,0,0,.11-.08.2.2,0,0,0,0-.11.13.13,0,0,0-.09-.12,1.29,1.29,0,0,0-.26-.05l-.19,0-.28,0-.16-.06a.58.58,0,0,1-.18-.17.48.48,0,0,1-.06-.24.49.49,0,0,1,.15-.36.85.85,0,0,1,.59-.19,1.55,1.55,0,0,1,.31,0,2.08,2.08,0,0,1,.35.12l.09,0,.07,0Z"/><path class="cls-4" d="M30.21,46.67h.61c.9.06,1.79.09,2.68.17a10.39,10.39,0,0,1,4.68,1,1.21,1.21,0,0,1,.66,1.17c0,3.57,0,7.14,0,10.71,0,.22,0,.43,0,.78-2.68-1.67-5.61-1.68-8.58-1.71Z"/><path class="cls-4" d="M27.59,48.06h1.69V59.78c2.85,0,5.66-.19,8.47,1.17h-10c0-.29,0-.59,0-.88V49.28c0-.35-.05-.71-.08-1.07Z"/><polygon class="cls-6" points="32.37 46.71 32.37 54.51 32.99 53.61 33.61 54.51 33.61 46.77 32.37 46.71"/><rect class="cls-7" x="5.99" y="31.39" width="66.72" height="13.07"/><path class="cls-8" d="M19.26,36.6l.23.75a2,2,0,0,0,.41.12,1.56,1.56,0,0,0,.4.05,1.16,1.16,0,0,0,.42-.08.87.87,0,0,0,.31-.2.8.8,0,0,0,.18-.27.72.72,0,0,0,.07-.3.69.69,0,0,0-.21-.51,4.49,4.49,0,0,0-.68-.53,3.94,3.94,0,0,1-.69-.54,1.2,1.2,0,0,1-.28-.38,1,1,0,0,1-.09-.43,1.13,1.13,0,0,1,.14-.52,1.21,1.21,0,0,1,.44-.43,1.51,1.51,0,0,1,.73-.17l.42,0,.31,0h.32l0,1h0l-.19-.71a1.93,1.93,0,0,0-.74-.18,1,1,0,0,0-.47.1.71.71,0,0,0-.32.27.65.65,0,0,0-.12.39.66.66,0,0,0,.16.41,2,2,0,0,0,.42.36l.58.38a3.1,3.1,0,0,1,.49.39,1.15,1.15,0,0,1,.36.83,1.12,1.12,0,0,1-.14.55,1.22,1.22,0,0,1-.47.49,1.65,1.65,0,0,1-.85.19,3.7,3.7,0,0,1-.45,0l-.39,0h-.27l-.05-1.07Zm1.49-3.38h-.1a1.44,1.44,0,0,0-.62.14,1.08,1.08,0,0,0-.44.38,1,1,0,0,0-.17.55,1,1,0,0,0,.34.72,1.9,1.9,0,0,0,.28.24c.08.07.22.16.39.28l.42.29a1.94,1.94,0,0,1,.25.22.81.81,0,0,1,.28.61.9.9,0,0,1-.13.44.87.87,0,0,1-.36.35,1.13,1.13,0,0,1-.56.14v0a1.33,1.33,0,0,0,.66-.13,1.08,1.08,0,0,0,.44-.37.91.91,0,0,0,.15-.49,1,1,0,0,0-.07-.39,1.07,1.07,0,0,0-.25-.36,2.73,2.73,0,0,0-.38-.29l-.56-.39a3.16,3.16,0,0,1-.42-.32,1,1,0,0,1-.31-.69.86.86,0,0,1,.28-.62,1.23,1.23,0,0,1,.88-.31Z"/><path class="cls-8" d="M29.1,36.84l-.45.83-.42,0-.43,0-.43,0a2.78,2.78,0,0,1-1.08-.19,2.2,2.2,0,0,1-.78-.51,2.19,2.19,0,0,1-.61-1.51,2.39,2.39,0,0,1,.18-.94,2.1,2.1,0,0,1,1.23-1.22,2.35,2.35,0,0,1,.92-.17h.53c.28,0,.49,0,.63,0a4.67,4.67,0,0,0,.64,0l0,1h0l-.21-.68-.32-.06a6.79,6.79,0,0,0-.91-.09,2.23,2.23,0,0,0-1.07.25,1.64,1.64,0,0,0-.67.71,2.39,2.39,0,0,0-.22,1.06,2.2,2.2,0,0,0,.16.86,1.69,1.69,0,0,0,.45.66,2.13,2.13,0,0,0,.65.42,2.29,2.29,0,0,0,.78.14,1.9,1.9,0,0,0,.76-.14,1.5,1.5,0,0,0,.64-.5Zm-1.37-3.61h-.36a2.78,2.78,0,0,0-1,.17,2.08,2.08,0,0,0-1.21,1.21,2.49,2.49,0,0,0-.16.87,2.06,2.06,0,0,0,.17.81,1.8,1.8,0,0,0,.48.69,2.22,2.22,0,0,0,.75.47,2.82,2.82,0,0,0,1,.17h.31v0a3,3,0,0,1-1.08-.15,2.34,2.34,0,0,1-.78-.48,2.13,2.13,0,0,1-.46-.7,2.17,2.17,0,0,1-.15-.79,2.66,2.66,0,0,1,.13-.78,2.26,2.26,0,0,1,.41-.7,2,2,0,0,1,.7-.51,2.64,2.64,0,0,1,1-.19h.22Z"/><path class="cls-8" d="M31.85,33.22h2.2v0l-.8.1c0,.12,0,.31-.06.59s0,.52,0,.72,0,.38,0,.63a8.48,8.48,0,0,0,1.33.08c.29,0,.57,0,.82,0a7,7,0,0,0,.71-.06c0-.2,0-.43,0-.71s0-.32,0-.48,0-.3,0-.4,0-.21,0-.35l-.81-.1v0h2.21v0l-.62.1a4.76,4.76,0,0,0-.07.76c0,.35,0,.7,0,1v1a7.71,7.71,0,0,0,.09,1.37l.63.1v0H35.18v0l.79-.1a7.93,7.93,0,0,0,.1-1.14,2.39,2.39,0,0,0,0-.38c0-.15,0-.31,0-.47H33.18c0,.15,0,.39,0,.71s0,.42,0,.67a2.93,2.93,0,0,0,.07.61l.79.1v0H31.84v0l.61-.1a4.24,4.24,0,0,0,0-.44c0-.21,0-.45,0-.71s0-.48,0-.66V34.6s0-.14,0-.32a4.89,4.89,0,0,0,0-.54,2.2,2.2,0,0,0,0-.39l-.61-.1Zm.79.12v4.2h.21v-4.2Zm3.51,0v4.21h.22V33.33Z"/><path class="cls-8" d="M42.6,33.15a2.76,2.76,0,0,1,1.12.22,2.22,2.22,0,0,1,.77.56,2.54,2.54,0,0,1,.45.75,2.3,2.3,0,0,1,.14.75,2.25,2.25,0,0,1-.16.81,2.46,2.46,0,0,1-.47.73,2.51,2.51,0,0,1-.77.53,2.63,2.63,0,0,1-1,.19,2.51,2.51,0,0,1-1.38-.35,2.27,2.27,0,0,1-.84-.88,2.16,2.16,0,0,1-.27-1,2.08,2.08,0,0,1,.17-.85,2.15,2.15,0,0,1,.5-.74,2.2,2.2,0,0,1,.78-.51A2.64,2.64,0,0,1,42.6,33.15Zm-.13.12v0a2,2,0,0,0-.83.18,2.31,2.31,0,0,0-.71.49,2.42,2.42,0,0,0-.48.7,2,2,0,0,0,.12,1.85,2.35,2.35,0,0,0,.79.81,2.19,2.19,0,0,0,1.12.33v0a2.13,2.13,0,0,1-1-.37,2,2,0,0,1-.69-.78,2.11,2.11,0,0,1-.24-1,2.3,2.3,0,0,1,.14-.79A2.08,2.08,0,0,1,41,34a2,2,0,0,1,.63-.48A2.12,2.12,0,0,1,42.47,33.27Zm.14.1a1.68,1.68,0,0,0-.87.24,1.82,1.82,0,0,0-.63.71,2.66,2.66,0,0,0,0,2.25,1.69,1.69,0,0,0,.66.69,1.68,1.68,0,0,0,.83.23A1.65,1.65,0,0,0,43.84,37a2,2,0,0,0,.39-.64,2.41,2.41,0,0,0,.13-.83,3.06,3.06,0,0,0-.14-1,1.93,1.93,0,0,0-.43-.66,1.4,1.4,0,0,0-.55-.35A1.67,1.67,0,0,0,42.61,33.37Zm.16-.13v0a2.11,2.11,0,0,1,.59.14,1.78,1.78,0,0,1,.56.36,1.92,1.92,0,0,1,.42.67,3.3,3.3,0,0,1,.06,1.75,2,2,0,0,1-.3.65,1.56,1.56,0,0,1-.53.49,1.93,1.93,0,0,1-.79.24v0a2,2,0,0,0,.73-.17,1.75,1.75,0,0,0,.62-.42,1.84,1.84,0,0,0,.43-.68,2.35,2.35,0,0,0,.16-.89,2.52,2.52,0,0,0-.16-.95,1.91,1.91,0,0,0-1.08-1.1A2.15,2.15,0,0,0,42.77,33.24Z"/><path class="cls-8" d="M50.46,33.15a2.78,2.78,0,0,1,1.13.22,2.22,2.22,0,0,1,.77.56,2.31,2.31,0,0,1,.44.75,2.09,2.09,0,0,1,.15.75,2.25,2.25,0,0,1-.16.81,2.27,2.27,0,0,1-1.25,1.26,2.89,2.89,0,0,1-2.41-.16,2.32,2.32,0,0,1-.83-.88,2.16,2.16,0,0,1-.27-1,2.08,2.08,0,0,1,.17-.85,2.15,2.15,0,0,1,.5-.74,2.12,2.12,0,0,1,.78-.51A2.63,2.63,0,0,1,50.46,33.15Zm-.12.12v0a2,2,0,0,0-.83.18,2.2,2.2,0,0,0-.71.49,2.42,2.42,0,0,0-.48.7,2,2,0,0,0,.12,1.85,2.27,2.27,0,0,0,.79.81,2.19,2.19,0,0,0,1.12.33v0a2.21,2.21,0,0,1-1.05-.37,2,2,0,0,1-.68-.78,2.11,2.11,0,0,1-.24-1,2.3,2.3,0,0,1,.14-.79,2.08,2.08,0,0,1,.39-.68,2,2,0,0,1,.63-.48A2.12,2.12,0,0,1,50.34,33.27Zm.14.1a1.68,1.68,0,0,0-.87.24,1.75,1.75,0,0,0-.63.71,2.66,2.66,0,0,0,0,2.25,1.69,1.69,0,0,0,.66.69,1.68,1.68,0,0,0,.83.23A1.65,1.65,0,0,0,51.71,37a1.94,1.94,0,0,0,.38-.64,2.19,2.19,0,0,0,.14-.83,3.06,3.06,0,0,0-.14-1,1.93,1.93,0,0,0-.43-.66,1.4,1.4,0,0,0-.55-.35A1.67,1.67,0,0,0,50.48,33.37Zm.16-.13v0a2.19,2.19,0,0,1,.59.14,1.9,1.9,0,0,1,.56.36,1.77,1.77,0,0,1,.41.67,2.78,2.78,0,0,1,.16,1,3,3,0,0,1-.09.74,2,2,0,0,1-.3.65,1.56,1.56,0,0,1-.53.49,1.93,1.93,0,0,1-.8.24v0a2.05,2.05,0,0,0,.74-.17A1.84,1.84,0,0,0,52,37a2,2,0,0,0,.43-.68,2.35,2.35,0,0,0,.16-.89,2.52,2.52,0,0,0-.16-.95,1.91,1.91,0,0,0-1.08-1.1A2.2,2.2,0,0,0,50.64,33.24Z"/><path class="cls-8" d="M55.73,33.25v0H58v0l-.75.1c0,.2-.05.46-.07.8s0,.62,0,.87v1.31c0,.31,0,.64,0,1a3.51,3.51,0,0,0,1.07.16,3.58,3.58,0,0,0,.49,0l.32-.06.32-.83h0l-.14,1.11h-3.6v0l.72-.1a2.94,2.94,0,0,0,.07-.52c0-.25,0-.51,0-.77s0-.46,0-.57v-.76c0-.17,0-.36,0-.58s0-.41,0-.57a3.55,3.55,0,0,0,0-.41Zm.92.08v4.21h.22V33.33Z"/><path class="cls-9" d="M10.51,41.93h1v.36H10.09V39.94h.42Z"/><path class="cls-9" d="M13.39,41.31c0,.06,0,.13,0,.22H12.2a.54.54,0,0,0,.13.35.51.51,0,0,0,.35.12,1.49,1.49,0,0,0,.52-.1l.07.28a1.52,1.52,0,0,1-.61.13.82.82,0,0,1-.63-.23.94.94,0,0,1-.22-.64,1.34,1.34,0,0,1,0-.35,1,1,0,0,1,.14-.3.61.61,0,0,1,.26-.21.8.8,0,0,1,.39-.08C13.14,40.51,13.39,40.77,13.39,41.31Zm-.73-.5c-.26,0-.41.14-.45.44H13s0,0,0-.06a.36.36,0,0,0-.1-.27A.3.3,0,0,0,12.66,40.81Z"/><path class="cls-9" d="M14.57,40.5a.72.72,0,0,1,.48.17.52.52,0,0,1,.19.41v1a1.4,1.4,0,0,1-.36.13,1.72,1.72,0,0,1-.46.07.71.71,0,0,1-.47-.14.48.48,0,0,1-.18-.39c0-.37.24-.55.74-.55l.34,0v-.11a.33.33,0,0,0-.1-.23.46.46,0,0,0-.29-.08,1.86,1.86,0,0,0-.54.08l-.05-.32A2.75,2.75,0,0,1,14.57,40.5Zm-.44,1.29a.23.23,0,0,0,.09.19.43.43,0,0,0,.24.07.94.94,0,0,0,.39-.1v-.43l-.27,0C14.28,41.5,14.13,41.6,14.13,41.79Z"/><path class="cls-9" d="M16.67,40.51h.18l0,.34h-.19a1.09,1.09,0,0,0-.44.06v1.38h-.4V40.64A2.54,2.54,0,0,1,16.67,40.51Z"/><path class="cls-9" d="M17.24,42.29V40.64a2.87,2.87,0,0,1,.81-.14.86.86,0,0,1,.56.14.51.51,0,0,1,.17.41v1.24h-.4s0-.17,0-.49v-.62c0-.22-.12-.34-.36-.34a1.8,1.8,0,0,0-.39.07v1.38Z"/><path class="cls-9" d="M19.59,40.08a.22.22,0,0,1-.17-.06.2.2,0,0,1-.06-.15.21.21,0,0,1,.06-.16.21.21,0,0,1,.17-.06c.16,0,.24.07.24.22a.2.2,0,0,1-.06.15A.22.22,0,0,1,19.59,40.08Zm-.19,2.21V40.53h.4v1.76Z"/><path class="cls-9" d="M20.42,42.29V40.64a2.94,2.94,0,0,1,.82-.14.82.82,0,0,1,.55.14.48.48,0,0,1,.18.41c0,.12,0,.35,0,.7v.54h-.39V41.18a.31.31,0,0,0-.35-.34,2,2,0,0,0-.4.07v1.38Z"/><path class="cls-9" d="M23.26,41.87c.6.05.9.24.9.58a.51.51,0,0,1-.23.43,1.3,1.3,0,0,1-.69.16,1.22,1.22,0,0,1-.61-.14.45.45,0,0,1-.22-.42.46.46,0,0,1,.16-.35,1.27,1.27,0,0,1,.37-.25v-.22a.71.71,0,0,1-.36-.2.57.57,0,0,1,.09-.81,1,1,0,0,1,.63-.16,2.63,2.63,0,0,1,.73.1,1.58,1.58,0,0,1,0,.38.68.68,0,0,1-.21.53.9.9,0,0,1-.6.19Zm0,.83a.81.81,0,0,0,.38-.07.21.21,0,0,0,.13-.18c0-.18-.21-.27-.63-.28a.51.51,0,0,0-.23.12.22.22,0,0,0-.11.17.19.19,0,0,0,.13.18A.81.81,0,0,0,23.26,42.7Zm-.43-1.6c0,.19.15.28.44.28a.48.48,0,0,0,.31-.09.31.31,0,0,0,.11-.25.41.41,0,0,0,0-.19,1.38,1.38,0,0,0-.38,0,.58.58,0,0,0-.33.07A.25.25,0,0,0,22.83,41.1Z"/><path class="cls-9" d="M27.23,39.94v.34h-.7v2h-.41v-2h-.7v-.34Z"/><path class="cls-9" d="M28.72,42.08a.87.87,0,0,1-1.2,0,.93.93,0,0,1-.22-.67,1,1,0,0,1,.22-.67.79.79,0,0,1,.6-.25.76.76,0,0,1,.6.25,1,1,0,0,1,.22.67A.93.93,0,0,1,28.72,42.08Zm-.6-.13a.37.37,0,0,0,.3-.14.78.78,0,0,0,0-.8.37.37,0,0,0-.3-.14.36.36,0,0,0-.3.14.78.78,0,0,0,0,.8A.36.36,0,0,0,28.12,42Z"/><path class="cls-9" d="M30.57,39.6H31v2.61a2.13,2.13,0,0,1-.7.11,1,1,0,0,1-.72-.24,1,1,0,0,1-.22-.66.9.9,0,0,1,.23-.66.88.88,0,0,1,.69-.26,1.12,1.12,0,0,1,.32,0Zm-.83,1.81a.62.62,0,0,0,.13.4.52.52,0,0,0,.4.15,1,1,0,0,0,.3-.05v-1a1.38,1.38,0,0,0-.26,0,.57.57,0,0,0-.43.16A.6.6,0,0,0,29.74,41.41Z"/><path class="cls-9" d="M32.24,40.5a.72.72,0,0,1,.48.17.52.52,0,0,1,.19.41v1a1.36,1.36,0,0,1-.37.13,1.6,1.6,0,0,1-.45.07.69.69,0,0,1-.47-.14.47.47,0,0,1-.19-.39c0-.37.25-.55.75-.55l.33,0v-.11a.32.32,0,0,0-.09-.23.49.49,0,0,0-.3-.08,1.86,1.86,0,0,0-.54.08l0-.32A2.69,2.69,0,0,1,32.24,40.5Zm-.45,1.29a.24.24,0,0,0,.1.19.42.42,0,0,0,.23.07.94.94,0,0,0,.39-.1v-.43l-.27,0C31.94,41.5,31.79,41.6,31.79,41.79Z"/><path class="cls-9" d="M34.6,40.53H35l-.56,1.93a.77.77,0,0,1-.23.43.55.55,0,0,1-.38.13.69.69,0,0,1-.26-.05l.07-.26.17,0a.29.29,0,0,0,.2-.07.39.39,0,0,0,.12-.19,1.63,1.63,0,0,0,0-.18h-.3l-.61-1.76h.43L34.12,42h.13C34.41,41.32,34.53,40.84,34.6,40.53Z"/><path class="cls-9" d="M35.59,42.28a.32.32,0,0,1-.23.07.29.29,0,0,1-.22-.07.32.32,0,0,1-.07-.19.26.26,0,0,1,.29-.27.32.32,0,0,1,.23.08.29.29,0,0,1,.07.19A.32.32,0,0,1,35.59,42.28Z"/><path class="cls-9" d="M36.63,42.28a.38.38,0,0,1-.44,0,.26.26,0,0,1-.07-.19.25.25,0,0,1,.07-.19.34.34,0,0,1,.44,0,.25.25,0,0,1,.07.19A.26.26,0,0,1,36.63,42.28Z"/><path class="cls-9" d="M37.68,42.28a.29.29,0,0,1-.22.07.28.28,0,0,1-.22-.07.26.26,0,0,1-.07-.19.25.25,0,0,1,.07-.19.28.28,0,0,1,.22-.08.29.29,0,0,1,.22.08.25.25,0,0,1,.07.19A.26.26,0,0,1,37.68,42.28Z"/><path class="cls-9" d="M39.62,41.93h1v.36H39.2V39.94h.42Z"/><path class="cls-9" d="M42.5,41.31c0,.06,0,.13,0,.22H41.31a.54.54,0,0,0,.14.35.48.48,0,0,0,.34.12,1.49,1.49,0,0,0,.52-.1l.07.28a1.49,1.49,0,0,1-.61.13.78.78,0,0,1-.62-.23.9.9,0,0,1-.23-.64,1.17,1.17,0,0,1,.19-.65.61.61,0,0,1,.26-.21.8.8,0,0,1,.39-.08C42.25,40.51,42.5,40.77,42.5,41.31Zm-.73-.5c-.26,0-.41.14-.45.44h.79s0,0,0-.06a.36.36,0,0,0-.1-.27A.3.3,0,0,0,41.77,40.81Z"/><path class="cls-9" d="M43.68,40.5a.72.72,0,0,1,.48.17.52.52,0,0,1,.19.41v1a1.26,1.26,0,0,1-.36.13,1.72,1.72,0,0,1-.46.07.71.71,0,0,1-.47-.14.48.48,0,0,1-.18-.39c0-.37.25-.55.74-.55l.34,0v-.11a.33.33,0,0,0-.1-.23.46.46,0,0,0-.29-.08,1.86,1.86,0,0,0-.54.08L43,40.6A2.75,2.75,0,0,1,43.68,40.5Zm-.44,1.29a.23.23,0,0,0,.09.19.45.45,0,0,0,.24.07A.94.94,0,0,0,44,42v-.43l-.27,0C43.39,41.5,43.24,41.6,43.24,41.79Z"/><path class="cls-9" d="M46.06,39.6h.4v2.61a2.07,2.07,0,0,1-.69.11,1,1,0,0,1-.72-.24,1,1,0,0,1-.23-.66,1,1,0,0,1,.23-.66.9.9,0,0,1,.69-.26,1.08,1.08,0,0,1,.32,0Zm-.82,1.81a.57.57,0,0,0,.13.4.51.51,0,0,0,.4.15.93.93,0,0,0,.29-.05v-1a1.29,1.29,0,0,0-.25,0,.52.52,0,0,0-.57.57Z"/><path class="cls-9" d="M47.27,40.08A.24.24,0,0,1,47.1,40a.2.2,0,0,1-.06-.15.21.21,0,0,1,.06-.16.21.21,0,0,1,.17-.06c.16,0,.24.07.24.22a.25.25,0,0,1,0,.15A.25.25,0,0,1,47.27,40.08Zm-.19,2.21V40.53h.4v1.76Z"/><path class="cls-9" d="M48.1,42.29V40.64a3,3,0,0,1,.82-.14.82.82,0,0,1,.55.14.48.48,0,0,1,.18.41v1.24h-.39V41.8c0-.31,0-.52,0-.62s-.12-.34-.36-.34a1.8,1.8,0,0,0-.39.07v1.38Z"/><path class="cls-9" d="M50.94,41.87c.6.05.9.24.9.58a.51.51,0,0,1-.23.43,1.29,1.29,0,0,1-.68.16,1.17,1.17,0,0,1-.61-.14.44.44,0,0,1-.23-.42.46.46,0,0,1,.16-.35,1.42,1.42,0,0,1,.37-.25v-.22a.71.71,0,0,1-.36-.2.57.57,0,0,1,.09-.81,1,1,0,0,1,.63-.16,2.63,2.63,0,0,1,.73.1,1.58,1.58,0,0,1,0,.38.68.68,0,0,1-.21.53.9.9,0,0,1-.6.19Zm0,.83a.81.81,0,0,0,.38-.07.21.21,0,0,0,.13-.18c0-.18-.21-.27-.63-.28a.57.57,0,0,0-.23.12.22.22,0,0,0-.11.17.2.2,0,0,0,.14.18A.76.76,0,0,0,50.94,42.7Zm-.43-1.6c0,.19.15.28.44.28a.48.48,0,0,0,.31-.09.31.31,0,0,0,.11-.25.41.41,0,0,0,0-.19,1.38,1.38,0,0,0-.38,0,.6.6,0,0,0-.33.07A.25.25,0,0,0,50.51,41.1Z"/><path class="cls-9" d="M54.91,39.94v.34h-.69v2H53.8v-2h-.7v-.34Z"/><path class="cls-9" d="M56.4,42.08a.75.75,0,0,1-.6.24.78.78,0,0,1-.6-.24,1,1,0,0,1-.22-.67,1,1,0,0,1,.22-.67.86.86,0,0,1,1.21,0,1,1,0,0,1,.21.67A.93.93,0,0,1,56.4,42.08ZM55.8,42a.36.36,0,0,0,.3-.14.78.78,0,0,0,0-.8.36.36,0,0,0-.3-.14.39.39,0,0,0-.3.14.78.78,0,0,0,0,.8A.39.39,0,0,0,55.8,42Z"/><path class="cls-9" d="M58.88,40.51a.65.65,0,0,1,.43.14.5.5,0,0,1,.16.39v1.25h-.39V41.12a.22.22,0,0,0-.08-.18.24.24,0,0,0-.2-.07.53.53,0,0,0-.3.11v1.31H58.1V41a.37.37,0,0,0-.29-.1.53.53,0,0,0-.28.07v1.34h-.39V40.68a1.51,1.51,0,0,1,.65-.16.87.87,0,0,1,.54.15A1.11,1.11,0,0,1,58.88,40.51Z"/><path class="cls-9" d="M61.4,42.08a.87.87,0,0,1-1.2,0,.93.93,0,0,1-.22-.67,1,1,0,0,1,.22-.67.76.76,0,0,1,.6-.25.79.79,0,0,1,.6.25,1,1,0,0,1,.22.67A.93.93,0,0,1,61.4,42.08ZM60.8,42a.39.39,0,0,0,.3-.14.78.78,0,0,0,0-.8.39.39,0,0,0-.3-.14.36.36,0,0,0-.3.14.78.78,0,0,0,0,.8A.36.36,0,0,0,60.8,42Z"/><path class="cls-9" d="M63,40.51h.17v.34h-.19a1.17,1.17,0,0,0-.45.06v1.38H62.1l0-1.65A2.59,2.59,0,0,1,63,40.51Z"/><path class="cls-9" d="M64.41,40.51h.18l0,.34h-.19a1.17,1.17,0,0,0-.45.06v1.38h-.39V40.64A2.54,2.54,0,0,1,64.41,40.51Z"/><path class="cls-9" d="M66.31,42.08a.87.87,0,0,1-1.2,0,.93.93,0,0,1-.22-.67,1,1,0,0,1,.22-.67.78.78,0,0,1,.6-.25.76.76,0,0,1,.6.25,1,1,0,0,1,.22.67A.93.93,0,0,1,66.31,42.08Zm-.6-.13a.37.37,0,0,0,.3-.14.78.78,0,0,0,0-.8.37.37,0,0,0-.3-.14.36.36,0,0,0-.3.14.78.78,0,0,0,0,.8A.36.36,0,0,0,65.71,42Z"/><path class="cls-9" d="M67.29,42.29l-.42-1.76h.37l.32,1.36h0l.4-1.29h.34l.42,1.28h0l.32-1.36h.33L69,42.29h-.49l-.37-1.09h0l-.36,1.09Z"/></g></g></svg>