<svg xmlns="http://www.w3.org/2000/svg" viewBox="0 0 139.54 133.4"><defs><style>.cls-1{fill:#63000a;}.cls-2{fill:silver;}.cls-3{fill:#630106;}</style></defs><title>Asset 22</title><g id="Layer_2" data-name="Layer 2"><g id="Layer_1-2" data-name="Layer 1"><path class="cls-1" d="M5.1,99.34s51-6.81,60.48,12.22h11s5.72-21.19,59.55-16.24V37.16h-5.88v52s-40.9-3.67-58.62,16.59c-1-.93-14-17.88-57.64-13.39,0-1.55-.36-51.46-.36-51.46H5.1Z"/><path class="cls-2" d="M107.17,34.53a35.68,35.68,0,0,1-71,0h-20V86.81c21.67-2.47,51.35,10.67,51.35,10.67S72.28,97,73.73,97C103,83.82,125.9,84.85,125.9,84.85V34.53Z"/><rect class="cls-1" x="67.54" y="66.01" width="7.22" height="33.1"/><path class="cls-3" d="M82.64,53.17q3.07.34,6,.95a47,47,0,0,0,5.09-7.17c-2.62-.47-5.34-.85-8.13-1.14A43.31,43.31,0,0,1,82.64,53.17Z"/><path class="cls-3" d="M86,44.4c2.91.31,5.73.72,8.45,1.23a25.33,25.33,0,0,0,3.12-12.82s0,0,0-.14H87.66A52.43,52.43,0,0,1,86,44.4Z"/><path class="cls-3" d="M71,21.22h-1.2c-3.64,0-7.21-.13-10.68-.38a50.6,50.6,0,0,0-1.51,10.28H71Z"/><path class="cls-3" d="M87.69,31.13h9.85a34.12,34.12,0,0,0-3-12q-4,.71-8.24,1.2A49.52,49.52,0,0,1,87.69,31.13Z"/><path class="cls-3" d="M82.36,62.26A34.07,34.07,0,0,0,93,56.64q-1.69-.49-3.45-.88A51.88,51.88,0,0,1,82.36,62.26Z"/><path class="cls-3" d="M55.3,57.27q-1.4.46-2.74,1a34.33,34.33,0,0,0,12.5,5.05,13,13,0,0,1-3.56-1.6A35,35,0,0,1,55.3,57.27Z"/><path class="cls-3" d="M72.49,43.76h1c3.62,0,7.16.16,10.6.47a43.56,43.56,0,0,0,1.62-11.54H72.49Z"/><path class="cls-3" d="M71,63.64V54.33a65.59,65.59,0,0,0-8.35,1A18.65,18.65,0,0,0,71,63.64Z"/><path class="cls-3" d="M49.08,8.18A32.39,32.39,0,0,0,41.88,17q2.44.51,5,.93a46.1,46.1,0,0,1,5.87-8.63Q50.87,8.82,49.08,8.18Z"/><path class="cls-3" d="M57.49,46.28q-4,.56-7.79,1.38a33.42,33.42,0,0,0,6.23,8q2.12-.67,4.36-1.19A41.28,41.28,0,0,1,57.49,46.28Z"/><path class="cls-3" d="M82.33,9.79a43.5,43.5,0,0,1,3.59,9.12q4.1-.45,8-1.13a44.69,44.69,0,0,0-6.32-9.52A53.54,53.54,0,0,1,82.33,9.79Z"/><path class="cls-3" d="M48,48q-2.37.56-4.61,1.22a32.85,32.85,0,0,0,7.82,8.07q1.42-.6,2.92-1.13A34.73,34.73,0,0,1,48,48Z"/><path class="cls-3" d="M71,19.78V11.33c-.86,0-1.72.06-2.59.06q-2.84,0-5.58-.25a44.71,44.71,0,0,0-3.32,8.29c3.35.23,6.79.35,10.3.35Z"/><path class="cls-3" d="M95.6,17.47q2.79-.53,5.43-1.16a32.68,32.68,0,0,0-9-9.86q-1.54.72-3.18,1.34A48.12,48.12,0,0,1,95.6,17.47Z"/><path class="cls-3" d="M87.54,55.35q-2.75-.52-5.64-.81a31.73,31.73,0,0,1-7.52,9.28,35.12,35.12,0,0,0,4.8-.7A66.27,66.27,0,0,0,87.54,55.35Z"/><path class="cls-3" d="M72.49,45.2v7.61c.89,0,1.78-.05,2.68-.05q2.75,0,5.41.21a41.16,41.16,0,0,0,3.12-7.34c-3.3-.28-6.71-.43-10.18-.43Z"/><path class="cls-3" d="M61,55.73q-2,.43-3.82,1a37.39,37.39,0,0,0,9.6,6A19.67,19.67,0,0,1,61,55.73Z"/><path class="cls-3" d="M71,9.88V.41a36.76,36.76,0,0,0-7.42,9.34q2.37.18,4.83.19C69.31,9.94,70.17,9.92,71,9.88Z"/><path class="cls-3" d="M79.67,8.91A35.13,35.13,0,0,0,72.49.52V9.81A60,60,0,0,0,79.67,8.91Z"/><path class="cls-3" d="M72.49,54.26V63.2a38.37,38.37,0,0,0,7.3-8.83q-2.27-.15-4.61-.16C74.27,54.21,73.38,54.23,72.49,54.26Z"/><path class="cls-3" d="M72.49,31.13h13.2a43.47,43.47,0,0,0-1.17-10.62c-3.88.39-7.9.63-12,.7Z"/><path class="cls-3" d="M55.69,32.67H45.26A37.11,37.11,0,0,0,49,46.37c2.62-.59,5.34-1.09,8.16-1.49A75.69,75.69,0,0,1,55.69,32.67Z"/><path class="cls-3" d="M72.49,19.76c4-.07,7.89-.29,11.66-.66a39.11,39.11,0,0,0-3.7-8.89,59.79,59.79,0,0,1-8,1Z"/><path class="cls-3" d="M57.15,20.69c-3.14-.27-6.2-.64-9.16-1.1-2.8,5.6-3,9.72-2.89,11.53H55.65A53.59,53.59,0,0,1,57.15,20.69Z"/><path class="cls-3" d="M71,32.67H57.63a64.72,64.72,0,0,0,1.29,12A116.73,116.73,0,0,1,71,43.78Z"/><path class="cls-3" d="M60.64,10.89a58.13,58.13,0,0,1-5.88-1.05,47,47,0,0,0-6.06,8.41q4.28.64,8.82,1A47.33,47.33,0,0,1,60.64,10.89Z"/><path class="cls-3" d="M81.61,8.51q2.57-.58,5-1.36A56.54,56.54,0,0,0,79.76.82,35.07,35.07,0,0,0,74.53,0,33.36,33.36,0,0,1,81.61,8.51Z"/><path class="cls-3" d="M71,45.23a116.89,116.89,0,0,0-11.8.83,39.24,39.24,0,0,0,2.77,8,65.36,65.36,0,0,1,9-1.17Z"/><path class="cls-3" d="M60.85,1.58A34.06,34.06,0,0,0,50.33,7.16q1.69.55,3.46,1A52.5,52.5,0,0,1,60.85,1.58Z"/><path class="cls-3" d="M55.85,8.64q2.67.57,5.48.9A33.88,33.88,0,0,1,68.8,0a35.16,35.16,0,0,0-4,.55A77.36,77.36,0,0,0,55.85,8.64Z"/><path class="cls-3" d="M87.9,6.7q1.48-.53,2.89-1.13a34.17,34.17,0,0,0-8.43-4A48.34,48.34,0,0,1,87.9,6.7Z"/><path class="cls-3" d="M94.29,55.58a32.55,32.55,0,0,0,6.18-7.18q-2.4-.61-4.92-1.11a40.16,40.16,0,0,1-4.94,7.27Q92.49,55,94.29,55.58Z"/><path class="cls-3" d="M96.21,46q2.58.53,5,1.18a30.69,30.69,0,0,0,4-14.48H99.39A30.83,30.83,0,0,1,96.21,46Z"/><path class="cls-3" d="M46.22,19.31q-2.57-.44-5-1a30.63,30.63,0,0,0-3.15,12.79h5.25A29.63,29.63,0,0,1,46.22,19.31Z"/><path class="cls-3" d="M43.39,32.67H38.06a30.73,30.73,0,0,0,4.58,15.38q2.29-.7,4.72-1.3A40.18,40.18,0,0,1,43.39,32.67Z"/><path class="cls-3" d="M96.25,18.8A30.86,30.86,0,0,1,99.3,31.13h6a30.65,30.65,0,0,0-3.53-13.54Q99.07,18.25,96.25,18.8Z"/><path class="cls-3" d="M65.06,63.3a16.21,16.21,0,0,0,4,.6l-.29-.1A35.17,35.17,0,0,1,65.06,63.3Z"/><path class="cls-3" d="M70.1,63.88h0s-.41,0-1.08,0l.06,0H71Z"/><path class="cls-3" d="M70.11,63.89h0l-1.36-.09.29.1C69.7,63.92,70.11,63.89,70.11,63.89Z"/><path class="cls-3" d="M71,63.91h0Z"/><path d="M27.78,47.62H25.37L20.26,36.11h2.6L26.57,45l3.72-8.92h2.6Z"/><rect x="19.72" y="35.92" width="4.49" height="0.49"/><rect x="29.08" y="35.92" width="4.49" height="0.49"/><rect x="24.53" y="47.14" width="4.16" height="0.49"/><path d="M75.94,67.92a5.87,5.87,0,0,0-3.49-1.15c-2.94,0-4.72,1.87-4.72,4.22,0,1.88,1.31,3.83,4.72,3.83a5.15,5.15,0,0,0,3.1-.92v-2H72V70h5.88v4.83a7.45,7.45,0,0,1-5.47,2.06C67.3,76.84,65.2,74,65.2,71c0-3.22,2.41-6.2,7.25-6.2a8,8,0,0,1,5.09,1.75Z"/><rect x="71.71" y="69.66" width="0.65" height="2.71"/><polygon points="75.95 68.34 75.47 67.95 77.3 66.12 77.78 66.5 76.83 67.46 75.95 68.34"/><rect x="76.39" y="68.73" width="0.58" height="3.02" transform="translate(146.93 -6.44) rotate(90)"/><polygon points="75.77 76.14 75.41 75.66 77.92 74.16 78.28 74.64 75.77 76.14"/><path d="M118.38,36.69a3.45,3.45,0,0,0-2.73-1.14c-1.61,0-2.38.6-2.38,1.36s1.18,1.14,2.56,1.29c2.4.26,4.63.82,4.63,3.26,0,2.28-2.27,3.26-4.83,3.26-2.35,0-4.15-.64-5-2.51l1.81-.83A3.37,3.37,0,0,0,115.67,43c1.36,0,2.64-.42,2.64-1.53s-1.13-1.36-2.66-1.5c-2.35-.25-4.52-.8-4.52-3.1,0-2.1,2.33-3,4.45-3,1.79,0,3.65.45,4.52,2Z"/><polygon points="110.69 42.61 110.32 42.13 112.33 40.89 112.71 41.37 111.66 42.02 110.69 42.61"/><polygon points="118.37 37.01 117.99 36.53 119.87 35.39 120.25 35.87 119.27 36.47 118.37 37.01"/><path d="M4.5,131.36v.75H0v-6.8H4.49v.75H1v2.26H3.83V129H1v2.32Z"/><path d="M6.38,128a3,3,0,0,1,.36-.32,2.38,2.38,0,0,1,.4-.24,2.14,2.14,0,0,1,.45-.16,2.28,2.28,0,0,1,.51-.05,2,2,0,0,1,.75.13,1.44,1.44,0,0,1,.54.37,1.6,1.6,0,0,1,.33.58,2.35,2.35,0,0,1,.11.74v3.06H8.91v-3.06a1.23,1.23,0,0,0-.27-.85,1,1,0,0,0-.81-.3,1.61,1.61,0,0,0-.75.18,2.45,2.45,0,0,0-.64.49v3.54H5.52v-4.81h.54a.22.22,0,0,1,.24.18Z"/><path d="M12.72,132.19a1.3,1.3,0,0,1-.94-.32,1.22,1.22,0,0,1-.33-.92V128h-.62a.21.21,0,0,1-.14,0,.17.17,0,0,1-.06-.14v-.34l.84-.1.21-1.48a.2.2,0,0,1,.07-.12.21.21,0,0,1,.14,0h.46v1.66h1.49V128H12.35v2.88a.59.59,0,0,0,.16.45.57.57,0,0,0,.41.15.77.77,0,0,0,.25,0l.18-.08.13-.08a.18.18,0,0,1,.09,0,.16.16,0,0,1,.13.08l.26.4a1.72,1.72,0,0,1-.57.32A2,2,0,0,1,12.72,132.19Z"/><path d="M18.94,131.44a1.69,1.69,0,0,1-.4.33,2.6,2.6,0,0,1-.5.23,3.39,3.39,0,0,1-.55.14,3.63,3.63,0,0,1-.57,0,2.79,2.79,0,0,1-1-.17,2.17,2.17,0,0,1-.78-.49,2.24,2.24,0,0,1-.51-.8,3.07,3.07,0,0,1-.18-1.1,2.63,2.63,0,0,1,.17-.94,2.15,2.15,0,0,1,1.23-1.26,2.65,2.65,0,0,1,1-.18,2.47,2.47,0,0,1,.86.14,2,2,0,0,1,.68.42,1.9,1.9,0,0,1,.45.67,2.41,2.41,0,0,1,.16.91.52.52,0,0,1,0,.27.2.2,0,0,1-.17.07H15.36a2.64,2.64,0,0,0,.13.79,1.56,1.56,0,0,0,.33.56,1.34,1.34,0,0,0,.51.34,1.86,1.86,0,0,0,.66.11,2.08,2.08,0,0,0,.59-.07,2.92,2.92,0,0,0,.42-.16l.3-.16a.41.41,0,0,1,.21-.07.2.2,0,0,1,.17.08Zm-.73-2.25a1.56,1.56,0,0,0-.09-.54,1.19,1.19,0,0,0-.26-.42,1.16,1.16,0,0,0-.41-.27,1.49,1.49,0,0,0-.55-.1,1.45,1.45,0,0,0-1,.35,1.61,1.61,0,0,0-.47,1Z"/><path d="M21,128.27a2.18,2.18,0,0,1,.6-.77,1.37,1.37,0,0,1,.87-.28,1.45,1.45,0,0,1,.31,0,.87.87,0,0,1,.27.1L23,128a.14.14,0,0,1-.15.12l-.21,0a1.56,1.56,0,0,0-.31,0,1.33,1.33,0,0,0-.44.07,1,1,0,0,0-.34.2,1.41,1.41,0,0,0-.27.32,2.67,2.67,0,0,0-.22.44v3h-.91v-4.81h.52a.3.3,0,0,1,.2.05.31.31,0,0,1,.08.18Z"/><path d="M27.81,132.19a1.3,1.3,0,0,1-.94-.32,1.22,1.22,0,0,1-.33-.92V128h-.62a.21.21,0,0,1-.14,0,.17.17,0,0,1-.06-.14v-.34l.84-.1.21-1.48a.2.2,0,0,1,.07-.12.21.21,0,0,1,.14,0h.46v1.66h1.49V128H27.45v2.88a.59.59,0,0,0,.16.45.57.57,0,0,0,.41.15.77.77,0,0,0,.25,0l.18-.08.13-.08a.18.18,0,0,1,.09,0,.16.16,0,0,1,.13.08l.26.4a1.72,1.72,0,0,1-.57.32A2,2,0,0,1,27.81,132.19Z"/><path d="M32,127.23a2.8,2.8,0,0,1,1,.18,2.19,2.19,0,0,1,.77.5,2.16,2.16,0,0,1,.49.78,3.16,3.16,0,0,1,0,2A2.12,2.12,0,0,1,33,132a2.83,2.83,0,0,1-1,.17,2.87,2.87,0,0,1-1-.17,2.11,2.11,0,0,1-1.27-1.27,3.16,3.16,0,0,1,0-2,2.16,2.16,0,0,1,.49-.78,2.19,2.19,0,0,1,.78-.5A2.83,2.83,0,0,1,32,127.23Zm0,4.29a1.36,1.36,0,0,0,1.14-.48,2.55,2.55,0,0,0,0-2.67,1.36,1.36,0,0,0-1.14-.48,1.7,1.7,0,0,0-.67.12,1.24,1.24,0,0,0-.48.36,1.53,1.53,0,0,0-.29.57,2.86,2.86,0,0,0-.09.77,2.09,2.09,0,0,0,.38,1.33A1.38,1.38,0,0,0,32,131.52Z"/><path d="M42.58,131.34v.77H38.45v-6.8h1v6Z"/><path d="M47.27,131.44a1.69,1.69,0,0,1-.4.33,2.6,2.6,0,0,1-.5.23,3.39,3.39,0,0,1-.55.14,3.63,3.63,0,0,1-.57,0,2.79,2.79,0,0,1-1-.17,2.17,2.17,0,0,1-.78-.49,2.24,2.24,0,0,1-.51-.8,3.07,3.07,0,0,1-.18-1.1,2.63,2.63,0,0,1,.17-.94,2.15,2.15,0,0,1,1.23-1.26,2.65,2.65,0,0,1,1-.18,2.47,2.47,0,0,1,.86.14,2,2,0,0,1,.68.42,1.9,1.9,0,0,1,.45.67,2.41,2.41,0,0,1,.16.91.52.52,0,0,1,0,.27.2.2,0,0,1-.17.07H43.69a2.64,2.64,0,0,0,.13.79,1.56,1.56,0,0,0,.33.56,1.34,1.34,0,0,0,.51.34,1.86,1.86,0,0,0,.66.11,2.08,2.08,0,0,0,.59-.07,2.92,2.92,0,0,0,.42-.16l.3-.16a.41.41,0,0,1,.21-.07.2.2,0,0,1,.17.08Zm-.73-2.25a1.56,1.56,0,0,0-.09-.54,1.19,1.19,0,0,0-.26-.42,1.16,1.16,0,0,0-.41-.27,1.49,1.49,0,0,0-.55-.1,1.45,1.45,0,0,0-1,.35,1.61,1.61,0,0,0-.47,1Z"/><path d="M48.33,128a3,3,0,0,1,.92-.57,3,3,0,0,1,1.09-.19,2.08,2.08,0,0,1,.77.13,1.58,1.58,0,0,1,.57.37,1.54,1.54,0,0,1,.35.57,2.24,2.24,0,0,1,.12.74v3.07h-.4a.42.42,0,0,1-.2,0,.27.27,0,0,1-.11-.16l-.1-.46q-.2.18-.4.31a2.29,2.29,0,0,1-.86.37,2.67,2.67,0,0,1-.54,0,2,2,0,0,1-.56-.08,1.34,1.34,0,0,1-.46-.23,1.11,1.11,0,0,1-.31-.4,1.3,1.3,0,0,1-.11-.57,1,1,0,0,1,.17-.55,1.44,1.44,0,0,1,.54-.47,3.74,3.74,0,0,1,1-.33,8,8,0,0,1,1.49-.15V129a1.22,1.22,0,0,0-.26-.85,1,1,0,0,0-.76-.29,1.74,1.74,0,0,0-.56.08,2.15,2.15,0,0,0-.39.18l-.29.18a.43.43,0,0,1-.24.08.27.27,0,0,1-.16,0,.42.42,0,0,1-.11-.11Zm2.93,2a8.05,8.05,0,0,0-1.07.09,3.19,3.19,0,0,0-.72.19,1,1,0,0,0-.4.28.58.58,0,0,0-.12.36.75.75,0,0,0,.07.33.61.61,0,0,0,.18.23.75.75,0,0,0,.27.13,1.32,1.32,0,0,0,.33,0,2,2,0,0,0,.44,0,1.71,1.71,0,0,0,.37-.13,2.11,2.11,0,0,0,.34-.2,2.82,2.82,0,0,0,.31-.27Z"/><path d="M54.38,128.27a2.18,2.18,0,0,1,.6-.77,1.37,1.37,0,0,1,.87-.28,1.45,1.45,0,0,1,.31,0,.87.87,0,0,1,.27.1l-.07.63a.14.14,0,0,1-.15.12l-.21,0a1.56,1.56,0,0,0-.31,0,1.33,1.33,0,0,0-.44.07,1,1,0,0,0-.34.2,1.41,1.41,0,0,0-.27.32,2.67,2.67,0,0,0-.22.44v3h-.91v-4.81H54a.3.3,0,0,1,.2.05.31.31,0,0,1,.08.18Z"/><path d="M58.08,128a3,3,0,0,1,.36-.32,2.38,2.38,0,0,1,.4-.24,2.14,2.14,0,0,1,.45-.16,2.28,2.28,0,0,1,.51-.05,2,2,0,0,1,.75.13,1.44,1.44,0,0,1,.54.37,1.6,1.6,0,0,1,.33.58,2.35,2.35,0,0,1,.11.74v3.06h-.91v-3.06a1.23,1.23,0,0,0-.27-.85,1,1,0,0,0-.81-.3,1.61,1.61,0,0,0-.75.18,2.45,2.45,0,0,0-.64.49v3.54h-.91v-4.81h.54a.22.22,0,0,1,.24.18Z"/><path d="M62.85,133.26l-.06-.06a.15.15,0,0,1,0-.07.12.12,0,0,1,0-.07l.05-.06.13-.14.16-.2a2,2,0,0,0,.15-.26,1.17,1.17,0,0,0,.1-.3h-.07a.59.59,0,0,1-.43-.16.56.56,0,0,1-.17-.42.5.5,0,0,1,.17-.38.61.61,0,0,1,.44-.16.66.66,0,0,1,.27.05.55.55,0,0,1,.2.14.64.64,0,0,1,.12.21.82.82,0,0,1,0,.26,1.66,1.66,0,0,1-.06.44,2.1,2.1,0,0,1-.19.46,2.82,2.82,0,0,1-.3.44,2.72,2.72,0,0,1-.41.39Z"/><path d="M69.57,131.34v.77H65.43v-6.8h1v6Z"/><path d="M74.26,131.44a1.69,1.69,0,0,1-.4.33,2.6,2.6,0,0,1-.5.23,3.39,3.39,0,0,1-.55.14,3.63,3.63,0,0,1-.57,0,2.79,2.79,0,0,1-1-.17,2.17,2.17,0,0,1-.78-.49,2.24,2.24,0,0,1-.51-.8,3.07,3.07,0,0,1-.18-1.1,2.63,2.63,0,0,1,.17-.94,2.15,2.15,0,0,1,1.23-1.26,2.65,2.65,0,0,1,1-.18,2.47,2.47,0,0,1,.86.14,2,2,0,0,1,.68.42,1.9,1.9,0,0,1,.45.67,2.41,2.41,0,0,1,.16.91.52.52,0,0,1,0,.27.2.2,0,0,1-.17.07H70.68a2.64,2.64,0,0,0,.13.79,1.56,1.56,0,0,0,.33.56,1.34,1.34,0,0,0,.51.34,1.86,1.86,0,0,0,.66.11,2.08,2.08,0,0,0,.59-.07,2.92,2.92,0,0,0,.42-.16l.3-.16a.41.41,0,0,1,.21-.07.2.2,0,0,1,.17.08Zm-.73-2.25a1.56,1.56,0,0,0-.09-.54,1.19,1.19,0,0,0-.26-.42,1.16,1.16,0,0,0-.41-.27,1.49,1.49,0,0,0-.55-.1,1.45,1.45,0,0,0-1,.35,1.61,1.61,0,0,0-.47,1Z"/><path d="M75.32,128a3,3,0,0,1,.92-.57,3,3,0,0,1,1.09-.19,2.08,2.08,0,0,1,.77.13,1.58,1.58,0,0,1,.57.37,1.54,1.54,0,0,1,.35.57,2.24,2.24,0,0,1,.12.74v3.07h-.4a.42.42,0,0,1-.2,0,.27.27,0,0,1-.11-.16l-.1-.46q-.2.18-.4.31a2.29,2.29,0,0,1-.86.37,2.67,2.67,0,0,1-.54,0,2,2,0,0,1-.56-.08,1.34,1.34,0,0,1-.46-.23,1.11,1.11,0,0,1-.31-.4,1.3,1.3,0,0,1-.11-.57,1,1,0,0,1,.17-.55,1.44,1.44,0,0,1,.54-.47,3.74,3.74,0,0,1,1-.33,8,8,0,0,1,1.49-.15V129a1.22,1.22,0,0,0-.26-.85,1,1,0,0,0-.76-.29,1.74,1.74,0,0,0-.56.08,2.15,2.15,0,0,0-.39.18l-.29.18a.43.43,0,0,1-.24.08.27.27,0,0,1-.16,0,.42.42,0,0,1-.11-.11Zm2.93,2a8.05,8.05,0,0,0-1.07.09,3.19,3.19,0,0,0-.72.19,1,1,0,0,0-.4.28.58.58,0,0,0-.12.36.75.75,0,0,0,.07.33.61.61,0,0,0,.18.23.75.75,0,0,0,.27.13,1.32,1.32,0,0,0,.33,0,2,2,0,0,0,.44,0,1.71,1.71,0,0,0,.37-.13,2.11,2.11,0,0,0,.34-.2,2.82,2.82,0,0,0,.31-.27Z"/><path d="M84.82,127.31l-2.1,4.81h-.81l-2.1-4.81h.74a.3.3,0,0,1,.18.05.26.26,0,0,1,.1.12l1.31,3.09q.06.18.11.34l.09.33.09-.33q0-.17.11-.34l1.32-3.09a.28.28,0,0,1,.1-.13.29.29,0,0,1,.17,0Z"/><path d="M89.7,131.44a1.69,1.69,0,0,1-.4.33,2.6,2.6,0,0,1-.5.23,3.39,3.39,0,0,1-.55.14,3.63,3.63,0,0,1-.57,0,2.79,2.79,0,0,1-1-.17,2.17,2.17,0,0,1-.78-.49,2.24,2.24,0,0,1-.51-.8,3.07,3.07,0,0,1-.18-1.1,2.63,2.63,0,0,1,.17-.94,2.15,2.15,0,0,1,1.23-1.26,2.65,2.65,0,0,1,1-.18,2.47,2.47,0,0,1,.86.14,2,2,0,0,1,.68.42,1.9,1.9,0,0,1,.45.67,2.41,2.41,0,0,1,.16.91.52.52,0,0,1,0,.27.2.2,0,0,1-.17.07H86.12a2.64,2.64,0,0,0,.13.79,1.56,1.56,0,0,0,.33.56,1.34,1.34,0,0,0,.51.34,1.86,1.86,0,0,0,.66.11,2.08,2.08,0,0,0,.59-.07,2.92,2.92,0,0,0,.42-.16l.3-.16a.41.41,0,0,1,.21-.07.2.2,0,0,1,.17.08ZM89,129.18a1.56,1.56,0,0,0-.09-.54,1.19,1.19,0,0,0-.26-.42,1.16,1.16,0,0,0-.41-.27,1.49,1.49,0,0,0-.55-.1,1.45,1.45,0,0,0-1,.35,1.61,1.61,0,0,0-.47,1Z"/><path d="M95.08,132.19a1.3,1.3,0,0,1-.94-.32,1.22,1.22,0,0,1-.33-.92V128h-.62a.21.21,0,0,1-.14,0,.17.17,0,0,1-.06-.14v-.34l.84-.1.21-1.48a.2.2,0,0,1,.07-.12.21.21,0,0,1,.14,0h.46v1.66h1.49V128H94.72v2.88a.59.59,0,0,0,.16.45.57.57,0,0,0,.41.15.77.77,0,0,0,.25,0l.18-.08.13-.08a.18.18,0,0,1,.09,0,.16.16,0,0,1,.13.08l.26.4a1.72,1.72,0,0,1-.57.32A2,2,0,0,1,95.08,132.19Z"/><path d="M99.29,127.23a2.8,2.8,0,0,1,1,.18,2.19,2.19,0,0,1,.77.5,2.16,2.16,0,0,1,.49.78,3.16,3.16,0,0,1,0,2,2.12,2.12,0,0,1-1.26,1.27,2.83,2.83,0,0,1-1,.17,2.87,2.87,0,0,1-1-.17A2.11,2.11,0,0,1,97,130.73a3.16,3.16,0,0,1,0-2,2.16,2.16,0,0,1,.49-.78,2.19,2.19,0,0,1,.78-.5A2.83,2.83,0,0,1,99.29,127.23Zm0,4.29a1.36,1.36,0,0,0,1.14-.48,2.55,2.55,0,0,0,0-2.67,1.36,1.36,0,0,0-1.14-.48,1.7,1.7,0,0,0-.67.12,1.24,1.24,0,0,0-.48.36,1.53,1.53,0,0,0-.29.57,2.86,2.86,0,0,0-.09.77,2.09,2.09,0,0,0,.38,1.33A1.38,1.38,0,0,0,99.29,131.52Z"/><path d="M111.3,132.11h-.76a.35.35,0,0,1-.21-.06.38.38,0,0,1-.12-.16l-.68-1.64h-3.27l-.68,1.64a.34.34,0,0,1-.12.15.34.34,0,0,1-.21.07h-.76l2.92-6.8h1Zm-2.06-2.52-1.15-2.77-.11-.29q-.06-.16-.11-.35a4.92,4.92,0,0,1-.22.64l-1.15,2.76Z"/><path d="M115.5,128.16l-.08.08a.19.19,0,0,1-.11,0,.32.32,0,0,1-.17-.06l-.23-.13a1.9,1.9,0,0,0-.33-.13,1.9,1.9,0,0,0-1.15.07,1.28,1.28,0,0,0-.49.36,1.6,1.6,0,0,0-.3.57,2.66,2.66,0,0,0-.1.75,2.58,2.58,0,0,0,.11.78,1.61,1.61,0,0,0,.3.57,1.29,1.29,0,0,0,.47.35,1.54,1.54,0,0,0,.62.12,1.7,1.7,0,0,0,.54-.07,1.64,1.64,0,0,0,.35-.16l.23-.16a.3.3,0,0,1,.19-.07.21.21,0,0,1,.17.08l.25.31a1.75,1.75,0,0,1-.38.33,2.4,2.4,0,0,1-.46.23,2.67,2.67,0,0,1-.52.14,3.52,3.52,0,0,1-.55,0,2.39,2.39,0,0,1-.9-.17,2,2,0,0,1-.72-.48,2.22,2.22,0,0,1-.48-.78,3.2,3.2,0,0,1,0-2,2.21,2.21,0,0,1,.47-.79,2.13,2.13,0,0,1,.76-.51,2.71,2.71,0,0,1,1-.18,2.61,2.61,0,0,1,1,.16,2.32,2.32,0,0,1,.74.46Z"/><path d="M117.68,127.95a2.72,2.72,0,0,1,.73-.52,2.1,2.1,0,0,1,.93-.19,2,2,0,0,1,.75.13,1.45,1.45,0,0,1,.54.37,1.61,1.61,0,0,1,.33.58,2.35,2.35,0,0,1,.11.74v3.06h-.91v-3.06a1.23,1.23,0,0,0-.27-.85,1,1,0,0,0-.81-.3,1.61,1.61,0,0,0-.75.18,2.45,2.45,0,0,0-.64.49v3.54h-.91v-7h.91Z"/><path d="M123.6,125.8a.51.51,0,0,1-.05.23.67.67,0,0,1-.6.37.64.64,0,0,1-.25,0,.65.65,0,0,1-.34-.32.53.53,0,0,1-.05-.23.56.56,0,0,1,.05-.23.63.63,0,0,1,.14-.19.64.64,0,0,1,.45-.18.68.68,0,0,1,.25,0,.66.66,0,0,1,.21.13.65.65,0,0,1,.14.19A.54.54,0,0,1,123.6,125.8Zm-.19,1.51v4.81h-.91v-4.81Z"/><path d="M129.08,131.44a1.7,1.7,0,0,1-.4.33,2.6,2.6,0,0,1-.5.23,3.39,3.39,0,0,1-.55.14,3.63,3.63,0,0,1-.56,0,2.79,2.79,0,0,1-1-.17,2.17,2.17,0,0,1-.78-.49,2.24,2.24,0,0,1-.51-.8,3.07,3.07,0,0,1-.18-1.1,2.63,2.63,0,0,1,.17-.94,2.14,2.14,0,0,1,1.23-1.26,2.65,2.65,0,0,1,1-.18,2.47,2.47,0,0,1,.86.14,2,2,0,0,1,.68.42,1.91,1.91,0,0,1,.45.67,2.41,2.41,0,0,1,.16.91.52.52,0,0,1,0,.27.2.2,0,0,1-.17.07H125.5a2.64,2.64,0,0,0,.13.79,1.56,1.56,0,0,0,.33.56,1.34,1.34,0,0,0,.51.34,1.86,1.86,0,0,0,.66.11,2.08,2.08,0,0,0,.59-.07,2.92,2.92,0,0,0,.43-.16l.3-.16a.41.41,0,0,1,.21-.07.21.21,0,0,1,.17.08Zm-.73-2.25a1.57,1.57,0,0,0-.09-.54,1.2,1.2,0,0,0-.26-.42,1.16,1.16,0,0,0-.41-.27,1.49,1.49,0,0,0-.55-.1,1.45,1.45,0,0,0-1,.35,1.61,1.61,0,0,0-.47,1Z"/><path d="M134.58,127.31l-2.1,4.81h-.81l-2.1-4.81h.74a.3.3,0,0,1,.18.05.26.26,0,0,1,.1.12l1.31,3.09q.06.18.11.34l.09.33.09-.33q0-.17.11-.34l1.32-3.09a.28.28,0,0,1,.1-.13.29.29,0,0,1,.17,0Z"/><path d="M139.46,131.44a1.7,1.7,0,0,1-.4.33,2.6,2.6,0,0,1-.5.23,3.39,3.39,0,0,1-.55.14,3.63,3.63,0,0,1-.56,0,2.79,2.79,0,0,1-1-.17,2.17,2.17,0,0,1-.78-.49,2.24,2.24,0,0,1-.51-.8,3.07,3.07,0,0,1-.18-1.1,2.63,2.63,0,0,1,.17-.94,2.14,2.14,0,0,1,1.23-1.26,2.65,2.65,0,0,1,1-.18,2.47,2.47,0,0,1,.86.14,2,2,0,0,1,.68.42,1.91,1.91,0,0,1,.45.67,2.41,2.41,0,0,1,.16.91.52.52,0,0,1,0,.27.2.2,0,0,1-.17.07h-3.45a2.64,2.64,0,0,0,.13.79,1.56,1.56,0,0,0,.33.56,1.34,1.34,0,0,0,.51.34,1.86,1.86,0,0,0,.66.11,2.08,2.08,0,0,0,.59-.07,2.92,2.92,0,0,0,.43-.16l.3-.16A.41.41,0,0,1,139,131a.21.21,0,0,1,.17.08Zm-.73-2.25a1.57,1.57,0,0,0-.09-.54,1.2,1.2,0,0,0-.26-.42,1.16,1.16,0,0,0-.41-.27,1.49,1.49,0,0,0-.55-.1,1.45,1.45,0,0,0-1,.35,1.61,1.61,0,0,0-.47,1Z"/></g></g></svg>