<svg xmlns="http://www.w3.org/2000/svg" xmlns:xlink="http://www.w3.org/1999/xlink" viewBox="0 0 189.86 146.48"><defs><style>.cls-1{fill:url(#linear-gradient);}.cls-2{fill:url(#linear-gradient-2);}.cls-3{fill:silver;}.cls-4{fill:#303297;}.cls-5{fill:url(#linear-gradient-3);}.cls-6{fill:url(#linear-gradient-4);}.cls-7{fill:url(#linear-gradient-5);}.cls-8{fill:url(#linear-gradient-6);}.cls-9{fill:#bdbb71;}.cls-10{fill:url(#linear-gradient-7);}.cls-11{fill:url(#linear-gradient-8);}.cls-12{fill:url(#linear-gradient-9);}.cls-13{fill:url(#linear-gradient-10);}.cls-14{fill:url(#linear-gradient-11);}.cls-15{fill:url(#linear-gradient-12);}.cls-16{fill:url(#linear-gradient-13);}.cls-17{stroke:#000;stroke-miterlimit:10;stroke-width:0.25px;}</style><linearGradient id="linear-gradient" x1="10.23" y1="62.03" x2="95.44" y2="62.03" gradientUnits="userSpaceOnUse"><stop offset="0" stop-color="#fff"/><stop offset="0.34" stop-color="#fcfcfc"/><stop offset="0.61" stop-color="#f2f3f2"/><stop offset="0.85" stop-color="#e2e3e2"/><stop offset="1" stop-color="#d3d5d4"/></linearGradient><linearGradient id="linear-gradient-2" x1="93.91" y1="66.19" x2="180.66" y2="66.19" gradientUnits="userSpaceOnUse"><stop offset="0" stop-color="#fff"/><stop offset="0.28" stop-color="#fcfcfc"/><stop offset="0.49" stop-color="#f2f2f2"/><stop offset="0.68" stop-color="#e2e2e2"/><stop offset="0.86" stop-color="#cbcbcb"/><stop offset="1" stop-color="#b3b3b3"/></linearGradient><linearGradient id="linear-gradient-3" x1="4.01" y1="67.85" x2="12.43" y2="67.85" xlink:href="#linear-gradient-2"/><linearGradient id="linear-gradient-4" x1="173.88" y1="72.9" x2="185.49" y2="73.24" xlink:href="#linear-gradient-2"/><linearGradient id="linear-gradient-5" x1="89.06" y1="34.41" x2="98.63" y2="34.41" gradientUnits="userSpaceOnUse"><stop offset="0" stop-color="#fce25a"/><stop offset="0.35" stop-color="#fbe25d"/><stop offset="0.62" stop-color="#f9e367"/><stop offset="0.86" stop-color="#f5e577"/><stop offset="1" stop-color="#f2e684"/></linearGradient><linearGradient id="linear-gradient-6" x1="95.56" y1="50.82" x2="104.32" y2="47.04" gradientUnits="userSpaceOnUse"><stop offset="0" stop-color="#3c4741"/><stop offset="0.11" stop-color="#444e49"/><stop offset="0.28" stop-color="#59625f"/><stop offset="0.48" stop-color="#7c8283"/><stop offset="0.6" stop-color="#94989b"/><stop offset="0.68" stop-color="#8f9496"/><stop offset="0.77" stop-color="#828788"/><stop offset="0.86" stop-color="#6b7372"/><stop offset="0.96" stop-color="#4c5652"/><stop offset="1" stop-color="#3c4741"/></linearGradient><linearGradient id="linear-gradient-7" x1="92.92" y1="44.11" x2="102.48" y2="44.11" xlink:href="#linear-gradient-5"/><linearGradient id="linear-gradient-8" x1="105.56" y1="73.68" x2="115.54" y2="69.15" gradientUnits="userSpaceOnUse"><stop offset="0" stop-color="#a19e97"/><stop offset="0.14" stop-color="#a6a39c"/><stop offset="0.32" stop-color="#b3b1ab"/><stop offset="0.51" stop-color="#c9c8c3"/><stop offset="0.57" stop-color="#d2d1cd"/><stop offset="1" stop-color="#a19e97"/></linearGradient><linearGradient id="linear-gradient-9" x1="98.23" y1="58.12" x2="110.54" y2="58.12" xlink:href="#linear-gradient-5"/><linearGradient id="linear-gradient-10" x1="99.64" y1="73.48" x2="113.74" y2="73.48" gradientUnits="userSpaceOnUse"><stop offset="0" stop-color="#cc9a38"/><stop offset="0.43" stop-color="#cc9d35"/><stop offset="0.76" stop-color="#caa72b"/><stop offset="1" stop-color="#c9b31f"/></linearGradient><linearGradient id="linear-gradient-11" x1="102.48" y1="72.46" x2="113.74" y2="72.46" gradientUnits="userSpaceOnUse"><stop offset="0" stop-color="#c6a447"/><stop offset="0.41" stop-color="#c8a746"/><stop offset="0.72" stop-color="#ceb143"/><stop offset="1" stop-color="#d8c13f"/></linearGradient><linearGradient id="linear-gradient-12" x1="111.39" y1="85.53" x2="122.49" y2="85.53" xlink:href="#linear-gradient-10"/><linearGradient id="linear-gradient-13" x1="116.76" y1="85.99" x2="119.57" y2="89.37" gradientUnits="userSpaceOnUse"><stop offset="0" stop-color="#fcee21"/><stop offset="0.33" stop-color="#c9b31f"/><stop offset="1" stop-color="#cc9a38"/></linearGradient></defs><title>Asset 1</title><g id="Layer_2" data-name="Layer 2"><g id="Layer_1-2" data-name="Layer 1"><path class="cls-1" d="M12.43,5.68s41.68-14.35,83,2.56c0,7.52-1.53,115.82-1.53,115.82l-83.19-1S8.84,8.93,12.43,5.68Z"/><path class="cls-2" d="M95.44,8.24S128-5.89,178,10.23c4.55,16.12,1.86,119.63,1.86,119.63l-86-5.8Z"/><path class="cls-3" d="M11,121s50.09-13.32,82.89,3.08c2.39-1.2,46.5-13.71,82.69,1.85L185,136s-2.52,1.88-8.35,1.2-38.28-7.86-51.09-4.1-27,12-32.8,10.59-19.12-11.1-37.91-12-52.79,1-52.79,1L4,130Z"/><path class="cls-4" d="M183.79,17.34l2,2.53L185,136c-5.86-.47-17-2.67-25.39-4.73a95.66,95.66,0,0,0-22.76-2.79A80.73,80.73,0,0,0,109.65,133l-1.14.4-.9.8c-1.76,1.56-7.84,6.05-12.39,6.13H95c-5.26,0-10.13-3.33-14.42-6.26l-2.06-1.4-1.83-.57c-5.84-1.85-18-5.69-38.08-5.69C28.51,126.41,15.35,128,4,130c.41-24,1-96.75,1-115.14L6,13.43.77,15S.64,127.39,0,136.87c44.84-9.36,68.41-.9,75.84,1.41,5.13,3.46,11.53,8.32,19.48,8.2s16.39-7.69,16.39-7.69c15.12-5.38,31.78-5.13,46.38-1.54a172.33,172.33,0,0,0,30.87,4.1l.9-121.19Z"/><polygon class="cls-5" points="5.03 14.87 12.43 5.68 11.02 120.98 4.01 130.01 5.03 14.87"/><polygon class="cls-6" points="185.77 19.87 178.01 10.23 176.6 125.91 184.95 136.01 185.77 19.87"/><path d="M145.62,13.76s6,63,26.67,75c-4,1.67-8.67,6.8-26-20.93-3.67-4.4-13.67-16.36-30.29-11.23,3.37-3.38,12.12-7.88,30.75,6.12-1-6.87-5.13-31-5.13-31s-19.75,40.82-24.5,42.1l-2.37-5.47S125.62,70.93,145.62,13.76Z"/><polygon points="51.95 67.96 48.13 81.19 32.21 28.03 39.96 28.03 51.95 67.96"/><polygon points="48.13 81.19 47.11 77.79 58.59 38.78 60.51 39.35 48.13 81.19"/><polygon points="72.07 67.96 68.25 81.19 52.33 27.56 60.08 27.56 72.07 67.96"/><polygon points="68.25 81.19 67.2 77.66 81.63 27.56 83.7 27.6 68.25 81.19"/><path d="M54.25,34H62c-.68-2.68-.83-4.9,2.32-6.68h-14a64.78,64.78,0,0,1,3.79,6.29Z"/><path d="M78.14,34h3.68a18.94,18.94,0,0,1,7.24-6.67H71.45a24.42,24.42,0,0,0,2.06,1.75C75.52,30.41,77.58,32.08,78.14,34Z"/><path d="M29,58c-3.59.17-5.34-2.31-6.64-5.2A22,22,0,0,1,21,37.31a13.73,13.73,0,0,1,3.41-5.79c3.85-3.76,7.75-3,9.41,2.11,0,.13.08.27.13.4h7.78c-.93-2.76-1.51-5.19,1.93-6.88-4.4,0-8.84-.38-13.19.1A13.92,13.92,0,0,0,18.9,36,23.78,23.78,0,0,0,17.75,51.2,11.49,11.49,0,0,0,26.06,60c5,1.54,9.51-2.18,9.16-7.65C34.12,55.35,32.59,57.88,29,58Z"/><path d="M77.19,32.25s2,2.26,1.21,6.55c1.51-3.34,2.26-5.59,2.26-5.59Z"/><path class="cls-7" d="M89.06,27.36s7.35,5.3,9.06,11.62c0,2.23.51,1.88.51,1.88l-4.78.6s-.94-4.7-4.79-5.38C90.34,34.45,91.71,31.72,89.06,27.36Z"/><path class="cls-8" d="M91.88,42.32s5.13-5.65,9.06-1.8c1.28,2.65,7.44,15.9,7.44,15.9l-9.06,2.82Z"/><path class="cls-9" d="M91.63,30.09s2.86,3.25,3.2,4.45c1,.1,1,0,.9-.13S92.94,30,91.63,30.09Z"/><path class="cls-10" d="M92.92,44.67s4.14-4.39,8.86-2.39l.7,1.36s-6-1.11-8.77,2.83Z"/><path class="cls-11" d="M100.13,61.72l12,24.79L122,83.43,110.54,58.12s-3.44-2.64-5.75-1.27S100.13,61.72,100.13,61.72Z"/><path class="cls-12" d="M98.23,58.26s6.22-6,11-2.82a8.82,8.82,0,0,0,1.28,2.68s-6.16-2.75-10.41,3.6Z"/><path class="cls-13" d="M99.64,66s2.15-2,2.84-1.86c.24,1,6.7,16.32,6.7,16.32l4.56.42-2.69,2-3.4-.64Z"/><polygon class="cls-14" points="103.87 64.54 110.54 79.35 112.91 79.35 113.74 80.83 109.19 80.41 102.48 64.09 103.87 64.54"/><path class="cls-15" d="M111.39,85s4.37-4.88,10-2.74c1.17,2.53,1.81,5-.37,5.93s-5.38,1.92-7.31.64A6.36,6.36,0,0,1,111.39,85Z"/><path class="cls-16" d="M114,89.1a5.62,5.62,0,0,1,5.54-3.91,6.11,6.11,0,0,1,2.95,1.18s.08.92-1.23,1.68S116.43,89.9,114,89.1Z"/><path class="cls-17" d="M20.38,113.23,17.25,98.91h1.59l1.79,9.39c.19,1,.35,1.94.5,2.93l.52-2.65,2.24-9.67h1.88l1.68,7.25a48.61,48.61,0,0,1,.91,5.07c.15-.94.34-2,.58-3.12l1.85-9.2h1.56l-3.23,14.32H27.63l-2.48-10.91-.37-1.68c-.11.63-.23,1.19-.34,1.68L22,113.23Z"/><path class="cls-17" d="M34.06,113.23V98.91h1.55v14.32Z"/><path class="cls-17" d="M37.8,108.62l1.47-.16a4.1,4.1,0,0,0,.53,1.84A2.9,2.9,0,0,0,41,111.36a3.72,3.72,0,0,0,1.74.4,3.17,3.17,0,0,0,2.16-.67,2.25,2.25,0,0,0,.76-1.76,2.11,2.11,0,0,0-.28-1.11,2,2,0,0,0-.84-.77,14.65,14.65,0,0,0-2.42-.86,8.7,8.7,0,0,1-2.37-1,3.49,3.49,0,0,1-1.09-1.26,4.13,4.13,0,0,1,.73-4.58,4.16,4.16,0,0,1,3-1.1,4.78,4.78,0,0,1,2.29.52,3.67,3.67,0,0,1,1.52,1.48,4.8,4.8,0,0,1,.58,2.27l-1.49.14a3.14,3.14,0,0,0-.83-2.07,2.85,2.85,0,0,0-2-.67,3,3,0,0,0-2,.59,1.89,1.89,0,0,0-.7,1.53,1.74,1.74,0,0,0,.51,1.34,5.94,5.94,0,0,0,2.29,1,14.69,14.69,0,0,1,2.44.84A3.94,3.94,0,0,1,46.6,107a4,4,0,0,1,.55,2.13,4.48,4.48,0,0,1-.58,2.24A3.94,3.94,0,0,1,45,113a5,5,0,0,1-2.39.52,4.64,4.64,0,0,1-3.47-1.31A5,5,0,0,1,37.8,108.62Z"/><path class="cls-17" d="M49.23,113.23V98.91h4.05a7.35,7.35,0,0,1,2.28.27,3.76,3.76,0,0,1,1.78,1.25,6.41,6.41,0,0,1,1.17,2.29,11.29,11.29,0,0,1,.42,3.27,10.58,10.58,0,0,1-.71,4.13,5,5,0,0,1-1.83,2.4,5.43,5.43,0,0,1-2.93.71Zm1.55-1.69h2.5a4.4,4.4,0,0,0,2.29-.49,3.07,3.07,0,0,0,1.2-1.59,9.57,9.57,0,0,0,.56-3.49,8.18,8.18,0,0,0-.59-3.42,3.23,3.23,0,0,0-1.52-1.67,5.29,5.29,0,0,0-2-.28H50.78Z"/><path class="cls-17" d="M60.66,106.26a8.68,8.68,0,0,1,1.61-5.63,5,5,0,0,1,4-2,4.86,4.86,0,0,1,2.83.88,5.91,5.91,0,0,1,2,2.55,9.9,9.9,0,0,1,.74,4,8.7,8.7,0,0,1-1.44,5.19,4.91,4.91,0,0,1-4.17,2.2,4.85,4.85,0,0,1-4.18-2.26A8.41,8.41,0,0,1,60.66,106.26Zm1.6,0a6.41,6.41,0,0,0,1.17,4.11,3.5,3.5,0,0,0,5.7,0A7,7,0,0,0,70.29,106a8.61,8.61,0,0,0-.6-3.31A4,4,0,0,0,68.31,101a3.31,3.31,0,0,0-2-.67,3.53,3.53,0,0,0-2.9,1.46A7.38,7.38,0,0,0,62.26,106.28Z"/><path class="cls-17" d="M73.82,113.23V98.91h2.33l2.79,10.14.55,2.12c.14-.53.35-1.3.63-2.3l2.82-10H85v14.32h-1.5v-12l-3.42,12h-1.4l-3.4-12.18v12.18Z"/><path class="cls-17" d="M95.44,113.15,99.74,99h1.57l4.56,14.16h-1.68l-1.3-4.29H98.21L97,113.15Zm3.2-5.81h3.79l-1.16-3.93c-.35-1.2-.62-2.18-.78-2.94a23.51,23.51,0,0,1-.61,2.71Z"/><path class="cls-17" d="M114.94,108.19l1.48.47a6.65,6.65,0,0,1-1.72,3.56,4.17,4.17,0,0,1-3,1.18,4.45,4.45,0,0,1-2.65-.79,5.64,5.64,0,0,1-1.8-2.53,11.12,11.12,0,0,1-.69-4.11,9.92,9.92,0,0,1,.7-4,5.48,5.48,0,0,1,1.89-2.45,4.61,4.61,0,0,1,2.67-.83,4,4,0,0,1,2.77,1,5.62,5.62,0,0,1,1.62,3.07l-1.44.44c-.49-2-1.49-3-3-3a3.25,3.25,0,0,0-1.93.59,4.1,4.1,0,0,0-1.3,1.86,8.93,8.93,0,0,0-.49,3.18,7.85,7.85,0,0,0,1,4.37,3,3,0,0,0,2.61,1.45,2.85,2.85,0,0,0,2.08-.89A5,5,0,0,0,114.94,108.19Z"/><path class="cls-17" d="M117,113.15,121.33,99h1.58l4.56,14.16h-1.69l-1.29-4.29H119.8l-1.21,4.29Zm3.19-5.81H124l-1.16-3.93c-.36-1.2-.62-2.18-.79-2.94a20,20,0,0,1-.61,2.71Z"/><path class="cls-17" d="M128.6,113.15V99h3.84a6.71,6.71,0,0,1,2.17.26,3.65,3.65,0,0,1,1.69,1.23,6.78,6.78,0,0,1,1.11,2.27,11.85,11.85,0,0,1,.4,3.24,11,11,0,0,1-.68,4.09,4.29,4.29,0,0,1-4.51,3.07Zm1.47-1.67h2.37a3.93,3.93,0,0,0,2.18-.49,3.1,3.1,0,0,0,1.14-1.57,10.09,10.09,0,0,0,.53-3.45,8.39,8.39,0,0,0-.56-3.38,3.15,3.15,0,0,0-1.44-1.65,4.66,4.66,0,0,0-1.88-.28h-2.34Z"/><path class="cls-17" d="M139.89,113.15V99h8.05v1.67h-6.58V105h6.16v1.67h-6.16v4.82h6.84v1.67Z"/><path class="cls-17" d="M150.19,113.15V99h2.21L155,109l.53,2.09c.13-.52.33-1.27.6-2.27L158.84,99h2v14.16H159.4V101.3l-3.24,11.85h-1.33L151.6,101.1v12.05Z"/><path class="cls-17" d="M166.32,113.15v-6L162,99h1.8l2.19,4.27q.64,1.27,1.14,2.4c.33-.74.73-1.58,1.21-2.5L170.54,99h1.7l-4.45,8.16v6Z"/></g></g></svg>