<svg xmlns="http://www.w3.org/2000/svg" viewBox="0 0 494.66 128.9"><defs><style>.cls-1{fill:#4dc6ff;}.cls-2{fill:#85e085;}</style></defs><title>Asset 2</title><g id="Layer_2" data-name="Layer 2"><g id="Layer_1-2" data-name="Layer 1"><path class="cls-1" d="M33,128.22,14.3,104v24.27H0V80.69H13.15L31.93,105.1V80.69H46.17v47.53Z"/><path class="cls-1" d="M68.67,92.63v5.83H90.91v11.93H68.67v5.9H93.76v11.93H52.94V80.69H93.15V92.63Z"/><path class="cls-1" d="M125.89,93.1v35.12H110.16V93.1H96.67V80.69h42.78V93.1Z"/><path class="cls-1" d="M184.39,128.22l-6.58-28.41L171,128.22h-16.2L139.44,80.69h16.81l7.19,31.19,7.05-31.12,15.32-.07L193,111.88l7.05-31.19h16.07l-15.53,47.53Z"/><path class="cls-1" d="M268.31,104.42c0,14.1-11,24.48-26.1,24.48s-26.1-10.31-26.1-24.48,11-24.2,26.1-24.2S268.31,90.39,268.31,104.42Zm-36.07.07c0,6.51,4.75,11.32,10.17,11.32s9.77-4.81,9.77-11.32-4.34-11.19-9.77-11.19S232.24,98,232.24,104.49Z"/><path class="cls-1" d="M294.34,115.88h-5.9v12.34H272.71V80.69h23c12.88,0,20.27,6.17,20.27,17,0,6.92-2.65,12.07-7.53,15.05l9.36,15.46H300ZM295.7,104c3.39,0,5.35-2.1,5.35-5.77s-2-5.55-5.35-5.55h-7.26V104Z"/><path class="cls-1" d="M342.2,111.88,337.59,117v11.19H321.86V80.69h15.73V97.17l14.17-16.48h18.1L352.91,99.81l18,28.41H352.1Z"/><path class="cls-1" d="M374.26,128.22V80.69H390v47.53Z"/><path class="cls-1" d="M429.78,128.22,411.07,104v24.27h-14.3V80.69h13.15L428.7,105.1V80.69h14.24v47.53Z"/><path class="cls-1" d="M493.91,103.2v19.59c-5.29,3.53-14,6.11-20.81,6.11-14.92,0-25.76-10.31-25.76-24.41s11.25-24.27,26.78-24.27c7.39,0,15.45,2.85,20.54,7.32l-8.88,10.78a18.1,18.1,0,0,0-11.73-5c-6.1,0-10.58,4.75-10.58,11.19s4.54,11.32,10.71,11.32a18.12,18.12,0,0,0,6.24-1.56v-11Z"/><path class="cls-2" d="M28.23,55.53H64.4V72H0V58.69L35.46,17.12H1.22V.61H63.68V14.06Z"/><path class="cls-2" d="M93.94,16.92v11.2h33.72V44.43H93.94V55.74h38.21V72H72.74V.61h58.39V16.92Z"/><path class="cls-2" d="M174.73,52.78h-11.2V72h-21.2V.61h33.32c19.16,0,30.16,9.17,30.16,25.37,0,10.6-4.28,18.34-12,22.73L208.26,72h-24Zm.92-16.3c6.32,0,10-3.46,10-9.88,0-6.22-3.67-9.68-10-9.68H163.53V36.48Z"/><path class="cls-2" d="M404,72,373.72,32.3V72H354.26V.61h18.13l30.27,39.94V.61H422V72Z"/><path class="cls-2" d="M455.22,16.92v11.2H489V44.43H455.22V55.74h38.21V72H434V.61h58.38V16.92Z"/><path class="cls-1" d="M251.08,21.68c-5.89,0-8.17,4.32-8.17,16.11S245.19,54,251.08,54c5.74,0,8-4.4,8-16.18S256.82,21.68,251.08,21.68Z"/><path class="cls-1" d="M251.05,0c-22.42,0-38.93,15.28-38.93,36.27S228.63,73,251.05,73,290,57.27,290,36.27,273.46,0,251.05,0Zm0,65.83c-16.1,0-24.9-10-24.9-28s8.8-28,24.9-28c15.87,0,24.83,10,24.83,28S267,65.83,251.08,65.83Z"/><path class="cls-1" d="M307.39,0C285,0,268.47,15.28,268.47,36.27S285,73,307.39,73s38.93-15.69,38.93-36.69S329.81,0,307.39,0ZM318,65.36H301.55v-42h-9.82v-13H318Z"/></g></g></svg>