<svg xmlns="http://www.w3.org/2000/svg" viewBox="0 0 49.86 29.95"><defs><style>.cls-1{fill:#231f20;}.cls-2,.cls-8{fill:#ec1c24;}.cls-3{fill:#929497;}.cls-4{fill:#d0d2d3;}.cls-4,.cls-8{fill-rule:evenodd;}.cls-5{fill:#ffca05;}.cls-6{fill:#00a551;}.cls-7{fill:#023f87;}</style></defs><title>Asset 3</title><g id="Layer_2" data-name="Layer 2"><g id="Layer_1-2" data-name="Layer 1"><path class="cls-1" d="M0,15.58l.53-.05A1,1,0,0,0,.7,16a1,1,0,0,0,.42.3,1.83,1.83,0,0,0,.64.11,1.6,1.6,0,0,0,.56-.09.73.73,0,0,0,.36-.23.52.52,0,0,0,.12-.33.43.43,0,0,0-.12-.31.77.77,0,0,0-.38-.23c-.11,0-.36-.1-.74-.19a3.39,3.39,0,0,1-.8-.24,1,1,0,0,1-.45-.36A.8.8,0,0,1,.16,14a.93.93,0,0,1,.18-.55A1,1,0,0,1,.87,13a2.06,2.06,0,0,1,.76-.14,2.33,2.33,0,0,1,.83.14,1.2,1.2,0,0,1,.54.41,1,1,0,0,1,.21.6l-.54,0a.73.73,0,0,0-.29-.54,1.23,1.23,0,0,0-.73-.18,1.26,1.26,0,0,0-.72.16.52.52,0,0,0-.23.41.4.4,0,0,0,.16.34,2.49,2.49,0,0,0,.83.28,5.8,5.8,0,0,1,.93.24,1.3,1.3,0,0,1,.55.39,1,1,0,0,1,0,1.12,1.25,1.25,0,0,1-.55.42,2.13,2.13,0,0,1-.81.16,2.58,2.58,0,0,1-.95-.16,1.29,1.29,0,0,1-.61-.45A1.24,1.24,0,0,1,0,15.58Z"/><path class="cls-1" d="M4,14.94a2,2,0,0,1,.56-1.5A2,2,0,0,1,6,12.9a2.15,2.15,0,0,1,1,.26,1.65,1.65,0,0,1,.72.71,2,2,0,0,1,.25,1,2.15,2.15,0,0,1-.26,1,1.67,1.67,0,0,1-.74.7,2.25,2.25,0,0,1-1,.24,2.1,2.1,0,0,1-1.07-.27,1.73,1.73,0,0,1-.71-.71A2,2,0,0,1,4,14.94Zm.58,0A1.43,1.43,0,0,0,5,16a1.38,1.38,0,0,0,1,.4A1.41,1.41,0,0,0,7,16a1.57,1.57,0,0,0,.41-1.15,1.8,1.8,0,0,0-.18-.82,1.21,1.21,0,0,0-.51-.54A1.44,1.44,0,0,0,6,13.34a1.49,1.49,0,0,0-1,.37A1.59,1.59,0,0,0,4.54,15Z"/><path class="cls-1" d="M8.74,16.81V13H11.6v.45H9.31v1.19h2v.46h-2v1.74Z"/><path class="cls-1" d="M13.42,16.81V13.42H12V13h3.34v.45H14v3.39Z"/><path class="cls-2" d="M16.69,13h3.77v.82H18.1v.61h2.18v.78H18.1V16h2.43v.86H16.69Z"/><path class="cls-2" d="M21,13h1.56l.81,1.18L24.16,13H25.7l-1.42,1.85,1.56,2H24.25l-.9-1.23-.9,1.23H20.87l1.57-2Z"/><path class="cls-2" d="M26.31,13h2.35a1.79,1.79,0,0,1,1.15.31,1,1,0,0,1,.38.86,1.11,1.11,0,0,1-.42.92,2.1,2.1,0,0,1-1.27.32h-.77v1.42H26.31Zm1.42,1.63h.35a1,1,0,0,0,.57-.12.36.36,0,0,0,.17-.3.4.4,0,0,0-.15-.31.85.85,0,0,0-.54-.12h-.4Z"/><path class="cls-2" d="M30.8,14.9a1.83,1.83,0,0,1,.62-1.47,2.65,2.65,0,0,1,1.73-.52,2.71,2.71,0,0,1,1.76.51,1.8,1.8,0,0,1,.61,1.45,2.06,2.06,0,0,1-.27,1.1,1.84,1.84,0,0,1-.78.67,3.11,3.11,0,0,1-1.26.24,3.56,3.56,0,0,1-1.28-.21,1.81,1.81,0,0,1-.82-.65A1.92,1.92,0,0,1,30.8,14.9Zm1.4,0a1.13,1.13,0,0,0,.26.83.94.94,0,0,0,.7.25.92.92,0,0,0,.7-.24,1.23,1.23,0,0,0,.25-.89,1.06,1.06,0,0,0-.26-.79,1,1,0,0,0-.7-.25.93.93,0,0,0-.69.25A1.16,1.16,0,0,0,32.2,14.9Z"/><path class="cls-3" d="M.07,8.37H2c.38,0,.66,0,.85,0a1.93,1.93,0,0,1,.5.12,1.16,1.16,0,0,1,.36.25.5.5,0,0,1,.15.35.54.54,0,0,1-.18.39,1.27,1.27,0,0,1-.49.26,1.43,1.43,0,0,1,.67.27.56.56,0,0,1,.23.45.64.64,0,0,1-.15.4,1.09,1.09,0,0,1-.41.31,2,2,0,0,1-.65.14c-.16,0-.54,0-1.16,0H.07Zm1,.5v.69H2.36a.91.91,0,0,0,.39-.11.26.26,0,0,0,.14-.23A.28.28,0,0,0,2.77,9a.77.77,0,0,0-.36-.1H1Zm0,1.19v.8h.89c.35,0,.57,0,.66,0a.85.85,0,0,0,.35-.12.29.29,0,0,0,0-.48.7.7,0,0,0-.3-.14,5.11,5.11,0,0,0-.85,0Z"/><path class="cls-3" d="M9.2,11.36h-1l-.42-.69H5.82l-.4.69h-1l1.85-3h1ZM7.43,10.17,6.75,9.06l-.64,1.11Z"/><path class="cls-3" d="M9.44,10.4l.94-.06a.67.67,0,0,0,.34.43,1.56,1.56,0,0,0,.7.13,1.57,1.57,0,0,0,.7-.12c.16-.08.24-.18.24-.28a.21.21,0,0,0-.1-.18,1,1,0,0,0-.34-.13l-.77-.13a3.26,3.26,0,0,1-1.08-.3.7.7,0,0,1-.44-.61.59.59,0,0,1,.2-.43,1.41,1.41,0,0,1,.6-.3,3.23,3.23,0,0,1,.94-.11,2.87,2.87,0,0,1,1.35.25.78.78,0,0,1,.47.66l-1,0A.48.48,0,0,0,12,8.91a1.57,1.57,0,0,0-.61-.1,1.67,1.67,0,0,0-.66.11c-.1.05-.15.11-.15.19s0,.13.14.18a3.69,3.69,0,0,0,.88.2,7.39,7.39,0,0,1,1,.22,1.3,1.3,0,0,1,.52.3.65.65,0,0,1,0,1,1.44,1.44,0,0,1-.64.34,4.3,4.3,0,0,1-1,.11A3.07,3.07,0,0,1,10,11.16,1.07,1.07,0,0,1,9.44,10.4Z"/><path class="cls-3" d="M14.11,11.36v-3h1v3Z"/><path class="cls-3" d="M15.74,10.4l.93-.06a.72.72,0,0,0,.35.43,1.51,1.51,0,0,0,.7.13,1.6,1.6,0,0,0,.7-.12c.16-.08.24-.18.24-.28a.21.21,0,0,0-.1-.18,1,1,0,0,0-.34-.13l-.77-.13a3.42,3.42,0,0,1-1.09-.3.72.72,0,0,1-.44-.61.61.61,0,0,1,.21-.43,1.42,1.42,0,0,1,.59-.3,3.28,3.28,0,0,1,.94-.11A2.82,2.82,0,0,1,19,8.56a.79.79,0,0,1,.48.66l-1,0a.49.49,0,0,0-.27-.34,1.48,1.48,0,0,0-.6-.1,1.61,1.61,0,0,0-.66.11c-.1.05-.15.11-.15.19s0,.13.14.18a3.69,3.69,0,0,0,.88.2,6.88,6.88,0,0,1,1,.22,1.27,1.27,0,0,1,.53.3.69.69,0,0,1,.19.48.68.68,0,0,1-.23.48,1.44,1.44,0,0,1-.64.34,4.36,4.36,0,0,1-1,.11,3,3,0,0,1-1.39-.26A1,1,0,0,1,15.74,10.4Z"/><path class="cls-4" d="M48.22,16.94c-.9-6.61-15.5-11.3-18.39-12.06.21.19,2.3,1.46,4,2.66-8.85-1-11.29-.39-12.24-.35C28.66,7.71,40.35,8.58,48.22,16.94Zm.18-.61a4.31,4.31,0,0,1-.13,2.22c0-.77-1.19-2.16-2.41-3.17.82,1.23,2.5,3.2.41,7.35s-13.33,7.62-20.09,4.21c1.25,2.67,5.78,3,7,3C44.88,30,51.4,22.46,48.4,16.33Z"/><path class="cls-5" d="M22.36,28.29c-2.86,0-2.84-1.3-2.84-1.48a.76.76,0,0,1,.82-.72,15,15,0,0,0,8.87-1.44c-4.63,1.23-5.88.73-6.12-.29-.4-2.27,1.84-5.34,2.57-6.51a34.72,34.72,0,0,0-5.89,4.4c-4.44,4.53-2.43,6.56-1.26,6.9,5.29,1.53,14.32-4.21,16.8-5.78C34.66,23.74,27.19,28.14,22.36,28.29Z"/><path class="cls-6" d="M40.05,19.91a35.66,35.66,0,0,1-3.3,2.42c-.3.19-.43-.54.45-1a22.42,22.42,0,0,0,4.72-4.14,24.92,24.92,0,0,0,3.38-4.53A10.6,10.6,0,0,0,47,7.76c.13-3.29-3.48-4-3.93-4C47.22,3.56,49,6.24,49,6.51a3.58,3.58,0,0,0,.78-2c.73,6.71-8.2,14.14-9.77,15.41"/><path class="cls-7" d="M21.07,8c2.15-1.46,9.52-5.31,10-5.57H27.37A48.25,48.25,0,0,1,41.82,0c2.88,0,9,.9,7.38,5-.4-.42-2-2.91-7.77-2.23C38.6,2.94,34.28,2.42,21.07,8Z"/><path class="cls-8" d="M41.45,18.72a38,38,0,0,1-10.16,6.62c-.42.2-6.66,3.3-9.91,2.76-1-.16-1.61-.59-1.61-1.2,0-.34.19-.69.6-.62C24.65,27,28.9,25,29.62,24.7a38.36,38.36,0,0,0,9.73-6.13A44.44,44.44,0,0,0,44,14c-.8,1.18-2.44,3.44-7.86,7.86.54-.3,1.82-1.07,2.27-1.38-.34.33-1.06,1-1.14,1.06A30.84,30.84,0,0,0,41.45,18.72Z"/></g></g></svg>