<svg xmlns="http://www.w3.org/2000/svg" viewBox="0 0 527.45 162.57"><defs><style>.cls-1{fill:#089eda;}.cls-1,.cls-2{fill-rule:evenodd;}.cls-2{fill:#fcb327;}</style></defs><title>Asset 1</title><g id="Layer_2" data-name="Layer 2"><g id="Layer_1-2" data-name="Layer 1"><path class="cls-1" d="M361.82,72.45H344.45v39.1H329.77V72.45H312.49V59.26h49.33Zm5.88,39.1H353.43l21-52.61h14.85l21.07,52.61H395.14l-2.62-6.81H370.3Zm-62-52.29v52.29H292.32L269.73,81v30.55h-14V59.26h15.7l20.29,27.68V59.26ZM227.21,72.87a22.83,22.83,0,0,0-13.43,0,9.69,9.69,0,0,0-4.2,2.84,10.6,10.6,0,0,0-2.09,4.46,23.55,23.55,0,0,0-.59,5.24v.28a24.45,24.45,0,0,0,.59,5.54,11.25,11.25,0,0,0,2.09,4.44,9.81,9.81,0,0,0,4.2,2.86,22.83,22.83,0,0,0,13.43,0,9.74,9.74,0,0,0,4.11-2.86,10.75,10.75,0,0,0,2.18-4.44,24.47,24.47,0,0,0,.58-5.54v-.28a23,23,0,0,0-.58-5.24,10.15,10.15,0,0,0-2.18-4.46A9.62,9.62,0,0,0,227.21,72.87Zm19.63-.18a33.67,33.67,0,0,1,2.09,12.67v0a33.82,33.82,0,0,1-2.09,12.71,21.83,21.83,0,0,1-6,8.38,23.9,23.9,0,0,1-9,4.53,49,49,0,0,1-22.84,0,23.78,23.78,0,0,1-9-4.53,22.36,22.36,0,0,1-5.89-8.38,33.62,33.62,0,0,1-2.09-12.71v0a33.48,33.48,0,0,1,2.09-12.67,21.07,21.07,0,0,1,14.85-12.84,49.69,49.69,0,0,1,22.84,0,22.54,22.54,0,0,1,9,4.54A21.83,21.83,0,0,1,246.84,72.69ZM499,71.86a18.65,18.65,0,0,0-6.72,1,9.57,9.57,0,0,0-4.2,2.84A10.6,10.6,0,0,0,486,80.17a23,23,0,0,0-.6,5.52,23.88,23.88,0,0,0,.6,5.54,11.25,11.25,0,0,0,2.09,4.44,9.69,9.69,0,0,0,4.2,2.86,22.83,22.83,0,0,0,13.43,0,9.74,9.74,0,0,0,4.11-2.86A10.75,10.75,0,0,0,512,91.23a24.47,24.47,0,0,0,.58-5.54,23.56,23.56,0,0,0-.58-5.52,10.15,10.15,0,0,0-2.18-4.46,9.62,9.62,0,0,0-4.11-2.84A18.7,18.7,0,0,0,499,71.86Zm20.39-7.47a21.81,21.81,0,0,1,5.94,8.3,33.46,33.46,0,0,1,2.1,12.67,33.89,33.89,0,0,1-2.1,12.76,21.81,21.81,0,0,1-5.94,8.38,23,23,0,0,1-5.47,3.3,26.65,26.65,0,0,1-3.53,1.23,48.81,48.81,0,0,1-22.8,0,23.75,23.75,0,0,1-9-4.53,22.25,22.25,0,0,1-5.89-8.38,33.89,33.89,0,0,1-2.1-12.76,33.46,33.46,0,0,1,2.1-12.67,21.06,21.06,0,0,1,14.86-12.84,49.52,49.52,0,0,1,22.8,0,24,24,0,0,1,3.53,1.2A21.85,21.85,0,0,1,519.41,64.39ZM442.6,71H431.44v8.91H442.6c2.46,0,4.1-.43,4.94-1.28a4.23,4.23,0,0,0,1.18-3.18,4.58,4.58,0,0,0-1.18-3.28C446.7,71.4,445.06,71,442.6,71Zm19.7-4.28a15,15,0,0,1,1.27,6.46,14.3,14.3,0,0,1-1.59,7.3,9.37,9.37,0,0,1-5,3.94c3,.79,5.09,2.18,6.21,4.19S465,93.5,465,97.2a15.19,15.19,0,0,1-1.51,7.2,10.3,10.3,0,0,1-4.28,4.37A21.06,21.06,0,0,1,452,111a72.4,72.4,0,0,1-9.91.6h-25V59.26h25a53.89,53.89,0,0,1,9.73.77,19.92,19.92,0,0,1,6.63,2.34A10.29,10.29,0,0,1,462.3,66.73ZM448.8,92.15q-1.41-1.08-4.86-1.08h-12.5v9.23h12.5c2.3,0,3.92-.37,4.86-1.1a5.31,5.31,0,0,0,0-7Zm-60.88.59-6.56-16.61-6.45,16.61Z"/><path class="cls-2" d="M152.53,5.34Q42.19,74.86,127.24,155.4l.32.33-.11,0-.1,0Q29.46,132.89,6.82,103.38-.25,94.17,0,84.33V82A34.18,34.18,0,0,1,6.82,61Q32.23,25.27,152.46,5.34Z"/><path class="cls-1" d="M152.53,5.34Q166.41,2.57,181.83,0,44.27,75.16,154.68,162.31l.25.26q-14.4-3.73-27.37-6.84l-.32-.33Q42.19,74.86,152.53,5.34Z"/><path class="cls-1" d="M122.71,85.82a56.35,56.35,0,0,1,2.94-19.25,34.52,34.52,0,0,1,8.57-13.27A34.79,34.79,0,0,1,148,45.62a62.33,62.33,0,0,1,18.45-2.51,70,70,0,0,1,10.36.7,45.21,45.21,0,0,1,8.62,2.24,37.55,37.55,0,0,1,11.25,6.83,27.13,27.13,0,0,0-13.23,12.33,26.07,26.07,0,0,0-17.11-5.36q-13.32,0-19.21,6.61T141.15,86a42.82,42.82,0,0,0,1.3,11.08,19.45,19.45,0,0,0,4.21,8.23,19,19,0,0,0,7.8,5.07,35.11,35.11,0,0,0,11.95,1.75,37.15,37.15,0,0,0,7.09-.6,28.06,28.06,0,0,0,5.51-1.75,21.46,21.46,0,0,0,4.48-2.66l.55-.44a28,28,0,0,0,5.79,7,30.41,30.41,0,0,0,7.11,4.34c-.93.85-1.91,1.67-2.93,2.48a31.73,31.73,0,0,1-7,4,47.62,47.62,0,0,1-9.33,2.85,66.56,66.56,0,0,1-12.38,1q-11.62,0-19.69-2.78a31.29,31.29,0,0,1-13.2-8.29A32.53,32.53,0,0,1,125,104,65.38,65.38,0,0,1,122.71,85.82Z"/></g></g></svg>