<svg xmlns="http://www.w3.org/2000/svg" xmlns:xlink="http://www.w3.org/1999/xlink" viewBox="0 0 41.76 29.66"><defs><style>.cls-1{fill:none;}.cls-2{fill:#2e368e;}.cls-3{fill:#8f298c;}.cls-4{fill:#36b24a;}.cls-5{fill:#d6dd27;}.cls-6{fill:#2aaae1;}.cls-7{fill:#c2976b;}.cls-8{fill:#ea2d7c;}.cls-9{clip-path:url(#clip-path);}</style><clipPath id="clip-path" transform="translate(-1.73 -3.75)"><polygon class="cls-1" points="33.26 10.02 10.78 10.02 10.78 26.43 32.1 26.43 32.1 34.5 0 34.5 0 0 34.23 0 33.26 10.02"/></clipPath></defs><title>Asset 2</title><g id="Layer_2" data-name="Layer 2"><g id="Layer_1-2" data-name="Layer 1"><path class="cls-2" d="M20,18.46c0-.07-.08-.09-.15-.09H18.13c-.08,0-.15.07-.18.19L16.67,23c0,.08-.05.13-.1.13s0-.05-.05-.13l-.23-2c0-.33-.2-.43-.51-.43h-1a.65.65,0,0,0-.67.43l-.93,2c0,.08-.07.13-.11.13s0,0,0-.07V23l.28-4.42v0c0-.09,0-.16-.12-.16H11.49c-.09,0-.19,0-.19.12L11,24.94V25c0,.65.48.79.91.79h.58A1.1,1.1,0,0,0,13.67,25l1.18-2.52c0-.08.06-.09.11-.09s0,0,.06.09l.3,2.52c.07.57.34.77.78.77h.73A1.06,1.06,0,0,0,18,24.94l2-6.45s0,0,0,0" transform="translate(-1.73 -3.75)"/><path class="cls-2" d="M36.19,24.14H34.58c-.3,0-.41-.08-.41-.31a1.28,1.28,0,0,1,0-.19l.89-5.08v0a.14.14,0,0,0-.16-.15H33.29a.26.26,0,0,0-.25.19l-.89,5.08a3.37,3.37,0,0,0,0,.52c0,1.35,1.11,1.72,2.24,1.72a10.24,10.24,0,0,0,1.57-.12.24.24,0,0,0,.23-.2l.22-1.22v0a.16.16,0,0,0-.17-.17" transform="translate(-1.73 -3.75)"/><path class="cls-2" d="M30.7,22.81a2.62,2.62,0,0,0,1.64-2.6c0-1.37-1.2-1.94-2.79-1.94a16.43,16.43,0,0,0-2.1.12c-.44.08-.61.18-.69.67l-1.14,6.53v0a.16.16,0,0,0,.16.17H27.4a.25.25,0,0,0,.24-.2l.43-2.46c.23,0,.44,0,.65,0l.84,2.44c0,.1.05.2.16.2h1.76a.19.19,0,0,0,.2-.19.17.17,0,0,0,0-.07Zm-1.63-1.22h-.73L28.62,20l.78,0c.63,0,.89.16.89.53,0,.79-.43,1.09-1.22,1.09" transform="translate(-1.73 -3.75)"/><path class="cls-2" d="M40.75,18.27a13.52,13.52,0,0,0-2.32.17.4.4,0,0,0-.39.38l-1.14,6.5a.27.27,0,0,0,0,.12c0,.17.1.24.26.27a13.59,13.59,0,0,0,2.26.17c2.18,0,3.43-1,3.83-3.26l.19-1.1a4.11,4.11,0,0,0,.07-.75c0-1.64-1.06-2.5-2.74-2.5m.62,3.25-.19,1.1c-.21,1.21-.67,1.53-1.47,1.53h-.57L39.87,20h.57c.64,0,1,.18,1,.9a3.89,3.89,0,0,1-.06.62" transform="translate(-1.73 -3.75)"/><path class="cls-3" d="M22.49,26.59a4.13,4.13,0,1,1,4.14-4.13,4.14,4.14,0,0,1-4.14,4.13m0-8.1a4,4,0,1,0,4,4,4,4,0,0,0-4-4" transform="translate(-1.73 -3.75)"/><path class="cls-4" d="M22.56,26a4.27,4.27,0,0,1-4.25-4.74A4.06,4.06,0,0,1,22.39,18a4.27,4.27,0,0,1,4.25,4.74A4.06,4.06,0,0,1,22.56,26m-.17-7.86a3.9,3.9,0,0,0-3.92,3.14,4,4,0,0,0,3.34,4.49,4.76,4.76,0,0,0,.75.07,3.9,3.9,0,0,0,3.92-3.14,4,4,0,0,0-3.34-4.49,4.65,4.65,0,0,0-.75-.07" transform="translate(-1.73 -3.75)"/><path class="cls-5" d="M22.87,25.75h-.33a4.13,4.13,0,0,1-3.93-4.3,4.12,4.12,0,0,1,4.18-3.71l.33,0a4.12,4.12,0,0,1,3.93,4.3,4.12,4.12,0,0,1-4.18,3.7m-.08-7.85a4,4,0,0,0-4,3.55,4.08,4.08,0,0,0,8.12.58,4,4,0,0,0-3.79-4.12h-.31" transform="translate(-1.73 -3.75)"/><path class="cls-6" d="M22.6,26a4.14,4.14,0,1,1,4.14-4.14A4.15,4.15,0,0,1,22.6,26m0-8.11a4,4,0,1,0,4,4,4,4,0,0,0-4-4" transform="translate(-1.73 -3.75)"/><path class="cls-7" d="M22.51,25.88A3.88,3.88,0,1,1,26.39,22a3.88,3.88,0,0,1-3.88,3.88m0-7.6A3.72,3.72,0,1,0,26.23,22a3.73,3.73,0,0,0-3.72-3.72" transform="translate(-1.73 -3.75)"/><path class="cls-8" d="M22.93,26.25a4.14,4.14,0,1,1,4.13-4.14,4.15,4.15,0,0,1-4.13,4.14m0-8.11a4,4,0,1,0,4,4,4,4,0,0,0-4-4" transform="translate(-1.73 -3.75)"/><path class="cls-3" d="M22.42,25.73a3.41,3.41,0,0,1-3.29-2.52,3.35,3.35,0,0,1,.33-2.59,3.41,3.41,0,0,1,3-1.72,3.37,3.37,0,0,1,1.69.45,3.42,3.42,0,0,1-1.69,6.38m0-6.67a3.25,3.25,0,1,0,1.61.43,3.26,3.26,0,0,0-1.61-.43" transform="translate(-1.73 -3.75)"/><path class="cls-4" d="M22.78,25.36a3.62,3.62,0,0,1-2.3-.84A3.57,3.57,0,0,1,19.2,22.2a3.18,3.18,0,0,1,.71-2.46,3.22,3.22,0,0,1,2.5-1.15,3.64,3.64,0,0,1,2.3.84,3.41,3.41,0,0,1,.57,4.78,3.24,3.24,0,0,1-2.5,1.15m-.37-6.61a3,3,0,0,0-3.05,3.43,3.48,3.48,0,0,0,3.42,3,3.06,3.06,0,0,0,2.37-1.09,3.24,3.24,0,0,0-.54-4.54,3.47,3.47,0,0,0-2.2-.81" transform="translate(-1.73 -3.75)"/><path class="cls-5" d="M23.12,25.3a3.64,3.64,0,0,1-3.52-2.8A3.16,3.16,0,0,1,20.05,20a3.26,3.26,0,0,1,2.73-1.42,3.56,3.56,0,0,1,2,.62,3.4,3.4,0,0,1,1.06,4.69,3.25,3.25,0,0,1-2.73,1.42m-.34-6.57a3.1,3.1,0,0,0-2.59,1.35,3,3,0,0,0-.43,2.39,3.42,3.42,0,0,0,1.44,2.08,3.5,3.5,0,0,0,1.92.59,3.13,3.13,0,0,0,2.6-1.35,3.24,3.24,0,0,0-1-4.46,3.41,3.41,0,0,0-1.92-.6" transform="translate(-1.73 -3.75)"/><path class="cls-6" d="M22.74,25.35a3.45,3.45,0,0,1-1.69-.45,3.42,3.42,0,0,1-1.27-4.66A3.41,3.41,0,0,1,26,21a3.35,3.35,0,0,1-.33,2.59,3.41,3.41,0,0,1-3,1.72m0-6.66a3.24,3.24,0,0,0-1.61,6.06,3.16,3.16,0,0,0,1.61.43,3.24,3.24,0,0,0,3.13-4.1,3.19,3.19,0,0,0-1.52-2,3.13,3.13,0,0,0-1.61-.43" transform="translate(-1.73 -3.75)"/><path class="cls-7" d="M22.61,25.2a3.24,3.24,0,0,1-3.09-2.37,3.21,3.21,0,0,1,3.1-4,3.15,3.15,0,0,1,1.59.42,3.21,3.21,0,0,1-1.6,6m0-6.26a3.06,3.06,0,0,0-2.94,3.85,3,3,0,1,0,4.45-3.44,3,3,0,0,0-1.51-.41" transform="translate(-1.73 -3.75)"/><path class="cls-8" d="M22.86,25.65a3.33,3.33,0,0,1-1.68-.45,3.4,3.4,0,1,1,1.68.45m0-6.66a3.25,3.25,0,1,0,1.6.43,3.22,3.22,0,0,0-1.6-.43" transform="translate(-1.73 -3.75)"/><path class="cls-3" d="M22.46,25.11a2.77,2.77,0,0,1-1.4-.37,2.84,2.84,0,0,1,1.41-5.3,2.94,2.94,0,0,1,1.41.37,2.86,2.86,0,0,1,1.32,1.72,2.81,2.81,0,0,1-.27,2.16,2.85,2.85,0,0,1-2.47,1.42m0-5.5a2.67,2.67,0,1,0,2.57,2A2.62,2.62,0,0,0,23.79,20a2.66,2.66,0,0,0-1.32-.35" transform="translate(-1.73 -3.75)"/><path class="cls-4" d="M22.77,24.81a3,3,0,0,1-3-2.62,2.66,2.66,0,0,1,.59-2,2.7,2.7,0,0,1,2.08-1,3,3,0,0,1,1.91.7,2.83,2.83,0,0,1,.48,4,2.7,2.7,0,0,1-2.08,1m-.31-5.46a2.51,2.51,0,0,0-1.95.9A2.48,2.48,0,0,0,20,22.17,2.8,2.8,0,0,0,21,24a2.9,2.9,0,0,0,1.81.66,2.54,2.54,0,0,0,1.95-.9A2.66,2.66,0,0,0,24.26,20a2.81,2.81,0,0,0-1.8-.67" transform="translate(-1.73 -3.75)"/><path class="cls-5" d="M23.05,24.76a3,3,0,0,1-1.67-.51,3,3,0,0,1-1.28-1.89,2.68,2.68,0,0,1,.4-2,2.71,2.71,0,0,1,2.27-1.18,3,3,0,0,1,1.67.52,2.82,2.82,0,0,1,.88,3.89,2.71,2.71,0,0,1-2.27,1.18m-.28-5.42a2.52,2.52,0,0,0-2.13,1.11,2.47,2.47,0,0,0-.37,1.88,2.76,2.76,0,0,0,1.2,1.78,2.83,2.83,0,0,0,1.58.49,2.52,2.52,0,0,0,2.13-1.11,2.67,2.67,0,0,0-.84-3.67,2.79,2.79,0,0,0-1.57-.48" transform="translate(-1.73 -3.75)"/><path class="cls-6" d="M22.73,24.8a2.84,2.84,0,0,1-1.4-.37A2.81,2.81,0,0,1,20,22.72a2.83,2.83,0,1,1,5.19.65,2.81,2.81,0,0,1-2.46,1.43m0-5.5a2.69,2.69,0,0,0-2.33,1.34,2.67,2.67,0,1,0,3.64-1,2.62,2.62,0,0,0-1.31-.35" transform="translate(-1.73 -3.75)"/><path class="cls-7" d="M22.63,24.68a2.57,2.57,0,0,1-1.32-.36,2.63,2.63,0,0,1-1.25-1.61,2.69,2.69,0,0,1,.26-2,2.66,2.66,0,0,1,3.63-1,2.59,2.59,0,0,1,1.25,1.61,2.63,2.63,0,0,1-.25,2,2.68,2.68,0,0,1-2.32,1.35m0-5.17a2.5,2.5,0,0,0-1.25,4.67,2.5,2.5,0,0,0,3.41-.93,2.48,2.48,0,0,0-.93-3.41,2.55,2.55,0,0,0-1.23-.33" transform="translate(-1.73 -3.75)"/><path class="cls-8" d="M22.84,25.05a2.87,2.87,0,0,1-1.4-.37A2.82,2.82,0,0,1,20.1,23a2.79,2.79,0,0,1,.28-2.15,2.84,2.84,0,0,1,2.46-1.43,2.91,2.91,0,0,1,1.41.37,2.84,2.84,0,0,1-1.41,5.3m0-5.5a2.65,2.65,0,0,0-2.57,3.37,2.67,2.67,0,0,0,2.57,2,2.67,2.67,0,1,0,0-5.34" transform="translate(-1.73 -3.75)"/><path class="cls-2" d="M17,17.37a.14.14,0,0,0,.15.15h1.57a.23.23,0,0,0,.22-.19l1.19-6.71v0a.14.14,0,0,0-.16-.15H18.41a.22.22,0,0,0-.22.18L17,17.33Z" transform="translate(-1.73 -3.75)"/><path class="cls-2" d="M19.86,14.48a4.21,4.21,0,0,0-.07.76,2.26,2.26,0,0,0,2.4,2.37,11,11,0,0,0,2.25-.23c.16,0,.21-.07.24-.22L25.24,14v0a.15.15,0,0,0-.16-.16H23.57a.21.21,0,0,0-.21.19L23,15.92a4.75,4.75,0,0,1-.54,0c-.35,0-.71-.12-.71-.86a5,5,0,0,1,.05-.6l.19-1c.21-1.14.6-1.43,1.56-1.43.7,0,1.47.07,1.83.09h0c.09,0,.13,0,.15-.16l.22-1.2a.43.43,0,0,1,0,0c0-.08-.07-.1-.16-.13a7.59,7.59,0,0,0-2-.26c-1.4,0-3.07.36-3.57,3.14Z" transform="translate(-1.73 -3.75)"/><path class="cls-2" d="M25.15,17.37a.14.14,0,0,0,.15.15h1.56a.23.23,0,0,0,.23-.19l1.19-6.71v0c0-.1-.07-.15-.17-.15H26.55a.22.22,0,0,0-.22.18l-1.18,6.71Z" transform="translate(-1.73 -3.75)"/><path class="cls-2" d="M28.63,12h1.45l-.94,5.31v0a.14.14,0,0,0,.16.15h1.55a.24.24,0,0,0,.23-.19L32,12h1.42a.23.23,0,0,0,.22-.18l.22-1.22v0a.15.15,0,0,0-.17-.15H28.9a.21.21,0,0,0-.21.18l-.22,1.22v0a.14.14,0,0,0,.16.15" transform="translate(-1.73 -3.75)"/><path class="cls-2" d="M11.34,17.45a13.74,13.74,0,0,0,2.16.16,3.3,3.3,0,0,0,3.65-3.11l.18-1.05a3.73,3.73,0,0,0,.07-.72c0-1.56-1-2.39-2.61-2.39a14.86,14.86,0,0,0-2.22.16.4.4,0,0,0-.37.38l-1.1,6.2a.41.41,0,0,0,0,.11c0,.16.09.23.25.26M13.94,12h.55c.61,0,.94.17.94.86a3.42,3.42,0,0,1,0,.59l-.19,1.05C15,15.66,14.55,16,13.79,16h-.54Z" transform="translate(-1.73 -3.75)"/><path class="cls-2" d="M38.73,17.33l.84-4.82a3,3,0,0,0,0-.51c0-1.29-1-1.66-2.11-1.66h-.73c-1.5,0-2.5.34-2.82,2.17l-.69,3.91-.17.91v0a.15.15,0,0,0,.16.16h1.56a.22.22,0,0,0,.22-.19l.37-2.11h1.75l-.37,2.11v0a.13.13,0,0,0,.14.15h1.56a.26.26,0,0,0,.24-.19m-1.09-4.82-.2,1.13H35.69l.2-1.13c.07-.38.21-.49.59-.49h.74c.31,0,.44.08.44.31a1.41,1.41,0,0,1,0,.18" transform="translate(-1.73 -3.75)"/><path class="cls-2" d="M39.42,16c0,1.29,1.06,1.64,2.13,1.64a11,11,0,0,0,1.51-.11.24.24,0,0,0,.22-.19l.21-1.17v0a.16.16,0,0,0-.16-.16H41.78c-.27,0-.39-.07-.39-.29a1.37,1.37,0,0,1,0-.19l.85-4.84v0a.14.14,0,0,0-.16-.15H40.55a.24.24,0,0,0-.23.19l-.86,4.84a5,5,0,0,0,0,.5" transform="translate(-1.73 -3.75)"/><g class="cls-9"><path class="cls-3" d="M15.92,33.41A13.83,13.83,0,1,1,29.75,19.58,13.84,13.84,0,0,1,15.92,33.41M15.92,6A13.56,13.56,0,1,0,29.49,19.58,13.58,13.58,0,0,0,15.92,6" transform="translate(-1.73 -3.75)"/><path class="cls-4" d="M16.15,31.44a15.25,15.25,0,0,1-2.61-.23C5.85,29.85.64,22.84,1.92,15.56a13.62,13.62,0,0,1,13.66-11,15.25,15.25,0,0,1,2.61.23,14.52,14.52,0,0,1,9.18,5.6,13,13,0,0,1,2.44,10.05,13.61,13.61,0,0,1-13.66,11M15.58,4.87A13.33,13.33,0,0,0,2.19,15.61C.93,22.74,6,29.62,13.58,31a14.87,14.87,0,0,0,2.57.22,13.35,13.35,0,0,0,13.4-10.74,12.72,12.72,0,0,0-2.39-9.84,14.22,14.22,0,0,0-9-5.49,14.68,14.68,0,0,0-2.56-.23" transform="translate(-1.73 -3.75)"/><path class="cls-5" d="M17.18,30.55c-.35,0-.72,0-1.07,0A14.46,14.46,0,0,1,6.4,25.88a12.91,12.91,0,0,1-3.46-9.74c.5-6.94,6.64-12.39,14-12.39.36,0,.73,0,1.09,0,7.79.56,13.69,7,13.16,14.36-.49,7-6.64,12.39-14,12.39M16.93,4C9.72,4,3.69,9.35,3.21,16.16A12.65,12.65,0,0,0,6.59,25.7a14.25,14.25,0,0,0,9.53,4.55l1.06,0c7.22,0,13.25-5.33,13.74-12.14C31.44,10.93,25.64,4.61,18,4.06c-.35,0-.71,0-1.07,0" transform="translate(-1.73 -3.75)"/><path class="cls-6" d="M16.31,31.41A13.83,13.83,0,1,1,30.13,17.58,13.84,13.84,0,0,1,16.31,31.41M16.31,4A13.57,13.57,0,1,0,29.87,17.58,13.58,13.58,0,0,0,16.31,4" transform="translate(-1.73 -3.75)"/><path class="cls-7" d="M16,31A13,13,0,1,1,29,18,13,13,0,0,1,16,31M16,5.31A12.72,12.72,0,1,0,28.69,18,12.73,12.73,0,0,0,16,5.31" transform="translate(-1.73 -3.75)"/><path class="cls-8" d="M17.39,32.22A13.83,13.83,0,1,1,31.22,18.4,13.84,13.84,0,0,1,17.39,32.22m0-27.39A13.57,13.57,0,1,0,31,18.4,13.59,13.59,0,0,0,17.39,4.83" transform="translate(-1.73 -3.75)"/></g></g></g></svg>