<svg xmlns="http://www.w3.org/2000/svg" viewBox="0 0 214.82 193.52"><defs><style>.cls-1{fill:#fff;}.cls-2{fill:#c8c8c8;}.cls-3{fill:#ffe400;}.cls-4{fill:#1d1c1a;}.cls-5{fill:#47bfee;}</style></defs><title>Asset 3</title><g id="Layer_2" data-name="Layer 2"><g id="Layer_1-2" data-name="Layer 1"><path class="cls-1" d="M148.55,190.89l-28.72.76-33,1.07L77,193l-5.14.13-1.31,0-1.62,0-2.66-.06L63.57,193l-3.1-.38a47.44,47.44,0,0,1-6.2-1,71.42,71.42,0,0,1-12-3.88,68.28,68.28,0,0,1-22-15.18A70.58,70.58,0,0,1,4.92,148.37a55.15,55.15,0,0,1-2.25-7.09l-.9-3.65c-.26-1.23-.39-2.48-.59-3.73l-.53-3.76-.16-3.82c0-1.25-.14-2.61-.12-3.78L.4,119q.13-14.16.28-28.85c.07-4.91.15-9.84.21-14.81,0-2.58.1-5.16.15-7.77l.26-3.75A31.55,31.55,0,0,1,1.67,60a65.6,65.6,0,0,1,1.64-8.26l1.11-4c.43-1.29,1-2.56,1.45-3.84a70.86,70.86,0,0,1,7.78-14.54A70.62,70.62,0,0,1,38.48,7.79a69.74,69.74,0,0,1,32-7.42l62.35,1.21,15.36.26c2.76.18,5.11.26,7.74.59l3.91.66,1.95.33,1.87.52A66,66,0,0,1,190.5,18a67.87,67.87,0,0,1,23.13,50.6c.27,18,.52,34.93.76,50.6,0,1,0,2,.05,2.92v1.55l-.05,1.43c-.12,1.94,0,3.78-.31,5.73s-.51,3.86-.82,5.76-.89,3.65-1.32,5.44a70.37,70.37,0,0,1-8.79,19,71.23,71.23,0,0,1-12.29,13.83,68.63,68.63,0,0,1-13.19,8.72,67.66,67.66,0,0,1-21.2,6.67c-2.56.39-4.56.39-5.89.52l-2,.14"/><path class="cls-2" d="M70.56,193.52l-7-.18-4.11-.51a39.16,39.16,0,0,1-5.27-.9A69.75,69.75,0,0,1,42.09,188a69,69,0,0,1-22.17-15.25A71.45,71.45,0,0,1,4.58,148.5l-.28-.76a45.63,45.63,0,0,1-2-6.39l-.9-3.63c-.18-.84-.3-1.68-.41-2.5-.07-.42-.12-.84-.19-1.26l-.53-3.77-.17-3.85c0-.45,0-.92,0-1.37,0-.83-.08-1.67-.07-2.43L0,119q.14-14.15.28-28.84L.53,75.35q.07-3.87.14-7.76l.26-3.77c0-.4.06-.78.08-1.15a19,19,0,0,1,.31-2.79c.13-.75.25-1.51.37-2.28a42.43,42.43,0,0,1,1.27-6l1.11-3.94c.3-.9.64-1.79,1-2.64l.48-1.25a70.41,70.41,0,0,1,7.82-14.61,71,71,0,0,1,25-21.67A70,70,0,0,1,69.64,0h.87l77.72,1.47,2,.11c2,.12,3.8.23,5.8.48l5.88,1,1.91.52a66.65,66.65,0,0,1,27,14.12A68.13,68.13,0,0,1,214,68.59c.27,17.94.52,34.92.77,50.59,0,1,0,1.95.05,2.93v.72l-.07,2.28c0,.68-.06,1.36-.07,2a32.26,32.26,0,0,1-.24,3.74c-.1.69-.19,1.36-.28,2q-.25,1.88-.54,3.72l-.76,3.17-.56,2.3a70.85,70.85,0,0,1-8.84,19.11,72.72,72.72,0,0,1-12.36,13.9,68.68,68.68,0,0,1-34.58,15.49,44.23,44.23,0,0,1-4.44.41c-.55,0-1,.06-1.46.1l-2.06.14-28.73.76ZM69.64.73a69.28,69.28,0,0,0-31,7.38A70.24,70.24,0,0,0,14,29.56,69.31,69.31,0,0,0,6.21,44c-.15.42-.32.84-.48,1.25-.33.85-.68,1.73-1,2.59L3.66,51.79a40.19,40.19,0,0,0-1.24,5.93c-.12.77-.25,1.54-.39,2.3a19.45,19.45,0,0,0-.29,2.7c0,.37-.05.76-.08,1.16L1.4,67.62c0,2.58-.09,5.17-.14,7.75L1,90.18Q.9,104.85.77,119l0,3.52c0,.74,0,1.57.06,2.38,0,.46,0,.93.06,1.39L1,130.13l.52,3.72c.07.42.13.85.19,1.27.12.8.23,1.64.4,2.43l.9,3.64a46.58,46.58,0,0,0,2,6.3l.28.76a70.55,70.55,0,0,0,15.18,24,68.15,68.15,0,0,0,21.92,15.1,69.14,69.14,0,0,0,12,3.86,38.87,38.87,0,0,0,5.18.89l4.08.5,7,.18,16.29-.43,33-1.08c18-.48,28.39-.75,28.72-.75l2-.15c.42,0,.92-.07,1.48-.1,1.18-.07,2.65-.15,4.37-.41a68,68,0,0,0,34.22-15.31,72.17,72.17,0,0,0,12.21-13.76,69.55,69.55,0,0,0,8.75-18.89l.55-2.28c.26-1,.51-2.08.76-3.14s.36-2.44.54-3.68l.27-2a30,30,0,0,0,.24-3.66c0-.67,0-1.35.07-2l.07-2.24v-.71c0-1,0-1.94-.05-2.93-.24-15.66-.5-32.64-.77-50.59a67.42,67.42,0,0,0-23-50.33,65.69,65.69,0,0,0-26.66-14l-1.89-.53-5.81-1c-2-.25-3.8-.35-5.74-.46l-2-.12-15.35-.27L70.5.74Z"/><path class="cls-3" d="M211.38,61.91c-.25-2.22-.62-4.45-.94-6.7-.59-2.19-1.08-4.43-1.78-6.61l-1.21-3.25a20.82,20.82,0,0,0-1.34-3.2A64.39,64.39,0,0,0,188.85,20a63,63,0,0,0-26-12.52c-9.29-2.31-19.77-1.19-30-1.2-20.56.4-41.45.81-62.34,1.2a62.05,62.05,0,0,0-28.09,7.71A62.85,62.85,0,0,0,21.49,34.69,60.63,60.63,0,0,0,15.26,47.4c-.38,1.11-.79,2.21-1.13,3.32l-.81,3.41a54.27,54.27,0,0,0-1.11,6.63A28.8,28.8,0,0,0,12,64.39l-.13,3.75c.05,2.42.09,4.83.14,7.21.07,5,.14,9.91.21,14.82q.15,14.68.28,28.85l0,3.52c0,1.16.13,2.14.18,3.22l.19,3.14.51,3.09c.18,1,.29,2.06.53,3.06l.81,3a42.25,42.25,0,0,0,2,5.78,59.59,59.59,0,0,0,40.53,35.36,33.72,33.72,0,0,0,4.71,1l2.29.46,2.68.21,2.65.21.66,0,.32,0h.17c.25,0,0,0-.13,0l1.3,0,5.14.13,9.85.27,33,1.08,28.72.76,1.81-.06c1.19-.08,3,0,5.27-.25a60.88,60.88,0,0,0,19.29-5.25,62.88,62.88,0,0,0,12.32-7.46,66.07,66.07,0,0,0,11.81-12.28,63.9,63.9,0,0,0,8.83-17.35q.69-2.49,1.4-5.06.45-2.58.91-5.22c.33-1.75.31-3.73.48-5.62l.09-1.43,0-.37v-1c0-1,0-1.94,0-2.92.24-15.67.5-32.65.78-50.6,0-2.23-.17-4.44-.25-6.68"/><path class="cls-4" d="M66.5,80.33c-1.34,0-3.67,0-3.67.55V98.29c-.7-1.13-4.08-4.37-10.43-4.37-7.89,0-14.52,4.59-14.52,14.25v11.76c0,9.66,6.7,14.17,14,14.17a13.19,13.19,0,0,0,11.27-5.56v4.3c0,.55,2,.55,3.39.55s3.59,0,3.59-.55v-52c0-.55-2.32-.55-3.66-.55M62.83,118.1c0,5.29-3.31,9.52-9,9.52-5.07,0-8.6-2.47-8.6-8.88v-9.66c0-6.35,3.38-8.88,8.32-8.88,5.78,0,9.3,3.73,9.3,9.37Z"/><path class="cls-4" d="M83.21,94.7c-1.35,0-3.68,0-3.68.56v37.58c0,.55,2.33.55,3.68.55s3.65,0,3.65-.55V95.26c0-.56-2.32-.56-3.65-.56"/><path class="cls-4" d="M122.46,94.63c-1.41,0-3.52,0-3.52.56v4C117.32,96.67,113.65,94,107.8,94c-7.4,0-14.1,4.51-14.1,14.17v11c0,9.66,6.41,14.3,14.1,14.3,4.86,0,8.46-1.82,10.86-4.92v4.3c0,5.77-3.46,9.16-9.24,9.16a20.59,20.59,0,0,1-10.78-3.39c-.71-.49-4,4.86-3.17,5.43a26.91,26.91,0,0,0,13.67,4c8.25,0,16.92-4.23,16.92-17.27V95.19c0-.56-2.26-.56-3.6-.56m-3.8,22.77c0,5.7-3.46,9.58-9.17,9.58-4.93,0-8.39-2.54-8.39-8.88v-8.74c0-6.42,3.53-8.88,8.39-8.88,5.78,0,9.17,4.23,9.17,9.52Z"/><path class="cls-4" d="M137.47,94.7c-1.34,0-3.66,0-3.66.56v37.58c0,.55,2.32.55,3.66.55s3.67,0,3.67-.55V95.26c0-.56-2.33-.56-3.67-.56"/><path class="cls-5" d="M181.56,42.25a6.51,6.51,0,0,0-2.34-1.7,15.16,15.16,0,0,0-4.7-1.07,22.35,22.35,0,0,0-12,2.47A17.11,17.11,0,0,0,157,45.9a.37.37,0,0,0-.31.31h0a1.39,1.39,0,0,0-.54.64A.27.27,0,0,0,156,47a2.3,2.3,0,0,0-.79,1.07h0a9.59,9.59,0,0,0-1.94,3.43.19.19,0,0,0,0,.12A10.72,10.72,0,0,0,152,55.15a.17.17,0,0,0,0,.12h0c-.3.35-.22.82-.32,1.23a1.82,1.82,0,0,1-2,1.45l-.9,0a5.27,5.27,0,0,0-1.53-.11h-1.39a.85.85,0,0,0-.68.08l-.55,0a.71.71,0,0,0-.62,0l-.61.08a.87.87,0,0,0-.86.13l-.37,0a.35.35,0,0,0-.46.06l-.3,0a3.39,3.39,0,0,0-1.4.3l-.3.06a6.73,6.73,0,0,0-2.23.61l.3,0-.3,0-.25,0a.28.28,0,0,0-.32.12,7.35,7.35,0,0,0-2.53.89.07.07,0,0,0-.08,0,1.39,1.39,0,0,0-.89.34,29.83,29.83,0,0,0-5,2.52l-.34.22-.26.14-.23.17a.2.2,0,0,0-.24.13,13,13,0,0,0-2.61,1.73.47.47,0,0,0-.36.29l-.25.19h0a1.33,1.33,0,0,0-.74.62l0,0-.15.12h0a.32.32,0,0,0-.32.29.8.8,0,0,0-.44.37.29.29,0,0,0-.23.25.18.18,0,0,0-.09.1.29.29,0,0,0-.28.23h0l-.12.13a16.91,16.91,0,0,0-1.6,1.79,8.43,8.43,0,0,0-2.37,5.26,6.57,6.57,0,0,0,1.63,5.4h0a.38.38,0,0,0,.3.31h0a.26.26,0,0,0,.25.21.37.37,0,0,0,.35.26l.19.14a.54.54,0,0,0,.44.22h0a.64.64,0,0,0,.57.28,6.21,6.21,0,0,0,3.88.24l.74-.16a1.07,1.07,0,0,0,.62-.25.32.32,0,0,0,.34-.14h.07l.06,0a.32.32,0,0,0,.3-.13h0a.59.59,0,0,0,.5-.28h0a6.9,6.9,0,0,0,2.61-2.12.56.56,0,0,1-.19-.1.56.56,0,0,0,.19.1v0l.14-.2a5.49,5.49,0,0,0,1.53-1.65c.1,0,.18-.07.17-.2l.27-.32c.24,0,.26-.27.34-.44l.13-.16a1.09,1.09,0,0,0,.48-.6,19.88,19.88,0,0,0,2.2-2.81l.12-.18c1.23-1.44,2.43-2.89,3.68-4.3A28.74,28.74,0,0,1,146,62.73a4.85,4.85,0,0,1,4.38-.71,1,1,0,0,1,.76,1.12,54.19,54.19,0,0,0,.54,10.42,41.7,41.7,0,0,0,2,9,2.6,2.6,0,0,0,.27,1c.6,1.4,1.11,2.82,1.79,4.2a39.79,39.79,0,0,0,2.42,4.39c.05.15.12.3.3.34h0a10.78,10.78,0,0,0,2,2.63h0l.35.41.13.14.35.31.13-.1-.13.1a13,13,0,0,0,2.89,2.48,9.4,9.4,0,0,0,3.85,1.73l.31.07a.34.34,0,0,1,.14-.08l.07,0-.07,0a.34.34,0,0,0-.14.08l.28.08c0,.08.08.11.17.09a5.32,5.32,0,0,0,2.93-.28c.28.13.49-.06.71-.17a5.42,5.42,0,0,0,2.64-2.78c1.51-3.18,1.27-6.51.75-9.85l-.07-.23a.88.88,0,0,0-.12-.65A27.83,27.83,0,0,0,172.42,78,49.8,49.8,0,0,0,159.27,62.4a19.62,19.62,0,0,0-5.43-3.26h0a1.17,1.17,0,0,1,0-.88c.24-.76.5-1.52.75-2.29.09-.1.17-.26.28-.3a90,90,0,0,1,10.9-3.19,43.15,43.15,0,0,0,5.91-1.65A38.34,38.34,0,0,0,178,48.65a10.69,10.69,0,0,0,3.4-2.18A3,3,0,0,0,181.56,42.25Zm-62.71,37-.13-.05.13.05Zm2.21-8.74a.53.53,0,0,0-.31.07.53.53,0,0,1,.31-.07v0Zm14.48,2.32c-.36.45-.72.9-1,1.37.33-.47.69-.92,1-1.37a.53.53,0,0,1,.05-.18A.53.53,0,0,0,135.54,72.87Zm6.17-7.7a2,2,0,0,1-.53.83,2,2,0,0,0,.53-.83.49.49,0,0,0,.34-.13A.49.49,0,0,1,141.71,65.17Zm1.39-1.24-.09.15.09-.15v0Zm3.23-2.46h0a.32.32,0,0,1,.08-.23A.32.32,0,0,0,146.33,61.47Zm7-3.39a4.91,4.91,0,0,0-.09.77l.45.3-.45-.3A4.91,4.91,0,0,1,153.35,58.08Zm-.09,3.85Zm2.16,4.47a1.27,1.27,0,0,0,0-.34,1.27,1.27,0,0,1,0,.34v0Zm0,.3a.57.57,0,0,1,.19.08.57.57,0,0,0-.19-.08Zm-.47,0v0a1.54,1.54,0,0,0,0-.3A1.54,1.54,0,0,1,155,66.71ZM154.64,62a2.14,2.14,0,0,1-1.23-1.25h0A2.14,2.14,0,0,0,154.64,62Zm-.45-6a5.6,5.6,0,0,0-.79,1.85,5.6,5.6,0,0,1,.79-1.85.43.43,0,0,0,.3-.18A.43.43,0,0,1,154.19,56Z"/><path class="cls-5" d="M161,95.65l-.13-.14C160.82,95.61,160.86,95.66,161,95.65Z"/></g></g></svg>