<svg xmlns="http://www.w3.org/2000/svg" viewBox="0 0 127.16 111.52"><defs><style>.cls-1{fill:#172e5a;}</style></defs><title>Asset 5</title><g id="Layer_2" data-name="Layer 2"><g id="Layer_1-2" data-name="Layer 1"><path class="cls-1" d="M45.49,29.64a7.47,7.47,0,1,1-5.14-14L81.66.46a7.47,7.47,0,0,1,5.15,14Z"/><path class="cls-1" d="M45.49,52a7.47,7.47,0,1,1-5.14-14L81.66,22.82a7.47,7.47,0,0,1,5.15,14Z"/><path class="cls-1" d="M45.49,74.36a7.47,7.47,0,1,1-5.14-14L81.66,45.18a7.48,7.48,0,0,1,5.15,14Z"/><polygon class="cls-1" points="0 92.94 13.86 92.94 13.86 96.71 4.89 96.71 4.89 99.99 13.49 99.99 13.49 103.89 4.89 103.89 4.89 107.28 14.01 107.28 14.01 111.07 0 111.07 0 92.94"/><rect class="cls-1" x="35.4" y="92.94" width="4.93" height="18.14"/><path class="cls-1" d="M58.32,93.53,58,97.41c-4-2.31-10.08-1.57-10.19,4.47s6.28,6.93,10.34,4.88l.26,4c-7.17,2.23-15.72,0-15.69-8.84,0-8.61,8.67-11,15.62-8.35"/><path class="cls-1" d="M72.83,93.25,72.5,97c-2.49-1.37-7.2-1.4-7.2.75,0,3.18,8.41.88,8.41,7.7s-8,6.78-13.2,5.22l.37-4c3.25,1.52,7.86,1.85,7.86-.78,0-2.89-8.45-1.26-8.45-7.74,0-5.31,6.58-6.74,12.54-4.92"/><path class="cls-1" d="M87.71,93.25,87.38,97c-2.49-1.37-7.2-1.4-7.2.75,0,3.18,8.41.88,8.41,7.7s-8,6.78-13.2,5.22l.37-4c3.25,1.52,7.85,1.85,7.85-.78,0-2.89-8.44-1.26-8.44-7.74,0-5.31,6.58-6.74,12.54-4.92"/><polygon class="cls-1" points="110.41 92.94 116.66 92.94 122.62 104.64 122.62 92.94 127.16 92.94 127.16 111.08 121.27 111.08 114.98 99.16 114.98 111.08 110.41 111.08 110.41 92.94"/><path class="cls-1" d="M99,92.51c5.13,0,9,3,9,9.54,0,6.26-3.92,9.47-9,9.47s-9-3.14-9-9.47c0-6.54,3.88-9.54,9-9.54m-4,9.54c0,2.77,1.19,5.89,4,5.89s3.93-3.12,3.95-5.89c0-2.5-1.18-5.88-3.95-5.89s-4,3.13-4,5.89"/><path class="cls-1" d="M22.16,100.59h2.7a2,2,0,1,0,.07-4.06H22.16ZM17.44,93h8.89c2.41,0,5.77,1,5.77,4.82a4.09,4.09,0,0,1-3.17,4.39A2.81,2.81,0,0,1,30.57,104s2.54,7.07,2.57,7.09H27.9L26,105.63a1.85,1.85,0,0,0-1.79-1.39c-.77,0-2,0-2,0v6.84H17.44Z"/></g></g></svg>