<svg xmlns="http://www.w3.org/2000/svg" viewBox="0 0 79.28 47.06"><defs><style>.cls-1{fill:#ea4335;}.cls-2{fill:#4285f4;}.cls-3{fill:#34a853;}.cls-4{fill:#fbbc05;}.cls-5{fill:#5f6368;}</style></defs><title>Asset 1</title><g id="Layer_2" data-name="Layer 2"><g id="Layer_1-2" data-name="Layer 1"><g id="Layer_2-2" data-name="Layer 2"><g id="Layer_1-2-2" data-name="Layer 1-2"><path class="cls-1" d="M43.93,7.43H44L44,7.37l4-4V3.29A13,13,0,0,0,26.76,9.65L27,9.58A9.52,9.52,0,0,1,32.13,8,8.75,8.75,0,0,1,34,8.2h.08A7.23,7.23,0,0,1,44,7.45Z"/><path class="cls-2" d="M52,9.65A13.15,13.15,0,0,0,48,3.3L44,7.37a7.25,7.25,0,0,1,2.66,5.74v.72c4.83,0,4.83,7.25,0,7.25H39.37v5.75h7.25A9.42,9.42,0,0,0,52,9.65Z"/><path class="cls-3" d="M32.13,26.84h7.24V21H32.13a3.63,3.63,0,0,1-1.49-.32l-4.19,4.2h0a9.36,9.36,0,0,0,5.69,1.89Z"/><path class="cls-4" d="M32.13,8a9.42,9.42,0,0,0-5.69,16.89l4.2-4.21a3.62,3.62,0,1,1,4.8-4.79l4.2-4.2A9.41,9.41,0,0,0,32.13,8Z"/><path class="cls-5" d="M5.53,43.91a5.43,5.43,0,0,1-3.9-1.6,5.35,5.35,0,0,1,0-7.69A5.39,5.39,0,0,1,5.53,33,5.23,5.23,0,0,1,9.26,34.5l-1,1.07a3.79,3.79,0,0,0-2.68-1.06,3.73,3.73,0,0,0-2.78,1.16,3.85,3.85,0,0,0-1.16,2.79,3.9,3.9,0,0,0,1.16,2.77,4,4,0,0,0,5.52.06,3.13,3.13,0,0,0,.81-1.83H5.54V38h5a4.06,4.06,0,0,1,0,.92,4.72,4.72,0,0,1-1.29,3.48A5,5,0,0,1,5.53,43.9Zm11.63-1a3.6,3.6,0,0,1-5,0,3.59,3.59,0,0,1,0-5,3.62,3.62,0,0,1,5,0,3.59,3.59,0,0,1,0,5Zm-3.91-1A1.91,1.91,0,0,0,16,42a.3.3,0,0,0,.08-.08,2.09,2.09,0,0,0,.58-1.52A2.14,2.14,0,0,0,16,38.87a2,2,0,0,0-2.75,0l0,0a2.13,2.13,0,0,0-.58,1.53,2.09,2.09,0,0,0,.58,1.52Zm11.59,1a3.61,3.61,0,0,1-5,0,3.39,3.39,0,0,1-1-2.5,3.32,3.32,0,0,1,1-2.51,3.61,3.61,0,0,1,5,0,3.61,3.61,0,0,1,0,5Zm-3.9-1a1.92,1.92,0,0,0,2.71.09l.08-.09a2.06,2.06,0,0,0,.58-1.51,2.11,2.11,0,0,0-.58-1.53,1.93,1.93,0,0,0-2.75,0l-.05,0a2.28,2.28,0,0,0,0,3Zm8.94,5.16a3.07,3.07,0,0,1-2-.63A3.5,3.5,0,0,1,26.76,45l1.35-.58a2.17,2.17,0,0,0,.66.87,1.58,1.58,0,0,0,1.1.37,1.76,1.76,0,0,0,1.38-.52,2.19,2.19,0,0,0,.49-1.54v-.5h-.06a2.23,2.23,0,0,1-1.84.79,3.2,3.2,0,0,1-2.35-1,3.36,3.36,0,0,1-1-2.47,3.42,3.42,0,0,1,1-2.49,3.22,3.22,0,0,1,2.36-1,2.47,2.47,0,0,1,1.08.24,2.21,2.21,0,0,1,.77.58h.09v-.58h1.45V43.4a3.65,3.65,0,0,1-.93,2.74,3.31,3.31,0,0,1-2.4.92Zm.1-4.53A1.72,1.72,0,0,0,31.32,42a2.18,2.18,0,0,0,.53-1.51,2.28,2.28,0,0,0-.53-1.54A1.75,1.75,0,0,0,30,38.32a1.81,1.81,0,0,0-1.37.58A2.13,2.13,0,0,0,28,40.43a2.08,2.08,0,0,0,.58,1.51,1.81,1.81,0,0,0,1.37.58Zm5.84,1.16H34.28V33.4h1.56V43.7ZM40,43.9a3.36,3.36,0,0,1-2.45-1,3.7,3.7,0,0,1,0-5,3.14,3.14,0,0,1,2.36-1,3.08,3.08,0,0,1,1.16.23,3,3,0,0,1,.9.58,4.46,4.46,0,0,1,.58.72,3.36,3.36,0,0,1,.35.68l.15.4-4.71,1.94A1.76,1.76,0,0,0,40,42.49a2,2,0,0,0,1.73-1l1.16.79a3.74,3.74,0,0,1-1.16,1.08,3.1,3.1,0,0,1-1.77.49Zm-2-3.62L41.2,39a1.06,1.06,0,0,0-.49-.53,1.56,1.56,0,0,0-.82-.2,1.82,1.82,0,0,0-1.26.58,1.86,1.86,0,0,0-.58,1.49Z"/><path class="cls-5" d="M51.11,43.91a4.86,4.86,0,0,1-4.94-4.76v-.21a4.87,4.87,0,0,1,4.75-5h.19a4.43,4.43,0,0,1,3.48,1.56l-.85.82a3.23,3.23,0,0,0-2.65-1.21,3.62,3.62,0,0,0-2.62,1,3.74,3.74,0,0,0-1,2.75,3.68,3.68,0,0,0,1.07,2.74,3.58,3.58,0,0,0,2.62,1.06,3.78,3.78,0,0,0,3-1.38l.85.84a4.71,4.71,0,0,1-1.63,1.27,4.92,4.92,0,0,1-2.17.45Z"/><polygon class="cls-5" points="55.97 43.7 57.19 43.7 57.19 34.18 55.97 34.18 55.97 43.7 55.97 43.7"/><path class="cls-5" d="M59.18,38a3.58,3.58,0,1,1-.94,2.87,2.67,2.67,0,0,1,0-.4A3.49,3.49,0,0,1,59.18,38Zm.91,4.18a2.06,2.06,0,0,0,2.91.08l.08-.08a2.33,2.33,0,0,0,.63-1.71,2.3,2.3,0,0,0-.63-1.73,2.06,2.06,0,0,0-2.91-.09l-.08.09a2.35,2.35,0,0,0-.63,1.73,2.44,2.44,0,0,0,.63,1.71Z"/><path class="cls-5" d="M71.7,43.7H70.54v-.9h0a2.31,2.31,0,0,1-.86.81,2.46,2.46,0,0,1-1.21.32,2.33,2.33,0,0,1-1.85-.74,2.92,2.92,0,0,1-.62-2v-4h1.21V41c0,1.22.54,1.83,1.61,1.83A1.53,1.53,0,0,0,70,42.22a2.19,2.19,0,0,0,.48-1.41V37.19h1.22V43.7Z"/><path class="cls-5" d="M75.84,43.91a2.86,2.86,0,0,1-2.18-1,3.78,3.78,0,0,1,0-4.94,2.89,2.89,0,0,1,2.18-1,2.7,2.7,0,0,1,1.33.33,2.1,2.1,0,0,1,.88.79h.07l-.05-.9v-3h1.21v9.5H78.12v-.9h-.05a2.26,2.26,0,0,1-.89.79,2.89,2.89,0,0,1-1.32.32ZM76,42.8a2,2,0,0,0,1.47-.64,2.9,2.9,0,0,0,0-3.48,2,2,0,0,0-2.81-.13l-.14.13a2.81,2.81,0,0,0,0,3.42,2,2,0,0,0,1.48.65Z"/></g></g></g></g></svg>