<svg xmlns="http://www.w3.org/2000/svg" xmlns:xlink="http://www.w3.org/1999/xlink" viewBox="0 0 128.45 128.69"><defs><style>.cls-1{fill:none;}.cls-2{fill:#221f1f;}.cls-3{clip-path:url(#clip-path);}.cls-4{fill:#e7362d;}.cls-5{clip-path:url(#clip-path-2);}.cls-6{clip-path:url(#clip-path-3);}.cls-7{clip-path:url(#clip-path-4);}.cls-8{clip-path:url(#clip-path-5);}.cls-9{clip-path:url(#clip-path-6);}.cls-10{clip-path:url(#clip-path-7);}.cls-11{clip-path:url(#clip-path-8);}</style><clipPath id="clip-path"><path class="cls-1" d="M55.28,75.56a.41.41,0,0,0,.1-.47h0a294,294,0,0,0-35.73-58S8.43,27.74,9.23,38.42a18.93,18.93,0,0,0,6.5,12.88c9.8,9.56,33.51,21.62,39,24.35a.47.47,0,0,0,.53-.09"/></clipPath><clipPath id="clip-path-2"><path class="cls-1" d="M51.62,83.73a.56.56,0,0,0-.52-.36h0L11.63,84.74c4.28,7.64,11.5,13.57,19,11.75C35.82,95.2,47.55,87,51.43,84.23h0c.3-.27.2-.49.2-.49"/></clipPath><clipPath id="clip-path-3"><path class="cls-1" d="M52.2,80.18c.2-.31-.14-.59-.14-.59h0C34.73,67.88,1.13,49.92,1.13,49.92A23.38,23.38,0,0,0,14.64,78.8a23.89,23.89,0,0,0,7.55,1.66c.6.1,23.49,0,29.62,0a.5.5,0,0,0,.39-.27"/></clipPath><clipPath id="clip-path-4"><path class="cls-1" d="M54.83,0c-1.72.16-6.36,1.22-6.36,1.22A18.3,18.3,0,0,0,35.55,13.41c-1.91,6,.05,12.54.05,12.54C39.09,41.44,56.25,66.89,60,72.24c.25.26.46.17.46.17a.48.48,0,0,0,.38-.49c5.67-56.84-6-71.92-6-71.92"/></clipPath><clipPath id="clip-path-5"><path class="cls-1" d="M67.9,72.39a.45.45,0,0,0,.57-.21h0C72.26,66.69,89.32,41.38,92.8,26c0,0,1.88-7.49,0-12.54a18.3,18.3,0,0,0-13-12.19S76.8.45,73.6,0c0,0-11.7,15.08-6,72h0a.45.45,0,0,0,.3.43"/></clipPath><clipPath id="clip-path-6"><path class="cls-1" d="M77.25,83.39s-.36,0-.45.31a.57.57,0,0,0,.15.53h0C80.72,87,92.18,95,97.7,96.53c0,0,10.2,3.47,19.07-11.76L77.25,83.39h0"/></clipPath><clipPath id="clip-path-7"><path class="cls-1" d="M127.27,49.82s-33.55,18-50.91,29.73v0a.53.53,0,0,0-.21.57s.17.3.41.3h0c6.21,0,29.73,0,30.32-.08a23.35,23.35,0,0,0,19.5-13.73,23.92,23.92,0,0,0,.88-16.82"/></clipPath><clipPath id="clip-path-8"><path class="cls-1" d="M73.2,75.56a.5.5,0,0,0,.53,0c5.65-2.8,29.18-14.79,38.93-24.3,0,0,6.16-5,6.49-12.93.7-11.06-10.41-21.3-10.41-21.3A294.24,294.24,0,0,0,73.07,74.93h0a.56.56,0,0,0,.12.63"/></clipPath></defs><title>Asset 4</title><g id="Layer_2" data-name="Layer 2"><g id="Layer_1-2" data-name="Layer 1"><polyline class="cls-2" points="4.74 116.16 15.22 116.16 15.22 107.78 19.92 107.78 19.92 128.46 15.22 128.46 15.22 119.83 4.74 119.83 4.74 128.46 0.03 128.46 0.03 107.78 4.74 107.78 4.74 116.16"/><path class="cls-2" d="M28.46,120.17c0,3.65,1.16,5.18,5,5.18s5-1.53,5-5.18V107.78h4.71v12.51c0,2.65-.33,4.46-1.32,5.55-1.84,2-4.51,2.85-8.41,2.85s-6.61-.83-8.44-2.85c-1-1.11-1.28-2.93-1.28-5.55V107.78h4.67v12.39"/><path class="cls-2" d="M52.65,119.86h6.69l-3.41-8-3.28,8m6-12.08,9.54,20.68H62.91l-2.06-4.91H51.13l-2,4.91h-5l9.46-20.68Z"/><polyline class="cls-2" points="70.28 107.78 75.46 123.68 79.82 107.78 85.37 107.78 90.39 123.68 95.21 107.78 100.03 107.78 93.12 128.46 87.35 128.46 82.58 113.03 78.41 128.46 72.68 128.46 65.23 107.78 70.28 107.78"/><path class="cls-2" d="M106.38,116.19h13v3.6h-13c0,3.72,1.62,5.08,5.32,5.08h7.73v3.59h-7.94c-2.71,0-4.8-.19-7-1.81s-3.43-4.4-3.43-8.15c0-7.31,3.34-10.72,10.53-10.72h7.82v3.61h-7.73c-3.38,0-5.09,1.56-5.28,4.8"/><rect class="cls-2" x="123.54" y="107.78" width="4.92" height="20.68"/><g class="cls-3"><path class="cls-4" d="M55.28,75.56a.41.41,0,0,0,.1-.47h0a294,294,0,0,0-35.73-58S8.43,27.74,9.23,38.42a18.93,18.93,0,0,0,6.5,12.88c9.8,9.56,33.51,21.62,39,24.35a.47.47,0,0,0,.53-.09"/></g><g class="cls-5"><path class="cls-4" d="M51.62,83.73a.56.56,0,0,0-.52-.36h0L11.63,84.74c4.28,7.64,11.5,13.57,19,11.75C35.82,95.2,47.55,87,51.43,84.23h0c.3-.27.2-.49.2-.49"/></g><g class="cls-6"><path class="cls-4" d="M52.2,80.18c.2-.31-.14-.59-.14-.59h0C34.73,67.88,1.13,49.92,1.13,49.92A23.38,23.38,0,0,0,14.64,78.8a23.89,23.89,0,0,0,7.55,1.66c.6.1,23.49,0,29.62,0a.5.5,0,0,0,.39-.27"/></g><g class="cls-7"><path class="cls-4" d="M54.83,0c-1.72.16-6.36,1.22-6.36,1.22A18.3,18.3,0,0,0,35.55,13.41c-1.91,6,.05,12.54.05,12.54C39.09,41.44,56.25,66.89,60,72.24c.25.26.46.17.46.17a.48.48,0,0,0,.38-.49c5.67-56.84-6-71.92-6-71.92"/></g><g class="cls-8"><path class="cls-4" d="M67.9,72.39a.45.45,0,0,0,.57-.21h0C72.26,66.69,89.32,41.38,92.8,26c0,0,1.88-7.49,0-12.54a18.3,18.3,0,0,0-13-12.19S76.8.45,73.6,0c0,0-11.7,15.08-6,72h0a.45.45,0,0,0,.3.43"/></g><g class="cls-9"><path class="cls-4" d="M77.25,83.39s-.36,0-.45.31a.57.57,0,0,0,.15.53h0C80.72,87,92.18,95,97.7,96.53c0,0,10.2,3.47,19.07-11.76L77.25,83.39h0"/></g><g class="cls-10"><path class="cls-4" d="M127.27,49.82s-33.55,18-50.91,29.73v0a.53.53,0,0,0-.21.57s.17.3.41.3h0c6.21,0,29.73,0,30.32-.08a23.35,23.35,0,0,0,19.5-13.73,23.92,23.92,0,0,0,.88-16.82"/></g><g class="cls-11"><path class="cls-4" d="M73.2,75.56a.5.5,0,0,0,.53,0c5.65-2.8,29.18-14.79,38.93-24.3,0,0,6.16-5,6.49-12.93.7-11.06-10.41-21.3-10.41-21.3A294.24,294.24,0,0,0,73.07,74.93h0a.56.56,0,0,0,.12.63"/></g></g></g></svg>