<svg xmlns="http://www.w3.org/2000/svg" viewBox="0 0 195.11 105.67"><defs><style>.cls-1{fill:#231f20;}.cls-2{fill:#9b2b2c;}.cls-3{fill:#4c83c3;}</style></defs><title>Asset 1</title><g id="Layer_2" data-name="Layer 2"><g id="Layer_1-2" data-name="Layer 1"><path class="cls-1" d="M4.53,92.29v3.48H14.64c3.05,0,4.05.79,4.05,3.84v2.23c0,3-1,3.8-3.91,3.83H4.48c-2.89,0-3.87-.81-3.91-3.69v-.17l0-1.1H3.9v1.92H15.37V98.91H5.25c-3,0-4-.78-4-3.83V93.29c0-3,1-3.83,4-3.83h9.21c2.88,0,4,.76,4,3.55v1.14H15.15V92.29Z"/><path class="cls-1" d="M38.68,92.35H26.25v10.27H38.68V92.35ZM26.5,89.46H38.43c3,0,4,.79,4,3.83v8.55c0,3-1,3.83-4,3.83H26.5c-3.05,0-4-.79-4-3.83V93.29c0-3,1-3.83,4-3.83Z"/><polygon class="cls-1" points="46.71 89.46 63.1 89.46 63.1 92.29 50.48 92.29 50.48 96.56 57.29 96.56 57.29 99.51 50.48 99.51 50.48 105.67 46.71 105.67 46.71 89.46 46.71 89.46"/><polygon class="cls-1" points="77.56 105.67 73.79 105.67 73.79 92.35 66.34 92.35 66.34 89.46 85.03 89.46 85.03 92.35 77.56 92.35 77.56 105.67 77.56 105.67"/><polygon class="cls-1" points="87.57 89.46 91.34 89.46 91.34 102.62 103.49 102.62 103.49 105.67 87.57 105.67 87.57 89.46 87.57 89.46"/><path class="cls-1" d="M120.26,99.2l-3.49-6.6-3.61,6.6Zm-5.18-9.74h3.64l9.3,16.21h-4.24l-2-3.55H111.56l-1.88,3.55h-3.77l9.17-16.21Z"/><polygon class="cls-1" points="131.98 98.41 123.57 89.46 128.59 89.46 134.15 95.68 139.74 89.46 144.17 89.46 135.78 98.32 135.78 105.67 131.98 105.67 131.98 98.41 131.98 98.41"/><path class="cls-1" d="M170.81,96.78V92.26h8.48c1.16,0,1.69.22,1.69,1.28v1.95c0,1.07-.53,1.29-1.69,1.29Zm-3.71,8.89h3.71V99.54h3.58l6.53,6.13h5.4l-7.47-6.13H181c2.49,0,3.65-.88,3.65-3.14V92.6c0-2.26-1.16-3.14-3.65-3.14H167.1v16.21Z"/><polygon class="cls-2" points="163.38 92.46 146.78 92.46 146.78 89.47 163.38 89.47 163.38 92.46 163.38 92.46"/><polygon class="cls-1" points="163.38 99.05 146.78 99.05 146.78 96.07 163.38 96.07 163.38 99.05 163.38 99.05"/><polygon class="cls-2" points="163.38 105.65 146.78 105.65 146.78 102.67 163.38 102.67 163.38 105.65 163.38 105.65"/><path class="cls-1" d="M194.53,89.45v3.78h-.79V91.17c0-.16,0-.35,0-.55l0-.27v-.11l0,.1-.09.26c-.08.23-.14.4-.19.52l-.85,2.11h-.71l-.85-2.1a5.26,5.26,0,0,1-.19-.51l-.09-.26a.49.49,0,0,0,0-.11l0,.11c0,.38,0,.65,0,.81v2.06H190V89.45h1.24l.69,1.74c.05.12.11.29.19.52l.08.25.07.2.07-.19c.11-.37.2-.63.26-.78l.69-1.74Zm-6,.68v3.1h-.8v-3.1h-1.11v-.68h3v.68Z"/><polygon class="cls-3" points="195.11 5.6 162.63 5.6 164.63 0 195.11 0 195.11 5.6"/><path class="cls-3" d="M108.53,0h30.15l2,5.61s-32.12,0-32.12,0S108.52,0,108.53,0Z"/><path class="cls-3" d="M84.58,0a21.69,21.69,0,0,1,13,5.61H42.9V0Z"/><rect class="cls-3" x="0.01" width="37.97" height="5.6"/><path class="cls-3" d="M195.11,16.11h-36.2s2-5.57,2-5.57h34.24Z"/><polygon class="cls-3" points="144.39 16.12 108.53 16.12 108.53 10.54 142.42 10.54 144.39 16.12"/><path class="cls-3" d="M101.81,10.54c.72,1.84,1.57,3.41,1.57,5.57H42.91V10.54Z"/><rect class="cls-3" x="0.01" y="10.54" width="37.97" height="5.57"/><polygon class="cls-3" points="155.21 26.64 157.19 21.04 184.37 21.05 184.37 26.63 155.21 26.64"/><polygon class="cls-3" points="146.13 21.04 148.11 26.64 119.22 26.64 119.22 21.04 146.13 21.04"/><path class="cls-3" d="M103.86,21a18.23,18.23,0,0,1-.8,5.6H86.5V21Z"/><rect class="cls-3" x="10.59" y="21.07" width="16.32" height="5.57"/><rect class="cls-3" x="53.89" y="21.04" width="16.29" height="5.6"/><path class="cls-3" d="M135.27,32.69v4.24H119.22V31.36H149.8l1.9,5.2s1.83-5.21,1.84-5.2h30.82v5.57h-16V32.69l-1.47,4.24H136.74Z"/><path class="cls-3" d="M53.89,31.36h46.77A21.07,21.07,0,0,1,96,36.93H53.89Z"/><rect class="cls-3" x="10.59" y="31.36" width="16.32" height="5.57"/><rect class="cls-3" x="168.39" y="41.87" width="15.97" height="5.57"/><path class="cls-3" d="M135.27,41.87H119.22v5.57h16.05S135.29,41.87,135.27,41.87Z"/><path class="cls-3" d="M165.17,41.87c-.08,0-1.87,5.57-1.95,5.57H140.47s-2-5.59-2-5.58Z"/><path class="cls-3" d="M53.89,41.87H95.94a27.19,27.19,0,0,1,5,5.57H53.89Z"/><path class="cls-3" d="M26.91,47.44V41.87H10.61s0,5.57,0,5.57Z"/><rect class="cls-3" x="168.39" y="52.37" width="15.97" height="5.57"/><rect class="cls-3" x="119.22" y="52.37" width="16.05" height="5.57"/><path class="cls-3" d="M159.48,58s2-5.6,2-5.6H142.15s2,5.58,2,5.58S159.48,58,159.48,58Z"/><path class="cls-3" d="M53.89,58V52.37H70.42s0,5.58,0,5.58S53.89,57.94,53.89,58Z"/><path class="cls-3" d="M103.27,52.37a16.19,16.19,0,0,1,1,5.6H86.8v-5.6Z"/><rect class="cls-3" x="10.61" y="52.37" width="16.29" height="5.57"/><rect class="cls-3" x="168.39" y="62.66" width="26.71" height="5.58"/><rect class="cls-3" x="108.53" y="62.66" width="26.74" height="5.58"/><polygon class="cls-3" points="155.89 68.24 147.73 68.24 145.78 62.66 157.78 62.66 155.89 68.24"/><path class="cls-3" d="M0,62.66v5.58H38s0-5.57,0-5.57Z"/><path class="cls-3" d="M103.62,62.66c-.4,1.84-.77,4.08-2.11,5.58H42.9V62.66Z"/><polygon class="cls-3" points="152.19 78.76 151.44 78.76 149.54 73.17 154.15 73.17 152.19 78.76"/><rect class="cls-3" x="168.39" y="73.17" width="26.71" height="5.6"/><path class="cls-3" d="M42.9,78.76V73.18h55A20.82,20.82,0,0,1,83.7,78.77H42.9"/><rect class="cls-3" x="108.53" y="73.17" width="26.74" height="5.6"/><path class="cls-3" d="M38,73.2s0,5.56,0,5.56S0,78.78,0,78.77s0-5.59,0-5.59S37.93,73.21,38,73.2Z"/></g></g></svg>