<svg xmlns="http://www.w3.org/2000/svg" viewBox="0 0 171.66 41.16"><defs><style>.cls-1{fill:#e5751a;}.cls-2{fill:#81c02e;}.cls-3{fill:#84c133;}.cls-4{fill:#e27720;}.cls-5{fill:#e27923;}.cls-6{fill:#e5e5e4;}.cls-7{fill:#8ec447;}</style></defs><title>Asset 1</title><g id="Layer_2" data-name="Layer 2"><g id="Layer_1-2" data-name="Layer 1"><path class="cls-1" d="M69.51,16.93c0-3.21.1-6.41,0-9.61a5.67,5.67,0,0,1,1.65-4.25A9.76,9.76,0,0,1,81.7.8,6.53,6.53,0,0,1,86,6.88c0,1.33.55,1.57,1.73,1.53a10.59,10.59,0,0,1,4.08.21,5.8,5.8,0,0,1,3.37,2.91,2.23,2.23,0,0,0,.34,1.81,2.32,2.32,0,0,1-.06.46c-.55,1.53,0,2.42,1.48,3.08s2.3,2.23,2.87,3.94c.58-1.21,1-2.33,1.62-3.34a12.48,12.48,0,0,1,11.82-6.42c1.71,0,3.6-.54,5.06,1,.09.09.4,0,.58,0,4.36-1.59,6.14-1.17,9.19,2.2.5-.25.27-.71.28-1.06,0-2.49,0-5,0-7.48a3.61,3.61,0,0,1,1.18-2.87A9.59,9.59,0,0,1,138.18.31c2.29.43,3.68,2,4.54,4.24,2.28-3.79,5.61-5,9.7-4.4a7.25,7.25,0,0,1,6.25,7.33c0,2.14,0,4.28,0,6.42,0,.8.19,1.48,1.14,1.44s1.23-.63,1.23-1.46c0-1.17,0-2.34,0-3.51a3.27,3.27,0,0,1,2.64-3.45,8,8,0,0,1,5,.06c2.22.71,3,1.81,3,4.15,0,3.16,0,6.31,0,9.47a2.12,2.12,0,0,1-.85,1.94,2.35,2.35,0,0,0,.11,4.06,1.51,1.51,0,0,1,.66,1.4c0,2,0,4.07,0,6.11a6.31,6.31,0,0,1-5.12,6.41,8.65,8.65,0,0,1-8.9-3.68c-.28-.4-.53-.83-.91-1.41-1.15,3.42-3.3,5.41-6.88,5.34-3.33-.07-5.65-1.76-7.1-4.93-1.29,3.1-3.47,4.87-6.76,4.93A6.78,6.78,0,0,1,129,36.1c-1.29,3.59-4.11,4.66-7.33,4.62-1.54,0-3-.35-4.58.21-1.22.43-2.71.13-4.09.11A15.07,15.07,0,0,1,99.51,30.89c-.08-.28-.17-.56-.34-1.1-.6,1.09-1,2-1.56,2.81C94.17,38,89.36,41,82.82,40.46c-6.11-.54-10-4.27-12.66-9.55-.8-1.59-.32-3.32-.59-5ZM162,34.72h0l.06-.67c.19-.36.52-.32.84-.33a.65.65,0,0,0,.68-.23,4.15,4.15,0,0,0,2.16-1.88l.23-.51,0-.4a1,1,0,0,0,0-1.54L166,27.84l-.19-.5c-1.93-2.35-2.1-4.69,0-7l.19-.5s-.07-.09-.06-.13.06-.18.09-.27c.5-.36.34-.9.34-1.38,0-1.59,0-3.18,0-4.77.21-.29.42-.29.64,0,0,2.3,0,4.6,0,6.9.05.06.05.12,0,.16a.72.72,0,0,0-.27.8,4.36,4.36,0,0,1-1.24,2.27c-.44.32-.46.62.05.88s.47,1,1.06,1.12c.22-.65-.07-1.25.35-1.84a10.62,10.62,0,0,0,1.88-7.59,40.7,40.7,0,0,1,0-4.28c0-1.74-.58-2.18-2.78-2.17-1.93,0-2.1.18-2.11,2,0,.76,0,1.52,0,2.29,0,2.62-1.66,4.36-4.07,4.39s-4.06-1.59-4.11-4.29c0-2.19,0-4.37,0-6.56a4,4,0,0,0-2.68-4,6.66,6.66,0,0,0-5.74.39,3.2,3.2,0,0,0-1.82,3.08c0,8.85,0,17.71-.16,26.56a4.49,4.49,0,0,0,4.17,4.55c2.22.23,3.82-1.08,4.34-3.57.25-1.2.43-2.41.73-3.59a2.14,2.14,0,0,1,2.14-1.84,2.08,2.08,0,0,1,2.09,1.87c.15.69.22,1.4.31,2.11a5.53,5.53,0,0,0,4,4.71c2.57.91,6.17-.67,5.62-4.09a10.92,10.92,0,0,1,0-2.74,3.89,3.89,0,0,0-1.13-3.45,6,6,0,0,0-.22-.72c-.13-.29-.1-.85-.59-.71-.66.18-.13.65-.09,1,0,.17.21.32.32.48l0,.57,0,3.55,0,.07,0,.06a.68.68,0,0,0-.28.78,3.47,3.47,0,0,1-3,2.31l-.37.16-.93.11Zm-22.2-.61a.31.31,0,0,0,0-.44,12.8,12.8,0,0,0,.2-3.27c.66-6.73.22-13.45,0-20.18,0-1.32,0-2.64,0-4a2.89,2.89,0,0,0-1.07-2.42A4.43,4.43,0,0,0,134,3.53c-1.53.78-2.75,1.78-2.72,3.82.11,8.89.22,17.78.11,26.67,0,2.16,2.22,3.86,4.2,3.9A3.87,3.87,0,0,0,139.83,34.11ZM72.43,17.47h.14c0,2.85.18,5.72,0,8.55-.29,3.63,1.3,6.31,3.82,8.56,3.78,3.37,8.19,4.2,12.75,2s7.9-5.39,7.67-11c-.06-1.27,0-2.55,0-3.82,0-2-1.06-2.92-3.26-2.92s-2.84.51-2.86,2.74c0,.25,0,.51,0,.76a3.65,3.65,0,0,1-3.66,3.39,3.49,3.49,0,0,1-3.4-3.45c-.07-1.47,0-3,0-4.43-.06-1.06.38-1.27,1.33-1.24,1.93.06,3.86,0,5.8,0,.39,0,.93.19,1.15-.17a4.58,4.58,0,0,0,.5-3.67,2.11,2.11,0,0,0-2.32-1.57H85.67c-2.48,0-2.49,0-2.4-2.51.06-1.84-.13-3.58-1.79-4.77-2.1-1.51-6.41-1.08-8.25.78a3.08,3.08,0,0,0-.81,2.37C72.45,10.55,72.43,14,72.43,17.47Zm53.72,8.44h.19c0-2.74-.07-5.49,0-8.24a3.08,3.08,0,0,0-1.76-3.1c-1.32-.65-2.72-1.19-4.15-.13a3.13,3.13,0,0,1-3.19.33,6,6,0,0,0-1.56-.56c-6.42-.37-11.59.76-13.56,8.87-2.06,8.47,5.09,16.09,12,15.07,1.32-.2,2.65.05,3.9-.86a2.72,2.72,0,0,1,2.9.18,3.56,3.56,0,0,0,5.23-3C126.19,31.61,126.15,28.76,126.15,25.91Zm-37.69-4.7A1.32,1.32,0,0,0,87.06,20a1.23,1.23,0,0,0-1.33,1.33,1.26,1.26,0,0,0,1.45,1.36A1.33,1.33,0,0,0,88.46,21.21Z"/><path class="cls-2" d="M69.51,16.93l.06,9A6.56,6.56,0,0,1,66.72,29c.13.17.19.33.31.39a6,6,0,0,1,2.17,8.72,4.4,4.4,0,0,1-3.92,2.42,64.66,64.66,0,0,1-9.44,0A13.61,13.61,0,0,1,45.53,34c-.48-.75-.94-1.52-1.64-2.66a38.24,38.24,0,0,1-.31,4.87c-.48,2.86-1.87,4.16-4.76,4.34a10.47,10.47,0,0,1-1.37,0C33.51,40.32,32.09,38.88,32,35c-.06-1.93-.05-3.86-.05-5.8,0-.78-.08-1.51-1.07-1.47s-1,.74-1,1.44c0,2.14,0,4.28,0,6.42A4.48,4.48,0,0,1,27.06,40a6.61,6.61,0,0,1-6.3-.09,4.28,4.28,0,0,1-2.35-4c0-2.24,0-4.48,0-6.72,0-.83-.1-1.58-1.18-1.56S16,28.29,16,29.17c0,1.58,0,3.16,0,4.74,0,4.25-2.26,6.53-6.5,6.49a20.2,20.2,0,0,1-5.14-.55A5.36,5.36,0,0,1,0,34.21c0-5.5,0-11,0-16.5,0-4.64,5.59-8,9.71-5.89a1.58,1.58,0,0,0,1.56,0,9.73,9.73,0,0,1,9.2.61,1.74,1.74,0,0,0,1.8.23c7.78-3.56,17.46-.75,20.63,8.57a1.75,1.75,0,0,0,.23.38c.56-.27.55-.84.74-1.27,3-6.81,11.45-10.91,18.36-8.92A13.74,13.74,0,0,1,69.51,16.93ZM2.65,26c0,2.7,0,5.4,0,8.09a2.85,2.85,0,0,0,2.44,3.2,16.77,16.77,0,0,0,4.69.41c2.5,0,3.55-1,3.58-3.52,0-1.89,0-3.77,0-5.65a3.72,3.72,0,0,1,3.94-3.62A3.52,3.52,0,0,1,21,28.59c0,2.18,0,4.37,0,6.56,0,2,.88,2.89,2.86,2.91,2.24,0,3.45-1,3.47-2.9q0-3.28,0-6.57a3.27,3.27,0,0,1,1.53-3,3.78,3.78,0,0,1,3.93-.1,3.35,3.35,0,0,1,2.11,3.2c0,2.29,0,4.58.11,6.87,0,.85.1,1.74,1.11,2.15,2.94,1.2,4.87.05,5-3.09.1-2.85.13-5.7,0-8.55a12.12,12.12,0,0,0-4.9-9.9c-4.37-3.19-9.11-3.06-13.83-.7A2,2,0,0,1,20,15.3a7.11,7.11,0,0,0-8.13-.85,3,3,0,0,1-2.93,0,4.21,4.21,0,0,0-6.28,3.81C2.64,20.84,2.65,23.44,2.65,26ZM59.09,38.19A32.42,32.42,0,0,0,64.52,38a3.4,3.4,0,0,0,3-3.62,3.11,3.11,0,0,0-3.21-3.14l-6.26,0a1.26,1.26,0,0,1-1.41-1.41c0-1,.5-1.35,1.43-1.35s1.73-.06,2.59-.09a7,7,0,0,0,6.91-5.27,5.55,5.55,0,0,0-.52-5,9.27,9.27,0,0,0-5.29-3.91c-5-1.41-11.28,1.23-14.38,6.06-2.81,4.38-2.27,9.15,1.37,13.65C51.53,37.41,55.35,38.17,59.09,38.19Z"/><path class="cls-3" d="M95.55,13.34a2.23,2.23,0,0,1-.34-1.81c.91-1.33,1.73-2.74,2.75-4,4.31-5.28,9.87-7.24,16.55-6a42.17,42.17,0,0,1,4.11,1.09c.66.19,1.31.54,1,1.4s-1,.63-1.64.41a19.13,19.13,0,0,0-9.73-1.08c-5.16,1-8.57,4.16-10.94,8.65C96.92,12.75,96.6,13.52,95.55,13.34Z"/><path class="cls-4" d="M63.49,4.49c-.21.84-.78.93-1.59.61a18.35,18.35,0,0,0-5.15-1.28,14.5,14.5,0,0,0-14,6.61A26.27,26.27,0,0,0,41.21,13c-.35.65-.75,1.2-1.53.78s-.49-1-.2-1.59C44,3,52.92-.5,62.59,3.31,63.08,3.5,63.52,3.75,63.49,4.49Z"/><path class="cls-3" d="M111.57,6a35.86,35.86,0,0,1,5.66.78c.59.13,1.16.34,1,1.05s-.72.69-1.33.59a33.13,33.13,0,0,0-5.88-.7A9.71,9.71,0,0,0,102.72,12c-.63.91-1.2,1.88-1.78,2.83-.32.53-.72.92-1.35.54s-.37-.83-.14-1.33A12.66,12.66,0,0,1,111.57,6Z"/><path class="cls-4" d="M55.28,8.4c-4.5-.26-7.53,2.27-9.77,6.16-.38.66-.6,2-1.71,1.41s0-1.61.35-2.29c4-7.23,9.86-8,17.11-6.19.53.13,1,.43.79,1.06s-.67.66-1.24.53A21.31,21.31,0,0,0,55.28,8.4Z"/><path class="cls-5" d="M167,13.24a15.6,15.6,0,0,1,0,6.9C167,17.84,167,15.54,167,13.24Z"/><path class="cls-5" d="M166,19.4c0-1.59,0-3.19,0-4.78,0-.47-.21-1,.32-1.37,0,1.59,0,3.18,0,4.77C166.37,18.5,166.53,19,166,19.4Z"/><path class="cls-5" d="M167.61,27.32l-.58,0c-.11-.16-.31-.31-.32-.48,0-.33-.57-.8.09-1,.49-.14.46.42.59.71A6,6,0,0,1,167.61,27.32Z"/><path class="cls-5" d="M167,27.92a4.84,4.84,0,0,1,0,3.55Z"/><path class="cls-5" d="M166,30.7l0-1.54A1,1,0,0,1,166,30.7Z"/><path class="cls-5" d="M165.5,23.37c0,.3,0,.59.05.88C165,24,165.06,23.69,165.5,23.37Z"/><path class="cls-5" d="M162,34.72c-.29-.25-.27-.47.06-.67Z"/><path class="cls-5" d="M167,20.3a.86.86,0,0,1-.27.8A.72.72,0,0,1,167,20.3Z"/><path class="cls-5" d="M167,31.6a.9.9,0,0,1-.28.78A.68.68,0,0,1,167,31.6Z"/><path class="cls-5" d="M162.94,33.72l.68-.23A.65.65,0,0,1,162.94,33.72Z"/><path class="cls-6" d="M139.83,34.11c0-.15,0-.29,0-.44A.31.31,0,0,1,139.83,34.11Z"/><path class="cls-5" d="M162.41,35a.3.3,0,0,1-.38-.24Z"/><path class="cls-5" d="M165.78,31.61l.23-.51Z"/><path class="cls-5" d="M163.71,34.69l-.37.16Z"/><path class="cls-5" d="M165.81,20.3c.06-.17.13-.33.19-.5C165.94,20,165.87,20.13,165.81,20.3Z"/><path class="cls-5" d="M166,27.84l-.19-.5Z"/><path class="cls-4" d="M148.05,20.73v9c0,2.4.54,3.17,2.75,3.94.54.18,1.46.14,1.21,1s-1.13.37-1.66.21c-2.64-.8-3.59-2.14-3.6-4.92V11.2c0-.3,0-.61,0-.91s.13-.86.67-.82.62.45.62.89V20.73Z"/><path class="cls-4" d="M74.36,18.48q0-3.88,0-7.78c0-.48-.12-1.14.63-1.14s.65.65.65,1.14c0,4.58.09,9.15,0,13.72a9,9,0,0,0,5.11,8.66c.13.07.28.12.41.2.35.21.74.45.5.95s-.6.4-1,.25a10.08,10.08,0,0,1-6.19-8.23c-.09-2.58,0-5.18,0-7.77Z"/><path class="cls-5" d="M94.92,25.2c-.36,3.33-1.49,6.43-4.72,8.36-.48.28-1.12.9-1.59.19s.34-1,.83-1.28a8.31,8.31,0,0,0,3.91-5.88c.11-.54.18-1.1.26-1.65s0-1.28.8-1.18S94.9,24.53,94.92,25.2Z"/><path class="cls-5" d="M86.13,12.26c1,0,1.93,0,2.89,0,.42,0,.86.09.88.62s-.38.67-.82.67H83.3c-.46,0-.84-.21-.81-.7s.48-.6.9-.6Z"/><path class="cls-1" d="M112.71,27.73a4.51,4.51,0,1,1-.21-9,4.85,4.85,0,0,1,5,4.47A4.86,4.86,0,0,1,112.71,27.73Z"/><path class="cls-4" d="M124.86,26.26c0,1.89,0,3.77,0,5.65a4.31,4.31,0,0,1-3.41,4.15c-.5.12-1.08.31-1.26-.39s.39-.72.82-.88c2.09-.81,2.56-1.5,2.57-3.76,0-3.56,0-7.12,0-10.68,0-.52-.16-1.28.7-1.24s.58.72.58,1.2C124.87,22.29,124.86,24.28,124.86,26.26Z"/><path class="cls-5" d="M103.45,27.17c0-.35,0-.71,0-1.06a.63.63,0,0,1,.7-.64c.37,0,.52.3.55.63s0,.81.06,1.21c.42,4.3,2.4,6.7,6.59,8,.72.23,1.47.39,2.21.56.45.11.82.32.72.81s-.54.49-1,.48A10.29,10.29,0,0,1,103.45,27.17Z"/><path class="cls-4" d="M139.53,10.22q0,10.08,0,20.17c-.71,2.93-2,4.27-4.23,4.51-.53.06-1.24.24-1.34-.57s.62-.66,1.08-.75c2.1-.46,3.11-1.42,3.14-3.66q.14-9.68,0-19.36c0-2.26-1.1-3.31-3.28-3.69-.47-.08-1-.08-1-.71s.69-.58,1.18-.57C137.49,5.67,138.89,7.14,139.53,10.22Z"/><path class="cls-7" d="M38,29c0,1.12,0,2.24,0,3.36,0,.47.19,1.21-.49,1.25S37,32.89,37,32.43a45.72,45.72,0,0,1,0-5.49c.65-6.64-5.39-10-10.42-9.82a11.15,11.15,0,0,0-4.29.94c-.39.18-.93.52-1.15-.12-.18-.48.38-.63.74-.78a12.17,12.17,0,0,1,10.87.4c3.74,1.88,5.35,4.93,5.28,9,0,.81,0,1.63,0,2.44Z"/><path class="cls-7" d="M6.26,26.17c0-2,0-4,0-6,0-.4-.21-1.07.47-1,.5,0,.39.62.39,1,0,3.66,0,7.33,0,11,0,2.47.42,3.07,2.71,4,.37.14,1.09.08.83.75-.19.48-.71.17-1.09.06a4.14,4.14,0,0,1-3.33-4.45Z"/><path class="cls-2" d="M58.28,23.32a4.5,4.5,0,1,1-4.59-4.5A4.51,4.51,0,0,1,58.28,23.32Z"/><path class="cls-3" d="M59.07,36.23c-6.41.08-10.58-3.12-11.74-9-.14-.72-.61-2,.2-2.13s.51,1.17.67,1.82a12.52,12.52,0,0,0,3.63,6.39,6.8,6.8,0,0,0,5.22,2.08c1.92-.12,3.85-.06,5.78-.06.39,0,.93-.09.89.52s-.5.41-.84.41C61.61,36.24,60.34,36.23,59.07,36.23Z"/><path class="cls-7" d="M58.51,15.47c4.13,0,7,2.29,7.65,6,.07.43.45,1.15-.32,1.26-.61.09-.52-.61-.62-1-.9-3.56-3-5.19-6.81-5.29-.41,0-.81,0-1.22,0-.25,0-.54,0-.59-.35s.22-.56.54-.58S58.06,15.47,58.51,15.47Z"/></g></g></svg>