<svg xmlns="http://www.w3.org/2000/svg" viewBox="0 0 365 227.08"><defs><style>.cls-1{fill:#264670;}.cls-2{fill:#8a8a89;}</style></defs><title>Asset 1</title><g id="Layer_2" data-name="Layer 2"><g id="Layer_1-2" data-name="Layer 1"><g id="_Group_" data-name="&lt;Group&gt;"><path id="_Path_" data-name="&lt;Path&gt;" class="cls-1" d="M267,6.36l-20.6,35.8H224.77l-25.54,44.3h21.68l-16.4,28.47h53.24A96.42,96.42,0,0,0,267,6.36"/><path id="_Path_2" data-name="&lt;Path&gt;" class="cls-1" d="M161.58,114.93h0l0-.05L227.75,0h-56L133.64,66.3,99.11,6.3a96.46,96.46,0,0,0,9.23,108.63Z"/><path id="_Compound_Path_" data-name="&lt;Compound Path&gt;" class="cls-1" d="M6.85,192.85c0,19.07,8.7,28.17,23.67,28.17s23.67-9.1,23.67-28.17-8.71-28.27-23.67-28.27-23.67,9.1-23.67,28.27m-6.85,0c0-23.18,11.54-34.33,30.52-34.33S61,169.67,61,192.85c0,23-11.54,34.23-30.51,34.23S0,215.83,0,192.85"/><path id="_Path_3" data-name="&lt;Path&gt;" class="cls-1" d="M113.36,161.26a3.34,3.34,0,0,1,3.12-2.16,3.3,3.3,0,0,1,3.33,3.33,5.12,5.12,0,0,1-.29,1.47L96.63,224.24a3.3,3.3,0,0,1-6.26,0L67.48,163.9a5.12,5.12,0,0,1-.29-1.47,3.3,3.3,0,0,1,3.33-3.33,3.37,3.37,0,0,1,3.13,2.16L93.5,213.87Z"/><path id="_Path_4" data-name="&lt;Path&gt;" class="cls-1" d="M136.14,195v28.17a3.33,3.33,0,0,1-6.65,0V162.43a3.33,3.33,0,1,1,6.65,0v26.5h34v-26.5a3.33,3.33,0,1,1,6.65,0v60.74a3.33,3.33,0,0,1-6.65,0V195Z"/><path id="_Path_5" data-name="&lt;Path&gt;" class="cls-2" d="M187.88,221.9c0-3.23,1.76-4.7,4.6-4.7s4.59,1.47,4.59,4.7-1.76,4.59-4.59,4.59-4.6-1.37-4.6-4.59"/><path id="_Path_6" data-name="&lt;Path&gt;" class="cls-2" d="M223.87,179.94c8.71,0,13.5,4.59,15.06,6.74a3,3,0,0,1,.69,1.86,2.78,2.78,0,0,1-2.84,2.84,2.93,2.93,0,0,1-2.35-1.17c-1.46-1.67-4.1-4.6-10.56-4.6-9,0-13.79,5.77-13.79,17.8,0,12.23,4.79,17.9,13.79,17.9a17.75,17.75,0,0,0,11.34-4.21,2.94,2.94,0,0,1,1.86-.68,2.84,2.84,0,0,1,2.84,2.83,3,3,0,0,1-1.27,2.45A22.31,22.31,0,0,1,223.87,227c-12.62,0-20.15-7.53-20.15-23.57s7.53-23.47,20.15-23.47"/><path id="_Compound_Path_2" data-name="&lt;Compound Path&gt;" class="cls-2" d="M281.57,203.41c0-12.32-5.18-17.8-14.18-17.8s-14.18,5.48-14.18,17.8c0,12.52,5.18,17.9,14.18,17.9s14.18-5.38,14.18-17.9m6.36,0c0,16-7.82,23.57-20.54,23.57s-20.54-7.53-20.54-23.57,7.92-23.47,20.54-23.47,20.54,7.43,20.54,23.47"/><path id="_Path_7" data-name="&lt;Path&gt;" class="cls-2" d="M365,197.25v26.11a3.13,3.13,0,0,1-6.26,0V198.52c0-7.73-2.74-13-12.23-13-8.41,0-12.22,4.5-12.22,11.74v26.11a3.13,3.13,0,1,1-6.26,0V198.52c0-7.73-2.45-13-12-13-9.1,0-12,5.48-12,13.69v24.16a3.13,3.13,0,0,1-6.26,0V183.65a3.13,3.13,0,0,1,6.26,0v3.13c1.66-3.62,6.36-6.84,12.71-6.84,8,0,13.21,2.93,15.55,6.84,2.45-3.81,6.75-6.84,14.28-6.84,15.07,0,18.49,9,18.49,17.31"/></g></g></g></svg>