<svg xmlns="http://www.w3.org/2000/svg" xmlns:xlink="http://www.w3.org/1999/xlink" viewBox="0 0 242.19 199.52"><defs><style>.cls-1{fill:#eb008b;}.cls-2{fill:#fd0;}.cls-3{fill:#b01117;}.cls-4{fill:url(#linear-gradient);}.cls-5{fill:#f9a51a;}.cls-6{fill:url(#linear-gradient-2);}.cls-7{fill:#e01b22;}</style><linearGradient id="linear-gradient" x1="198.59" y1="76.62" x2="242.11" y2="76.62" gradientUnits="userSpaceOnUse"><stop offset="0" stop-color="#2e3191"/><stop offset="1" stop-color="#8f358a"/></linearGradient><linearGradient id="linear-gradient-2" x1="200.84" y1="73.98" x2="213.86" y2="49.39" gradientUnits="userSpaceOnUse"><stop offset="0" stop-color="#fff100"/><stop offset="1" stop-color="#f05a22"/></linearGradient></defs><title>Asset 6</title><g id="Layer_2" data-name="Layer 2"><g id="Layer_1-2" data-name="Layer 1"><polygon class="cls-1" points="154.52 101.08 198.71 76.56 198.3 127.43 154.52 101.08"/><polygon class="cls-2" points="153.88 0 197.91 24.8 154.36 51.09 153.88 0"/><polyline class="cls-3" points="198.3 127.43 242.19 101.74 198.71 76.56"/><polyline class="cls-4" points="198.59 76.68 241.73 51.3 242.11 101.94"/><polyline class="cls-5" points="154.36 51.09 198.68 76.66 197.91 24.8"/><polyline class="cls-6" points="241.77 51.35 198.69 76.66 197.91 24.8"/><path class="cls-7" d="M0,127.42s1.52-8.21,7-9H74.08s-10.64-6.79-4.76-17.63c0,0,6.48-14.9,41.54-20,0,0,24.43-4,30.2,8.92,0,0,6.18,11.86-4.25,18.75l-8-7s-1-.74,1-2.71c0,0,3.49-5.17.45-7.76,0,0-2.66-4.1-15.81-2.5,0,0-25.08,4.48-32.83,16.95,0,0-3.57,8.2,6.46,13.3h70.08s-2.13,7.29-5.63,8.74h-1.6v59.43s-33.82-8.59-52.67-30.78c0,0-.83-3,4.49-7.37,0,0,13.53-13.46,37.39-18.09V127H87.89v60.35s-9.27-2-10.49-8.21V127.12H57.64v60.49S26.05,179.81,5,156.91c0,0-2.13-4.18,4.48-9a87,87,0,0,1,37.32-17.17v-3.88Zm45.6,46.21-.4-28.17C27.47,148.6,23,156.2,23,156.2,26.15,163.9,45.6,173.63,45.6,173.63Zm92.63,0-.41-28.17c-17.73,3.14-22.19,10.74-22.19,10.74C118.77,163.9,138.23,173.63,138.23,173.63ZM22.3,199.37c6.38,1.42,8.51-7.6,8.51-7.6,2.94-7.81-4.26-11-4.26-11-5.77-1.62-9.72,9-9.72,9C16.22,198.46,22.3,199.37,22.3,199.37Z"/></g></g></svg>